%TF.GenerationSoftware,KiCad,Pcbnew,9.0.0*%
%TF.CreationDate,2025-03-15T22:48:14+01:00*%
%TF.ProjectId,DMH_Multiverter_Mk2_PANEL,444d485f-4d75-46c7-9469-766572746572,rev?*%
%TF.SameCoordinates,Original*%
%TF.FileFunction,Profile,NP*%
%FSLAX46Y46*%
G04 Gerber Fmt 4.6, Leading zero omitted, Abs format (unit mm)*
G04 Created by KiCad (PCBNEW 9.0.0) date 2025-03-15 22:48:14*
%MOMM*%
%LPD*%
G01*
G04 APERTURE LIST*
%TA.AperFunction,Profile*%
%ADD10C,0.050000*%
%TD*%
G04 APERTURE END LIST*
D10*
X50000000Y-30000000D02*
X100000000Y-30000000D01*
X100000000Y-230000000D01*
X50000000Y-230000000D01*
X50000000Y-30000000D01*
%TO.C,H23*%
X63400000Y-192250000D02*
G75*
G02*
X53600000Y-192250000I-4900000J0D01*
G01*
X53600000Y-192250000D02*
G75*
G02*
X63400000Y-192250000I4900000J0D01*
G01*
%TO.C,H27*%
X79900000Y-208750000D02*
G75*
G02*
X70100000Y-208750000I-4900000J0D01*
G01*
X70100000Y-208750000D02*
G75*
G02*
X79900000Y-208750000I4900000J0D01*
G01*
%TO.C,H12*%
X63400000Y-143500000D02*
G75*
G02*
X53600000Y-143500000I-4900000J0D01*
G01*
X53600000Y-143500000D02*
G75*
G02*
X63400000Y-143500000I4900000J0D01*
G01*
%TO.C,H5*%
X63400000Y-50000000D02*
G75*
G02*
X53600000Y-50000000I-4900000J0D01*
G01*
X53600000Y-50000000D02*
G75*
G02*
X63400000Y-50000000I4900000J0D01*
G01*
%TO.C,H22*%
X96400000Y-175750000D02*
G75*
G02*
X86600000Y-175750000I-4900000J0D01*
G01*
X86600000Y-175750000D02*
G75*
G02*
X96400000Y-175750000I4900000J0D01*
G01*
%TO.C,H24*%
X79900000Y-192250000D02*
G75*
G02*
X70100000Y-192250000I-4900000J0D01*
G01*
X70100000Y-192250000D02*
G75*
G02*
X79900000Y-192250000I4900000J0D01*
G01*
%TO.C,H8*%
X63400000Y-88250000D02*
G75*
G02*
X53600000Y-88250000I-4900000J0D01*
G01*
X53600000Y-88250000D02*
G75*
G02*
X63400000Y-88250000I4900000J0D01*
G01*
%TO.C,H26*%
X63400000Y-208750000D02*
G75*
G02*
X53600000Y-208750000I-4900000J0D01*
G01*
X53600000Y-208750000D02*
G75*
G02*
X63400000Y-208750000I4900000J0D01*
G01*
%TO.C,H10*%
X87500000Y-97000000D02*
G75*
G02*
X78500000Y-97000000I-4500000J0D01*
G01*
X78500000Y-97000000D02*
G75*
G02*
X87500000Y-97000000I4500000J0D01*
G01*
%TO.C,H28*%
X96400000Y-208750000D02*
G75*
G02*
X86600000Y-208750000I-4900000J0D01*
G01*
X86600000Y-208750000D02*
G75*
G02*
X96400000Y-208750000I4900000J0D01*
G01*
%TO.C,H21*%
X79900000Y-175750000D02*
G75*
G02*
X70100000Y-175750000I-4900000J0D01*
G01*
X70100000Y-175750000D02*
G75*
G02*
X79900000Y-175750000I4900000J0D01*
G01*
%TO.C,H25*%
X96400000Y-192250000D02*
G75*
G02*
X86600000Y-192250000I-4900000J0D01*
G01*
X86600000Y-192250000D02*
G75*
G02*
X96400000Y-192250000I4900000J0D01*
G01*
%TO.C,H11*%
X63400000Y-126500000D02*
G75*
G02*
X53600000Y-126500000I-4900000J0D01*
G01*
X53600000Y-126500000D02*
G75*
G02*
X63400000Y-126500000I4900000J0D01*
G01*
%TO.C,H9*%
X63400000Y-105250000D02*
G75*
G02*
X53600000Y-105250000I-4900000J0D01*
G01*
X53600000Y-105250000D02*
G75*
G02*
X63400000Y-105250000I4900000J0D01*
G01*
%TO.C,H7*%
X87500000Y-58750000D02*
G75*
G02*
X78500000Y-58750000I-4500000J0D01*
G01*
X78500000Y-58750000D02*
G75*
G02*
X87500000Y-58750000I4500000J0D01*
G01*
%TO.C,H20*%
X63400000Y-175750000D02*
G75*
G02*
X53600000Y-175750000I-4900000J0D01*
G01*
X53600000Y-175750000D02*
G75*
G02*
X63400000Y-175750000I4900000J0D01*
G01*
%TO.C,H6*%
X63400000Y-67000000D02*
G75*
G02*
X53600000Y-67000000I-4900000J0D01*
G01*
X53600000Y-67000000D02*
G75*
G02*
X63400000Y-67000000I4900000J0D01*
G01*
%TO.C,H13*%
X87500000Y-135000000D02*
G75*
G02*
X78500000Y-135000000I-4500000J0D01*
G01*
X78500000Y-135000000D02*
G75*
G02*
X87500000Y-135000000I4500000J0D01*
G01*
%TD*%
M02*
