%TF.GenerationSoftware,KiCad,Pcbnew,9.0.0*%
%TF.CreationDate,2025-03-15T22:48:14+01:00*%
%TF.ProjectId,DMH_Multiverter_Mk2_PANEL,444d485f-4d75-46c7-9469-766572746572,rev?*%
%TF.SameCoordinates,Original*%
%TF.FileFunction,Soldermask,Bot*%
%TF.FilePolarity,Negative*%
%FSLAX46Y46*%
G04 Gerber Fmt 4.6, Leading zero omitted, Abs format (unit mm)*
G04 Created by KiCad (PCBNEW 9.0.0) date 2025-03-15 22:48:14*
%MOMM*%
%LPD*%
G01*
G04 APERTURE LIST*
%ADD10C,4.000000*%
%ADD11C,0.500000*%
%ADD12C,12.000000*%
%ADD13R,5.000000X10.000000*%
G04 APERTURE END LIST*
D10*
%TO.C,H3*%
X53500000Y-226500000D03*
%TD*%
D11*
%TO.C,H23*%
X52800000Y-192250000D03*
X54460000Y-188220000D03*
X54470000Y-196290000D03*
X58500000Y-186550000D03*
D12*
X58500000Y-192250000D03*
D11*
X58500000Y-197950000D03*
X62530000Y-196290000D03*
X62540000Y-188220000D03*
X64200000Y-192250000D03*
%TD*%
%TO.C,H27*%
X69300000Y-208750000D03*
X70960000Y-204720000D03*
X70970000Y-212790000D03*
X75000000Y-203050000D03*
D12*
X75000000Y-208750000D03*
D11*
X75000000Y-214450000D03*
X79030000Y-212790000D03*
X79040000Y-204720000D03*
X80700000Y-208750000D03*
%TD*%
%TO.C,H12*%
X52800000Y-143500000D03*
X54460000Y-139470000D03*
X54470000Y-147540000D03*
X58500000Y-137800000D03*
D12*
X58500000Y-143500000D03*
D11*
X58500000Y-149200000D03*
X62530000Y-147540000D03*
X62540000Y-139470000D03*
X64200000Y-143500000D03*
%TD*%
%TO.C,H5*%
X52800000Y-50000000D03*
X54460000Y-45970000D03*
X54470000Y-54040000D03*
X58500000Y-44300000D03*
D12*
X58500000Y-50000000D03*
D11*
X58500000Y-55700000D03*
X62530000Y-54040000D03*
X62540000Y-45970000D03*
X64200000Y-50000000D03*
%TD*%
%TO.C,H22*%
X85800000Y-175750000D03*
X87460000Y-171720000D03*
X87470000Y-179790000D03*
X91500000Y-170050000D03*
D12*
X91500000Y-175750000D03*
D11*
X91500000Y-181450000D03*
X95530000Y-179790000D03*
X95540000Y-171720000D03*
X97200000Y-175750000D03*
%TD*%
%TO.C,H24*%
X69300000Y-192250000D03*
X70960000Y-188220000D03*
X70970000Y-196290000D03*
X75000000Y-186550000D03*
D12*
X75000000Y-192250000D03*
D11*
X75000000Y-197950000D03*
X79030000Y-196290000D03*
X79040000Y-188220000D03*
X80700000Y-192250000D03*
%TD*%
%TO.C,H8*%
X52800000Y-88250000D03*
X54460000Y-84220000D03*
X54470000Y-92290000D03*
X58500000Y-82550000D03*
D12*
X58500000Y-88250000D03*
D11*
X58500000Y-93950000D03*
X62530000Y-92290000D03*
X62540000Y-84220000D03*
X64200000Y-88250000D03*
%TD*%
%TO.C,H26*%
X52800000Y-208750000D03*
X54460000Y-204720000D03*
X54470000Y-212790000D03*
X58500000Y-203050000D03*
D12*
X58500000Y-208750000D03*
D11*
X58500000Y-214450000D03*
X62530000Y-212790000D03*
X62540000Y-204720000D03*
X64200000Y-208750000D03*
%TD*%
D12*
%TO.C,H10*%
X83000000Y-97000000D03*
%TD*%
D11*
%TO.C,H28*%
X85800000Y-208750000D03*
X87460000Y-204720000D03*
X87470000Y-212790000D03*
X91500000Y-203050000D03*
D12*
X91500000Y-208750000D03*
D11*
X91500000Y-214450000D03*
X95530000Y-212790000D03*
X95540000Y-204720000D03*
X97200000Y-208750000D03*
%TD*%
%TO.C,H21*%
X69300000Y-175750000D03*
X70960000Y-171720000D03*
X70970000Y-179790000D03*
X75000000Y-170050000D03*
D12*
X75000000Y-175750000D03*
D11*
X75000000Y-181450000D03*
X79030000Y-179790000D03*
X79040000Y-171720000D03*
X80700000Y-175750000D03*
%TD*%
%TO.C,H25*%
X85800000Y-192250000D03*
X87460000Y-188220000D03*
X87470000Y-196290000D03*
X91500000Y-186550000D03*
D12*
X91500000Y-192250000D03*
D11*
X91500000Y-197950000D03*
X95530000Y-196290000D03*
X95540000Y-188220000D03*
X97200000Y-192250000D03*
%TD*%
%TO.C,H11*%
X52800000Y-126500000D03*
X54460000Y-122470000D03*
X54470000Y-130540000D03*
X58500000Y-120800000D03*
D12*
X58500000Y-126500000D03*
D11*
X58500000Y-132200000D03*
X62530000Y-130540000D03*
X62540000Y-122470000D03*
X64200000Y-126500000D03*
%TD*%
%TO.C,H9*%
X52800000Y-105250000D03*
X54460000Y-101220000D03*
X54470000Y-109290000D03*
X58500000Y-99550000D03*
D12*
X58500000Y-105250000D03*
D11*
X58500000Y-110950000D03*
X62530000Y-109290000D03*
X62540000Y-101220000D03*
X64200000Y-105250000D03*
%TD*%
D12*
%TO.C,H7*%
X83000000Y-58750000D03*
%TD*%
D10*
%TO.C,H2*%
X96500000Y-33500000D03*
%TD*%
%TO.C,H4*%
X96500000Y-226500000D03*
%TD*%
D11*
%TO.C,H20*%
X52800000Y-175750000D03*
X54460000Y-171720000D03*
X54470000Y-179790000D03*
X58500000Y-170050000D03*
D12*
X58500000Y-175750000D03*
D11*
X58500000Y-181450000D03*
X62530000Y-179790000D03*
X62540000Y-171720000D03*
X64200000Y-175750000D03*
%TD*%
%TO.C,H6*%
X52800000Y-67000000D03*
X54460000Y-62970000D03*
X54470000Y-71040000D03*
X58500000Y-61300000D03*
D12*
X58500000Y-67000000D03*
D11*
X58500000Y-72700000D03*
X62530000Y-71040000D03*
X62540000Y-62970000D03*
X64200000Y-67000000D03*
%TD*%
D10*
%TO.C,H1*%
X53500000Y-33500000D03*
%TD*%
D12*
%TO.C,H13*%
X83000000Y-135000000D03*
%TD*%
D13*
%TO.C,J0*%
X95000000Y-117000000D03*
%TD*%
M02*
