%TF.GenerationSoftware,KiCad,Pcbnew,9.0.0*%
%TF.CreationDate,2025-03-15T22:48:22+01:00*%
%TF.ProjectId,DMH_Multiverter_Mk2_PANEL,444d485f-4d75-46c7-9469-766572746572,rev?*%
%TF.SameCoordinates,Original*%
%TF.FileFunction,Drillmap*%
%TF.FilePolarity,Positive*%
%FSLAX45Y45*%
G04 Gerber Fmt 4.5, Leading zero omitted, Abs format (unit mm)*
G04 Created by KiCad (PCBNEW 9.0.0) date 2025-03-15 22:48:22*
%MOMM*%
%LPD*%
G01*
G04 APERTURE LIST*
%ADD10C,0.050000*%
%ADD11C,0.200000*%
%ADD12C,0.100000*%
%ADD13C,0.320000*%
G04 APERTURE END LIST*
D10*
X5000000Y-3000000D02*
X10000000Y-3000000D01*
X10000000Y-23000000D01*
X5000000Y-23000000D01*
X5000000Y-3000000D01*
X6340000Y-19225000D02*
G75*
G02*
X5360000Y-19225000I-490000J0D01*
G01*
X5360000Y-19225000D02*
G75*
G02*
X6340000Y-19225000I490000J0D01*
G01*
X7990000Y-20875000D02*
G75*
G02*
X7010000Y-20875000I-490000J0D01*
G01*
X7010000Y-20875000D02*
G75*
G02*
X7990000Y-20875000I490000J0D01*
G01*
X6340000Y-14350000D02*
G75*
G02*
X5360000Y-14350000I-490000J0D01*
G01*
X5360000Y-14350000D02*
G75*
G02*
X6340000Y-14350000I490000J0D01*
G01*
X6340000Y-5000000D02*
G75*
G02*
X5360000Y-5000000I-490000J0D01*
G01*
X5360000Y-5000000D02*
G75*
G02*
X6340000Y-5000000I490000J0D01*
G01*
X9640000Y-17575000D02*
G75*
G02*
X8660000Y-17575000I-490000J0D01*
G01*
X8660000Y-17575000D02*
G75*
G02*
X9640000Y-17575000I490000J0D01*
G01*
X7990000Y-19225000D02*
G75*
G02*
X7010000Y-19225000I-490000J0D01*
G01*
X7010000Y-19225000D02*
G75*
G02*
X7990000Y-19225000I490000J0D01*
G01*
X6340000Y-8825000D02*
G75*
G02*
X5360000Y-8825000I-490000J0D01*
G01*
X5360000Y-8825000D02*
G75*
G02*
X6340000Y-8825000I490000J0D01*
G01*
X6340000Y-20875000D02*
G75*
G02*
X5360000Y-20875000I-490000J0D01*
G01*
X5360000Y-20875000D02*
G75*
G02*
X6340000Y-20875000I490000J0D01*
G01*
X8750000Y-9700000D02*
G75*
G02*
X7850000Y-9700000I-450000J0D01*
G01*
X7850000Y-9700000D02*
G75*
G02*
X8750000Y-9700000I450000J0D01*
G01*
X9640000Y-20875000D02*
G75*
G02*
X8660000Y-20875000I-490000J0D01*
G01*
X8660000Y-20875000D02*
G75*
G02*
X9640000Y-20875000I490000J0D01*
G01*
X7990000Y-17575000D02*
G75*
G02*
X7010000Y-17575000I-490000J0D01*
G01*
X7010000Y-17575000D02*
G75*
G02*
X7990000Y-17575000I490000J0D01*
G01*
X9640000Y-19225000D02*
G75*
G02*
X8660000Y-19225000I-490000J0D01*
G01*
X8660000Y-19225000D02*
G75*
G02*
X9640000Y-19225000I490000J0D01*
G01*
X6340000Y-12650000D02*
G75*
G02*
X5360000Y-12650000I-490000J0D01*
G01*
X5360000Y-12650000D02*
G75*
G02*
X6340000Y-12650000I490000J0D01*
G01*
X6340000Y-10525000D02*
G75*
G02*
X5360000Y-10525000I-490000J0D01*
G01*
X5360000Y-10525000D02*
G75*
G02*
X6340000Y-10525000I490000J0D01*
G01*
X8750000Y-5875000D02*
G75*
G02*
X7850000Y-5875000I-450000J0D01*
G01*
X7850000Y-5875000D02*
G75*
G02*
X8750000Y-5875000I450000J0D01*
G01*
X6340000Y-17575000D02*
G75*
G02*
X5360000Y-17575000I-490000J0D01*
G01*
X5360000Y-17575000D02*
G75*
G02*
X6340000Y-17575000I490000J0D01*
G01*
X6340000Y-6700000D02*
G75*
G02*
X5360000Y-6700000I-490000J0D01*
G01*
X5360000Y-6700000D02*
G75*
G02*
X6340000Y-6700000I490000J0D01*
G01*
X8750000Y-13500000D02*
G75*
G02*
X7850000Y-13500000I-450000J0D01*
G01*
X7850000Y-13500000D02*
G75*
G02*
X8750000Y-13500000I450000J0D01*
G01*
D11*
D12*
X5265000Y-4985000D02*
X5295000Y-5015000D01*
X5295000Y-4985000D02*
X5265000Y-5015000D01*
X5265000Y-6685000D02*
X5295000Y-6715000D01*
X5295000Y-6685000D02*
X5265000Y-6715000D01*
X5265000Y-8810000D02*
X5295000Y-8840000D01*
X5295000Y-8810000D02*
X5265000Y-8840000D01*
X5265000Y-10510000D02*
X5295000Y-10540000D01*
X5295000Y-10510000D02*
X5265000Y-10540000D01*
X5265000Y-12635000D02*
X5295000Y-12665000D01*
X5295000Y-12635000D02*
X5265000Y-12665000D01*
X5265000Y-14335000D02*
X5295000Y-14365000D01*
X5295000Y-14335000D02*
X5265000Y-14365000D01*
X5265000Y-17560000D02*
X5295000Y-17590000D01*
X5295000Y-17560000D02*
X5265000Y-17590000D01*
X5265000Y-19210000D02*
X5295000Y-19240000D01*
X5295000Y-19210000D02*
X5265000Y-19240000D01*
X5265000Y-20860000D02*
X5295000Y-20890000D01*
X5295000Y-20860000D02*
X5265000Y-20890000D01*
X5431000Y-4582000D02*
X5461000Y-4612000D01*
X5461000Y-4582000D02*
X5431000Y-4612000D01*
X5431000Y-6282000D02*
X5461000Y-6312000D01*
X5461000Y-6282000D02*
X5431000Y-6312000D01*
X5431000Y-8407000D02*
X5461000Y-8437000D01*
X5461000Y-8407000D02*
X5431000Y-8437000D01*
X5431000Y-10107000D02*
X5461000Y-10137000D01*
X5461000Y-10107000D02*
X5431000Y-10137000D01*
X5431000Y-12232000D02*
X5461000Y-12262000D01*
X5461000Y-12232000D02*
X5431000Y-12262000D01*
X5431000Y-13932000D02*
X5461000Y-13962000D01*
X5461000Y-13932000D02*
X5431000Y-13962000D01*
X5431000Y-17157000D02*
X5461000Y-17187000D01*
X5461000Y-17157000D02*
X5431000Y-17187000D01*
X5431000Y-18807000D02*
X5461000Y-18837000D01*
X5461000Y-18807000D02*
X5431000Y-18837000D01*
X5431000Y-20457000D02*
X5461000Y-20487000D01*
X5461000Y-20457000D02*
X5431000Y-20487000D01*
X5432000Y-5389000D02*
X5462000Y-5419000D01*
X5462000Y-5389000D02*
X5432000Y-5419000D01*
X5432000Y-7089000D02*
X5462000Y-7119000D01*
X5462000Y-7089000D02*
X5432000Y-7119000D01*
X5432000Y-9214000D02*
X5462000Y-9244000D01*
X5462000Y-9214000D02*
X5432000Y-9244000D01*
X5432000Y-10914000D02*
X5462000Y-10944000D01*
X5462000Y-10914000D02*
X5432000Y-10944000D01*
X5432000Y-13039000D02*
X5462000Y-13069000D01*
X5462000Y-13039000D02*
X5432000Y-13069000D01*
X5432000Y-14739000D02*
X5462000Y-14769000D01*
X5462000Y-14739000D02*
X5432000Y-14769000D01*
X5432000Y-17964000D02*
X5462000Y-17994000D01*
X5462000Y-17964000D02*
X5432000Y-17994000D01*
X5432000Y-19614000D02*
X5462000Y-19644000D01*
X5462000Y-19614000D02*
X5432000Y-19644000D01*
X5432000Y-21264000D02*
X5462000Y-21294000D01*
X5462000Y-21264000D02*
X5432000Y-21294000D01*
X5835000Y-4415000D02*
X5865000Y-4445000D01*
X5865000Y-4415000D02*
X5835000Y-4445000D01*
X5835000Y-5555000D02*
X5865000Y-5585000D01*
X5865000Y-5555000D02*
X5835000Y-5585000D01*
X5835000Y-6115000D02*
X5865000Y-6145000D01*
X5865000Y-6115000D02*
X5835000Y-6145000D01*
X5835000Y-7255000D02*
X5865000Y-7285000D01*
X5865000Y-7255000D02*
X5835000Y-7285000D01*
X5835000Y-8240000D02*
X5865000Y-8270000D01*
X5865000Y-8240000D02*
X5835000Y-8270000D01*
X5835000Y-9380000D02*
X5865000Y-9410000D01*
X5865000Y-9380000D02*
X5835000Y-9410000D01*
X5835000Y-9940000D02*
X5865000Y-9970000D01*
X5865000Y-9940000D02*
X5835000Y-9970000D01*
X5835000Y-11080000D02*
X5865000Y-11110000D01*
X5865000Y-11080000D02*
X5835000Y-11110000D01*
X5835000Y-12065000D02*
X5865000Y-12095000D01*
X5865000Y-12065000D02*
X5835000Y-12095000D01*
X5835000Y-13205000D02*
X5865000Y-13235000D01*
X5865000Y-13205000D02*
X5835000Y-13235000D01*
X5835000Y-13765000D02*
X5865000Y-13795000D01*
X5865000Y-13765000D02*
X5835000Y-13795000D01*
X5835000Y-14905000D02*
X5865000Y-14935000D01*
X5865000Y-14905000D02*
X5835000Y-14935000D01*
X5835000Y-16990000D02*
X5865000Y-17020000D01*
X5865000Y-16990000D02*
X5835000Y-17020000D01*
X5835000Y-18130000D02*
X5865000Y-18160000D01*
X5865000Y-18130000D02*
X5835000Y-18160000D01*
X5835000Y-18640000D02*
X5865000Y-18670000D01*
X5865000Y-18640000D02*
X5835000Y-18670000D01*
X5835000Y-19780000D02*
X5865000Y-19810000D01*
X5865000Y-19780000D02*
X5835000Y-19810000D01*
X5835000Y-20290000D02*
X5865000Y-20320000D01*
X5865000Y-20290000D02*
X5835000Y-20320000D01*
X5835000Y-21430000D02*
X5865000Y-21460000D01*
X5865000Y-21430000D02*
X5835000Y-21460000D01*
X6238000Y-5389000D02*
X6268000Y-5419000D01*
X6268000Y-5389000D02*
X6238000Y-5419000D01*
X6238000Y-7089000D02*
X6268000Y-7119000D01*
X6268000Y-7089000D02*
X6238000Y-7119000D01*
X6238000Y-9214000D02*
X6268000Y-9244000D01*
X6268000Y-9214000D02*
X6238000Y-9244000D01*
X6238000Y-10914000D02*
X6268000Y-10944000D01*
X6268000Y-10914000D02*
X6238000Y-10944000D01*
X6238000Y-13039000D02*
X6268000Y-13069000D01*
X6268000Y-13039000D02*
X6238000Y-13069000D01*
X6238000Y-14739000D02*
X6268000Y-14769000D01*
X6268000Y-14739000D02*
X6238000Y-14769000D01*
X6238000Y-17964000D02*
X6268000Y-17994000D01*
X6268000Y-17964000D02*
X6238000Y-17994000D01*
X6238000Y-19614000D02*
X6268000Y-19644000D01*
X6268000Y-19614000D02*
X6238000Y-19644000D01*
X6238000Y-21264000D02*
X6268000Y-21294000D01*
X6268000Y-21264000D02*
X6238000Y-21294000D01*
X6239000Y-4582000D02*
X6269000Y-4612000D01*
X6269000Y-4582000D02*
X6239000Y-4612000D01*
X6239000Y-6282000D02*
X6269000Y-6312000D01*
X6269000Y-6282000D02*
X6239000Y-6312000D01*
X6239000Y-8407000D02*
X6269000Y-8437000D01*
X6269000Y-8407000D02*
X6239000Y-8437000D01*
X6239000Y-10107000D02*
X6269000Y-10137000D01*
X6269000Y-10107000D02*
X6239000Y-10137000D01*
X6239000Y-12232000D02*
X6269000Y-12262000D01*
X6269000Y-12232000D02*
X6239000Y-12262000D01*
X6239000Y-13932000D02*
X6269000Y-13962000D01*
X6269000Y-13932000D02*
X6239000Y-13962000D01*
X6239000Y-17157000D02*
X6269000Y-17187000D01*
X6269000Y-17157000D02*
X6239000Y-17187000D01*
X6239000Y-18807000D02*
X6269000Y-18837000D01*
X6269000Y-18807000D02*
X6239000Y-18837000D01*
X6239000Y-20457000D02*
X6269000Y-20487000D01*
X6269000Y-20457000D02*
X6239000Y-20487000D01*
X6405000Y-4985000D02*
X6435000Y-5015000D01*
X6435000Y-4985000D02*
X6405000Y-5015000D01*
X6405000Y-6685000D02*
X6435000Y-6715000D01*
X6435000Y-6685000D02*
X6405000Y-6715000D01*
X6405000Y-8810000D02*
X6435000Y-8840000D01*
X6435000Y-8810000D02*
X6405000Y-8840000D01*
X6405000Y-10510000D02*
X6435000Y-10540000D01*
X6435000Y-10510000D02*
X6405000Y-10540000D01*
X6405000Y-12635000D02*
X6435000Y-12665000D01*
X6435000Y-12635000D02*
X6405000Y-12665000D01*
X6405000Y-14335000D02*
X6435000Y-14365000D01*
X6435000Y-14335000D02*
X6405000Y-14365000D01*
X6405000Y-17560000D02*
X6435000Y-17590000D01*
X6435000Y-17560000D02*
X6405000Y-17590000D01*
X6405000Y-19210000D02*
X6435000Y-19240000D01*
X6435000Y-19210000D02*
X6405000Y-19240000D01*
X6405000Y-20860000D02*
X6435000Y-20890000D01*
X6435000Y-20860000D02*
X6405000Y-20890000D01*
X6915000Y-17560000D02*
X6945000Y-17590000D01*
X6945000Y-17560000D02*
X6915000Y-17590000D01*
X6915000Y-19210000D02*
X6945000Y-19240000D01*
X6945000Y-19210000D02*
X6915000Y-19240000D01*
X6915000Y-20860000D02*
X6945000Y-20890000D01*
X6945000Y-20860000D02*
X6915000Y-20890000D01*
X7081000Y-17157000D02*
X7111000Y-17187000D01*
X7111000Y-17157000D02*
X7081000Y-17187000D01*
X7081000Y-18807000D02*
X7111000Y-18837000D01*
X7111000Y-18807000D02*
X7081000Y-18837000D01*
X7081000Y-20457000D02*
X7111000Y-20487000D01*
X7111000Y-20457000D02*
X7081000Y-20487000D01*
X7082000Y-17964000D02*
X7112000Y-17994000D01*
X7112000Y-17964000D02*
X7082000Y-17994000D01*
X7082000Y-19614000D02*
X7112000Y-19644000D01*
X7112000Y-19614000D02*
X7082000Y-19644000D01*
X7082000Y-21264000D02*
X7112000Y-21294000D01*
X7112000Y-21264000D02*
X7082000Y-21294000D01*
X7485000Y-16990000D02*
X7515000Y-17020000D01*
X7515000Y-16990000D02*
X7485000Y-17020000D01*
X7485000Y-18130000D02*
X7515000Y-18160000D01*
X7515000Y-18130000D02*
X7485000Y-18160000D01*
X7485000Y-18640000D02*
X7515000Y-18670000D01*
X7515000Y-18640000D02*
X7485000Y-18670000D01*
X7485000Y-19780000D02*
X7515000Y-19810000D01*
X7515000Y-19780000D02*
X7485000Y-19810000D01*
X7485000Y-20290000D02*
X7515000Y-20320000D01*
X7515000Y-20290000D02*
X7485000Y-20320000D01*
X7485000Y-21430000D02*
X7515000Y-21460000D01*
X7515000Y-21430000D02*
X7485000Y-21460000D01*
X7888000Y-17964000D02*
X7918000Y-17994000D01*
X7918000Y-17964000D02*
X7888000Y-17994000D01*
X7888000Y-19614000D02*
X7918000Y-19644000D01*
X7918000Y-19614000D02*
X7888000Y-19644000D01*
X7888000Y-21264000D02*
X7918000Y-21294000D01*
X7918000Y-21264000D02*
X7888000Y-21294000D01*
X7889000Y-17157000D02*
X7919000Y-17187000D01*
X7919000Y-17157000D02*
X7889000Y-17187000D01*
X7889000Y-18807000D02*
X7919000Y-18837000D01*
X7919000Y-18807000D02*
X7889000Y-18837000D01*
X7889000Y-20457000D02*
X7919000Y-20487000D01*
X7919000Y-20457000D02*
X7889000Y-20487000D01*
X8055000Y-17560000D02*
X8085000Y-17590000D01*
X8085000Y-17560000D02*
X8055000Y-17590000D01*
X8055000Y-19210000D02*
X8085000Y-19240000D01*
X8085000Y-19210000D02*
X8055000Y-19240000D01*
X8055000Y-20860000D02*
X8085000Y-20890000D01*
X8085000Y-20860000D02*
X8055000Y-20890000D01*
X8565000Y-17560000D02*
X8595000Y-17590000D01*
X8595000Y-17560000D02*
X8565000Y-17590000D01*
X8565000Y-19210000D02*
X8595000Y-19240000D01*
X8595000Y-19210000D02*
X8565000Y-19240000D01*
X8565000Y-20860000D02*
X8595000Y-20890000D01*
X8595000Y-20860000D02*
X8565000Y-20890000D01*
X8731000Y-17157000D02*
X8761000Y-17187000D01*
X8761000Y-17157000D02*
X8731000Y-17187000D01*
X8731000Y-18807000D02*
X8761000Y-18837000D01*
X8761000Y-18807000D02*
X8731000Y-18837000D01*
X8731000Y-20457000D02*
X8761000Y-20487000D01*
X8761000Y-20457000D02*
X8731000Y-20487000D01*
X8732000Y-17964000D02*
X8762000Y-17994000D01*
X8762000Y-17964000D02*
X8732000Y-17994000D01*
X8732000Y-19614000D02*
X8762000Y-19644000D01*
X8762000Y-19614000D02*
X8732000Y-19644000D01*
X8732000Y-21264000D02*
X8762000Y-21294000D01*
X8762000Y-21264000D02*
X8732000Y-21294000D01*
X9135000Y-16990000D02*
X9165000Y-17020000D01*
X9165000Y-16990000D02*
X9135000Y-17020000D01*
X9135000Y-18130000D02*
X9165000Y-18160000D01*
X9165000Y-18130000D02*
X9135000Y-18160000D01*
X9135000Y-18640000D02*
X9165000Y-18670000D01*
X9165000Y-18640000D02*
X9135000Y-18670000D01*
X9135000Y-19780000D02*
X9165000Y-19810000D01*
X9165000Y-19780000D02*
X9135000Y-19810000D01*
X9135000Y-20290000D02*
X9165000Y-20320000D01*
X9165000Y-20290000D02*
X9135000Y-20320000D01*
X9135000Y-21430000D02*
X9165000Y-21460000D01*
X9165000Y-21430000D02*
X9135000Y-21460000D01*
X9538000Y-17964000D02*
X9568000Y-17994000D01*
X9568000Y-17964000D02*
X9538000Y-17994000D01*
X9538000Y-19614000D02*
X9568000Y-19644000D01*
X9568000Y-19614000D02*
X9538000Y-19644000D01*
X9538000Y-21264000D02*
X9568000Y-21294000D01*
X9568000Y-21264000D02*
X9538000Y-21294000D01*
X9539000Y-17157000D02*
X9569000Y-17187000D01*
X9569000Y-17157000D02*
X9539000Y-17187000D01*
X9539000Y-18807000D02*
X9569000Y-18837000D01*
X9569000Y-18807000D02*
X9539000Y-18837000D01*
X9539000Y-20457000D02*
X9569000Y-20487000D01*
X9569000Y-20457000D02*
X9539000Y-20487000D01*
X9705000Y-17560000D02*
X9735000Y-17590000D01*
X9735000Y-17560000D02*
X9705000Y-17590000D01*
X9705000Y-19210000D02*
X9735000Y-19240000D01*
X9735000Y-19210000D02*
X9705000Y-19240000D01*
X9705000Y-20860000D02*
X9735000Y-20890000D01*
X9735000Y-20860000D02*
X9705000Y-20890000D01*
D13*
X5510000Y-3350000D02*
G75*
G02*
X5190000Y-3350000I-160000J0D01*
G01*
X5190000Y-3350000D02*
G75*
G02*
X5510000Y-3350000I160000J0D01*
G01*
X5510000Y-22650000D02*
G75*
G02*
X5190000Y-22650000I-160000J0D01*
G01*
X5190000Y-22650000D02*
G75*
G02*
X5510000Y-22650000I160000J0D01*
G01*
X9810000Y-3350000D02*
G75*
G02*
X9490000Y-3350000I-160000J0D01*
G01*
X9490000Y-3350000D02*
G75*
G02*
X9810000Y-3350000I160000J0D01*
G01*
X9810000Y-22650000D02*
G75*
G02*
X9490000Y-22650000I-160000J0D01*
G01*
X9490000Y-22650000D02*
G75*
G02*
X9810000Y-22650000I160000J0D01*
G01*
D11*
X5258277Y-23313984D02*
X5258277Y-23113984D01*
X5258277Y-23113984D02*
X5305896Y-23113984D01*
X5305896Y-23113984D02*
X5334467Y-23123508D01*
X5334467Y-23123508D02*
X5353515Y-23142555D01*
X5353515Y-23142555D02*
X5363039Y-23161603D01*
X5363039Y-23161603D02*
X5372563Y-23199698D01*
X5372563Y-23199698D02*
X5372563Y-23228269D01*
X5372563Y-23228269D02*
X5363039Y-23266365D01*
X5363039Y-23266365D02*
X5353515Y-23285412D01*
X5353515Y-23285412D02*
X5334467Y-23304460D01*
X5334467Y-23304460D02*
X5305896Y-23313984D01*
X5305896Y-23313984D02*
X5258277Y-23313984D01*
X5458277Y-23313984D02*
X5458277Y-23180650D01*
X5458277Y-23218746D02*
X5467801Y-23199698D01*
X5467801Y-23199698D02*
X5477324Y-23190174D01*
X5477324Y-23190174D02*
X5496372Y-23180650D01*
X5496372Y-23180650D02*
X5515420Y-23180650D01*
X5582086Y-23313984D02*
X5582086Y-23180650D01*
X5582086Y-23113984D02*
X5572563Y-23123508D01*
X5572563Y-23123508D02*
X5582086Y-23133031D01*
X5582086Y-23133031D02*
X5591610Y-23123508D01*
X5591610Y-23123508D02*
X5582086Y-23113984D01*
X5582086Y-23113984D02*
X5582086Y-23133031D01*
X5705896Y-23313984D02*
X5686848Y-23304460D01*
X5686848Y-23304460D02*
X5677324Y-23285412D01*
X5677324Y-23285412D02*
X5677324Y-23113984D01*
X5810658Y-23313984D02*
X5791610Y-23304460D01*
X5791610Y-23304460D02*
X5782086Y-23285412D01*
X5782086Y-23285412D02*
X5782086Y-23113984D01*
X6039229Y-23313984D02*
X6039229Y-23113984D01*
X6039229Y-23113984D02*
X6105896Y-23256841D01*
X6105896Y-23256841D02*
X6172562Y-23113984D01*
X6172562Y-23113984D02*
X6172562Y-23313984D01*
X6353515Y-23313984D02*
X6353515Y-23209222D01*
X6353515Y-23209222D02*
X6343991Y-23190174D01*
X6343991Y-23190174D02*
X6324943Y-23180650D01*
X6324943Y-23180650D02*
X6286848Y-23180650D01*
X6286848Y-23180650D02*
X6267801Y-23190174D01*
X6353515Y-23304460D02*
X6334467Y-23313984D01*
X6334467Y-23313984D02*
X6286848Y-23313984D01*
X6286848Y-23313984D02*
X6267801Y-23304460D01*
X6267801Y-23304460D02*
X6258277Y-23285412D01*
X6258277Y-23285412D02*
X6258277Y-23266365D01*
X6258277Y-23266365D02*
X6267801Y-23247317D01*
X6267801Y-23247317D02*
X6286848Y-23237793D01*
X6286848Y-23237793D02*
X6334467Y-23237793D01*
X6334467Y-23237793D02*
X6353515Y-23228269D01*
X6448753Y-23180650D02*
X6448753Y-23380650D01*
X6448753Y-23190174D02*
X6467801Y-23180650D01*
X6467801Y-23180650D02*
X6505896Y-23180650D01*
X6505896Y-23180650D02*
X6524943Y-23190174D01*
X6524943Y-23190174D02*
X6534467Y-23199698D01*
X6534467Y-23199698D02*
X6543991Y-23218746D01*
X6543991Y-23218746D02*
X6543991Y-23275888D01*
X6543991Y-23275888D02*
X6534467Y-23294936D01*
X6534467Y-23294936D02*
X6524943Y-23304460D01*
X6524943Y-23304460D02*
X6505896Y-23313984D01*
X6505896Y-23313984D02*
X6467801Y-23313984D01*
X6467801Y-23313984D02*
X6448753Y-23304460D01*
X6629705Y-23294936D02*
X6639229Y-23304460D01*
X6639229Y-23304460D02*
X6629705Y-23313984D01*
X6629705Y-23313984D02*
X6620182Y-23304460D01*
X6620182Y-23304460D02*
X6629705Y-23294936D01*
X6629705Y-23294936D02*
X6629705Y-23313984D01*
X6629705Y-23190174D02*
X6639229Y-23199698D01*
X6639229Y-23199698D02*
X6629705Y-23209222D01*
X6629705Y-23209222D02*
X6620182Y-23199698D01*
X6620182Y-23199698D02*
X6629705Y-23190174D01*
X6629705Y-23190174D02*
X6629705Y-23209222D01*
D12*
X4967500Y-23627500D02*
X4997500Y-23657500D01*
X4997500Y-23627500D02*
X4967500Y-23657500D01*
D11*
X5296372Y-23533984D02*
X5315420Y-23533984D01*
X5315420Y-23533984D02*
X5334467Y-23543508D01*
X5334467Y-23543508D02*
X5343991Y-23553031D01*
X5343991Y-23553031D02*
X5353515Y-23572079D01*
X5353515Y-23572079D02*
X5363039Y-23610174D01*
X5363039Y-23610174D02*
X5363039Y-23657793D01*
X5363039Y-23657793D02*
X5353515Y-23695888D01*
X5353515Y-23695888D02*
X5343991Y-23714936D01*
X5343991Y-23714936D02*
X5334467Y-23724460D01*
X5334467Y-23724460D02*
X5315420Y-23733984D01*
X5315420Y-23733984D02*
X5296372Y-23733984D01*
X5296372Y-23733984D02*
X5277324Y-23724460D01*
X5277324Y-23724460D02*
X5267801Y-23714936D01*
X5267801Y-23714936D02*
X5258277Y-23695888D01*
X5258277Y-23695888D02*
X5248753Y-23657793D01*
X5248753Y-23657793D02*
X5248753Y-23610174D01*
X5248753Y-23610174D02*
X5258277Y-23572079D01*
X5258277Y-23572079D02*
X5267801Y-23553031D01*
X5267801Y-23553031D02*
X5277324Y-23543508D01*
X5277324Y-23543508D02*
X5296372Y-23533984D01*
X5448753Y-23714936D02*
X5458277Y-23724460D01*
X5458277Y-23724460D02*
X5448753Y-23733984D01*
X5448753Y-23733984D02*
X5439229Y-23724460D01*
X5439229Y-23724460D02*
X5448753Y-23714936D01*
X5448753Y-23714936D02*
X5448753Y-23733984D01*
X5524944Y-23533984D02*
X5648753Y-23533984D01*
X5648753Y-23533984D02*
X5582086Y-23610174D01*
X5582086Y-23610174D02*
X5610658Y-23610174D01*
X5610658Y-23610174D02*
X5629705Y-23619698D01*
X5629705Y-23619698D02*
X5639229Y-23629222D01*
X5639229Y-23629222D02*
X5648753Y-23648269D01*
X5648753Y-23648269D02*
X5648753Y-23695888D01*
X5648753Y-23695888D02*
X5639229Y-23714936D01*
X5639229Y-23714936D02*
X5629705Y-23724460D01*
X5629705Y-23724460D02*
X5610658Y-23733984D01*
X5610658Y-23733984D02*
X5553515Y-23733984D01*
X5553515Y-23733984D02*
X5534467Y-23724460D01*
X5534467Y-23724460D02*
X5524944Y-23714936D01*
X5772562Y-23533984D02*
X5791610Y-23533984D01*
X5791610Y-23533984D02*
X5810658Y-23543508D01*
X5810658Y-23543508D02*
X5820182Y-23553031D01*
X5820182Y-23553031D02*
X5829705Y-23572079D01*
X5829705Y-23572079D02*
X5839229Y-23610174D01*
X5839229Y-23610174D02*
X5839229Y-23657793D01*
X5839229Y-23657793D02*
X5829705Y-23695888D01*
X5829705Y-23695888D02*
X5820182Y-23714936D01*
X5820182Y-23714936D02*
X5810658Y-23724460D01*
X5810658Y-23724460D02*
X5791610Y-23733984D01*
X5791610Y-23733984D02*
X5772562Y-23733984D01*
X5772562Y-23733984D02*
X5753515Y-23724460D01*
X5753515Y-23724460D02*
X5743991Y-23714936D01*
X5743991Y-23714936D02*
X5734467Y-23695888D01*
X5734467Y-23695888D02*
X5724943Y-23657793D01*
X5724943Y-23657793D02*
X5724943Y-23610174D01*
X5724943Y-23610174D02*
X5734467Y-23572079D01*
X5734467Y-23572079D02*
X5743991Y-23553031D01*
X5743991Y-23553031D02*
X5753515Y-23543508D01*
X5753515Y-23543508D02*
X5772562Y-23533984D01*
X5963039Y-23533984D02*
X5982086Y-23533984D01*
X5982086Y-23533984D02*
X6001134Y-23543508D01*
X6001134Y-23543508D02*
X6010658Y-23553031D01*
X6010658Y-23553031D02*
X6020182Y-23572079D01*
X6020182Y-23572079D02*
X6029705Y-23610174D01*
X6029705Y-23610174D02*
X6029705Y-23657793D01*
X6029705Y-23657793D02*
X6020182Y-23695888D01*
X6020182Y-23695888D02*
X6010658Y-23714936D01*
X6010658Y-23714936D02*
X6001134Y-23724460D01*
X6001134Y-23724460D02*
X5982086Y-23733984D01*
X5982086Y-23733984D02*
X5963039Y-23733984D01*
X5963039Y-23733984D02*
X5943991Y-23724460D01*
X5943991Y-23724460D02*
X5934467Y-23714936D01*
X5934467Y-23714936D02*
X5924943Y-23695888D01*
X5924943Y-23695888D02*
X5915420Y-23657793D01*
X5915420Y-23657793D02*
X5915420Y-23610174D01*
X5915420Y-23610174D02*
X5924943Y-23572079D01*
X5924943Y-23572079D02*
X5934467Y-23553031D01*
X5934467Y-23553031D02*
X5943991Y-23543508D01*
X5943991Y-23543508D02*
X5963039Y-23533984D01*
X6115420Y-23733984D02*
X6115420Y-23600650D01*
X6115420Y-23619698D02*
X6124943Y-23610174D01*
X6124943Y-23610174D02*
X6143991Y-23600650D01*
X6143991Y-23600650D02*
X6172563Y-23600650D01*
X6172563Y-23600650D02*
X6191610Y-23610174D01*
X6191610Y-23610174D02*
X6201134Y-23629222D01*
X6201134Y-23629222D02*
X6201134Y-23733984D01*
X6201134Y-23629222D02*
X6210658Y-23610174D01*
X6210658Y-23610174D02*
X6229705Y-23600650D01*
X6229705Y-23600650D02*
X6258277Y-23600650D01*
X6258277Y-23600650D02*
X6277324Y-23610174D01*
X6277324Y-23610174D02*
X6286848Y-23629222D01*
X6286848Y-23629222D02*
X6286848Y-23733984D01*
X6382086Y-23733984D02*
X6382086Y-23600650D01*
X6382086Y-23619698D02*
X6391610Y-23610174D01*
X6391610Y-23610174D02*
X6410658Y-23600650D01*
X6410658Y-23600650D02*
X6439229Y-23600650D01*
X6439229Y-23600650D02*
X6458277Y-23610174D01*
X6458277Y-23610174D02*
X6467801Y-23629222D01*
X6467801Y-23629222D02*
X6467801Y-23733984D01*
X6467801Y-23629222D02*
X6477324Y-23610174D01*
X6477324Y-23610174D02*
X6496372Y-23600650D01*
X6496372Y-23600650D02*
X6524943Y-23600650D01*
X6524943Y-23600650D02*
X6543991Y-23610174D01*
X6543991Y-23610174D02*
X6553515Y-23629222D01*
X6553515Y-23629222D02*
X6553515Y-23733984D01*
X6943991Y-23524460D02*
X6772563Y-23781603D01*
X7201134Y-23533984D02*
X7220182Y-23533984D01*
X7220182Y-23533984D02*
X7239229Y-23543508D01*
X7239229Y-23543508D02*
X7248753Y-23553031D01*
X7248753Y-23553031D02*
X7258277Y-23572079D01*
X7258277Y-23572079D02*
X7267801Y-23610174D01*
X7267801Y-23610174D02*
X7267801Y-23657793D01*
X7267801Y-23657793D02*
X7258277Y-23695888D01*
X7258277Y-23695888D02*
X7248753Y-23714936D01*
X7248753Y-23714936D02*
X7239229Y-23724460D01*
X7239229Y-23724460D02*
X7220182Y-23733984D01*
X7220182Y-23733984D02*
X7201134Y-23733984D01*
X7201134Y-23733984D02*
X7182086Y-23724460D01*
X7182086Y-23724460D02*
X7172563Y-23714936D01*
X7172563Y-23714936D02*
X7163039Y-23695888D01*
X7163039Y-23695888D02*
X7153515Y-23657793D01*
X7153515Y-23657793D02*
X7153515Y-23610174D01*
X7153515Y-23610174D02*
X7163039Y-23572079D01*
X7163039Y-23572079D02*
X7172563Y-23553031D01*
X7172563Y-23553031D02*
X7182086Y-23543508D01*
X7182086Y-23543508D02*
X7201134Y-23533984D01*
X7353515Y-23714936D02*
X7363039Y-23724460D01*
X7363039Y-23724460D02*
X7353515Y-23733984D01*
X7353515Y-23733984D02*
X7343991Y-23724460D01*
X7343991Y-23724460D02*
X7353515Y-23714936D01*
X7353515Y-23714936D02*
X7353515Y-23733984D01*
X7486848Y-23533984D02*
X7505896Y-23533984D01*
X7505896Y-23533984D02*
X7524944Y-23543508D01*
X7524944Y-23543508D02*
X7534467Y-23553031D01*
X7534467Y-23553031D02*
X7543991Y-23572079D01*
X7543991Y-23572079D02*
X7553515Y-23610174D01*
X7553515Y-23610174D02*
X7553515Y-23657793D01*
X7553515Y-23657793D02*
X7543991Y-23695888D01*
X7543991Y-23695888D02*
X7534467Y-23714936D01*
X7534467Y-23714936D02*
X7524944Y-23724460D01*
X7524944Y-23724460D02*
X7505896Y-23733984D01*
X7505896Y-23733984D02*
X7486848Y-23733984D01*
X7486848Y-23733984D02*
X7467801Y-23724460D01*
X7467801Y-23724460D02*
X7458277Y-23714936D01*
X7458277Y-23714936D02*
X7448753Y-23695888D01*
X7448753Y-23695888D02*
X7439229Y-23657793D01*
X7439229Y-23657793D02*
X7439229Y-23610174D01*
X7439229Y-23610174D02*
X7448753Y-23572079D01*
X7448753Y-23572079D02*
X7458277Y-23553031D01*
X7458277Y-23553031D02*
X7467801Y-23543508D01*
X7467801Y-23543508D02*
X7486848Y-23533984D01*
X7743991Y-23733984D02*
X7629706Y-23733984D01*
X7686848Y-23733984D02*
X7686848Y-23533984D01*
X7686848Y-23533984D02*
X7667801Y-23562555D01*
X7667801Y-23562555D02*
X7648753Y-23581603D01*
X7648753Y-23581603D02*
X7629706Y-23591127D01*
X7934467Y-23733984D02*
X7820182Y-23733984D01*
X7877325Y-23733984D02*
X7877325Y-23533984D01*
X7877325Y-23533984D02*
X7858277Y-23562555D01*
X7858277Y-23562555D02*
X7839229Y-23581603D01*
X7839229Y-23581603D02*
X7820182Y-23591127D01*
X8048753Y-23619698D02*
X8029706Y-23610174D01*
X8029706Y-23610174D02*
X8020182Y-23600650D01*
X8020182Y-23600650D02*
X8010658Y-23581603D01*
X8010658Y-23581603D02*
X8010658Y-23572079D01*
X8010658Y-23572079D02*
X8020182Y-23553031D01*
X8020182Y-23553031D02*
X8029706Y-23543508D01*
X8029706Y-23543508D02*
X8048753Y-23533984D01*
X8048753Y-23533984D02*
X8086848Y-23533984D01*
X8086848Y-23533984D02*
X8105896Y-23543508D01*
X8105896Y-23543508D02*
X8115420Y-23553031D01*
X8115420Y-23553031D02*
X8124944Y-23572079D01*
X8124944Y-23572079D02*
X8124944Y-23581603D01*
X8124944Y-23581603D02*
X8115420Y-23600650D01*
X8115420Y-23600650D02*
X8105896Y-23610174D01*
X8105896Y-23610174D02*
X8086848Y-23619698D01*
X8086848Y-23619698D02*
X8048753Y-23619698D01*
X8048753Y-23619698D02*
X8029706Y-23629222D01*
X8029706Y-23629222D02*
X8020182Y-23638746D01*
X8020182Y-23638746D02*
X8010658Y-23657793D01*
X8010658Y-23657793D02*
X8010658Y-23695888D01*
X8010658Y-23695888D02*
X8020182Y-23714936D01*
X8020182Y-23714936D02*
X8029706Y-23724460D01*
X8029706Y-23724460D02*
X8048753Y-23733984D01*
X8048753Y-23733984D02*
X8086848Y-23733984D01*
X8086848Y-23733984D02*
X8105896Y-23724460D01*
X8105896Y-23724460D02*
X8115420Y-23714936D01*
X8115420Y-23714936D02*
X8124944Y-23695888D01*
X8124944Y-23695888D02*
X8124944Y-23657793D01*
X8124944Y-23657793D02*
X8115420Y-23638746D01*
X8115420Y-23638746D02*
X8105896Y-23629222D01*
X8105896Y-23629222D02*
X8086848Y-23619698D01*
X8201134Y-23533984D02*
X8201134Y-23572079D01*
X8277325Y-23533984D02*
X8277325Y-23572079D01*
X8572563Y-23810174D02*
X8563039Y-23800650D01*
X8563039Y-23800650D02*
X8543991Y-23772079D01*
X8543991Y-23772079D02*
X8534468Y-23753031D01*
X8534468Y-23753031D02*
X8524944Y-23724460D01*
X8524944Y-23724460D02*
X8515420Y-23676841D01*
X8515420Y-23676841D02*
X8515420Y-23638746D01*
X8515420Y-23638746D02*
X8524944Y-23591127D01*
X8524944Y-23591127D02*
X8534468Y-23562555D01*
X8534468Y-23562555D02*
X8543991Y-23543508D01*
X8543991Y-23543508D02*
X8563039Y-23514936D01*
X8563039Y-23514936D02*
X8572563Y-23505412D01*
X8753515Y-23733984D02*
X8639230Y-23733984D01*
X8696372Y-23733984D02*
X8696372Y-23533984D01*
X8696372Y-23533984D02*
X8677325Y-23562555D01*
X8677325Y-23562555D02*
X8658277Y-23581603D01*
X8658277Y-23581603D02*
X8639230Y-23591127D01*
X8829706Y-23553031D02*
X8839230Y-23543508D01*
X8839230Y-23543508D02*
X8858277Y-23533984D01*
X8858277Y-23533984D02*
X8905896Y-23533984D01*
X8905896Y-23533984D02*
X8924944Y-23543508D01*
X8924944Y-23543508D02*
X8934468Y-23553031D01*
X8934468Y-23553031D02*
X8943991Y-23572079D01*
X8943991Y-23572079D02*
X8943991Y-23591127D01*
X8943991Y-23591127D02*
X8934468Y-23619698D01*
X8934468Y-23619698D02*
X8820182Y-23733984D01*
X8820182Y-23733984D02*
X8943991Y-23733984D01*
X9067801Y-23533984D02*
X9086849Y-23533984D01*
X9086849Y-23533984D02*
X9105896Y-23543508D01*
X9105896Y-23543508D02*
X9115420Y-23553031D01*
X9115420Y-23553031D02*
X9124944Y-23572079D01*
X9124944Y-23572079D02*
X9134468Y-23610174D01*
X9134468Y-23610174D02*
X9134468Y-23657793D01*
X9134468Y-23657793D02*
X9124944Y-23695888D01*
X9124944Y-23695888D02*
X9115420Y-23714936D01*
X9115420Y-23714936D02*
X9105896Y-23724460D01*
X9105896Y-23724460D02*
X9086849Y-23733984D01*
X9086849Y-23733984D02*
X9067801Y-23733984D01*
X9067801Y-23733984D02*
X9048753Y-23724460D01*
X9048753Y-23724460D02*
X9039230Y-23714936D01*
X9039230Y-23714936D02*
X9029706Y-23695888D01*
X9029706Y-23695888D02*
X9020182Y-23657793D01*
X9020182Y-23657793D02*
X9020182Y-23610174D01*
X9020182Y-23610174D02*
X9029706Y-23572079D01*
X9029706Y-23572079D02*
X9039230Y-23553031D01*
X9039230Y-23553031D02*
X9048753Y-23543508D01*
X9048753Y-23543508D02*
X9067801Y-23533984D01*
X9372563Y-23733984D02*
X9372563Y-23533984D01*
X9458277Y-23733984D02*
X9458277Y-23629222D01*
X9458277Y-23629222D02*
X9448753Y-23610174D01*
X9448753Y-23610174D02*
X9429706Y-23600650D01*
X9429706Y-23600650D02*
X9401134Y-23600650D01*
X9401134Y-23600650D02*
X9382087Y-23610174D01*
X9382087Y-23610174D02*
X9372563Y-23619698D01*
X9582087Y-23733984D02*
X9563039Y-23724460D01*
X9563039Y-23724460D02*
X9553515Y-23714936D01*
X9553515Y-23714936D02*
X9543992Y-23695888D01*
X9543992Y-23695888D02*
X9543992Y-23638746D01*
X9543992Y-23638746D02*
X9553515Y-23619698D01*
X9553515Y-23619698D02*
X9563039Y-23610174D01*
X9563039Y-23610174D02*
X9582087Y-23600650D01*
X9582087Y-23600650D02*
X9610658Y-23600650D01*
X9610658Y-23600650D02*
X9629706Y-23610174D01*
X9629706Y-23610174D02*
X9639230Y-23619698D01*
X9639230Y-23619698D02*
X9648753Y-23638746D01*
X9648753Y-23638746D02*
X9648753Y-23695888D01*
X9648753Y-23695888D02*
X9639230Y-23714936D01*
X9639230Y-23714936D02*
X9629706Y-23724460D01*
X9629706Y-23724460D02*
X9610658Y-23733984D01*
X9610658Y-23733984D02*
X9582087Y-23733984D01*
X9763039Y-23733984D02*
X9743992Y-23724460D01*
X9743992Y-23724460D02*
X9734468Y-23705412D01*
X9734468Y-23705412D02*
X9734468Y-23533984D01*
X9915420Y-23724460D02*
X9896373Y-23733984D01*
X9896373Y-23733984D02*
X9858277Y-23733984D01*
X9858277Y-23733984D02*
X9839230Y-23724460D01*
X9839230Y-23724460D02*
X9829706Y-23705412D01*
X9829706Y-23705412D02*
X9829706Y-23629222D01*
X9829706Y-23629222D02*
X9839230Y-23610174D01*
X9839230Y-23610174D02*
X9858277Y-23600650D01*
X9858277Y-23600650D02*
X9896373Y-23600650D01*
X9896373Y-23600650D02*
X9915420Y-23610174D01*
X9915420Y-23610174D02*
X9924944Y-23629222D01*
X9924944Y-23629222D02*
X9924944Y-23648269D01*
X9924944Y-23648269D02*
X9829706Y-23667317D01*
X10001134Y-23724460D02*
X10020182Y-23733984D01*
X10020182Y-23733984D02*
X10058277Y-23733984D01*
X10058277Y-23733984D02*
X10077325Y-23724460D01*
X10077325Y-23724460D02*
X10086849Y-23705412D01*
X10086849Y-23705412D02*
X10086849Y-23695888D01*
X10086849Y-23695888D02*
X10077325Y-23676841D01*
X10077325Y-23676841D02*
X10058277Y-23667317D01*
X10058277Y-23667317D02*
X10029706Y-23667317D01*
X10029706Y-23667317D02*
X10010658Y-23657793D01*
X10010658Y-23657793D02*
X10001134Y-23638746D01*
X10001134Y-23638746D02*
X10001134Y-23629222D01*
X10001134Y-23629222D02*
X10010658Y-23610174D01*
X10010658Y-23610174D02*
X10029706Y-23600650D01*
X10029706Y-23600650D02*
X10058277Y-23600650D01*
X10058277Y-23600650D02*
X10077325Y-23610174D01*
X10153515Y-23810174D02*
X10163039Y-23800650D01*
X10163039Y-23800650D02*
X10182087Y-23772079D01*
X10182087Y-23772079D02*
X10191611Y-23753031D01*
X10191611Y-23753031D02*
X10201134Y-23724460D01*
X10201134Y-23724460D02*
X10210658Y-23676841D01*
X10210658Y-23676841D02*
X10210658Y-23638746D01*
X10210658Y-23638746D02*
X10201134Y-23591127D01*
X10201134Y-23591127D02*
X10191611Y-23562555D01*
X10191611Y-23562555D02*
X10182087Y-23543508D01*
X10182087Y-23543508D02*
X10163039Y-23514936D01*
X10163039Y-23514936D02*
X10153515Y-23505412D01*
X4997500Y-23906500D02*
G75*
G02*
X4797500Y-23906500I-100000J0D01*
G01*
X4797500Y-23906500D02*
G75*
G02*
X4997500Y-23906500I100000J0D01*
G01*
X5239229Y-23797984D02*
X5363039Y-23797984D01*
X5363039Y-23797984D02*
X5296372Y-23874174D01*
X5296372Y-23874174D02*
X5324944Y-23874174D01*
X5324944Y-23874174D02*
X5343991Y-23883698D01*
X5343991Y-23883698D02*
X5353515Y-23893222D01*
X5353515Y-23893222D02*
X5363039Y-23912269D01*
X5363039Y-23912269D02*
X5363039Y-23959888D01*
X5363039Y-23959888D02*
X5353515Y-23978936D01*
X5353515Y-23978936D02*
X5343991Y-23988460D01*
X5343991Y-23988460D02*
X5324944Y-23997984D01*
X5324944Y-23997984D02*
X5267801Y-23997984D01*
X5267801Y-23997984D02*
X5248753Y-23988460D01*
X5248753Y-23988460D02*
X5239229Y-23978936D01*
X5448753Y-23978936D02*
X5458277Y-23988460D01*
X5458277Y-23988460D02*
X5448753Y-23997984D01*
X5448753Y-23997984D02*
X5439229Y-23988460D01*
X5439229Y-23988460D02*
X5448753Y-23978936D01*
X5448753Y-23978936D02*
X5448753Y-23997984D01*
X5534467Y-23817031D02*
X5543991Y-23807508D01*
X5543991Y-23807508D02*
X5563039Y-23797984D01*
X5563039Y-23797984D02*
X5610658Y-23797984D01*
X5610658Y-23797984D02*
X5629705Y-23807508D01*
X5629705Y-23807508D02*
X5639229Y-23817031D01*
X5639229Y-23817031D02*
X5648753Y-23836079D01*
X5648753Y-23836079D02*
X5648753Y-23855127D01*
X5648753Y-23855127D02*
X5639229Y-23883698D01*
X5639229Y-23883698D02*
X5524944Y-23997984D01*
X5524944Y-23997984D02*
X5648753Y-23997984D01*
X5772562Y-23797984D02*
X5791610Y-23797984D01*
X5791610Y-23797984D02*
X5810658Y-23807508D01*
X5810658Y-23807508D02*
X5820182Y-23817031D01*
X5820182Y-23817031D02*
X5829705Y-23836079D01*
X5829705Y-23836079D02*
X5839229Y-23874174D01*
X5839229Y-23874174D02*
X5839229Y-23921793D01*
X5839229Y-23921793D02*
X5829705Y-23959888D01*
X5829705Y-23959888D02*
X5820182Y-23978936D01*
X5820182Y-23978936D02*
X5810658Y-23988460D01*
X5810658Y-23988460D02*
X5791610Y-23997984D01*
X5791610Y-23997984D02*
X5772562Y-23997984D01*
X5772562Y-23997984D02*
X5753515Y-23988460D01*
X5753515Y-23988460D02*
X5743991Y-23978936D01*
X5743991Y-23978936D02*
X5734467Y-23959888D01*
X5734467Y-23959888D02*
X5724943Y-23921793D01*
X5724943Y-23921793D02*
X5724943Y-23874174D01*
X5724943Y-23874174D02*
X5734467Y-23836079D01*
X5734467Y-23836079D02*
X5743991Y-23817031D01*
X5743991Y-23817031D02*
X5753515Y-23807508D01*
X5753515Y-23807508D02*
X5772562Y-23797984D01*
X5963039Y-23797984D02*
X5982086Y-23797984D01*
X5982086Y-23797984D02*
X6001134Y-23807508D01*
X6001134Y-23807508D02*
X6010658Y-23817031D01*
X6010658Y-23817031D02*
X6020182Y-23836079D01*
X6020182Y-23836079D02*
X6029705Y-23874174D01*
X6029705Y-23874174D02*
X6029705Y-23921793D01*
X6029705Y-23921793D02*
X6020182Y-23959888D01*
X6020182Y-23959888D02*
X6010658Y-23978936D01*
X6010658Y-23978936D02*
X6001134Y-23988460D01*
X6001134Y-23988460D02*
X5982086Y-23997984D01*
X5982086Y-23997984D02*
X5963039Y-23997984D01*
X5963039Y-23997984D02*
X5943991Y-23988460D01*
X5943991Y-23988460D02*
X5934467Y-23978936D01*
X5934467Y-23978936D02*
X5924943Y-23959888D01*
X5924943Y-23959888D02*
X5915420Y-23921793D01*
X5915420Y-23921793D02*
X5915420Y-23874174D01*
X5915420Y-23874174D02*
X5924943Y-23836079D01*
X5924943Y-23836079D02*
X5934467Y-23817031D01*
X5934467Y-23817031D02*
X5943991Y-23807508D01*
X5943991Y-23807508D02*
X5963039Y-23797984D01*
X6115420Y-23997984D02*
X6115420Y-23864650D01*
X6115420Y-23883698D02*
X6124943Y-23874174D01*
X6124943Y-23874174D02*
X6143991Y-23864650D01*
X6143991Y-23864650D02*
X6172563Y-23864650D01*
X6172563Y-23864650D02*
X6191610Y-23874174D01*
X6191610Y-23874174D02*
X6201134Y-23893222D01*
X6201134Y-23893222D02*
X6201134Y-23997984D01*
X6201134Y-23893222D02*
X6210658Y-23874174D01*
X6210658Y-23874174D02*
X6229705Y-23864650D01*
X6229705Y-23864650D02*
X6258277Y-23864650D01*
X6258277Y-23864650D02*
X6277324Y-23874174D01*
X6277324Y-23874174D02*
X6286848Y-23893222D01*
X6286848Y-23893222D02*
X6286848Y-23997984D01*
X6382086Y-23997984D02*
X6382086Y-23864650D01*
X6382086Y-23883698D02*
X6391610Y-23874174D01*
X6391610Y-23874174D02*
X6410658Y-23864650D01*
X6410658Y-23864650D02*
X6439229Y-23864650D01*
X6439229Y-23864650D02*
X6458277Y-23874174D01*
X6458277Y-23874174D02*
X6467801Y-23893222D01*
X6467801Y-23893222D02*
X6467801Y-23997984D01*
X6467801Y-23893222D02*
X6477324Y-23874174D01*
X6477324Y-23874174D02*
X6496372Y-23864650D01*
X6496372Y-23864650D02*
X6524943Y-23864650D01*
X6524943Y-23864650D02*
X6543991Y-23874174D01*
X6543991Y-23874174D02*
X6553515Y-23893222D01*
X6553515Y-23893222D02*
X6553515Y-23997984D01*
X6943991Y-23788460D02*
X6772563Y-24045603D01*
X7201134Y-23797984D02*
X7220182Y-23797984D01*
X7220182Y-23797984D02*
X7239229Y-23807508D01*
X7239229Y-23807508D02*
X7248753Y-23817031D01*
X7248753Y-23817031D02*
X7258277Y-23836079D01*
X7258277Y-23836079D02*
X7267801Y-23874174D01*
X7267801Y-23874174D02*
X7267801Y-23921793D01*
X7267801Y-23921793D02*
X7258277Y-23959888D01*
X7258277Y-23959888D02*
X7248753Y-23978936D01*
X7248753Y-23978936D02*
X7239229Y-23988460D01*
X7239229Y-23988460D02*
X7220182Y-23997984D01*
X7220182Y-23997984D02*
X7201134Y-23997984D01*
X7201134Y-23997984D02*
X7182086Y-23988460D01*
X7182086Y-23988460D02*
X7172563Y-23978936D01*
X7172563Y-23978936D02*
X7163039Y-23959888D01*
X7163039Y-23959888D02*
X7153515Y-23921793D01*
X7153515Y-23921793D02*
X7153515Y-23874174D01*
X7153515Y-23874174D02*
X7163039Y-23836079D01*
X7163039Y-23836079D02*
X7172563Y-23817031D01*
X7172563Y-23817031D02*
X7182086Y-23807508D01*
X7182086Y-23807508D02*
X7201134Y-23797984D01*
X7353515Y-23978936D02*
X7363039Y-23988460D01*
X7363039Y-23988460D02*
X7353515Y-23997984D01*
X7353515Y-23997984D02*
X7343991Y-23988460D01*
X7343991Y-23988460D02*
X7353515Y-23978936D01*
X7353515Y-23978936D02*
X7353515Y-23997984D01*
X7553515Y-23997984D02*
X7439229Y-23997984D01*
X7496372Y-23997984D02*
X7496372Y-23797984D01*
X7496372Y-23797984D02*
X7477325Y-23826555D01*
X7477325Y-23826555D02*
X7458277Y-23845603D01*
X7458277Y-23845603D02*
X7439229Y-23855127D01*
X7629706Y-23817031D02*
X7639229Y-23807508D01*
X7639229Y-23807508D02*
X7658277Y-23797984D01*
X7658277Y-23797984D02*
X7705896Y-23797984D01*
X7705896Y-23797984D02*
X7724944Y-23807508D01*
X7724944Y-23807508D02*
X7734467Y-23817031D01*
X7734467Y-23817031D02*
X7743991Y-23836079D01*
X7743991Y-23836079D02*
X7743991Y-23855127D01*
X7743991Y-23855127D02*
X7734467Y-23883698D01*
X7734467Y-23883698D02*
X7620182Y-23997984D01*
X7620182Y-23997984D02*
X7743991Y-23997984D01*
X7915420Y-23797984D02*
X7877325Y-23797984D01*
X7877325Y-23797984D02*
X7858277Y-23807508D01*
X7858277Y-23807508D02*
X7848753Y-23817031D01*
X7848753Y-23817031D02*
X7829706Y-23845603D01*
X7829706Y-23845603D02*
X7820182Y-23883698D01*
X7820182Y-23883698D02*
X7820182Y-23959888D01*
X7820182Y-23959888D02*
X7829706Y-23978936D01*
X7829706Y-23978936D02*
X7839229Y-23988460D01*
X7839229Y-23988460D02*
X7858277Y-23997984D01*
X7858277Y-23997984D02*
X7896372Y-23997984D01*
X7896372Y-23997984D02*
X7915420Y-23988460D01*
X7915420Y-23988460D02*
X7924944Y-23978936D01*
X7924944Y-23978936D02*
X7934467Y-23959888D01*
X7934467Y-23959888D02*
X7934467Y-23912269D01*
X7934467Y-23912269D02*
X7924944Y-23893222D01*
X7924944Y-23893222D02*
X7915420Y-23883698D01*
X7915420Y-23883698D02*
X7896372Y-23874174D01*
X7896372Y-23874174D02*
X7858277Y-23874174D01*
X7858277Y-23874174D02*
X7839229Y-23883698D01*
X7839229Y-23883698D02*
X7829706Y-23893222D01*
X7829706Y-23893222D02*
X7820182Y-23912269D01*
X8058277Y-23797984D02*
X8077325Y-23797984D01*
X8077325Y-23797984D02*
X8096372Y-23807508D01*
X8096372Y-23807508D02*
X8105896Y-23817031D01*
X8105896Y-23817031D02*
X8115420Y-23836079D01*
X8115420Y-23836079D02*
X8124944Y-23874174D01*
X8124944Y-23874174D02*
X8124944Y-23921793D01*
X8124944Y-23921793D02*
X8115420Y-23959888D01*
X8115420Y-23959888D02*
X8105896Y-23978936D01*
X8105896Y-23978936D02*
X8096372Y-23988460D01*
X8096372Y-23988460D02*
X8077325Y-23997984D01*
X8077325Y-23997984D02*
X8058277Y-23997984D01*
X8058277Y-23997984D02*
X8039229Y-23988460D01*
X8039229Y-23988460D02*
X8029706Y-23978936D01*
X8029706Y-23978936D02*
X8020182Y-23959888D01*
X8020182Y-23959888D02*
X8010658Y-23921793D01*
X8010658Y-23921793D02*
X8010658Y-23874174D01*
X8010658Y-23874174D02*
X8020182Y-23836079D01*
X8020182Y-23836079D02*
X8029706Y-23817031D01*
X8029706Y-23817031D02*
X8039229Y-23807508D01*
X8039229Y-23807508D02*
X8058277Y-23797984D01*
X8201134Y-23797984D02*
X8201134Y-23836079D01*
X8277325Y-23797984D02*
X8277325Y-23836079D01*
X8572563Y-24074174D02*
X8563039Y-24064650D01*
X8563039Y-24064650D02*
X8543991Y-24036079D01*
X8543991Y-24036079D02*
X8534468Y-24017031D01*
X8534468Y-24017031D02*
X8524944Y-23988460D01*
X8524944Y-23988460D02*
X8515420Y-23940841D01*
X8515420Y-23940841D02*
X8515420Y-23902746D01*
X8515420Y-23902746D02*
X8524944Y-23855127D01*
X8524944Y-23855127D02*
X8534468Y-23826555D01*
X8534468Y-23826555D02*
X8543991Y-23807508D01*
X8543991Y-23807508D02*
X8563039Y-23778936D01*
X8563039Y-23778936D02*
X8572563Y-23769412D01*
X8734468Y-23864650D02*
X8734468Y-23997984D01*
X8686849Y-23788460D02*
X8639230Y-23931317D01*
X8639230Y-23931317D02*
X8763039Y-23931317D01*
X8991611Y-23997984D02*
X8991611Y-23797984D01*
X9077325Y-23997984D02*
X9077325Y-23893222D01*
X9077325Y-23893222D02*
X9067801Y-23874174D01*
X9067801Y-23874174D02*
X9048753Y-23864650D01*
X9048753Y-23864650D02*
X9020182Y-23864650D01*
X9020182Y-23864650D02*
X9001134Y-23874174D01*
X9001134Y-23874174D02*
X8991611Y-23883698D01*
X9201134Y-23997984D02*
X9182087Y-23988460D01*
X9182087Y-23988460D02*
X9172563Y-23978936D01*
X9172563Y-23978936D02*
X9163039Y-23959888D01*
X9163039Y-23959888D02*
X9163039Y-23902746D01*
X9163039Y-23902746D02*
X9172563Y-23883698D01*
X9172563Y-23883698D02*
X9182087Y-23874174D01*
X9182087Y-23874174D02*
X9201134Y-23864650D01*
X9201134Y-23864650D02*
X9229706Y-23864650D01*
X9229706Y-23864650D02*
X9248753Y-23874174D01*
X9248753Y-23874174D02*
X9258277Y-23883698D01*
X9258277Y-23883698D02*
X9267801Y-23902746D01*
X9267801Y-23902746D02*
X9267801Y-23959888D01*
X9267801Y-23959888D02*
X9258277Y-23978936D01*
X9258277Y-23978936D02*
X9248753Y-23988460D01*
X9248753Y-23988460D02*
X9229706Y-23997984D01*
X9229706Y-23997984D02*
X9201134Y-23997984D01*
X9382087Y-23997984D02*
X9363039Y-23988460D01*
X9363039Y-23988460D02*
X9353515Y-23969412D01*
X9353515Y-23969412D02*
X9353515Y-23797984D01*
X9534468Y-23988460D02*
X9515420Y-23997984D01*
X9515420Y-23997984D02*
X9477325Y-23997984D01*
X9477325Y-23997984D02*
X9458277Y-23988460D01*
X9458277Y-23988460D02*
X9448753Y-23969412D01*
X9448753Y-23969412D02*
X9448753Y-23893222D01*
X9448753Y-23893222D02*
X9458277Y-23874174D01*
X9458277Y-23874174D02*
X9477325Y-23864650D01*
X9477325Y-23864650D02*
X9515420Y-23864650D01*
X9515420Y-23864650D02*
X9534468Y-23874174D01*
X9534468Y-23874174D02*
X9543992Y-23893222D01*
X9543992Y-23893222D02*
X9543992Y-23912269D01*
X9543992Y-23912269D02*
X9448753Y-23931317D01*
X9620182Y-23988460D02*
X9639230Y-23997984D01*
X9639230Y-23997984D02*
X9677325Y-23997984D01*
X9677325Y-23997984D02*
X9696373Y-23988460D01*
X9696373Y-23988460D02*
X9705896Y-23969412D01*
X9705896Y-23969412D02*
X9705896Y-23959888D01*
X9705896Y-23959888D02*
X9696373Y-23940841D01*
X9696373Y-23940841D02*
X9677325Y-23931317D01*
X9677325Y-23931317D02*
X9648753Y-23931317D01*
X9648753Y-23931317D02*
X9629706Y-23921793D01*
X9629706Y-23921793D02*
X9620182Y-23902746D01*
X9620182Y-23902746D02*
X9620182Y-23893222D01*
X9620182Y-23893222D02*
X9629706Y-23874174D01*
X9629706Y-23874174D02*
X9648753Y-23864650D01*
X9648753Y-23864650D02*
X9677325Y-23864650D01*
X9677325Y-23864650D02*
X9696373Y-23874174D01*
X9772563Y-24074174D02*
X9782087Y-24064650D01*
X9782087Y-24064650D02*
X9801134Y-24036079D01*
X9801134Y-24036079D02*
X9810658Y-24017031D01*
X9810658Y-24017031D02*
X9820182Y-23988460D01*
X9820182Y-23988460D02*
X9829706Y-23940841D01*
X9829706Y-23940841D02*
X9829706Y-23902746D01*
X9829706Y-23902746D02*
X9820182Y-23855127D01*
X9820182Y-23855127D02*
X9810658Y-23826555D01*
X9810658Y-23826555D02*
X9801134Y-23807508D01*
X9801134Y-23807508D02*
X9782087Y-23778936D01*
X9782087Y-23778936D02*
X9772563Y-23769412D01*
M02*
