M48
; DRILL file {KiCad 8.0.5} date 2024-12-03T23:28:51+0100
; FORMAT={-:-/ absolute / metric / decimal}
; #@! TF.CreationDate,2024-12-03T23:28:51+01:00
; #@! TF.GenerationSoftware,Kicad,Pcbnew,8.0.5
; #@! TF.FileFunction,Plated,1,2,PTH
FMAT,2
METRIC
; #@! TA.AperFunction,Plated,PTH,ComponentDrill
T1C0.300
; #@! TA.AperFunction,Plated,PTH,ComponentDrill
T2C3.200
%
G90
G05
T1
X52.8Y-50.0
X52.8Y-67.0
X52.8Y-88.25
X52.8Y-105.25
X52.8Y-126.25
X52.8Y-142.75
X52.8Y-159.25
X52.8Y-175.75
X52.8Y-192.25
X52.8Y-208.75
X54.46Y-45.97
X54.46Y-62.97
X54.46Y-84.22
X54.46Y-101.22
X54.46Y-122.22
X54.46Y-138.72
X54.46Y-155.22
X54.46Y-171.72
X54.46Y-188.22
X54.46Y-204.72
X54.47Y-54.04
X54.47Y-71.04
X54.47Y-92.29
X54.47Y-109.29
X54.47Y-130.29
X54.47Y-146.79
X54.47Y-163.29
X54.47Y-179.79
X54.47Y-196.29
X54.47Y-212.79
X58.5Y-44.3
X58.5Y-55.7
X58.5Y-61.3
X58.5Y-72.7
X58.5Y-82.55
X58.5Y-93.95
X58.5Y-99.55
X58.5Y-110.95
X58.5Y-120.55
X58.5Y-131.95
X58.5Y-137.05
X58.5Y-148.45
X58.5Y-153.55
X58.5Y-164.95
X58.5Y-170.05
X58.5Y-181.45
X58.5Y-186.55
X58.5Y-197.95
X58.5Y-203.05
X58.5Y-214.45
X62.53Y-54.04
X62.53Y-71.04
X62.53Y-92.29
X62.53Y-109.29
X62.53Y-130.29
X62.53Y-146.79
X62.53Y-163.29
X62.53Y-179.79
X62.53Y-196.29
X62.53Y-212.79
X62.54Y-45.97
X62.54Y-62.97
X62.54Y-84.22
X62.54Y-101.22
X62.54Y-122.22
X62.54Y-138.72
X62.54Y-155.22
X62.54Y-171.72
X62.54Y-188.22
X62.54Y-204.72
X64.2Y-50.0
X64.2Y-67.0
X64.2Y-88.25
X64.2Y-105.25
X64.2Y-126.25
X64.2Y-142.75
X64.2Y-159.25
X64.2Y-175.75
X64.2Y-192.25
X64.2Y-208.75
X69.3Y-126.25
X69.3Y-142.75
X69.3Y-159.25
X69.3Y-175.75
X69.3Y-192.25
X69.3Y-208.75
X70.96Y-122.22
X70.96Y-138.72
X70.96Y-155.22
X70.96Y-171.72
X70.96Y-188.22
X70.96Y-204.72
X70.97Y-130.29
X70.97Y-146.79
X70.97Y-163.29
X70.97Y-179.79
X70.97Y-196.29
X70.97Y-212.79
X75.0Y-120.55
X75.0Y-131.95
X75.0Y-137.05
X75.0Y-148.45
X75.0Y-153.55
X75.0Y-164.95
X75.0Y-170.05
X75.0Y-181.45
X75.0Y-186.55
X75.0Y-197.95
X75.0Y-203.05
X75.0Y-214.45
X79.03Y-130.29
X79.03Y-146.79
X79.03Y-163.29
X79.03Y-179.79
X79.03Y-196.29
X79.03Y-212.79
X79.04Y-122.22
X79.04Y-138.72
X79.04Y-155.22
X79.04Y-171.72
X79.04Y-188.22
X79.04Y-204.72
X80.7Y-126.25
X80.7Y-142.75
X80.7Y-159.25
X80.7Y-175.75
X80.7Y-192.25
X80.7Y-208.75
X85.8Y-126.25
X85.8Y-142.75
X85.8Y-159.25
X85.8Y-175.75
X85.8Y-192.25
X85.8Y-208.75
X87.46Y-122.22
X87.46Y-138.72
X87.46Y-155.22
X87.46Y-171.72
X87.46Y-188.22
X87.46Y-204.72
X87.47Y-130.29
X87.47Y-146.79
X87.47Y-163.29
X87.47Y-179.79
X87.47Y-196.29
X87.47Y-212.79
X91.5Y-120.55
X91.5Y-131.95
X91.5Y-137.05
X91.5Y-148.45
X91.5Y-153.55
X91.5Y-164.95
X91.5Y-170.05
X91.5Y-181.45
X91.5Y-186.55
X91.5Y-197.95
X91.5Y-203.05
X91.5Y-214.45
X95.53Y-130.29
X95.53Y-146.79
X95.53Y-163.29
X95.53Y-179.79
X95.53Y-196.29
X95.53Y-212.79
X95.54Y-122.22
X95.54Y-138.72
X95.54Y-155.22
X95.54Y-171.72
X95.54Y-188.22
X95.54Y-204.72
X97.2Y-126.25
X97.2Y-142.75
X97.2Y-159.25
X97.2Y-175.75
X97.2Y-192.25
X97.2Y-208.75
T2
X53.5Y-33.5
X53.5Y-226.5
X96.5Y-33.5
X96.5Y-226.5
M30
