%TF.GenerationSoftware,KiCad,Pcbnew,8.0.5*%
%TF.CreationDate,2024-12-03T23:29:58+01:00*%
%TF.ProjectId,DMH_Multiverter_PANEL,444d485f-4d75-46c7-9469-766572746572,rev?*%
%TF.SameCoordinates,Original*%
%TF.FileFunction,Legend,Bot*%
%TF.FilePolarity,Positive*%
%FSLAX46Y46*%
G04 Gerber Fmt 4.6, Leading zero omitted, Abs format (unit mm)*
G04 Created by KiCad (PCBNEW 8.0.5) date 2024-12-03 23:29:58*
%MOMM*%
%LPD*%
G01*
G04 APERTURE LIST*
%ADD10C,0.100000*%
%ADD11C,0.300000*%
%ADD12C,12.000000*%
%ADD13C,0.500000*%
%ADD14C,4.000000*%
%ADD15R,5.000000X10.000000*%
G04 APERTURE END LIST*
D10*
X70000000Y-225450000D02*
X80000000Y-225450000D01*
X80000000Y-227450000D01*
X70000000Y-227450000D01*
X70000000Y-225450000D01*
G36*
X70000000Y-225450000D02*
G01*
X80000000Y-225450000D01*
X80000000Y-227450000D01*
X70000000Y-227450000D01*
X70000000Y-225450000D01*
G37*
D11*
X88857141Y-223628328D02*
X88857141Y-222128328D01*
X88857141Y-222128328D02*
X88357141Y-223199757D01*
X88357141Y-223199757D02*
X87857141Y-222128328D01*
X87857141Y-222128328D02*
X87857141Y-223628328D01*
X87142855Y-223628328D02*
X87142855Y-222128328D01*
X86999998Y-223056900D02*
X86571426Y-223628328D01*
X86571426Y-222628328D02*
X87142855Y-223199757D01*
X85142854Y-223628328D02*
X85999997Y-223628328D01*
X85571426Y-223628328D02*
X85571426Y-222128328D01*
X85571426Y-222128328D02*
X85714283Y-222342614D01*
X85714283Y-222342614D02*
X85857140Y-222485471D01*
X85857140Y-222485471D02*
X85999997Y-222556900D01*
X84499998Y-223485471D02*
X84428569Y-223556900D01*
X84428569Y-223556900D02*
X84499998Y-223628328D01*
X84499998Y-223628328D02*
X84571426Y-223556900D01*
X84571426Y-223556900D02*
X84499998Y-223485471D01*
X84499998Y-223485471D02*
X84499998Y-223628328D01*
X83499997Y-222128328D02*
X83357140Y-222128328D01*
X83357140Y-222128328D02*
X83214283Y-222199757D01*
X83214283Y-222199757D02*
X83142855Y-222271185D01*
X83142855Y-222271185D02*
X83071426Y-222414042D01*
X83071426Y-222414042D02*
X82999997Y-222699757D01*
X82999997Y-222699757D02*
X82999997Y-223056900D01*
X82999997Y-223056900D02*
X83071426Y-223342614D01*
X83071426Y-223342614D02*
X83142855Y-223485471D01*
X83142855Y-223485471D02*
X83214283Y-223556900D01*
X83214283Y-223556900D02*
X83357140Y-223628328D01*
X83357140Y-223628328D02*
X83499997Y-223628328D01*
X83499997Y-223628328D02*
X83642855Y-223556900D01*
X83642855Y-223556900D02*
X83714283Y-223485471D01*
X83714283Y-223485471D02*
X83785712Y-223342614D01*
X83785712Y-223342614D02*
X83857140Y-223056900D01*
X83857140Y-223056900D02*
X83857140Y-222699757D01*
X83857140Y-222699757D02*
X83785712Y-222414042D01*
X83785712Y-222414042D02*
X83714283Y-222271185D01*
X83714283Y-222271185D02*
X83642855Y-222199757D01*
X83642855Y-222199757D02*
X83499997Y-222128328D01*
X81214284Y-223056900D02*
X80071427Y-223056900D01*
X78214284Y-223628328D02*
X78214284Y-222128328D01*
X78214284Y-222128328D02*
X77857141Y-222128328D01*
X77857141Y-222128328D02*
X77642855Y-222199757D01*
X77642855Y-222199757D02*
X77499998Y-222342614D01*
X77499998Y-222342614D02*
X77428569Y-222485471D01*
X77428569Y-222485471D02*
X77357141Y-222771185D01*
X77357141Y-222771185D02*
X77357141Y-222985471D01*
X77357141Y-222985471D02*
X77428569Y-223271185D01*
X77428569Y-223271185D02*
X77499998Y-223414042D01*
X77499998Y-223414042D02*
X77642855Y-223556900D01*
X77642855Y-223556900D02*
X77857141Y-223628328D01*
X77857141Y-223628328D02*
X78214284Y-223628328D01*
X76142855Y-223556900D02*
X76285712Y-223628328D01*
X76285712Y-223628328D02*
X76571427Y-223628328D01*
X76571427Y-223628328D02*
X76714284Y-223556900D01*
X76714284Y-223556900D02*
X76785712Y-223414042D01*
X76785712Y-223414042D02*
X76785712Y-222842614D01*
X76785712Y-222842614D02*
X76714284Y-222699757D01*
X76714284Y-222699757D02*
X76571427Y-222628328D01*
X76571427Y-222628328D02*
X76285712Y-222628328D01*
X76285712Y-222628328D02*
X76142855Y-222699757D01*
X76142855Y-222699757D02*
X76071427Y-222842614D01*
X76071427Y-222842614D02*
X76071427Y-222985471D01*
X76071427Y-222985471D02*
X76785712Y-223128328D01*
X74785713Y-223556900D02*
X74928570Y-223628328D01*
X74928570Y-223628328D02*
X75214284Y-223628328D01*
X75214284Y-223628328D02*
X75357141Y-223556900D01*
X75357141Y-223556900D02*
X75428570Y-223485471D01*
X75428570Y-223485471D02*
X75499998Y-223342614D01*
X75499998Y-223342614D02*
X75499998Y-222914042D01*
X75499998Y-222914042D02*
X75428570Y-222771185D01*
X75428570Y-222771185D02*
X75357141Y-222699757D01*
X75357141Y-222699757D02*
X75214284Y-222628328D01*
X75214284Y-222628328D02*
X74928570Y-222628328D01*
X74928570Y-222628328D02*
X74785713Y-222699757D01*
X73571427Y-223556900D02*
X73714284Y-223628328D01*
X73714284Y-223628328D02*
X73999999Y-223628328D01*
X73999999Y-223628328D02*
X74142856Y-223556900D01*
X74142856Y-223556900D02*
X74214284Y-223414042D01*
X74214284Y-223414042D02*
X74214284Y-222842614D01*
X74214284Y-222842614D02*
X74142856Y-222699757D01*
X74142856Y-222699757D02*
X73999999Y-222628328D01*
X73999999Y-222628328D02*
X73714284Y-222628328D01*
X73714284Y-222628328D02*
X73571427Y-222699757D01*
X73571427Y-222699757D02*
X73499999Y-222842614D01*
X73499999Y-222842614D02*
X73499999Y-222985471D01*
X73499999Y-222985471D02*
X74214284Y-223128328D01*
X72857142Y-223628328D02*
X72857142Y-222628328D01*
X72857142Y-222771185D02*
X72785713Y-222699757D01*
X72785713Y-222699757D02*
X72642856Y-222628328D01*
X72642856Y-222628328D02*
X72428570Y-222628328D01*
X72428570Y-222628328D02*
X72285713Y-222699757D01*
X72285713Y-222699757D02*
X72214285Y-222842614D01*
X72214285Y-222842614D02*
X72214285Y-223628328D01*
X72214285Y-222842614D02*
X72142856Y-222699757D01*
X72142856Y-222699757D02*
X71999999Y-222628328D01*
X71999999Y-222628328D02*
X71785713Y-222628328D01*
X71785713Y-222628328D02*
X71642856Y-222699757D01*
X71642856Y-222699757D02*
X71571427Y-222842614D01*
X71571427Y-222842614D02*
X71571427Y-223628328D01*
X70857142Y-223628328D02*
X70857142Y-222128328D01*
X70857142Y-222699757D02*
X70714285Y-222628328D01*
X70714285Y-222628328D02*
X70428570Y-222628328D01*
X70428570Y-222628328D02*
X70285713Y-222699757D01*
X70285713Y-222699757D02*
X70214285Y-222771185D01*
X70214285Y-222771185D02*
X70142856Y-222914042D01*
X70142856Y-222914042D02*
X70142856Y-223342614D01*
X70142856Y-223342614D02*
X70214285Y-223485471D01*
X70214285Y-223485471D02*
X70285713Y-223556900D01*
X70285713Y-223556900D02*
X70428570Y-223628328D01*
X70428570Y-223628328D02*
X70714285Y-223628328D01*
X70714285Y-223628328D02*
X70857142Y-223556900D01*
X68928570Y-223556900D02*
X69071427Y-223628328D01*
X69071427Y-223628328D02*
X69357142Y-223628328D01*
X69357142Y-223628328D02*
X69499999Y-223556900D01*
X69499999Y-223556900D02*
X69571427Y-223414042D01*
X69571427Y-223414042D02*
X69571427Y-222842614D01*
X69571427Y-222842614D02*
X69499999Y-222699757D01*
X69499999Y-222699757D02*
X69357142Y-222628328D01*
X69357142Y-222628328D02*
X69071427Y-222628328D01*
X69071427Y-222628328D02*
X68928570Y-222699757D01*
X68928570Y-222699757D02*
X68857142Y-222842614D01*
X68857142Y-222842614D02*
X68857142Y-222985471D01*
X68857142Y-222985471D02*
X69571427Y-223128328D01*
X68214285Y-223628328D02*
X68214285Y-222628328D01*
X68214285Y-222914042D02*
X68142856Y-222771185D01*
X68142856Y-222771185D02*
X68071428Y-222699757D01*
X68071428Y-222699757D02*
X67928570Y-222628328D01*
X67928570Y-222628328D02*
X67785713Y-222628328D01*
X66214285Y-222271185D02*
X66142857Y-222199757D01*
X66142857Y-222199757D02*
X66000000Y-222128328D01*
X66000000Y-222128328D02*
X65642857Y-222128328D01*
X65642857Y-222128328D02*
X65500000Y-222199757D01*
X65500000Y-222199757D02*
X65428571Y-222271185D01*
X65428571Y-222271185D02*
X65357142Y-222414042D01*
X65357142Y-222414042D02*
X65357142Y-222556900D01*
X65357142Y-222556900D02*
X65428571Y-222771185D01*
X65428571Y-222771185D02*
X66285714Y-223628328D01*
X66285714Y-223628328D02*
X65357142Y-223628328D01*
X64428571Y-222128328D02*
X64285714Y-222128328D01*
X64285714Y-222128328D02*
X64142857Y-222199757D01*
X64142857Y-222199757D02*
X64071429Y-222271185D01*
X64071429Y-222271185D02*
X64000000Y-222414042D01*
X64000000Y-222414042D02*
X63928571Y-222699757D01*
X63928571Y-222699757D02*
X63928571Y-223056900D01*
X63928571Y-223056900D02*
X64000000Y-223342614D01*
X64000000Y-223342614D02*
X64071429Y-223485471D01*
X64071429Y-223485471D02*
X64142857Y-223556900D01*
X64142857Y-223556900D02*
X64285714Y-223628328D01*
X64285714Y-223628328D02*
X64428571Y-223628328D01*
X64428571Y-223628328D02*
X64571429Y-223556900D01*
X64571429Y-223556900D02*
X64642857Y-223485471D01*
X64642857Y-223485471D02*
X64714286Y-223342614D01*
X64714286Y-223342614D02*
X64785714Y-223056900D01*
X64785714Y-223056900D02*
X64785714Y-222699757D01*
X64785714Y-222699757D02*
X64714286Y-222414042D01*
X64714286Y-222414042D02*
X64642857Y-222271185D01*
X64642857Y-222271185D02*
X64571429Y-222199757D01*
X64571429Y-222199757D02*
X64428571Y-222128328D01*
X63357143Y-222271185D02*
X63285715Y-222199757D01*
X63285715Y-222199757D02*
X63142858Y-222128328D01*
X63142858Y-222128328D02*
X62785715Y-222128328D01*
X62785715Y-222128328D02*
X62642858Y-222199757D01*
X62642858Y-222199757D02*
X62571429Y-222271185D01*
X62571429Y-222271185D02*
X62500000Y-222414042D01*
X62500000Y-222414042D02*
X62500000Y-222556900D01*
X62500000Y-222556900D02*
X62571429Y-222771185D01*
X62571429Y-222771185D02*
X63428572Y-223628328D01*
X63428572Y-223628328D02*
X62500000Y-223628328D01*
X61214287Y-222628328D02*
X61214287Y-223628328D01*
X61571429Y-222056900D02*
X61928572Y-223128328D01*
X61928572Y-223128328D02*
X61000001Y-223128328D01*
X96142856Y-83999757D02*
X96285714Y-83928328D01*
X96285714Y-83928328D02*
X96499999Y-83928328D01*
X96499999Y-83928328D02*
X96714285Y-83999757D01*
X96714285Y-83999757D02*
X96857142Y-84142614D01*
X96857142Y-84142614D02*
X96928571Y-84285471D01*
X96928571Y-84285471D02*
X96999999Y-84571185D01*
X96999999Y-84571185D02*
X96999999Y-84785471D01*
X96999999Y-84785471D02*
X96928571Y-85071185D01*
X96928571Y-85071185D02*
X96857142Y-85214042D01*
X96857142Y-85214042D02*
X96714285Y-85356900D01*
X96714285Y-85356900D02*
X96499999Y-85428328D01*
X96499999Y-85428328D02*
X96357142Y-85428328D01*
X96357142Y-85428328D02*
X96142856Y-85356900D01*
X96142856Y-85356900D02*
X96071428Y-85285471D01*
X96071428Y-85285471D02*
X96071428Y-84785471D01*
X96071428Y-84785471D02*
X96357142Y-84785471D01*
X95428571Y-85428328D02*
X95428571Y-83928328D01*
X95428571Y-83928328D02*
X94571428Y-85428328D01*
X94571428Y-85428328D02*
X94571428Y-83928328D01*
X93857142Y-85428328D02*
X93857142Y-83928328D01*
X93857142Y-83928328D02*
X93499999Y-83928328D01*
X93499999Y-83928328D02*
X93285713Y-83999757D01*
X93285713Y-83999757D02*
X93142856Y-84142614D01*
X93142856Y-84142614D02*
X93071427Y-84285471D01*
X93071427Y-84285471D02*
X92999999Y-84571185D01*
X92999999Y-84571185D02*
X92999999Y-84785471D01*
X92999999Y-84785471D02*
X93071427Y-85071185D01*
X93071427Y-85071185D02*
X93142856Y-85214042D01*
X93142856Y-85214042D02*
X93285713Y-85356900D01*
X93285713Y-85356900D02*
X93499999Y-85428328D01*
X93499999Y-85428328D02*
X93857142Y-85428328D01*
%LPC*%
D12*
%TO.C,H10*%
X83000000Y-97000000D03*
%TD*%
%TO.C,H7*%
X83000000Y-58750000D03*
%TD*%
D13*
%TO.C,H18*%
X69300000Y-159250000D03*
X70960000Y-155220000D03*
X70970000Y-163290000D03*
X75000000Y-153550000D03*
D12*
X75000000Y-159250000D03*
D13*
X75000000Y-164950000D03*
X79030000Y-163290000D03*
X79040000Y-155220000D03*
X80700000Y-159250000D03*
%TD*%
D14*
%TO.C,H3*%
X53500000Y-226500000D03*
%TD*%
D13*
%TO.C,H23*%
X52800000Y-192250000D03*
X54460000Y-188220000D03*
X54470000Y-196290000D03*
X58500000Y-186550000D03*
D12*
X58500000Y-192250000D03*
D13*
X58500000Y-197950000D03*
X62530000Y-196290000D03*
X62540000Y-188220000D03*
X64200000Y-192250000D03*
%TD*%
%TO.C,H27*%
X69300000Y-208750000D03*
X70960000Y-204720000D03*
X70970000Y-212790000D03*
X75000000Y-203050000D03*
D12*
X75000000Y-208750000D03*
D13*
X75000000Y-214450000D03*
X79030000Y-212790000D03*
X79040000Y-204720000D03*
X80700000Y-208750000D03*
%TD*%
%TO.C,H12*%
X69300000Y-126250000D03*
X70960000Y-122220000D03*
X70970000Y-130290000D03*
X75000000Y-120550000D03*
D12*
X75000000Y-126250000D03*
D13*
X75000000Y-131950000D03*
X79030000Y-130290000D03*
X79040000Y-122220000D03*
X80700000Y-126250000D03*
%TD*%
%TO.C,H5*%
X52800000Y-50000000D03*
X54460000Y-45970000D03*
X54470000Y-54040000D03*
X58500000Y-44300000D03*
D12*
X58500000Y-50000000D03*
D13*
X58500000Y-55700000D03*
X62530000Y-54040000D03*
X62540000Y-45970000D03*
X64200000Y-50000000D03*
%TD*%
%TO.C,H22*%
X85800000Y-175750000D03*
X87460000Y-171720000D03*
X87470000Y-179790000D03*
X91500000Y-170050000D03*
D12*
X91500000Y-175750000D03*
D13*
X91500000Y-181450000D03*
X95530000Y-179790000D03*
X95540000Y-171720000D03*
X97200000Y-175750000D03*
%TD*%
%TO.C,H15*%
X69300000Y-142750000D03*
X70960000Y-138720000D03*
X70970000Y-146790000D03*
X75000000Y-137050000D03*
D12*
X75000000Y-142750000D03*
D13*
X75000000Y-148450000D03*
X79030000Y-146790000D03*
X79040000Y-138720000D03*
X80700000Y-142750000D03*
%TD*%
%TO.C,H24*%
X69300000Y-192250000D03*
X70960000Y-188220000D03*
X70970000Y-196290000D03*
X75000000Y-186550000D03*
D12*
X75000000Y-192250000D03*
D13*
X75000000Y-197950000D03*
X79030000Y-196290000D03*
X79040000Y-188220000D03*
X80700000Y-192250000D03*
%TD*%
%TO.C,H8*%
X52800000Y-88250000D03*
X54460000Y-84220000D03*
X54470000Y-92290000D03*
X58500000Y-82550000D03*
D12*
X58500000Y-88250000D03*
D13*
X58500000Y-93950000D03*
X62530000Y-92290000D03*
X62540000Y-84220000D03*
X64200000Y-88250000D03*
%TD*%
%TO.C,H26*%
X52800000Y-208750000D03*
X54460000Y-204720000D03*
X54470000Y-212790000D03*
X58500000Y-203050000D03*
D12*
X58500000Y-208750000D03*
D13*
X58500000Y-214450000D03*
X62530000Y-212790000D03*
X62540000Y-204720000D03*
X64200000Y-208750000D03*
%TD*%
%TO.C,H28*%
X85800000Y-208750000D03*
X87460000Y-204720000D03*
X87470000Y-212790000D03*
X91500000Y-203050000D03*
D12*
X91500000Y-208750000D03*
D13*
X91500000Y-214450000D03*
X95530000Y-212790000D03*
X95540000Y-204720000D03*
X97200000Y-208750000D03*
%TD*%
%TO.C,H21*%
X69300000Y-175750000D03*
X70960000Y-171720000D03*
X70970000Y-179790000D03*
X75000000Y-170050000D03*
D12*
X75000000Y-175750000D03*
D13*
X75000000Y-181450000D03*
X79030000Y-179790000D03*
X79040000Y-171720000D03*
X80700000Y-175750000D03*
%TD*%
%TO.C,H25*%
X85800000Y-192250000D03*
X87460000Y-188220000D03*
X87470000Y-196290000D03*
X91500000Y-186550000D03*
D12*
X91500000Y-192250000D03*
D13*
X91500000Y-197950000D03*
X95530000Y-196290000D03*
X95540000Y-188220000D03*
X97200000Y-192250000D03*
%TD*%
%TO.C,H11*%
X52800000Y-126250000D03*
X54460000Y-122220000D03*
X54470000Y-130290000D03*
X58500000Y-120550000D03*
D12*
X58500000Y-126250000D03*
D13*
X58500000Y-131950000D03*
X62530000Y-130290000D03*
X62540000Y-122220000D03*
X64200000Y-126250000D03*
%TD*%
%TO.C,H17*%
X52800000Y-159250000D03*
X54460000Y-155220000D03*
X54470000Y-163290000D03*
X58500000Y-153550000D03*
D12*
X58500000Y-159250000D03*
D13*
X58500000Y-164950000D03*
X62530000Y-163290000D03*
X62540000Y-155220000D03*
X64200000Y-159250000D03*
%TD*%
%TO.C,H16*%
X85800000Y-142750000D03*
X87460000Y-138720000D03*
X87470000Y-146790000D03*
X91500000Y-137050000D03*
D12*
X91500000Y-142750000D03*
D13*
X91500000Y-148450000D03*
X95530000Y-146790000D03*
X95540000Y-138720000D03*
X97200000Y-142750000D03*
%TD*%
%TO.C,H9*%
X52800000Y-105250000D03*
X54460000Y-101220000D03*
X54470000Y-109290000D03*
X58500000Y-99550000D03*
D12*
X58500000Y-105250000D03*
D13*
X58500000Y-110950000D03*
X62530000Y-109290000D03*
X62540000Y-101220000D03*
X64200000Y-105250000D03*
%TD*%
D14*
%TO.C,H2*%
X96500000Y-33500000D03*
%TD*%
%TO.C,H4*%
X96500000Y-226500000D03*
%TD*%
D13*
%TO.C,H14*%
X52800000Y-142750000D03*
X54460000Y-138720000D03*
X54470000Y-146790000D03*
X58500000Y-137050000D03*
D12*
X58500000Y-142750000D03*
D13*
X58500000Y-148450000D03*
X62530000Y-146790000D03*
X62540000Y-138720000D03*
X64200000Y-142750000D03*
%TD*%
%TO.C,H20*%
X52800000Y-175750000D03*
X54460000Y-171720000D03*
X54470000Y-179790000D03*
X58500000Y-170050000D03*
D12*
X58500000Y-175750000D03*
D13*
X58500000Y-181450000D03*
X62530000Y-179790000D03*
X62540000Y-171720000D03*
X64200000Y-175750000D03*
%TD*%
%TO.C,H6*%
X52800000Y-67000000D03*
X54460000Y-62970000D03*
X54470000Y-71040000D03*
X58500000Y-61300000D03*
D12*
X58500000Y-67000000D03*
D13*
X58500000Y-72700000D03*
X62530000Y-71040000D03*
X62540000Y-62970000D03*
X64200000Y-67000000D03*
%TD*%
D14*
%TO.C,H1*%
X53500000Y-33500000D03*
%TD*%
D13*
%TO.C,H13*%
X85800000Y-126250000D03*
X87460000Y-122220000D03*
X87470000Y-130290000D03*
X91500000Y-120550000D03*
D12*
X91500000Y-126250000D03*
D13*
X91500000Y-131950000D03*
X95530000Y-130290000D03*
X95540000Y-122220000D03*
X97200000Y-126250000D03*
%TD*%
%TO.C,H19*%
X85800000Y-159250000D03*
X87460000Y-155220000D03*
X87470000Y-163290000D03*
X91500000Y-153550000D03*
D12*
X91500000Y-159250000D03*
D13*
X91500000Y-164950000D03*
X95530000Y-163290000D03*
X95540000Y-155220000D03*
X97200000Y-159250000D03*
%TD*%
D15*
%TO.C,J0*%
X95000000Y-78000000D03*
%TD*%
%LPD*%
M02*
