%TF.GenerationSoftware,KiCad,Pcbnew,9.0.0*%
%TF.CreationDate,2025-03-15T22:48:14+01:00*%
%TF.ProjectId,DMH_Multiverter_Mk2_PANEL,444d485f-4d75-46c7-9469-766572746572,rev?*%
%TF.SameCoordinates,Original*%
%TF.FileFunction,Legend,Top*%
%TF.FilePolarity,Positive*%
%FSLAX46Y46*%
G04 Gerber Fmt 4.6, Leading zero omitted, Abs format (unit mm)*
G04 Created by KiCad (PCBNEW 9.0.0) date 2025-03-15 22:48:14*
%MOMM*%
%LPD*%
G01*
G04 APERTURE LIST*
%ADD10C,0.550000*%
%ADD11C,1.000000*%
%ADD12C,0.400000*%
%ADD13C,0.800000*%
%ADD14C,0.875000*%
%ADD15C,0.150000*%
%ADD16C,0.000000*%
%ADD17C,0.500000*%
%ADD18C,4.000000*%
%ADD19C,0.500000*%
%ADD20C,12.000000*%
G04 APERTURE END LIST*
D10*
X58775000Y-200500000D02*
G75*
G02*
X58225000Y-200500000I-275000J0D01*
G01*
X58225000Y-200500000D02*
G75*
G02*
X58775000Y-200500000I275000J0D01*
G01*
X58775000Y-184000000D02*
G75*
G02*
X58225000Y-184000000I-275000J0D01*
G01*
X58225000Y-184000000D02*
G75*
G02*
X58775000Y-184000000I275000J0D01*
G01*
D11*
X81000000Y-192250000D02*
X85500000Y-192250000D01*
D10*
X58775000Y-202000000D02*
G75*
G02*
X58225000Y-202000000I-275000J0D01*
G01*
X58225000Y-202000000D02*
G75*
G02*
X58775000Y-202000000I275000J0D01*
G01*
D11*
X64500000Y-192250000D02*
X69000000Y-192250000D01*
D10*
X58775000Y-182500000D02*
G75*
G02*
X58225000Y-182500000I-275000J0D01*
G01*
X58225000Y-182500000D02*
G75*
G02*
X58775000Y-182500000I275000J0D01*
G01*
D11*
X64500000Y-208750000D02*
X69000000Y-208750000D01*
D12*
X52000000Y-154750000D02*
X98000000Y-154750000D01*
D10*
X58775000Y-199000000D02*
G75*
G02*
X58225000Y-199000000I-275000J0D01*
G01*
X58225000Y-199000000D02*
G75*
G02*
X58775000Y-199000000I275000J0D01*
G01*
D12*
X52000000Y-116750000D02*
X98000000Y-116750000D01*
D11*
X81000000Y-175750000D02*
X85500000Y-175750000D01*
D12*
X52000000Y-78750000D02*
X98000000Y-78750000D01*
D10*
X58775000Y-185500000D02*
G75*
G02*
X58225000Y-185500000I-275000J0D01*
G01*
X58225000Y-185500000D02*
G75*
G02*
X58775000Y-185500000I275000J0D01*
G01*
D11*
X64500000Y-175750000D02*
X69000000Y-175750000D01*
X81000000Y-208750000D02*
X85500000Y-208750000D01*
D13*
G36*
X61251081Y-156767166D02*
G01*
X58473552Y-156767166D01*
X58275462Y-156774815D01*
X58100584Y-156797093D01*
X57953115Y-156831138D01*
X57822961Y-156876758D01*
X57608117Y-156998377D01*
X57482170Y-157108862D01*
X57393787Y-157210902D01*
X57317862Y-157322459D01*
X57255821Y-157441480D01*
X57208052Y-157567642D01*
X57176113Y-157696763D01*
X57159681Y-157830598D01*
X57157571Y-157899232D01*
X57165277Y-158035173D01*
X57187957Y-158165841D01*
X57276875Y-158411265D01*
X57421278Y-158629836D01*
X57476797Y-158691067D01*
X57574214Y-158779463D01*
X57686314Y-158856697D01*
X57801370Y-158915424D01*
X57932067Y-158963272D01*
X58076802Y-158998685D01*
X58239940Y-159021977D01*
X58473552Y-159032763D01*
X60013503Y-159032763D01*
X60128523Y-159040586D01*
X60211076Y-159064083D01*
X60282170Y-159115806D01*
X60345934Y-159220892D01*
X60360572Y-159315352D01*
X60352962Y-159381236D01*
X60330956Y-159440578D01*
X60299023Y-159487055D01*
X60253770Y-159528552D01*
X60192234Y-159558449D01*
X60013503Y-159581332D01*
X57258199Y-159581332D01*
X57258199Y-160550000D01*
X60192533Y-160550000D01*
X60361611Y-160542324D01*
X60516299Y-160519855D01*
X60654200Y-160484417D01*
X60779659Y-160436439D01*
X60996164Y-160305717D01*
X61150209Y-160158234D01*
X61301785Y-159934468D01*
X61357238Y-159810974D01*
X61397846Y-159681483D01*
X61421879Y-159552485D01*
X61430111Y-159420621D01*
X61399949Y-159169443D01*
X61309627Y-158925677D01*
X61161728Y-158702808D01*
X61105513Y-158640753D01*
X61006511Y-158550749D01*
X60894448Y-158472341D01*
X60778774Y-158411607D01*
X60650059Y-158362871D01*
X60511905Y-158328063D01*
X60359727Y-158306473D01*
X60192533Y-158299057D01*
X58529483Y-158299057D01*
X58416207Y-158290900D01*
X58341809Y-158265063D01*
X58311130Y-158242882D01*
X58267974Y-158198109D01*
X58236069Y-158142145D01*
X58215875Y-158040160D01*
X58223526Y-157971366D01*
X58245814Y-157909776D01*
X58294277Y-157842812D01*
X58342466Y-157806704D01*
X58408958Y-157781922D01*
X58529483Y-157769783D01*
X61251081Y-157769783D01*
X61251081Y-156767166D01*
G37*
G36*
X65073482Y-157583914D02*
G01*
X65123684Y-157592510D01*
X65162428Y-157621415D01*
X65196825Y-157695778D01*
X65740021Y-159782588D01*
X65790760Y-159943684D01*
X65853204Y-160087415D01*
X65921326Y-160204717D01*
X65999678Y-160307462D01*
X66083724Y-160391696D01*
X66177236Y-160462970D01*
X66390252Y-160566038D01*
X66649087Y-160620340D01*
X66809560Y-160628157D01*
X66980700Y-160620464D01*
X67136354Y-160597877D01*
X67271989Y-160562735D01*
X67393992Y-160515122D01*
X67500573Y-160457060D01*
X67594768Y-160388293D01*
X67748010Y-160220163D01*
X67858410Y-160008126D01*
X67918178Y-159788206D01*
X68422296Y-156946196D01*
X68439148Y-156767166D01*
X67380600Y-156767166D01*
X67369365Y-156912735D01*
X66938276Y-159497313D01*
X66917670Y-159562507D01*
X66883435Y-159604092D01*
X66803942Y-159625785D01*
X66748559Y-159616997D01*
X66705737Y-159586748D01*
X66669609Y-159508304D01*
X66103942Y-157449825D01*
X66051624Y-157285199D01*
X65987065Y-157140509D01*
X65920986Y-157032359D01*
X65843993Y-156938619D01*
X65762661Y-156864957D01*
X65670612Y-156803365D01*
X65454939Y-156716983D01*
X65176350Y-156675975D01*
X65073482Y-156673377D01*
X64896945Y-156681233D01*
X64738434Y-156704965D01*
X64610330Y-156740103D01*
X64495260Y-156788478D01*
X64397865Y-156846491D01*
X64310810Y-156916623D01*
X64165083Y-157094049D01*
X64047450Y-157337331D01*
X64003942Y-157470586D01*
X63427041Y-159508060D01*
X63404537Y-159567181D01*
X63372478Y-159603895D01*
X63292707Y-159625785D01*
X63238714Y-159617767D01*
X63198178Y-159592907D01*
X63160352Y-159510171D01*
X63158374Y-159496824D01*
X62760746Y-156903698D01*
X62749511Y-156767166D01*
X61679972Y-156767166D01*
X61696825Y-156946196D01*
X62167236Y-159782588D01*
X62197911Y-159921521D01*
X62243919Y-160052153D01*
X62300288Y-160163731D01*
X62370620Y-160265985D01*
X62449644Y-160352377D01*
X62541749Y-160428699D01*
X62643423Y-160491961D01*
X62758005Y-160544178D01*
X62885035Y-160584326D01*
X63025516Y-160611952D01*
X63264619Y-160628157D01*
X63431745Y-160620286D01*
X63585447Y-160596449D01*
X63714339Y-160560431D01*
X63832400Y-160510553D01*
X63934462Y-160450255D01*
X64027107Y-160377060D01*
X64183395Y-160193174D01*
X64307924Y-159947426D01*
X64362247Y-159782588D01*
X64950384Y-157695778D01*
X64974238Y-157636139D01*
X65007525Y-157600685D01*
X65073482Y-157583914D01*
G37*
G36*
X68845324Y-156767166D02*
G01*
X68845324Y-160550000D01*
X69864550Y-160550000D01*
X69864550Y-156767166D01*
X68845324Y-156767166D01*
G37*
G36*
X70262177Y-156767166D02*
G01*
X70262177Y-157769783D01*
X71925471Y-157769783D01*
X71925471Y-160550000D01*
X72944452Y-160550000D01*
X72944452Y-157769783D01*
X74602128Y-157769783D01*
X74602128Y-156767166D01*
X70262177Y-156767166D01*
G37*
G36*
X78684403Y-159553244D02*
G01*
X76702128Y-159553244D01*
X76545994Y-159545586D01*
X76405476Y-159523242D01*
X76283270Y-159488421D01*
X76174216Y-159441528D01*
X75992460Y-159314943D01*
X75940579Y-159262595D01*
X75867029Y-159172031D01*
X75805750Y-159071810D01*
X75758132Y-158963832D01*
X75725070Y-158849057D01*
X75705373Y-158664200D01*
X75735425Y-158434761D01*
X75824427Y-158218966D01*
X75889699Y-158121140D01*
X75967084Y-158033257D01*
X75985275Y-158015736D01*
X76081691Y-157937527D01*
X76191604Y-157872452D01*
X76301150Y-157827504D01*
X76425372Y-157794762D01*
X76702128Y-157769783D01*
X78684403Y-157769783D01*
X78684403Y-156767166D01*
X76702128Y-156767166D01*
X76494369Y-156774865D01*
X76299098Y-156797495D01*
X76117688Y-156833924D01*
X75947785Y-156883623D01*
X75788451Y-156946168D01*
X75639971Y-157020710D01*
X75368909Y-157207328D01*
X75302128Y-157265666D01*
X75071052Y-157522059D01*
X74973608Y-157665142D01*
X74889233Y-157817082D01*
X74819462Y-157975162D01*
X74764046Y-158140236D01*
X74724401Y-158308123D01*
X74700060Y-158481162D01*
X74691765Y-158658827D01*
X74722126Y-159003811D01*
X74811845Y-159332520D01*
X74958201Y-159637348D01*
X75156856Y-159909355D01*
X75179030Y-159934019D01*
X75300584Y-160055692D01*
X75433621Y-160165774D01*
X75572666Y-160260055D01*
X75722754Y-160342271D01*
X75880312Y-160410340D01*
X76048804Y-160465647D01*
X76226981Y-160507307D01*
X76416295Y-160535204D01*
X76702128Y-160550000D01*
X78684403Y-160550000D01*
X78684403Y-159553244D01*
G37*
G36*
X82442079Y-156767166D02*
G01*
X82442079Y-158142742D01*
X80185275Y-158142742D01*
X80185275Y-156767166D01*
X79166050Y-156767166D01*
X79166050Y-160550000D01*
X80185275Y-160550000D01*
X80185275Y-159094801D01*
X82442079Y-159094801D01*
X82442079Y-160550000D01*
X83461060Y-160550000D01*
X83461060Y-156767166D01*
X82442079Y-156767166D01*
G37*
G36*
X84561619Y-156767166D02*
G01*
X84436104Y-156774993D01*
X84327246Y-156798516D01*
X84244903Y-156832426D01*
X84175576Y-156878692D01*
X84122508Y-156933199D01*
X84080833Y-156998595D01*
X84031220Y-157165405D01*
X84024040Y-157276901D01*
X84024040Y-160023656D01*
X84031846Y-160143478D01*
X84055221Y-160247710D01*
X84089282Y-160327807D01*
X84135712Y-160395522D01*
X84257585Y-160490103D01*
X84428792Y-160541418D01*
X84556001Y-160550000D01*
X88005687Y-160550000D01*
X88005687Y-159581332D01*
X85127285Y-159581332D01*
X85083329Y-159573517D01*
X85054411Y-159550069D01*
X85037648Y-159481681D01*
X85037648Y-159027145D01*
X87988834Y-159027145D01*
X87988834Y-158299057D01*
X85037648Y-158299057D01*
X85037648Y-157865526D01*
X85045616Y-157816880D01*
X85070125Y-157784912D01*
X85127285Y-157769783D01*
X88005687Y-157769783D01*
X88005687Y-156767166D01*
X84561619Y-156767166D01*
G37*
G36*
X90854668Y-156768381D02*
G01*
X91055435Y-156781850D01*
X91244121Y-156809680D01*
X91422235Y-156851515D01*
X91588836Y-156906522D01*
X91748097Y-156975880D01*
X91896032Y-157057611D01*
X92039289Y-157155688D01*
X92171005Y-157265666D01*
X92310042Y-157408562D01*
X92512440Y-157686397D01*
X92660697Y-157993562D01*
X92750993Y-158320352D01*
X92781367Y-158658827D01*
X92781304Y-158674771D01*
X92771882Y-158852948D01*
X92746959Y-159025929D01*
X92706427Y-159195865D01*
X92651340Y-159358923D01*
X92581550Y-159516154D01*
X92498407Y-159664783D01*
X92402315Y-159804525D01*
X92294347Y-159934019D01*
X92112380Y-160108291D01*
X91840648Y-160295123D01*
X91690692Y-160370141D01*
X91530069Y-160432942D01*
X91358375Y-160482978D01*
X91175602Y-160519567D01*
X90979174Y-160542288D01*
X90771005Y-160550000D01*
X88727180Y-160550000D01*
X88712060Y-160549767D01*
X88588113Y-160522251D01*
X88544259Y-160491771D01*
X88511757Y-160449938D01*
X88488525Y-160387418D01*
X88480739Y-160309420D01*
X88480739Y-157847941D01*
X89494347Y-157847941D01*
X89494347Y-159475087D01*
X89501216Y-159518296D01*
X89525029Y-159544968D01*
X89567132Y-159553244D01*
X90771005Y-159553244D01*
X90863401Y-159550656D01*
X91005833Y-159535154D01*
X91134072Y-159506408D01*
X91250061Y-159464758D01*
X91353107Y-159411330D01*
X91449353Y-159342591D01*
X91532798Y-159262595D01*
X91649268Y-159105025D01*
X91737819Y-158891667D01*
X91767760Y-158664200D01*
X91767588Y-158646688D01*
X91757065Y-158526456D01*
X91730936Y-158410503D01*
X91689576Y-158298871D01*
X91634252Y-158194566D01*
X91487857Y-158015736D01*
X91476609Y-158005446D01*
X91295600Y-157879553D01*
X91190159Y-157833800D01*
X91070920Y-157799627D01*
X90930499Y-157777421D01*
X90771005Y-157769783D01*
X89567132Y-157769783D01*
X89527307Y-157776941D01*
X89502375Y-157802077D01*
X89494347Y-157847941D01*
X88480739Y-157847941D01*
X88480739Y-157002372D01*
X88506994Y-156874677D01*
X88538113Y-156830847D01*
X88581069Y-156798429D01*
X88646207Y-156774982D01*
X88727180Y-156767166D01*
X90771005Y-156767166D01*
X90854668Y-156768381D01*
G37*
G36*
X68549547Y-167348157D02*
G01*
X68674043Y-167340233D01*
X68793362Y-167316027D01*
X68896334Y-167278775D01*
X68990513Y-167226657D01*
X69066860Y-167165819D01*
X69132566Y-167091843D01*
X69187998Y-167000355D01*
X70335939Y-164616301D01*
X70378136Y-164577475D01*
X70408723Y-164571360D01*
X70445195Y-164579176D01*
X70475821Y-164602623D01*
X70498361Y-164672477D01*
X70498361Y-167270000D01*
X71472889Y-167270000D01*
X71472889Y-164492958D01*
X71465171Y-164320844D01*
X71442406Y-164167070D01*
X71407720Y-164037772D01*
X71360687Y-163922432D01*
X71303100Y-163821872D01*
X71234590Y-163732572D01*
X71119959Y-163623454D01*
X71012805Y-163548027D01*
X70892831Y-163484619D01*
X70771503Y-163439181D01*
X70640179Y-163408304D01*
X70459282Y-163393377D01*
X70326840Y-163401061D01*
X70204800Y-163423587D01*
X70093880Y-163459627D01*
X69991916Y-163508613D01*
X69807490Y-163647146D01*
X69642106Y-163847386D01*
X69501605Y-164100460D01*
X68644802Y-165963056D01*
X68617837Y-166009491D01*
X68583134Y-166031523D01*
X68549547Y-166035840D01*
X68503875Y-166026674D01*
X68469689Y-165993770D01*
X68454536Y-165963056D01*
X67597732Y-164100460D01*
X67510061Y-163931957D01*
X67410582Y-163781799D01*
X67319445Y-163674745D01*
X67218125Y-163582884D01*
X67119104Y-163515336D01*
X67010551Y-163461689D01*
X66898926Y-163424711D01*
X66777587Y-163401684D01*
X66640056Y-163393377D01*
X66388788Y-163422606D01*
X66158371Y-163507618D01*
X65979379Y-163623454D01*
X65888478Y-163706647D01*
X65810053Y-163801771D01*
X65749333Y-163901252D01*
X65700216Y-164013174D01*
X65639118Y-164275446D01*
X65626448Y-164492958D01*
X65626448Y-167270000D01*
X66600977Y-167270000D01*
X66600977Y-164672721D01*
X66608164Y-164629790D01*
X66627209Y-164598647D01*
X66690370Y-164571605D01*
X66753395Y-164600136D01*
X66763399Y-164616545D01*
X67911340Y-167000844D01*
X68017926Y-167151789D01*
X68168324Y-167262012D01*
X68362441Y-167329749D01*
X68549547Y-167348157D01*
G37*
G36*
X75020273Y-167270000D02*
G01*
X75249666Y-167262113D01*
X75455012Y-167238167D01*
X75616811Y-167203364D01*
X75760965Y-167155433D01*
X75877298Y-167100125D01*
X75979800Y-167033469D01*
X76064661Y-166959483D01*
X76137722Y-166874880D01*
X76249664Y-166673272D01*
X76320722Y-166413591D01*
X76347488Y-166060753D01*
X76347488Y-163487166D01*
X75328263Y-163487166D01*
X75328263Y-165948890D01*
X75320429Y-166045767D01*
X75296855Y-166126610D01*
X75263581Y-166183983D01*
X75218315Y-166229732D01*
X75095200Y-166286303D01*
X74953106Y-166301332D01*
X73379449Y-166301332D01*
X73276155Y-166293517D01*
X73190902Y-166270069D01*
X73131545Y-166237363D01*
X73084804Y-166193073D01*
X73029013Y-166074997D01*
X73015527Y-165948890D01*
X73015527Y-163487166D01*
X71996302Y-163487166D01*
X71996302Y-166060753D01*
X72004234Y-166262123D01*
X72028499Y-166443842D01*
X72063775Y-166587361D01*
X72112624Y-166716353D01*
X72169559Y-166821802D01*
X72238593Y-166915551D01*
X72316645Y-166994793D01*
X72406517Y-167063617D01*
X72626101Y-167171873D01*
X72915941Y-167242477D01*
X73323518Y-167270000D01*
X75020273Y-167270000D01*
G37*
G36*
X80843266Y-167270000D02*
G01*
X80843266Y-166301332D01*
X78216923Y-166301332D01*
X78094912Y-166292938D01*
X78004487Y-166265439D01*
X77958373Y-166233396D01*
X77924264Y-166189387D01*
X77887045Y-166061695D01*
X77880845Y-165943272D01*
X77880845Y-163487166D01*
X76861619Y-163487166D01*
X76861619Y-166038283D01*
X76869695Y-166256781D01*
X76894961Y-166453879D01*
X76930456Y-166602415D01*
X76979999Y-166735996D01*
X77036575Y-166842204D01*
X77105617Y-166936619D01*
X77182626Y-167014774D01*
X77271802Y-167082487D01*
X77488363Y-167186473D01*
X77773996Y-167250866D01*
X78093580Y-167270000D01*
X80843266Y-167270000D01*
G37*
G36*
X80174529Y-163487166D02*
G01*
X80174529Y-164489783D01*
X81837823Y-164489783D01*
X81837823Y-167270000D01*
X82856804Y-167270000D01*
X82856804Y-164489783D01*
X84514481Y-164489783D01*
X84514481Y-163487166D01*
X80174529Y-163487166D01*
G37*
G36*
X63783369Y-31201161D02*
G01*
X64030009Y-31280776D01*
X64139759Y-31340140D01*
X64240764Y-31412636D01*
X64336531Y-31501815D01*
X64423280Y-31605267D01*
X64506515Y-31732135D01*
X64579867Y-31875575D01*
X65946162Y-34882205D01*
X66007711Y-35050000D01*
X64865387Y-35050000D01*
X64820948Y-34922455D01*
X64820446Y-34921284D01*
X64618946Y-34462107D01*
X62378995Y-34462107D01*
X62183112Y-34915666D01*
X62182703Y-34916756D01*
X62143789Y-35050000D01*
X60973377Y-35050000D01*
X61034926Y-34882205D01*
X61600499Y-33627529D01*
X62748534Y-33627529D01*
X64249406Y-33627529D01*
X63666887Y-32268562D01*
X63604848Y-32184753D01*
X63552275Y-32158771D01*
X63493475Y-32150593D01*
X63484666Y-32150757D01*
X63395390Y-32178126D01*
X63357220Y-32214067D01*
X63325436Y-32268562D01*
X62748534Y-33627529D01*
X61600499Y-33627529D01*
X62390230Y-31875575D01*
X62539421Y-31613683D01*
X62710895Y-31425546D01*
X62808849Y-31351620D01*
X62915795Y-31290571D01*
X63036590Y-31240801D01*
X63167880Y-31204748D01*
X63321293Y-31181206D01*
X63487857Y-31173377D01*
X63783369Y-31201161D01*
G37*
G36*
X65394905Y-31267166D02*
G01*
X65394905Y-32269783D01*
X67058199Y-32269783D01*
X67058199Y-35050000D01*
X68077180Y-35050000D01*
X68077180Y-32269783D01*
X69734857Y-32269783D01*
X69734857Y-31267166D01*
X65394905Y-31267166D01*
G37*
G36*
X70103907Y-31267166D02*
G01*
X70103907Y-32269783D01*
X71767201Y-32269783D01*
X71767201Y-35050000D01*
X72786182Y-35050000D01*
X72786182Y-32269783D01*
X74443859Y-32269783D01*
X74443859Y-31267166D01*
X70103907Y-31267166D01*
G37*
G36*
X75372226Y-31267166D02*
G01*
X75246711Y-31274993D01*
X75137853Y-31298516D01*
X75055510Y-31332426D01*
X74986183Y-31378692D01*
X74933115Y-31433199D01*
X74891440Y-31498595D01*
X74841827Y-31665405D01*
X74834647Y-31776901D01*
X74834647Y-34523656D01*
X74842453Y-34643478D01*
X74865828Y-34747710D01*
X74899889Y-34827807D01*
X74946319Y-34895522D01*
X75068192Y-34990103D01*
X75239399Y-35041418D01*
X75366608Y-35050000D01*
X78816294Y-35050000D01*
X78816294Y-34081332D01*
X75937892Y-34081332D01*
X75893936Y-34073517D01*
X75865018Y-34050069D01*
X75848255Y-33981681D01*
X75848255Y-33527145D01*
X78799441Y-33527145D01*
X78799441Y-32799057D01*
X75848255Y-32799057D01*
X75848255Y-32365526D01*
X75856223Y-32316880D01*
X75880732Y-32284912D01*
X75937892Y-32269783D01*
X78816294Y-32269783D01*
X78816294Y-31267166D01*
X75372226Y-31267166D01*
G37*
G36*
X83989602Y-31267166D02*
G01*
X82998464Y-31267166D01*
X82998464Y-33712770D01*
X82991137Y-33760980D01*
X82971106Y-33793591D01*
X82920062Y-33813398D01*
X82870328Y-33805704D01*
X82824808Y-33768702D01*
X80976866Y-31558304D01*
X80870269Y-31439806D01*
X80762184Y-31345945D01*
X80664912Y-31282914D01*
X80562262Y-31235527D01*
X80335664Y-31182647D01*
X80159386Y-31173377D01*
X80005292Y-31181375D01*
X79861823Y-31206100D01*
X79745601Y-31242557D01*
X79639852Y-31293557D01*
X79553901Y-31352994D01*
X79478209Y-31425556D01*
X79416544Y-31507109D01*
X79365505Y-31601473D01*
X79298165Y-31829490D01*
X79280111Y-32059979D01*
X79280111Y-35050000D01*
X80276866Y-35050000D01*
X80276866Y-32480565D01*
X80284130Y-32437052D01*
X80303711Y-32404185D01*
X80369429Y-32374112D01*
X80372121Y-32374075D01*
X80409530Y-32381891D01*
X80443730Y-32405338D01*
X80461758Y-32424633D01*
X82539288Y-34831402D01*
X82621274Y-34914311D01*
X82711341Y-34982839D01*
X82913073Y-35077629D01*
X83159926Y-35123722D01*
X83278367Y-35128157D01*
X83392536Y-35120241D01*
X83502747Y-35096088D01*
X83600347Y-35058280D01*
X83690905Y-35005253D01*
X83767634Y-34941507D01*
X83835289Y-34863636D01*
X83890245Y-34775490D01*
X83934353Y-34673679D01*
X83966033Y-34559481D01*
X83984754Y-34431293D01*
X83989602Y-34317027D01*
X83989602Y-31267166D01*
G37*
G36*
X87548953Y-35050000D02*
G01*
X87778346Y-35042113D01*
X87983693Y-35018167D01*
X88145492Y-34983364D01*
X88289645Y-34935433D01*
X88405978Y-34880125D01*
X88508480Y-34813469D01*
X88593341Y-34739483D01*
X88666403Y-34654880D01*
X88778344Y-34453272D01*
X88849402Y-34193591D01*
X88876168Y-33840753D01*
X88876168Y-31267166D01*
X87856943Y-31267166D01*
X87856943Y-33728890D01*
X87849109Y-33825767D01*
X87825536Y-33906610D01*
X87792261Y-33963983D01*
X87746995Y-34009732D01*
X87623880Y-34066303D01*
X87481786Y-34081332D01*
X85908129Y-34081332D01*
X85804835Y-34073517D01*
X85719583Y-34050069D01*
X85660225Y-34017363D01*
X85613484Y-33973073D01*
X85557693Y-33854997D01*
X85544208Y-33728890D01*
X85544208Y-31267166D01*
X84524982Y-31267166D01*
X84524982Y-33840753D01*
X84532915Y-34042123D01*
X84557179Y-34223842D01*
X84592455Y-34367361D01*
X84641304Y-34496353D01*
X84698239Y-34601802D01*
X84767273Y-34695551D01*
X84845325Y-34774793D01*
X84935197Y-34843617D01*
X85154781Y-34951873D01*
X85444622Y-35022477D01*
X85852198Y-35050000D01*
X87548953Y-35050000D01*
G37*
G36*
X62549965Y-41154508D02*
G01*
X62622857Y-41296492D01*
X62705588Y-41421836D01*
X62791832Y-41523847D01*
X62887111Y-41611671D01*
X62987933Y-41683151D01*
X63097613Y-41741639D01*
X63345738Y-41820389D01*
X63647592Y-41848157D01*
X63814858Y-41840313D01*
X63968928Y-41816668D01*
X64100127Y-41780585D01*
X64220875Y-41730705D01*
X64327415Y-41669663D01*
X64425035Y-41595643D01*
X64595552Y-41407347D01*
X64739358Y-41154508D01*
X66094662Y-38155205D01*
X66156211Y-37987166D01*
X64974564Y-37987166D01*
X64929867Y-38121500D01*
X63809770Y-40734654D01*
X63775153Y-40794916D01*
X63734803Y-40831712D01*
X63652966Y-40852135D01*
X63598541Y-40843948D01*
X63549670Y-40817900D01*
X63490789Y-40734654D01*
X62359456Y-38121500D01*
X62320377Y-37987166D01*
X61121877Y-37987166D01*
X61183426Y-38155205D01*
X62549965Y-41154508D01*
G37*
G36*
X66899930Y-37987166D02*
G01*
X66774415Y-37994993D01*
X66665557Y-38018516D01*
X66583215Y-38052426D01*
X66513888Y-38098692D01*
X66460820Y-38153199D01*
X66419145Y-38218595D01*
X66369531Y-38385405D01*
X66362352Y-38496901D01*
X66362352Y-41243656D01*
X66370157Y-41363478D01*
X66393533Y-41467710D01*
X66427593Y-41547807D01*
X66474023Y-41615522D01*
X66595897Y-41710103D01*
X66767103Y-41761418D01*
X66894313Y-41770000D01*
X70343999Y-41770000D01*
X70343999Y-40801332D01*
X67465597Y-40801332D01*
X67421640Y-40793517D01*
X67392722Y-40770069D01*
X67375959Y-40701681D01*
X67375959Y-40247145D01*
X70327146Y-40247145D01*
X70327146Y-39519057D01*
X67375959Y-39519057D01*
X67375959Y-39085526D01*
X67383927Y-39036880D01*
X67408437Y-39004912D01*
X67465597Y-38989783D01*
X70343999Y-38989783D01*
X70343999Y-37987166D01*
X66899930Y-37987166D01*
G37*
G36*
X73980163Y-37998827D02*
G01*
X74134742Y-38023488D01*
X74274219Y-38060854D01*
X74402942Y-38111584D01*
X74518036Y-38173896D01*
X74629513Y-38254060D01*
X74727669Y-38345715D01*
X74765221Y-38387509D01*
X74911152Y-38604541D01*
X75000355Y-38842657D01*
X75030286Y-39090411D01*
X75013386Y-39305100D01*
X74948843Y-39529144D01*
X74836771Y-39717086D01*
X74761655Y-39799178D01*
X74671738Y-39874187D01*
X74802280Y-39968690D01*
X74924187Y-40116082D01*
X74970083Y-40211587D01*
X75003591Y-40322217D01*
X75027743Y-40475852D01*
X75035659Y-40657718D01*
X75035659Y-41412428D01*
X75052512Y-41770000D01*
X74027669Y-41770000D01*
X74011061Y-41518674D01*
X74011061Y-40763963D01*
X73999326Y-40648274D01*
X73946198Y-40536554D01*
X73897729Y-40493224D01*
X73834504Y-40461440D01*
X73729400Y-40436415D01*
X73596581Y-40428374D01*
X71832659Y-40428374D01*
X71832659Y-41770000D01*
X70819051Y-41770000D01*
X70819051Y-39017627D01*
X71832659Y-39017627D01*
X71832659Y-39565952D01*
X73624668Y-39565952D01*
X73775764Y-39540673D01*
X73850891Y-39499280D01*
X73910188Y-39442854D01*
X73954304Y-39372450D01*
X73982973Y-39246971D01*
X73965260Y-39141437D01*
X73898953Y-39034480D01*
X73793118Y-38962538D01*
X73716386Y-38941132D01*
X73624668Y-38933607D01*
X71916678Y-38933607D01*
X71864034Y-38947847D01*
X71840488Y-38976607D01*
X71832659Y-39017627D01*
X70819051Y-39017627D01*
X70819051Y-38222372D01*
X70819142Y-38213501D01*
X70845822Y-38094046D01*
X70877285Y-38050604D01*
X70920822Y-38018429D01*
X70987590Y-37994982D01*
X71071110Y-37987166D01*
X73759002Y-37987166D01*
X73980163Y-37998827D01*
G37*
G36*
X75363922Y-37987166D02*
G01*
X75363922Y-38989783D01*
X77027216Y-38989783D01*
X77027216Y-41770000D01*
X78046197Y-41770000D01*
X78046197Y-38989783D01*
X79703873Y-38989783D01*
X79703873Y-37987166D01*
X75363922Y-37987166D01*
G37*
G36*
X80632240Y-37987166D02*
G01*
X80506725Y-37994993D01*
X80397867Y-38018516D01*
X80315525Y-38052426D01*
X80246198Y-38098692D01*
X80193130Y-38153199D01*
X80151454Y-38218595D01*
X80101841Y-38385405D01*
X80094662Y-38496901D01*
X80094662Y-41243656D01*
X80102467Y-41363478D01*
X80125842Y-41467710D01*
X80159903Y-41547807D01*
X80206333Y-41615522D01*
X80328207Y-41710103D01*
X80499413Y-41761418D01*
X80626622Y-41770000D01*
X84076308Y-41770000D01*
X84076308Y-40801332D01*
X81197906Y-40801332D01*
X81153950Y-40793517D01*
X81125032Y-40770069D01*
X81108269Y-40701681D01*
X81108269Y-40247145D01*
X84059456Y-40247145D01*
X84059456Y-39519057D01*
X81108269Y-39519057D01*
X81108269Y-39085526D01*
X81116237Y-39036880D01*
X81140747Y-39004912D01*
X81197906Y-38989783D01*
X84076308Y-38989783D01*
X84076308Y-37987166D01*
X80632240Y-37987166D01*
G37*
G36*
X87712473Y-37998827D02*
G01*
X87867052Y-38023488D01*
X88006529Y-38060854D01*
X88135252Y-38111584D01*
X88250346Y-38173896D01*
X88361822Y-38254060D01*
X88459979Y-38345715D01*
X88497531Y-38387509D01*
X88643461Y-38604541D01*
X88732664Y-38842657D01*
X88762596Y-39090411D01*
X88745695Y-39305100D01*
X88681153Y-39529144D01*
X88569081Y-39717086D01*
X88493965Y-39799178D01*
X88404047Y-39874187D01*
X88534590Y-39968690D01*
X88656497Y-40116082D01*
X88702392Y-40211587D01*
X88735901Y-40322217D01*
X88760053Y-40475852D01*
X88767969Y-40657718D01*
X88767969Y-41412428D01*
X88784822Y-41770000D01*
X87759979Y-41770000D01*
X87743371Y-41518674D01*
X87743371Y-40763963D01*
X87731636Y-40648274D01*
X87678508Y-40536554D01*
X87630039Y-40493224D01*
X87566814Y-40461440D01*
X87461710Y-40436415D01*
X87328890Y-40428374D01*
X85564969Y-40428374D01*
X85564969Y-41770000D01*
X84551361Y-41770000D01*
X84551361Y-39017627D01*
X85564969Y-39017627D01*
X85564969Y-39565952D01*
X87356978Y-39565952D01*
X87508074Y-39540673D01*
X87583201Y-39499280D01*
X87642498Y-39442854D01*
X87686614Y-39372450D01*
X87715283Y-39246971D01*
X87697570Y-39141437D01*
X87631263Y-39034480D01*
X87525428Y-38962538D01*
X87448696Y-38941132D01*
X87356978Y-38933607D01*
X85648988Y-38933607D01*
X85596343Y-38947847D01*
X85572798Y-38976607D01*
X85564969Y-39017627D01*
X84551361Y-39017627D01*
X84551361Y-38222372D01*
X84551452Y-38213501D01*
X84578132Y-38094046D01*
X84609595Y-38050604D01*
X84653132Y-38018429D01*
X84719900Y-37994982D01*
X84803419Y-37987166D01*
X87491312Y-37987166D01*
X87712473Y-37998827D01*
G37*
D14*
G36*
X71434260Y-224025210D02*
G01*
X71354065Y-224146839D01*
X70815082Y-224909365D01*
X70800336Y-224943773D01*
X70815082Y-224963221D01*
X70864316Y-224955594D01*
X70962131Y-224938252D01*
X71101128Y-224924998D01*
X71314742Y-224919196D01*
X71755844Y-224919196D01*
X72011091Y-224938841D01*
X72142759Y-224967028D01*
X72264006Y-225006686D01*
X72378331Y-225058751D01*
X72482477Y-225121477D01*
X72582494Y-225198987D01*
X72672030Y-225286782D01*
X72737639Y-225366094D01*
X72865875Y-225580791D01*
X72944554Y-225815867D01*
X72971013Y-226060848D01*
X72947806Y-226292194D01*
X72915692Y-226415232D01*
X72870808Y-226532674D01*
X72813821Y-226643627D01*
X72745547Y-226746865D01*
X72680760Y-226827237D01*
X72506085Y-226984827D01*
X72296250Y-227101879D01*
X72177069Y-227144634D01*
X72047838Y-227176139D01*
X71907121Y-227195786D01*
X71755844Y-227202501D01*
X70516098Y-227202501D01*
X70231662Y-227181826D01*
X70097253Y-227154031D01*
X69976120Y-227115489D01*
X69862280Y-227064418D01*
X69760339Y-227003175D01*
X69657088Y-226922148D01*
X69565505Y-226830213D01*
X69497718Y-226747868D01*
X69370633Y-226534609D01*
X69292926Y-226302962D01*
X69266735Y-226060848D01*
X69272474Y-225992247D01*
X70212413Y-225992247D01*
X70236443Y-226123821D01*
X70310293Y-226242290D01*
X70332980Y-226264504D01*
X70383882Y-226301290D01*
X70446202Y-226329395D01*
X70526428Y-226348307D01*
X70624023Y-226354917D01*
X71667581Y-226354917D01*
X71703864Y-226354089D01*
X71791011Y-226343852D01*
X71863118Y-226322869D01*
X71928963Y-226287810D01*
X71981311Y-226242290D01*
X72052483Y-226130635D01*
X72079191Y-225992247D01*
X72063633Y-225881684D01*
X72005674Y-225771695D01*
X71960177Y-225723109D01*
X71906648Y-225684560D01*
X71842676Y-225655540D01*
X71762439Y-225636241D01*
X71667581Y-225629577D01*
X70624023Y-225629577D01*
X70543150Y-225634320D01*
X70464403Y-225650563D01*
X70397779Y-225677489D01*
X70336042Y-225719110D01*
X70285930Y-225771695D01*
X70239866Y-225848265D01*
X70219264Y-225917605D01*
X70212413Y-225992247D01*
X69272474Y-225992247D01*
X69283988Y-225854606D01*
X69312272Y-225734631D01*
X69356218Y-225611322D01*
X69426537Y-225464979D01*
X69521480Y-225306230D01*
X70369064Y-224005148D01*
X70423133Y-223892521D01*
X71496183Y-223892521D01*
X71434260Y-224025210D01*
G37*
G36*
X73253541Y-223892521D02*
G01*
X73253541Y-224769811D01*
X75218414Y-224769811D01*
X75248219Y-224776075D01*
X75266568Y-224792569D01*
X75272269Y-224813836D01*
X75265132Y-224842801D01*
X75242524Y-224865300D01*
X75223116Y-224877309D01*
X74649939Y-225239338D01*
X74548891Y-225312924D01*
X74482456Y-225392956D01*
X74459889Y-225447595D01*
X74449680Y-225510779D01*
X74449049Y-225532979D01*
X74456784Y-225616690D01*
X74483571Y-225692267D01*
X74516676Y-225737817D01*
X74563698Y-225775181D01*
X74619979Y-225800559D01*
X74690649Y-225816491D01*
X74772396Y-225821704D01*
X75438752Y-225821704D01*
X75524511Y-225828332D01*
X75594083Y-225847371D01*
X75645015Y-225874956D01*
X75683895Y-225911087D01*
X75729245Y-226005991D01*
X75737735Y-226085853D01*
X75730581Y-226160047D01*
X75707856Y-226225776D01*
X75676446Y-226271436D01*
X75632371Y-226308474D01*
X75579005Y-226334041D01*
X75512919Y-226349876D01*
X75438752Y-226354917D01*
X73243711Y-226354917D01*
X73243711Y-227202501D01*
X75703328Y-227202501D01*
X75840942Y-227195805D01*
X75969740Y-227176288D01*
X76090146Y-227144612D01*
X76201273Y-227101716D01*
X76397195Y-226984015D01*
X76555436Y-226827710D01*
X76672229Y-226637718D01*
X76742500Y-226420777D01*
X76761846Y-226222842D01*
X76755109Y-226083661D01*
X76735305Y-225956213D01*
X76704266Y-225843821D01*
X76662111Y-225742031D01*
X76610212Y-225651874D01*
X76548580Y-225571651D01*
X76396188Y-225438889D01*
X76202149Y-225341452D01*
X75961329Y-225281551D01*
X75899516Y-225273745D01*
X75875735Y-225262473D01*
X75865761Y-225242758D01*
X75865108Y-225234422D01*
X75884769Y-225195313D01*
X76423752Y-224804005D01*
X76522234Y-224719960D01*
X76597024Y-224631780D01*
X76636424Y-224561602D01*
X76661916Y-224485255D01*
X76673582Y-224377649D01*
X76666750Y-224289087D01*
X76646278Y-224206401D01*
X76614239Y-224134393D01*
X76569961Y-224069788D01*
X76515834Y-224015568D01*
X76450436Y-223970064D01*
X76374606Y-223934492D01*
X76287783Y-223909246D01*
X76119853Y-223892521D01*
X73253541Y-223892521D01*
G37*
G36*
X77015309Y-226354917D02*
G01*
X77015309Y-227202501D01*
X79680731Y-227202501D01*
X79842095Y-227195791D01*
X79988377Y-227176177D01*
X80116466Y-227145572D01*
X80231686Y-227104271D01*
X80333611Y-227053593D01*
X80424200Y-226993823D01*
X80553105Y-226874238D01*
X80672026Y-226694130D01*
X80749101Y-226478773D01*
X80778264Y-226233977D01*
X80778358Y-226218782D01*
X80771569Y-226093472D01*
X80751398Y-225972756D01*
X80718595Y-225858905D01*
X80673291Y-225751468D01*
X80616987Y-225653244D01*
X80549202Y-225563014D01*
X80430434Y-225447707D01*
X80337589Y-225382558D01*
X80232511Y-225327613D01*
X80122339Y-225286523D01*
X79998306Y-225255656D01*
X79702079Y-225227368D01*
X79671114Y-225227156D01*
X78088359Y-225227156D01*
X78042675Y-225219735D01*
X78021846Y-225195143D01*
X78019757Y-225153425D01*
X78049036Y-224828796D01*
X78060561Y-224793563D01*
X78085278Y-224774084D01*
X78112722Y-224769811D01*
X80655901Y-224769811D01*
X80655901Y-223892521D01*
X77495521Y-223892521D01*
X77409583Y-223899344D01*
X77335707Y-223919751D01*
X77280100Y-223949417D01*
X77234556Y-223989798D01*
X77175920Y-224097543D01*
X77157427Y-224211167D01*
X77083910Y-225526140D01*
X77086882Y-225606273D01*
X77103311Y-225673982D01*
X77129672Y-225725601D01*
X77166123Y-225767033D01*
X77266392Y-225819962D01*
X77382680Y-225834741D01*
X79577935Y-225834741D01*
X79670726Y-225841579D01*
X79744057Y-225862096D01*
X79813019Y-225907830D01*
X79868531Y-226000813D01*
X79881620Y-226092478D01*
X79874910Y-226159596D01*
X79855293Y-226217666D01*
X79813019Y-226277125D01*
X79767719Y-226312107D01*
X79709955Y-226337379D01*
X79577935Y-226354917D01*
X77015309Y-226354917D01*
G37*
D15*
G36*
X52841000Y-151739181D02*
G01*
X52941393Y-151745892D01*
X53035740Y-151759784D01*
X53124809Y-151780683D01*
X53208122Y-151808169D01*
X53287794Y-151842845D01*
X53361807Y-151883713D01*
X53433532Y-151932792D01*
X53499494Y-151987833D01*
X53569012Y-152059281D01*
X53670211Y-152198198D01*
X53744340Y-152351781D01*
X53789488Y-152515176D01*
X53804675Y-152684413D01*
X53804644Y-152692301D01*
X53799938Y-152781359D01*
X53787478Y-152867822D01*
X53767206Y-152952793D01*
X53739654Y-153034326D01*
X53704736Y-153112971D01*
X53663141Y-153187313D01*
X53615060Y-153257226D01*
X53561043Y-153322009D01*
X53470103Y-153409144D01*
X53334273Y-153502550D01*
X53259294Y-153540063D01*
X53178979Y-153571466D01*
X53093129Y-153596487D01*
X53001743Y-153614783D01*
X52903548Y-153626144D01*
X52799494Y-153630000D01*
X52401866Y-153630000D01*
X52258950Y-153622602D01*
X52164293Y-153608653D01*
X52075204Y-153587823D01*
X51990958Y-153560170D01*
X51912179Y-153526135D01*
X51837135Y-153485027D01*
X51767613Y-153437887D01*
X51701094Y-153382846D01*
X51640317Y-153322009D01*
X51629230Y-153309677D01*
X51529903Y-153173674D01*
X51456725Y-153021260D01*
X51411865Y-152856905D01*
X51396921Y-152687100D01*
X51903489Y-152687100D01*
X51913337Y-152779528D01*
X51929868Y-152836916D01*
X51953677Y-152890905D01*
X51984317Y-152941015D01*
X52021092Y-152986297D01*
X52047032Y-153012471D01*
X52137910Y-153075764D01*
X52192437Y-153099210D01*
X52253540Y-153116621D01*
X52323799Y-153127793D01*
X52401866Y-153131622D01*
X52799494Y-153131622D01*
X52845615Y-153130330D01*
X52916808Y-153122582D01*
X52980913Y-153108210D01*
X53038903Y-153087383D01*
X53090427Y-153060665D01*
X53138546Y-153026295D01*
X53180268Y-152986297D01*
X53238636Y-152907330D01*
X53282908Y-152800684D01*
X53297871Y-152687100D01*
X53297792Y-152678682D01*
X53292565Y-152618558D01*
X53279525Y-152560570D01*
X53258840Y-152504675D01*
X53231166Y-152452450D01*
X53157920Y-152362868D01*
X53152322Y-152357747D01*
X53061788Y-152294790D01*
X53009039Y-152271905D01*
X52949397Y-152254813D01*
X52879199Y-152243710D01*
X52799494Y-152239891D01*
X52401866Y-152239891D01*
X52263488Y-152252381D01*
X52201377Y-152268752D01*
X52146604Y-152291226D01*
X52091648Y-152323763D01*
X52043440Y-152362868D01*
X52034344Y-152371628D01*
X51995652Y-152415570D01*
X51963016Y-152464483D01*
X51918515Y-152572380D01*
X51903489Y-152687100D01*
X51396921Y-152687100D01*
X51396685Y-152684413D01*
X51400832Y-152595581D01*
X51413003Y-152509061D01*
X51432825Y-152425118D01*
X51460533Y-152342581D01*
X51495419Y-152263541D01*
X51537606Y-152187571D01*
X51586328Y-152116029D01*
X51701866Y-151987833D01*
X51735257Y-151958664D01*
X51870788Y-151865355D01*
X51945028Y-151828084D01*
X52024695Y-151796811D01*
X52109646Y-151771962D01*
X52200351Y-151753747D01*
X52297987Y-151742432D01*
X52401866Y-151738583D01*
X52799494Y-151738583D01*
X52841000Y-151739181D01*
G37*
G36*
X55547958Y-153630000D02*
G01*
X55662655Y-153626056D01*
X55765328Y-153614083D01*
X55846228Y-153596682D01*
X55918305Y-153572716D01*
X55976471Y-153545062D01*
X56027722Y-153511734D01*
X56070153Y-153474741D01*
X56106683Y-153432440D01*
X56162654Y-153331636D01*
X56198183Y-153201795D01*
X56211566Y-153025376D01*
X56211566Y-151738583D01*
X55701954Y-151738583D01*
X55701954Y-152969445D01*
X55698037Y-153017883D01*
X55686250Y-153058305D01*
X55669613Y-153086991D01*
X55646980Y-153109866D01*
X55585422Y-153138151D01*
X55514375Y-153145666D01*
X54727547Y-153145666D01*
X54675900Y-153141758D01*
X54633273Y-153130034D01*
X54603594Y-153113681D01*
X54580224Y-153091536D01*
X54552329Y-153032498D01*
X54545586Y-152969445D01*
X54545586Y-151738583D01*
X54035973Y-151738583D01*
X54035973Y-153025376D01*
X54039939Y-153126061D01*
X54052072Y-153216921D01*
X54069710Y-153288680D01*
X54094134Y-153353176D01*
X54122602Y-153405901D01*
X54157119Y-153452775D01*
X54196145Y-153492396D01*
X54241081Y-153526808D01*
X54350873Y-153580936D01*
X54495793Y-153616238D01*
X54699581Y-153630000D01*
X55547958Y-153630000D01*
G37*
G36*
X56395847Y-151738583D02*
G01*
X56395847Y-152239891D01*
X57227494Y-152239891D01*
X57227494Y-153630000D01*
X57736985Y-153630000D01*
X57736985Y-152239891D01*
X58565823Y-152239891D01*
X58565823Y-151738583D01*
X56395847Y-151738583D01*
G37*
G36*
X60304351Y-151749453D02*
G01*
X60386016Y-151764902D01*
X60460388Y-151786626D01*
X60529867Y-151815156D01*
X60592796Y-151849570D01*
X60654560Y-151893281D01*
X60710031Y-151943014D01*
X60784863Y-152031132D01*
X60859281Y-152161146D01*
X60904759Y-152301712D01*
X60919958Y-152446032D01*
X60918906Y-152483887D01*
X60910662Y-152558421D01*
X60894567Y-152631076D01*
X60870412Y-152702888D01*
X60838906Y-152771620D01*
X60800166Y-152837193D01*
X60754850Y-152898492D01*
X60716246Y-152941013D01*
X60607694Y-153030127D01*
X60546289Y-153065895D01*
X60478935Y-153096097D01*
X60405441Y-153120306D01*
X60325447Y-153138165D01*
X60237156Y-153149399D01*
X60141556Y-153153237D01*
X59270830Y-153153237D01*
X59270830Y-153630000D01*
X58764026Y-153630000D01*
X58764026Y-152278848D01*
X59270830Y-152278848D01*
X59270830Y-152688443D01*
X60152791Y-152688443D01*
X60222416Y-152683348D01*
X60268373Y-152672341D01*
X60306932Y-152655599D01*
X60342464Y-152630522D01*
X60371144Y-152599295D01*
X60401265Y-152546432D01*
X60412171Y-152507970D01*
X60415963Y-152465572D01*
X60406720Y-152397764D01*
X60391106Y-152358598D01*
X60368335Y-152323422D01*
X60336325Y-152292248D01*
X60302932Y-152270819D01*
X60262683Y-152254504D01*
X60212464Y-152243672D01*
X60152791Y-152239891D01*
X59307222Y-152239891D01*
X59285231Y-152245245D01*
X59274584Y-152257832D01*
X59270830Y-152278848D01*
X58764026Y-152278848D01*
X58764026Y-151856186D01*
X58777154Y-151792338D01*
X58792713Y-151770423D01*
X58814191Y-151754214D01*
X58846760Y-151742491D01*
X58887247Y-151738583D01*
X60141556Y-151738583D01*
X60304351Y-151749453D01*
G37*
G36*
X62625139Y-153630000D02*
G01*
X62739836Y-153626056D01*
X62842509Y-153614083D01*
X62923409Y-153596682D01*
X62995485Y-153572716D01*
X63053652Y-153545062D01*
X63104903Y-153511734D01*
X63147333Y-153474741D01*
X63183864Y-153432440D01*
X63239835Y-153331636D01*
X63275364Y-153201795D01*
X63288747Y-153025376D01*
X63288747Y-151738583D01*
X62779134Y-151738583D01*
X62779134Y-152969445D01*
X62775217Y-153017883D01*
X62763431Y-153058305D01*
X62746793Y-153086991D01*
X62724160Y-153109866D01*
X62662603Y-153138151D01*
X62591556Y-153145666D01*
X61804727Y-153145666D01*
X61753080Y-153141758D01*
X61710454Y-153130034D01*
X61680775Y-153113681D01*
X61657405Y-153091536D01*
X61629509Y-153032498D01*
X61622767Y-152969445D01*
X61622767Y-151738583D01*
X61113154Y-151738583D01*
X61113154Y-153025376D01*
X61117120Y-153126061D01*
X61129252Y-153216921D01*
X61146890Y-153288680D01*
X61171315Y-153353176D01*
X61199782Y-153405901D01*
X61234299Y-153452775D01*
X61273325Y-153492396D01*
X61318261Y-153526808D01*
X61428053Y-153580936D01*
X61572974Y-153616238D01*
X61776762Y-153630000D01*
X62625139Y-153630000D01*
G37*
G36*
X63473028Y-151738583D02*
G01*
X63473028Y-152239891D01*
X64304675Y-152239891D01*
X64304675Y-153630000D01*
X64814166Y-153630000D01*
X64814166Y-152239891D01*
X65643004Y-152239891D01*
X65643004Y-151738583D01*
X63473028Y-151738583D01*
G37*
G36*
X53392515Y-56938583D02*
G01*
X53392515Y-58830000D01*
X53902128Y-58830000D01*
X53902128Y-56938583D01*
X53392515Y-56938583D01*
G37*
G36*
X56534089Y-56938583D02*
G01*
X56038520Y-56938583D01*
X56038520Y-58161385D01*
X56034857Y-58185490D01*
X56024841Y-58201795D01*
X55999319Y-58211699D01*
X55974452Y-58207852D01*
X55951692Y-58189351D01*
X55027721Y-57084152D01*
X54974423Y-57024903D01*
X54920380Y-56977972D01*
X54871744Y-56946457D01*
X54820419Y-56922763D01*
X54707120Y-56896323D01*
X54618981Y-56891688D01*
X54541934Y-56895687D01*
X54470200Y-56908050D01*
X54412089Y-56926278D01*
X54359214Y-56951778D01*
X54316239Y-56981497D01*
X54278392Y-57017778D01*
X54247560Y-57058554D01*
X54222041Y-57105736D01*
X54188371Y-57219745D01*
X54179344Y-57334989D01*
X54179344Y-58830000D01*
X54677721Y-58830000D01*
X54677721Y-57545282D01*
X54681353Y-57523526D01*
X54691144Y-57507092D01*
X54724003Y-57492056D01*
X54725349Y-57492037D01*
X54744053Y-57495945D01*
X54761153Y-57507669D01*
X54770167Y-57517316D01*
X55808932Y-58720701D01*
X55849925Y-58762155D01*
X55894959Y-58796419D01*
X55995825Y-58843814D01*
X56119251Y-58866861D01*
X56178471Y-58869078D01*
X56235556Y-58865120D01*
X56290662Y-58853044D01*
X56339462Y-58834140D01*
X56384741Y-58807626D01*
X56423105Y-58775753D01*
X56456932Y-58736818D01*
X56484411Y-58692745D01*
X56506465Y-58641839D01*
X56522304Y-58584740D01*
X56531665Y-58520646D01*
X56534089Y-58463513D01*
X56534089Y-56938583D01*
G37*
G36*
X58353339Y-56949453D02*
G01*
X58435004Y-56964902D01*
X58509376Y-56986626D01*
X58578855Y-57015156D01*
X58641785Y-57049570D01*
X58703549Y-57093281D01*
X58759019Y-57143014D01*
X58833852Y-57231132D01*
X58908270Y-57361146D01*
X58953748Y-57501712D01*
X58968946Y-57646032D01*
X58967894Y-57683887D01*
X58959650Y-57758421D01*
X58943556Y-57831076D01*
X58919400Y-57902888D01*
X58887895Y-57971620D01*
X58849155Y-58037193D01*
X58803838Y-58098492D01*
X58765235Y-58141013D01*
X58656682Y-58230127D01*
X58595277Y-58265895D01*
X58527923Y-58296097D01*
X58454430Y-58320306D01*
X58374435Y-58338165D01*
X58286145Y-58349399D01*
X58190544Y-58353237D01*
X57319818Y-58353237D01*
X57319818Y-58830000D01*
X56813014Y-58830000D01*
X56813014Y-57478848D01*
X57319818Y-57478848D01*
X57319818Y-57888443D01*
X58201779Y-57888443D01*
X58271404Y-57883348D01*
X58317361Y-57872341D01*
X58355920Y-57855599D01*
X58391452Y-57830522D01*
X58420132Y-57799295D01*
X58450253Y-57746432D01*
X58461160Y-57707970D01*
X58464951Y-57665572D01*
X58455708Y-57597764D01*
X58440094Y-57558598D01*
X58417324Y-57523422D01*
X58385313Y-57492248D01*
X58351921Y-57470819D01*
X58311672Y-57454504D01*
X58261452Y-57443672D01*
X58201779Y-57439891D01*
X57356210Y-57439891D01*
X57334220Y-57445245D01*
X57323572Y-57457832D01*
X57319818Y-57478848D01*
X56813014Y-57478848D01*
X56813014Y-57056186D01*
X56826142Y-56992338D01*
X56841701Y-56970423D01*
X56863179Y-56954214D01*
X56895748Y-56942491D01*
X56936235Y-56938583D01*
X58190544Y-56938583D01*
X58353339Y-56949453D01*
G37*
G36*
X60674127Y-58830000D02*
G01*
X60788824Y-58826056D01*
X60891497Y-58814083D01*
X60972397Y-58796682D01*
X61044474Y-58772716D01*
X61102640Y-58745062D01*
X61153891Y-58711734D01*
X61196322Y-58674741D01*
X61232852Y-58632440D01*
X61288823Y-58531636D01*
X61324352Y-58401795D01*
X61337735Y-58225376D01*
X61337735Y-56938583D01*
X60828123Y-56938583D01*
X60828123Y-58169445D01*
X60824206Y-58217883D01*
X60812419Y-58258305D01*
X60795782Y-58286991D01*
X60773149Y-58309866D01*
X60711591Y-58338151D01*
X60640544Y-58345666D01*
X59853716Y-58345666D01*
X59802069Y-58341758D01*
X59759442Y-58330034D01*
X59729763Y-58313681D01*
X59706393Y-58291536D01*
X59678498Y-58232498D01*
X59671755Y-58169445D01*
X59671755Y-56938583D01*
X59162142Y-56938583D01*
X59162142Y-58225376D01*
X59166108Y-58326061D01*
X59178241Y-58416921D01*
X59195879Y-58488680D01*
X59220303Y-58553176D01*
X59248771Y-58605901D01*
X59283288Y-58652775D01*
X59322314Y-58692396D01*
X59367250Y-58726808D01*
X59477042Y-58780936D01*
X59621962Y-58816238D01*
X59825750Y-58830000D01*
X60674127Y-58830000D01*
G37*
G36*
X61522016Y-56938583D02*
G01*
X61522016Y-57439891D01*
X62353663Y-57439891D01*
X62353663Y-58830000D01*
X62863154Y-58830000D01*
X62863154Y-57439891D01*
X63691992Y-57439891D01*
X63691992Y-56938583D01*
X61522016Y-56938583D01*
G37*
G36*
X53392515Y-95188583D02*
G01*
X53392515Y-97080000D01*
X53902128Y-97080000D01*
X53902128Y-95188583D01*
X53392515Y-95188583D01*
G37*
G36*
X56534089Y-95188583D02*
G01*
X56038520Y-95188583D01*
X56038520Y-96411385D01*
X56034857Y-96435490D01*
X56024841Y-96451795D01*
X55999319Y-96461699D01*
X55974452Y-96457852D01*
X55951692Y-96439351D01*
X55027721Y-95334152D01*
X54974423Y-95274903D01*
X54920380Y-95227972D01*
X54871744Y-95196457D01*
X54820419Y-95172763D01*
X54707120Y-95146323D01*
X54618981Y-95141688D01*
X54541934Y-95145687D01*
X54470200Y-95158050D01*
X54412089Y-95176278D01*
X54359214Y-95201778D01*
X54316239Y-95231497D01*
X54278392Y-95267778D01*
X54247560Y-95308554D01*
X54222041Y-95355736D01*
X54188371Y-95469745D01*
X54179344Y-95584989D01*
X54179344Y-97080000D01*
X54677721Y-97080000D01*
X54677721Y-95795282D01*
X54681353Y-95773526D01*
X54691144Y-95757092D01*
X54724003Y-95742056D01*
X54725349Y-95742037D01*
X54744053Y-95745945D01*
X54761153Y-95757669D01*
X54770167Y-95767316D01*
X55808932Y-96970701D01*
X55849925Y-97012155D01*
X55894959Y-97046419D01*
X55995825Y-97093814D01*
X56119251Y-97116861D01*
X56178471Y-97119078D01*
X56235556Y-97115120D01*
X56290662Y-97103044D01*
X56339462Y-97084140D01*
X56384741Y-97057626D01*
X56423105Y-97025753D01*
X56456932Y-96986818D01*
X56484411Y-96942745D01*
X56506465Y-96891839D01*
X56522304Y-96834740D01*
X56531665Y-96770646D01*
X56534089Y-96713513D01*
X56534089Y-95188583D01*
G37*
G36*
X58353339Y-95199453D02*
G01*
X58435004Y-95214902D01*
X58509376Y-95236626D01*
X58578855Y-95265156D01*
X58641785Y-95299570D01*
X58703549Y-95343281D01*
X58759019Y-95393014D01*
X58833852Y-95481132D01*
X58908270Y-95611146D01*
X58953748Y-95751712D01*
X58968946Y-95896032D01*
X58967894Y-95933887D01*
X58959650Y-96008421D01*
X58943556Y-96081076D01*
X58919400Y-96152888D01*
X58887895Y-96221620D01*
X58849155Y-96287193D01*
X58803838Y-96348492D01*
X58765235Y-96391013D01*
X58656682Y-96480127D01*
X58595277Y-96515895D01*
X58527923Y-96546097D01*
X58454430Y-96570306D01*
X58374435Y-96588165D01*
X58286145Y-96599399D01*
X58190544Y-96603237D01*
X57319818Y-96603237D01*
X57319818Y-97080000D01*
X56813014Y-97080000D01*
X56813014Y-95728848D01*
X57319818Y-95728848D01*
X57319818Y-96138443D01*
X58201779Y-96138443D01*
X58271404Y-96133348D01*
X58317361Y-96122341D01*
X58355920Y-96105599D01*
X58391452Y-96080522D01*
X58420132Y-96049295D01*
X58450253Y-95996432D01*
X58461160Y-95957970D01*
X58464951Y-95915572D01*
X58455708Y-95847764D01*
X58440094Y-95808598D01*
X58417324Y-95773422D01*
X58385313Y-95742248D01*
X58351921Y-95720819D01*
X58311672Y-95704504D01*
X58261452Y-95693672D01*
X58201779Y-95689891D01*
X57356210Y-95689891D01*
X57334220Y-95695245D01*
X57323572Y-95707832D01*
X57319818Y-95728848D01*
X56813014Y-95728848D01*
X56813014Y-95306186D01*
X56826142Y-95242338D01*
X56841701Y-95220423D01*
X56863179Y-95204214D01*
X56895748Y-95192491D01*
X56936235Y-95188583D01*
X58190544Y-95188583D01*
X58353339Y-95199453D01*
G37*
G36*
X60674127Y-97080000D02*
G01*
X60788824Y-97076056D01*
X60891497Y-97064083D01*
X60972397Y-97046682D01*
X61044474Y-97022716D01*
X61102640Y-96995062D01*
X61153891Y-96961734D01*
X61196322Y-96924741D01*
X61232852Y-96882440D01*
X61288823Y-96781636D01*
X61324352Y-96651795D01*
X61337735Y-96475376D01*
X61337735Y-95188583D01*
X60828123Y-95188583D01*
X60828123Y-96419445D01*
X60824206Y-96467883D01*
X60812419Y-96508305D01*
X60795782Y-96536991D01*
X60773149Y-96559866D01*
X60711591Y-96588151D01*
X60640544Y-96595666D01*
X59853716Y-96595666D01*
X59802069Y-96591758D01*
X59759442Y-96580034D01*
X59729763Y-96563681D01*
X59706393Y-96541536D01*
X59678498Y-96482498D01*
X59671755Y-96419445D01*
X59671755Y-95188583D01*
X59162142Y-95188583D01*
X59162142Y-96475376D01*
X59166108Y-96576061D01*
X59178241Y-96666921D01*
X59195879Y-96738680D01*
X59220303Y-96803176D01*
X59248771Y-96855901D01*
X59283288Y-96902775D01*
X59322314Y-96942396D01*
X59367250Y-96976808D01*
X59477042Y-97030936D01*
X59621962Y-97066238D01*
X59825750Y-97080000D01*
X60674127Y-97080000D01*
G37*
G36*
X61522016Y-95188583D02*
G01*
X61522016Y-95689891D01*
X62353663Y-95689891D01*
X62353663Y-97080000D01*
X62863154Y-97080000D01*
X62863154Y-95689891D01*
X63691992Y-95689891D01*
X63691992Y-95188583D01*
X61522016Y-95188583D01*
G37*
G36*
X74099291Y-111805580D02*
G01*
X74222611Y-111845388D01*
X74277486Y-111875070D01*
X74327989Y-111911318D01*
X74375872Y-111955907D01*
X74419247Y-112007633D01*
X74460864Y-112071067D01*
X74497540Y-112142787D01*
X75180688Y-113646102D01*
X75211462Y-113730000D01*
X74640300Y-113730000D01*
X74618081Y-113666227D01*
X74617830Y-113665642D01*
X74517080Y-113436053D01*
X73397104Y-113436053D01*
X73299163Y-113662833D01*
X73298958Y-113663378D01*
X73279501Y-113730000D01*
X72694295Y-113730000D01*
X72725070Y-113646102D01*
X73007856Y-113018764D01*
X73581874Y-113018764D01*
X74332310Y-113018764D01*
X74041050Y-112339281D01*
X74010031Y-112297376D01*
X73983744Y-112284385D01*
X73954344Y-112280296D01*
X73949940Y-112280378D01*
X73905302Y-112294063D01*
X73886217Y-112312033D01*
X73870325Y-112339281D01*
X73581874Y-113018764D01*
X73007856Y-113018764D01*
X73402722Y-112142787D01*
X73477317Y-112011841D01*
X73563054Y-111917773D01*
X73612031Y-111880810D01*
X73665504Y-111850285D01*
X73725902Y-111825400D01*
X73791547Y-111807374D01*
X73868253Y-111795603D01*
X73951535Y-111791688D01*
X74099291Y-111805580D01*
G37*
G36*
X74905059Y-111838583D02*
G01*
X74905059Y-112339891D01*
X75736706Y-112339891D01*
X75736706Y-113730000D01*
X76246197Y-113730000D01*
X76246197Y-112339891D01*
X77075035Y-112339891D01*
X77075035Y-111838583D01*
X74905059Y-111838583D01*
G37*
G36*
X77259560Y-111838583D02*
G01*
X77259560Y-112339891D01*
X78091207Y-112339891D01*
X78091207Y-113730000D01*
X78600698Y-113730000D01*
X78600698Y-112339891D01*
X79429536Y-112339891D01*
X79429536Y-111838583D01*
X77259560Y-111838583D01*
G37*
G36*
X79893720Y-111838583D02*
G01*
X79830962Y-111842496D01*
X79776533Y-111854258D01*
X79735362Y-111871213D01*
X79700698Y-111894346D01*
X79674164Y-111921599D01*
X79653327Y-111954297D01*
X79628520Y-112037702D01*
X79624930Y-112093450D01*
X79624930Y-113466828D01*
X79628833Y-113526739D01*
X79640521Y-113578855D01*
X79657551Y-113618903D01*
X79680766Y-113652761D01*
X79741703Y-113700051D01*
X79827306Y-113725709D01*
X79890911Y-113730000D01*
X81615754Y-113730000D01*
X81615754Y-113245666D01*
X80176553Y-113245666D01*
X80154575Y-113241758D01*
X80140116Y-113230034D01*
X80131734Y-113195840D01*
X80131734Y-112968572D01*
X81607327Y-112968572D01*
X81607327Y-112604528D01*
X80131734Y-112604528D01*
X80131734Y-112387763D01*
X80135718Y-112363440D01*
X80147973Y-112347456D01*
X80176553Y-112339891D01*
X81615754Y-112339891D01*
X81615754Y-111838583D01*
X79893720Y-111838583D01*
G37*
G36*
X84202408Y-111838583D02*
G01*
X83706839Y-111838583D01*
X83706839Y-113061385D01*
X83703175Y-113085490D01*
X83693160Y-113101795D01*
X83667638Y-113111699D01*
X83642771Y-113107852D01*
X83620011Y-113089351D01*
X82696040Y-111984152D01*
X82642741Y-111924903D01*
X82588699Y-111877972D01*
X82540063Y-111846457D01*
X82488738Y-111822763D01*
X82375439Y-111796323D01*
X82287300Y-111791688D01*
X82210253Y-111795687D01*
X82138518Y-111808050D01*
X82080407Y-111826278D01*
X82027533Y-111851778D01*
X81984557Y-111881497D01*
X81946711Y-111917778D01*
X81915879Y-111958554D01*
X81890359Y-112005736D01*
X81856689Y-112119745D01*
X81847662Y-112234989D01*
X81847662Y-113730000D01*
X82346040Y-113730000D01*
X82346040Y-112445282D01*
X82349672Y-112423526D01*
X82359462Y-112407092D01*
X82392321Y-112392056D01*
X82393667Y-112392037D01*
X82412372Y-112395945D01*
X82429472Y-112407669D01*
X82438486Y-112417316D01*
X83477251Y-113620701D01*
X83518244Y-113662155D01*
X83563277Y-113696419D01*
X83664143Y-113743814D01*
X83787570Y-113766861D01*
X83846790Y-113769078D01*
X83903875Y-113765120D01*
X83958980Y-113753044D01*
X84007780Y-113734140D01*
X84053059Y-113707626D01*
X84091424Y-113675753D01*
X84125251Y-113636818D01*
X84152729Y-113592745D01*
X84174783Y-113541839D01*
X84190623Y-113484740D01*
X84199984Y-113420646D01*
X84202408Y-113363513D01*
X84202408Y-111838583D01*
G37*
G36*
X85982083Y-113730000D02*
G01*
X86096780Y-113726056D01*
X86199453Y-113714083D01*
X86280353Y-113696682D01*
X86352429Y-113672716D01*
X86410596Y-113645062D01*
X86461847Y-113611734D01*
X86504277Y-113574741D01*
X86540808Y-113532440D01*
X86596779Y-113431636D01*
X86632308Y-113301795D01*
X86645691Y-113125376D01*
X86645691Y-111838583D01*
X86136078Y-111838583D01*
X86136078Y-113069445D01*
X86132161Y-113117883D01*
X86120375Y-113158305D01*
X86103737Y-113186991D01*
X86081104Y-113209866D01*
X86019547Y-113238151D01*
X85948500Y-113245666D01*
X85161671Y-113245666D01*
X85110024Y-113241758D01*
X85067398Y-113230034D01*
X85037719Y-113213681D01*
X85014349Y-113191536D01*
X84986453Y-113132498D01*
X84979711Y-113069445D01*
X84979711Y-111838583D01*
X84470098Y-111838583D01*
X84470098Y-113125376D01*
X84474064Y-113226061D01*
X84486196Y-113316921D01*
X84503834Y-113388680D01*
X84528259Y-113453176D01*
X84556726Y-113505901D01*
X84591243Y-113552775D01*
X84630269Y-113592396D01*
X84675205Y-113626808D01*
X84784997Y-113680936D01*
X84929918Y-113716238D01*
X85133706Y-113730000D01*
X85982083Y-113730000D01*
G37*
G36*
X88099291Y-111805580D02*
G01*
X88222611Y-111845388D01*
X88277486Y-111875070D01*
X88327989Y-111911318D01*
X88375872Y-111955907D01*
X88419247Y-112007633D01*
X88460864Y-112071067D01*
X88497540Y-112142787D01*
X89180688Y-113646102D01*
X89211462Y-113730000D01*
X88640300Y-113730000D01*
X88618081Y-113666227D01*
X88617830Y-113665642D01*
X88517080Y-113436053D01*
X87397104Y-113436053D01*
X87299163Y-113662833D01*
X87298958Y-113663378D01*
X87279501Y-113730000D01*
X86694295Y-113730000D01*
X86725070Y-113646102D01*
X87007856Y-113018764D01*
X87581874Y-113018764D01*
X88332310Y-113018764D01*
X88041050Y-112339281D01*
X88010031Y-112297376D01*
X87983744Y-112284385D01*
X87954344Y-112280296D01*
X87949940Y-112280378D01*
X87905302Y-112294063D01*
X87886217Y-112312033D01*
X87870325Y-112339281D01*
X87581874Y-113018764D01*
X87007856Y-113018764D01*
X87402722Y-112142787D01*
X87477317Y-112011841D01*
X87563054Y-111917773D01*
X87612031Y-111880810D01*
X87665504Y-111850285D01*
X87725902Y-111825400D01*
X87791547Y-111807374D01*
X87868253Y-111795603D01*
X87951535Y-111791688D01*
X88099291Y-111805580D01*
G37*
G36*
X88905059Y-111838583D02*
G01*
X88905059Y-112339891D01*
X89736706Y-112339891D01*
X89736706Y-113730000D01*
X90246197Y-113730000D01*
X90246197Y-112339891D01*
X91075035Y-112339891D01*
X91075035Y-111838583D01*
X88905059Y-111838583D01*
G37*
G36*
X91539219Y-111838583D02*
G01*
X91476461Y-111842496D01*
X91422032Y-111854258D01*
X91380861Y-111871213D01*
X91346197Y-111894346D01*
X91319663Y-111921599D01*
X91298826Y-111954297D01*
X91274019Y-112037702D01*
X91270429Y-112093450D01*
X91270429Y-113466828D01*
X91274332Y-113526739D01*
X91286020Y-113578855D01*
X91303050Y-113618903D01*
X91326265Y-113652761D01*
X91387202Y-113700051D01*
X91472805Y-113725709D01*
X91536410Y-113730000D01*
X93261253Y-113730000D01*
X93261253Y-113245666D01*
X91822052Y-113245666D01*
X91800074Y-113241758D01*
X91785614Y-113230034D01*
X91777233Y-113195840D01*
X91777233Y-112968572D01*
X93252826Y-112968572D01*
X93252826Y-112604528D01*
X91777233Y-112604528D01*
X91777233Y-112387763D01*
X91781217Y-112363440D01*
X91793472Y-112347456D01*
X91822052Y-112339891D01*
X93261253Y-112339891D01*
X93261253Y-111838583D01*
X91539219Y-111838583D01*
G37*
G36*
X53392515Y-133438583D02*
G01*
X53392515Y-135330000D01*
X53902128Y-135330000D01*
X53902128Y-133438583D01*
X53392515Y-133438583D01*
G37*
G36*
X56534089Y-133438583D02*
G01*
X56038520Y-133438583D01*
X56038520Y-134661385D01*
X56034857Y-134685490D01*
X56024841Y-134701795D01*
X55999319Y-134711699D01*
X55974452Y-134707852D01*
X55951692Y-134689351D01*
X55027721Y-133584152D01*
X54974423Y-133524903D01*
X54920380Y-133477972D01*
X54871744Y-133446457D01*
X54820419Y-133422763D01*
X54707120Y-133396323D01*
X54618981Y-133391688D01*
X54541934Y-133395687D01*
X54470200Y-133408050D01*
X54412089Y-133426278D01*
X54359214Y-133451778D01*
X54316239Y-133481497D01*
X54278392Y-133517778D01*
X54247560Y-133558554D01*
X54222041Y-133605736D01*
X54188371Y-133719745D01*
X54179344Y-133834989D01*
X54179344Y-135330000D01*
X54677721Y-135330000D01*
X54677721Y-134045282D01*
X54681353Y-134023526D01*
X54691144Y-134007092D01*
X54724003Y-133992056D01*
X54725349Y-133992037D01*
X54744053Y-133995945D01*
X54761153Y-134007669D01*
X54770167Y-134017316D01*
X55808932Y-135220701D01*
X55849925Y-135262155D01*
X55894959Y-135296419D01*
X55995825Y-135343814D01*
X56119251Y-135366861D01*
X56178471Y-135369078D01*
X56235556Y-135365120D01*
X56290662Y-135353044D01*
X56339462Y-135334140D01*
X56384741Y-135307626D01*
X56423105Y-135275753D01*
X56456932Y-135236818D01*
X56484411Y-135192745D01*
X56506465Y-135141839D01*
X56522304Y-135084740D01*
X56531665Y-135020646D01*
X56534089Y-134963513D01*
X56534089Y-133438583D01*
G37*
G36*
X58353339Y-133449453D02*
G01*
X58435004Y-133464902D01*
X58509376Y-133486626D01*
X58578855Y-133515156D01*
X58641785Y-133549570D01*
X58703549Y-133593281D01*
X58759019Y-133643014D01*
X58833852Y-133731132D01*
X58908270Y-133861146D01*
X58953748Y-134001712D01*
X58968946Y-134146032D01*
X58967894Y-134183887D01*
X58959650Y-134258421D01*
X58943556Y-134331076D01*
X58919400Y-134402888D01*
X58887895Y-134471620D01*
X58849155Y-134537193D01*
X58803838Y-134598492D01*
X58765235Y-134641013D01*
X58656682Y-134730127D01*
X58595277Y-134765895D01*
X58527923Y-134796097D01*
X58454430Y-134820306D01*
X58374435Y-134838165D01*
X58286145Y-134849399D01*
X58190544Y-134853237D01*
X57319818Y-134853237D01*
X57319818Y-135330000D01*
X56813014Y-135330000D01*
X56813014Y-133978848D01*
X57319818Y-133978848D01*
X57319818Y-134388443D01*
X58201779Y-134388443D01*
X58271404Y-134383348D01*
X58317361Y-134372341D01*
X58355920Y-134355599D01*
X58391452Y-134330522D01*
X58420132Y-134299295D01*
X58450253Y-134246432D01*
X58461160Y-134207970D01*
X58464951Y-134165572D01*
X58455708Y-134097764D01*
X58440094Y-134058598D01*
X58417324Y-134023422D01*
X58385313Y-133992248D01*
X58351921Y-133970819D01*
X58311672Y-133954504D01*
X58261452Y-133943672D01*
X58201779Y-133939891D01*
X57356210Y-133939891D01*
X57334220Y-133945245D01*
X57323572Y-133957832D01*
X57319818Y-133978848D01*
X56813014Y-133978848D01*
X56813014Y-133556186D01*
X56826142Y-133492338D01*
X56841701Y-133470423D01*
X56863179Y-133454214D01*
X56895748Y-133442491D01*
X56936235Y-133438583D01*
X58190544Y-133438583D01*
X58353339Y-133449453D01*
G37*
G36*
X60674127Y-135330000D02*
G01*
X60788824Y-135326056D01*
X60891497Y-135314083D01*
X60972397Y-135296682D01*
X61044474Y-135272716D01*
X61102640Y-135245062D01*
X61153891Y-135211734D01*
X61196322Y-135174741D01*
X61232852Y-135132440D01*
X61288823Y-135031636D01*
X61324352Y-134901795D01*
X61337735Y-134725376D01*
X61337735Y-133438583D01*
X60828123Y-133438583D01*
X60828123Y-134669445D01*
X60824206Y-134717883D01*
X60812419Y-134758305D01*
X60795782Y-134786991D01*
X60773149Y-134809866D01*
X60711591Y-134838151D01*
X60640544Y-134845666D01*
X59853716Y-134845666D01*
X59802069Y-134841758D01*
X59759442Y-134830034D01*
X59729763Y-134813681D01*
X59706393Y-134791536D01*
X59678498Y-134732498D01*
X59671755Y-134669445D01*
X59671755Y-133438583D01*
X59162142Y-133438583D01*
X59162142Y-134725376D01*
X59166108Y-134826061D01*
X59178241Y-134916921D01*
X59195879Y-134988680D01*
X59220303Y-135053176D01*
X59248771Y-135105901D01*
X59283288Y-135152775D01*
X59322314Y-135192396D01*
X59367250Y-135226808D01*
X59477042Y-135280936D01*
X59621962Y-135316238D01*
X59825750Y-135330000D01*
X60674127Y-135330000D01*
G37*
G36*
X61522016Y-133438583D02*
G01*
X61522016Y-133939891D01*
X62353663Y-133939891D01*
X62353663Y-135330000D01*
X62863154Y-135330000D01*
X62863154Y-133939891D01*
X63691992Y-133939891D01*
X63691992Y-133438583D01*
X61522016Y-133438583D01*
G37*
G36*
X52841000Y-113489181D02*
G01*
X52941393Y-113495892D01*
X53035740Y-113509784D01*
X53124809Y-113530683D01*
X53208122Y-113558169D01*
X53287794Y-113592845D01*
X53361807Y-113633713D01*
X53433532Y-113682792D01*
X53499494Y-113737833D01*
X53569012Y-113809281D01*
X53670211Y-113948198D01*
X53744340Y-114101781D01*
X53789488Y-114265176D01*
X53804675Y-114434413D01*
X53804644Y-114442301D01*
X53799938Y-114531359D01*
X53787478Y-114617822D01*
X53767206Y-114702793D01*
X53739654Y-114784326D01*
X53704736Y-114862971D01*
X53663141Y-114937313D01*
X53615060Y-115007226D01*
X53561043Y-115072009D01*
X53470103Y-115159144D01*
X53334273Y-115252550D01*
X53259294Y-115290063D01*
X53178979Y-115321466D01*
X53093129Y-115346487D01*
X53001743Y-115364783D01*
X52903548Y-115376144D01*
X52799494Y-115380000D01*
X52401866Y-115380000D01*
X52258950Y-115372602D01*
X52164293Y-115358653D01*
X52075204Y-115337823D01*
X51990958Y-115310170D01*
X51912179Y-115276135D01*
X51837135Y-115235027D01*
X51767613Y-115187887D01*
X51701094Y-115132846D01*
X51640317Y-115072009D01*
X51629230Y-115059677D01*
X51529903Y-114923674D01*
X51456725Y-114771260D01*
X51411865Y-114606905D01*
X51396921Y-114437100D01*
X51903489Y-114437100D01*
X51913337Y-114529528D01*
X51929868Y-114586916D01*
X51953677Y-114640905D01*
X51984317Y-114691015D01*
X52021092Y-114736297D01*
X52047032Y-114762471D01*
X52137910Y-114825764D01*
X52192437Y-114849210D01*
X52253540Y-114866621D01*
X52323799Y-114877793D01*
X52401866Y-114881622D01*
X52799494Y-114881622D01*
X52845615Y-114880330D01*
X52916808Y-114872582D01*
X52980913Y-114858210D01*
X53038903Y-114837383D01*
X53090427Y-114810665D01*
X53138546Y-114776295D01*
X53180268Y-114736297D01*
X53238636Y-114657330D01*
X53282908Y-114550684D01*
X53297871Y-114437100D01*
X53297792Y-114428682D01*
X53292565Y-114368558D01*
X53279525Y-114310570D01*
X53258840Y-114254675D01*
X53231166Y-114202450D01*
X53157920Y-114112868D01*
X53152322Y-114107747D01*
X53061788Y-114044790D01*
X53009039Y-114021905D01*
X52949397Y-114004813D01*
X52879199Y-113993710D01*
X52799494Y-113989891D01*
X52401866Y-113989891D01*
X52263488Y-114002381D01*
X52201377Y-114018752D01*
X52146604Y-114041226D01*
X52091648Y-114073763D01*
X52043440Y-114112868D01*
X52034344Y-114121628D01*
X51995652Y-114165570D01*
X51963016Y-114214483D01*
X51918515Y-114322380D01*
X51903489Y-114437100D01*
X51396921Y-114437100D01*
X51396685Y-114434413D01*
X51400832Y-114345581D01*
X51413003Y-114259061D01*
X51432825Y-114175118D01*
X51460533Y-114092581D01*
X51495419Y-114013541D01*
X51537606Y-113937571D01*
X51586328Y-113866029D01*
X51701866Y-113737833D01*
X51735257Y-113708664D01*
X51870788Y-113615355D01*
X51945028Y-113578084D01*
X52024695Y-113546811D01*
X52109646Y-113521962D01*
X52200351Y-113503747D01*
X52297987Y-113492432D01*
X52401866Y-113488583D01*
X52799494Y-113488583D01*
X52841000Y-113489181D01*
G37*
G36*
X55547958Y-115380000D02*
G01*
X55662655Y-115376056D01*
X55765328Y-115364083D01*
X55846228Y-115346682D01*
X55918305Y-115322716D01*
X55976471Y-115295062D01*
X56027722Y-115261734D01*
X56070153Y-115224741D01*
X56106683Y-115182440D01*
X56162654Y-115081636D01*
X56198183Y-114951795D01*
X56211566Y-114775376D01*
X56211566Y-113488583D01*
X55701954Y-113488583D01*
X55701954Y-114719445D01*
X55698037Y-114767883D01*
X55686250Y-114808305D01*
X55669613Y-114836991D01*
X55646980Y-114859866D01*
X55585422Y-114888151D01*
X55514375Y-114895666D01*
X54727547Y-114895666D01*
X54675900Y-114891758D01*
X54633273Y-114880034D01*
X54603594Y-114863681D01*
X54580224Y-114841536D01*
X54552329Y-114782498D01*
X54545586Y-114719445D01*
X54545586Y-113488583D01*
X54035973Y-113488583D01*
X54035973Y-114775376D01*
X54039939Y-114876061D01*
X54052072Y-114966921D01*
X54069710Y-115038680D01*
X54094134Y-115103176D01*
X54122602Y-115155901D01*
X54157119Y-115202775D01*
X54196145Y-115242396D01*
X54241081Y-115276808D01*
X54350873Y-115330936D01*
X54495793Y-115366238D01*
X54699581Y-115380000D01*
X55547958Y-115380000D01*
G37*
G36*
X56395847Y-113488583D02*
G01*
X56395847Y-113989891D01*
X57227494Y-113989891D01*
X57227494Y-115380000D01*
X57736985Y-115380000D01*
X57736985Y-113989891D01*
X58565823Y-113989891D01*
X58565823Y-113488583D01*
X56395847Y-113488583D01*
G37*
G36*
X60304351Y-113499453D02*
G01*
X60386016Y-113514902D01*
X60460388Y-113536626D01*
X60529867Y-113565156D01*
X60592796Y-113599570D01*
X60654560Y-113643281D01*
X60710031Y-113693014D01*
X60784863Y-113781132D01*
X60859281Y-113911146D01*
X60904759Y-114051712D01*
X60919958Y-114196032D01*
X60918906Y-114233887D01*
X60910662Y-114308421D01*
X60894567Y-114381076D01*
X60870412Y-114452888D01*
X60838906Y-114521620D01*
X60800166Y-114587193D01*
X60754850Y-114648492D01*
X60716246Y-114691013D01*
X60607694Y-114780127D01*
X60546289Y-114815895D01*
X60478935Y-114846097D01*
X60405441Y-114870306D01*
X60325447Y-114888165D01*
X60237156Y-114899399D01*
X60141556Y-114903237D01*
X59270830Y-114903237D01*
X59270830Y-115380000D01*
X58764026Y-115380000D01*
X58764026Y-114028848D01*
X59270830Y-114028848D01*
X59270830Y-114438443D01*
X60152791Y-114438443D01*
X60222416Y-114433348D01*
X60268373Y-114422341D01*
X60306932Y-114405599D01*
X60342464Y-114380522D01*
X60371144Y-114349295D01*
X60401265Y-114296432D01*
X60412171Y-114257970D01*
X60415963Y-114215572D01*
X60406720Y-114147764D01*
X60391106Y-114108598D01*
X60368335Y-114073422D01*
X60336325Y-114042248D01*
X60302932Y-114020819D01*
X60262683Y-114004504D01*
X60212464Y-113993672D01*
X60152791Y-113989891D01*
X59307222Y-113989891D01*
X59285231Y-113995245D01*
X59274584Y-114007832D01*
X59270830Y-114028848D01*
X58764026Y-114028848D01*
X58764026Y-113606186D01*
X58777154Y-113542338D01*
X58792713Y-113520423D01*
X58814191Y-113504214D01*
X58846760Y-113492491D01*
X58887247Y-113488583D01*
X60141556Y-113488583D01*
X60304351Y-113499453D01*
G37*
G36*
X62625139Y-115380000D02*
G01*
X62739836Y-115376056D01*
X62842509Y-115364083D01*
X62923409Y-115346682D01*
X62995485Y-115322716D01*
X63053652Y-115295062D01*
X63104903Y-115261734D01*
X63147333Y-115224741D01*
X63183864Y-115182440D01*
X63239835Y-115081636D01*
X63275364Y-114951795D01*
X63288747Y-114775376D01*
X63288747Y-113488583D01*
X62779134Y-113488583D01*
X62779134Y-114719445D01*
X62775217Y-114767883D01*
X62763431Y-114808305D01*
X62746793Y-114836991D01*
X62724160Y-114859866D01*
X62662603Y-114888151D01*
X62591556Y-114895666D01*
X61804727Y-114895666D01*
X61753080Y-114891758D01*
X61710454Y-114880034D01*
X61680775Y-114863681D01*
X61657405Y-114841536D01*
X61629509Y-114782498D01*
X61622767Y-114719445D01*
X61622767Y-113488583D01*
X61113154Y-113488583D01*
X61113154Y-114775376D01*
X61117120Y-114876061D01*
X61129252Y-114966921D01*
X61146890Y-115038680D01*
X61171315Y-115103176D01*
X61199782Y-115155901D01*
X61234299Y-115202775D01*
X61273325Y-115242396D01*
X61318261Y-115276808D01*
X61428053Y-115330936D01*
X61572974Y-115366238D01*
X61776762Y-115380000D01*
X62625139Y-115380000D01*
G37*
G36*
X63473028Y-113488583D02*
G01*
X63473028Y-113989891D01*
X64304675Y-113989891D01*
X64304675Y-115380000D01*
X64814166Y-115380000D01*
X64814166Y-113989891D01*
X65643004Y-113989891D01*
X65643004Y-113488583D01*
X63473028Y-113488583D01*
G37*
G36*
X74099291Y-73555580D02*
G01*
X74222611Y-73595388D01*
X74277486Y-73625070D01*
X74327989Y-73661318D01*
X74375872Y-73705907D01*
X74419247Y-73757633D01*
X74460864Y-73821067D01*
X74497540Y-73892787D01*
X75180688Y-75396102D01*
X75211462Y-75480000D01*
X74640300Y-75480000D01*
X74618081Y-75416227D01*
X74617830Y-75415642D01*
X74517080Y-75186053D01*
X73397104Y-75186053D01*
X73299163Y-75412833D01*
X73298958Y-75413378D01*
X73279501Y-75480000D01*
X72694295Y-75480000D01*
X72725070Y-75396102D01*
X73007856Y-74768764D01*
X73581874Y-74768764D01*
X74332310Y-74768764D01*
X74041050Y-74089281D01*
X74010031Y-74047376D01*
X73983744Y-74034385D01*
X73954344Y-74030296D01*
X73949940Y-74030378D01*
X73905302Y-74044063D01*
X73886217Y-74062033D01*
X73870325Y-74089281D01*
X73581874Y-74768764D01*
X73007856Y-74768764D01*
X73402722Y-73892787D01*
X73477317Y-73761841D01*
X73563054Y-73667773D01*
X73612031Y-73630810D01*
X73665504Y-73600285D01*
X73725902Y-73575400D01*
X73791547Y-73557374D01*
X73868253Y-73545603D01*
X73951535Y-73541688D01*
X74099291Y-73555580D01*
G37*
G36*
X74905059Y-73588583D02*
G01*
X74905059Y-74089891D01*
X75736706Y-74089891D01*
X75736706Y-75480000D01*
X76246197Y-75480000D01*
X76246197Y-74089891D01*
X77075035Y-74089891D01*
X77075035Y-73588583D01*
X74905059Y-73588583D01*
G37*
G36*
X77259560Y-73588583D02*
G01*
X77259560Y-74089891D01*
X78091207Y-74089891D01*
X78091207Y-75480000D01*
X78600698Y-75480000D01*
X78600698Y-74089891D01*
X79429536Y-74089891D01*
X79429536Y-73588583D01*
X77259560Y-73588583D01*
G37*
G36*
X79893720Y-73588583D02*
G01*
X79830962Y-73592496D01*
X79776533Y-73604258D01*
X79735362Y-73621213D01*
X79700698Y-73644346D01*
X79674164Y-73671599D01*
X79653327Y-73704297D01*
X79628520Y-73787702D01*
X79624930Y-73843450D01*
X79624930Y-75216828D01*
X79628833Y-75276739D01*
X79640521Y-75328855D01*
X79657551Y-75368903D01*
X79680766Y-75402761D01*
X79741703Y-75450051D01*
X79827306Y-75475709D01*
X79890911Y-75480000D01*
X81615754Y-75480000D01*
X81615754Y-74995666D01*
X80176553Y-74995666D01*
X80154575Y-74991758D01*
X80140116Y-74980034D01*
X80131734Y-74945840D01*
X80131734Y-74718572D01*
X81607327Y-74718572D01*
X81607327Y-74354528D01*
X80131734Y-74354528D01*
X80131734Y-74137763D01*
X80135718Y-74113440D01*
X80147973Y-74097456D01*
X80176553Y-74089891D01*
X81615754Y-74089891D01*
X81615754Y-73588583D01*
X79893720Y-73588583D01*
G37*
G36*
X84202408Y-73588583D02*
G01*
X83706839Y-73588583D01*
X83706839Y-74811385D01*
X83703175Y-74835490D01*
X83693160Y-74851795D01*
X83667638Y-74861699D01*
X83642771Y-74857852D01*
X83620011Y-74839351D01*
X82696040Y-73734152D01*
X82642741Y-73674903D01*
X82588699Y-73627972D01*
X82540063Y-73596457D01*
X82488738Y-73572763D01*
X82375439Y-73546323D01*
X82287300Y-73541688D01*
X82210253Y-73545687D01*
X82138518Y-73558050D01*
X82080407Y-73576278D01*
X82027533Y-73601778D01*
X81984557Y-73631497D01*
X81946711Y-73667778D01*
X81915879Y-73708554D01*
X81890359Y-73755736D01*
X81856689Y-73869745D01*
X81847662Y-73984989D01*
X81847662Y-75480000D01*
X82346040Y-75480000D01*
X82346040Y-74195282D01*
X82349672Y-74173526D01*
X82359462Y-74157092D01*
X82392321Y-74142056D01*
X82393667Y-74142037D01*
X82412372Y-74145945D01*
X82429472Y-74157669D01*
X82438486Y-74167316D01*
X83477251Y-75370701D01*
X83518244Y-75412155D01*
X83563277Y-75446419D01*
X83664143Y-75493814D01*
X83787570Y-75516861D01*
X83846790Y-75519078D01*
X83903875Y-75515120D01*
X83958980Y-75503044D01*
X84007780Y-75484140D01*
X84053059Y-75457626D01*
X84091424Y-75425753D01*
X84125251Y-75386818D01*
X84152729Y-75342745D01*
X84174783Y-75291839D01*
X84190623Y-75234740D01*
X84199984Y-75170646D01*
X84202408Y-75113513D01*
X84202408Y-73588583D01*
G37*
G36*
X85982083Y-75480000D02*
G01*
X86096780Y-75476056D01*
X86199453Y-75464083D01*
X86280353Y-75446682D01*
X86352429Y-75422716D01*
X86410596Y-75395062D01*
X86461847Y-75361734D01*
X86504277Y-75324741D01*
X86540808Y-75282440D01*
X86596779Y-75181636D01*
X86632308Y-75051795D01*
X86645691Y-74875376D01*
X86645691Y-73588583D01*
X86136078Y-73588583D01*
X86136078Y-74819445D01*
X86132161Y-74867883D01*
X86120375Y-74908305D01*
X86103737Y-74936991D01*
X86081104Y-74959866D01*
X86019547Y-74988151D01*
X85948500Y-74995666D01*
X85161671Y-74995666D01*
X85110024Y-74991758D01*
X85067398Y-74980034D01*
X85037719Y-74963681D01*
X85014349Y-74941536D01*
X84986453Y-74882498D01*
X84979711Y-74819445D01*
X84979711Y-73588583D01*
X84470098Y-73588583D01*
X84470098Y-74875376D01*
X84474064Y-74976061D01*
X84486196Y-75066921D01*
X84503834Y-75138680D01*
X84528259Y-75203176D01*
X84556726Y-75255901D01*
X84591243Y-75302775D01*
X84630269Y-75342396D01*
X84675205Y-75376808D01*
X84784997Y-75430936D01*
X84929918Y-75466238D01*
X85133706Y-75480000D01*
X85982083Y-75480000D01*
G37*
G36*
X88099291Y-73555580D02*
G01*
X88222611Y-73595388D01*
X88277486Y-73625070D01*
X88327989Y-73661318D01*
X88375872Y-73705907D01*
X88419247Y-73757633D01*
X88460864Y-73821067D01*
X88497540Y-73892787D01*
X89180688Y-75396102D01*
X89211462Y-75480000D01*
X88640300Y-75480000D01*
X88618081Y-75416227D01*
X88617830Y-75415642D01*
X88517080Y-75186053D01*
X87397104Y-75186053D01*
X87299163Y-75412833D01*
X87298958Y-75413378D01*
X87279501Y-75480000D01*
X86694295Y-75480000D01*
X86725070Y-75396102D01*
X87007856Y-74768764D01*
X87581874Y-74768764D01*
X88332310Y-74768764D01*
X88041050Y-74089281D01*
X88010031Y-74047376D01*
X87983744Y-74034385D01*
X87954344Y-74030296D01*
X87949940Y-74030378D01*
X87905302Y-74044063D01*
X87886217Y-74062033D01*
X87870325Y-74089281D01*
X87581874Y-74768764D01*
X87007856Y-74768764D01*
X87402722Y-73892787D01*
X87477317Y-73761841D01*
X87563054Y-73667773D01*
X87612031Y-73630810D01*
X87665504Y-73600285D01*
X87725902Y-73575400D01*
X87791547Y-73557374D01*
X87868253Y-73545603D01*
X87951535Y-73541688D01*
X88099291Y-73555580D01*
G37*
G36*
X88905059Y-73588583D02*
G01*
X88905059Y-74089891D01*
X89736706Y-74089891D01*
X89736706Y-75480000D01*
X90246197Y-75480000D01*
X90246197Y-74089891D01*
X91075035Y-74089891D01*
X91075035Y-73588583D01*
X88905059Y-73588583D01*
G37*
G36*
X91539219Y-73588583D02*
G01*
X91476461Y-73592496D01*
X91422032Y-73604258D01*
X91380861Y-73621213D01*
X91346197Y-73644346D01*
X91319663Y-73671599D01*
X91298826Y-73704297D01*
X91274019Y-73787702D01*
X91270429Y-73843450D01*
X91270429Y-75216828D01*
X91274332Y-75276739D01*
X91286020Y-75328855D01*
X91303050Y-75368903D01*
X91326265Y-75402761D01*
X91387202Y-75450051D01*
X91472805Y-75475709D01*
X91536410Y-75480000D01*
X93261253Y-75480000D01*
X93261253Y-74995666D01*
X91822052Y-74995666D01*
X91800074Y-74991758D01*
X91785614Y-74980034D01*
X91777233Y-74945840D01*
X91777233Y-74718572D01*
X93252826Y-74718572D01*
X93252826Y-74354528D01*
X91777233Y-74354528D01*
X91777233Y-74137763D01*
X91781217Y-74113440D01*
X91793472Y-74097456D01*
X91822052Y-74089891D01*
X93261253Y-74089891D01*
X93261253Y-73588583D01*
X91539219Y-73588583D01*
G37*
G36*
X52841000Y-75239181D02*
G01*
X52941393Y-75245892D01*
X53035740Y-75259784D01*
X53124809Y-75280683D01*
X53208122Y-75308169D01*
X53287794Y-75342845D01*
X53361807Y-75383713D01*
X53433532Y-75432792D01*
X53499494Y-75487833D01*
X53569012Y-75559281D01*
X53670211Y-75698198D01*
X53744340Y-75851781D01*
X53789488Y-76015176D01*
X53804675Y-76184413D01*
X53804644Y-76192301D01*
X53799938Y-76281359D01*
X53787478Y-76367822D01*
X53767206Y-76452793D01*
X53739654Y-76534326D01*
X53704736Y-76612971D01*
X53663141Y-76687313D01*
X53615060Y-76757226D01*
X53561043Y-76822009D01*
X53470103Y-76909144D01*
X53334273Y-77002550D01*
X53259294Y-77040063D01*
X53178979Y-77071466D01*
X53093129Y-77096487D01*
X53001743Y-77114783D01*
X52903548Y-77126144D01*
X52799494Y-77130000D01*
X52401866Y-77130000D01*
X52258950Y-77122602D01*
X52164293Y-77108653D01*
X52075204Y-77087823D01*
X51990958Y-77060170D01*
X51912179Y-77026135D01*
X51837135Y-76985027D01*
X51767613Y-76937887D01*
X51701094Y-76882846D01*
X51640317Y-76822009D01*
X51629230Y-76809677D01*
X51529903Y-76673674D01*
X51456725Y-76521260D01*
X51411865Y-76356905D01*
X51396921Y-76187100D01*
X51903489Y-76187100D01*
X51913337Y-76279528D01*
X51929868Y-76336916D01*
X51953677Y-76390905D01*
X51984317Y-76441015D01*
X52021092Y-76486297D01*
X52047032Y-76512471D01*
X52137910Y-76575764D01*
X52192437Y-76599210D01*
X52253540Y-76616621D01*
X52323799Y-76627793D01*
X52401866Y-76631622D01*
X52799494Y-76631622D01*
X52845615Y-76630330D01*
X52916808Y-76622582D01*
X52980913Y-76608210D01*
X53038903Y-76587383D01*
X53090427Y-76560665D01*
X53138546Y-76526295D01*
X53180268Y-76486297D01*
X53238636Y-76407330D01*
X53282908Y-76300684D01*
X53297871Y-76187100D01*
X53297792Y-76178682D01*
X53292565Y-76118558D01*
X53279525Y-76060570D01*
X53258840Y-76004675D01*
X53231166Y-75952450D01*
X53157920Y-75862868D01*
X53152322Y-75857747D01*
X53061788Y-75794790D01*
X53009039Y-75771905D01*
X52949397Y-75754813D01*
X52879199Y-75743710D01*
X52799494Y-75739891D01*
X52401866Y-75739891D01*
X52263488Y-75752381D01*
X52201377Y-75768752D01*
X52146604Y-75791226D01*
X52091648Y-75823763D01*
X52043440Y-75862868D01*
X52034344Y-75871628D01*
X51995652Y-75915570D01*
X51963016Y-75964483D01*
X51918515Y-76072380D01*
X51903489Y-76187100D01*
X51396921Y-76187100D01*
X51396685Y-76184413D01*
X51400832Y-76095581D01*
X51413003Y-76009061D01*
X51432825Y-75925118D01*
X51460533Y-75842581D01*
X51495419Y-75763541D01*
X51537606Y-75687571D01*
X51586328Y-75616029D01*
X51701866Y-75487833D01*
X51735257Y-75458664D01*
X51870788Y-75365355D01*
X51945028Y-75328084D01*
X52024695Y-75296811D01*
X52109646Y-75271962D01*
X52200351Y-75253747D01*
X52297987Y-75242432D01*
X52401866Y-75238583D01*
X52799494Y-75238583D01*
X52841000Y-75239181D01*
G37*
G36*
X55547958Y-77130000D02*
G01*
X55662655Y-77126056D01*
X55765328Y-77114083D01*
X55846228Y-77096682D01*
X55918305Y-77072716D01*
X55976471Y-77045062D01*
X56027722Y-77011734D01*
X56070153Y-76974741D01*
X56106683Y-76932440D01*
X56162654Y-76831636D01*
X56198183Y-76701795D01*
X56211566Y-76525376D01*
X56211566Y-75238583D01*
X55701954Y-75238583D01*
X55701954Y-76469445D01*
X55698037Y-76517883D01*
X55686250Y-76558305D01*
X55669613Y-76586991D01*
X55646980Y-76609866D01*
X55585422Y-76638151D01*
X55514375Y-76645666D01*
X54727547Y-76645666D01*
X54675900Y-76641758D01*
X54633273Y-76630034D01*
X54603594Y-76613681D01*
X54580224Y-76591536D01*
X54552329Y-76532498D01*
X54545586Y-76469445D01*
X54545586Y-75238583D01*
X54035973Y-75238583D01*
X54035973Y-76525376D01*
X54039939Y-76626061D01*
X54052072Y-76716921D01*
X54069710Y-76788680D01*
X54094134Y-76853176D01*
X54122602Y-76905901D01*
X54157119Y-76952775D01*
X54196145Y-76992396D01*
X54241081Y-77026808D01*
X54350873Y-77080936D01*
X54495793Y-77116238D01*
X54699581Y-77130000D01*
X55547958Y-77130000D01*
G37*
G36*
X56395847Y-75238583D02*
G01*
X56395847Y-75739891D01*
X57227494Y-75739891D01*
X57227494Y-77130000D01*
X57736985Y-77130000D01*
X57736985Y-75739891D01*
X58565823Y-75739891D01*
X58565823Y-75238583D01*
X56395847Y-75238583D01*
G37*
G36*
X60304351Y-75249453D02*
G01*
X60386016Y-75264902D01*
X60460388Y-75286626D01*
X60529867Y-75315156D01*
X60592796Y-75349570D01*
X60654560Y-75393281D01*
X60710031Y-75443014D01*
X60784863Y-75531132D01*
X60859281Y-75661146D01*
X60904759Y-75801712D01*
X60919958Y-75946032D01*
X60918906Y-75983887D01*
X60910662Y-76058421D01*
X60894567Y-76131076D01*
X60870412Y-76202888D01*
X60838906Y-76271620D01*
X60800166Y-76337193D01*
X60754850Y-76398492D01*
X60716246Y-76441013D01*
X60607694Y-76530127D01*
X60546289Y-76565895D01*
X60478935Y-76596097D01*
X60405441Y-76620306D01*
X60325447Y-76638165D01*
X60237156Y-76649399D01*
X60141556Y-76653237D01*
X59270830Y-76653237D01*
X59270830Y-77130000D01*
X58764026Y-77130000D01*
X58764026Y-75778848D01*
X59270830Y-75778848D01*
X59270830Y-76188443D01*
X60152791Y-76188443D01*
X60222416Y-76183348D01*
X60268373Y-76172341D01*
X60306932Y-76155599D01*
X60342464Y-76130522D01*
X60371144Y-76099295D01*
X60401265Y-76046432D01*
X60412171Y-76007970D01*
X60415963Y-75965572D01*
X60406720Y-75897764D01*
X60391106Y-75858598D01*
X60368335Y-75823422D01*
X60336325Y-75792248D01*
X60302932Y-75770819D01*
X60262683Y-75754504D01*
X60212464Y-75743672D01*
X60152791Y-75739891D01*
X59307222Y-75739891D01*
X59285231Y-75745245D01*
X59274584Y-75757832D01*
X59270830Y-75778848D01*
X58764026Y-75778848D01*
X58764026Y-75356186D01*
X58777154Y-75292338D01*
X58792713Y-75270423D01*
X58814191Y-75254214D01*
X58846760Y-75242491D01*
X58887247Y-75238583D01*
X60141556Y-75238583D01*
X60304351Y-75249453D01*
G37*
G36*
X62625139Y-77130000D02*
G01*
X62739836Y-77126056D01*
X62842509Y-77114083D01*
X62923409Y-77096682D01*
X62995485Y-77072716D01*
X63053652Y-77045062D01*
X63104903Y-77011734D01*
X63147333Y-76974741D01*
X63183864Y-76932440D01*
X63239835Y-76831636D01*
X63275364Y-76701795D01*
X63288747Y-76525376D01*
X63288747Y-75238583D01*
X62779134Y-75238583D01*
X62779134Y-76469445D01*
X62775217Y-76517883D01*
X62763431Y-76558305D01*
X62746793Y-76586991D01*
X62724160Y-76609866D01*
X62662603Y-76638151D01*
X62591556Y-76645666D01*
X61804727Y-76645666D01*
X61753080Y-76641758D01*
X61710454Y-76630034D01*
X61680775Y-76613681D01*
X61657405Y-76591536D01*
X61629509Y-76532498D01*
X61622767Y-76469445D01*
X61622767Y-75238583D01*
X61113154Y-75238583D01*
X61113154Y-76525376D01*
X61117120Y-76626061D01*
X61129252Y-76716921D01*
X61146890Y-76788680D01*
X61171315Y-76853176D01*
X61199782Y-76905901D01*
X61234299Y-76952775D01*
X61273325Y-76992396D01*
X61318261Y-77026808D01*
X61428053Y-77080936D01*
X61572974Y-77116238D01*
X61776762Y-77130000D01*
X62625139Y-77130000D01*
G37*
G36*
X63473028Y-75238583D02*
G01*
X63473028Y-75739891D01*
X64304675Y-75739891D01*
X64304675Y-77130000D01*
X64814166Y-77130000D01*
X64814166Y-75739891D01*
X65643004Y-75739891D01*
X65643004Y-75238583D01*
X63473028Y-75238583D01*
G37*
G36*
X74099291Y-149805580D02*
G01*
X74222611Y-149845388D01*
X74277486Y-149875070D01*
X74327989Y-149911318D01*
X74375872Y-149955907D01*
X74419247Y-150007633D01*
X74460864Y-150071067D01*
X74497540Y-150142787D01*
X75180688Y-151646102D01*
X75211462Y-151730000D01*
X74640300Y-151730000D01*
X74618081Y-151666227D01*
X74617830Y-151665642D01*
X74517080Y-151436053D01*
X73397104Y-151436053D01*
X73299163Y-151662833D01*
X73298958Y-151663378D01*
X73279501Y-151730000D01*
X72694295Y-151730000D01*
X72725070Y-151646102D01*
X73007856Y-151018764D01*
X73581874Y-151018764D01*
X74332310Y-151018764D01*
X74041050Y-150339281D01*
X74010031Y-150297376D01*
X73983744Y-150284385D01*
X73954344Y-150280296D01*
X73949940Y-150280378D01*
X73905302Y-150294063D01*
X73886217Y-150312033D01*
X73870325Y-150339281D01*
X73581874Y-151018764D01*
X73007856Y-151018764D01*
X73402722Y-150142787D01*
X73477317Y-150011841D01*
X73563054Y-149917773D01*
X73612031Y-149880810D01*
X73665504Y-149850285D01*
X73725902Y-149825400D01*
X73791547Y-149807374D01*
X73868253Y-149795603D01*
X73951535Y-149791688D01*
X74099291Y-149805580D01*
G37*
G36*
X74905059Y-149838583D02*
G01*
X74905059Y-150339891D01*
X75736706Y-150339891D01*
X75736706Y-151730000D01*
X76246197Y-151730000D01*
X76246197Y-150339891D01*
X77075035Y-150339891D01*
X77075035Y-149838583D01*
X74905059Y-149838583D01*
G37*
G36*
X77259560Y-149838583D02*
G01*
X77259560Y-150339891D01*
X78091207Y-150339891D01*
X78091207Y-151730000D01*
X78600698Y-151730000D01*
X78600698Y-150339891D01*
X79429536Y-150339891D01*
X79429536Y-149838583D01*
X77259560Y-149838583D01*
G37*
G36*
X79893720Y-149838583D02*
G01*
X79830962Y-149842496D01*
X79776533Y-149854258D01*
X79735362Y-149871213D01*
X79700698Y-149894346D01*
X79674164Y-149921599D01*
X79653327Y-149954297D01*
X79628520Y-150037702D01*
X79624930Y-150093450D01*
X79624930Y-151466828D01*
X79628833Y-151526739D01*
X79640521Y-151578855D01*
X79657551Y-151618903D01*
X79680766Y-151652761D01*
X79741703Y-151700051D01*
X79827306Y-151725709D01*
X79890911Y-151730000D01*
X81615754Y-151730000D01*
X81615754Y-151245666D01*
X80176553Y-151245666D01*
X80154575Y-151241758D01*
X80140116Y-151230034D01*
X80131734Y-151195840D01*
X80131734Y-150968572D01*
X81607327Y-150968572D01*
X81607327Y-150604528D01*
X80131734Y-150604528D01*
X80131734Y-150387763D01*
X80135718Y-150363440D01*
X80147973Y-150347456D01*
X80176553Y-150339891D01*
X81615754Y-150339891D01*
X81615754Y-149838583D01*
X79893720Y-149838583D01*
G37*
G36*
X84202408Y-149838583D02*
G01*
X83706839Y-149838583D01*
X83706839Y-151061385D01*
X83703175Y-151085490D01*
X83693160Y-151101795D01*
X83667638Y-151111699D01*
X83642771Y-151107852D01*
X83620011Y-151089351D01*
X82696040Y-149984152D01*
X82642741Y-149924903D01*
X82588699Y-149877972D01*
X82540063Y-149846457D01*
X82488738Y-149822763D01*
X82375439Y-149796323D01*
X82287300Y-149791688D01*
X82210253Y-149795687D01*
X82138518Y-149808050D01*
X82080407Y-149826278D01*
X82027533Y-149851778D01*
X81984557Y-149881497D01*
X81946711Y-149917778D01*
X81915879Y-149958554D01*
X81890359Y-150005736D01*
X81856689Y-150119745D01*
X81847662Y-150234989D01*
X81847662Y-151730000D01*
X82346040Y-151730000D01*
X82346040Y-150445282D01*
X82349672Y-150423526D01*
X82359462Y-150407092D01*
X82392321Y-150392056D01*
X82393667Y-150392037D01*
X82412372Y-150395945D01*
X82429472Y-150407669D01*
X82438486Y-150417316D01*
X83477251Y-151620701D01*
X83518244Y-151662155D01*
X83563277Y-151696419D01*
X83664143Y-151743814D01*
X83787570Y-151766861D01*
X83846790Y-151769078D01*
X83903875Y-151765120D01*
X83958980Y-151753044D01*
X84007780Y-151734140D01*
X84053059Y-151707626D01*
X84091424Y-151675753D01*
X84125251Y-151636818D01*
X84152729Y-151592745D01*
X84174783Y-151541839D01*
X84190623Y-151484740D01*
X84199984Y-151420646D01*
X84202408Y-151363513D01*
X84202408Y-149838583D01*
G37*
G36*
X85982083Y-151730000D02*
G01*
X86096780Y-151726056D01*
X86199453Y-151714083D01*
X86280353Y-151696682D01*
X86352429Y-151672716D01*
X86410596Y-151645062D01*
X86461847Y-151611734D01*
X86504277Y-151574741D01*
X86540808Y-151532440D01*
X86596779Y-151431636D01*
X86632308Y-151301795D01*
X86645691Y-151125376D01*
X86645691Y-149838583D01*
X86136078Y-149838583D01*
X86136078Y-151069445D01*
X86132161Y-151117883D01*
X86120375Y-151158305D01*
X86103737Y-151186991D01*
X86081104Y-151209866D01*
X86019547Y-151238151D01*
X85948500Y-151245666D01*
X85161671Y-151245666D01*
X85110024Y-151241758D01*
X85067398Y-151230034D01*
X85037719Y-151213681D01*
X85014349Y-151191536D01*
X84986453Y-151132498D01*
X84979711Y-151069445D01*
X84979711Y-149838583D01*
X84470098Y-149838583D01*
X84470098Y-151125376D01*
X84474064Y-151226061D01*
X84486196Y-151316921D01*
X84503834Y-151388680D01*
X84528259Y-151453176D01*
X84556726Y-151505901D01*
X84591243Y-151552775D01*
X84630269Y-151592396D01*
X84675205Y-151626808D01*
X84784997Y-151680936D01*
X84929918Y-151716238D01*
X85133706Y-151730000D01*
X85982083Y-151730000D01*
G37*
G36*
X88099291Y-149805580D02*
G01*
X88222611Y-149845388D01*
X88277486Y-149875070D01*
X88327989Y-149911318D01*
X88375872Y-149955907D01*
X88419247Y-150007633D01*
X88460864Y-150071067D01*
X88497540Y-150142787D01*
X89180688Y-151646102D01*
X89211462Y-151730000D01*
X88640300Y-151730000D01*
X88618081Y-151666227D01*
X88617830Y-151665642D01*
X88517080Y-151436053D01*
X87397104Y-151436053D01*
X87299163Y-151662833D01*
X87298958Y-151663378D01*
X87279501Y-151730000D01*
X86694295Y-151730000D01*
X86725070Y-151646102D01*
X87007856Y-151018764D01*
X87581874Y-151018764D01*
X88332310Y-151018764D01*
X88041050Y-150339281D01*
X88010031Y-150297376D01*
X87983744Y-150284385D01*
X87954344Y-150280296D01*
X87949940Y-150280378D01*
X87905302Y-150294063D01*
X87886217Y-150312033D01*
X87870325Y-150339281D01*
X87581874Y-151018764D01*
X87007856Y-151018764D01*
X87402722Y-150142787D01*
X87477317Y-150011841D01*
X87563054Y-149917773D01*
X87612031Y-149880810D01*
X87665504Y-149850285D01*
X87725902Y-149825400D01*
X87791547Y-149807374D01*
X87868253Y-149795603D01*
X87951535Y-149791688D01*
X88099291Y-149805580D01*
G37*
G36*
X88905059Y-149838583D02*
G01*
X88905059Y-150339891D01*
X89736706Y-150339891D01*
X89736706Y-151730000D01*
X90246197Y-151730000D01*
X90246197Y-150339891D01*
X91075035Y-150339891D01*
X91075035Y-149838583D01*
X88905059Y-149838583D01*
G37*
G36*
X91539219Y-149838583D02*
G01*
X91476461Y-149842496D01*
X91422032Y-149854258D01*
X91380861Y-149871213D01*
X91346197Y-149894346D01*
X91319663Y-149921599D01*
X91298826Y-149954297D01*
X91274019Y-150037702D01*
X91270429Y-150093450D01*
X91270429Y-151466828D01*
X91274332Y-151526739D01*
X91286020Y-151578855D01*
X91303050Y-151618903D01*
X91326265Y-151652761D01*
X91387202Y-151700051D01*
X91472805Y-151725709D01*
X91536410Y-151730000D01*
X93261253Y-151730000D01*
X93261253Y-151245666D01*
X91822052Y-151245666D01*
X91800074Y-151241758D01*
X91785614Y-151230034D01*
X91777233Y-151195840D01*
X91777233Y-150968572D01*
X93252826Y-150968572D01*
X93252826Y-150604528D01*
X91777233Y-150604528D01*
X91777233Y-150387763D01*
X91781217Y-150363440D01*
X91793472Y-150347456D01*
X91822052Y-150339891D01*
X93261253Y-150339891D01*
X93261253Y-149838583D01*
X91539219Y-149838583D01*
G37*
D16*
%TO.C,H27*%
G36*
X68500000Y-208750000D02*
G01*
X68500000Y-208750000D01*
G75*
G03*
X75000000Y-215250000I6500000J0D01*
G01*
X69500000Y-215250000D01*
X68500000Y-214250000D01*
X68500000Y-208750000D01*
G37*
G36*
X75000000Y-202250000D02*
G01*
X75000000Y-202250000D01*
G75*
G03*
X68500000Y-208750000I0J-6500000D01*
G01*
X68500000Y-203250000D01*
X69500000Y-202250000D01*
X75000000Y-202250000D01*
G37*
G36*
X81500000Y-214250000D02*
G01*
X80500000Y-215250000D01*
X75000000Y-215250000D01*
G75*
G03*
X81500000Y-208750000I0J6500000D01*
G01*
X81500000Y-214250000D01*
G37*
G36*
X81500000Y-203250000D02*
G01*
X81500000Y-208750000D01*
G75*
G03*
X75000000Y-202250000I-6500000J0D01*
G01*
X80500000Y-202250000D01*
X81500000Y-203250000D01*
G37*
%TO.C,H12*%
G36*
X52000000Y-143500000D02*
G01*
X52000000Y-143500000D01*
G75*
G03*
X58500000Y-150000000I6500000J0D01*
G01*
X53000000Y-150000000D01*
X52000000Y-149000000D01*
X52000000Y-143500000D01*
G37*
G36*
X58500000Y-137000000D02*
G01*
X58500000Y-137000000D01*
G75*
G03*
X52000000Y-143500000I0J-6500000D01*
G01*
X52000000Y-138000000D01*
X53000000Y-137000000D01*
X58500000Y-137000000D01*
G37*
G36*
X65000000Y-149000000D02*
G01*
X64000000Y-150000000D01*
X58500000Y-150000000D01*
G75*
G03*
X65000000Y-143500000I0J6500000D01*
G01*
X65000000Y-149000000D01*
G37*
G36*
X65000000Y-138000000D02*
G01*
X65000000Y-143500000D01*
G75*
G03*
X58500000Y-137000000I-6500000J0D01*
G01*
X64000000Y-137000000D01*
X65000000Y-138000000D01*
G37*
%TO.C,H22*%
G36*
X85000000Y-175750000D02*
G01*
X85000000Y-175750000D01*
G75*
G03*
X91500000Y-182250000I6500000J0D01*
G01*
X86000000Y-182250000D01*
X85000000Y-181250000D01*
X85000000Y-175750000D01*
G37*
G36*
X91500000Y-169250000D02*
G01*
X91500000Y-169250000D01*
G75*
G03*
X85000000Y-175750000I0J-6500000D01*
G01*
X85000000Y-170250000D01*
X86000000Y-169250000D01*
X91500000Y-169250000D01*
G37*
G36*
X98000000Y-181250000D02*
G01*
X97000000Y-182250000D01*
X91500000Y-182250000D01*
G75*
G03*
X98000000Y-175750000I0J6500000D01*
G01*
X98000000Y-181250000D01*
G37*
G36*
X98000000Y-170250000D02*
G01*
X98000000Y-175750000D01*
G75*
G03*
X91500000Y-169250000I-6500000J0D01*
G01*
X97000000Y-169250000D01*
X98000000Y-170250000D01*
G37*
%TO.C,H24*%
G36*
X68500000Y-192250000D02*
G01*
X68500000Y-192250000D01*
G75*
G03*
X75000000Y-198750000I6500000J0D01*
G01*
X69500000Y-198750000D01*
X68500000Y-197750000D01*
X68500000Y-192250000D01*
G37*
G36*
X75000000Y-185750000D02*
G01*
X75000000Y-185750000D01*
G75*
G03*
X68500000Y-192250000I0J-6500000D01*
G01*
X68500000Y-186750000D01*
X69500000Y-185750000D01*
X75000000Y-185750000D01*
G37*
G36*
X81500000Y-197750000D02*
G01*
X80500000Y-198750000D01*
X75000000Y-198750000D01*
G75*
G03*
X81500000Y-192250000I0J6500000D01*
G01*
X81500000Y-197750000D01*
G37*
G36*
X81500000Y-186750000D02*
G01*
X81500000Y-192250000D01*
G75*
G03*
X75000000Y-185750000I-6500000J0D01*
G01*
X80500000Y-185750000D01*
X81500000Y-186750000D01*
G37*
D17*
%TO.C,H10*%
X70500000Y-108250000D02*
X73000000Y-108250000D01*
X75500002Y-97000000D02*
X69400000Y-97000000D01*
X76506990Y-93246229D02*
X71200000Y-90200000D01*
X76506990Y-100753772D02*
X71200000Y-103800000D01*
X79246228Y-90506990D02*
X76200000Y-85200000D01*
X79246229Y-103493010D02*
X76200000Y-108800000D01*
X83000000Y-89500000D02*
X82996669Y-83380896D01*
X86753771Y-90506990D02*
X89800000Y-85200000D01*
X86753772Y-103493010D02*
X89805772Y-108796672D01*
X89493010Y-93246228D02*
X94800000Y-90200000D01*
X89493010Y-100753771D02*
X94800000Y-103800000D01*
X90500000Y-97000000D02*
X96600000Y-97000000D01*
X93000000Y-108250000D02*
X95500000Y-108250000D01*
X94250000Y-107000000D02*
X94250000Y-109500000D01*
X76200000Y-108800000D02*
G75*
G02*
X89805772Y-108796672I6800000J11800000D01*
G01*
D16*
%TO.C,H28*%
G36*
X85000000Y-208750000D02*
G01*
X85000000Y-208750000D01*
G75*
G03*
X91500000Y-215250000I6500000J0D01*
G01*
X86000000Y-215250000D01*
X85000000Y-214250000D01*
X85000000Y-208750000D01*
G37*
G36*
X91500000Y-202250000D02*
G01*
X91500000Y-202250000D01*
G75*
G03*
X85000000Y-208750000I0J-6500000D01*
G01*
X85000000Y-203250000D01*
X86000000Y-202250000D01*
X91500000Y-202250000D01*
G37*
G36*
X98000000Y-214250000D02*
G01*
X97000000Y-215250000D01*
X91500000Y-215250000D01*
G75*
G03*
X98000000Y-208750000I0J6500000D01*
G01*
X98000000Y-214250000D01*
G37*
G36*
X98000000Y-203250000D02*
G01*
X98000000Y-208750000D01*
G75*
G03*
X91500000Y-202250000I-6500000J0D01*
G01*
X97000000Y-202250000D01*
X98000000Y-203250000D01*
G37*
%TO.C,H21*%
G36*
X68500000Y-175750000D02*
G01*
X68500000Y-175750000D01*
G75*
G03*
X75000000Y-182250000I6500000J0D01*
G01*
X69500000Y-182250000D01*
X68500000Y-181250000D01*
X68500000Y-175750000D01*
G37*
G36*
X75000000Y-169250000D02*
G01*
X75000000Y-169250000D01*
G75*
G03*
X68500000Y-175750000I0J-6500000D01*
G01*
X68500000Y-170250000D01*
X69500000Y-169250000D01*
X75000000Y-169250000D01*
G37*
G36*
X81500000Y-181250000D02*
G01*
X80500000Y-182250000D01*
X75000000Y-182250000D01*
G75*
G03*
X81500000Y-175750000I0J6500000D01*
G01*
X81500000Y-181250000D01*
G37*
G36*
X81500000Y-170250000D02*
G01*
X81500000Y-175750000D01*
G75*
G03*
X75000000Y-169250000I-6500000J0D01*
G01*
X80500000Y-169250000D01*
X81500000Y-170250000D01*
G37*
%TO.C,H25*%
G36*
X85000000Y-192250000D02*
G01*
X85000000Y-192250000D01*
G75*
G03*
X91500000Y-198750000I6500000J0D01*
G01*
X86000000Y-198750000D01*
X85000000Y-197750000D01*
X85000000Y-192250000D01*
G37*
G36*
X91500000Y-185750000D02*
G01*
X91500000Y-185750000D01*
G75*
G03*
X85000000Y-192250000I0J-6500000D01*
G01*
X85000000Y-186750000D01*
X86000000Y-185750000D01*
X91500000Y-185750000D01*
G37*
G36*
X98000000Y-197750000D02*
G01*
X97000000Y-198750000D01*
X91500000Y-198750000D01*
G75*
G03*
X98000000Y-192250000I0J6500000D01*
G01*
X98000000Y-197750000D01*
G37*
G36*
X98000000Y-186750000D02*
G01*
X98000000Y-192250000D01*
G75*
G03*
X91500000Y-185750000I-6500000J0D01*
G01*
X97000000Y-185750000D01*
X98000000Y-186750000D01*
G37*
%TO.C,H9*%
G36*
X52000000Y-105250000D02*
G01*
X52000000Y-105250000D01*
G75*
G03*
X58500000Y-111750000I6500000J0D01*
G01*
X53000000Y-111750000D01*
X52000000Y-110750000D01*
X52000000Y-105250000D01*
G37*
G36*
X58500000Y-98750000D02*
G01*
X58500000Y-98750000D01*
G75*
G03*
X52000000Y-105250000I0J-6500000D01*
G01*
X52000000Y-99750000D01*
X53000000Y-98750000D01*
X58500000Y-98750000D01*
G37*
G36*
X65000000Y-110750000D02*
G01*
X64000000Y-111750000D01*
X58500000Y-111750000D01*
G75*
G03*
X65000000Y-105250000I0J6500000D01*
G01*
X65000000Y-110750000D01*
G37*
G36*
X65000000Y-99750000D02*
G01*
X65000000Y-105250000D01*
G75*
G03*
X58500000Y-98750000I-6500000J0D01*
G01*
X64000000Y-98750000D01*
X65000000Y-99750000D01*
G37*
D17*
%TO.C,H7*%
X70500000Y-70000000D02*
X73000000Y-70000000D01*
X75500002Y-58750000D02*
X69400000Y-58750000D01*
X76506990Y-54996229D02*
X71200000Y-51950000D01*
X76506990Y-62503772D02*
X71200000Y-65550000D01*
X79246228Y-52256990D02*
X76200000Y-46950000D01*
X79246229Y-65243010D02*
X76200000Y-70550000D01*
X83000000Y-51250000D02*
X82996669Y-45130896D01*
X86753771Y-52256990D02*
X89800000Y-46950000D01*
X86753772Y-65243010D02*
X89805772Y-70546672D01*
X89493010Y-54996228D02*
X94800000Y-51950000D01*
X89493010Y-62503771D02*
X94800000Y-65550000D01*
X90500000Y-58750000D02*
X96600000Y-58750000D01*
X93000000Y-70000000D02*
X95500000Y-70000000D01*
X94250000Y-68750000D02*
X94250000Y-71250000D01*
X76200000Y-70550000D02*
G75*
G02*
X89805772Y-70546672I6800000J11800000D01*
G01*
D16*
%TO.C,H6*%
G36*
X52000000Y-67000000D02*
G01*
X52000000Y-67000000D01*
G75*
G03*
X58500000Y-73500000I6500000J0D01*
G01*
X53000000Y-73500000D01*
X52000000Y-72500000D01*
X52000000Y-67000000D01*
G37*
G36*
X58500000Y-60500000D02*
G01*
X58500000Y-60500000D01*
G75*
G03*
X52000000Y-67000000I0J-6500000D01*
G01*
X52000000Y-61500000D01*
X53000000Y-60500000D01*
X58500000Y-60500000D01*
G37*
G36*
X65000000Y-72500000D02*
G01*
X64000000Y-73500000D01*
X58500000Y-73500000D01*
G75*
G03*
X65000000Y-67000000I0J6500000D01*
G01*
X65000000Y-72500000D01*
G37*
G36*
X65000000Y-61500000D02*
G01*
X65000000Y-67000000D01*
G75*
G03*
X58500000Y-60500000I-6500000J0D01*
G01*
X64000000Y-60500000D01*
X65000000Y-61500000D01*
G37*
D17*
%TO.C,H13*%
X70500000Y-146250000D02*
X73000000Y-146250000D01*
X75500002Y-135000000D02*
X69400000Y-135000000D01*
X76506990Y-131246229D02*
X71200000Y-128200000D01*
X76506990Y-138753772D02*
X71200000Y-141800000D01*
X79246228Y-128506990D02*
X76200000Y-123200000D01*
X79246229Y-141493010D02*
X76200000Y-146800000D01*
X83000000Y-127500000D02*
X82996669Y-121380896D01*
X86753771Y-128506990D02*
X89800000Y-123200000D01*
X86753772Y-141493010D02*
X89805772Y-146796672D01*
X89493010Y-131246228D02*
X94800000Y-128200000D01*
X89493010Y-138753771D02*
X94800000Y-141800000D01*
X90500000Y-135000000D02*
X96600000Y-135000000D01*
X93000000Y-146250000D02*
X95500000Y-146250000D01*
X94250000Y-145000000D02*
X94250000Y-147500000D01*
X76200000Y-146800000D02*
G75*
G02*
X89805772Y-146796672I6800000J11800000D01*
G01*
%TD*%
%LPC*%
D18*
%TO.C,H3*%
X53500000Y-226500000D03*
%TD*%
D19*
%TO.C,H23*%
X52800000Y-192250000D03*
X54460000Y-188220000D03*
X54470000Y-196290000D03*
X58500000Y-186550000D03*
D20*
X58500000Y-192250000D03*
D19*
X58500000Y-197950000D03*
X62530000Y-196290000D03*
X62540000Y-188220000D03*
X64200000Y-192250000D03*
%TD*%
%TO.C,H27*%
X69300000Y-208750000D03*
X70960000Y-204720000D03*
X70970000Y-212790000D03*
X75000000Y-203050000D03*
D20*
X75000000Y-208750000D03*
D19*
X75000000Y-214450000D03*
X79030000Y-212790000D03*
X79040000Y-204720000D03*
X80700000Y-208750000D03*
%TD*%
%TO.C,H12*%
X52800000Y-143500000D03*
X54460000Y-139470000D03*
X54470000Y-147540000D03*
X58500000Y-137800000D03*
D20*
X58500000Y-143500000D03*
D19*
X58500000Y-149200000D03*
X62530000Y-147540000D03*
X62540000Y-139470000D03*
X64200000Y-143500000D03*
%TD*%
%TO.C,H5*%
X52800000Y-50000000D03*
X54460000Y-45970000D03*
X54470000Y-54040000D03*
X58500000Y-44300000D03*
D20*
X58500000Y-50000000D03*
D19*
X58500000Y-55700000D03*
X62530000Y-54040000D03*
X62540000Y-45970000D03*
X64200000Y-50000000D03*
%TD*%
%TO.C,H22*%
X85800000Y-175750000D03*
X87460000Y-171720000D03*
X87470000Y-179790000D03*
X91500000Y-170050000D03*
D20*
X91500000Y-175750000D03*
D19*
X91500000Y-181450000D03*
X95530000Y-179790000D03*
X95540000Y-171720000D03*
X97200000Y-175750000D03*
%TD*%
%TO.C,H24*%
X69300000Y-192250000D03*
X70960000Y-188220000D03*
X70970000Y-196290000D03*
X75000000Y-186550000D03*
D20*
X75000000Y-192250000D03*
D19*
X75000000Y-197950000D03*
X79030000Y-196290000D03*
X79040000Y-188220000D03*
X80700000Y-192250000D03*
%TD*%
%TO.C,H8*%
X52800000Y-88250000D03*
X54460000Y-84220000D03*
X54470000Y-92290000D03*
X58500000Y-82550000D03*
D20*
X58500000Y-88250000D03*
D19*
X58500000Y-93950000D03*
X62530000Y-92290000D03*
X62540000Y-84220000D03*
X64200000Y-88250000D03*
%TD*%
%TO.C,H26*%
X52800000Y-208750000D03*
X54460000Y-204720000D03*
X54470000Y-212790000D03*
X58500000Y-203050000D03*
D20*
X58500000Y-208750000D03*
D19*
X58500000Y-214450000D03*
X62530000Y-212790000D03*
X62540000Y-204720000D03*
X64200000Y-208750000D03*
%TD*%
D20*
%TO.C,H10*%
X83000000Y-97000000D03*
%TD*%
D19*
%TO.C,H28*%
X85800000Y-208750000D03*
X87460000Y-204720000D03*
X87470000Y-212790000D03*
X91500000Y-203050000D03*
D20*
X91500000Y-208750000D03*
D19*
X91500000Y-214450000D03*
X95530000Y-212790000D03*
X95540000Y-204720000D03*
X97200000Y-208750000D03*
%TD*%
%TO.C,H21*%
X69300000Y-175750000D03*
X70960000Y-171720000D03*
X70970000Y-179790000D03*
X75000000Y-170050000D03*
D20*
X75000000Y-175750000D03*
D19*
X75000000Y-181450000D03*
X79030000Y-179790000D03*
X79040000Y-171720000D03*
X80700000Y-175750000D03*
%TD*%
%TO.C,H25*%
X85800000Y-192250000D03*
X87460000Y-188220000D03*
X87470000Y-196290000D03*
X91500000Y-186550000D03*
D20*
X91500000Y-192250000D03*
D19*
X91500000Y-197950000D03*
X95530000Y-196290000D03*
X95540000Y-188220000D03*
X97200000Y-192250000D03*
%TD*%
%TO.C,H11*%
X52800000Y-126500000D03*
X54460000Y-122470000D03*
X54470000Y-130540000D03*
X58500000Y-120800000D03*
D20*
X58500000Y-126500000D03*
D19*
X58500000Y-132200000D03*
X62530000Y-130540000D03*
X62540000Y-122470000D03*
X64200000Y-126500000D03*
%TD*%
%TO.C,H9*%
X52800000Y-105250000D03*
X54460000Y-101220000D03*
X54470000Y-109290000D03*
X58500000Y-99550000D03*
D20*
X58500000Y-105250000D03*
D19*
X58500000Y-110950000D03*
X62530000Y-109290000D03*
X62540000Y-101220000D03*
X64200000Y-105250000D03*
%TD*%
D20*
%TO.C,H7*%
X83000000Y-58750000D03*
%TD*%
D18*
%TO.C,H2*%
X96500000Y-33500000D03*
%TD*%
%TO.C,H4*%
X96500000Y-226500000D03*
%TD*%
D19*
%TO.C,H20*%
X52800000Y-175750000D03*
X54460000Y-171720000D03*
X54470000Y-179790000D03*
X58500000Y-170050000D03*
D20*
X58500000Y-175750000D03*
D19*
X58500000Y-181450000D03*
X62530000Y-179790000D03*
X62540000Y-171720000D03*
X64200000Y-175750000D03*
%TD*%
%TO.C,H6*%
X52800000Y-67000000D03*
X54460000Y-62970000D03*
X54470000Y-71040000D03*
X58500000Y-61300000D03*
D20*
X58500000Y-67000000D03*
D19*
X58500000Y-72700000D03*
X62530000Y-71040000D03*
X62540000Y-62970000D03*
X64200000Y-67000000D03*
%TD*%
D18*
%TO.C,H1*%
X53500000Y-33500000D03*
%TD*%
D20*
%TO.C,H13*%
X83000000Y-135000000D03*
%TD*%
%LPD*%
M02*
