%TF.GenerationSoftware,KiCad,Pcbnew,9.0.0*%
%TF.CreationDate,2025-03-15T22:48:14+01:00*%
%TF.ProjectId,DMH_Multiverter_Mk2_PANEL,444d485f-4d75-46c7-9469-766572746572,rev?*%
%TF.SameCoordinates,Original*%
%TF.FileFunction,Legend,Bot*%
%TF.FilePolarity,Positive*%
%FSLAX46Y46*%
G04 Gerber Fmt 4.6, Leading zero omitted, Abs format (unit mm)*
G04 Created by KiCad (PCBNEW 9.0.0) date 2025-03-15 22:48:14*
%MOMM*%
%LPD*%
G01*
G04 APERTURE LIST*
%ADD10C,0.100000*%
%ADD11C,0.300000*%
%ADD12C,4.000000*%
%ADD13C,0.500000*%
%ADD14C,12.000000*%
%ADD15R,5.000000X10.000000*%
G04 APERTURE END LIST*
D10*
X70000000Y-225450000D02*
X80000000Y-225450000D01*
X80000000Y-227450000D01*
X70000000Y-227450000D01*
X70000000Y-225450000D01*
G36*
X70000000Y-225450000D02*
G01*
X80000000Y-225450000D01*
X80000000Y-227450000D01*
X70000000Y-227450000D01*
X70000000Y-225450000D01*
G37*
D11*
X86714284Y-223628328D02*
X86714284Y-222128328D01*
X86714284Y-222128328D02*
X86214284Y-223199757D01*
X86214284Y-223199757D02*
X85714284Y-222128328D01*
X85714284Y-222128328D02*
X85714284Y-223628328D01*
X84999998Y-223628328D02*
X84999998Y-222128328D01*
X84857141Y-223056900D02*
X84428569Y-223628328D01*
X84428569Y-222628328D02*
X84999998Y-223199757D01*
X83857140Y-222271185D02*
X83785712Y-222199757D01*
X83785712Y-222199757D02*
X83642855Y-222128328D01*
X83642855Y-222128328D02*
X83285712Y-222128328D01*
X83285712Y-222128328D02*
X83142855Y-222199757D01*
X83142855Y-222199757D02*
X83071426Y-222271185D01*
X83071426Y-222271185D02*
X82999997Y-222414042D01*
X82999997Y-222414042D02*
X82999997Y-222556900D01*
X82999997Y-222556900D02*
X83071426Y-222771185D01*
X83071426Y-222771185D02*
X83928569Y-223628328D01*
X83928569Y-223628328D02*
X82999997Y-223628328D01*
X82357141Y-223485471D02*
X82285712Y-223556900D01*
X82285712Y-223556900D02*
X82357141Y-223628328D01*
X82357141Y-223628328D02*
X82428569Y-223556900D01*
X82428569Y-223556900D02*
X82357141Y-223485471D01*
X82357141Y-223485471D02*
X82357141Y-223628328D01*
X81357140Y-222128328D02*
X81214283Y-222128328D01*
X81214283Y-222128328D02*
X81071426Y-222199757D01*
X81071426Y-222199757D02*
X80999998Y-222271185D01*
X80999998Y-222271185D02*
X80928569Y-222414042D01*
X80928569Y-222414042D02*
X80857140Y-222699757D01*
X80857140Y-222699757D02*
X80857140Y-223056900D01*
X80857140Y-223056900D02*
X80928569Y-223342614D01*
X80928569Y-223342614D02*
X80999998Y-223485471D01*
X80999998Y-223485471D02*
X81071426Y-223556900D01*
X81071426Y-223556900D02*
X81214283Y-223628328D01*
X81214283Y-223628328D02*
X81357140Y-223628328D01*
X81357140Y-223628328D02*
X81499998Y-223556900D01*
X81499998Y-223556900D02*
X81571426Y-223485471D01*
X81571426Y-223485471D02*
X81642855Y-223342614D01*
X81642855Y-223342614D02*
X81714283Y-223056900D01*
X81714283Y-223056900D02*
X81714283Y-222699757D01*
X81714283Y-222699757D02*
X81642855Y-222414042D01*
X81642855Y-222414042D02*
X81571426Y-222271185D01*
X81571426Y-222271185D02*
X81499998Y-222199757D01*
X81499998Y-222199757D02*
X81357140Y-222128328D01*
X79071427Y-223056900D02*
X77928570Y-223056900D01*
X76071427Y-223628328D02*
X76071427Y-222128328D01*
X76071427Y-222128328D02*
X75571427Y-223199757D01*
X75571427Y-223199757D02*
X75071427Y-222128328D01*
X75071427Y-222128328D02*
X75071427Y-223628328D01*
X73714284Y-223628328D02*
X73714284Y-222842614D01*
X73714284Y-222842614D02*
X73785712Y-222699757D01*
X73785712Y-222699757D02*
X73928569Y-222628328D01*
X73928569Y-222628328D02*
X74214284Y-222628328D01*
X74214284Y-222628328D02*
X74357141Y-222699757D01*
X73714284Y-223556900D02*
X73857141Y-223628328D01*
X73857141Y-223628328D02*
X74214284Y-223628328D01*
X74214284Y-223628328D02*
X74357141Y-223556900D01*
X74357141Y-223556900D02*
X74428569Y-223414042D01*
X74428569Y-223414042D02*
X74428569Y-223271185D01*
X74428569Y-223271185D02*
X74357141Y-223128328D01*
X74357141Y-223128328D02*
X74214284Y-223056900D01*
X74214284Y-223056900D02*
X73857141Y-223056900D01*
X73857141Y-223056900D02*
X73714284Y-222985471D01*
X72999998Y-223628328D02*
X72999998Y-222628328D01*
X72999998Y-222914042D02*
X72928569Y-222771185D01*
X72928569Y-222771185D02*
X72857141Y-222699757D01*
X72857141Y-222699757D02*
X72714283Y-222628328D01*
X72714283Y-222628328D02*
X72571426Y-222628328D01*
X71428570Y-223556900D02*
X71571427Y-223628328D01*
X71571427Y-223628328D02*
X71857141Y-223628328D01*
X71857141Y-223628328D02*
X71999998Y-223556900D01*
X71999998Y-223556900D02*
X72071427Y-223485471D01*
X72071427Y-223485471D02*
X72142855Y-223342614D01*
X72142855Y-223342614D02*
X72142855Y-222914042D01*
X72142855Y-222914042D02*
X72071427Y-222771185D01*
X72071427Y-222771185D02*
X71999998Y-222699757D01*
X71999998Y-222699757D02*
X71857141Y-222628328D01*
X71857141Y-222628328D02*
X71571427Y-222628328D01*
X71571427Y-222628328D02*
X71428570Y-222699757D01*
X70785713Y-223628328D02*
X70785713Y-222128328D01*
X70142856Y-223628328D02*
X70142856Y-222842614D01*
X70142856Y-222842614D02*
X70214284Y-222699757D01*
X70214284Y-222699757D02*
X70357141Y-222628328D01*
X70357141Y-222628328D02*
X70571427Y-222628328D01*
X70571427Y-222628328D02*
X70714284Y-222699757D01*
X70714284Y-222699757D02*
X70785713Y-222771185D01*
X68357141Y-222271185D02*
X68285713Y-222199757D01*
X68285713Y-222199757D02*
X68142856Y-222128328D01*
X68142856Y-222128328D02*
X67785713Y-222128328D01*
X67785713Y-222128328D02*
X67642856Y-222199757D01*
X67642856Y-222199757D02*
X67571427Y-222271185D01*
X67571427Y-222271185D02*
X67499998Y-222414042D01*
X67499998Y-222414042D02*
X67499998Y-222556900D01*
X67499998Y-222556900D02*
X67571427Y-222771185D01*
X67571427Y-222771185D02*
X68428570Y-223628328D01*
X68428570Y-223628328D02*
X67499998Y-223628328D01*
X66571427Y-222128328D02*
X66428570Y-222128328D01*
X66428570Y-222128328D02*
X66285713Y-222199757D01*
X66285713Y-222199757D02*
X66214285Y-222271185D01*
X66214285Y-222271185D02*
X66142856Y-222414042D01*
X66142856Y-222414042D02*
X66071427Y-222699757D01*
X66071427Y-222699757D02*
X66071427Y-223056900D01*
X66071427Y-223056900D02*
X66142856Y-223342614D01*
X66142856Y-223342614D02*
X66214285Y-223485471D01*
X66214285Y-223485471D02*
X66285713Y-223556900D01*
X66285713Y-223556900D02*
X66428570Y-223628328D01*
X66428570Y-223628328D02*
X66571427Y-223628328D01*
X66571427Y-223628328D02*
X66714285Y-223556900D01*
X66714285Y-223556900D02*
X66785713Y-223485471D01*
X66785713Y-223485471D02*
X66857142Y-223342614D01*
X66857142Y-223342614D02*
X66928570Y-223056900D01*
X66928570Y-223056900D02*
X66928570Y-222699757D01*
X66928570Y-222699757D02*
X66857142Y-222414042D01*
X66857142Y-222414042D02*
X66785713Y-222271185D01*
X66785713Y-222271185D02*
X66714285Y-222199757D01*
X66714285Y-222199757D02*
X66571427Y-222128328D01*
X65499999Y-222271185D02*
X65428571Y-222199757D01*
X65428571Y-222199757D02*
X65285714Y-222128328D01*
X65285714Y-222128328D02*
X64928571Y-222128328D01*
X64928571Y-222128328D02*
X64785714Y-222199757D01*
X64785714Y-222199757D02*
X64714285Y-222271185D01*
X64714285Y-222271185D02*
X64642856Y-222414042D01*
X64642856Y-222414042D02*
X64642856Y-222556900D01*
X64642856Y-222556900D02*
X64714285Y-222771185D01*
X64714285Y-222771185D02*
X65571428Y-223628328D01*
X65571428Y-223628328D02*
X64642856Y-223628328D01*
X63285714Y-222128328D02*
X64000000Y-222128328D01*
X64000000Y-222128328D02*
X64071428Y-222842614D01*
X64071428Y-222842614D02*
X64000000Y-222771185D01*
X64000000Y-222771185D02*
X63857143Y-222699757D01*
X63857143Y-222699757D02*
X63500000Y-222699757D01*
X63500000Y-222699757D02*
X63357143Y-222771185D01*
X63357143Y-222771185D02*
X63285714Y-222842614D01*
X63285714Y-222842614D02*
X63214285Y-222985471D01*
X63214285Y-222985471D02*
X63214285Y-223342614D01*
X63214285Y-223342614D02*
X63285714Y-223485471D01*
X63285714Y-223485471D02*
X63357143Y-223556900D01*
X63357143Y-223556900D02*
X63500000Y-223628328D01*
X63500000Y-223628328D02*
X63857143Y-223628328D01*
X63857143Y-223628328D02*
X64000000Y-223556900D01*
X64000000Y-223556900D02*
X64071428Y-223485471D01*
X96142856Y-122999757D02*
X96285714Y-122928328D01*
X96285714Y-122928328D02*
X96499999Y-122928328D01*
X96499999Y-122928328D02*
X96714285Y-122999757D01*
X96714285Y-122999757D02*
X96857142Y-123142614D01*
X96857142Y-123142614D02*
X96928571Y-123285471D01*
X96928571Y-123285471D02*
X96999999Y-123571185D01*
X96999999Y-123571185D02*
X96999999Y-123785471D01*
X96999999Y-123785471D02*
X96928571Y-124071185D01*
X96928571Y-124071185D02*
X96857142Y-124214042D01*
X96857142Y-124214042D02*
X96714285Y-124356900D01*
X96714285Y-124356900D02*
X96499999Y-124428328D01*
X96499999Y-124428328D02*
X96357142Y-124428328D01*
X96357142Y-124428328D02*
X96142856Y-124356900D01*
X96142856Y-124356900D02*
X96071428Y-124285471D01*
X96071428Y-124285471D02*
X96071428Y-123785471D01*
X96071428Y-123785471D02*
X96357142Y-123785471D01*
X95428571Y-124428328D02*
X95428571Y-122928328D01*
X95428571Y-122928328D02*
X94571428Y-124428328D01*
X94571428Y-124428328D02*
X94571428Y-122928328D01*
X93857142Y-124428328D02*
X93857142Y-122928328D01*
X93857142Y-122928328D02*
X93499999Y-122928328D01*
X93499999Y-122928328D02*
X93285713Y-122999757D01*
X93285713Y-122999757D02*
X93142856Y-123142614D01*
X93142856Y-123142614D02*
X93071427Y-123285471D01*
X93071427Y-123285471D02*
X92999999Y-123571185D01*
X92999999Y-123571185D02*
X92999999Y-123785471D01*
X92999999Y-123785471D02*
X93071427Y-124071185D01*
X93071427Y-124071185D02*
X93142856Y-124214042D01*
X93142856Y-124214042D02*
X93285713Y-124356900D01*
X93285713Y-124356900D02*
X93499999Y-124428328D01*
X93499999Y-124428328D02*
X93857142Y-124428328D01*
%LPC*%
D12*
%TO.C,H3*%
X53500000Y-226500000D03*
%TD*%
D13*
%TO.C,H23*%
X52800000Y-192250000D03*
X54460000Y-188220000D03*
X54470000Y-196290000D03*
X58500000Y-186550000D03*
D14*
X58500000Y-192250000D03*
D13*
X58500000Y-197950000D03*
X62530000Y-196290000D03*
X62540000Y-188220000D03*
X64200000Y-192250000D03*
%TD*%
%TO.C,H27*%
X69300000Y-208750000D03*
X70960000Y-204720000D03*
X70970000Y-212790000D03*
X75000000Y-203050000D03*
D14*
X75000000Y-208750000D03*
D13*
X75000000Y-214450000D03*
X79030000Y-212790000D03*
X79040000Y-204720000D03*
X80700000Y-208750000D03*
%TD*%
%TO.C,H12*%
X52800000Y-143500000D03*
X54460000Y-139470000D03*
X54470000Y-147540000D03*
X58500000Y-137800000D03*
D14*
X58500000Y-143500000D03*
D13*
X58500000Y-149200000D03*
X62530000Y-147540000D03*
X62540000Y-139470000D03*
X64200000Y-143500000D03*
%TD*%
%TO.C,H5*%
X52800000Y-50000000D03*
X54460000Y-45970000D03*
X54470000Y-54040000D03*
X58500000Y-44300000D03*
D14*
X58500000Y-50000000D03*
D13*
X58500000Y-55700000D03*
X62530000Y-54040000D03*
X62540000Y-45970000D03*
X64200000Y-50000000D03*
%TD*%
%TO.C,H22*%
X85800000Y-175750000D03*
X87460000Y-171720000D03*
X87470000Y-179790000D03*
X91500000Y-170050000D03*
D14*
X91500000Y-175750000D03*
D13*
X91500000Y-181450000D03*
X95530000Y-179790000D03*
X95540000Y-171720000D03*
X97200000Y-175750000D03*
%TD*%
%TO.C,H24*%
X69300000Y-192250000D03*
X70960000Y-188220000D03*
X70970000Y-196290000D03*
X75000000Y-186550000D03*
D14*
X75000000Y-192250000D03*
D13*
X75000000Y-197950000D03*
X79030000Y-196290000D03*
X79040000Y-188220000D03*
X80700000Y-192250000D03*
%TD*%
%TO.C,H8*%
X52800000Y-88250000D03*
X54460000Y-84220000D03*
X54470000Y-92290000D03*
X58500000Y-82550000D03*
D14*
X58500000Y-88250000D03*
D13*
X58500000Y-93950000D03*
X62530000Y-92290000D03*
X62540000Y-84220000D03*
X64200000Y-88250000D03*
%TD*%
%TO.C,H26*%
X52800000Y-208750000D03*
X54460000Y-204720000D03*
X54470000Y-212790000D03*
X58500000Y-203050000D03*
D14*
X58500000Y-208750000D03*
D13*
X58500000Y-214450000D03*
X62530000Y-212790000D03*
X62540000Y-204720000D03*
X64200000Y-208750000D03*
%TD*%
D14*
%TO.C,H10*%
X83000000Y-97000000D03*
%TD*%
D13*
%TO.C,H28*%
X85800000Y-208750000D03*
X87460000Y-204720000D03*
X87470000Y-212790000D03*
X91500000Y-203050000D03*
D14*
X91500000Y-208750000D03*
D13*
X91500000Y-214450000D03*
X95530000Y-212790000D03*
X95540000Y-204720000D03*
X97200000Y-208750000D03*
%TD*%
%TO.C,H21*%
X69300000Y-175750000D03*
X70960000Y-171720000D03*
X70970000Y-179790000D03*
X75000000Y-170050000D03*
D14*
X75000000Y-175750000D03*
D13*
X75000000Y-181450000D03*
X79030000Y-179790000D03*
X79040000Y-171720000D03*
X80700000Y-175750000D03*
%TD*%
%TO.C,H25*%
X85800000Y-192250000D03*
X87460000Y-188220000D03*
X87470000Y-196290000D03*
X91500000Y-186550000D03*
D14*
X91500000Y-192250000D03*
D13*
X91500000Y-197950000D03*
X95530000Y-196290000D03*
X95540000Y-188220000D03*
X97200000Y-192250000D03*
%TD*%
%TO.C,H11*%
X52800000Y-126500000D03*
X54460000Y-122470000D03*
X54470000Y-130540000D03*
X58500000Y-120800000D03*
D14*
X58500000Y-126500000D03*
D13*
X58500000Y-132200000D03*
X62530000Y-130540000D03*
X62540000Y-122470000D03*
X64200000Y-126500000D03*
%TD*%
%TO.C,H9*%
X52800000Y-105250000D03*
X54460000Y-101220000D03*
X54470000Y-109290000D03*
X58500000Y-99550000D03*
D14*
X58500000Y-105250000D03*
D13*
X58500000Y-110950000D03*
X62530000Y-109290000D03*
X62540000Y-101220000D03*
X64200000Y-105250000D03*
%TD*%
D14*
%TO.C,H7*%
X83000000Y-58750000D03*
%TD*%
D12*
%TO.C,H2*%
X96500000Y-33500000D03*
%TD*%
%TO.C,H4*%
X96500000Y-226500000D03*
%TD*%
D13*
%TO.C,H20*%
X52800000Y-175750000D03*
X54460000Y-171720000D03*
X54470000Y-179790000D03*
X58500000Y-170050000D03*
D14*
X58500000Y-175750000D03*
D13*
X58500000Y-181450000D03*
X62530000Y-179790000D03*
X62540000Y-171720000D03*
X64200000Y-175750000D03*
%TD*%
%TO.C,H6*%
X52800000Y-67000000D03*
X54460000Y-62970000D03*
X54470000Y-71040000D03*
X58500000Y-61300000D03*
D14*
X58500000Y-67000000D03*
D13*
X58500000Y-72700000D03*
X62530000Y-71040000D03*
X62540000Y-62970000D03*
X64200000Y-67000000D03*
%TD*%
D12*
%TO.C,H1*%
X53500000Y-33500000D03*
%TD*%
D14*
%TO.C,H13*%
X83000000Y-135000000D03*
%TD*%
D15*
%TO.C,J0*%
X95000000Y-117000000D03*
%TD*%
%LPD*%
M02*
