%TF.GenerationSoftware,KiCad,Pcbnew,8.0.5*%
%TF.CreationDate,2024-12-03T23:35:51+01:00*%
%TF.ProjectId,DMH_Multiverter_PCB,444d485f-4d75-46c7-9469-766572746572,1*%
%TF.SameCoordinates,Original*%
%TF.FileFunction,Legend,Top*%
%TF.FilePolarity,Positive*%
%FSLAX46Y46*%
G04 Gerber Fmt 4.6, Leading zero omitted, Abs format (unit mm)*
G04 Created by KiCad (PCBNEW 8.0.5) date 2024-12-03 23:35:51*
%MOMM*%
%LPD*%
G01*
G04 APERTURE LIST*
G04 Aperture macros list*
%AMRoundRect*
0 Rectangle with rounded corners*
0 $1 Rounding radius*
0 $2 $3 $4 $5 $6 $7 $8 $9 X,Y pos of 4 corners*
0 Add a 4 corners polygon primitive as box body*
4,1,4,$2,$3,$4,$5,$6,$7,$8,$9,$2,$3,0*
0 Add four circle primitives for the rounded corners*
1,1,$1+$1,$2,$3*
1,1,$1+$1,$4,$5*
1,1,$1+$1,$6,$7*
1,1,$1+$1,$8,$9*
0 Add four rect primitives between the rounded corners*
20,1,$1+$1,$2,$3,$4,$5,0*
20,1,$1+$1,$4,$5,$6,$7,0*
20,1,$1+$1,$6,$7,$8,$9,0*
20,1,$1+$1,$8,$9,$2,$3,0*%
G04 Aperture macros list end*
%ADD10C,0.150000*%
%ADD11C,0.120000*%
%ADD12O,4.000000X4.200000*%
%ADD13C,1.800000*%
%ADD14R,1.800000X1.800000*%
%ADD15R,1.700000X1.700000*%
%ADD16C,1.600000*%
%ADD17O,1.600000X1.600000*%
%ADD18R,1.600000X1.600000*%
%ADD19R,2.200000X2.200000*%
%ADD20O,2.200000X2.200000*%
%ADD21O,1.700000X1.700000*%
%ADD22RoundRect,0.250000X0.600000X-0.600000X0.600000X0.600000X-0.600000X0.600000X-0.600000X-0.600000X0*%
%ADD23C,1.700000*%
%ADD24RoundRect,0.250000X-0.600000X-0.600000X0.600000X-0.600000X0.600000X0.600000X-0.600000X0.600000X0*%
G04 APERTURE END LIST*
D10*
X82404761Y-51554819D02*
X82071428Y-51078628D01*
X81833333Y-51554819D02*
X81833333Y-50554819D01*
X81833333Y-50554819D02*
X82214285Y-50554819D01*
X82214285Y-50554819D02*
X82309523Y-50602438D01*
X82309523Y-50602438D02*
X82357142Y-50650057D01*
X82357142Y-50650057D02*
X82404761Y-50745295D01*
X82404761Y-50745295D02*
X82404761Y-50888152D01*
X82404761Y-50888152D02*
X82357142Y-50983390D01*
X82357142Y-50983390D02*
X82309523Y-51031009D01*
X82309523Y-51031009D02*
X82214285Y-51078628D01*
X82214285Y-51078628D02*
X81833333Y-51078628D01*
X82690476Y-50554819D02*
X83023809Y-51554819D01*
X83023809Y-51554819D02*
X83357142Y-50554819D01*
X84214285Y-51554819D02*
X83642857Y-51554819D01*
X83928571Y-51554819D02*
X83928571Y-50554819D01*
X83928571Y-50554819D02*
X83833333Y-50697676D01*
X83833333Y-50697676D02*
X83738095Y-50792914D01*
X83738095Y-50792914D02*
X83642857Y-50840533D01*
X90454819Y-67571428D02*
X90454819Y-68142856D01*
X90454819Y-67857142D02*
X89454819Y-67857142D01*
X89454819Y-67857142D02*
X89597676Y-67952380D01*
X89597676Y-67952380D02*
X89692914Y-68047618D01*
X89692914Y-68047618D02*
X89740533Y-68142856D01*
X89454819Y-66952380D02*
X89454819Y-66857142D01*
X89454819Y-66857142D02*
X89502438Y-66761904D01*
X89502438Y-66761904D02*
X89550057Y-66714285D01*
X89550057Y-66714285D02*
X89645295Y-66666666D01*
X89645295Y-66666666D02*
X89835771Y-66619047D01*
X89835771Y-66619047D02*
X90073866Y-66619047D01*
X90073866Y-66619047D02*
X90264342Y-66666666D01*
X90264342Y-66666666D02*
X90359580Y-66714285D01*
X90359580Y-66714285D02*
X90407200Y-66761904D01*
X90407200Y-66761904D02*
X90454819Y-66857142D01*
X90454819Y-66857142D02*
X90454819Y-66952380D01*
X90454819Y-66952380D02*
X90407200Y-67047618D01*
X90407200Y-67047618D02*
X90359580Y-67095237D01*
X90359580Y-67095237D02*
X90264342Y-67142856D01*
X90264342Y-67142856D02*
X90073866Y-67190475D01*
X90073866Y-67190475D02*
X89835771Y-67190475D01*
X89835771Y-67190475D02*
X89645295Y-67142856D01*
X89645295Y-67142856D02*
X89550057Y-67095237D01*
X89550057Y-67095237D02*
X89502438Y-67047618D01*
X89502438Y-67047618D02*
X89454819Y-66952380D01*
X89454819Y-65999999D02*
X89454819Y-65904761D01*
X89454819Y-65904761D02*
X89502438Y-65809523D01*
X89502438Y-65809523D02*
X89550057Y-65761904D01*
X89550057Y-65761904D02*
X89645295Y-65714285D01*
X89645295Y-65714285D02*
X89835771Y-65666666D01*
X89835771Y-65666666D02*
X90073866Y-65666666D01*
X90073866Y-65666666D02*
X90264342Y-65714285D01*
X90264342Y-65714285D02*
X90359580Y-65761904D01*
X90359580Y-65761904D02*
X90407200Y-65809523D01*
X90407200Y-65809523D02*
X90454819Y-65904761D01*
X90454819Y-65904761D02*
X90454819Y-65999999D01*
X90454819Y-65999999D02*
X90407200Y-66095237D01*
X90407200Y-66095237D02*
X90359580Y-66142856D01*
X90359580Y-66142856D02*
X90264342Y-66190475D01*
X90264342Y-66190475D02*
X90073866Y-66238094D01*
X90073866Y-66238094D02*
X89835771Y-66238094D01*
X89835771Y-66238094D02*
X89645295Y-66190475D01*
X89645295Y-66190475D02*
X89550057Y-66142856D01*
X89550057Y-66142856D02*
X89502438Y-66095237D01*
X89502438Y-66095237D02*
X89454819Y-65999999D01*
X90454819Y-65238094D02*
X89454819Y-65238094D01*
X90073866Y-65142856D02*
X90454819Y-64857142D01*
X89788152Y-64857142D02*
X90169104Y-65238094D01*
X97416666Y-80704819D02*
X97416666Y-81419104D01*
X97416666Y-81419104D02*
X97369047Y-81561961D01*
X97369047Y-81561961D02*
X97273809Y-81657200D01*
X97273809Y-81657200D02*
X97130952Y-81704819D01*
X97130952Y-81704819D02*
X97035714Y-81704819D01*
X98083333Y-80704819D02*
X98178571Y-80704819D01*
X98178571Y-80704819D02*
X98273809Y-80752438D01*
X98273809Y-80752438D02*
X98321428Y-80800057D01*
X98321428Y-80800057D02*
X98369047Y-80895295D01*
X98369047Y-80895295D02*
X98416666Y-81085771D01*
X98416666Y-81085771D02*
X98416666Y-81323866D01*
X98416666Y-81323866D02*
X98369047Y-81514342D01*
X98369047Y-81514342D02*
X98321428Y-81609580D01*
X98321428Y-81609580D02*
X98273809Y-81657200D01*
X98273809Y-81657200D02*
X98178571Y-81704819D01*
X98178571Y-81704819D02*
X98083333Y-81704819D01*
X98083333Y-81704819D02*
X97988095Y-81657200D01*
X97988095Y-81657200D02*
X97940476Y-81609580D01*
X97940476Y-81609580D02*
X97892857Y-81514342D01*
X97892857Y-81514342D02*
X97845238Y-81323866D01*
X97845238Y-81323866D02*
X97845238Y-81085771D01*
X97845238Y-81085771D02*
X97892857Y-80895295D01*
X97892857Y-80895295D02*
X97940476Y-80800057D01*
X97940476Y-80800057D02*
X97988095Y-80752438D01*
X97988095Y-80752438D02*
X98083333Y-80704819D01*
X82404761Y-89804819D02*
X82071428Y-89328628D01*
X81833333Y-89804819D02*
X81833333Y-88804819D01*
X81833333Y-88804819D02*
X82214285Y-88804819D01*
X82214285Y-88804819D02*
X82309523Y-88852438D01*
X82309523Y-88852438D02*
X82357142Y-88900057D01*
X82357142Y-88900057D02*
X82404761Y-88995295D01*
X82404761Y-88995295D02*
X82404761Y-89138152D01*
X82404761Y-89138152D02*
X82357142Y-89233390D01*
X82357142Y-89233390D02*
X82309523Y-89281009D01*
X82309523Y-89281009D02*
X82214285Y-89328628D01*
X82214285Y-89328628D02*
X81833333Y-89328628D01*
X82690476Y-88804819D02*
X83023809Y-89804819D01*
X83023809Y-89804819D02*
X83357142Y-88804819D01*
X83642857Y-88900057D02*
X83690476Y-88852438D01*
X83690476Y-88852438D02*
X83785714Y-88804819D01*
X83785714Y-88804819D02*
X84023809Y-88804819D01*
X84023809Y-88804819D02*
X84119047Y-88852438D01*
X84119047Y-88852438D02*
X84166666Y-88900057D01*
X84166666Y-88900057D02*
X84214285Y-88995295D01*
X84214285Y-88995295D02*
X84214285Y-89090533D01*
X84214285Y-89090533D02*
X84166666Y-89233390D01*
X84166666Y-89233390D02*
X83595238Y-89804819D01*
X83595238Y-89804819D02*
X84214285Y-89804819D01*
X90454819Y-105821428D02*
X90454819Y-106392856D01*
X90454819Y-106107142D02*
X89454819Y-106107142D01*
X89454819Y-106107142D02*
X89597676Y-106202380D01*
X89597676Y-106202380D02*
X89692914Y-106297618D01*
X89692914Y-106297618D02*
X89740533Y-106392856D01*
X89454819Y-105202380D02*
X89454819Y-105107142D01*
X89454819Y-105107142D02*
X89502438Y-105011904D01*
X89502438Y-105011904D02*
X89550057Y-104964285D01*
X89550057Y-104964285D02*
X89645295Y-104916666D01*
X89645295Y-104916666D02*
X89835771Y-104869047D01*
X89835771Y-104869047D02*
X90073866Y-104869047D01*
X90073866Y-104869047D02*
X90264342Y-104916666D01*
X90264342Y-104916666D02*
X90359580Y-104964285D01*
X90359580Y-104964285D02*
X90407200Y-105011904D01*
X90407200Y-105011904D02*
X90454819Y-105107142D01*
X90454819Y-105107142D02*
X90454819Y-105202380D01*
X90454819Y-105202380D02*
X90407200Y-105297618D01*
X90407200Y-105297618D02*
X90359580Y-105345237D01*
X90359580Y-105345237D02*
X90264342Y-105392856D01*
X90264342Y-105392856D02*
X90073866Y-105440475D01*
X90073866Y-105440475D02*
X89835771Y-105440475D01*
X89835771Y-105440475D02*
X89645295Y-105392856D01*
X89645295Y-105392856D02*
X89550057Y-105345237D01*
X89550057Y-105345237D02*
X89502438Y-105297618D01*
X89502438Y-105297618D02*
X89454819Y-105202380D01*
X89454819Y-104249999D02*
X89454819Y-104154761D01*
X89454819Y-104154761D02*
X89502438Y-104059523D01*
X89502438Y-104059523D02*
X89550057Y-104011904D01*
X89550057Y-104011904D02*
X89645295Y-103964285D01*
X89645295Y-103964285D02*
X89835771Y-103916666D01*
X89835771Y-103916666D02*
X90073866Y-103916666D01*
X90073866Y-103916666D02*
X90264342Y-103964285D01*
X90264342Y-103964285D02*
X90359580Y-104011904D01*
X90359580Y-104011904D02*
X90407200Y-104059523D01*
X90407200Y-104059523D02*
X90454819Y-104154761D01*
X90454819Y-104154761D02*
X90454819Y-104249999D01*
X90454819Y-104249999D02*
X90407200Y-104345237D01*
X90407200Y-104345237D02*
X90359580Y-104392856D01*
X90359580Y-104392856D02*
X90264342Y-104440475D01*
X90264342Y-104440475D02*
X90073866Y-104488094D01*
X90073866Y-104488094D02*
X89835771Y-104488094D01*
X89835771Y-104488094D02*
X89645295Y-104440475D01*
X89645295Y-104440475D02*
X89550057Y-104392856D01*
X89550057Y-104392856D02*
X89502438Y-104345237D01*
X89502438Y-104345237D02*
X89454819Y-104249999D01*
X90454819Y-103488094D02*
X89454819Y-103488094D01*
X90073866Y-103392856D02*
X90454819Y-103107142D01*
X89788152Y-103107142D02*
X90169104Y-103488094D01*
D11*
%TO.C,RV1*%
X77100000Y-52130000D02*
X77100000Y-56500000D01*
X77100000Y-61050000D02*
X77100000Y-68870000D01*
X78100000Y-68870000D02*
X77100000Y-68870000D01*
X88900000Y-52130000D02*
X77100000Y-52130000D01*
X88900000Y-52130000D02*
X88900000Y-56500000D01*
X88900000Y-61050000D02*
X88900000Y-68870000D01*
X88900000Y-68870000D02*
X87900000Y-68870000D01*
%TO.C,J0*%
X94420000Y-79920000D02*
X95750000Y-79920000D01*
X94420000Y-81250000D02*
X94420000Y-79920000D01*
X94420000Y-82520000D02*
X94420000Y-82580000D01*
X94420000Y-82520000D02*
X97080000Y-82520000D01*
X94420000Y-82580000D02*
X97080000Y-82580000D01*
X97080000Y-82520000D02*
X97080000Y-82580000D01*
%TO.C,RV2*%
X77100000Y-90380000D02*
X77100000Y-94750000D01*
X77100000Y-99300000D02*
X77100000Y-107120000D01*
X78100000Y-107120000D02*
X77100000Y-107120000D01*
X88900000Y-90380000D02*
X77100000Y-90380000D01*
X88900000Y-90380000D02*
X88900000Y-94750000D01*
X88900000Y-99300000D02*
X88900000Y-107120000D01*
X88900000Y-107120000D02*
X87900000Y-107120000D01*
%TD*%
%LPC*%
D12*
%TO.C,RV1*%
X77200000Y-58750000D03*
D13*
X86750000Y-69750000D03*
D12*
X88800000Y-58750000D03*
D14*
X79250000Y-69750000D03*
D13*
X81750000Y-69750000D03*
X84250000Y-69750000D03*
%TD*%
D15*
%TO.C,J0*%
X95750000Y-81250000D03*
%TD*%
D12*
%TO.C,RV2*%
X77200000Y-97000000D03*
D13*
X86750000Y-108000000D03*
D12*
X88800000Y-97000000D03*
D14*
X79250000Y-108000000D03*
D13*
X81750000Y-108000000D03*
X84250000Y-108000000D03*
%TD*%
D16*
%TO.C,R1*%
X90500000Y-69440000D03*
D17*
X90500000Y-77060000D03*
%TD*%
D16*
%TO.C,C6*%
X77500000Y-86500000D03*
X82500000Y-86500000D03*
%TD*%
D18*
%TO.C,U1*%
X83800000Y-75950000D03*
D17*
X83800000Y-78490000D03*
X83800000Y-81030000D03*
X83800000Y-83570000D03*
X76180000Y-83570000D03*
X76180000Y-81030000D03*
X76180000Y-78490000D03*
X76180000Y-75950000D03*
%TD*%
D16*
%TO.C,C4*%
X92250000Y-62000000D03*
X92250000Y-67000000D03*
%TD*%
%TO.C,R3*%
X97000000Y-69440000D03*
D17*
X97000000Y-77060000D03*
%TD*%
D19*
%TO.C,D2*%
X97000000Y-54420000D03*
D20*
X97000000Y-64580000D03*
%TD*%
D15*
%TO.C,J60*%
X89325000Y-115475000D03*
D21*
X86785000Y-115475000D03*
X84245000Y-115475000D03*
X81705000Y-115475000D03*
X79165000Y-115475000D03*
X76625000Y-115475000D03*
%TD*%
D16*
%TO.C,R4*%
X90500000Y-93060000D03*
D17*
X90500000Y-85440000D03*
%TD*%
D16*
%TO.C,R2*%
X93750000Y-77060000D03*
D17*
X93750000Y-69440000D03*
%TD*%
D15*
%TO.C,J50*%
X68975000Y-71175000D03*
D21*
X68975000Y-73715000D03*
X68975000Y-76255000D03*
X68975000Y-78795000D03*
X68975000Y-81335000D03*
X68975000Y-83875000D03*
%TD*%
D19*
%TO.C,D1*%
X69750000Y-55080000D03*
D20*
X69750000Y-44920000D03*
%TD*%
D18*
%TO.C,C2*%
X92500000Y-56455113D03*
D16*
X92500000Y-54455113D03*
%TD*%
%TO.C,R6*%
X97000000Y-85440000D03*
D17*
X97000000Y-93060000D03*
%TD*%
D16*
%TO.C,R5*%
X93750000Y-93060000D03*
D17*
X93750000Y-85440000D03*
%TD*%
D16*
%TO.C,C5*%
X77500000Y-73000000D03*
X82500000Y-73000000D03*
%TD*%
%TO.C,C3*%
X69750000Y-59750000D03*
X69750000Y-64750000D03*
%TD*%
D22*
%TO.C,J100*%
X93080000Y-49002500D03*
D23*
X93080000Y-46462500D03*
X90540000Y-49002500D03*
X90540000Y-46462500D03*
X88000000Y-49002500D03*
X88000000Y-46462500D03*
X85460000Y-49002500D03*
X85460000Y-46462500D03*
X82920000Y-49002500D03*
X82920000Y-46462500D03*
%TD*%
D18*
%TO.C,C1*%
X74750000Y-53044888D03*
D16*
X74750000Y-55044888D03*
%TD*%
D24*
%TO.C,J200*%
X92747500Y-106790000D03*
D23*
X92747500Y-104250000D03*
X92747500Y-101710000D03*
X95287500Y-106790000D03*
X95287500Y-104250000D03*
X95287500Y-101710000D03*
%TD*%
%LPD*%
M02*
