%TF.GenerationSoftware,KiCad,Pcbnew,9.0.0*%
%TF.CreationDate,2025-03-15T22:52:11+01:00*%
%TF.ProjectId,DMH_Multiverter_Mk2_PCB,444d485f-4d75-46c7-9469-766572746572,1*%
%TF.SameCoordinates,Original*%
%TF.FileFunction,Drillmap*%
%TF.FilePolarity,Positive*%
%FSLAX45Y45*%
G04 Gerber Fmt 4.5, Leading zero omitted, Abs format (unit mm)*
G04 Created by KiCad (PCBNEW 9.0.0) date 2025-03-15 22:52:11*
%MOMM*%
%LPD*%
G01*
G04 APERTURE LIST*
%ADD10C,0.050000*%
%ADD11C,0.200000*%
G04 APERTURE END LIST*
D10*
X6700000Y-4250000D02*
X9900000Y-4250000D01*
X9900000Y-16700000D01*
X6700000Y-16700000D01*
X6700000Y-4250000D01*
D11*
X6958277Y-17013984D02*
X6958277Y-16813984D01*
X6958277Y-16813984D02*
X7005896Y-16813984D01*
X7005896Y-16813984D02*
X7034467Y-16823508D01*
X7034467Y-16823508D02*
X7053515Y-16842555D01*
X7053515Y-16842555D02*
X7063039Y-16861603D01*
X7063039Y-16861603D02*
X7072562Y-16899698D01*
X7072562Y-16899698D02*
X7072562Y-16928270D01*
X7072562Y-16928270D02*
X7063039Y-16966365D01*
X7063039Y-16966365D02*
X7053515Y-16985412D01*
X7053515Y-16985412D02*
X7034467Y-17004460D01*
X7034467Y-17004460D02*
X7005896Y-17013984D01*
X7005896Y-17013984D02*
X6958277Y-17013984D01*
X7158277Y-17013984D02*
X7158277Y-16880650D01*
X7158277Y-16918746D02*
X7167801Y-16899698D01*
X7167801Y-16899698D02*
X7177324Y-16890174D01*
X7177324Y-16890174D02*
X7196372Y-16880650D01*
X7196372Y-16880650D02*
X7215420Y-16880650D01*
X7282086Y-17013984D02*
X7282086Y-16880650D01*
X7282086Y-16813984D02*
X7272562Y-16823508D01*
X7272562Y-16823508D02*
X7282086Y-16833031D01*
X7282086Y-16833031D02*
X7291610Y-16823508D01*
X7291610Y-16823508D02*
X7282086Y-16813984D01*
X7282086Y-16813984D02*
X7282086Y-16833031D01*
X7405896Y-17013984D02*
X7386848Y-17004460D01*
X7386848Y-17004460D02*
X7377324Y-16985412D01*
X7377324Y-16985412D02*
X7377324Y-16813984D01*
X7510658Y-17013984D02*
X7491610Y-17004460D01*
X7491610Y-17004460D02*
X7482086Y-16985412D01*
X7482086Y-16985412D02*
X7482086Y-16813984D01*
X7739229Y-17013984D02*
X7739229Y-16813984D01*
X7739229Y-16813984D02*
X7805896Y-16956841D01*
X7805896Y-16956841D02*
X7872562Y-16813984D01*
X7872562Y-16813984D02*
X7872562Y-17013984D01*
X8053515Y-17013984D02*
X8053515Y-16909222D01*
X8053515Y-16909222D02*
X8043991Y-16890174D01*
X8043991Y-16890174D02*
X8024943Y-16880650D01*
X8024943Y-16880650D02*
X7986848Y-16880650D01*
X7986848Y-16880650D02*
X7967801Y-16890174D01*
X8053515Y-17004460D02*
X8034467Y-17013984D01*
X8034467Y-17013984D02*
X7986848Y-17013984D01*
X7986848Y-17013984D02*
X7967801Y-17004460D01*
X7967801Y-17004460D02*
X7958277Y-16985412D01*
X7958277Y-16985412D02*
X7958277Y-16966365D01*
X7958277Y-16966365D02*
X7967801Y-16947317D01*
X7967801Y-16947317D02*
X7986848Y-16937793D01*
X7986848Y-16937793D02*
X8034467Y-16937793D01*
X8034467Y-16937793D02*
X8053515Y-16928270D01*
X8148753Y-16880650D02*
X8148753Y-17080650D01*
X8148753Y-16890174D02*
X8167801Y-16880650D01*
X8167801Y-16880650D02*
X8205896Y-16880650D01*
X8205896Y-16880650D02*
X8224943Y-16890174D01*
X8224943Y-16890174D02*
X8234467Y-16899698D01*
X8234467Y-16899698D02*
X8243991Y-16918746D01*
X8243991Y-16918746D02*
X8243991Y-16975889D01*
X8243991Y-16975889D02*
X8234467Y-16994936D01*
X8234467Y-16994936D02*
X8224943Y-17004460D01*
X8224943Y-17004460D02*
X8205896Y-17013984D01*
X8205896Y-17013984D02*
X8167801Y-17013984D01*
X8167801Y-17013984D02*
X8148753Y-17004460D01*
X8329705Y-16994936D02*
X8339229Y-17004460D01*
X8339229Y-17004460D02*
X8329705Y-17013984D01*
X8329705Y-17013984D02*
X8320182Y-17004460D01*
X8320182Y-17004460D02*
X8329705Y-16994936D01*
X8329705Y-16994936D02*
X8329705Y-17013984D01*
X8329705Y-16890174D02*
X8339229Y-16899698D01*
X8339229Y-16899698D02*
X8329705Y-16909222D01*
X8329705Y-16909222D02*
X8320182Y-16899698D01*
X8320182Y-16899698D02*
X8329705Y-16890174D01*
X8329705Y-16890174D02*
X8329705Y-16909222D01*
M02*
