%TF.GenerationSoftware,KiCad,Pcbnew,8.0.5*%
%TF.CreationDate,2024-12-03T23:35:51+01:00*%
%TF.ProjectId,DMH_Multiverter_PCB,444d485f-4d75-46c7-9469-766572746572,1*%
%TF.SameCoordinates,Original*%
%TF.FileFunction,Soldermask,Bot*%
%TF.FilePolarity,Negative*%
%FSLAX46Y46*%
G04 Gerber Fmt 4.6, Leading zero omitted, Abs format (unit mm)*
G04 Created by KiCad (PCBNEW 8.0.5) date 2024-12-03 23:35:51*
%MOMM*%
%LPD*%
G01*
G04 APERTURE LIST*
G04 Aperture macros list*
%AMRoundRect*
0 Rectangle with rounded corners*
0 $1 Rounding radius*
0 $2 $3 $4 $5 $6 $7 $8 $9 X,Y pos of 4 corners*
0 Add a 4 corners polygon primitive as box body*
4,1,4,$2,$3,$4,$5,$6,$7,$8,$9,$2,$3,0*
0 Add four circle primitives for the rounded corners*
1,1,$1+$1,$2,$3*
1,1,$1+$1,$4,$5*
1,1,$1+$1,$6,$7*
1,1,$1+$1,$8,$9*
0 Add four rect primitives between the rounded corners*
20,1,$1+$1,$2,$3,$4,$5,0*
20,1,$1+$1,$4,$5,$6,$7,0*
20,1,$1+$1,$6,$7,$8,$9,0*
20,1,$1+$1,$8,$9,$2,$3,0*%
G04 Aperture macros list end*
%ADD10O,4.000000X4.200000*%
%ADD11C,1.800000*%
%ADD12R,1.800000X1.800000*%
%ADD13R,1.700000X1.700000*%
%ADD14C,1.600000*%
%ADD15O,1.600000X1.600000*%
%ADD16R,1.600000X1.600000*%
%ADD17R,2.200000X2.200000*%
%ADD18O,2.200000X2.200000*%
%ADD19O,1.700000X1.700000*%
%ADD20RoundRect,0.250000X0.600000X-0.600000X0.600000X0.600000X-0.600000X0.600000X-0.600000X-0.600000X0*%
%ADD21C,1.700000*%
%ADD22RoundRect,0.250000X-0.600000X-0.600000X0.600000X-0.600000X0.600000X0.600000X-0.600000X0.600000X0*%
G04 APERTURE END LIST*
D10*
%TO.C,RV1*%
X77200000Y-58750000D03*
D11*
X86750000Y-69750000D03*
D10*
X88800000Y-58750000D03*
D12*
X79250000Y-69750000D03*
D11*
X81750000Y-69750000D03*
X84250000Y-69750000D03*
%TD*%
D13*
%TO.C,J0*%
X95750000Y-81250000D03*
%TD*%
D10*
%TO.C,RV2*%
X77200000Y-97000000D03*
D11*
X86750000Y-108000000D03*
D10*
X88800000Y-97000000D03*
D12*
X79250000Y-108000000D03*
D11*
X81750000Y-108000000D03*
X84250000Y-108000000D03*
%TD*%
D14*
%TO.C,R1*%
X90500000Y-69440000D03*
D15*
X90500000Y-77060000D03*
%TD*%
D14*
%TO.C,C6*%
X77500000Y-86500000D03*
X82500000Y-86500000D03*
%TD*%
D16*
%TO.C,U1*%
X83800000Y-75950000D03*
D15*
X83800000Y-78490000D03*
X83800000Y-81030000D03*
X83800000Y-83570000D03*
X76180000Y-83570000D03*
X76180000Y-81030000D03*
X76180000Y-78490000D03*
X76180000Y-75950000D03*
%TD*%
D14*
%TO.C,C4*%
X92250000Y-62000000D03*
X92250000Y-67000000D03*
%TD*%
%TO.C,R3*%
X97000000Y-69440000D03*
D15*
X97000000Y-77060000D03*
%TD*%
D17*
%TO.C,D2*%
X97000000Y-54420000D03*
D18*
X97000000Y-64580000D03*
%TD*%
D13*
%TO.C,J60*%
X89325000Y-115475000D03*
D19*
X86785000Y-115475000D03*
X84245000Y-115475000D03*
X81705000Y-115475000D03*
X79165000Y-115475000D03*
X76625000Y-115475000D03*
%TD*%
D14*
%TO.C,R4*%
X90500000Y-93060000D03*
D15*
X90500000Y-85440000D03*
%TD*%
D14*
%TO.C,R2*%
X93750000Y-77060000D03*
D15*
X93750000Y-69440000D03*
%TD*%
D13*
%TO.C,J50*%
X68975000Y-71175000D03*
D19*
X68975000Y-73715000D03*
X68975000Y-76255000D03*
X68975000Y-78795000D03*
X68975000Y-81335000D03*
X68975000Y-83875000D03*
%TD*%
D17*
%TO.C,D1*%
X69750000Y-55080000D03*
D18*
X69750000Y-44920000D03*
%TD*%
D16*
%TO.C,C2*%
X92500000Y-56455113D03*
D14*
X92500000Y-54455113D03*
%TD*%
%TO.C,R6*%
X97000000Y-85440000D03*
D15*
X97000000Y-93060000D03*
%TD*%
D14*
%TO.C,R5*%
X93750000Y-93060000D03*
D15*
X93750000Y-85440000D03*
%TD*%
D14*
%TO.C,C5*%
X77500000Y-73000000D03*
X82500000Y-73000000D03*
%TD*%
%TO.C,C3*%
X69750000Y-59750000D03*
X69750000Y-64750000D03*
%TD*%
D20*
%TO.C,J100*%
X93080000Y-49002500D03*
D21*
X93080000Y-46462500D03*
X90540000Y-49002500D03*
X90540000Y-46462500D03*
X88000000Y-49002500D03*
X88000000Y-46462500D03*
X85460000Y-49002500D03*
X85460000Y-46462500D03*
X82920000Y-49002500D03*
X82920000Y-46462500D03*
%TD*%
D16*
%TO.C,C1*%
X74750000Y-53044888D03*
D14*
X74750000Y-55044888D03*
%TD*%
D22*
%TO.C,J200*%
X92747500Y-106790000D03*
D21*
X92747500Y-104250000D03*
X92747500Y-101710000D03*
X95287500Y-106790000D03*
X95287500Y-104250000D03*
X95287500Y-101710000D03*
%TD*%
M02*
