M48
; DRILL file {KiCad 9.0.0} date 2025-03-15T22:52:11+0100
; FORMAT={-:-/ absolute / metric / decimal}
; #@! TF.CreationDate,2025-03-15T22:52:11+01:00
; #@! TF.GenerationSoftware,Kicad,Pcbnew,9.0.0
; #@! TF.FileFunction,Plated,1,2,PTH
FMAT,2
METRIC
; #@! TA.AperFunction,Plated,PTH,ComponentDrill
T1C0.800
; #@! TA.AperFunction,Plated,PTH,ComponentDrill
T2C1.000
; #@! TA.AperFunction,Plated,PTH,ComponentDrill
T3C1.100
; #@! TA.AperFunction,Plated,PTH,ComponentDrill
T4C2.000
%
G90
G05
T1
X68.75Y-76.69
X68.75Y-84.31
X70.0Y-64.95
X70.0Y-67.49
X70.0Y-70.03
X70.25Y-147.44
X70.25Y-155.06
X70.25Y-157.44
X70.25Y-165.06
X72.0Y-76.69
X72.0Y-84.31
X73.44Y-151.75
X73.44Y-157.25
X74.44Y-114.25
X74.44Y-119.0
X74.44Y-123.75
X74.75Y-53.045
X74.75Y-55.045
X75.75Y-65.0
X75.75Y-70.0
X76.635Y-76.69
X76.635Y-84.31
X79.175Y-76.69
X79.175Y-84.31
X81.06Y-151.75
X81.06Y-157.25
X81.715Y-76.69
X81.715Y-84.31
X82.06Y-114.25
X82.06Y-119.0
X82.06Y-123.75
X83.19Y-151.75
X83.19Y-157.25
X83.69Y-88.75
X84.255Y-76.69
X84.255Y-84.31
X86.795Y-76.69
X86.795Y-84.31
X89.335Y-76.69
X89.335Y-84.31
X90.25Y-65.0
X90.25Y-70.0
X90.81Y-151.75
X90.81Y-157.25
X91.31Y-88.75
X91.875Y-76.69
X91.875Y-84.31
X92.5Y-54.455
X92.5Y-56.455
X96.25Y-72.92
X96.25Y-75.46
X96.25Y-78.0
X96.25Y-83.21
X96.25Y-85.75
X96.25Y-88.29
T2
X69.0Y-92.0
X69.0Y-94.54
X69.0Y-97.08
X69.0Y-99.62
X69.0Y-102.16
X69.0Y-104.7
X69.0Y-107.24
X69.0Y-109.78
X74.595Y-164.975
X77.135Y-164.975
X79.25Y-69.75
X79.25Y-108.0
X79.25Y-146.0
X79.675Y-164.975
X81.75Y-69.75
X81.75Y-108.0
X81.75Y-146.0
X82.215Y-164.975
X82.92Y-46.462
X82.92Y-49.002
X84.25Y-69.75
X84.25Y-108.0
X84.25Y-146.0
X84.755Y-164.975
X85.46Y-46.462
X85.46Y-49.002
X86.75Y-69.75
X86.75Y-108.0
X86.75Y-146.0
X87.295Y-164.975
X88.0Y-46.462
X88.0Y-49.002
X89.835Y-164.975
X90.54Y-46.462
X90.54Y-49.002
X92.375Y-164.975
X92.748Y-104.965
X92.748Y-107.505
X92.748Y-110.045
X93.08Y-46.462
X93.08Y-49.002
X95.287Y-104.965
X95.287Y-107.505
X95.287Y-110.045
X95.75Y-127.0
T3
X69.75Y-44.92
X69.75Y-55.08
X97.0Y-54.42
X97.0Y-64.58
T4
X77.2Y-58.65G85X77.2Y-58.85
G05
X77.2Y-96.9G85X77.2Y-97.1
G05
X77.2Y-134.9G85X77.2Y-135.1
G05
X88.8Y-58.65G85X88.8Y-58.85
G05
X88.8Y-96.9G85X88.8Y-97.1
G05
X88.8Y-134.9G85X88.8Y-135.1
G05
M30
