%TF.GenerationSoftware,KiCad,Pcbnew,9.0.0*%
%TF.CreationDate,2025-03-15T22:52:04+01:00*%
%TF.ProjectId,DMH_Multiverter_Mk2_PCB,444d485f-4d75-46c7-9469-766572746572,1*%
%TF.SameCoordinates,Original*%
%TF.FileFunction,Copper,L1,Top*%
%TF.FilePolarity,Positive*%
%FSLAX46Y46*%
G04 Gerber Fmt 4.6, Leading zero omitted, Abs format (unit mm)*
G04 Created by KiCad (PCBNEW 9.0.0) date 2025-03-15 22:52:04*
%MOMM*%
%LPD*%
G01*
G04 APERTURE LIST*
G04 Aperture macros list*
%AMRoundRect*
0 Rectangle with rounded corners*
0 $1 Rounding radius*
0 $2 $3 $4 $5 $6 $7 $8 $9 X,Y pos of 4 corners*
0 Add a 4 corners polygon primitive as box body*
4,1,4,$2,$3,$4,$5,$6,$7,$8,$9,$2,$3,0*
0 Add four circle primitives for the rounded corners*
1,1,$1+$1,$2,$3*
1,1,$1+$1,$4,$5*
1,1,$1+$1,$6,$7*
1,1,$1+$1,$8,$9*
0 Add four rect primitives between the rounded corners*
20,1,$1+$1,$2,$3,$4,$5,0*
20,1,$1+$1,$4,$5,$6,$7,0*
20,1,$1+$1,$6,$7,$8,$9,0*
20,1,$1+$1,$8,$9,$2,$3,0*%
G04 Aperture macros list end*
%TA.AperFunction,ComponentPad*%
%ADD10O,4.000000X4.200000*%
%TD*%
%TA.AperFunction,ComponentPad*%
%ADD11C,1.800000*%
%TD*%
%TA.AperFunction,ComponentPad*%
%ADD12R,1.800000X1.800000*%
%TD*%
%TA.AperFunction,ComponentPad*%
%ADD13R,1.700000X1.700000*%
%TD*%
%TA.AperFunction,ComponentPad*%
%ADD14C,1.600000*%
%TD*%
%TA.AperFunction,ComponentPad*%
%ADD15O,1.600000X1.600000*%
%TD*%
%TA.AperFunction,ComponentPad*%
%ADD16C,1.440000*%
%TD*%
%TA.AperFunction,ComponentPad*%
%ADD17O,1.700000X1.700000*%
%TD*%
%TA.AperFunction,ComponentPad*%
%ADD18R,1.600000X1.600000*%
%TD*%
%TA.AperFunction,ComponentPad*%
%ADD19R,2.200000X2.200000*%
%TD*%
%TA.AperFunction,ComponentPad*%
%ADD20O,2.200000X2.200000*%
%TD*%
%TA.AperFunction,ComponentPad*%
%ADD21RoundRect,0.250000X-0.550000X0.550000X-0.550000X-0.550000X0.550000X-0.550000X0.550000X0.550000X0*%
%TD*%
%TA.AperFunction,ComponentPad*%
%ADD22RoundRect,0.250000X0.600000X-0.600000X0.600000X0.600000X-0.600000X0.600000X-0.600000X-0.600000X0*%
%TD*%
%TA.AperFunction,ComponentPad*%
%ADD23C,1.700000*%
%TD*%
%TA.AperFunction,ComponentPad*%
%ADD24RoundRect,0.250000X-0.600000X-0.600000X0.600000X-0.600000X0.600000X0.600000X-0.600000X0.600000X0*%
%TD*%
%TA.AperFunction,Conductor*%
%ADD25C,1.000000*%
%TD*%
%TA.AperFunction,Conductor*%
%ADD26C,0.200000*%
%TD*%
G04 APERTURE END LIST*
D10*
%TO.P,RV3,*%
%TO.N,*%
X77200000Y-135000000D03*
D11*
X86750000Y-146000000D03*
D10*
X88800000Y-135000000D03*
D12*
%TO.P,RV3,1,1*%
%TO.N,GND*%
X79250000Y-146000000D03*
D11*
%TO.P,RV3,2,2*%
%TO.N,Net-(U1C-+)*%
X81750000Y-146000000D03*
%TO.P,RV3,3,3*%
%TO.N,/Core Circuit/Att C Input*%
X84250000Y-146000000D03*
%TD*%
D10*
%TO.P,RV1,*%
%TO.N,*%
X77200000Y-58750000D03*
D11*
X86750000Y-69750000D03*
D10*
X88800000Y-58750000D03*
D12*
%TO.P,RV1,1,1*%
%TO.N,GND*%
X79250000Y-69750000D03*
D11*
%TO.P,RV1,2,2*%
%TO.N,Net-(U1A-+)*%
X81750000Y-69750000D03*
%TO.P,RV1,3,3*%
%TO.N,/Core Circuit/Att A Input*%
X84250000Y-69750000D03*
%TD*%
D13*
%TO.P,J0,1,Pin_1*%
%TO.N,GND*%
X95750000Y-127000000D03*
%TD*%
D10*
%TO.P,RV2,*%
%TO.N,*%
X77200000Y-97000000D03*
D11*
X86750000Y-108000000D03*
D10*
X88800000Y-97000000D03*
D12*
%TO.P,RV2,1,1*%
%TO.N,GND*%
X79250000Y-108000000D03*
D11*
%TO.P,RV2,2,2*%
%TO.N,Net-(U1B-+)*%
X81750000Y-108000000D03*
%TO.P,RV2,3,3*%
%TO.N,/Core Circuit/Att B Input*%
X84250000Y-108000000D03*
%TD*%
D14*
%TO.P,R4,1*%
%TO.N,Net-(R4-Pad1)*%
X82060000Y-119000000D03*
D15*
%TO.P,R4,2*%
%TO.N,/Core Circuit/Att B Output*%
X74440000Y-119000000D03*
%TD*%
D16*
%TO.P,RV4,1,1*%
%TO.N,Net-(U1A--)*%
X70000000Y-64950000D03*
%TO.P,RV4,2,2*%
%TO.N,Net-(R2-Pad1)*%
X70000000Y-67490000D03*
%TO.P,RV4,3,3*%
X70000000Y-70030000D03*
%TD*%
D14*
%TO.P,R6,1*%
%TO.N,Net-(R6-Pad1)*%
X91310000Y-88750000D03*
D15*
%TO.P,R6,2*%
%TO.N,/Core Circuit/Att C Output*%
X83690000Y-88750000D03*
%TD*%
D16*
%TO.P,RV6,1,1*%
%TO.N,Net-(U1C--)*%
X96250000Y-88290000D03*
%TO.P,RV6,2,2*%
%TO.N,Net-(R6-Pad1)*%
X96250000Y-85750000D03*
%TO.P,RV6,3,3*%
X96250000Y-83210000D03*
%TD*%
D13*
%TO.P,J50,1,Pin_1*%
%TO.N,/Core Circuit/Att A Input*%
X69000000Y-92000000D03*
D17*
%TO.P,J50,2,Pin_2*%
%TO.N,/Core Circuit/Att A Output*%
X69000000Y-94540000D03*
%TO.P,J50,3,Pin_3*%
%TO.N,/Core Circuit/Att B Input*%
X69000000Y-97080000D03*
%TO.P,J50,4,Pin_4*%
%TO.N,/Core Circuit/Att B Output*%
X69000000Y-99620000D03*
%TO.P,J50,5,Pin_5*%
%TO.N,/Core Circuit/Att C Input*%
X69000000Y-102160000D03*
%TO.P,J50,6,Pin_6*%
%TO.N,/Core Circuit/Att C Output*%
X69000000Y-104700000D03*
%TO.P,J50,7,Pin_7*%
%TO.N,GND*%
X69000000Y-107240000D03*
%TO.P,J50,8,Pin_8*%
X69000000Y-109780000D03*
%TD*%
D14*
%TO.P,C4,1*%
%TO.N,GND*%
X90250000Y-65000000D03*
%TO.P,C4,2*%
%TO.N,-12V*%
X90250000Y-70000000D03*
%TD*%
D18*
%TO.P,D3,1,K*%
%TO.N,Net-(D3-K)*%
X70250000Y-157440000D03*
D15*
%TO.P,D3,2,A*%
%TO.N,GND*%
X70250000Y-165060000D03*
%TD*%
D14*
%TO.P,R7,1*%
%TO.N,Net-(D3-K)*%
X70250000Y-155060000D03*
D15*
%TO.P,R7,2*%
%TO.N,+12V*%
X70250000Y-147440000D03*
%TD*%
D18*
%TO.P,D5,1,K*%
%TO.N,Net-(D5-K)*%
X81060000Y-157250000D03*
D15*
%TO.P,D5,2,A*%
%TO.N,GND*%
X73440000Y-157250000D03*
%TD*%
D19*
%TO.P,D2,1,K*%
%TO.N,Net-(D2-K)*%
X97000000Y-54420000D03*
D20*
%TO.P,D2,2,A*%
%TO.N,-12V*%
X97000000Y-64580000D03*
%TD*%
D14*
%TO.P,R9,1*%
%TO.N,Net-(D5-K)*%
X83190000Y-157250000D03*
D15*
%TO.P,R9,2*%
%TO.N,+12V*%
X90810000Y-157250000D03*
%TD*%
D14*
%TO.P,R2,1*%
%TO.N,Net-(R2-Pad1)*%
X72000000Y-76690000D03*
D15*
%TO.P,R2,2*%
%TO.N,/Core Circuit/Att A Output*%
X72000000Y-84310000D03*
%TD*%
D16*
%TO.P,RV5,1,1*%
%TO.N,Net-(U1B--)*%
X96250000Y-78000000D03*
%TO.P,RV5,2,2*%
%TO.N,Net-(R4-Pad1)*%
X96250000Y-75460000D03*
%TO.P,RV5,3,3*%
X96250000Y-72920000D03*
%TD*%
D21*
%TO.P,U1,1*%
%TO.N,Net-(R2-Pad1)*%
X76635000Y-76690000D03*
D14*
%TO.P,U1,2,-*%
%TO.N,Net-(U1A--)*%
X79175000Y-76690000D03*
%TO.P,U1,3,+*%
%TO.N,Net-(U1A-+)*%
X81715000Y-76690000D03*
%TO.P,U1,4,V+*%
%TO.N,+12V*%
X84255000Y-76690000D03*
%TO.P,U1,5,+*%
%TO.N,Net-(U1B-+)*%
X86795000Y-76690000D03*
%TO.P,U1,6,-*%
%TO.N,Net-(U1B--)*%
X89335000Y-76690000D03*
%TO.P,U1,7*%
%TO.N,Net-(R4-Pad1)*%
X91875000Y-76690000D03*
%TO.P,U1,8*%
%TO.N,Net-(R6-Pad1)*%
X91875000Y-84310000D03*
%TO.P,U1,9,-*%
%TO.N,Net-(U1C--)*%
X89335000Y-84310000D03*
%TO.P,U1,10,+*%
%TO.N,Net-(U1C-+)*%
X86795000Y-84310000D03*
%TO.P,U1,11,V-*%
%TO.N,-12V*%
X84255000Y-84310000D03*
%TO.P,U1,12,+*%
%TO.N,GND*%
X81715000Y-84310000D03*
%TO.P,U1,13,-*%
%TO.N,Net-(U1D--)*%
X79175000Y-84310000D03*
%TO.P,U1,14*%
X76635000Y-84310000D03*
%TD*%
D19*
%TO.P,D1,1,K*%
%TO.N,+12V*%
X69750000Y-55080000D03*
D20*
%TO.P,D1,2,A*%
%TO.N,Net-(D1-A)*%
X69750000Y-44920000D03*
%TD*%
D14*
%TO.P,R3,1*%
%TO.N,/Core Circuit/Att B Input*%
X82060000Y-114250000D03*
D15*
%TO.P,R3,2*%
%TO.N,Net-(U1B--)*%
X74440000Y-114250000D03*
%TD*%
D14*
%TO.P,R5,1*%
%TO.N,/Core Circuit/Att C Input*%
X74440000Y-123750000D03*
D15*
%TO.P,R5,2*%
%TO.N,Net-(U1C--)*%
X82060000Y-123750000D03*
%TD*%
D18*
%TO.P,C2,1*%
%TO.N,GND*%
X92500000Y-56455113D03*
D14*
%TO.P,C2,2*%
%TO.N,-12V*%
X92500000Y-54455113D03*
%TD*%
D18*
%TO.P,D4,1,K*%
%TO.N,Net-(D4-K)*%
X81060000Y-151750000D03*
D15*
%TO.P,D4,2,A*%
%TO.N,GND*%
X73440000Y-151750000D03*
%TD*%
D14*
%TO.P,C3,1*%
%TO.N,+12V*%
X75750000Y-70000000D03*
%TO.P,C3,2*%
%TO.N,GND*%
X75750000Y-65000000D03*
%TD*%
%TO.P,R1,1*%
%TO.N,/Core Circuit/Att A Input*%
X68750000Y-84310000D03*
D15*
%TO.P,R1,2*%
%TO.N,Net-(U1A--)*%
X68750000Y-76690000D03*
%TD*%
D14*
%TO.P,R8,1*%
%TO.N,Net-(D4-K)*%
X83190000Y-151750000D03*
D15*
%TO.P,R8,2*%
%TO.N,+12V*%
X90810000Y-151750000D03*
%TD*%
D22*
%TO.P,J100,1a,Pin_1a*%
%TO.N,Net-(D2-K)*%
X93080000Y-49002500D03*
D23*
%TO.P,J100,1b,Pin_1b*%
X93080000Y-46462500D03*
%TO.P,J100,2a,Pin_2a*%
%TO.N,GND*%
X90540000Y-49002500D03*
%TO.P,J100,2b,Pin_2b*%
X90540000Y-46462500D03*
%TO.P,J100,3a,Pin_3a*%
X88000000Y-49002500D03*
%TO.P,J100,3b,Pin_3b*%
X88000000Y-46462500D03*
%TO.P,J100,4a,Pin_4a*%
X85460000Y-49002500D03*
%TO.P,J100,4b,Pin_4b*%
X85460000Y-46462500D03*
%TO.P,J100,5a,Pin_5a*%
%TO.N,Net-(D1-A)*%
X82920000Y-49002500D03*
%TO.P,J100,5b,Pin_5b*%
X82920000Y-46462500D03*
%TD*%
D13*
%TO.P,J60,1,Pin_1*%
%TO.N,Net-(D3-K)*%
X92375000Y-164975000D03*
D17*
%TO.P,J60,2,Pin_2*%
%TO.N,Net-(J200-Pin_1)*%
X89835000Y-164975000D03*
%TO.P,J60,3,Pin_3*%
%TO.N,Net-(D4-K)*%
X87295000Y-164975000D03*
%TO.P,J60,4,Pin_4*%
%TO.N,Net-(J200-Pin_2)*%
X84755000Y-164975000D03*
%TO.P,J60,5,Pin_5*%
%TO.N,Net-(D5-K)*%
X82215000Y-164975000D03*
%TO.P,J60,6,Pin_6*%
%TO.N,Net-(J200-Pin_5)*%
X79675000Y-164975000D03*
%TO.P,J60,7,Pin_7*%
%TO.N,GND*%
X77135000Y-164975000D03*
%TO.P,J60,8,Pin_8*%
X74595000Y-164975000D03*
%TD*%
D18*
%TO.P,C1,1*%
%TO.N,+12V*%
X74750000Y-53044888D03*
D14*
%TO.P,C1,2*%
%TO.N,GND*%
X74750000Y-55044888D03*
%TD*%
D24*
%TO.P,J200,1,Pin_1*%
%TO.N,Net-(J200-Pin_1)*%
X92747500Y-110045000D03*
D23*
%TO.P,J200,2,Pin_2*%
%TO.N,Net-(J200-Pin_2)*%
X92747500Y-107505000D03*
%TO.P,J200,3,Pin_3*%
%TO.N,GND*%
X92747500Y-104965000D03*
%TO.P,J200,4,Pin_4*%
%TO.N,Net-(J200-Pin_1)*%
X95287500Y-110045000D03*
%TO.P,J200,5,Pin_5*%
%TO.N,Net-(J200-Pin_5)*%
X95287500Y-107505000D03*
%TO.P,J200,6,Pin_6*%
%TO.N,GND*%
X95287500Y-104965000D03*
%TD*%
D25*
%TO.N,+12V*%
X70250000Y-147440000D02*
X72060000Y-149250000D01*
X82065000Y-74500000D02*
X84255000Y-76690000D01*
X90810000Y-157250000D02*
X90810000Y-151750000D01*
X80250000Y-74500000D02*
X82065000Y-74500000D01*
X75750000Y-70000000D02*
X80250000Y-74500000D01*
X88310000Y-149250000D02*
X90810000Y-151750000D01*
X72060000Y-149250000D02*
X88310000Y-149250000D01*
%TO.N,Net-(D1-A)*%
X69750000Y-44920000D02*
X81377500Y-44920000D01*
X81377500Y-44920000D02*
X82920000Y-46462500D01*
D26*
%TO.N,Net-(D3-K)*%
X79000000Y-162000000D02*
X81000000Y-164000000D01*
X70250000Y-157440000D02*
X74810000Y-162000000D01*
X81000000Y-166000000D02*
X81399000Y-166399000D01*
X90951000Y-166399000D02*
X92375000Y-164975000D01*
X81000000Y-164000000D02*
X81000000Y-166000000D01*
X74810000Y-162000000D02*
X79000000Y-162000000D01*
X81399000Y-166399000D02*
X90951000Y-166399000D01*
%TO.N,/Core Circuit/Att B Input*%
X73330000Y-97080000D02*
X84250000Y-108000000D01*
X69000000Y-97080000D02*
X73330000Y-97080000D01*
%TO.N,Net-(U1A--)*%
X70810000Y-78750000D02*
X77115000Y-78750000D01*
X77115000Y-78750000D02*
X79175000Y-76690000D01*
X68750000Y-76690000D02*
X70810000Y-78750000D01*
%TO.N,Net-(R2-Pad1)*%
X72000000Y-76690000D02*
X76635000Y-76690000D01*
%TO.N,Net-(U1B--)*%
X90645000Y-78000000D02*
X96250000Y-78000000D01*
X89335000Y-76690000D02*
X90645000Y-78000000D01*
%TO.N,Net-(R4-Pad1)*%
X91875000Y-76690000D02*
X95020000Y-76690000D01*
X95020000Y-76690000D02*
X96250000Y-75460000D01*
%TO.N,Net-(J200-Pin_1)*%
X92747500Y-110045000D02*
X95287500Y-110045000D01*
%TO.N,/Core Circuit/Att C Output*%
X69000000Y-104700000D02*
X67601000Y-103301000D01*
X68309000Y-95691000D02*
X73369062Y-95691000D01*
X67601000Y-103301000D02*
X67601000Y-96399000D01*
X67601000Y-96399000D02*
X68309000Y-95691000D01*
X80310062Y-88750000D02*
X83690000Y-88750000D01*
X73369062Y-95691000D02*
X80310062Y-88750000D01*
%TO.N,/Core Circuit/Att C Input*%
X74440000Y-123750000D02*
X74440000Y-136190000D01*
X74440000Y-136190000D02*
X84250000Y-146000000D01*
%TO.N,Net-(U1C--)*%
X89335000Y-84310000D02*
X93315000Y-88290000D01*
X93315000Y-88290000D02*
X96250000Y-88290000D01*
%TO.N,Net-(R6-Pad1)*%
X91875000Y-84310000D02*
X95150000Y-84310000D01*
X95150000Y-84310000D02*
X96250000Y-83210000D01*
%TO.N,Net-(U1D--)*%
X76635000Y-84310000D02*
X79175000Y-84310000D01*
%TO.N,Net-(D4-K)*%
X81060000Y-151750000D02*
X83190000Y-151750000D01*
X87295000Y-155855000D02*
X87295000Y-164975000D01*
X83190000Y-151750000D02*
X87295000Y-155855000D01*
%TO.N,Net-(D5-K)*%
X81060000Y-157250000D02*
X83190000Y-157250000D01*
X83190000Y-157250000D02*
X83190000Y-164000000D01*
X83190000Y-164000000D02*
X82215000Y-164975000D01*
%TD*%
%TA.AperFunction,Conductor*%
%TO.N,GND*%
G36*
X94821575Y-105157993D02*
G01*
X94887401Y-105272007D01*
X94980493Y-105365099D01*
X95094507Y-105430925D01*
X95158090Y-105447962D01*
X94525782Y-106080269D01*
X94525782Y-106080270D01*
X94579952Y-106119626D01*
X94579951Y-106119626D01*
X94588995Y-106124234D01*
X94639792Y-106172208D01*
X94656587Y-106240029D01*
X94634050Y-106306164D01*
X94588999Y-106345202D01*
X94579682Y-106349949D01*
X94407713Y-106474890D01*
X94257390Y-106625213D01*
X94132449Y-106797182D01*
X94127984Y-106805946D01*
X94080009Y-106856742D01*
X94012188Y-106873536D01*
X93946053Y-106850998D01*
X93907016Y-106805946D01*
X93902550Y-106797182D01*
X93777609Y-106625213D01*
X93627286Y-106474890D01*
X93455317Y-106349949D01*
X93446004Y-106345204D01*
X93395207Y-106297230D01*
X93378412Y-106229409D01*
X93400949Y-106163274D01*
X93446007Y-106124232D01*
X93455055Y-106119622D01*
X93509216Y-106080270D01*
X93509217Y-106080270D01*
X92876908Y-105447962D01*
X92940493Y-105430925D01*
X93054507Y-105365099D01*
X93147599Y-105272007D01*
X93213425Y-105157993D01*
X93230462Y-105094409D01*
X93862770Y-105726717D01*
X93862770Y-105726716D01*
X93902122Y-105672554D01*
X93907014Y-105662954D01*
X93954988Y-105612157D01*
X94022808Y-105595361D01*
X94088944Y-105617897D01*
X94127986Y-105662954D01*
X94132875Y-105672550D01*
X94172228Y-105726716D01*
X94804537Y-105094408D01*
X94821575Y-105157993D01*
G37*
%TD.AperFunction*%
%TA.AperFunction,Conductor*%
G36*
X84994075Y-46655493D02*
G01*
X85059901Y-46769507D01*
X85152993Y-46862599D01*
X85267007Y-46928425D01*
X85330591Y-46945462D01*
X84729971Y-47546081D01*
X84808711Y-47663395D01*
X84809920Y-47667229D01*
X84812844Y-47669991D01*
X84820343Y-47700278D01*
X84829727Y-47730029D01*
X84828671Y-47733908D01*
X84829638Y-47737812D01*
X84819573Y-47767344D01*
X84811383Y-47797447D01*
X84808397Y-47800140D01*
X84807100Y-47803947D01*
X84762051Y-47842983D01*
X84752440Y-47847880D01*
X84698282Y-47887227D01*
X84698282Y-47887228D01*
X85330591Y-48519537D01*
X85267007Y-48536575D01*
X85152993Y-48602401D01*
X85059901Y-48695493D01*
X84994075Y-48809507D01*
X84977037Y-48873091D01*
X84344728Y-48240782D01*
X84344727Y-48240782D01*
X84305380Y-48294940D01*
X84305376Y-48294946D01*
X84300760Y-48304005D01*
X84252781Y-48354797D01*
X84184959Y-48371587D01*
X84118826Y-48349043D01*
X84079794Y-48303993D01*
X84075051Y-48294684D01*
X84075049Y-48294681D01*
X84075048Y-48294679D01*
X83950109Y-48122713D01*
X83799786Y-47972390D01*
X83627820Y-47847451D01*
X83627115Y-47847091D01*
X83619054Y-47842985D01*
X83568259Y-47795012D01*
X83551463Y-47727192D01*
X83573999Y-47661056D01*
X83619054Y-47622015D01*
X83627816Y-47617551D01*
X83682572Y-47577769D01*
X83799786Y-47492609D01*
X83799788Y-47492606D01*
X83799792Y-47492604D01*
X83950104Y-47342292D01*
X83950106Y-47342288D01*
X83950109Y-47342286D01*
X84035890Y-47224217D01*
X84075051Y-47170316D01*
X84079793Y-47161008D01*
X84127763Y-47110211D01*
X84195583Y-47093411D01*
X84261719Y-47115945D01*
X84300763Y-47161000D01*
X84305373Y-47170047D01*
X84344728Y-47224216D01*
X84977037Y-46591908D01*
X84994075Y-46655493D01*
G37*
%TD.AperFunction*%
%TA.AperFunction,Conductor*%
G36*
X87534075Y-46655493D02*
G01*
X87599901Y-46769507D01*
X87692993Y-46862599D01*
X87807007Y-46928425D01*
X87870590Y-46945462D01*
X87238282Y-47577769D01*
X87238282Y-47577770D01*
X87292452Y-47617126D01*
X87302048Y-47622016D01*
X87352844Y-47669991D01*
X87369638Y-47737812D01*
X87347100Y-47803947D01*
X87302051Y-47842983D01*
X87292440Y-47847880D01*
X87238282Y-47887227D01*
X87238282Y-47887228D01*
X87870591Y-48519537D01*
X87807007Y-48536575D01*
X87692993Y-48602401D01*
X87599901Y-48695493D01*
X87534075Y-48809507D01*
X87517037Y-48873091D01*
X86884728Y-48240782D01*
X86884727Y-48240782D01*
X86845380Y-48294940D01*
X86840483Y-48304551D01*
X86792506Y-48355345D01*
X86724684Y-48372138D01*
X86658550Y-48349598D01*
X86619516Y-48304548D01*
X86614626Y-48294952D01*
X86575270Y-48240782D01*
X86575269Y-48240782D01*
X85942962Y-48873090D01*
X85925925Y-48809507D01*
X85860099Y-48695493D01*
X85767007Y-48602401D01*
X85652993Y-48536575D01*
X85589409Y-48519537D01*
X86221716Y-47887228D01*
X86167550Y-47847875D01*
X86157954Y-47842986D01*
X86107157Y-47795012D01*
X86090361Y-47727192D01*
X86111288Y-47663395D01*
X86190027Y-47546081D01*
X85589408Y-46945462D01*
X85652993Y-46928425D01*
X85767007Y-46862599D01*
X85860099Y-46769507D01*
X85925925Y-46655493D01*
X85942962Y-46591908D01*
X86575270Y-47224217D01*
X86575270Y-47224216D01*
X86614622Y-47170054D01*
X86619514Y-47160454D01*
X86667488Y-47109657D01*
X86735308Y-47092861D01*
X86801444Y-47115397D01*
X86840486Y-47160454D01*
X86845375Y-47170050D01*
X86884728Y-47224216D01*
X87517037Y-46591908D01*
X87534075Y-46655493D01*
G37*
%TD.AperFunction*%
%TA.AperFunction,Conductor*%
G36*
X90074075Y-46655493D02*
G01*
X90139901Y-46769507D01*
X90232993Y-46862599D01*
X90347007Y-46928425D01*
X90410590Y-46945462D01*
X89778282Y-47577769D01*
X89778282Y-47577770D01*
X89832452Y-47617126D01*
X89842048Y-47622016D01*
X89892844Y-47669991D01*
X89909638Y-47737812D01*
X89887100Y-47803947D01*
X89842051Y-47842983D01*
X89832440Y-47847880D01*
X89778282Y-47887227D01*
X89778282Y-47887228D01*
X90410591Y-48519537D01*
X90347007Y-48536575D01*
X90232993Y-48602401D01*
X90139901Y-48695493D01*
X90074075Y-48809507D01*
X90057037Y-48873091D01*
X89424728Y-48240782D01*
X89424727Y-48240782D01*
X89385380Y-48294940D01*
X89380483Y-48304551D01*
X89332506Y-48355345D01*
X89264684Y-48372138D01*
X89198550Y-48349598D01*
X89159516Y-48304548D01*
X89154626Y-48294952D01*
X89115270Y-48240782D01*
X89115269Y-48240782D01*
X88482962Y-48873090D01*
X88465925Y-48809507D01*
X88400099Y-48695493D01*
X88307007Y-48602401D01*
X88192993Y-48536575D01*
X88129409Y-48519537D01*
X88761716Y-47887228D01*
X88707550Y-47847875D01*
X88697954Y-47842986D01*
X88647157Y-47795012D01*
X88630361Y-47727192D01*
X88651288Y-47663395D01*
X88730027Y-47546081D01*
X88129408Y-46945462D01*
X88192993Y-46928425D01*
X88307007Y-46862599D01*
X88400099Y-46769507D01*
X88465925Y-46655493D01*
X88482962Y-46591908D01*
X89115270Y-47224217D01*
X89115270Y-47224216D01*
X89154622Y-47170054D01*
X89159514Y-47160454D01*
X89207488Y-47109657D01*
X89275308Y-47092861D01*
X89341444Y-47115397D01*
X89380486Y-47160454D01*
X89385375Y-47170050D01*
X89424728Y-47224216D01*
X90057037Y-46591908D01*
X90074075Y-46655493D01*
G37*
%TD.AperFunction*%
%TA.AperFunction,Conductor*%
G36*
X91655270Y-47224217D02*
G01*
X91655270Y-47224216D01*
X91694622Y-47170055D01*
X91699232Y-47161007D01*
X91747205Y-47110209D01*
X91815025Y-47093412D01*
X91881161Y-47115947D01*
X91920204Y-47161004D01*
X91924949Y-47170317D01*
X92049890Y-47342286D01*
X92200209Y-47492605D01*
X92205106Y-47496163D01*
X92247771Y-47551494D01*
X92253750Y-47621107D01*
X92221144Y-47682902D01*
X92171229Y-47714185D01*
X92160673Y-47717683D01*
X92160663Y-47717687D01*
X92011342Y-47809789D01*
X91887289Y-47933842D01*
X91795187Y-48083163D01*
X91795186Y-48083166D01*
X91782082Y-48122713D01*
X91771293Y-48155271D01*
X91731520Y-48212715D01*
X91667004Y-48239538D01*
X91656354Y-48239697D01*
X91022962Y-48873090D01*
X91005925Y-48809507D01*
X90940099Y-48695493D01*
X90847007Y-48602401D01*
X90732993Y-48536575D01*
X90669409Y-48519537D01*
X91301716Y-47887228D01*
X91247550Y-47847875D01*
X91237954Y-47842986D01*
X91187157Y-47795012D01*
X91170361Y-47727192D01*
X91192897Y-47661056D01*
X91237954Y-47622014D01*
X91247554Y-47617122D01*
X91301716Y-47577770D01*
X91301717Y-47577770D01*
X90669408Y-46945462D01*
X90732993Y-46928425D01*
X90847007Y-46862599D01*
X90940099Y-46769507D01*
X91005925Y-46655493D01*
X91022962Y-46591908D01*
X91655270Y-47224217D01*
G37*
%TD.AperFunction*%
%TA.AperFunction,Conductor*%
G36*
X98442539Y-43020185D02*
G01*
X98488294Y-43072989D01*
X98499500Y-43124500D01*
X98499500Y-52756230D01*
X98479815Y-52823269D01*
X98427011Y-52869024D01*
X98357853Y-52878968D01*
X98332168Y-52872412D01*
X98207485Y-52825909D01*
X98207483Y-52825908D01*
X98147883Y-52819501D01*
X98147881Y-52819500D01*
X98147873Y-52819500D01*
X98147864Y-52819500D01*
X95852129Y-52819500D01*
X95852123Y-52819501D01*
X95792516Y-52825908D01*
X95657671Y-52876202D01*
X95657664Y-52876206D01*
X95542455Y-52962452D01*
X95542452Y-52962455D01*
X95456206Y-53077664D01*
X95456202Y-53077671D01*
X95405908Y-53212517D01*
X95399501Y-53272116D01*
X95399500Y-53272135D01*
X95399500Y-55567870D01*
X95399501Y-55567876D01*
X95405908Y-55627483D01*
X95456202Y-55762328D01*
X95456206Y-55762335D01*
X95542452Y-55877544D01*
X95542455Y-55877547D01*
X95657664Y-55963793D01*
X95657671Y-55963797D01*
X95792517Y-56014091D01*
X95792516Y-56014091D01*
X95799444Y-56014835D01*
X95852127Y-56020500D01*
X98147872Y-56020499D01*
X98207483Y-56014091D01*
X98332167Y-55967587D01*
X98401859Y-55962603D01*
X98463182Y-55996088D01*
X98496666Y-56057411D01*
X98499500Y-56083769D01*
X98499500Y-63539317D01*
X98479815Y-63606356D01*
X98427011Y-63652111D01*
X98357853Y-63662055D01*
X98294297Y-63633030D01*
X98275182Y-63612203D01*
X98220794Y-63537345D01*
X98042654Y-63359205D01*
X98042649Y-63359201D01*
X97838848Y-63211132D01*
X97838847Y-63211131D01*
X97838845Y-63211130D01*
X97768747Y-63175413D01*
X97614383Y-63096760D01*
X97374785Y-63018910D01*
X97125962Y-62979500D01*
X96874038Y-62979500D01*
X96749626Y-62999205D01*
X96625214Y-63018910D01*
X96385616Y-63096760D01*
X96161151Y-63211132D01*
X95957350Y-63359201D01*
X95957345Y-63359205D01*
X95779205Y-63537345D01*
X95779201Y-63537350D01*
X95631132Y-63741151D01*
X95516760Y-63965616D01*
X95438910Y-64205214D01*
X95399500Y-64454038D01*
X95399500Y-64705961D01*
X95438910Y-64954785D01*
X95516760Y-65194383D01*
X95542860Y-65245606D01*
X95630957Y-65418506D01*
X95631132Y-65418848D01*
X95779201Y-65622649D01*
X95779205Y-65622654D01*
X95957345Y-65800794D01*
X95957350Y-65800798D01*
X96067660Y-65880942D01*
X96161155Y-65948870D01*
X96249463Y-65993865D01*
X96385616Y-66063239D01*
X96385618Y-66063239D01*
X96385621Y-66063241D01*
X96625215Y-66141090D01*
X96874038Y-66180500D01*
X96874039Y-66180500D01*
X97125961Y-66180500D01*
X97125962Y-66180500D01*
X97374785Y-66141090D01*
X97614379Y-66063241D01*
X97838845Y-65948870D01*
X98042656Y-65800793D01*
X98220793Y-65622656D01*
X98244751Y-65589681D01*
X98275182Y-65547797D01*
X98330512Y-65505131D01*
X98400125Y-65499152D01*
X98461920Y-65531757D01*
X98496277Y-65592596D01*
X98499500Y-65620682D01*
X98499500Y-166375500D01*
X98479815Y-166442539D01*
X98427011Y-166488294D01*
X98375500Y-166499500D01*
X93530656Y-166499500D01*
X93463617Y-166479815D01*
X93417862Y-166427011D01*
X93407918Y-166357853D01*
X93436943Y-166294297D01*
X93460893Y-166274996D01*
X93460231Y-166274112D01*
X93540136Y-166214293D01*
X93582546Y-166182546D01*
X93668796Y-166067331D01*
X93719091Y-165932483D01*
X93725500Y-165872873D01*
X93725499Y-164077128D01*
X93719091Y-164017517D01*
X93717810Y-164014083D01*
X93668797Y-163882671D01*
X93668793Y-163882664D01*
X93582547Y-163767455D01*
X93582544Y-163767452D01*
X93467335Y-163681206D01*
X93467328Y-163681202D01*
X93332482Y-163630908D01*
X93332483Y-163630908D01*
X93272883Y-163624501D01*
X93272881Y-163624500D01*
X93272873Y-163624500D01*
X93272864Y-163624500D01*
X91477129Y-163624500D01*
X91477123Y-163624501D01*
X91417516Y-163630908D01*
X91282671Y-163681202D01*
X91282664Y-163681206D01*
X91167455Y-163767452D01*
X91167452Y-163767455D01*
X91081206Y-163882664D01*
X91081203Y-163882669D01*
X91032189Y-164014083D01*
X90990317Y-164070016D01*
X90924853Y-164094433D01*
X90856580Y-164079581D01*
X90828326Y-164058430D01*
X90714786Y-163944890D01*
X90542820Y-163819951D01*
X90353414Y-163723444D01*
X90353413Y-163723443D01*
X90353412Y-163723443D01*
X90151243Y-163657754D01*
X90151241Y-163657753D01*
X90151240Y-163657753D01*
X89984119Y-163631284D01*
X89941287Y-163624500D01*
X89728713Y-163624500D01*
X89685881Y-163631284D01*
X89518760Y-163657753D01*
X89316585Y-163723444D01*
X89127179Y-163819951D01*
X88955213Y-163944890D01*
X88804890Y-164095213D01*
X88679949Y-164267182D01*
X88675484Y-164275946D01*
X88627509Y-164326742D01*
X88559688Y-164343536D01*
X88493553Y-164320998D01*
X88454516Y-164275946D01*
X88450050Y-164267182D01*
X88325109Y-164095213D01*
X88174786Y-163944890D01*
X88002815Y-163819948D01*
X88002814Y-163819947D01*
X87963205Y-163799765D01*
X87912409Y-163751791D01*
X87895500Y-163689281D01*
X87895500Y-155944060D01*
X87895501Y-155944047D01*
X87895501Y-155775944D01*
X87854576Y-155623214D01*
X87854573Y-155623209D01*
X87775524Y-155486290D01*
X87775518Y-155486282D01*
X84484077Y-152194842D01*
X84450592Y-152133519D01*
X84453828Y-152068841D01*
X84458477Y-152054534D01*
X84490500Y-151852352D01*
X84490500Y-151647648D01*
X84482257Y-151595606D01*
X84458477Y-151445465D01*
X84395218Y-151250776D01*
X84302419Y-151068650D01*
X84302287Y-151068390D01*
X84294556Y-151057749D01*
X84181971Y-150902786D01*
X84037213Y-150758028D01*
X83871613Y-150637715D01*
X83871612Y-150637714D01*
X83871610Y-150637713D01*
X83814653Y-150608691D01*
X83689223Y-150544781D01*
X83528106Y-150492431D01*
X83470431Y-150452993D01*
X83443233Y-150388634D01*
X83455148Y-150319788D01*
X83502392Y-150268312D01*
X83566425Y-150250500D01*
X87844218Y-150250500D01*
X87911257Y-150270185D01*
X87931899Y-150286819D01*
X89483281Y-151838201D01*
X89516766Y-151899524D01*
X89518073Y-151906483D01*
X89541523Y-152054535D01*
X89604781Y-152249223D01*
X89697580Y-152431349D01*
X89697713Y-152431610D01*
X89785819Y-152552877D01*
X89809298Y-152618681D01*
X89809500Y-152625761D01*
X89809500Y-156374237D01*
X89789815Y-156441276D01*
X89785818Y-156447122D01*
X89697715Y-156568386D01*
X89604781Y-156750776D01*
X89541522Y-156945465D01*
X89509500Y-157147648D01*
X89509500Y-157352351D01*
X89541522Y-157554534D01*
X89604781Y-157749223D01*
X89650985Y-157839902D01*
X89695661Y-157927583D01*
X89697715Y-157931613D01*
X89818028Y-158097213D01*
X89962786Y-158241971D01*
X90091614Y-158335568D01*
X90128390Y-158362287D01*
X90209499Y-158403614D01*
X90310776Y-158455218D01*
X90310778Y-158455218D01*
X90310781Y-158455220D01*
X90415137Y-158489127D01*
X90505465Y-158518477D01*
X90606557Y-158534488D01*
X90707648Y-158550500D01*
X90707649Y-158550500D01*
X90912351Y-158550500D01*
X90912352Y-158550500D01*
X91114534Y-158518477D01*
X91309219Y-158455220D01*
X91491610Y-158362287D01*
X91594037Y-158287870D01*
X91657213Y-158241971D01*
X91657215Y-158241968D01*
X91657219Y-158241966D01*
X91801966Y-158097219D01*
X91801968Y-158097215D01*
X91801971Y-158097213D01*
X91854732Y-158024590D01*
X91922287Y-157931610D01*
X92015220Y-157749219D01*
X92078477Y-157554534D01*
X92110500Y-157352352D01*
X92110500Y-157147648D01*
X92102257Y-157095606D01*
X92078477Y-156945465D01*
X92015218Y-156750776D01*
X91981503Y-156684607D01*
X91922287Y-156568390D01*
X91896223Y-156532516D01*
X91834182Y-156447122D01*
X91810702Y-156381316D01*
X91810500Y-156374237D01*
X91810500Y-152625761D01*
X91830185Y-152558722D01*
X91834165Y-152552899D01*
X91922287Y-152431610D01*
X92015220Y-152249219D01*
X92078477Y-152054534D01*
X92110500Y-151852352D01*
X92110500Y-151647648D01*
X92102257Y-151595606D01*
X92078477Y-151445465D01*
X92015218Y-151250776D01*
X91922419Y-151068650D01*
X91922287Y-151068390D01*
X91914556Y-151057749D01*
X91801971Y-150902786D01*
X91657213Y-150758028D01*
X91491613Y-150637715D01*
X91491612Y-150637714D01*
X91491610Y-150637713D01*
X91434653Y-150608691D01*
X91309223Y-150544781D01*
X91114535Y-150481523D01*
X90966483Y-150458073D01*
X90903349Y-150428143D01*
X90898201Y-150423281D01*
X89091479Y-148616559D01*
X89091459Y-148616537D01*
X88947785Y-148472863D01*
X88947781Y-148472860D01*
X88783920Y-148363371D01*
X88783911Y-148363366D01*
X88711315Y-148333296D01*
X88655165Y-148310038D01*
X88601836Y-148287949D01*
X88601832Y-148287948D01*
X88601828Y-148287946D01*
X88505188Y-148268724D01*
X88408544Y-148249500D01*
X88408541Y-148249500D01*
X72525783Y-148249500D01*
X72458744Y-148229815D01*
X72438102Y-148213181D01*
X71576717Y-147351797D01*
X71543232Y-147290474D01*
X71541925Y-147283513D01*
X71537755Y-147257187D01*
X71518477Y-147135466D01*
X71455220Y-146940781D01*
X71455218Y-146940778D01*
X71455218Y-146940776D01*
X71421503Y-146874607D01*
X71362287Y-146758390D01*
X71344583Y-146734022D01*
X71241971Y-146592786D01*
X71097213Y-146448028D01*
X70931613Y-146327715D01*
X70931612Y-146327714D01*
X70931610Y-146327713D01*
X70886555Y-146304756D01*
X70749223Y-146234781D01*
X70554534Y-146171522D01*
X70379995Y-146143878D01*
X70352352Y-146139500D01*
X70147648Y-146139500D01*
X70123329Y-146143351D01*
X69945465Y-146171522D01*
X69750776Y-146234781D01*
X69568386Y-146327715D01*
X69402786Y-146448028D01*
X69258028Y-146592786D01*
X69137715Y-146758386D01*
X69044781Y-146940776D01*
X68981522Y-147135465D01*
X68949500Y-147337648D01*
X68949500Y-147542351D01*
X68981522Y-147744534D01*
X69044781Y-147939223D01*
X69137715Y-148121613D01*
X69258028Y-148287213D01*
X69402786Y-148431971D01*
X69557749Y-148544556D01*
X69568390Y-148552287D01*
X69684607Y-148611503D01*
X69750776Y-148645218D01*
X69750778Y-148645218D01*
X69750781Y-148645220D01*
X69855137Y-148679127D01*
X69945465Y-148708477D01*
X70022966Y-148720751D01*
X70093513Y-148731925D01*
X70156648Y-148761854D01*
X70161797Y-148766717D01*
X71422215Y-150027137D01*
X71422219Y-150027140D01*
X71586079Y-150136628D01*
X71586085Y-150136631D01*
X71586086Y-150136632D01*
X71768165Y-150212052D01*
X71961455Y-150250500D01*
X71961458Y-150250501D01*
X71961460Y-150250501D01*
X72164655Y-150250501D01*
X72164675Y-150250500D01*
X73065191Y-150250500D01*
X73132230Y-150270185D01*
X73177985Y-150322989D01*
X73187929Y-150392147D01*
X73158904Y-150455703D01*
X73103510Y-150492431D01*
X72940968Y-150545244D01*
X72758650Y-150638140D01*
X72593105Y-150758417D01*
X72593104Y-150758417D01*
X72448417Y-150903104D01*
X72448417Y-150903105D01*
X72328140Y-151068650D01*
X72235244Y-151250970D01*
X72172009Y-151445586D01*
X72163391Y-151500000D01*
X73124314Y-151500000D01*
X73119920Y-151504394D01*
X73067259Y-151595606D01*
X73040000Y-151697339D01*
X73040000Y-151802661D01*
X73067259Y-151904394D01*
X73119920Y-151995606D01*
X73124314Y-152000000D01*
X72163391Y-152000000D01*
X72172009Y-152054413D01*
X72235244Y-152249029D01*
X72328140Y-152431349D01*
X72448417Y-152596894D01*
X72448417Y-152596895D01*
X72593104Y-152741582D01*
X72758650Y-152861859D01*
X72940968Y-152954754D01*
X73135578Y-153017988D01*
X73190000Y-153026607D01*
X73190000Y-152065686D01*
X73194394Y-152070080D01*
X73285606Y-152122741D01*
X73387339Y-152150000D01*
X73492661Y-152150000D01*
X73594394Y-152122741D01*
X73685606Y-152070080D01*
X73690000Y-152065686D01*
X73690000Y-153026606D01*
X73744421Y-153017988D01*
X73939031Y-152954754D01*
X74121349Y-152861859D01*
X74286894Y-152741582D01*
X74286895Y-152741582D01*
X74431582Y-152596895D01*
X74431582Y-152596894D01*
X74551859Y-152431349D01*
X74644755Y-152249029D01*
X74707990Y-152054413D01*
X74716609Y-152000000D01*
X73755686Y-152000000D01*
X73760080Y-151995606D01*
X73812741Y-151904394D01*
X73840000Y-151802661D01*
X73840000Y-151697339D01*
X73812741Y-151595606D01*
X73760080Y-151504394D01*
X73755686Y-151500000D01*
X74716609Y-151500000D01*
X74707990Y-151445586D01*
X74644755Y-151250970D01*
X74551859Y-151068650D01*
X74431582Y-150903105D01*
X74431582Y-150903104D01*
X74286895Y-150758417D01*
X74121349Y-150638140D01*
X73939031Y-150545244D01*
X73776490Y-150492431D01*
X73718815Y-150452993D01*
X73691617Y-150388634D01*
X73703532Y-150319788D01*
X73750776Y-150268312D01*
X73814809Y-150250500D01*
X80015952Y-150250500D01*
X80082991Y-150270185D01*
X80128746Y-150322989D01*
X80138690Y-150392147D01*
X80109665Y-150455703D01*
X80059285Y-150490682D01*
X80017671Y-150506202D01*
X80017664Y-150506206D01*
X79902455Y-150592452D01*
X79902452Y-150592455D01*
X79816206Y-150707664D01*
X79816202Y-150707671D01*
X79765908Y-150842517D01*
X79759501Y-150902116D01*
X79759500Y-150902135D01*
X79759500Y-152597870D01*
X79759501Y-152597876D01*
X79765908Y-152657483D01*
X79816202Y-152792328D01*
X79816206Y-152792335D01*
X79902452Y-152907544D01*
X79902455Y-152907547D01*
X80017664Y-152993793D01*
X80017671Y-152993797D01*
X80152517Y-153044091D01*
X80152516Y-153044091D01*
X80159444Y-153044835D01*
X80212127Y-153050500D01*
X81907872Y-153050499D01*
X81967483Y-153044091D01*
X82102331Y-152993796D01*
X82217546Y-152907546D01*
X82268695Y-152839219D01*
X82324627Y-152797350D01*
X82394318Y-152792366D01*
X82440845Y-152813213D01*
X82508390Y-152862287D01*
X82690776Y-152955218D01*
X82690778Y-152955218D01*
X82690781Y-152955220D01*
X82795137Y-152989127D01*
X82885465Y-153018477D01*
X82986557Y-153034488D01*
X83087648Y-153050500D01*
X83087649Y-153050500D01*
X83292351Y-153050500D01*
X83292352Y-153050500D01*
X83494534Y-153018477D01*
X83508842Y-153013827D01*
X83578682Y-153011831D01*
X83634842Y-153044077D01*
X86658181Y-156067416D01*
X86691666Y-156128739D01*
X86694500Y-156155097D01*
X86694500Y-163689281D01*
X86674815Y-163756320D01*
X86626795Y-163799765D01*
X86587185Y-163819947D01*
X86587184Y-163819948D01*
X86415213Y-163944890D01*
X86264890Y-164095213D01*
X86139949Y-164267182D01*
X86135484Y-164275946D01*
X86087509Y-164326742D01*
X86019688Y-164343536D01*
X85953553Y-164320998D01*
X85914516Y-164275946D01*
X85910050Y-164267182D01*
X85785109Y-164095213D01*
X85634786Y-163944890D01*
X85462820Y-163819951D01*
X85273414Y-163723444D01*
X85273413Y-163723443D01*
X85273412Y-163723443D01*
X85071243Y-163657754D01*
X85071241Y-163657753D01*
X85071240Y-163657753D01*
X84904119Y-163631284D01*
X84861287Y-163624500D01*
X84648713Y-163624500D01*
X84605881Y-163631284D01*
X84438760Y-163657753D01*
X84236585Y-163723444D01*
X84047184Y-163819948D01*
X83987385Y-163863395D01*
X83921578Y-163886874D01*
X83853524Y-163871048D01*
X83804830Y-163820942D01*
X83790500Y-163763076D01*
X83790500Y-158479601D01*
X83810185Y-158412562D01*
X83858206Y-158369116D01*
X83871610Y-158362287D01*
X84037219Y-158241966D01*
X84181966Y-158097219D01*
X84181968Y-158097215D01*
X84181971Y-158097213D01*
X84234732Y-158024590D01*
X84302287Y-157931610D01*
X84395220Y-157749219D01*
X84458477Y-157554534D01*
X84490500Y-157352352D01*
X84490500Y-157147648D01*
X84482257Y-157095606D01*
X84458477Y-156945465D01*
X84395218Y-156750776D01*
X84361503Y-156684607D01*
X84302287Y-156568390D01*
X84276223Y-156532516D01*
X84181971Y-156402786D01*
X84037213Y-156258028D01*
X83871613Y-156137715D01*
X83871612Y-156137714D01*
X83871610Y-156137713D01*
X83794841Y-156098597D01*
X83689223Y-156044781D01*
X83494534Y-155981522D01*
X83319995Y-155953878D01*
X83292352Y-155949500D01*
X83087648Y-155949500D01*
X83063329Y-155953351D01*
X82885465Y-155981522D01*
X82690776Y-156044781D01*
X82508386Y-156137714D01*
X82440844Y-156186786D01*
X82375037Y-156210265D01*
X82306984Y-156194439D01*
X82268694Y-156160778D01*
X82217547Y-156092455D01*
X82217544Y-156092452D01*
X82102335Y-156006206D01*
X82102328Y-156006202D01*
X81967482Y-155955908D01*
X81967483Y-155955908D01*
X81907883Y-155949501D01*
X81907881Y-155949500D01*
X81907873Y-155949500D01*
X81907864Y-155949500D01*
X80212129Y-155949500D01*
X80212123Y-155949501D01*
X80152516Y-155955908D01*
X80017671Y-156006202D01*
X80017664Y-156006206D01*
X79902455Y-156092452D01*
X79902452Y-156092455D01*
X79816206Y-156207664D01*
X79816202Y-156207671D01*
X79765908Y-156342517D01*
X79759501Y-156402116D01*
X79759500Y-156402135D01*
X79759500Y-158097870D01*
X79759501Y-158097876D01*
X79765908Y-158157483D01*
X79816202Y-158292328D01*
X79816206Y-158292335D01*
X79902452Y-158407544D01*
X79902455Y-158407547D01*
X80017664Y-158493793D01*
X80017671Y-158493797D01*
X80152517Y-158544091D01*
X80152516Y-158544091D01*
X80159444Y-158544835D01*
X80212127Y-158550500D01*
X81907872Y-158550499D01*
X81967483Y-158544091D01*
X82102331Y-158493796D01*
X82217546Y-158407546D01*
X82268695Y-158339219D01*
X82273572Y-158335568D01*
X82276237Y-158330089D01*
X82301212Y-158314877D01*
X82324627Y-158297350D01*
X82330704Y-158296915D01*
X82335910Y-158293745D01*
X82365149Y-158294452D01*
X82394318Y-158292366D01*
X82401222Y-158295324D01*
X82405760Y-158295434D01*
X82429181Y-158307303D01*
X82437500Y-158310867D01*
X82439211Y-158312026D01*
X82508390Y-158362287D01*
X82528662Y-158372616D01*
X82535040Y-158376936D01*
X82552566Y-158398178D01*
X82572589Y-158417088D01*
X82574745Y-158425060D01*
X82579506Y-158430830D01*
X82582026Y-158451974D01*
X82589500Y-158479601D01*
X82589500Y-163521795D01*
X82569815Y-163588834D01*
X82517011Y-163634589D01*
X82447853Y-163644533D01*
X82446103Y-163644268D01*
X82321287Y-163624500D01*
X82108713Y-163624500D01*
X82069202Y-163630757D01*
X81898759Y-163657753D01*
X81696591Y-163723441D01*
X81696588Y-163723442D01*
X81675590Y-163734141D01*
X81669919Y-163735205D01*
X81665385Y-163738772D01*
X81635969Y-163741581D01*
X81606920Y-163747036D01*
X81601573Y-163744865D01*
X81595832Y-163745414D01*
X81569568Y-163731874D01*
X81542181Y-163720758D01*
X81537520Y-163715353D01*
X81533729Y-163713399D01*
X81511911Y-163685656D01*
X81509341Y-163681204D01*
X81495802Y-163657754D01*
X81482428Y-163634589D01*
X81480522Y-163631287D01*
X81480521Y-163631286D01*
X81480520Y-163631284D01*
X81368716Y-163519480D01*
X81368715Y-163519479D01*
X81364385Y-163515149D01*
X81364374Y-163515139D01*
X79487590Y-161638355D01*
X79487588Y-161638352D01*
X79368717Y-161519481D01*
X79368716Y-161519480D01*
X79281904Y-161469360D01*
X79281904Y-161469359D01*
X79281900Y-161469358D01*
X79231785Y-161440423D01*
X79079057Y-161399499D01*
X78920943Y-161399499D01*
X78913347Y-161399499D01*
X78913331Y-161399500D01*
X75110097Y-161399500D01*
X75043058Y-161379815D01*
X75022416Y-161363181D01*
X71586818Y-157927583D01*
X71553333Y-157866260D01*
X71550499Y-157839902D01*
X71550499Y-157000000D01*
X72163391Y-157000000D01*
X73124314Y-157000000D01*
X73119920Y-157004394D01*
X73067259Y-157095606D01*
X73040000Y-157197339D01*
X73040000Y-157302661D01*
X73067259Y-157404394D01*
X73119920Y-157495606D01*
X73124314Y-157500000D01*
X72163391Y-157500000D01*
X72172009Y-157554413D01*
X72235244Y-157749029D01*
X72328140Y-157931349D01*
X72448417Y-158096894D01*
X72448417Y-158096895D01*
X72593104Y-158241582D01*
X72758650Y-158361859D01*
X72940968Y-158454754D01*
X73135578Y-158517988D01*
X73190000Y-158526607D01*
X73190000Y-157565686D01*
X73194394Y-157570080D01*
X73285606Y-157622741D01*
X73387339Y-157650000D01*
X73492661Y-157650000D01*
X73594394Y-157622741D01*
X73685606Y-157570080D01*
X73690000Y-157565686D01*
X73690000Y-158526606D01*
X73744421Y-158517988D01*
X73939031Y-158454754D01*
X74121349Y-158361859D01*
X74286894Y-158241582D01*
X74286895Y-158241582D01*
X74431582Y-158096895D01*
X74431582Y-158096894D01*
X74551859Y-157931349D01*
X74644755Y-157749029D01*
X74707990Y-157554413D01*
X74716609Y-157500000D01*
X73755686Y-157500000D01*
X73760080Y-157495606D01*
X73812741Y-157404394D01*
X73840000Y-157302661D01*
X73840000Y-157197339D01*
X73812741Y-157095606D01*
X73760080Y-157004394D01*
X73755686Y-157000000D01*
X74716609Y-157000000D01*
X74707990Y-156945586D01*
X74644755Y-156750970D01*
X74551859Y-156568650D01*
X74431582Y-156403105D01*
X74431582Y-156403104D01*
X74286895Y-156258417D01*
X74121349Y-156138140D01*
X73939029Y-156045244D01*
X73744413Y-155982009D01*
X73690000Y-155973390D01*
X73690000Y-156934314D01*
X73685606Y-156929920D01*
X73594394Y-156877259D01*
X73492661Y-156850000D01*
X73387339Y-156850000D01*
X73285606Y-156877259D01*
X73194394Y-156929920D01*
X73190000Y-156934314D01*
X73190000Y-155973390D01*
X73135586Y-155982009D01*
X72940970Y-156045244D01*
X72758650Y-156138140D01*
X72593105Y-156258417D01*
X72593104Y-156258417D01*
X72448417Y-156403104D01*
X72448417Y-156403105D01*
X72328140Y-156568650D01*
X72235244Y-156750970D01*
X72172009Y-156945586D01*
X72163391Y-157000000D01*
X71550499Y-157000000D01*
X71550499Y-156592129D01*
X71550498Y-156592123D01*
X71550497Y-156592116D01*
X71544091Y-156532517D01*
X71510060Y-156441276D01*
X71493797Y-156397671D01*
X71493793Y-156397664D01*
X71407547Y-156282455D01*
X71407544Y-156282452D01*
X71292335Y-156196206D01*
X71292328Y-156196202D01*
X71225950Y-156171445D01*
X71170016Y-156129574D01*
X71145599Y-156064109D01*
X71160451Y-155995837D01*
X71181596Y-155967588D01*
X71241966Y-155907219D01*
X71362287Y-155741610D01*
X71455220Y-155559219D01*
X71518477Y-155364534D01*
X71550500Y-155162352D01*
X71550500Y-154957648D01*
X71518477Y-154755466D01*
X71455220Y-154560781D01*
X71455218Y-154560778D01*
X71455218Y-154560776D01*
X71421503Y-154494607D01*
X71362287Y-154378390D01*
X71354556Y-154367749D01*
X71241971Y-154212786D01*
X71097213Y-154068028D01*
X70931613Y-153947715D01*
X70931612Y-153947714D01*
X70931610Y-153947713D01*
X70874653Y-153918691D01*
X70749223Y-153854781D01*
X70554534Y-153791522D01*
X70379995Y-153763878D01*
X70352352Y-153759500D01*
X70147648Y-153759500D01*
X70123329Y-153763351D01*
X69945465Y-153791522D01*
X69750776Y-153854781D01*
X69568386Y-153947715D01*
X69402786Y-154068028D01*
X69258028Y-154212786D01*
X69137715Y-154378386D01*
X69044781Y-154560776D01*
X68981522Y-154755465D01*
X68949500Y-154957648D01*
X68949500Y-155162351D01*
X68981522Y-155364534D01*
X69044781Y-155559223D01*
X69137715Y-155741613D01*
X69258028Y-155907213D01*
X69318397Y-155967582D01*
X69351882Y-156028905D01*
X69346898Y-156098597D01*
X69305026Y-156154530D01*
X69274050Y-156171445D01*
X69207669Y-156196203D01*
X69207664Y-156196206D01*
X69092455Y-156282452D01*
X69092452Y-156282455D01*
X69006206Y-156397664D01*
X69006202Y-156397671D01*
X68955908Y-156532517D01*
X68952052Y-156568390D01*
X68949501Y-156592123D01*
X68949500Y-156592135D01*
X68949500Y-158287870D01*
X68949501Y-158287876D01*
X68955908Y-158347483D01*
X69006202Y-158482328D01*
X69006206Y-158482335D01*
X69092452Y-158597544D01*
X69092455Y-158597547D01*
X69207664Y-158683793D01*
X69207671Y-158683797D01*
X69342517Y-158734091D01*
X69342516Y-158734091D01*
X69349444Y-158734835D01*
X69402127Y-158740500D01*
X70649902Y-158740499D01*
X70716941Y-158760184D01*
X70737583Y-158776818D01*
X74325139Y-162364374D01*
X74325149Y-162364385D01*
X74329479Y-162368715D01*
X74329480Y-162368716D01*
X74441284Y-162480520D01*
X74528095Y-162530639D01*
X74528097Y-162530641D01*
X74566151Y-162552611D01*
X74578215Y-162559577D01*
X74730943Y-162600501D01*
X74730946Y-162600501D01*
X74896653Y-162600501D01*
X74896669Y-162600500D01*
X78699903Y-162600500D01*
X78766942Y-162620185D01*
X78787584Y-162636819D01*
X79574939Y-163424174D01*
X79608424Y-163485497D01*
X79603440Y-163555189D01*
X79561568Y-163611122D01*
X79506657Y-163634328D01*
X79358759Y-163657753D01*
X79156585Y-163723444D01*
X78967179Y-163819951D01*
X78795213Y-163944890D01*
X78644890Y-164095213D01*
X78519949Y-164267182D01*
X78515202Y-164276499D01*
X78467227Y-164327293D01*
X78399405Y-164344087D01*
X78333271Y-164321548D01*
X78294234Y-164276495D01*
X78289622Y-164267444D01*
X78164727Y-164095540D01*
X78164723Y-164095535D01*
X78014464Y-163945276D01*
X78014459Y-163945272D01*
X77842557Y-163820379D01*
X77653215Y-163723903D01*
X77451124Y-163658241D01*
X77385000Y-163647768D01*
X77385000Y-164541988D01*
X77327993Y-164509075D01*
X77200826Y-164475000D01*
X77069174Y-164475000D01*
X76942007Y-164509075D01*
X76885000Y-164541988D01*
X76885000Y-163647768D01*
X76884999Y-163647768D01*
X76818875Y-163658241D01*
X76616784Y-163723903D01*
X76427442Y-163820379D01*
X76255540Y-163945272D01*
X76255535Y-163945276D01*
X76105276Y-164095535D01*
X76105272Y-164095540D01*
X75980377Y-164267444D01*
X75975484Y-164277048D01*
X75927509Y-164327844D01*
X75859688Y-164344638D01*
X75793553Y-164322100D01*
X75754516Y-164277048D01*
X75749622Y-164267444D01*
X75624727Y-164095540D01*
X75624723Y-164095535D01*
X75474464Y-163945276D01*
X75474459Y-163945272D01*
X75302557Y-163820379D01*
X75113215Y-163723903D01*
X74911124Y-163658241D01*
X74845000Y-163647768D01*
X74845000Y-164541988D01*
X74787993Y-164509075D01*
X74660826Y-164475000D01*
X74529174Y-164475000D01*
X74402007Y-164509075D01*
X74345000Y-164541988D01*
X74345000Y-163647768D01*
X74344999Y-163647768D01*
X74278875Y-163658241D01*
X74076784Y-163723903D01*
X73887442Y-163820379D01*
X73715540Y-163945272D01*
X73715535Y-163945276D01*
X73565276Y-164095535D01*
X73565272Y-164095540D01*
X73440379Y-164267442D01*
X73343904Y-164456782D01*
X73278242Y-164658870D01*
X73278242Y-164658873D01*
X73267769Y-164725000D01*
X74161988Y-164725000D01*
X74129075Y-164782007D01*
X74095000Y-164909174D01*
X74095000Y-165040826D01*
X74129075Y-165167993D01*
X74161988Y-165225000D01*
X73267769Y-165225000D01*
X73278242Y-165291126D01*
X73278242Y-165291129D01*
X73343904Y-165493217D01*
X73440379Y-165682557D01*
X73565272Y-165854459D01*
X73565276Y-165854464D01*
X73715535Y-166004723D01*
X73715540Y-166004727D01*
X73887442Y-166129620D01*
X74076782Y-166226095D01*
X74173649Y-166257569D01*
X74231324Y-166297006D01*
X74258523Y-166361365D01*
X74246609Y-166430211D01*
X74199365Y-166481687D01*
X74135331Y-166499500D01*
X70804816Y-166499500D01*
X70737777Y-166479815D01*
X70692022Y-166427011D01*
X70682078Y-166357853D01*
X70711103Y-166294297D01*
X70748521Y-166265015D01*
X70931349Y-166171859D01*
X71096894Y-166051582D01*
X71096895Y-166051582D01*
X71241582Y-165906895D01*
X71241582Y-165906894D01*
X71361859Y-165741349D01*
X71454755Y-165559029D01*
X71517990Y-165364413D01*
X71526609Y-165310000D01*
X70565686Y-165310000D01*
X70570080Y-165305606D01*
X70622741Y-165214394D01*
X70650000Y-165112661D01*
X70650000Y-165007339D01*
X70622741Y-164905606D01*
X70570080Y-164814394D01*
X70565686Y-164810000D01*
X71526609Y-164810000D01*
X71522089Y-164781463D01*
X71522089Y-164781462D01*
X71517990Y-164755586D01*
X71454755Y-164560970D01*
X71361859Y-164378650D01*
X71241582Y-164213105D01*
X71241582Y-164213104D01*
X71096895Y-164068417D01*
X70931349Y-163948140D01*
X70749029Y-163855244D01*
X70554413Y-163792009D01*
X70500000Y-163783390D01*
X70500000Y-164744314D01*
X70495606Y-164739920D01*
X70404394Y-164687259D01*
X70302661Y-164660000D01*
X70197339Y-164660000D01*
X70095606Y-164687259D01*
X70004394Y-164739920D01*
X70000000Y-164744314D01*
X70000000Y-163783390D01*
X69945586Y-163792009D01*
X69750970Y-163855244D01*
X69568650Y-163948140D01*
X69403105Y-164068417D01*
X69403104Y-164068417D01*
X69258417Y-164213104D01*
X69258417Y-164213105D01*
X69138140Y-164378650D01*
X69045244Y-164560970D01*
X68982009Y-164755586D01*
X68973391Y-164810000D01*
X69934314Y-164810000D01*
X69929920Y-164814394D01*
X69877259Y-164905606D01*
X69850000Y-165007339D01*
X69850000Y-165112661D01*
X69877259Y-165214394D01*
X69929920Y-165305606D01*
X69934314Y-165310000D01*
X68973391Y-165310000D01*
X68982009Y-165364413D01*
X69045244Y-165559029D01*
X69138140Y-165741349D01*
X69258417Y-165906894D01*
X69258417Y-165906895D01*
X69403104Y-166051582D01*
X69568650Y-166171859D01*
X69751479Y-166265015D01*
X69802275Y-166312989D01*
X69819070Y-166380810D01*
X69796533Y-166446945D01*
X69741818Y-166490397D01*
X69695184Y-166499500D01*
X67624500Y-166499500D01*
X67557461Y-166479815D01*
X67511706Y-166427011D01*
X67500500Y-166375500D01*
X67500500Y-123647648D01*
X73139500Y-123647648D01*
X73139500Y-123852351D01*
X73171522Y-124054534D01*
X73234781Y-124249223D01*
X73327715Y-124431613D01*
X73448028Y-124597213D01*
X73448034Y-124597219D01*
X73592781Y-124741966D01*
X73758390Y-124862287D01*
X73771793Y-124869116D01*
X73822589Y-124917088D01*
X73839500Y-124979601D01*
X73839500Y-136103330D01*
X73839499Y-136103348D01*
X73839499Y-136269054D01*
X73839498Y-136269054D01*
X73880423Y-136421785D01*
X73909358Y-136471900D01*
X73909359Y-136471904D01*
X73909360Y-136471904D01*
X73959479Y-136558714D01*
X73959481Y-136558717D01*
X74078349Y-136677585D01*
X74078355Y-136677590D01*
X81788584Y-144387819D01*
X81822069Y-144449142D01*
X81817085Y-144518834D01*
X81775213Y-144574767D01*
X81709749Y-144599184D01*
X81700903Y-144599500D01*
X81639778Y-144599500D01*
X81567201Y-144610995D01*
X81422047Y-144633985D01*
X81212396Y-144702103D01*
X81212393Y-144702104D01*
X81015974Y-144802187D01*
X80837641Y-144931752D01*
X80837635Y-144931757D01*
X80816207Y-144953185D01*
X80754884Y-144986669D01*
X80685192Y-144981683D01*
X80629259Y-144939810D01*
X80612346Y-144908834D01*
X80593355Y-144857915D01*
X80593350Y-144857906D01*
X80507190Y-144742812D01*
X80507187Y-144742809D01*
X80392093Y-144656649D01*
X80392086Y-144656645D01*
X80257379Y-144606403D01*
X80257372Y-144606401D01*
X80197844Y-144600000D01*
X79500000Y-144600000D01*
X79500000Y-145566988D01*
X79442993Y-145534075D01*
X79315826Y-145500000D01*
X79184174Y-145500000D01*
X79057007Y-145534075D01*
X79000000Y-145566988D01*
X79000000Y-144600000D01*
X78302155Y-144600000D01*
X78242627Y-144606401D01*
X78242620Y-144606403D01*
X78107913Y-144656645D01*
X78107906Y-144656649D01*
X77992812Y-144742809D01*
X77992809Y-144742812D01*
X77906649Y-144857906D01*
X77906645Y-144857913D01*
X77856403Y-144992620D01*
X77856401Y-144992627D01*
X77850000Y-145052155D01*
X77850000Y-145750000D01*
X78816988Y-145750000D01*
X78784075Y-145807007D01*
X78750000Y-145934174D01*
X78750000Y-146065826D01*
X78784075Y-146192993D01*
X78816988Y-146250000D01*
X77850000Y-146250000D01*
X77850000Y-146947844D01*
X77856401Y-147007372D01*
X77856403Y-147007379D01*
X77906645Y-147142086D01*
X77906649Y-147142093D01*
X77992809Y-147257187D01*
X77992812Y-147257190D01*
X78107906Y-147343350D01*
X78107913Y-147343354D01*
X78242620Y-147393596D01*
X78242627Y-147393598D01*
X78302155Y-147399999D01*
X78302172Y-147400000D01*
X79000000Y-147400000D01*
X79000000Y-146433012D01*
X79057007Y-146465925D01*
X79184174Y-146500000D01*
X79315826Y-146500000D01*
X79442993Y-146465925D01*
X79500000Y-146433012D01*
X79500000Y-147400000D01*
X80197828Y-147400000D01*
X80197844Y-147399999D01*
X80257372Y-147393598D01*
X80257379Y-147393596D01*
X80392086Y-147343354D01*
X80392093Y-147343350D01*
X80507187Y-147257190D01*
X80507190Y-147257187D01*
X80593350Y-147142093D01*
X80593353Y-147142088D01*
X80612345Y-147091166D01*
X80654215Y-147035232D01*
X80719679Y-147010813D01*
X80787952Y-147025663D01*
X80816209Y-147046816D01*
X80837636Y-147068243D01*
X80837641Y-147068247D01*
X80993192Y-147181260D01*
X81015978Y-147197815D01*
X81132501Y-147257187D01*
X81212393Y-147297895D01*
X81212396Y-147297896D01*
X81290608Y-147323308D01*
X81422049Y-147366015D01*
X81639778Y-147400500D01*
X81639779Y-147400500D01*
X81860221Y-147400500D01*
X81860222Y-147400500D01*
X82077951Y-147366015D01*
X82287606Y-147297895D01*
X82484022Y-147197815D01*
X82662365Y-147068242D01*
X82818242Y-146912365D01*
X82899682Y-146800270D01*
X82955011Y-146757606D01*
X83024624Y-146751627D01*
X83086420Y-146784232D01*
X83100313Y-146800265D01*
X83181753Y-146912358D01*
X83181758Y-146912365D01*
X83337636Y-147068243D01*
X83337641Y-147068247D01*
X83493192Y-147181260D01*
X83515978Y-147197815D01*
X83632501Y-147257187D01*
X83712393Y-147297895D01*
X83712396Y-147297896D01*
X83790608Y-147323308D01*
X83922049Y-147366015D01*
X84139778Y-147400500D01*
X84139779Y-147400500D01*
X84360221Y-147400500D01*
X84360222Y-147400500D01*
X84577951Y-147366015D01*
X84787606Y-147297895D01*
X84984022Y-147197815D01*
X85162365Y-147068242D01*
X85318242Y-146912365D01*
X85399682Y-146800270D01*
X85455011Y-146757606D01*
X85524624Y-146751627D01*
X85586420Y-146784232D01*
X85600313Y-146800265D01*
X85681753Y-146912358D01*
X85681758Y-146912365D01*
X85837636Y-147068243D01*
X85837641Y-147068247D01*
X85993192Y-147181260D01*
X86015978Y-147197815D01*
X86132501Y-147257187D01*
X86212393Y-147297895D01*
X86212396Y-147297896D01*
X86290608Y-147323308D01*
X86422049Y-147366015D01*
X86639778Y-147400500D01*
X86639779Y-147400500D01*
X86860221Y-147400500D01*
X86860222Y-147400500D01*
X87077951Y-147366015D01*
X87287606Y-147297895D01*
X87484022Y-147197815D01*
X87662365Y-147068242D01*
X87818242Y-146912365D01*
X87947815Y-146734022D01*
X88047895Y-146537606D01*
X88116015Y-146327951D01*
X88150500Y-146110222D01*
X88150500Y-145889778D01*
X88116015Y-145672049D01*
X88047895Y-145462394D01*
X88047895Y-145462393D01*
X88013237Y-145394375D01*
X87947815Y-145265978D01*
X87899681Y-145199727D01*
X87818247Y-145087641D01*
X87818243Y-145087636D01*
X87662363Y-144931756D01*
X87662358Y-144931752D01*
X87484025Y-144802187D01*
X87484024Y-144802186D01*
X87484022Y-144802185D01*
X87421096Y-144770122D01*
X87287606Y-144702104D01*
X87287603Y-144702103D01*
X87077952Y-144633985D01*
X86969086Y-144616742D01*
X86860222Y-144599500D01*
X86639778Y-144599500D01*
X86567201Y-144610995D01*
X86422047Y-144633985D01*
X86212396Y-144702103D01*
X86212393Y-144702104D01*
X86015974Y-144802187D01*
X85837641Y-144931752D01*
X85837636Y-144931756D01*
X85681756Y-145087636D01*
X85681752Y-145087641D01*
X85600318Y-145199727D01*
X85544989Y-145242393D01*
X85475375Y-145248372D01*
X85413580Y-145215767D01*
X85399682Y-145199727D01*
X85318247Y-145087641D01*
X85318243Y-145087636D01*
X85162363Y-144931756D01*
X85162358Y-144931752D01*
X84984025Y-144802187D01*
X84984024Y-144802186D01*
X84984022Y-144802185D01*
X84921096Y-144770122D01*
X84787606Y-144702104D01*
X84787603Y-144702103D01*
X84577952Y-144633985D01*
X84469086Y-144616742D01*
X84360222Y-144599500D01*
X84139778Y-144599500D01*
X84096232Y-144606397D01*
X83922045Y-144633985D01*
X83851794Y-144656811D01*
X83781953Y-144658806D01*
X83725796Y-144626561D01*
X76904620Y-137805385D01*
X76871135Y-137744062D01*
X76876119Y-137674370D01*
X76917991Y-137618437D01*
X76983455Y-137594020D01*
X77006180Y-137594483D01*
X77043966Y-137598741D01*
X77059573Y-137600500D01*
X77059575Y-137600500D01*
X77340428Y-137600500D01*
X77340429Y-137600499D01*
X77483055Y-137584429D01*
X77619494Y-137569057D01*
X77619499Y-137569056D01*
X77619509Y-137569055D01*
X77893318Y-137506560D01*
X78158408Y-137413801D01*
X78411445Y-137291945D01*
X78649248Y-137142523D01*
X78868825Y-136967416D01*
X79067416Y-136768825D01*
X79242523Y-136549248D01*
X79391945Y-136311445D01*
X79513801Y-136058408D01*
X79606560Y-135793318D01*
X79669055Y-135519509D01*
X79700500Y-135240425D01*
X79700500Y-134759575D01*
X79700499Y-134759568D01*
X86299500Y-134759568D01*
X86299500Y-135240431D01*
X86330942Y-135519494D01*
X86330945Y-135519512D01*
X86393439Y-135793317D01*
X86393443Y-135793329D01*
X86486200Y-136058411D01*
X86608053Y-136311442D01*
X86608055Y-136311445D01*
X86757477Y-136549248D01*
X86932584Y-136768825D01*
X87131175Y-136967416D01*
X87350752Y-137142523D01*
X87588555Y-137291945D01*
X87841592Y-137413801D01*
X88040680Y-137483465D01*
X88106670Y-137506556D01*
X88106682Y-137506560D01*
X88380491Y-137569055D01*
X88380497Y-137569055D01*
X88380505Y-137569057D01*
X88566547Y-137590018D01*
X88659569Y-137600499D01*
X88659572Y-137600500D01*
X88659575Y-137600500D01*
X88940428Y-137600500D01*
X88940429Y-137600499D01*
X89083055Y-137584429D01*
X89219494Y-137569057D01*
X89219499Y-137569056D01*
X89219509Y-137569055D01*
X89493318Y-137506560D01*
X89758408Y-137413801D01*
X90011445Y-137291945D01*
X90249248Y-137142523D01*
X90468825Y-136967416D01*
X90667416Y-136768825D01*
X90842523Y-136549248D01*
X90991945Y-136311445D01*
X91113801Y-136058408D01*
X91206560Y-135793318D01*
X91269055Y-135519509D01*
X91300500Y-135240425D01*
X91300500Y-134759575D01*
X91269055Y-134480491D01*
X91206560Y-134206682D01*
X91113801Y-133941592D01*
X90991945Y-133688555D01*
X90842523Y-133450752D01*
X90667416Y-133231175D01*
X90468825Y-133032584D01*
X90249248Y-132857477D01*
X90011445Y-132708055D01*
X90011442Y-132708053D01*
X89758411Y-132586200D01*
X89493329Y-132493443D01*
X89493317Y-132493439D01*
X89219512Y-132430945D01*
X89219494Y-132430942D01*
X88940431Y-132399500D01*
X88940425Y-132399500D01*
X88659575Y-132399500D01*
X88659568Y-132399500D01*
X88380505Y-132430942D01*
X88380487Y-132430945D01*
X88106682Y-132493439D01*
X88106670Y-132493443D01*
X87841588Y-132586200D01*
X87588557Y-132708053D01*
X87350753Y-132857476D01*
X87131175Y-133032583D01*
X86932583Y-133231175D01*
X86757476Y-133450753D01*
X86608053Y-133688557D01*
X86486200Y-133941588D01*
X86393443Y-134206670D01*
X86393439Y-134206682D01*
X86330945Y-134480487D01*
X86330942Y-134480505D01*
X86299500Y-134759568D01*
X79700499Y-134759568D01*
X79669055Y-134480491D01*
X79606560Y-134206682D01*
X79513801Y-133941592D01*
X79391945Y-133688555D01*
X79242523Y-133450752D01*
X79067416Y-133231175D01*
X78868825Y-133032584D01*
X78649248Y-132857477D01*
X78411445Y-132708055D01*
X78411442Y-132708053D01*
X78158411Y-132586200D01*
X77893329Y-132493443D01*
X77893317Y-132493439D01*
X77619512Y-132430945D01*
X77619494Y-132430942D01*
X77340431Y-132399500D01*
X77340425Y-132399500D01*
X77059575Y-132399500D01*
X77059568Y-132399500D01*
X76780505Y-132430942D01*
X76780487Y-132430945D01*
X76506682Y-132493439D01*
X76506670Y-132493443D01*
X76241588Y-132586200D01*
X75988557Y-132708053D01*
X75750753Y-132857476D01*
X75531175Y-133032583D01*
X75332583Y-133231175D01*
X75261447Y-133320377D01*
X75204258Y-133360517D01*
X75134447Y-133363367D01*
X75074177Y-133328021D01*
X75042584Y-133265702D01*
X75040500Y-133243064D01*
X75040500Y-126102155D01*
X94400000Y-126102155D01*
X94400000Y-126750000D01*
X95316988Y-126750000D01*
X95284075Y-126807007D01*
X95250000Y-126934174D01*
X95250000Y-127065826D01*
X95284075Y-127192993D01*
X95316988Y-127250000D01*
X94400000Y-127250000D01*
X94400000Y-127897844D01*
X94406401Y-127957372D01*
X94406403Y-127957379D01*
X94456645Y-128092086D01*
X94456649Y-128092093D01*
X94542809Y-128207187D01*
X94542812Y-128207190D01*
X94657906Y-128293350D01*
X94657913Y-128293354D01*
X94792620Y-128343596D01*
X94792627Y-128343598D01*
X94852155Y-128349999D01*
X94852172Y-128350000D01*
X95500000Y-128350000D01*
X95500000Y-127433012D01*
X95557007Y-127465925D01*
X95684174Y-127500000D01*
X95815826Y-127500000D01*
X95942993Y-127465925D01*
X96000000Y-127433012D01*
X96000000Y-128350000D01*
X96647828Y-128350000D01*
X96647844Y-128349999D01*
X96707372Y-128343598D01*
X96707379Y-128343596D01*
X96842086Y-128293354D01*
X96842093Y-128293350D01*
X96957187Y-128207190D01*
X96957190Y-128207187D01*
X97043350Y-128092093D01*
X97043354Y-128092086D01*
X97093596Y-127957379D01*
X97093598Y-127957372D01*
X97099999Y-127897844D01*
X97100000Y-127897827D01*
X97100000Y-127250000D01*
X96183012Y-127250000D01*
X96215925Y-127192993D01*
X96250000Y-127065826D01*
X96250000Y-126934174D01*
X96215925Y-126807007D01*
X96183012Y-126750000D01*
X97100000Y-126750000D01*
X97100000Y-126102172D01*
X97099999Y-126102155D01*
X97093598Y-126042627D01*
X97093596Y-126042620D01*
X97043354Y-125907913D01*
X97043350Y-125907906D01*
X96957190Y-125792812D01*
X96957187Y-125792809D01*
X96842093Y-125706649D01*
X96842086Y-125706645D01*
X96707379Y-125656403D01*
X96707372Y-125656401D01*
X96647844Y-125650000D01*
X96000000Y-125650000D01*
X96000000Y-126566988D01*
X95942993Y-126534075D01*
X95815826Y-126500000D01*
X95684174Y-126500000D01*
X95557007Y-126534075D01*
X95500000Y-126566988D01*
X95500000Y-125650000D01*
X94852155Y-125650000D01*
X94792627Y-125656401D01*
X94792620Y-125656403D01*
X94657913Y-125706645D01*
X94657906Y-125706649D01*
X94542812Y-125792809D01*
X94542809Y-125792812D01*
X94456649Y-125907906D01*
X94456645Y-125907913D01*
X94406403Y-126042620D01*
X94406401Y-126042627D01*
X94400000Y-126102155D01*
X75040500Y-126102155D01*
X75040500Y-124979601D01*
X75060185Y-124912562D01*
X75108206Y-124869116D01*
X75121610Y-124862287D01*
X75287219Y-124741966D01*
X75431966Y-124597219D01*
X75431968Y-124597215D01*
X75431971Y-124597213D01*
X75484732Y-124524590D01*
X75552287Y-124431610D01*
X75645220Y-124249219D01*
X75708477Y-124054534D01*
X75740500Y-123852352D01*
X75740500Y-123647648D01*
X80759500Y-123647648D01*
X80759500Y-123852351D01*
X80791522Y-124054534D01*
X80854781Y-124249223D01*
X80947715Y-124431613D01*
X81068028Y-124597213D01*
X81212786Y-124741971D01*
X81367749Y-124854556D01*
X81378390Y-124862287D01*
X81459499Y-124903614D01*
X81560776Y-124955218D01*
X81560778Y-124955218D01*
X81560781Y-124955220D01*
X81635818Y-124979601D01*
X81755465Y-125018477D01*
X81856557Y-125034488D01*
X81957648Y-125050500D01*
X81957649Y-125050500D01*
X82162351Y-125050500D01*
X82162352Y-125050500D01*
X82364534Y-125018477D01*
X82559219Y-124955220D01*
X82741610Y-124862287D01*
X82834590Y-124794732D01*
X82907213Y-124741971D01*
X82907215Y-124741968D01*
X82907219Y-124741966D01*
X83051966Y-124597219D01*
X83051968Y-124597215D01*
X83051971Y-124597213D01*
X83104732Y-124524590D01*
X83172287Y-124431610D01*
X83265220Y-124249219D01*
X83328477Y-124054534D01*
X83360500Y-123852352D01*
X83360500Y-123647648D01*
X83328477Y-123445466D01*
X83265220Y-123250781D01*
X83265218Y-123250778D01*
X83265218Y-123250776D01*
X83231503Y-123184607D01*
X83172287Y-123068390D01*
X83164556Y-123057749D01*
X83051971Y-122902786D01*
X82907213Y-122758028D01*
X82741613Y-122637715D01*
X82741612Y-122637714D01*
X82741610Y-122637713D01*
X82684653Y-122608691D01*
X82559223Y-122544781D01*
X82364534Y-122481522D01*
X82189995Y-122453878D01*
X82162352Y-122449500D01*
X81957648Y-122449500D01*
X81933329Y-122453351D01*
X81755465Y-122481522D01*
X81560776Y-122544781D01*
X81378386Y-122637715D01*
X81212786Y-122758028D01*
X81068028Y-122902786D01*
X80947715Y-123068386D01*
X80854781Y-123250776D01*
X80791522Y-123445465D01*
X80759500Y-123647648D01*
X75740500Y-123647648D01*
X75708477Y-123445466D01*
X75645220Y-123250781D01*
X75645218Y-123250778D01*
X75645218Y-123250776D01*
X75611503Y-123184607D01*
X75552287Y-123068390D01*
X75544556Y-123057749D01*
X75431971Y-122902786D01*
X75287213Y-122758028D01*
X75121613Y-122637715D01*
X75121612Y-122637714D01*
X75121610Y-122637713D01*
X75064653Y-122608691D01*
X74939223Y-122544781D01*
X74744534Y-122481522D01*
X74569995Y-122453878D01*
X74542352Y-122449500D01*
X74337648Y-122449500D01*
X74313329Y-122453351D01*
X74135465Y-122481522D01*
X73940776Y-122544781D01*
X73758386Y-122637715D01*
X73592786Y-122758028D01*
X73448028Y-122902786D01*
X73327715Y-123068386D01*
X73234781Y-123250776D01*
X73171522Y-123445465D01*
X73139500Y-123647648D01*
X67500500Y-123647648D01*
X67500500Y-118897648D01*
X73139500Y-118897648D01*
X73139500Y-119102351D01*
X73171522Y-119304534D01*
X73234781Y-119499223D01*
X73327715Y-119681613D01*
X73448028Y-119847213D01*
X73592786Y-119991971D01*
X73747749Y-120104556D01*
X73758390Y-120112287D01*
X73874607Y-120171503D01*
X73940776Y-120205218D01*
X73940778Y-120205218D01*
X73940781Y-120205220D01*
X74045137Y-120239127D01*
X74135465Y-120268477D01*
X74236557Y-120284488D01*
X74337648Y-120300500D01*
X74337649Y-120300500D01*
X74542351Y-120300500D01*
X74542352Y-120300500D01*
X74744534Y-120268477D01*
X74939219Y-120205220D01*
X75121610Y-120112287D01*
X75214590Y-120044732D01*
X75287213Y-119991971D01*
X75287215Y-119991968D01*
X75287219Y-119991966D01*
X75431966Y-119847219D01*
X75431968Y-119847215D01*
X75431971Y-119847213D01*
X75484732Y-119774590D01*
X75552287Y-119681610D01*
X75645220Y-119499219D01*
X75708477Y-119304534D01*
X75740500Y-119102352D01*
X75740500Y-118897648D01*
X80759500Y-118897648D01*
X80759500Y-119102351D01*
X80791522Y-119304534D01*
X80854781Y-119499223D01*
X80947715Y-119681613D01*
X81068028Y-119847213D01*
X81212786Y-119991971D01*
X81367749Y-120104556D01*
X81378390Y-120112287D01*
X81494607Y-120171503D01*
X81560776Y-120205218D01*
X81560778Y-120205218D01*
X81560781Y-120205220D01*
X81665137Y-120239127D01*
X81755465Y-120268477D01*
X81856557Y-120284488D01*
X81957648Y-120300500D01*
X81957649Y-120300500D01*
X82162351Y-120300500D01*
X82162352Y-120300500D01*
X82364534Y-120268477D01*
X82559219Y-120205220D01*
X82741610Y-120112287D01*
X82834590Y-120044732D01*
X82907213Y-119991971D01*
X82907215Y-119991968D01*
X82907219Y-119991966D01*
X83051966Y-119847219D01*
X83051968Y-119847215D01*
X83051971Y-119847213D01*
X83104732Y-119774590D01*
X83172287Y-119681610D01*
X83265220Y-119499219D01*
X83328477Y-119304534D01*
X83360500Y-119102352D01*
X83360500Y-118897648D01*
X83328477Y-118695466D01*
X83265220Y-118500781D01*
X83265218Y-118500778D01*
X83265218Y-118500776D01*
X83231503Y-118434607D01*
X83172287Y-118318390D01*
X83164556Y-118307749D01*
X83051971Y-118152786D01*
X82907213Y-118008028D01*
X82741613Y-117887715D01*
X82741612Y-117887714D01*
X82741610Y-117887713D01*
X82684653Y-117858691D01*
X82559223Y-117794781D01*
X82364534Y-117731522D01*
X82189995Y-117703878D01*
X82162352Y-117699500D01*
X81957648Y-117699500D01*
X81933329Y-117703351D01*
X81755465Y-117731522D01*
X81560776Y-117794781D01*
X81378386Y-117887715D01*
X81212786Y-118008028D01*
X81068028Y-118152786D01*
X80947715Y-118318386D01*
X80854781Y-118500776D01*
X80791522Y-118695465D01*
X80759500Y-118897648D01*
X75740500Y-118897648D01*
X75708477Y-118695466D01*
X75645220Y-118500781D01*
X75645218Y-118500778D01*
X75645218Y-118500776D01*
X75611503Y-118434607D01*
X75552287Y-118318390D01*
X75544556Y-118307749D01*
X75431971Y-118152786D01*
X75287213Y-118008028D01*
X75121613Y-117887715D01*
X75121612Y-117887714D01*
X75121610Y-117887713D01*
X75064653Y-117858691D01*
X74939223Y-117794781D01*
X74744534Y-117731522D01*
X74569995Y-117703878D01*
X74542352Y-117699500D01*
X74337648Y-117699500D01*
X74313329Y-117703351D01*
X74135465Y-117731522D01*
X73940776Y-117794781D01*
X73758386Y-117887715D01*
X73592786Y-118008028D01*
X73448028Y-118152786D01*
X73327715Y-118318386D01*
X73234781Y-118500776D01*
X73171522Y-118695465D01*
X73139500Y-118897648D01*
X67500500Y-118897648D01*
X67500500Y-114147648D01*
X73139500Y-114147648D01*
X73139500Y-114352351D01*
X73171522Y-114554534D01*
X73234781Y-114749223D01*
X73327715Y-114931613D01*
X73448028Y-115097213D01*
X73592786Y-115241971D01*
X73747749Y-115354556D01*
X73758390Y-115362287D01*
X73874607Y-115421503D01*
X73940776Y-115455218D01*
X73940778Y-115455218D01*
X73940781Y-115455220D01*
X74045137Y-115489127D01*
X74135465Y-115518477D01*
X74236557Y-115534488D01*
X74337648Y-115550500D01*
X74337649Y-115550500D01*
X74542351Y-115550500D01*
X74542352Y-115550500D01*
X74744534Y-115518477D01*
X74939219Y-115455220D01*
X75121610Y-115362287D01*
X75214590Y-115294732D01*
X75287213Y-115241971D01*
X75287215Y-115241968D01*
X75287219Y-115241966D01*
X75431966Y-115097219D01*
X75431968Y-115097215D01*
X75431971Y-115097213D01*
X75484732Y-115024590D01*
X75552287Y-114931610D01*
X75645220Y-114749219D01*
X75708477Y-114554534D01*
X75740500Y-114352352D01*
X75740500Y-114147648D01*
X80759500Y-114147648D01*
X80759500Y-114352351D01*
X80791522Y-114554534D01*
X80854781Y-114749223D01*
X80947715Y-114931613D01*
X81068028Y-115097213D01*
X81212786Y-115241971D01*
X81367749Y-115354556D01*
X81378390Y-115362287D01*
X81494607Y-115421503D01*
X81560776Y-115455218D01*
X81560778Y-115455218D01*
X81560781Y-115455220D01*
X81665137Y-115489127D01*
X81755465Y-115518477D01*
X81856557Y-115534488D01*
X81957648Y-115550500D01*
X81957649Y-115550500D01*
X82162351Y-115550500D01*
X82162352Y-115550500D01*
X82364534Y-115518477D01*
X82559219Y-115455220D01*
X82741610Y-115362287D01*
X82834590Y-115294732D01*
X82907213Y-115241971D01*
X82907215Y-115241968D01*
X82907219Y-115241966D01*
X83051966Y-115097219D01*
X83051968Y-115097215D01*
X83051971Y-115097213D01*
X83104732Y-115024590D01*
X83172287Y-114931610D01*
X83265220Y-114749219D01*
X83328477Y-114554534D01*
X83360500Y-114352352D01*
X83360500Y-114147648D01*
X83328477Y-113945466D01*
X83265220Y-113750781D01*
X83265218Y-113750778D01*
X83265218Y-113750776D01*
X83231503Y-113684607D01*
X83172287Y-113568390D01*
X83164556Y-113557749D01*
X83051971Y-113402786D01*
X82907213Y-113258028D01*
X82741613Y-113137715D01*
X82741612Y-113137714D01*
X82741610Y-113137713D01*
X82684653Y-113108691D01*
X82559223Y-113044781D01*
X82364534Y-112981522D01*
X82189995Y-112953878D01*
X82162352Y-112949500D01*
X81957648Y-112949500D01*
X81933329Y-112953351D01*
X81755465Y-112981522D01*
X81560776Y-113044781D01*
X81378386Y-113137715D01*
X81212786Y-113258028D01*
X81068028Y-113402786D01*
X80947715Y-113568386D01*
X80854781Y-113750776D01*
X80791522Y-113945465D01*
X80759500Y-114147648D01*
X75740500Y-114147648D01*
X75708477Y-113945466D01*
X75645220Y-113750781D01*
X75645218Y-113750778D01*
X75645218Y-113750776D01*
X75611503Y-113684607D01*
X75552287Y-113568390D01*
X75544556Y-113557749D01*
X75431971Y-113402786D01*
X75287213Y-113258028D01*
X75121613Y-113137715D01*
X75121612Y-113137714D01*
X75121610Y-113137713D01*
X75064653Y-113108691D01*
X74939223Y-113044781D01*
X74744534Y-112981522D01*
X74569995Y-112953878D01*
X74542352Y-112949500D01*
X74337648Y-112949500D01*
X74313329Y-112953351D01*
X74135465Y-112981522D01*
X73940776Y-113044781D01*
X73758386Y-113137715D01*
X73592786Y-113258028D01*
X73448028Y-113402786D01*
X73327715Y-113568386D01*
X73234781Y-113750776D01*
X73171522Y-113945465D01*
X73139500Y-114147648D01*
X67500500Y-114147648D01*
X67500500Y-110316611D01*
X67520185Y-110249572D01*
X67572989Y-110203817D01*
X67642147Y-110193873D01*
X67705703Y-110222898D01*
X67742432Y-110278294D01*
X67748906Y-110298221D01*
X67845379Y-110487557D01*
X67970272Y-110659459D01*
X67970276Y-110659464D01*
X68120535Y-110809723D01*
X68120540Y-110809727D01*
X68292442Y-110934620D01*
X68481782Y-111031095D01*
X68683871Y-111096757D01*
X68750000Y-111107231D01*
X68750000Y-110213012D01*
X68807007Y-110245925D01*
X68934174Y-110280000D01*
X69065826Y-110280000D01*
X69192993Y-110245925D01*
X69250000Y-110213012D01*
X69250000Y-111107230D01*
X69316126Y-111096757D01*
X69316129Y-111096757D01*
X69518217Y-111031095D01*
X69707557Y-110934620D01*
X69879459Y-110809727D01*
X69879464Y-110809723D01*
X70029723Y-110659464D01*
X70029727Y-110659459D01*
X70154620Y-110487557D01*
X70251095Y-110298217D01*
X70316757Y-110096129D01*
X70316757Y-110096126D01*
X70327231Y-110030000D01*
X69433012Y-110030000D01*
X69465925Y-109972993D01*
X69500000Y-109845826D01*
X69500000Y-109714174D01*
X69465925Y-109587007D01*
X69433012Y-109530000D01*
X70327231Y-109530000D01*
X70316757Y-109463873D01*
X70316757Y-109463870D01*
X70251095Y-109261782D01*
X70154620Y-109072442D01*
X70029727Y-108900540D01*
X70029723Y-108900535D01*
X69879464Y-108750276D01*
X69879459Y-108750272D01*
X69707558Y-108625379D01*
X69697954Y-108620486D01*
X69647157Y-108572512D01*
X69630361Y-108504692D01*
X69652897Y-108438556D01*
X69697954Y-108399514D01*
X69707558Y-108394620D01*
X69879459Y-108269727D01*
X69879464Y-108269723D01*
X70029719Y-108119468D01*
X70029730Y-108119455D01*
X70154620Y-107947557D01*
X70251095Y-107758217D01*
X70316757Y-107556129D01*
X70316757Y-107556126D01*
X70327231Y-107490000D01*
X69433012Y-107490000D01*
X69465925Y-107432993D01*
X69500000Y-107305826D01*
X69500000Y-107174174D01*
X69465925Y-107047007D01*
X69433012Y-106990000D01*
X70327231Y-106990000D01*
X70316757Y-106923873D01*
X70316757Y-106923870D01*
X70251095Y-106721782D01*
X70154620Y-106532442D01*
X70029727Y-106360540D01*
X70029723Y-106360535D01*
X69879464Y-106210276D01*
X69879459Y-106210272D01*
X69707555Y-106085377D01*
X69698500Y-106080763D01*
X69647706Y-106032788D01*
X69630912Y-105964966D01*
X69653451Y-105898832D01*
X69698508Y-105859793D01*
X69707816Y-105855051D01*
X69787007Y-105797515D01*
X69879786Y-105730109D01*
X69879788Y-105730106D01*
X69879792Y-105730104D01*
X70030104Y-105579792D01*
X70030106Y-105579788D01*
X70030109Y-105579786D01*
X70155048Y-105407820D01*
X70155047Y-105407820D01*
X70155051Y-105407816D01*
X70251557Y-105218412D01*
X70317246Y-105016243D01*
X70350500Y-104806287D01*
X70350500Y-104593713D01*
X70317246Y-104383757D01*
X70251557Y-104181588D01*
X70155051Y-103992184D01*
X70155049Y-103992181D01*
X70155048Y-103992179D01*
X70030109Y-103820213D01*
X69879786Y-103669890D01*
X69707820Y-103544951D01*
X69707115Y-103544591D01*
X69699054Y-103540485D01*
X69648259Y-103492512D01*
X69631463Y-103424692D01*
X69653999Y-103358556D01*
X69699054Y-103319515D01*
X69707816Y-103315051D01*
X69729789Y-103299086D01*
X69879786Y-103190109D01*
X69879788Y-103190106D01*
X69879792Y-103190104D01*
X70030104Y-103039792D01*
X70030106Y-103039788D01*
X70030109Y-103039786D01*
X70155048Y-102867820D01*
X70155047Y-102867820D01*
X70155051Y-102867816D01*
X70251557Y-102678412D01*
X70317246Y-102476243D01*
X70350500Y-102266287D01*
X70350500Y-102053713D01*
X70317246Y-101843757D01*
X70251557Y-101641588D01*
X70155051Y-101452184D01*
X70155049Y-101452181D01*
X70155048Y-101452179D01*
X70030109Y-101280213D01*
X69879786Y-101129890D01*
X69707820Y-101004951D01*
X69707115Y-101004591D01*
X69699054Y-101000485D01*
X69648259Y-100952512D01*
X69631463Y-100884692D01*
X69653999Y-100818556D01*
X69699054Y-100779515D01*
X69707816Y-100775051D01*
X69798501Y-100709165D01*
X69879786Y-100650109D01*
X69879788Y-100650106D01*
X69879792Y-100650104D01*
X70030104Y-100499792D01*
X70030106Y-100499788D01*
X70030109Y-100499786D01*
X70155048Y-100327820D01*
X70155047Y-100327820D01*
X70155051Y-100327816D01*
X70251557Y-100138412D01*
X70317246Y-99936243D01*
X70350500Y-99726287D01*
X70350500Y-99513713D01*
X70317246Y-99303757D01*
X70251557Y-99101588D01*
X70155051Y-98912184D01*
X70155049Y-98912181D01*
X70155048Y-98912179D01*
X70030109Y-98740213D01*
X69879786Y-98589890D01*
X69707820Y-98464951D01*
X69707115Y-98464591D01*
X69699054Y-98460485D01*
X69648259Y-98412512D01*
X69631463Y-98344692D01*
X69653999Y-98278556D01*
X69699054Y-98239515D01*
X69707816Y-98235051D01*
X69798501Y-98169165D01*
X69879786Y-98110109D01*
X69879788Y-98110106D01*
X69879792Y-98110104D01*
X70030104Y-97959792D01*
X70030106Y-97959788D01*
X70030109Y-97959786D01*
X70088661Y-97879193D01*
X70155051Y-97787816D01*
X70155349Y-97787230D01*
X70175235Y-97748205D01*
X70223209Y-97697409D01*
X70285719Y-97680500D01*
X73029903Y-97680500D01*
X73096942Y-97700185D01*
X73117584Y-97716819D01*
X81788584Y-106387819D01*
X81822069Y-106449142D01*
X81817085Y-106518834D01*
X81775213Y-106574767D01*
X81709749Y-106599184D01*
X81700903Y-106599500D01*
X81639778Y-106599500D01*
X81567201Y-106610995D01*
X81422047Y-106633985D01*
X81212396Y-106702103D01*
X81212393Y-106702104D01*
X81015974Y-106802187D01*
X80837641Y-106931752D01*
X80837635Y-106931757D01*
X80816207Y-106953185D01*
X80754884Y-106986669D01*
X80685192Y-106981683D01*
X80629259Y-106939810D01*
X80612346Y-106908834D01*
X80593355Y-106857915D01*
X80593350Y-106857906D01*
X80507190Y-106742812D01*
X80507187Y-106742809D01*
X80392093Y-106656649D01*
X80392086Y-106656645D01*
X80257379Y-106606403D01*
X80257372Y-106606401D01*
X80197844Y-106600000D01*
X79500000Y-106600000D01*
X79500000Y-107566988D01*
X79442993Y-107534075D01*
X79315826Y-107500000D01*
X79184174Y-107500000D01*
X79057007Y-107534075D01*
X79000000Y-107566988D01*
X79000000Y-106600000D01*
X78302155Y-106600000D01*
X78242627Y-106606401D01*
X78242620Y-106606403D01*
X78107913Y-106656645D01*
X78107906Y-106656649D01*
X77992812Y-106742809D01*
X77992809Y-106742812D01*
X77906649Y-106857906D01*
X77906645Y-106857913D01*
X77856403Y-106992620D01*
X77856401Y-106992627D01*
X77850000Y-107052155D01*
X77850000Y-107750000D01*
X78816988Y-107750000D01*
X78784075Y-107807007D01*
X78750000Y-107934174D01*
X78750000Y-108065826D01*
X78784075Y-108192993D01*
X78816988Y-108250000D01*
X77850000Y-108250000D01*
X77850000Y-108947844D01*
X77856401Y-109007372D01*
X77856403Y-109007379D01*
X77906645Y-109142086D01*
X77906649Y-109142093D01*
X77992809Y-109257187D01*
X77992812Y-109257190D01*
X78107906Y-109343350D01*
X78107913Y-109343354D01*
X78242620Y-109393596D01*
X78242627Y-109393598D01*
X78302155Y-109399999D01*
X78302172Y-109400000D01*
X79000000Y-109400000D01*
X79000000Y-108433012D01*
X79057007Y-108465925D01*
X79184174Y-108500000D01*
X79315826Y-108500000D01*
X79442993Y-108465925D01*
X79500000Y-108433012D01*
X79500000Y-109400000D01*
X80197828Y-109400000D01*
X80197844Y-109399999D01*
X80257372Y-109393598D01*
X80257379Y-109393596D01*
X80392086Y-109343354D01*
X80392093Y-109343350D01*
X80507187Y-109257190D01*
X80507190Y-109257187D01*
X80593350Y-109142093D01*
X80593353Y-109142088D01*
X80612345Y-109091166D01*
X80654215Y-109035232D01*
X80719679Y-109010813D01*
X80787952Y-109025663D01*
X80816209Y-109046816D01*
X80837636Y-109068243D01*
X80837641Y-109068247D01*
X80971098Y-109165208D01*
X81015978Y-109197815D01*
X81132501Y-109257187D01*
X81212393Y-109297895D01*
X81212396Y-109297896D01*
X81317221Y-109331955D01*
X81422049Y-109366015D01*
X81639778Y-109400500D01*
X81639779Y-109400500D01*
X81860221Y-109400500D01*
X81860222Y-109400500D01*
X82077951Y-109366015D01*
X82287606Y-109297895D01*
X82484022Y-109197815D01*
X82662365Y-109068242D01*
X82818242Y-108912365D01*
X82899682Y-108800270D01*
X82955011Y-108757606D01*
X83024624Y-108751627D01*
X83086420Y-108784232D01*
X83100313Y-108800265D01*
X83173163Y-108900535D01*
X83181758Y-108912365D01*
X83337636Y-109068243D01*
X83337641Y-109068247D01*
X83471098Y-109165208D01*
X83515978Y-109197815D01*
X83632501Y-109257187D01*
X83712393Y-109297895D01*
X83712396Y-109297896D01*
X83817221Y-109331955D01*
X83922049Y-109366015D01*
X84139778Y-109400500D01*
X84139779Y-109400500D01*
X84360221Y-109400500D01*
X84360222Y-109400500D01*
X84577951Y-109366015D01*
X84787606Y-109297895D01*
X84984022Y-109197815D01*
X85162365Y-109068242D01*
X85318242Y-108912365D01*
X85399682Y-108800270D01*
X85455011Y-108757606D01*
X85524624Y-108751627D01*
X85586420Y-108784232D01*
X85600313Y-108800265D01*
X85673163Y-108900535D01*
X85681758Y-108912365D01*
X85837636Y-109068243D01*
X85837641Y-109068247D01*
X85971098Y-109165208D01*
X86015978Y-109197815D01*
X86132501Y-109257187D01*
X86212393Y-109297895D01*
X86212396Y-109297896D01*
X86317221Y-109331955D01*
X86422049Y-109366015D01*
X86639778Y-109400500D01*
X86639779Y-109400500D01*
X86860221Y-109400500D01*
X86860222Y-109400500D01*
X87077951Y-109366015D01*
X87287606Y-109297895D01*
X87484022Y-109197815D01*
X87662365Y-109068242D01*
X87818242Y-108912365D01*
X87947815Y-108734022D01*
X88047895Y-108537606D01*
X88116015Y-108327951D01*
X88150500Y-108110222D01*
X88150500Y-107889778D01*
X88116015Y-107672049D01*
X88047895Y-107462394D01*
X88015448Y-107398713D01*
X91397000Y-107398713D01*
X91397000Y-107611286D01*
X91420739Y-107761172D01*
X91430254Y-107821243D01*
X91452522Y-107889778D01*
X91495944Y-108023414D01*
X91592451Y-108212820D01*
X91717390Y-108384786D01*
X91867709Y-108535105D01*
X91872606Y-108538663D01*
X91915271Y-108593994D01*
X91921250Y-108663607D01*
X91888644Y-108725402D01*
X91838729Y-108756685D01*
X91828173Y-108760183D01*
X91828163Y-108760187D01*
X91678842Y-108852289D01*
X91554789Y-108976342D01*
X91462687Y-109125663D01*
X91462685Y-109125668D01*
X91449583Y-109165208D01*
X91407501Y-109292203D01*
X91407501Y-109292204D01*
X91407500Y-109292204D01*
X91397000Y-109394983D01*
X91397000Y-110695001D01*
X91397001Y-110695018D01*
X91407500Y-110797796D01*
X91407501Y-110797799D01*
X91411454Y-110809727D01*
X91462686Y-110964334D01*
X91554788Y-111113656D01*
X91678844Y-111237712D01*
X91828166Y-111329814D01*
X91994703Y-111384999D01*
X92097491Y-111395500D01*
X93397508Y-111395499D01*
X93500297Y-111384999D01*
X93666834Y-111329814D01*
X93816156Y-111237712D01*
X93940212Y-111113656D01*
X94032314Y-110964334D01*
X94035812Y-110953775D01*
X94075582Y-110896332D01*
X94140098Y-110869507D01*
X94208874Y-110881821D01*
X94253834Y-110919891D01*
X94257390Y-110924785D01*
X94257394Y-110924790D01*
X94407713Y-111075109D01*
X94579679Y-111200048D01*
X94579681Y-111200049D01*
X94579684Y-111200051D01*
X94769088Y-111296557D01*
X94971257Y-111362246D01*
X95181213Y-111395500D01*
X95181214Y-111395500D01*
X95393786Y-111395500D01*
X95393787Y-111395500D01*
X95603743Y-111362246D01*
X95805912Y-111296557D01*
X95995316Y-111200051D01*
X96017289Y-111184086D01*
X96167286Y-111075109D01*
X96167288Y-111075106D01*
X96167292Y-111075104D01*
X96317604Y-110924792D01*
X96317606Y-110924788D01*
X96317609Y-110924786D01*
X96442548Y-110752820D01*
X96442547Y-110752820D01*
X96442551Y-110752816D01*
X96539057Y-110563412D01*
X96604746Y-110361243D01*
X96638000Y-110151287D01*
X96638000Y-109938713D01*
X96604746Y-109728757D01*
X96539057Y-109526588D01*
X96442551Y-109337184D01*
X96442549Y-109337181D01*
X96442548Y-109337179D01*
X96317609Y-109165213D01*
X96167286Y-109014890D01*
X95995320Y-108889951D01*
X95994615Y-108889591D01*
X95986554Y-108885485D01*
X95935759Y-108837512D01*
X95918963Y-108769692D01*
X95941499Y-108703556D01*
X95986554Y-108664515D01*
X95995316Y-108660051D01*
X96049776Y-108620484D01*
X96167286Y-108535109D01*
X96167288Y-108535106D01*
X96167292Y-108535104D01*
X96317604Y-108384792D01*
X96317606Y-108384788D01*
X96317609Y-108384786D01*
X96442548Y-108212820D01*
X96442547Y-108212820D01*
X96442551Y-108212816D01*
X96539057Y-108023412D01*
X96604746Y-107821243D01*
X96638000Y-107611287D01*
X96638000Y-107398713D01*
X96604746Y-107188757D01*
X96539057Y-106986588D01*
X96442551Y-106797184D01*
X96442549Y-106797181D01*
X96442548Y-106797179D01*
X96317609Y-106625213D01*
X96167286Y-106474890D01*
X95995317Y-106349949D01*
X95986004Y-106345204D01*
X95935207Y-106297230D01*
X95918412Y-106229409D01*
X95940949Y-106163274D01*
X95986007Y-106124232D01*
X95995055Y-106119622D01*
X96049216Y-106080270D01*
X96049217Y-106080270D01*
X95416908Y-105447962D01*
X95480493Y-105430925D01*
X95594507Y-105365099D01*
X95687599Y-105272007D01*
X95753425Y-105157993D01*
X95770462Y-105094409D01*
X96402770Y-105726717D01*
X96402770Y-105726716D01*
X96442122Y-105672554D01*
X96538595Y-105483217D01*
X96604257Y-105281130D01*
X96604257Y-105281127D01*
X96637500Y-105071246D01*
X96637500Y-104858753D01*
X96604257Y-104648872D01*
X96604257Y-104648869D01*
X96538595Y-104446782D01*
X96442124Y-104257449D01*
X96402770Y-104203282D01*
X96402769Y-104203282D01*
X95770462Y-104835590D01*
X95753425Y-104772007D01*
X95687599Y-104657993D01*
X95594507Y-104564901D01*
X95480493Y-104499075D01*
X95416909Y-104482037D01*
X96049216Y-103849728D01*
X95995050Y-103810375D01*
X95805717Y-103713904D01*
X95603629Y-103648242D01*
X95393746Y-103615000D01*
X95181254Y-103615000D01*
X94971372Y-103648242D01*
X94971369Y-103648242D01*
X94769282Y-103713904D01*
X94579939Y-103810380D01*
X94525782Y-103849727D01*
X94525782Y-103849728D01*
X95158091Y-104482037D01*
X95094507Y-104499075D01*
X94980493Y-104564901D01*
X94887401Y-104657993D01*
X94821575Y-104772007D01*
X94804537Y-104835591D01*
X94172228Y-104203282D01*
X94172227Y-104203282D01*
X94132880Y-104257440D01*
X94127983Y-104267051D01*
X94080006Y-104317845D01*
X94012184Y-104334638D01*
X93946050Y-104312098D01*
X93907016Y-104267048D01*
X93902126Y-104257452D01*
X93862770Y-104203282D01*
X93862769Y-104203282D01*
X93230462Y-104835590D01*
X93213425Y-104772007D01*
X93147599Y-104657993D01*
X93054507Y-104564901D01*
X92940493Y-104499075D01*
X92876909Y-104482037D01*
X93509216Y-103849728D01*
X93455050Y-103810375D01*
X93265717Y-103713904D01*
X93063629Y-103648242D01*
X92853746Y-103615000D01*
X92641254Y-103615000D01*
X92431372Y-103648242D01*
X92431369Y-103648242D01*
X92229282Y-103713904D01*
X92039939Y-103810380D01*
X91985782Y-103849727D01*
X91985782Y-103849728D01*
X92618091Y-104482037D01*
X92554507Y-104499075D01*
X92440493Y-104564901D01*
X92347401Y-104657993D01*
X92281575Y-104772007D01*
X92264537Y-104835591D01*
X91632228Y-104203282D01*
X91632227Y-104203282D01*
X91592880Y-104257439D01*
X91496404Y-104446782D01*
X91430742Y-104648869D01*
X91430742Y-104648872D01*
X91397500Y-104858753D01*
X91397500Y-105071246D01*
X91430742Y-105281127D01*
X91430742Y-105281130D01*
X91496404Y-105483217D01*
X91592875Y-105672550D01*
X91632228Y-105726716D01*
X92264537Y-105094408D01*
X92281575Y-105157993D01*
X92347401Y-105272007D01*
X92440493Y-105365099D01*
X92554507Y-105430925D01*
X92618090Y-105447962D01*
X91985782Y-106080269D01*
X91985782Y-106080270D01*
X92039952Y-106119626D01*
X92039951Y-106119626D01*
X92048995Y-106124234D01*
X92099792Y-106172208D01*
X92116587Y-106240029D01*
X92094050Y-106306164D01*
X92048999Y-106345202D01*
X92039682Y-106349949D01*
X91867713Y-106474890D01*
X91717390Y-106625213D01*
X91592451Y-106797179D01*
X91495944Y-106986585D01*
X91430253Y-107188760D01*
X91397000Y-107398713D01*
X88015448Y-107398713D01*
X87947815Y-107265978D01*
X87881116Y-107174174D01*
X87818247Y-107087641D01*
X87818243Y-107087636D01*
X87662363Y-106931756D01*
X87662358Y-106931752D01*
X87484025Y-106802187D01*
X87484024Y-106802186D01*
X87484022Y-106802185D01*
X87415795Y-106767421D01*
X87287606Y-106702104D01*
X87287603Y-106702103D01*
X87077952Y-106633985D01*
X86969086Y-106616742D01*
X86860222Y-106599500D01*
X86639778Y-106599500D01*
X86567201Y-106610995D01*
X86422047Y-106633985D01*
X86212396Y-106702103D01*
X86212393Y-106702104D01*
X86015974Y-106802187D01*
X85837641Y-106931752D01*
X85837636Y-106931756D01*
X85681756Y-107087636D01*
X85681752Y-107087641D01*
X85600318Y-107199727D01*
X85544989Y-107242393D01*
X85475375Y-107248372D01*
X85413580Y-107215767D01*
X85399682Y-107199727D01*
X85318247Y-107087641D01*
X85318243Y-107087636D01*
X85162363Y-106931756D01*
X85162358Y-106931752D01*
X84984025Y-106802187D01*
X84984024Y-106802186D01*
X84984022Y-106802185D01*
X84915795Y-106767421D01*
X84787606Y-106702104D01*
X84787603Y-106702103D01*
X84577952Y-106633985D01*
X84469086Y-106616742D01*
X84360222Y-106599500D01*
X84139778Y-106599500D01*
X84096232Y-106606397D01*
X83922045Y-106633985D01*
X83851794Y-106656811D01*
X83781953Y-106658806D01*
X83725796Y-106626561D01*
X76904620Y-99805385D01*
X76871135Y-99744062D01*
X76876119Y-99674370D01*
X76917991Y-99618437D01*
X76983455Y-99594020D01*
X77006180Y-99594483D01*
X77043966Y-99598741D01*
X77059573Y-99600500D01*
X77059575Y-99600500D01*
X77340428Y-99600500D01*
X77340429Y-99600499D01*
X77483055Y-99584429D01*
X77619494Y-99569057D01*
X77619499Y-99569056D01*
X77619509Y-99569055D01*
X77893318Y-99506560D01*
X78158408Y-99413801D01*
X78411445Y-99291945D01*
X78649248Y-99142523D01*
X78868825Y-98967416D01*
X79067416Y-98768825D01*
X79242523Y-98549248D01*
X79391945Y-98311445D01*
X79513801Y-98058408D01*
X79606560Y-97793318D01*
X79669055Y-97519509D01*
X79678956Y-97431640D01*
X79700499Y-97240431D01*
X79700500Y-97240427D01*
X79700500Y-96759572D01*
X79700499Y-96759568D01*
X86299500Y-96759568D01*
X86299500Y-97240431D01*
X86330942Y-97519494D01*
X86330945Y-97519512D01*
X86393439Y-97793317D01*
X86393443Y-97793329D01*
X86486200Y-98058411D01*
X86608053Y-98311442D01*
X86632281Y-98350000D01*
X86757477Y-98549248D01*
X86932584Y-98768825D01*
X87131175Y-98967416D01*
X87350752Y-99142523D01*
X87588555Y-99291945D01*
X87841592Y-99413801D01*
X88040680Y-99483465D01*
X88106670Y-99506556D01*
X88106682Y-99506560D01*
X88380491Y-99569055D01*
X88380497Y-99569055D01*
X88380505Y-99569057D01*
X88566547Y-99590018D01*
X88659569Y-99600499D01*
X88659572Y-99600500D01*
X88659575Y-99600500D01*
X88940428Y-99600500D01*
X88940429Y-99600499D01*
X89083055Y-99584429D01*
X89219494Y-99569057D01*
X89219499Y-99569056D01*
X89219509Y-99569055D01*
X89493318Y-99506560D01*
X89758408Y-99413801D01*
X90011445Y-99291945D01*
X90249248Y-99142523D01*
X90468825Y-98967416D01*
X90667416Y-98768825D01*
X90842523Y-98549248D01*
X90991945Y-98311445D01*
X91113801Y-98058408D01*
X91206560Y-97793318D01*
X91269055Y-97519509D01*
X91278956Y-97431640D01*
X91300499Y-97240431D01*
X91300500Y-97240427D01*
X91300500Y-96759572D01*
X91300499Y-96759568D01*
X91269057Y-96480505D01*
X91269054Y-96480487D01*
X91268828Y-96479499D01*
X91206560Y-96206682D01*
X91113801Y-95941592D01*
X90991945Y-95688555D01*
X90842523Y-95450752D01*
X90667416Y-95231175D01*
X90468825Y-95032584D01*
X90249248Y-94857477D01*
X90011445Y-94708055D01*
X90011442Y-94708053D01*
X89758411Y-94586200D01*
X89493329Y-94493443D01*
X89493317Y-94493439D01*
X89219512Y-94430945D01*
X89219494Y-94430942D01*
X88940431Y-94399500D01*
X88940425Y-94399500D01*
X88659575Y-94399500D01*
X88659568Y-94399500D01*
X88380505Y-94430942D01*
X88380487Y-94430945D01*
X88106682Y-94493439D01*
X88106670Y-94493443D01*
X87841588Y-94586200D01*
X87588557Y-94708053D01*
X87350753Y-94857476D01*
X87131175Y-95032583D01*
X86932583Y-95231175D01*
X86757476Y-95450753D01*
X86608053Y-95688557D01*
X86486200Y-95941588D01*
X86393443Y-96206670D01*
X86393439Y-96206682D01*
X86330945Y-96480487D01*
X86330942Y-96480505D01*
X86299500Y-96759568D01*
X79700499Y-96759568D01*
X79669057Y-96480505D01*
X79669054Y-96480487D01*
X79668828Y-96479499D01*
X79606560Y-96206682D01*
X79513801Y-95941592D01*
X79391945Y-95688555D01*
X79242523Y-95450752D01*
X79067416Y-95231175D01*
X78868825Y-95032584D01*
X78649248Y-94857477D01*
X78411445Y-94708055D01*
X78411442Y-94708053D01*
X78158411Y-94586200D01*
X77893329Y-94493443D01*
X77893317Y-94493439D01*
X77619512Y-94430945D01*
X77619494Y-94430942D01*
X77340431Y-94399500D01*
X77340425Y-94399500D01*
X77059575Y-94399500D01*
X77059568Y-94399500D01*
X76780505Y-94430942D01*
X76780487Y-94430945D01*
X76506682Y-94493439D01*
X76506670Y-94493443D01*
X76241588Y-94586200D01*
X75988557Y-94708053D01*
X75750753Y-94857476D01*
X75531175Y-95032583D01*
X75332583Y-95231175D01*
X75157476Y-95450753D01*
X75008053Y-95688557D01*
X74886200Y-95941588D01*
X74793443Y-96206670D01*
X74793439Y-96206682D01*
X74730945Y-96480487D01*
X74730942Y-96480505D01*
X74699500Y-96759568D01*
X74699500Y-97240431D01*
X74705515Y-97293815D01*
X74693460Y-97362637D01*
X74646111Y-97414016D01*
X74578501Y-97431640D01*
X74512095Y-97409913D01*
X74494614Y-97395379D01*
X73817590Y-96718355D01*
X73817588Y-96718352D01*
X73698717Y-96599481D01*
X73698716Y-96599480D01*
X73610644Y-96548632D01*
X73561785Y-96520423D01*
X73515802Y-96508101D01*
X73507286Y-96504386D01*
X73487337Y-96487684D01*
X73465120Y-96474142D01*
X73460979Y-96465617D01*
X73453713Y-96459534D01*
X73445959Y-96434697D01*
X73434592Y-96411295D01*
X73435717Y-96401885D01*
X73432893Y-96392839D01*
X73439797Y-96367754D01*
X73442887Y-96341919D01*
X73448921Y-96334611D01*
X73451436Y-96325475D01*
X73470805Y-96308106D01*
X73487373Y-96288042D01*
X73499212Y-96282635D01*
X73503456Y-96278830D01*
X73509774Y-96277811D01*
X73524777Y-96270960D01*
X73600847Y-96250577D01*
X73688088Y-96200208D01*
X73737778Y-96171520D01*
X73849582Y-96059716D01*
X73849582Y-96059714D01*
X73859786Y-96049511D01*
X73859789Y-96049506D01*
X80522478Y-89386819D01*
X80583801Y-89353334D01*
X80610159Y-89350500D01*
X82460398Y-89350500D01*
X82527437Y-89370185D01*
X82570883Y-89418205D01*
X82577715Y-89431614D01*
X82698028Y-89597213D01*
X82842786Y-89741971D01*
X82997749Y-89854556D01*
X83008390Y-89862287D01*
X83124607Y-89921503D01*
X83190776Y-89955218D01*
X83190778Y-89955218D01*
X83190781Y-89955220D01*
X83295137Y-89989127D01*
X83385465Y-90018477D01*
X83486557Y-90034488D01*
X83587648Y-90050500D01*
X83587649Y-90050500D01*
X83792351Y-90050500D01*
X83792352Y-90050500D01*
X83994534Y-90018477D01*
X84189219Y-89955220D01*
X84371610Y-89862287D01*
X84464590Y-89794732D01*
X84537213Y-89741971D01*
X84537215Y-89741968D01*
X84537219Y-89741966D01*
X84681966Y-89597219D01*
X84681968Y-89597215D01*
X84681971Y-89597213D01*
X84734732Y-89524590D01*
X84802287Y-89431610D01*
X84895220Y-89249219D01*
X84958477Y-89054534D01*
X84990500Y-88852352D01*
X84990500Y-88647648D01*
X84958477Y-88445466D01*
X84895220Y-88250781D01*
X84895218Y-88250778D01*
X84895218Y-88250776D01*
X84861503Y-88184607D01*
X84802287Y-88068390D01*
X84755650Y-88004199D01*
X84681971Y-87902786D01*
X84537213Y-87758028D01*
X84371613Y-87637715D01*
X84371612Y-87637714D01*
X84371610Y-87637713D01*
X84314653Y-87608691D01*
X84189223Y-87544781D01*
X83994534Y-87481522D01*
X83819995Y-87453878D01*
X83792352Y-87449500D01*
X83587648Y-87449500D01*
X83563329Y-87453351D01*
X83385465Y-87481522D01*
X83190776Y-87544781D01*
X83008386Y-87637715D01*
X82842786Y-87758028D01*
X82698028Y-87902786D01*
X82577715Y-88068385D01*
X82570883Y-88081795D01*
X82522909Y-88132591D01*
X82460398Y-88149500D01*
X80231002Y-88149500D01*
X80190081Y-88160464D01*
X80190081Y-88160465D01*
X80152813Y-88170451D01*
X80078276Y-88190423D01*
X80078271Y-88190426D01*
X79941352Y-88269475D01*
X79941344Y-88269481D01*
X79829540Y-88381286D01*
X73156646Y-95054181D01*
X73095323Y-95087666D01*
X73068965Y-95090500D01*
X70411802Y-95090500D01*
X70344763Y-95070815D01*
X70299008Y-95018011D01*
X70289064Y-94948853D01*
X70293871Y-94928182D01*
X70317246Y-94856243D01*
X70350500Y-94646287D01*
X70350500Y-94433713D01*
X70317246Y-94223757D01*
X70251557Y-94021588D01*
X70155051Y-93832184D01*
X70155049Y-93832181D01*
X70155048Y-93832179D01*
X70030109Y-93660213D01*
X69916569Y-93546673D01*
X69883084Y-93485350D01*
X69888068Y-93415658D01*
X69929940Y-93359725D01*
X69960915Y-93342810D01*
X70092331Y-93293796D01*
X70207546Y-93207546D01*
X70293796Y-93092331D01*
X70344091Y-92957483D01*
X70350500Y-92897873D01*
X70350499Y-91102128D01*
X70344091Y-91042517D01*
X70302521Y-90931063D01*
X70293797Y-90907671D01*
X70293793Y-90907664D01*
X70207547Y-90792455D01*
X70207544Y-90792452D01*
X70092335Y-90706206D01*
X70092328Y-90706202D01*
X69957482Y-90655908D01*
X69957483Y-90655908D01*
X69897883Y-90649501D01*
X69897881Y-90649500D01*
X69897873Y-90649500D01*
X69897864Y-90649500D01*
X68102129Y-90649500D01*
X68102123Y-90649501D01*
X68042516Y-90655908D01*
X67907671Y-90706202D01*
X67907664Y-90706206D01*
X67792455Y-90792452D01*
X67792452Y-90792455D01*
X67723766Y-90884208D01*
X67667832Y-90926079D01*
X67598141Y-90931063D01*
X67536818Y-90897577D01*
X67503334Y-90836254D01*
X67500500Y-90809897D01*
X67500500Y-85184386D01*
X67520185Y-85117347D01*
X67572989Y-85071592D01*
X67642147Y-85061648D01*
X67705703Y-85090673D01*
X67724819Y-85111502D01*
X67758030Y-85157215D01*
X67902786Y-85301971D01*
X68023226Y-85389474D01*
X68068390Y-85422287D01*
X68150643Y-85464197D01*
X68250776Y-85515218D01*
X68250778Y-85515218D01*
X68250781Y-85515220D01*
X68355137Y-85549127D01*
X68445465Y-85578477D01*
X68546557Y-85594488D01*
X68647648Y-85610500D01*
X68647649Y-85610500D01*
X68852351Y-85610500D01*
X68852352Y-85610500D01*
X69054534Y-85578477D01*
X69249219Y-85515220D01*
X69431610Y-85422287D01*
X69524590Y-85354732D01*
X69597213Y-85301971D01*
X69597215Y-85301968D01*
X69597219Y-85301966D01*
X69741966Y-85157219D01*
X69741968Y-85157215D01*
X69741971Y-85157213D01*
X69811402Y-85061648D01*
X69862287Y-84991610D01*
X69955220Y-84809219D01*
X70018477Y-84614534D01*
X70050500Y-84412352D01*
X70050500Y-84207648D01*
X70699500Y-84207648D01*
X70699500Y-84412351D01*
X70731522Y-84614534D01*
X70794781Y-84809223D01*
X70846385Y-84910500D01*
X70887585Y-84991359D01*
X70887715Y-84991613D01*
X71008028Y-85157213D01*
X71152786Y-85301971D01*
X71273226Y-85389474D01*
X71318390Y-85422287D01*
X71400643Y-85464197D01*
X71500776Y-85515218D01*
X71500778Y-85515218D01*
X71500781Y-85515220D01*
X71605137Y-85549127D01*
X71695465Y-85578477D01*
X71796557Y-85594488D01*
X71897648Y-85610500D01*
X71897649Y-85610500D01*
X72102351Y-85610500D01*
X72102352Y-85610500D01*
X72304534Y-85578477D01*
X72499219Y-85515220D01*
X72681610Y-85422287D01*
X72774590Y-85354732D01*
X72847213Y-85301971D01*
X72847215Y-85301968D01*
X72847219Y-85301966D01*
X72991966Y-85157219D01*
X72991968Y-85157215D01*
X72991971Y-85157213D01*
X73061402Y-85061648D01*
X73112287Y-84991610D01*
X73205220Y-84809219D01*
X73268477Y-84614534D01*
X73300500Y-84412352D01*
X73300500Y-84207648D01*
X75334500Y-84207648D01*
X75334500Y-84412351D01*
X75366522Y-84614534D01*
X75429781Y-84809223D01*
X75481385Y-84910500D01*
X75522585Y-84991359D01*
X75522715Y-84991613D01*
X75643028Y-85157213D01*
X75787786Y-85301971D01*
X75908226Y-85389474D01*
X75953390Y-85422287D01*
X76035643Y-85464197D01*
X76135776Y-85515218D01*
X76135778Y-85515218D01*
X76135781Y-85515220D01*
X76240137Y-85549127D01*
X76330465Y-85578477D01*
X76431557Y-85594488D01*
X76532648Y-85610500D01*
X76532649Y-85610500D01*
X76737351Y-85610500D01*
X76737352Y-85610500D01*
X76939534Y-85578477D01*
X77134219Y-85515220D01*
X77316610Y-85422287D01*
X77409590Y-85354732D01*
X77482213Y-85301971D01*
X77482215Y-85301968D01*
X77482219Y-85301966D01*
X77626966Y-85157219D01*
X77626968Y-85157215D01*
X77626971Y-85157213D01*
X77747284Y-84991614D01*
X77747286Y-84991611D01*
X77747287Y-84991610D01*
X77754117Y-84978204D01*
X77764566Y-84967140D01*
X77770889Y-84953297D01*
X77788068Y-84942256D01*
X77802091Y-84927409D01*
X77817772Y-84923167D01*
X77829667Y-84915523D01*
X77864602Y-84910500D01*
X77945398Y-84910500D01*
X78012437Y-84930185D01*
X78055883Y-84978205D01*
X78062715Y-84991614D01*
X78183028Y-85157213D01*
X78327786Y-85301971D01*
X78448226Y-85389474D01*
X78493390Y-85422287D01*
X78575643Y-85464197D01*
X78675776Y-85515218D01*
X78675778Y-85515218D01*
X78675781Y-85515220D01*
X78780137Y-85549127D01*
X78870465Y-85578477D01*
X78971557Y-85594488D01*
X79072648Y-85610500D01*
X79072649Y-85610500D01*
X79277351Y-85610500D01*
X79277352Y-85610500D01*
X79479534Y-85578477D01*
X79674219Y-85515220D01*
X79856610Y-85422287D01*
X79949590Y-85354732D01*
X80022213Y-85301971D01*
X80022215Y-85301968D01*
X80022219Y-85301966D01*
X80166966Y-85157219D01*
X80166968Y-85157215D01*
X80166971Y-85157213D01*
X80287286Y-84991611D01*
X80287415Y-84991359D01*
X80334795Y-84898369D01*
X80382769Y-84847573D01*
X80450590Y-84830778D01*
X80516725Y-84853315D01*
X80555765Y-84898369D01*
X80603141Y-84991350D01*
X80603147Y-84991359D01*
X80635523Y-85035921D01*
X80635524Y-85035922D01*
X81315000Y-84356446D01*
X81315000Y-84362661D01*
X81342259Y-84464394D01*
X81394920Y-84555606D01*
X81469394Y-84630080D01*
X81560606Y-84682741D01*
X81662339Y-84710000D01*
X81668553Y-84710000D01*
X80989076Y-85389474D01*
X81033650Y-85421859D01*
X81215968Y-85514755D01*
X81410582Y-85577990D01*
X81612683Y-85610000D01*
X81817317Y-85610000D01*
X82019417Y-85577990D01*
X82214031Y-85514755D01*
X82396349Y-85421859D01*
X82440921Y-85389474D01*
X81761447Y-84710000D01*
X81767661Y-84710000D01*
X81869394Y-84682741D01*
X81960606Y-84630080D01*
X82035080Y-84555606D01*
X82087741Y-84464394D01*
X82115000Y-84362661D01*
X82115000Y-84356447D01*
X82794474Y-85035921D01*
X82826861Y-84991347D01*
X82826861Y-84991346D01*
X82874234Y-84898371D01*
X82922208Y-84847575D01*
X82990028Y-84830779D01*
X83056164Y-84853316D01*
X83095203Y-84898369D01*
X83142713Y-84991611D01*
X83263028Y-85157213D01*
X83407786Y-85301971D01*
X83528226Y-85389474D01*
X83573390Y-85422287D01*
X83655643Y-85464197D01*
X83755776Y-85515218D01*
X83755778Y-85515218D01*
X83755781Y-85515220D01*
X83860137Y-85549127D01*
X83950465Y-85578477D01*
X84051557Y-85594488D01*
X84152648Y-85610500D01*
X84152649Y-85610500D01*
X84357351Y-85610500D01*
X84357352Y-85610500D01*
X84559534Y-85578477D01*
X84754219Y-85515220D01*
X84936610Y-85422287D01*
X85029590Y-85354732D01*
X85102213Y-85301971D01*
X85102215Y-85301968D01*
X85102219Y-85301966D01*
X85246966Y-85157219D01*
X85246968Y-85157215D01*
X85246971Y-85157213D01*
X85367284Y-84991614D01*
X85367286Y-84991611D01*
X85367287Y-84991610D01*
X85414516Y-84898917D01*
X85462489Y-84848123D01*
X85530310Y-84831328D01*
X85596445Y-84853865D01*
X85635483Y-84898917D01*
X85657566Y-84942256D01*
X85682715Y-84991614D01*
X85803028Y-85157213D01*
X85947786Y-85301971D01*
X86068226Y-85389474D01*
X86113390Y-85422287D01*
X86195643Y-85464197D01*
X86295776Y-85515218D01*
X86295778Y-85515218D01*
X86295781Y-85515220D01*
X86400137Y-85549127D01*
X86490465Y-85578477D01*
X86591557Y-85594488D01*
X86692648Y-85610500D01*
X86692649Y-85610500D01*
X86897351Y-85610500D01*
X86897352Y-85610500D01*
X87099534Y-85578477D01*
X87294219Y-85515220D01*
X87476610Y-85422287D01*
X87569590Y-85354732D01*
X87642213Y-85301971D01*
X87642215Y-85301968D01*
X87642219Y-85301966D01*
X87786966Y-85157219D01*
X87786968Y-85157215D01*
X87786971Y-85157213D01*
X87907284Y-84991614D01*
X87907286Y-84991611D01*
X87907287Y-84991610D01*
X87954516Y-84898917D01*
X88002489Y-84848123D01*
X88070310Y-84831328D01*
X88136445Y-84853865D01*
X88175483Y-84898917D01*
X88197566Y-84942256D01*
X88222715Y-84991614D01*
X88343028Y-85157213D01*
X88487786Y-85301971D01*
X88608226Y-85389474D01*
X88653390Y-85422287D01*
X88735643Y-85464197D01*
X88835776Y-85515218D01*
X88835778Y-85515218D01*
X88835781Y-85515220D01*
X88940137Y-85549127D01*
X89030465Y-85578477D01*
X89131557Y-85594488D01*
X89232648Y-85610500D01*
X89232649Y-85610500D01*
X89437351Y-85610500D01*
X89437352Y-85610500D01*
X89639534Y-85578477D01*
X89653842Y-85573827D01*
X89723682Y-85571831D01*
X89779842Y-85604077D01*
X91413584Y-87237819D01*
X91447069Y-87299142D01*
X91442085Y-87368834D01*
X91400213Y-87424767D01*
X91334749Y-87449184D01*
X91325903Y-87449500D01*
X91207648Y-87449500D01*
X91183329Y-87453351D01*
X91005465Y-87481522D01*
X90810776Y-87544781D01*
X90628386Y-87637715D01*
X90462786Y-87758028D01*
X90318028Y-87902786D01*
X90197715Y-88068386D01*
X90104781Y-88250776D01*
X90041522Y-88445465D01*
X90009500Y-88647648D01*
X90009500Y-88852351D01*
X90041522Y-89054534D01*
X90104781Y-89249223D01*
X90147909Y-89333864D01*
X90192349Y-89421083D01*
X90197715Y-89431613D01*
X90318028Y-89597213D01*
X90462786Y-89741971D01*
X90617749Y-89854556D01*
X90628390Y-89862287D01*
X90744607Y-89921503D01*
X90810776Y-89955218D01*
X90810778Y-89955218D01*
X90810781Y-89955220D01*
X90915137Y-89989127D01*
X91005465Y-90018477D01*
X91106557Y-90034488D01*
X91207648Y-90050500D01*
X91207649Y-90050500D01*
X91412351Y-90050500D01*
X91412352Y-90050500D01*
X91614534Y-90018477D01*
X91809219Y-89955220D01*
X91991610Y-89862287D01*
X92084590Y-89794732D01*
X92157213Y-89741971D01*
X92157215Y-89741968D01*
X92157219Y-89741966D01*
X92301966Y-89597219D01*
X92301968Y-89597215D01*
X92301971Y-89597213D01*
X92354732Y-89524590D01*
X92422287Y-89431610D01*
X92515220Y-89249219D01*
X92578477Y-89054534D01*
X92610500Y-88852352D01*
X92610500Y-88734097D01*
X92616738Y-88712851D01*
X92618318Y-88690763D01*
X92626390Y-88679979D01*
X92630185Y-88667058D01*
X92646918Y-88652558D01*
X92660190Y-88634830D01*
X92672810Y-88630122D01*
X92682989Y-88621303D01*
X92704906Y-88618151D01*
X92725654Y-88610413D01*
X92738814Y-88613275D01*
X92752147Y-88611359D01*
X92772290Y-88620558D01*
X92793927Y-88625265D01*
X92811652Y-88638533D01*
X92815703Y-88640384D01*
X92822181Y-88646416D01*
X92830139Y-88654374D01*
X92830149Y-88654385D01*
X92834479Y-88658715D01*
X92834480Y-88658716D01*
X92946284Y-88770520D01*
X93033095Y-88820639D01*
X93033097Y-88820641D01*
X93071151Y-88842611D01*
X93083215Y-88849577D01*
X93235943Y-88890501D01*
X93235946Y-88890501D01*
X93401653Y-88890501D01*
X93401669Y-88890500D01*
X95114487Y-88890500D01*
X95181526Y-88910185D01*
X95214804Y-88941613D01*
X95319055Y-89085102D01*
X95454898Y-89220945D01*
X95610319Y-89333865D01*
X95775845Y-89418205D01*
X95781493Y-89421083D01*
X95813902Y-89431613D01*
X95964199Y-89480447D01*
X96153945Y-89510500D01*
X96153946Y-89510500D01*
X96346054Y-89510500D01*
X96346055Y-89510500D01*
X96535801Y-89480447D01*
X96718509Y-89421082D01*
X96889681Y-89333865D01*
X97045102Y-89220945D01*
X97180945Y-89085102D01*
X97293865Y-88929681D01*
X97381082Y-88758509D01*
X97440447Y-88575801D01*
X97470500Y-88386055D01*
X97470500Y-88193945D01*
X97440447Y-88004199D01*
X97381082Y-87821491D01*
X97293865Y-87650319D01*
X97180945Y-87494898D01*
X97045102Y-87359055D01*
X96889681Y-87246135D01*
X96873360Y-87237819D01*
X96718504Y-87158915D01*
X96653919Y-87137931D01*
X96596243Y-87098494D01*
X96569044Y-87034136D01*
X96580958Y-86965289D01*
X96628202Y-86913813D01*
X96653919Y-86902069D01*
X96718504Y-86881084D01*
X96718506Y-86881082D01*
X96718509Y-86881082D01*
X96889681Y-86793865D01*
X97045102Y-86680945D01*
X97180945Y-86545102D01*
X97293865Y-86389681D01*
X97381082Y-86218509D01*
X97440447Y-86035801D01*
X97470500Y-85846055D01*
X97470500Y-85653945D01*
X97440447Y-85464199D01*
X97410764Y-85372845D01*
X97381083Y-85281493D01*
X97317761Y-85157217D01*
X97293865Y-85110319D01*
X97180945Y-84954898D01*
X97045102Y-84819055D01*
X96889681Y-84706135D01*
X96843768Y-84682741D01*
X96718504Y-84618915D01*
X96653919Y-84597931D01*
X96596243Y-84558494D01*
X96569044Y-84494136D01*
X96580958Y-84425289D01*
X96628202Y-84373813D01*
X96653919Y-84362069D01*
X96718504Y-84341084D01*
X96718506Y-84341082D01*
X96718509Y-84341082D01*
X96889681Y-84253865D01*
X97045102Y-84140945D01*
X97180945Y-84005102D01*
X97293865Y-83849681D01*
X97381082Y-83678509D01*
X97440447Y-83495801D01*
X97470500Y-83306055D01*
X97470500Y-83113945D01*
X97440447Y-82924199D01*
X97381082Y-82741491D01*
X97293865Y-82570319D01*
X97180945Y-82414898D01*
X97045102Y-82279055D01*
X96889681Y-82166135D01*
X96718506Y-82078916D01*
X96535802Y-82019553D01*
X96440928Y-82004526D01*
X96346055Y-81989500D01*
X96153945Y-81989500D01*
X96090696Y-81999517D01*
X95964197Y-82019553D01*
X95781493Y-82078916D01*
X95610318Y-82166135D01*
X95521645Y-82230560D01*
X95454898Y-82279055D01*
X95454896Y-82279057D01*
X95454895Y-82279057D01*
X95319057Y-82414895D01*
X95319057Y-82414896D01*
X95319055Y-82414898D01*
X95270560Y-82481645D01*
X95206135Y-82570318D01*
X95118916Y-82741493D01*
X95059553Y-82924197D01*
X95029500Y-83113945D01*
X95029500Y-83306054D01*
X95057245Y-83481231D01*
X95056544Y-83486655D01*
X95058456Y-83491781D01*
X95052113Y-83520939D01*
X95048290Y-83550525D01*
X95044459Y-83556127D01*
X95043605Y-83560055D01*
X95022454Y-83588309D01*
X94937585Y-83673180D01*
X94876263Y-83706666D01*
X94849903Y-83709500D01*
X93104602Y-83709500D01*
X93037563Y-83689815D01*
X92994117Y-83641795D01*
X92987284Y-83628385D01*
X92866971Y-83462786D01*
X92722213Y-83318028D01*
X92556613Y-83197715D01*
X92556612Y-83197714D01*
X92556610Y-83197713D01*
X92499653Y-83168691D01*
X92374223Y-83104781D01*
X92179534Y-83041522D01*
X92004995Y-83013878D01*
X91977352Y-83009500D01*
X91772648Y-83009500D01*
X91748329Y-83013351D01*
X91570465Y-83041522D01*
X91375776Y-83104781D01*
X91193386Y-83197715D01*
X91027786Y-83318028D01*
X90883028Y-83462786D01*
X90762715Y-83628386D01*
X90715485Y-83721080D01*
X90667510Y-83771876D01*
X90599689Y-83788671D01*
X90533554Y-83766134D01*
X90494515Y-83721080D01*
X90479999Y-83692591D01*
X90447287Y-83628390D01*
X90415092Y-83584077D01*
X90326971Y-83462786D01*
X90182213Y-83318028D01*
X90016613Y-83197715D01*
X90016612Y-83197714D01*
X90016610Y-83197713D01*
X89959653Y-83168691D01*
X89834223Y-83104781D01*
X89639534Y-83041522D01*
X89464995Y-83013878D01*
X89437352Y-83009500D01*
X89232648Y-83009500D01*
X89208329Y-83013351D01*
X89030465Y-83041522D01*
X88835776Y-83104781D01*
X88653386Y-83197715D01*
X88487786Y-83318028D01*
X88343028Y-83462786D01*
X88222715Y-83628386D01*
X88175485Y-83721080D01*
X88127510Y-83771876D01*
X88059689Y-83788671D01*
X87993554Y-83766134D01*
X87954515Y-83721080D01*
X87939999Y-83692591D01*
X87907287Y-83628390D01*
X87875092Y-83584077D01*
X87786971Y-83462786D01*
X87642213Y-83318028D01*
X87476613Y-83197715D01*
X87476612Y-83197714D01*
X87476610Y-83197713D01*
X87419653Y-83168691D01*
X87294223Y-83104781D01*
X87099534Y-83041522D01*
X86924995Y-83013878D01*
X86897352Y-83009500D01*
X86692648Y-83009500D01*
X86668329Y-83013351D01*
X86490465Y-83041522D01*
X86295776Y-83104781D01*
X86113386Y-83197715D01*
X85947786Y-83318028D01*
X85803028Y-83462786D01*
X85682715Y-83628386D01*
X85635485Y-83721080D01*
X85587510Y-83771876D01*
X85519689Y-83788671D01*
X85453554Y-83766134D01*
X85414515Y-83721080D01*
X85399999Y-83692591D01*
X85367287Y-83628390D01*
X85335092Y-83584077D01*
X85246971Y-83462786D01*
X85102213Y-83318028D01*
X84936613Y-83197715D01*
X84936612Y-83197714D01*
X84936610Y-83197713D01*
X84879653Y-83168691D01*
X84754223Y-83104781D01*
X84559534Y-83041522D01*
X84384995Y-83013878D01*
X84357352Y-83009500D01*
X84152648Y-83009500D01*
X84128329Y-83013351D01*
X83950465Y-83041522D01*
X83755776Y-83104781D01*
X83573386Y-83197715D01*
X83407786Y-83318028D01*
X83263028Y-83462786D01*
X83142713Y-83628388D01*
X83095203Y-83721630D01*
X83047228Y-83772426D01*
X82979407Y-83789220D01*
X82913272Y-83766682D01*
X82874234Y-83721628D01*
X82826861Y-83628652D01*
X82794474Y-83584077D01*
X82794474Y-83584076D01*
X82115000Y-84263551D01*
X82115000Y-84257339D01*
X82087741Y-84155606D01*
X82035080Y-84064394D01*
X81960606Y-83989920D01*
X81869394Y-83937259D01*
X81767661Y-83910000D01*
X81761446Y-83910000D01*
X82440922Y-83230524D01*
X82440921Y-83230523D01*
X82396359Y-83198147D01*
X82396350Y-83198141D01*
X82214031Y-83105244D01*
X82019417Y-83042009D01*
X81817317Y-83010000D01*
X81612683Y-83010000D01*
X81410582Y-83042009D01*
X81215968Y-83105244D01*
X81033644Y-83198143D01*
X80989077Y-83230523D01*
X80989077Y-83230524D01*
X81668554Y-83910000D01*
X81662339Y-83910000D01*
X81560606Y-83937259D01*
X81469394Y-83989920D01*
X81394920Y-84064394D01*
X81342259Y-84155606D01*
X81315000Y-84257339D01*
X81315000Y-84263553D01*
X80635524Y-83584077D01*
X80635523Y-83584077D01*
X80603143Y-83628644D01*
X80555765Y-83721630D01*
X80507790Y-83772426D01*
X80439969Y-83789221D01*
X80373834Y-83766683D01*
X80334795Y-83721630D01*
X80334515Y-83721080D01*
X80287287Y-83628390D01*
X80287285Y-83628387D01*
X80287284Y-83628385D01*
X80166971Y-83462786D01*
X80022213Y-83318028D01*
X79856613Y-83197715D01*
X79856612Y-83197714D01*
X79856610Y-83197713D01*
X79799653Y-83168691D01*
X79674223Y-83104781D01*
X79479534Y-83041522D01*
X79304995Y-83013878D01*
X79277352Y-83009500D01*
X79072648Y-83009500D01*
X79048329Y-83013351D01*
X78870465Y-83041522D01*
X78675776Y-83104781D01*
X78493386Y-83197715D01*
X78327786Y-83318028D01*
X78183028Y-83462786D01*
X78062715Y-83628385D01*
X78055883Y-83641795D01*
X78045433Y-83652859D01*
X78039111Y-83666703D01*
X78021931Y-83677743D01*
X78007909Y-83692591D01*
X77992227Y-83696832D01*
X77980333Y-83704477D01*
X77945398Y-83709500D01*
X77864602Y-83709500D01*
X77797563Y-83689815D01*
X77754117Y-83641795D01*
X77747284Y-83628385D01*
X77626971Y-83462786D01*
X77482213Y-83318028D01*
X77316613Y-83197715D01*
X77316612Y-83197714D01*
X77316610Y-83197713D01*
X77259653Y-83168691D01*
X77134223Y-83104781D01*
X76939534Y-83041522D01*
X76764995Y-83013878D01*
X76737352Y-83009500D01*
X76532648Y-83009500D01*
X76508329Y-83013351D01*
X76330465Y-83041522D01*
X76135776Y-83104781D01*
X75953386Y-83197715D01*
X75787786Y-83318028D01*
X75643028Y-83462786D01*
X75522715Y-83628386D01*
X75429781Y-83810776D01*
X75366522Y-84005465D01*
X75334500Y-84207648D01*
X73300500Y-84207648D01*
X73289935Y-84140942D01*
X73268477Y-84005465D01*
X73205218Y-83810776D01*
X73159515Y-83721080D01*
X73112287Y-83628390D01*
X73080092Y-83584077D01*
X72991971Y-83462786D01*
X72847213Y-83318028D01*
X72681613Y-83197715D01*
X72681612Y-83197714D01*
X72681610Y-83197713D01*
X72624653Y-83168691D01*
X72499223Y-83104781D01*
X72304534Y-83041522D01*
X72129995Y-83013878D01*
X72102352Y-83009500D01*
X71897648Y-83009500D01*
X71873329Y-83013351D01*
X71695465Y-83041522D01*
X71500776Y-83104781D01*
X71318386Y-83197715D01*
X71152786Y-83318028D01*
X71008028Y-83462786D01*
X70887715Y-83628386D01*
X70794781Y-83810776D01*
X70731522Y-84005465D01*
X70699500Y-84207648D01*
X70050500Y-84207648D01*
X70039935Y-84140942D01*
X70018477Y-84005465D01*
X69955218Y-83810776D01*
X69909515Y-83721080D01*
X69862287Y-83628390D01*
X69830092Y-83584077D01*
X69741971Y-83462786D01*
X69597213Y-83318028D01*
X69431613Y-83197715D01*
X69431612Y-83197714D01*
X69431610Y-83197713D01*
X69374653Y-83168691D01*
X69249223Y-83104781D01*
X69054534Y-83041522D01*
X68879995Y-83013878D01*
X68852352Y-83009500D01*
X68647648Y-83009500D01*
X68623329Y-83013351D01*
X68445465Y-83041522D01*
X68250776Y-83104781D01*
X68068386Y-83197715D01*
X67902786Y-83318028D01*
X67758028Y-83462786D01*
X67724818Y-83508498D01*
X67669489Y-83551164D01*
X67599875Y-83557143D01*
X67538080Y-83524538D01*
X67503723Y-83463699D01*
X67500500Y-83435613D01*
X67500500Y-77564386D01*
X67520185Y-77497347D01*
X67572989Y-77451592D01*
X67642147Y-77441648D01*
X67705703Y-77470673D01*
X67724819Y-77491502D01*
X67758030Y-77537215D01*
X67902786Y-77681971D01*
X68057749Y-77794556D01*
X68068390Y-77802287D01*
X68184607Y-77861503D01*
X68250776Y-77895218D01*
X68250778Y-77895218D01*
X68250781Y-77895220D01*
X68326926Y-77919961D01*
X68445465Y-77958477D01*
X68530271Y-77971909D01*
X68647648Y-77990500D01*
X68647649Y-77990500D01*
X68852351Y-77990500D01*
X68852352Y-77990500D01*
X69054534Y-77958477D01*
X69068842Y-77953827D01*
X69138682Y-77951831D01*
X69194842Y-77984077D01*
X70325139Y-79114374D01*
X70325149Y-79114385D01*
X70329479Y-79118715D01*
X70329480Y-79118716D01*
X70441284Y-79230520D01*
X70528095Y-79280639D01*
X70528097Y-79280641D01*
X70566151Y-79302611D01*
X70578215Y-79309577D01*
X70730943Y-79350501D01*
X70730946Y-79350501D01*
X70896653Y-79350501D01*
X70896669Y-79350500D01*
X77028331Y-79350500D01*
X77028347Y-79350501D01*
X77035943Y-79350501D01*
X77194054Y-79350501D01*
X77194057Y-79350501D01*
X77346785Y-79309577D01*
X77396904Y-79280639D01*
X77483716Y-79230520D01*
X77595520Y-79118716D01*
X77595520Y-79118714D01*
X77605728Y-79108507D01*
X77605730Y-79108504D01*
X78730158Y-77984075D01*
X78791479Y-77950592D01*
X78856151Y-77953825D01*
X78870466Y-77958477D01*
X79072648Y-77990500D01*
X79072649Y-77990500D01*
X79277351Y-77990500D01*
X79277352Y-77990500D01*
X79479534Y-77958477D01*
X79674219Y-77895220D01*
X79856610Y-77802287D01*
X79977854Y-77714199D01*
X80022213Y-77681971D01*
X80022215Y-77681968D01*
X80022219Y-77681966D01*
X80166966Y-77537219D01*
X80166968Y-77537215D01*
X80166971Y-77537213D01*
X80287284Y-77371614D01*
X80287285Y-77371613D01*
X80287287Y-77371610D01*
X80334516Y-77278917D01*
X80382489Y-77228123D01*
X80450310Y-77211328D01*
X80516445Y-77233865D01*
X80555483Y-77278917D01*
X80595883Y-77358205D01*
X80602715Y-77371614D01*
X80723028Y-77537213D01*
X80867786Y-77681971D01*
X81022749Y-77794556D01*
X81033390Y-77802287D01*
X81149607Y-77861503D01*
X81215776Y-77895218D01*
X81215778Y-77895218D01*
X81215781Y-77895220D01*
X81291926Y-77919961D01*
X81410465Y-77958477D01*
X81495271Y-77971909D01*
X81612648Y-77990500D01*
X81612649Y-77990500D01*
X81817351Y-77990500D01*
X81817352Y-77990500D01*
X82019534Y-77958477D01*
X82214219Y-77895220D01*
X82396610Y-77802287D01*
X82517854Y-77714199D01*
X82562213Y-77681971D01*
X82562215Y-77681968D01*
X82562219Y-77681966D01*
X82706966Y-77537219D01*
X82706968Y-77537215D01*
X82706971Y-77537213D01*
X82827284Y-77371614D01*
X82827285Y-77371613D01*
X82827287Y-77371610D01*
X82874516Y-77278917D01*
X82922489Y-77228123D01*
X82990310Y-77211328D01*
X83056445Y-77233865D01*
X83095483Y-77278917D01*
X83135883Y-77358205D01*
X83142715Y-77371614D01*
X83263028Y-77537213D01*
X83407786Y-77681971D01*
X83562749Y-77794556D01*
X83573390Y-77802287D01*
X83689607Y-77861503D01*
X83755776Y-77895218D01*
X83755778Y-77895218D01*
X83755781Y-77895220D01*
X83831926Y-77919961D01*
X83950465Y-77958477D01*
X84035271Y-77971909D01*
X84152648Y-77990500D01*
X84152649Y-77990500D01*
X84357351Y-77990500D01*
X84357352Y-77990500D01*
X84559534Y-77958477D01*
X84754219Y-77895220D01*
X84936610Y-77802287D01*
X85057854Y-77714199D01*
X85102213Y-77681971D01*
X85102215Y-77681968D01*
X85102219Y-77681966D01*
X85246966Y-77537219D01*
X85246968Y-77537215D01*
X85246971Y-77537213D01*
X85367284Y-77371614D01*
X85367285Y-77371613D01*
X85367287Y-77371610D01*
X85414516Y-77278917D01*
X85462489Y-77228123D01*
X85530310Y-77211328D01*
X85596445Y-77233865D01*
X85635483Y-77278917D01*
X85675883Y-77358205D01*
X85682715Y-77371614D01*
X85803028Y-77537213D01*
X85947786Y-77681971D01*
X86102749Y-77794556D01*
X86113390Y-77802287D01*
X86229607Y-77861503D01*
X86295776Y-77895218D01*
X86295778Y-77895218D01*
X86295781Y-77895220D01*
X86371926Y-77919961D01*
X86490465Y-77958477D01*
X86575271Y-77971909D01*
X86692648Y-77990500D01*
X86692649Y-77990500D01*
X86897351Y-77990500D01*
X86897352Y-77990500D01*
X87099534Y-77958477D01*
X87294219Y-77895220D01*
X87476610Y-77802287D01*
X87597854Y-77714199D01*
X87642213Y-77681971D01*
X87642215Y-77681968D01*
X87642219Y-77681966D01*
X87786966Y-77537219D01*
X87786968Y-77537215D01*
X87786971Y-77537213D01*
X87907284Y-77371614D01*
X87907285Y-77371613D01*
X87907287Y-77371610D01*
X87954516Y-77278917D01*
X88002489Y-77228123D01*
X88070310Y-77211328D01*
X88136445Y-77233865D01*
X88175483Y-77278917D01*
X88215883Y-77358205D01*
X88222715Y-77371614D01*
X88343028Y-77537213D01*
X88487786Y-77681971D01*
X88642749Y-77794556D01*
X88653390Y-77802287D01*
X88769607Y-77861503D01*
X88835776Y-77895218D01*
X88835778Y-77895218D01*
X88835781Y-77895220D01*
X88911926Y-77919961D01*
X89030465Y-77958477D01*
X89115271Y-77971909D01*
X89232648Y-77990500D01*
X89232649Y-77990500D01*
X89437351Y-77990500D01*
X89437352Y-77990500D01*
X89639534Y-77958477D01*
X89653842Y-77953827D01*
X89723679Y-77951831D01*
X89779841Y-77984077D01*
X90276284Y-78480520D01*
X90276286Y-78480521D01*
X90276290Y-78480524D01*
X90413209Y-78559573D01*
X90413216Y-78559577D01*
X90565943Y-78600501D01*
X90565945Y-78600501D01*
X90731654Y-78600501D01*
X90731670Y-78600500D01*
X95114487Y-78600500D01*
X95181526Y-78620185D01*
X95214804Y-78651613D01*
X95319055Y-78795102D01*
X95454898Y-78930945D01*
X95610319Y-79043865D01*
X95757216Y-79118713D01*
X95781493Y-79131083D01*
X95872845Y-79160764D01*
X95964199Y-79190447D01*
X96153945Y-79220500D01*
X96153946Y-79220500D01*
X96346054Y-79220500D01*
X96346055Y-79220500D01*
X96535801Y-79190447D01*
X96718509Y-79131082D01*
X96889681Y-79043865D01*
X97045102Y-78930945D01*
X97180945Y-78795102D01*
X97293865Y-78639681D01*
X97381082Y-78468509D01*
X97440447Y-78285801D01*
X97470500Y-78096055D01*
X97470500Y-77903945D01*
X97440447Y-77714199D01*
X97391770Y-77564386D01*
X97381083Y-77531493D01*
X97360706Y-77491502D01*
X97293865Y-77360319D01*
X97180945Y-77204898D01*
X97045102Y-77069055D01*
X96889681Y-76956135D01*
X96718504Y-76868915D01*
X96653919Y-76847931D01*
X96596243Y-76808494D01*
X96569044Y-76744136D01*
X96580958Y-76675289D01*
X96628202Y-76623813D01*
X96653919Y-76612069D01*
X96718504Y-76591084D01*
X96718506Y-76591082D01*
X96718509Y-76591082D01*
X96889681Y-76503865D01*
X97045102Y-76390945D01*
X97180945Y-76255102D01*
X97293865Y-76099681D01*
X97381082Y-75928509D01*
X97440447Y-75745801D01*
X97470500Y-75556055D01*
X97470500Y-75363945D01*
X97440447Y-75174199D01*
X97381082Y-74991491D01*
X97293865Y-74820319D01*
X97180945Y-74664898D01*
X97045102Y-74529055D01*
X96889681Y-74416135D01*
X96718504Y-74328915D01*
X96653919Y-74307931D01*
X96596243Y-74268494D01*
X96569044Y-74204136D01*
X96580958Y-74135289D01*
X96628202Y-74083813D01*
X96653919Y-74072069D01*
X96718504Y-74051084D01*
X96718506Y-74051082D01*
X96718509Y-74051082D01*
X96889681Y-73963865D01*
X97045102Y-73850945D01*
X97180945Y-73715102D01*
X97293865Y-73559681D01*
X97381082Y-73388509D01*
X97440447Y-73205801D01*
X97470500Y-73016055D01*
X97470500Y-72823945D01*
X97440447Y-72634199D01*
X97381082Y-72451491D01*
X97293865Y-72280319D01*
X97180945Y-72124898D01*
X97045102Y-71989055D01*
X96889681Y-71876135D01*
X96718506Y-71788916D01*
X96535802Y-71729553D01*
X96440928Y-71714526D01*
X96346055Y-71699500D01*
X96153945Y-71699500D01*
X96090696Y-71709517D01*
X95964197Y-71729553D01*
X95781493Y-71788916D01*
X95610318Y-71876135D01*
X95521645Y-71940560D01*
X95454898Y-71989055D01*
X95454896Y-71989057D01*
X95454895Y-71989057D01*
X95319057Y-72124895D01*
X95319057Y-72124896D01*
X95319055Y-72124898D01*
X95270560Y-72191645D01*
X95206135Y-72280318D01*
X95118916Y-72451493D01*
X95059553Y-72634197D01*
X95029500Y-72823945D01*
X95029500Y-73016054D01*
X95059553Y-73205802D01*
X95118916Y-73388506D01*
X95165441Y-73479815D01*
X95206135Y-73559681D01*
X95319055Y-73715102D01*
X95454898Y-73850945D01*
X95610319Y-73963865D01*
X95781491Y-74051082D01*
X95781493Y-74051083D01*
X95846081Y-74072069D01*
X95903756Y-74111506D01*
X95930955Y-74175865D01*
X95919041Y-74244711D01*
X95871797Y-74296187D01*
X95846081Y-74307931D01*
X95781493Y-74328916D01*
X95610318Y-74416135D01*
X95521645Y-74480560D01*
X95454898Y-74529055D01*
X95454896Y-74529057D01*
X95454895Y-74529057D01*
X95319057Y-74664895D01*
X95319057Y-74664896D01*
X95319055Y-74664898D01*
X95270560Y-74731645D01*
X95206135Y-74820318D01*
X95118916Y-74991493D01*
X95059553Y-75174197D01*
X95059553Y-75174199D01*
X95029500Y-75363945D01*
X95029500Y-75556055D01*
X95032930Y-75577713D01*
X95057245Y-75731230D01*
X95048290Y-75800524D01*
X95022454Y-75838309D01*
X94958194Y-75902570D01*
X94852375Y-76008390D01*
X94807584Y-76053181D01*
X94746261Y-76086666D01*
X94719902Y-76089500D01*
X93104602Y-76089500D01*
X93037563Y-76069815D01*
X92994117Y-76021795D01*
X92987284Y-76008385D01*
X92866971Y-75842786D01*
X92722213Y-75698028D01*
X92556613Y-75577715D01*
X92556612Y-75577714D01*
X92556610Y-75577713D01*
X92496898Y-75547288D01*
X92374223Y-75484781D01*
X92179534Y-75421522D01*
X91991690Y-75391771D01*
X91977352Y-75389500D01*
X91772648Y-75389500D01*
X91758310Y-75391771D01*
X91570465Y-75421522D01*
X91375776Y-75484781D01*
X91193386Y-75577715D01*
X91027786Y-75698028D01*
X90883028Y-75842786D01*
X90762715Y-76008386D01*
X90715485Y-76101080D01*
X90667510Y-76151876D01*
X90599689Y-76168671D01*
X90533554Y-76146134D01*
X90494515Y-76101080D01*
X90487127Y-76086581D01*
X90447287Y-76008390D01*
X90406674Y-75952490D01*
X90326971Y-75842786D01*
X90182213Y-75698028D01*
X90016613Y-75577715D01*
X90016612Y-75577714D01*
X90016610Y-75577713D01*
X89956898Y-75547288D01*
X89834223Y-75484781D01*
X89639534Y-75421522D01*
X89451690Y-75391771D01*
X89437352Y-75389500D01*
X89232648Y-75389500D01*
X89218310Y-75391771D01*
X89030465Y-75421522D01*
X88835776Y-75484781D01*
X88653386Y-75577715D01*
X88487786Y-75698028D01*
X88343028Y-75842786D01*
X88222715Y-76008386D01*
X88175485Y-76101080D01*
X88127510Y-76151876D01*
X88059689Y-76168671D01*
X87993554Y-76146134D01*
X87954515Y-76101080D01*
X87947127Y-76086581D01*
X87907287Y-76008390D01*
X87866674Y-75952490D01*
X87786971Y-75842786D01*
X87642213Y-75698028D01*
X87476613Y-75577715D01*
X87476612Y-75577714D01*
X87476610Y-75577713D01*
X87416898Y-75547288D01*
X87294223Y-75484781D01*
X87099534Y-75421522D01*
X86911690Y-75391771D01*
X86897352Y-75389500D01*
X86692648Y-75389500D01*
X86678310Y-75391771D01*
X86490465Y-75421522D01*
X86295776Y-75484781D01*
X86113386Y-75577715D01*
X85947786Y-75698028D01*
X85803028Y-75842786D01*
X85682715Y-76008386D01*
X85635485Y-76101080D01*
X85587510Y-76151876D01*
X85519689Y-76168671D01*
X85453554Y-76146134D01*
X85414515Y-76101080D01*
X85407127Y-76086581D01*
X85367287Y-76008390D01*
X85326674Y-75952490D01*
X85246971Y-75842786D01*
X85102213Y-75698028D01*
X84936613Y-75577715D01*
X84936612Y-75577714D01*
X84936610Y-75577713D01*
X84876898Y-75547288D01*
X84754223Y-75484781D01*
X84559535Y-75421523D01*
X84411483Y-75398073D01*
X84348349Y-75368143D01*
X84343201Y-75363281D01*
X82849209Y-73869289D01*
X82849206Y-73869285D01*
X82849206Y-73869286D01*
X82842139Y-73862219D01*
X82842139Y-73862218D01*
X82702782Y-73722861D01*
X82702781Y-73722860D01*
X82702780Y-73722859D01*
X82538920Y-73613371D01*
X82538907Y-73613364D01*
X82416246Y-73562557D01*
X82416240Y-73562555D01*
X82409301Y-73559681D01*
X82356836Y-73537949D01*
X82260188Y-73518724D01*
X82255598Y-73517811D01*
X82163544Y-73499500D01*
X82163541Y-73499500D01*
X80715782Y-73499500D01*
X80648743Y-73479815D01*
X80628101Y-73463181D01*
X78526601Y-71361681D01*
X78493116Y-71300358D01*
X78498100Y-71230666D01*
X78539972Y-71174733D01*
X78605436Y-71150316D01*
X78614282Y-71150000D01*
X79000000Y-71150000D01*
X79000000Y-70183012D01*
X79057007Y-70215925D01*
X79184174Y-70250000D01*
X79315826Y-70250000D01*
X79442993Y-70215925D01*
X79500000Y-70183012D01*
X79500000Y-71150000D01*
X80197828Y-71150000D01*
X80197844Y-71149999D01*
X80257372Y-71143598D01*
X80257379Y-71143596D01*
X80392086Y-71093354D01*
X80392093Y-71093350D01*
X80507187Y-71007190D01*
X80507190Y-71007187D01*
X80593350Y-70892093D01*
X80593353Y-70892088D01*
X80612345Y-70841166D01*
X80654215Y-70785232D01*
X80719679Y-70760813D01*
X80787952Y-70775663D01*
X80816209Y-70796816D01*
X80837636Y-70818243D01*
X80837641Y-70818247D01*
X80993192Y-70931260D01*
X81015978Y-70947815D01*
X81132501Y-71007187D01*
X81212393Y-71047895D01*
X81212396Y-71047896D01*
X81317221Y-71081955D01*
X81422049Y-71116015D01*
X81639778Y-71150500D01*
X81639779Y-71150500D01*
X81860221Y-71150500D01*
X81860222Y-71150500D01*
X82077951Y-71116015D01*
X82287606Y-71047895D01*
X82484022Y-70947815D01*
X82662365Y-70818242D01*
X82818242Y-70662365D01*
X82899682Y-70550270D01*
X82955011Y-70507606D01*
X83024624Y-70501627D01*
X83086420Y-70534232D01*
X83100313Y-70550265D01*
X83181753Y-70662358D01*
X83181758Y-70662365D01*
X83337636Y-70818243D01*
X83337641Y-70818247D01*
X83493192Y-70931260D01*
X83515978Y-70947815D01*
X83632501Y-71007187D01*
X83712393Y-71047895D01*
X83712396Y-71047896D01*
X83817221Y-71081955D01*
X83922049Y-71116015D01*
X84139778Y-71150500D01*
X84139779Y-71150500D01*
X84360221Y-71150500D01*
X84360222Y-71150500D01*
X84577951Y-71116015D01*
X84787606Y-71047895D01*
X84984022Y-70947815D01*
X85162365Y-70818242D01*
X85318242Y-70662365D01*
X85399682Y-70550270D01*
X85455011Y-70507606D01*
X85524624Y-70501627D01*
X85586420Y-70534232D01*
X85600313Y-70550265D01*
X85681753Y-70662358D01*
X85681758Y-70662365D01*
X85837636Y-70818243D01*
X85837641Y-70818247D01*
X85993192Y-70931260D01*
X86015978Y-70947815D01*
X86132501Y-71007187D01*
X86212393Y-71047895D01*
X86212396Y-71047896D01*
X86317221Y-71081955D01*
X86422049Y-71116015D01*
X86639778Y-71150500D01*
X86639779Y-71150500D01*
X86860221Y-71150500D01*
X86860222Y-71150500D01*
X87077951Y-71116015D01*
X87287606Y-71047895D01*
X87484022Y-70947815D01*
X87662365Y-70818242D01*
X87818242Y-70662365D01*
X87947815Y-70484022D01*
X88047895Y-70287606D01*
X88116015Y-70077951D01*
X88144572Y-69897648D01*
X88949500Y-69897648D01*
X88949500Y-70102351D01*
X88981522Y-70304534D01*
X89044781Y-70499223D01*
X89137715Y-70681613D01*
X89258028Y-70847213D01*
X89402786Y-70991971D01*
X89515506Y-71073865D01*
X89568390Y-71112287D01*
X89684607Y-71171503D01*
X89750776Y-71205218D01*
X89750778Y-71205218D01*
X89750781Y-71205220D01*
X89829096Y-71230666D01*
X89945465Y-71268477D01*
X90046557Y-71284488D01*
X90147648Y-71300500D01*
X90147649Y-71300500D01*
X90352351Y-71300500D01*
X90352352Y-71300500D01*
X90554534Y-71268477D01*
X90749219Y-71205220D01*
X90931610Y-71112287D01*
X91076265Y-71007190D01*
X91097213Y-70991971D01*
X91097215Y-70991968D01*
X91097219Y-70991966D01*
X91241966Y-70847219D01*
X91241968Y-70847215D01*
X91241971Y-70847213D01*
X91304743Y-70760813D01*
X91362287Y-70681610D01*
X91455220Y-70499219D01*
X91518477Y-70304534D01*
X91550500Y-70102352D01*
X91550500Y-69897648D01*
X91541926Y-69843513D01*
X91518477Y-69695465D01*
X91489127Y-69605137D01*
X91455220Y-69500781D01*
X91455218Y-69500778D01*
X91455218Y-69500776D01*
X91415103Y-69422047D01*
X91362287Y-69318390D01*
X91337356Y-69284075D01*
X91241971Y-69152786D01*
X91097213Y-69008028D01*
X90931613Y-68887715D01*
X90931612Y-68887714D01*
X90931610Y-68887713D01*
X90837091Y-68839553D01*
X90749223Y-68794781D01*
X90554534Y-68731522D01*
X90375618Y-68703185D01*
X90352352Y-68699500D01*
X90147648Y-68699500D01*
X90124382Y-68703185D01*
X89945465Y-68731522D01*
X89750776Y-68794781D01*
X89568386Y-68887715D01*
X89402786Y-69008028D01*
X89258028Y-69152786D01*
X89137715Y-69318386D01*
X89044781Y-69500776D01*
X88981522Y-69695465D01*
X88949500Y-69897648D01*
X88144572Y-69897648D01*
X88150500Y-69860222D01*
X88150500Y-69639778D01*
X88116015Y-69422049D01*
X88055207Y-69234898D01*
X88047896Y-69212396D01*
X88047895Y-69212393D01*
X88013237Y-69144375D01*
X87947815Y-69015978D01*
X87862949Y-68899169D01*
X87818247Y-68837641D01*
X87818243Y-68837636D01*
X87662363Y-68681756D01*
X87662358Y-68681752D01*
X87484025Y-68552187D01*
X87484024Y-68552186D01*
X87484022Y-68552185D01*
X87421096Y-68520122D01*
X87287606Y-68452104D01*
X87287603Y-68452103D01*
X87077952Y-68383985D01*
X86969086Y-68366742D01*
X86860222Y-68349500D01*
X86639778Y-68349500D01*
X86567201Y-68360995D01*
X86422047Y-68383985D01*
X86212396Y-68452103D01*
X86212393Y-68452104D01*
X86015974Y-68552187D01*
X85837641Y-68681752D01*
X85837636Y-68681756D01*
X85681756Y-68837636D01*
X85681752Y-68837641D01*
X85600318Y-68949727D01*
X85544989Y-68992393D01*
X85475375Y-68998372D01*
X85413580Y-68965767D01*
X85399682Y-68949727D01*
X85318247Y-68837641D01*
X85318243Y-68837636D01*
X85162363Y-68681756D01*
X85162358Y-68681752D01*
X84984025Y-68552187D01*
X84984024Y-68552186D01*
X84984022Y-68552185D01*
X84921096Y-68520122D01*
X84787606Y-68452104D01*
X84787603Y-68452103D01*
X84577952Y-68383985D01*
X84469086Y-68366742D01*
X84360222Y-68349500D01*
X84139778Y-68349500D01*
X84067201Y-68360995D01*
X83922047Y-68383985D01*
X83712396Y-68452103D01*
X83712393Y-68452104D01*
X83515974Y-68552187D01*
X83337641Y-68681752D01*
X83337636Y-68681756D01*
X83181756Y-68837636D01*
X83181752Y-68837641D01*
X83100318Y-68949727D01*
X83044989Y-68992393D01*
X82975375Y-68998372D01*
X82913580Y-68965767D01*
X82899682Y-68949727D01*
X82818247Y-68837641D01*
X82818243Y-68837636D01*
X82662363Y-68681756D01*
X82662358Y-68681752D01*
X82484025Y-68552187D01*
X82484024Y-68552186D01*
X82484022Y-68552185D01*
X82421096Y-68520122D01*
X82287606Y-68452104D01*
X82287603Y-68452103D01*
X82077952Y-68383985D01*
X81969086Y-68366742D01*
X81860222Y-68349500D01*
X81639778Y-68349500D01*
X81567201Y-68360995D01*
X81422047Y-68383985D01*
X81212396Y-68452103D01*
X81212393Y-68452104D01*
X81015974Y-68552187D01*
X80837641Y-68681752D01*
X80837635Y-68681757D01*
X80816207Y-68703185D01*
X80754884Y-68736669D01*
X80685192Y-68731683D01*
X80629259Y-68689810D01*
X80612346Y-68658834D01*
X80593355Y-68607915D01*
X80593350Y-68607906D01*
X80507190Y-68492812D01*
X80507187Y-68492809D01*
X80392093Y-68406649D01*
X80392086Y-68406645D01*
X80257379Y-68356403D01*
X80257372Y-68356401D01*
X80197844Y-68350000D01*
X79500000Y-68350000D01*
X79500000Y-69316988D01*
X79442993Y-69284075D01*
X79315826Y-69250000D01*
X79184174Y-69250000D01*
X79057007Y-69284075D01*
X79000000Y-69316988D01*
X79000000Y-68350000D01*
X78302155Y-68350000D01*
X78242627Y-68356401D01*
X78242620Y-68356403D01*
X78107913Y-68406645D01*
X78107906Y-68406649D01*
X77992812Y-68492809D01*
X77992809Y-68492812D01*
X77906649Y-68607906D01*
X77906645Y-68607913D01*
X77856403Y-68742620D01*
X77856401Y-68742627D01*
X77850000Y-68802155D01*
X77850000Y-69500000D01*
X78816988Y-69500000D01*
X78784075Y-69557007D01*
X78750000Y-69684174D01*
X78750000Y-69815826D01*
X78784075Y-69942993D01*
X78816988Y-70000000D01*
X77850000Y-70000000D01*
X77850000Y-70385718D01*
X77830315Y-70452757D01*
X77777511Y-70498512D01*
X77708353Y-70508456D01*
X77644797Y-70479431D01*
X77638319Y-70473399D01*
X77076717Y-69911797D01*
X77043232Y-69850474D01*
X77041925Y-69843513D01*
X77018477Y-69695466D01*
X77018477Y-69695465D01*
X76989127Y-69605137D01*
X76955220Y-69500781D01*
X76955218Y-69500778D01*
X76955218Y-69500776D01*
X76915103Y-69422047D01*
X76862287Y-69318390D01*
X76837356Y-69284075D01*
X76741971Y-69152786D01*
X76597213Y-69008028D01*
X76447379Y-68899169D01*
X76431613Y-68887715D01*
X76431612Y-68887714D01*
X76431610Y-68887713D01*
X76337091Y-68839553D01*
X76249223Y-68794781D01*
X76054534Y-68731522D01*
X75875618Y-68703185D01*
X75852352Y-68699500D01*
X75647648Y-68699500D01*
X75624382Y-68703185D01*
X75445465Y-68731522D01*
X75250776Y-68794781D01*
X75068386Y-68887715D01*
X74902786Y-69008028D01*
X74758028Y-69152786D01*
X74637715Y-69318386D01*
X74544781Y-69500776D01*
X74481522Y-69695465D01*
X74449500Y-69897648D01*
X74449500Y-70102351D01*
X74481522Y-70304534D01*
X74544781Y-70499223D01*
X74637715Y-70681613D01*
X74758028Y-70847213D01*
X74902786Y-70991971D01*
X75015506Y-71073865D01*
X75068390Y-71112287D01*
X75184607Y-71171503D01*
X75250776Y-71205218D01*
X75250778Y-71205218D01*
X75250781Y-71205220D01*
X75329096Y-71230666D01*
X75445465Y-71268477D01*
X75522966Y-71280751D01*
X75593513Y-71291925D01*
X75656648Y-71321854D01*
X75661797Y-71326717D01*
X79472858Y-75137778D01*
X79472861Y-75137782D01*
X79538889Y-75203810D01*
X79572373Y-75265134D01*
X79569892Y-75299812D01*
X79567388Y-75334824D01*
X79526336Y-75389662D01*
X79525515Y-75390758D01*
X79496933Y-75401418D01*
X79460052Y-75415174D01*
X79460050Y-75415173D01*
X79460050Y-75415174D01*
X79460049Y-75415173D01*
X79431809Y-75413963D01*
X79277352Y-75389500D01*
X79072648Y-75389500D01*
X79058310Y-75391771D01*
X78870465Y-75421522D01*
X78675776Y-75484781D01*
X78493386Y-75577715D01*
X78327786Y-75698028D01*
X78183032Y-75842782D01*
X78183028Y-75842787D01*
X78114978Y-75936451D01*
X78059648Y-75979117D01*
X77990035Y-75985096D01*
X77928240Y-75952490D01*
X77896954Y-75902570D01*
X77877144Y-75842787D01*
X77869814Y-75820666D01*
X77777712Y-75671344D01*
X77653656Y-75547288D01*
X77504334Y-75455186D01*
X77337797Y-75400001D01*
X77337795Y-75400000D01*
X77235010Y-75389500D01*
X76034998Y-75389500D01*
X76034981Y-75389501D01*
X75932203Y-75400000D01*
X75932200Y-75400001D01*
X75765668Y-75455185D01*
X75765663Y-75455187D01*
X75616342Y-75547289D01*
X75492289Y-75671342D01*
X75400187Y-75820663D01*
X75400185Y-75820668D01*
X75345000Y-75987204D01*
X75344088Y-75991467D01*
X75310801Y-76052898D01*
X75249586Y-76086581D01*
X75222837Y-76089500D01*
X73229602Y-76089500D01*
X73162563Y-76069815D01*
X73119117Y-76021795D01*
X73112284Y-76008385D01*
X72991971Y-75842786D01*
X72847213Y-75698028D01*
X72681613Y-75577715D01*
X72681612Y-75577714D01*
X72681610Y-75577713D01*
X72621898Y-75547288D01*
X72499223Y-75484781D01*
X72304534Y-75421522D01*
X72116690Y-75391771D01*
X72102352Y-75389500D01*
X71897648Y-75389500D01*
X71883310Y-75391771D01*
X71695465Y-75421522D01*
X71500776Y-75484781D01*
X71318386Y-75577715D01*
X71152786Y-75698028D01*
X71008028Y-75842786D01*
X70887715Y-76008386D01*
X70794781Y-76190776D01*
X70731522Y-76385465D01*
X70699500Y-76587648D01*
X70699500Y-76792351D01*
X70731522Y-76994534D01*
X70794781Y-77189223D01*
X70846385Y-77290500D01*
X70883320Y-77362989D01*
X70887715Y-77371613D01*
X71008028Y-77537213D01*
X71152786Y-77681971D01*
X71307749Y-77794556D01*
X71318390Y-77802287D01*
X71500781Y-77895220D01*
X71538788Y-77907569D01*
X71596464Y-77947007D01*
X71623662Y-78011365D01*
X71611747Y-78080212D01*
X71564503Y-78131687D01*
X71500470Y-78149500D01*
X71110097Y-78149500D01*
X71043058Y-78129815D01*
X71022416Y-78113181D01*
X70044077Y-77134842D01*
X70010592Y-77073519D01*
X70013828Y-77008841D01*
X70018477Y-76994534D01*
X70050500Y-76792352D01*
X70050500Y-76587648D01*
X70018477Y-76385466D01*
X69955220Y-76190781D01*
X69955218Y-76190778D01*
X69955218Y-76190776D01*
X69903865Y-76089992D01*
X69862287Y-76008390D01*
X69821674Y-75952490D01*
X69741971Y-75842786D01*
X69597213Y-75698028D01*
X69431613Y-75577715D01*
X69431612Y-75577714D01*
X69431610Y-75577713D01*
X69371898Y-75547288D01*
X69249223Y-75484781D01*
X69054534Y-75421522D01*
X68866690Y-75391771D01*
X68852352Y-75389500D01*
X68647648Y-75389500D01*
X68633310Y-75391771D01*
X68445465Y-75421522D01*
X68250776Y-75484781D01*
X68068386Y-75577715D01*
X67902786Y-75698028D01*
X67758028Y-75842786D01*
X67724818Y-75888498D01*
X67669489Y-75931164D01*
X67599875Y-75937143D01*
X67538080Y-75904538D01*
X67503723Y-75843699D01*
X67500500Y-75815613D01*
X67500500Y-64853945D01*
X68779500Y-64853945D01*
X68779500Y-65046054D01*
X68809553Y-65235802D01*
X68868916Y-65418506D01*
X68909946Y-65499031D01*
X68956135Y-65589681D01*
X69069055Y-65745102D01*
X69204898Y-65880945D01*
X69360319Y-65993865D01*
X69496476Y-66063241D01*
X69531493Y-66081083D01*
X69596081Y-66102069D01*
X69653756Y-66141506D01*
X69680955Y-66205865D01*
X69669041Y-66274711D01*
X69621797Y-66326187D01*
X69596081Y-66337931D01*
X69531493Y-66358916D01*
X69360318Y-66446135D01*
X69271645Y-66510560D01*
X69204898Y-66559055D01*
X69204896Y-66559057D01*
X69204895Y-66559057D01*
X69069057Y-66694895D01*
X69069057Y-66694896D01*
X69069055Y-66694898D01*
X69020560Y-66761645D01*
X68956135Y-66850318D01*
X68868916Y-67021493D01*
X68809553Y-67204197D01*
X68779500Y-67393945D01*
X68779500Y-67586054D01*
X68809553Y-67775802D01*
X68868916Y-67958506D01*
X68868918Y-67958509D01*
X68956135Y-68129681D01*
X69069055Y-68285102D01*
X69204898Y-68420945D01*
X69360319Y-68533865D01*
X69531491Y-68621082D01*
X69531493Y-68621083D01*
X69596081Y-68642069D01*
X69653756Y-68681506D01*
X69680955Y-68745865D01*
X69669041Y-68814711D01*
X69621797Y-68866187D01*
X69596081Y-68877931D01*
X69531493Y-68898916D01*
X69360318Y-68986135D01*
X69271645Y-69050560D01*
X69204898Y-69099055D01*
X69204896Y-69099057D01*
X69204895Y-69099057D01*
X69069057Y-69234895D01*
X69069057Y-69234896D01*
X69069055Y-69234898D01*
X69058083Y-69250000D01*
X68956135Y-69390318D01*
X68868916Y-69561493D01*
X68809553Y-69744197D01*
X68779500Y-69933945D01*
X68779500Y-70126054D01*
X68809553Y-70315802D01*
X68868916Y-70498506D01*
X68952404Y-70662358D01*
X68956135Y-70669681D01*
X69069055Y-70825102D01*
X69204898Y-70960945D01*
X69360319Y-71073865D01*
X69510362Y-71150316D01*
X69531493Y-71161083D01*
X69622845Y-71190764D01*
X69714199Y-71220447D01*
X69903945Y-71250500D01*
X69903946Y-71250500D01*
X70096054Y-71250500D01*
X70096055Y-71250500D01*
X70285801Y-71220447D01*
X70468509Y-71161082D01*
X70639681Y-71073865D01*
X70795102Y-70960945D01*
X70930945Y-70825102D01*
X71043865Y-70669681D01*
X71131082Y-70498509D01*
X71190447Y-70315801D01*
X71220500Y-70126055D01*
X71220500Y-69933945D01*
X71190447Y-69744199D01*
X71131082Y-69561491D01*
X71043865Y-69390319D01*
X70930945Y-69234898D01*
X70795102Y-69099055D01*
X70639681Y-68986135D01*
X70469002Y-68899169D01*
X70468504Y-68898915D01*
X70403919Y-68877931D01*
X70346243Y-68838494D01*
X70319044Y-68774136D01*
X70330958Y-68705289D01*
X70378202Y-68653813D01*
X70403919Y-68642069D01*
X70468504Y-68621084D01*
X70468506Y-68621082D01*
X70468509Y-68621082D01*
X70639681Y-68533865D01*
X70795102Y-68420945D01*
X70930945Y-68285102D01*
X71043865Y-68129681D01*
X71131082Y-67958509D01*
X71190447Y-67775801D01*
X71220500Y-67586055D01*
X71220500Y-67393945D01*
X71190447Y-67204199D01*
X71131082Y-67021491D01*
X71043865Y-66850319D01*
X70930945Y-66694898D01*
X70795102Y-66559055D01*
X70639681Y-66446135D01*
X70468504Y-66358915D01*
X70403919Y-66337931D01*
X70346243Y-66298494D01*
X70319044Y-66234136D01*
X70330958Y-66165289D01*
X70378202Y-66113813D01*
X70403919Y-66102069D01*
X70468504Y-66081084D01*
X70468506Y-66081082D01*
X70468509Y-66081082D01*
X70639681Y-65993865D01*
X70795102Y-65880945D01*
X70930945Y-65745102D01*
X71043865Y-65589681D01*
X71131082Y-65418509D01*
X71190447Y-65235801D01*
X71220500Y-65046055D01*
X71220500Y-64897682D01*
X74450000Y-64897682D01*
X74450000Y-65102317D01*
X74482009Y-65304417D01*
X74545244Y-65499031D01*
X74638141Y-65681350D01*
X74638147Y-65681359D01*
X74670523Y-65725921D01*
X74670524Y-65725922D01*
X75350000Y-65046446D01*
X75350000Y-65052661D01*
X75377259Y-65154394D01*
X75429920Y-65245606D01*
X75504394Y-65320080D01*
X75595606Y-65372741D01*
X75697339Y-65400000D01*
X75703553Y-65400000D01*
X75024076Y-66079474D01*
X75068650Y-66111859D01*
X75250968Y-66204755D01*
X75445582Y-66267990D01*
X75647683Y-66300000D01*
X75852317Y-66300000D01*
X76054417Y-66267990D01*
X76249031Y-66204755D01*
X76431349Y-66111859D01*
X76475921Y-66079474D01*
X75796447Y-65400000D01*
X75802661Y-65400000D01*
X75904394Y-65372741D01*
X75995606Y-65320080D01*
X76070080Y-65245606D01*
X76122741Y-65154394D01*
X76150000Y-65052661D01*
X76150000Y-65046447D01*
X76829474Y-65725921D01*
X76861859Y-65681349D01*
X76954755Y-65499031D01*
X77017990Y-65304417D01*
X77050000Y-65102317D01*
X77050000Y-64897682D01*
X88950000Y-64897682D01*
X88950000Y-65102317D01*
X88982009Y-65304417D01*
X89045244Y-65499031D01*
X89138141Y-65681350D01*
X89138147Y-65681359D01*
X89170523Y-65725921D01*
X89170524Y-65725922D01*
X89850000Y-65046446D01*
X89850000Y-65052661D01*
X89877259Y-65154394D01*
X89929920Y-65245606D01*
X90004394Y-65320080D01*
X90095606Y-65372741D01*
X90197339Y-65400000D01*
X90203553Y-65400000D01*
X89524076Y-66079474D01*
X89568650Y-66111859D01*
X89750968Y-66204755D01*
X89945582Y-66267990D01*
X90147683Y-66300000D01*
X90352317Y-66300000D01*
X90554417Y-66267990D01*
X90749031Y-66204755D01*
X90931349Y-66111859D01*
X90975921Y-66079474D01*
X90296447Y-65400000D01*
X90302661Y-65400000D01*
X90404394Y-65372741D01*
X90495606Y-65320080D01*
X90570080Y-65245606D01*
X90622741Y-65154394D01*
X90650000Y-65052661D01*
X90650000Y-65046447D01*
X91329474Y-65725921D01*
X91361859Y-65681349D01*
X91454755Y-65499031D01*
X91517990Y-65304417D01*
X91550000Y-65102317D01*
X91550000Y-64897682D01*
X91517990Y-64695582D01*
X91454755Y-64500968D01*
X91361859Y-64318650D01*
X91329474Y-64274077D01*
X91329474Y-64274076D01*
X90650000Y-64953551D01*
X90650000Y-64947339D01*
X90622741Y-64845606D01*
X90570080Y-64754394D01*
X90495606Y-64679920D01*
X90404394Y-64627259D01*
X90302661Y-64600000D01*
X90296446Y-64600000D01*
X90975922Y-63920524D01*
X90975921Y-63920523D01*
X90931359Y-63888147D01*
X90931350Y-63888141D01*
X90749031Y-63795244D01*
X90554417Y-63732009D01*
X90352317Y-63700000D01*
X90147683Y-63700000D01*
X89945582Y-63732009D01*
X89750968Y-63795244D01*
X89568644Y-63888143D01*
X89524077Y-63920523D01*
X89524077Y-63920524D01*
X90203554Y-64600000D01*
X90197339Y-64600000D01*
X90095606Y-64627259D01*
X90004394Y-64679920D01*
X89929920Y-64754394D01*
X89877259Y-64845606D01*
X89850000Y-64947339D01*
X89850000Y-64953553D01*
X89170524Y-64274077D01*
X89170523Y-64274077D01*
X89138143Y-64318644D01*
X89045244Y-64500968D01*
X88982009Y-64695582D01*
X88950000Y-64897682D01*
X77050000Y-64897682D01*
X77017990Y-64695582D01*
X76954755Y-64500968D01*
X76861859Y-64318650D01*
X76829474Y-64274077D01*
X76829474Y-64274076D01*
X76150000Y-64953551D01*
X76150000Y-64947339D01*
X76122741Y-64845606D01*
X76070080Y-64754394D01*
X75995606Y-64679920D01*
X75904394Y-64627259D01*
X75802661Y-64600000D01*
X75796446Y-64600000D01*
X76475922Y-63920524D01*
X76475921Y-63920523D01*
X76431359Y-63888147D01*
X76431350Y-63888141D01*
X76249031Y-63795244D01*
X76054417Y-63732009D01*
X75852317Y-63700000D01*
X75647683Y-63700000D01*
X75445582Y-63732009D01*
X75250968Y-63795244D01*
X75068644Y-63888143D01*
X75024077Y-63920523D01*
X75024077Y-63920524D01*
X75703554Y-64600000D01*
X75697339Y-64600000D01*
X75595606Y-64627259D01*
X75504394Y-64679920D01*
X75429920Y-64754394D01*
X75377259Y-64845606D01*
X75350000Y-64947339D01*
X75350000Y-64953553D01*
X74670524Y-64274077D01*
X74670523Y-64274077D01*
X74638143Y-64318644D01*
X74545244Y-64500968D01*
X74482009Y-64695582D01*
X74450000Y-64897682D01*
X71220500Y-64897682D01*
X71220500Y-64853945D01*
X71190447Y-64664199D01*
X71160764Y-64572845D01*
X71131083Y-64481493D01*
X71117094Y-64454038D01*
X71043865Y-64310319D01*
X70930945Y-64154898D01*
X70795102Y-64019055D01*
X70639681Y-63906135D01*
X70604366Y-63888141D01*
X70468506Y-63818916D01*
X70285802Y-63759553D01*
X70169616Y-63741151D01*
X70096055Y-63729500D01*
X69903945Y-63729500D01*
X69840696Y-63739517D01*
X69714197Y-63759553D01*
X69531493Y-63818916D01*
X69360318Y-63906135D01*
X69271645Y-63970560D01*
X69204898Y-64019055D01*
X69204896Y-64019057D01*
X69204895Y-64019057D01*
X69069057Y-64154895D01*
X69069057Y-64154896D01*
X69069055Y-64154898D01*
X69032498Y-64205214D01*
X68956135Y-64310318D01*
X68868916Y-64481493D01*
X68809553Y-64664197D01*
X68779500Y-64853945D01*
X67500500Y-64853945D01*
X67500500Y-58509568D01*
X74699500Y-58509568D01*
X74699500Y-58990431D01*
X74730942Y-59269494D01*
X74730945Y-59269512D01*
X74793439Y-59543317D01*
X74793443Y-59543329D01*
X74886200Y-59808411D01*
X75008053Y-60061442D01*
X75008055Y-60061445D01*
X75157477Y-60299248D01*
X75332584Y-60518825D01*
X75531175Y-60717416D01*
X75750752Y-60892523D01*
X75988555Y-61041945D01*
X76241592Y-61163801D01*
X76440680Y-61233465D01*
X76506670Y-61256556D01*
X76506682Y-61256560D01*
X76780491Y-61319055D01*
X76780497Y-61319055D01*
X76780505Y-61319057D01*
X76966547Y-61340018D01*
X77059569Y-61350499D01*
X77059572Y-61350500D01*
X77059575Y-61350500D01*
X77340428Y-61350500D01*
X77340429Y-61350499D01*
X77483055Y-61334429D01*
X77619494Y-61319057D01*
X77619499Y-61319056D01*
X77619509Y-61319055D01*
X77893318Y-61256560D01*
X78158408Y-61163801D01*
X78411445Y-61041945D01*
X78649248Y-60892523D01*
X78868825Y-60717416D01*
X79067416Y-60518825D01*
X79242523Y-60299248D01*
X79391945Y-60061445D01*
X79513801Y-59808408D01*
X79606560Y-59543318D01*
X79669055Y-59269509D01*
X79700500Y-58990425D01*
X79700500Y-58509575D01*
X79700499Y-58509568D01*
X86299500Y-58509568D01*
X86299500Y-58990431D01*
X86330942Y-59269494D01*
X86330945Y-59269512D01*
X86393439Y-59543317D01*
X86393443Y-59543329D01*
X86486200Y-59808411D01*
X86608053Y-60061442D01*
X86608055Y-60061445D01*
X86757477Y-60299248D01*
X86932584Y-60518825D01*
X87131175Y-60717416D01*
X87350752Y-60892523D01*
X87588555Y-61041945D01*
X87841592Y-61163801D01*
X88040680Y-61233465D01*
X88106670Y-61256556D01*
X88106682Y-61256560D01*
X88380491Y-61319055D01*
X88380497Y-61319055D01*
X88380505Y-61319057D01*
X88566547Y-61340018D01*
X88659569Y-61350499D01*
X88659572Y-61350500D01*
X88659575Y-61350500D01*
X88940428Y-61350500D01*
X88940429Y-61350499D01*
X89083055Y-61334429D01*
X89219494Y-61319057D01*
X89219499Y-61319056D01*
X89219509Y-61319055D01*
X89493318Y-61256560D01*
X89758408Y-61163801D01*
X90011445Y-61041945D01*
X90249248Y-60892523D01*
X90468825Y-60717416D01*
X90667416Y-60518825D01*
X90842523Y-60299248D01*
X90991945Y-60061445D01*
X91113801Y-59808408D01*
X91206560Y-59543318D01*
X91269055Y-59269509D01*
X91300500Y-58990425D01*
X91300500Y-58509575D01*
X91269055Y-58230491D01*
X91206560Y-57956682D01*
X91126288Y-57727280D01*
X91122727Y-57657502D01*
X91157455Y-57596875D01*
X91219449Y-57564647D01*
X91289024Y-57571052D01*
X91335773Y-57606797D01*
X91336540Y-57606031D01*
X91342287Y-57611778D01*
X91342598Y-57612016D01*
X91342814Y-57612304D01*
X91457906Y-57698463D01*
X91457913Y-57698467D01*
X91592620Y-57748709D01*
X91592627Y-57748711D01*
X91652155Y-57755112D01*
X91652172Y-57755113D01*
X92250000Y-57755113D01*
X92250000Y-56770799D01*
X92254394Y-56775193D01*
X92345606Y-56827854D01*
X92447339Y-56855113D01*
X92552661Y-56855113D01*
X92654394Y-56827854D01*
X92745606Y-56775193D01*
X92750000Y-56770799D01*
X92750000Y-57755113D01*
X93347828Y-57755113D01*
X93347844Y-57755112D01*
X93407372Y-57748711D01*
X93407379Y-57748709D01*
X93542086Y-57698467D01*
X93542093Y-57698463D01*
X93657187Y-57612303D01*
X93657190Y-57612300D01*
X93743350Y-57497206D01*
X93743354Y-57497199D01*
X93793596Y-57362492D01*
X93793598Y-57362485D01*
X93799999Y-57302957D01*
X93800000Y-57302940D01*
X93800000Y-56705113D01*
X92815686Y-56705113D01*
X92820080Y-56700719D01*
X92872741Y-56609507D01*
X92900000Y-56507774D01*
X92900000Y-56402452D01*
X92872741Y-56300719D01*
X92820080Y-56209507D01*
X92815686Y-56205113D01*
X93800000Y-56205113D01*
X93800000Y-55607285D01*
X93799999Y-55607268D01*
X93793598Y-55547740D01*
X93793596Y-55547733D01*
X93743354Y-55413026D01*
X93743350Y-55413019D01*
X93657190Y-55297925D01*
X93648789Y-55291636D01*
X93606919Y-55235702D01*
X93601935Y-55166010D01*
X93612617Y-55136075D01*
X93705220Y-54954332D01*
X93768477Y-54759647D01*
X93800500Y-54557465D01*
X93800500Y-54352761D01*
X93786608Y-54265051D01*
X93768477Y-54150578D01*
X93705218Y-53955889D01*
X93662737Y-53872516D01*
X93612287Y-53773503D01*
X93586254Y-53737671D01*
X93491971Y-53607899D01*
X93347213Y-53463141D01*
X93181613Y-53342828D01*
X93181612Y-53342827D01*
X93181610Y-53342826D01*
X93124653Y-53313804D01*
X92999223Y-53249894D01*
X92804534Y-53186635D01*
X92629995Y-53158991D01*
X92602352Y-53154613D01*
X92397648Y-53154613D01*
X92373329Y-53158464D01*
X92195465Y-53186635D01*
X92000776Y-53249894D01*
X91818386Y-53342828D01*
X91652786Y-53463141D01*
X91508028Y-53607899D01*
X91387715Y-53773499D01*
X91294781Y-53955889D01*
X91231522Y-54150578D01*
X91199500Y-54352761D01*
X91199500Y-54557464D01*
X91231522Y-54759647D01*
X91294781Y-54954336D01*
X91387383Y-55136075D01*
X91400279Y-55204744D01*
X91374003Y-55269485D01*
X91351210Y-55291636D01*
X91342814Y-55297920D01*
X91342808Y-55297927D01*
X91256649Y-55413019D01*
X91256645Y-55413026D01*
X91206403Y-55547733D01*
X91206401Y-55547740D01*
X91200000Y-55607268D01*
X91200000Y-56205113D01*
X92184314Y-56205113D01*
X92179920Y-56209507D01*
X92127259Y-56300719D01*
X92100000Y-56402452D01*
X92100000Y-56507774D01*
X92127259Y-56609507D01*
X92179920Y-56700719D01*
X92184314Y-56705113D01*
X91200000Y-56705113D01*
X91200000Y-57302940D01*
X91200001Y-57302959D01*
X91203137Y-57332128D01*
X91190732Y-57400887D01*
X91143122Y-57452025D01*
X91075422Y-57469304D01*
X91009128Y-57447239D01*
X90974854Y-57411355D01*
X90842523Y-57200752D01*
X90667416Y-56981175D01*
X90468825Y-56782584D01*
X90249248Y-56607477D01*
X90011445Y-56458055D01*
X90011442Y-56458053D01*
X89758411Y-56336200D01*
X89493329Y-56243443D01*
X89493317Y-56243439D01*
X89219512Y-56180945D01*
X89219494Y-56180942D01*
X88940431Y-56149500D01*
X88940425Y-56149500D01*
X88659575Y-56149500D01*
X88659568Y-56149500D01*
X88380505Y-56180942D01*
X88380487Y-56180945D01*
X88106682Y-56243439D01*
X88106670Y-56243443D01*
X87841588Y-56336200D01*
X87588557Y-56458053D01*
X87350753Y-56607476D01*
X87131175Y-56782583D01*
X86932583Y-56981175D01*
X86757476Y-57200753D01*
X86608053Y-57438557D01*
X86486200Y-57691588D01*
X86393443Y-57956670D01*
X86393439Y-57956682D01*
X86330945Y-58230487D01*
X86330942Y-58230505D01*
X86299500Y-58509568D01*
X79700499Y-58509568D01*
X79669055Y-58230491D01*
X79606560Y-57956682D01*
X79513801Y-57691592D01*
X79391945Y-57438555D01*
X79242523Y-57200752D01*
X79067416Y-56981175D01*
X78868825Y-56782584D01*
X78649248Y-56607477D01*
X78411445Y-56458055D01*
X78411442Y-56458053D01*
X78158411Y-56336200D01*
X77893329Y-56243443D01*
X77893317Y-56243439D01*
X77619512Y-56180945D01*
X77619494Y-56180942D01*
X77340431Y-56149500D01*
X77340425Y-56149500D01*
X77059575Y-56149500D01*
X77059568Y-56149500D01*
X76780505Y-56180942D01*
X76780487Y-56180945D01*
X76506682Y-56243439D01*
X76506670Y-56243443D01*
X76241588Y-56336200D01*
X75988557Y-56458053D01*
X75750753Y-56607476D01*
X75531175Y-56782583D01*
X75332583Y-56981175D01*
X75157476Y-57200753D01*
X75008053Y-57438557D01*
X74886200Y-57691588D01*
X74793443Y-57956670D01*
X74793439Y-57956682D01*
X74730945Y-58230487D01*
X74730942Y-58230505D01*
X74699500Y-58509568D01*
X67500500Y-58509568D01*
X67500500Y-53932135D01*
X68149500Y-53932135D01*
X68149500Y-56227870D01*
X68149501Y-56227876D01*
X68155908Y-56287483D01*
X68206202Y-56422328D01*
X68206206Y-56422335D01*
X68292452Y-56537544D01*
X68292455Y-56537547D01*
X68407664Y-56623793D01*
X68407671Y-56623797D01*
X68542517Y-56674091D01*
X68542516Y-56674091D01*
X68549444Y-56674835D01*
X68602127Y-56680500D01*
X70897872Y-56680499D01*
X70957483Y-56674091D01*
X71092331Y-56623796D01*
X71207546Y-56537546D01*
X71293796Y-56422331D01*
X71344091Y-56287483D01*
X71350500Y-56227873D01*
X71350499Y-55044887D01*
X71350499Y-53932129D01*
X71350498Y-53932123D01*
X71350497Y-53932116D01*
X71344091Y-53872517D01*
X71293796Y-53737669D01*
X71293795Y-53737668D01*
X71293793Y-53737664D01*
X71207547Y-53622455D01*
X71207544Y-53622452D01*
X71092335Y-53536206D01*
X71092328Y-53536202D01*
X70957482Y-53485908D01*
X70957483Y-53485908D01*
X70897883Y-53479501D01*
X70897881Y-53479500D01*
X70897873Y-53479500D01*
X70897864Y-53479500D01*
X68602129Y-53479500D01*
X68602123Y-53479501D01*
X68542516Y-53485908D01*
X68407671Y-53536202D01*
X68407664Y-53536206D01*
X68292455Y-53622452D01*
X68292452Y-53622455D01*
X68206206Y-53737664D01*
X68206202Y-53737671D01*
X68155908Y-53872517D01*
X68153731Y-53892771D01*
X68149501Y-53932123D01*
X68149500Y-53932135D01*
X67500500Y-53932135D01*
X67500500Y-52197023D01*
X73449500Y-52197023D01*
X73449500Y-53892758D01*
X73449501Y-53892764D01*
X73455908Y-53952371D01*
X73506202Y-54087216D01*
X73506206Y-54087223D01*
X73553635Y-54150579D01*
X73592454Y-54202434D01*
X73601385Y-54209119D01*
X73643254Y-54265051D01*
X73648239Y-54334742D01*
X73637558Y-54364679D01*
X73545245Y-54545853D01*
X73482009Y-54740470D01*
X73450000Y-54942570D01*
X73450000Y-55147205D01*
X73482009Y-55349305D01*
X73545244Y-55543919D01*
X73638141Y-55726238D01*
X73638147Y-55726247D01*
X73670523Y-55770809D01*
X73670524Y-55770810D01*
X74350000Y-55091334D01*
X74350000Y-55097549D01*
X74377259Y-55199282D01*
X74429920Y-55290494D01*
X74504394Y-55364968D01*
X74595606Y-55417629D01*
X74697339Y-55444888D01*
X74703553Y-55444888D01*
X74024076Y-56124362D01*
X74068650Y-56156747D01*
X74250968Y-56249643D01*
X74445582Y-56312878D01*
X74647683Y-56344888D01*
X74852317Y-56344888D01*
X75054417Y-56312878D01*
X75249031Y-56249643D01*
X75431349Y-56156747D01*
X75475921Y-56124362D01*
X74796447Y-55444888D01*
X74802661Y-55444888D01*
X74904394Y-55417629D01*
X74995606Y-55364968D01*
X75070080Y-55290494D01*
X75122741Y-55199282D01*
X75150000Y-55097549D01*
X75150000Y-55091335D01*
X75829474Y-55770809D01*
X75861859Y-55726237D01*
X75954755Y-55543919D01*
X76017990Y-55349305D01*
X76050000Y-55147205D01*
X76050000Y-54942570D01*
X76017990Y-54740470D01*
X75954755Y-54545856D01*
X75882569Y-54404184D01*
X75882569Y-54404183D01*
X75862441Y-54364679D01*
X75849545Y-54296010D01*
X75875822Y-54231270D01*
X75898611Y-54209122D01*
X75907546Y-54202434D01*
X75993796Y-54087219D01*
X76044091Y-53952371D01*
X76050500Y-53892761D01*
X76050499Y-52197016D01*
X76044091Y-52137405D01*
X75993796Y-52002557D01*
X75993795Y-52002556D01*
X75993793Y-52002552D01*
X75907547Y-51887343D01*
X75907544Y-51887340D01*
X75792335Y-51801094D01*
X75792328Y-51801090D01*
X75657482Y-51750796D01*
X75657483Y-51750796D01*
X75597883Y-51744389D01*
X75597881Y-51744388D01*
X75597873Y-51744388D01*
X75597864Y-51744388D01*
X73902129Y-51744388D01*
X73902123Y-51744389D01*
X73842516Y-51750796D01*
X73707671Y-51801090D01*
X73707664Y-51801094D01*
X73592455Y-51887340D01*
X73592452Y-51887343D01*
X73506206Y-52002552D01*
X73506202Y-52002559D01*
X73455908Y-52137405D01*
X73449501Y-52197004D01*
X73449501Y-52197011D01*
X73449500Y-52197023D01*
X67500500Y-52197023D01*
X67500500Y-44794038D01*
X68149500Y-44794038D01*
X68149500Y-45045962D01*
X68165304Y-45145742D01*
X68188910Y-45294785D01*
X68266760Y-45534383D01*
X68291386Y-45582713D01*
X68379146Y-45754952D01*
X68381132Y-45758848D01*
X68529201Y-45962649D01*
X68529205Y-45962654D01*
X68707345Y-46140794D01*
X68707350Y-46140798D01*
X68884504Y-46269507D01*
X68911155Y-46288870D01*
X69043323Y-46356213D01*
X69135616Y-46403239D01*
X69135618Y-46403239D01*
X69135621Y-46403241D01*
X69375215Y-46481090D01*
X69624038Y-46520500D01*
X69624039Y-46520500D01*
X69875961Y-46520500D01*
X69875962Y-46520500D01*
X70124785Y-46481090D01*
X70364379Y-46403241D01*
X70588845Y-46288870D01*
X70792656Y-46140793D01*
X70970793Y-45962656D01*
X70970793Y-45962655D01*
X70974238Y-45959211D01*
X70975312Y-45960285D01*
X71028180Y-45925775D01*
X71063962Y-45920500D01*
X80911718Y-45920500D01*
X80978757Y-45940185D01*
X80999399Y-45956819D01*
X81533576Y-46490996D01*
X81567061Y-46552319D01*
X81569350Y-46567844D01*
X81602753Y-46778739D01*
X81668444Y-46980914D01*
X81764951Y-47170320D01*
X81889890Y-47342286D01*
X82040213Y-47492609D01*
X82212182Y-47617550D01*
X82220946Y-47622016D01*
X82271742Y-47669991D01*
X82288536Y-47737812D01*
X82265998Y-47803947D01*
X82220946Y-47842984D01*
X82212182Y-47847449D01*
X82040213Y-47972390D01*
X81889890Y-48122713D01*
X81764951Y-48294679D01*
X81668444Y-48484085D01*
X81602753Y-48686260D01*
X81569500Y-48896213D01*
X81569500Y-49108786D01*
X81602753Y-49318739D01*
X81668444Y-49520914D01*
X81764951Y-49710320D01*
X81889890Y-49882286D01*
X82040213Y-50032609D01*
X82212179Y-50157548D01*
X82212181Y-50157549D01*
X82212184Y-50157551D01*
X82401588Y-50254057D01*
X82603757Y-50319746D01*
X82813713Y-50353000D01*
X82813714Y-50353000D01*
X83026286Y-50353000D01*
X83026287Y-50353000D01*
X83236243Y-50319746D01*
X83438412Y-50254057D01*
X83627816Y-50157551D01*
X83682572Y-50117769D01*
X83799786Y-50032609D01*
X83799788Y-50032606D01*
X83799792Y-50032604D01*
X83950104Y-49882292D01*
X83950106Y-49882288D01*
X83950109Y-49882286D01*
X84024801Y-49779479D01*
X84075051Y-49710316D01*
X84079793Y-49701008D01*
X84127763Y-49650211D01*
X84195583Y-49633411D01*
X84261719Y-49655945D01*
X84300763Y-49701000D01*
X84305373Y-49710047D01*
X84344728Y-49764216D01*
X84977037Y-49131908D01*
X84994075Y-49195493D01*
X85059901Y-49309507D01*
X85152993Y-49402599D01*
X85267007Y-49468425D01*
X85330590Y-49485462D01*
X84698282Y-50117769D01*
X84698282Y-50117770D01*
X84752449Y-50157124D01*
X84941782Y-50253595D01*
X85143870Y-50319257D01*
X85353754Y-50352500D01*
X85566246Y-50352500D01*
X85776127Y-50319257D01*
X85776130Y-50319257D01*
X85978217Y-50253595D01*
X86167554Y-50157122D01*
X86221716Y-50117770D01*
X86221717Y-50117770D01*
X85589408Y-49485462D01*
X85652993Y-49468425D01*
X85767007Y-49402599D01*
X85860099Y-49309507D01*
X85925925Y-49195493D01*
X85942962Y-49131908D01*
X86575270Y-49764217D01*
X86575270Y-49764216D01*
X86614622Y-49710054D01*
X86619514Y-49700454D01*
X86667488Y-49649657D01*
X86735308Y-49632861D01*
X86801444Y-49655397D01*
X86840486Y-49700454D01*
X86845375Y-49710050D01*
X86884728Y-49764216D01*
X87517037Y-49131908D01*
X87534075Y-49195493D01*
X87599901Y-49309507D01*
X87692993Y-49402599D01*
X87807007Y-49468425D01*
X87870590Y-49485462D01*
X87238282Y-50117769D01*
X87238282Y-50117770D01*
X87292449Y-50157124D01*
X87481782Y-50253595D01*
X87683870Y-50319257D01*
X87893754Y-50352500D01*
X88106246Y-50352500D01*
X88316127Y-50319257D01*
X88316130Y-50319257D01*
X88518217Y-50253595D01*
X88707554Y-50157122D01*
X88761716Y-50117770D01*
X88761717Y-50117770D01*
X88129408Y-49485462D01*
X88192993Y-49468425D01*
X88307007Y-49402599D01*
X88400099Y-49309507D01*
X88465925Y-49195493D01*
X88482962Y-49131908D01*
X89115270Y-49764217D01*
X89115270Y-49764216D01*
X89154622Y-49710054D01*
X89159514Y-49700454D01*
X89207488Y-49649657D01*
X89275308Y-49632861D01*
X89341444Y-49655397D01*
X89380486Y-49700454D01*
X89385375Y-49710050D01*
X89424728Y-49764216D01*
X90057037Y-49131908D01*
X90074075Y-49195493D01*
X90139901Y-49309507D01*
X90232993Y-49402599D01*
X90347007Y-49468425D01*
X90410590Y-49485462D01*
X89778282Y-50117769D01*
X89778282Y-50117770D01*
X89832449Y-50157124D01*
X90021782Y-50253595D01*
X90223870Y-50319257D01*
X90433754Y-50352500D01*
X90646246Y-50352500D01*
X90856127Y-50319257D01*
X90856130Y-50319257D01*
X91058217Y-50253595D01*
X91247554Y-50157122D01*
X91301716Y-50117770D01*
X91301717Y-50117770D01*
X90669408Y-49485462D01*
X90732993Y-49468425D01*
X90847007Y-49402599D01*
X90940099Y-49309507D01*
X91005925Y-49195493D01*
X91022962Y-49131908D01*
X91659441Y-49768388D01*
X91712234Y-49779479D01*
X91761991Y-49828530D01*
X91771291Y-49849727D01*
X91795184Y-49921828D01*
X91795186Y-49921834D01*
X91887288Y-50071156D01*
X92011344Y-50195212D01*
X92160666Y-50287314D01*
X92327203Y-50342499D01*
X92429991Y-50353000D01*
X93730008Y-50352999D01*
X93832797Y-50342499D01*
X93999334Y-50287314D01*
X94148656Y-50195212D01*
X94272712Y-50071156D01*
X94364814Y-49921834D01*
X94419999Y-49755297D01*
X94430500Y-49652509D01*
X94430499Y-48352492D01*
X94425601Y-48304548D01*
X94419999Y-48249703D01*
X94419998Y-48249700D01*
X94388707Y-48155271D01*
X94364814Y-48083166D01*
X94272712Y-47933844D01*
X94148656Y-47809788D01*
X94025634Y-47733908D01*
X93999336Y-47717687D01*
X93999325Y-47717682D01*
X93988773Y-47714186D01*
X93931328Y-47674413D01*
X93904506Y-47609897D01*
X93916822Y-47541121D01*
X93954903Y-47496156D01*
X93959788Y-47492607D01*
X93959788Y-47492606D01*
X93959792Y-47492604D01*
X94110104Y-47342292D01*
X94110106Y-47342288D01*
X94110109Y-47342286D01*
X94235048Y-47170320D01*
X94235047Y-47170320D01*
X94235051Y-47170316D01*
X94331557Y-46980912D01*
X94397246Y-46778743D01*
X94430500Y-46568787D01*
X94430500Y-46356213D01*
X94397246Y-46146257D01*
X94331557Y-45944088D01*
X94235051Y-45754684D01*
X94235049Y-45754681D01*
X94235048Y-45754679D01*
X94110109Y-45582713D01*
X93959786Y-45432390D01*
X93787820Y-45307451D01*
X93598414Y-45210944D01*
X93598413Y-45210943D01*
X93598412Y-45210943D01*
X93396243Y-45145254D01*
X93396241Y-45145253D01*
X93396240Y-45145253D01*
X93234957Y-45119708D01*
X93186287Y-45112000D01*
X92973713Y-45112000D01*
X92925042Y-45119708D01*
X92763760Y-45145253D01*
X92561585Y-45210944D01*
X92372179Y-45307451D01*
X92200213Y-45432390D01*
X92049890Y-45582713D01*
X91924949Y-45754682D01*
X91920202Y-45763999D01*
X91872227Y-45814793D01*
X91804405Y-45831587D01*
X91738271Y-45809048D01*
X91699234Y-45763995D01*
X91694626Y-45754952D01*
X91655270Y-45700782D01*
X91655269Y-45700782D01*
X91022962Y-46333090D01*
X91005925Y-46269507D01*
X90940099Y-46155493D01*
X90847007Y-46062401D01*
X90732993Y-45996575D01*
X90669409Y-45979537D01*
X91301716Y-45347228D01*
X91247550Y-45307875D01*
X91058217Y-45211404D01*
X90856129Y-45145742D01*
X90646246Y-45112500D01*
X90433754Y-45112500D01*
X90223872Y-45145742D01*
X90223869Y-45145742D01*
X90021782Y-45211404D01*
X89832439Y-45307880D01*
X89778282Y-45347227D01*
X89778282Y-45347228D01*
X90410591Y-45979537D01*
X90347007Y-45996575D01*
X90232993Y-46062401D01*
X90139901Y-46155493D01*
X90074075Y-46269507D01*
X90057037Y-46333091D01*
X89424728Y-45700782D01*
X89424727Y-45700782D01*
X89385380Y-45754940D01*
X89380483Y-45764551D01*
X89332506Y-45815345D01*
X89264684Y-45832138D01*
X89198550Y-45809598D01*
X89159516Y-45764548D01*
X89154626Y-45754952D01*
X89115270Y-45700782D01*
X89115269Y-45700782D01*
X88482962Y-46333090D01*
X88465925Y-46269507D01*
X88400099Y-46155493D01*
X88307007Y-46062401D01*
X88192993Y-45996575D01*
X88129409Y-45979537D01*
X88761716Y-45347228D01*
X88707550Y-45307875D01*
X88518217Y-45211404D01*
X88316129Y-45145742D01*
X88106246Y-45112500D01*
X87893754Y-45112500D01*
X87683872Y-45145742D01*
X87683869Y-45145742D01*
X87481782Y-45211404D01*
X87292439Y-45307880D01*
X87238282Y-45347227D01*
X87238282Y-45347228D01*
X87870591Y-45979537D01*
X87807007Y-45996575D01*
X87692993Y-46062401D01*
X87599901Y-46155493D01*
X87534075Y-46269507D01*
X87517037Y-46333091D01*
X86884728Y-45700782D01*
X86884727Y-45700782D01*
X86845380Y-45754940D01*
X86840483Y-45764551D01*
X86792506Y-45815345D01*
X86724684Y-45832138D01*
X86658550Y-45809598D01*
X86619516Y-45764548D01*
X86614626Y-45754952D01*
X86575270Y-45700782D01*
X86575269Y-45700782D01*
X85942962Y-46333090D01*
X85925925Y-46269507D01*
X85860099Y-46155493D01*
X85767007Y-46062401D01*
X85652993Y-45996575D01*
X85589409Y-45979537D01*
X86221716Y-45347228D01*
X86167550Y-45307875D01*
X85978217Y-45211404D01*
X85776129Y-45145742D01*
X85566246Y-45112500D01*
X85353754Y-45112500D01*
X85143872Y-45145742D01*
X85143869Y-45145742D01*
X84941782Y-45211404D01*
X84752439Y-45307880D01*
X84698282Y-45347227D01*
X84698282Y-45347228D01*
X85330591Y-45979537D01*
X85267007Y-45996575D01*
X85152993Y-46062401D01*
X85059901Y-46155493D01*
X84994075Y-46269507D01*
X84977037Y-46333091D01*
X84344728Y-45700782D01*
X84344727Y-45700782D01*
X84305380Y-45754940D01*
X84305376Y-45754946D01*
X84300760Y-45764005D01*
X84252781Y-45814797D01*
X84184959Y-45831587D01*
X84118826Y-45809043D01*
X84079794Y-45763993D01*
X84075051Y-45754684D01*
X84075049Y-45754681D01*
X84075048Y-45754679D01*
X83950109Y-45582713D01*
X83799786Y-45432390D01*
X83627820Y-45307451D01*
X83438414Y-45210944D01*
X83438413Y-45210943D01*
X83438412Y-45210943D01*
X83236243Y-45145254D01*
X83236241Y-45145253D01*
X83236240Y-45145253D01*
X83069544Y-45118851D01*
X83026287Y-45112000D01*
X83026286Y-45112000D01*
X83021475Y-45111238D01*
X83021641Y-45110184D01*
X82961150Y-45087121D01*
X82948497Y-45076076D01*
X82161709Y-44289289D01*
X82161706Y-44289285D01*
X82161706Y-44289286D01*
X82154639Y-44282219D01*
X82154639Y-44282218D01*
X82015282Y-44142861D01*
X82015281Y-44142860D01*
X82015280Y-44142859D01*
X81851420Y-44033371D01*
X81851411Y-44033366D01*
X81778815Y-44003296D01*
X81722665Y-43980038D01*
X81669336Y-43957949D01*
X81669332Y-43957948D01*
X81669328Y-43957946D01*
X81572688Y-43938724D01*
X81476044Y-43919500D01*
X81476041Y-43919500D01*
X71063962Y-43919500D01*
X70996923Y-43899815D01*
X70974650Y-43880376D01*
X70974238Y-43880789D01*
X70792654Y-43699205D01*
X70792649Y-43699201D01*
X70588848Y-43551132D01*
X70588847Y-43551131D01*
X70588845Y-43551130D01*
X70518747Y-43515413D01*
X70364383Y-43436760D01*
X70124785Y-43358910D01*
X69875962Y-43319500D01*
X69624038Y-43319500D01*
X69499626Y-43339205D01*
X69375214Y-43358910D01*
X69135616Y-43436760D01*
X68911151Y-43551132D01*
X68707350Y-43699201D01*
X68707345Y-43699205D01*
X68529205Y-43877345D01*
X68529201Y-43877350D01*
X68381132Y-44081151D01*
X68266760Y-44305616D01*
X68188910Y-44545214D01*
X68188910Y-44545215D01*
X68149500Y-44794038D01*
X67500500Y-44794038D01*
X67500500Y-43124500D01*
X67520185Y-43057461D01*
X67572989Y-43011706D01*
X67624500Y-43000500D01*
X98375500Y-43000500D01*
X98442539Y-43020185D01*
G37*
%TD.AperFunction*%
%TA.AperFunction,Conductor*%
G36*
X76669075Y-164782007D02*
G01*
X76635000Y-164909174D01*
X76635000Y-165040826D01*
X76669075Y-165167993D01*
X76701988Y-165225000D01*
X75028012Y-165225000D01*
X75060925Y-165167993D01*
X75095000Y-165040826D01*
X75095000Y-164909174D01*
X75060925Y-164782007D01*
X75028012Y-164725000D01*
X76701988Y-164725000D01*
X76669075Y-164782007D01*
G37*
%TD.AperFunction*%
%TA.AperFunction,Conductor*%
G36*
X69250000Y-109346988D02*
G01*
X69192993Y-109314075D01*
X69065826Y-109280000D01*
X68934174Y-109280000D01*
X68807007Y-109314075D01*
X68750000Y-109346988D01*
X68750000Y-107673012D01*
X68807007Y-107705925D01*
X68934174Y-107740000D01*
X69065826Y-107740000D01*
X69192993Y-107705925D01*
X69250000Y-107673012D01*
X69250000Y-109346988D01*
G37*
%TD.AperFunction*%
%TD*%
M02*
