M48
; DRILL file {KiCad 8.0.5} date 2024-12-03T23:35:56+0100
; FORMAT={-:-/ absolute / metric / decimal}
; #@! TF.CreationDate,2024-12-03T23:35:56+01:00
; #@! TF.GenerationSoftware,Kicad,Pcbnew,8.0.5
; #@! TF.FileFunction,Plated,1,2,PTH
FMAT,2
METRIC
; #@! TA.AperFunction,Plated,PTH,ComponentDrill
T1C0.800
; #@! TA.AperFunction,Plated,PTH,ComponentDrill
T2C1.000
; #@! TA.AperFunction,Plated,PTH,ComponentDrill
T3C1.100
; #@! TA.AperFunction,Plated,PTH,ComponentDrill
T4C2.000
%
G90
G05
T1
X69.75Y-59.75
X69.75Y-64.75
X74.75Y-53.045
X74.75Y-55.045
X76.18Y-75.95
X76.18Y-78.49
X76.18Y-81.03
X76.18Y-83.57
X77.5Y-73.0
X77.5Y-86.5
X82.5Y-73.0
X82.5Y-86.5
X83.8Y-75.95
X83.8Y-78.49
X83.8Y-81.03
X83.8Y-83.57
X90.5Y-69.44
X90.5Y-77.06
X90.5Y-85.44
X90.5Y-93.06
X92.25Y-62.0
X92.25Y-67.0
X92.5Y-54.455
X92.5Y-56.455
X93.75Y-69.44
X93.75Y-77.06
X93.75Y-85.44
X93.75Y-93.06
X97.0Y-69.44
X97.0Y-77.06
X97.0Y-85.44
X97.0Y-93.06
T2
X68.975Y-71.175
X68.975Y-73.715
X68.975Y-76.255
X68.975Y-78.795
X68.975Y-81.335
X68.975Y-83.875
X76.625Y-115.475
X79.165Y-115.475
X79.25Y-69.75
X79.25Y-108.0
X81.705Y-115.475
X81.75Y-69.75
X81.75Y-108.0
X82.92Y-46.462
X82.92Y-49.002
X84.245Y-115.475
X84.25Y-69.75
X84.25Y-108.0
X85.46Y-46.462
X85.46Y-49.002
X86.75Y-69.75
X86.75Y-108.0
X86.785Y-115.475
X88.0Y-46.462
X88.0Y-49.002
X89.325Y-115.475
X90.54Y-46.462
X90.54Y-49.002
X92.748Y-101.71
X92.748Y-104.25
X92.748Y-106.79
X93.08Y-46.462
X93.08Y-49.002
X95.287Y-101.71
X95.287Y-104.25
X95.287Y-106.79
X95.75Y-81.25
T3
X69.75Y-44.92
X69.75Y-55.08
X97.0Y-54.42
X97.0Y-64.58
T4
X77.2Y-58.65G85X77.2Y-58.85
G05
X77.2Y-96.9G85X77.2Y-97.1
G05
X88.8Y-58.65G85X88.8Y-58.85
G05
X88.8Y-96.9G85X88.8Y-97.1
G05
M30
