%TF.GenerationSoftware,KiCad,Pcbnew,9.0.0*%
%TF.CreationDate,2025-03-15T22:52:04+01:00*%
%TF.ProjectId,DMH_Multiverter_Mk2_PCB,444d485f-4d75-46c7-9469-766572746572,1*%
%TF.SameCoordinates,Original*%
%TF.FileFunction,Legend,Bot*%
%TF.FilePolarity,Positive*%
%FSLAX46Y46*%
G04 Gerber Fmt 4.6, Leading zero omitted, Abs format (unit mm)*
G04 Created by KiCad (PCBNEW 9.0.0) date 2025-03-15 22:52:04*
%MOMM*%
%LPD*%
G01*
G04 APERTURE LIST*
G04 Aperture macros list*
%AMRoundRect*
0 Rectangle with rounded corners*
0 $1 Rounding radius*
0 $2 $3 $4 $5 $6 $7 $8 $9 X,Y pos of 4 corners*
0 Add a 4 corners polygon primitive as box body*
4,1,4,$2,$3,$4,$5,$6,$7,$8,$9,$2,$3,0*
0 Add four circle primitives for the rounded corners*
1,1,$1+$1,$2,$3*
1,1,$1+$1,$4,$5*
1,1,$1+$1,$6,$7*
1,1,$1+$1,$8,$9*
0 Add four rect primitives between the rounded corners*
20,1,$1+$1,$2,$3,$4,$5,0*
20,1,$1+$1,$4,$5,$6,$7,0*
20,1,$1+$1,$6,$7,$8,$9,0*
20,1,$1+$1,$8,$9,$2,$3,0*%
G04 Aperture macros list end*
%ADD10C,0.100000*%
%ADD11C,0.300000*%
%ADD12C,0.150000*%
%ADD13C,0.120000*%
%ADD14O,4.000000X4.200000*%
%ADD15C,1.800000*%
%ADD16R,1.800000X1.800000*%
%ADD17R,1.700000X1.700000*%
%ADD18C,1.600000*%
%ADD19O,1.600000X1.600000*%
%ADD20C,1.440000*%
%ADD21O,1.700000X1.700000*%
%ADD22R,1.600000X1.600000*%
%ADD23R,2.200000X2.200000*%
%ADD24O,2.200000X2.200000*%
%ADD25RoundRect,0.250000X-0.550000X0.550000X-0.550000X-0.550000X0.550000X-0.550000X0.550000X0.550000X0*%
%ADD26RoundRect,0.250000X0.600000X-0.600000X0.600000X0.600000X-0.600000X0.600000X-0.600000X-0.600000X0*%
%ADD27C,1.700000*%
%ADD28RoundRect,0.250000X-0.600000X-0.600000X0.600000X-0.600000X0.600000X0.600000X-0.600000X0.600000X0*%
G04 APERTURE END LIST*
D10*
X93750000Y-145250000D02*
X95750000Y-145250000D01*
X95750000Y-155250000D01*
X93750000Y-155250000D01*
X93750000Y-145250000D01*
G36*
X93750000Y-145250000D02*
G01*
X95750000Y-145250000D01*
X95750000Y-155250000D01*
X93750000Y-155250000D01*
X93750000Y-145250000D01*
G37*
D11*
X98178328Y-138535715D02*
X96678328Y-138535715D01*
X96678328Y-138535715D02*
X97749757Y-139035715D01*
X97749757Y-139035715D02*
X96678328Y-139535715D01*
X96678328Y-139535715D02*
X98178328Y-139535715D01*
X98178328Y-140250001D02*
X96678328Y-140250001D01*
X97606900Y-140392859D02*
X98178328Y-140821430D01*
X97178328Y-140821430D02*
X97749757Y-140250001D01*
X96821185Y-141392859D02*
X96749757Y-141464287D01*
X96749757Y-141464287D02*
X96678328Y-141607145D01*
X96678328Y-141607145D02*
X96678328Y-141964287D01*
X96678328Y-141964287D02*
X96749757Y-142107145D01*
X96749757Y-142107145D02*
X96821185Y-142178573D01*
X96821185Y-142178573D02*
X96964042Y-142250002D01*
X96964042Y-142250002D02*
X97106900Y-142250002D01*
X97106900Y-142250002D02*
X97321185Y-142178573D01*
X97321185Y-142178573D02*
X98178328Y-141321430D01*
X98178328Y-141321430D02*
X98178328Y-142250002D01*
X98035471Y-142892858D02*
X98106900Y-142964287D01*
X98106900Y-142964287D02*
X98178328Y-142892858D01*
X98178328Y-142892858D02*
X98106900Y-142821430D01*
X98106900Y-142821430D02*
X98035471Y-142892858D01*
X98035471Y-142892858D02*
X98178328Y-142892858D01*
X96678328Y-143892859D02*
X96678328Y-144035716D01*
X96678328Y-144035716D02*
X96749757Y-144178573D01*
X96749757Y-144178573D02*
X96821185Y-144250002D01*
X96821185Y-144250002D02*
X96964042Y-144321430D01*
X96964042Y-144321430D02*
X97249757Y-144392859D01*
X97249757Y-144392859D02*
X97606900Y-144392859D01*
X97606900Y-144392859D02*
X97892614Y-144321430D01*
X97892614Y-144321430D02*
X98035471Y-144250002D01*
X98035471Y-144250002D02*
X98106900Y-144178573D01*
X98106900Y-144178573D02*
X98178328Y-144035716D01*
X98178328Y-144035716D02*
X98178328Y-143892859D01*
X98178328Y-143892859D02*
X98106900Y-143750002D01*
X98106900Y-143750002D02*
X98035471Y-143678573D01*
X98035471Y-143678573D02*
X97892614Y-143607144D01*
X97892614Y-143607144D02*
X97606900Y-143535716D01*
X97606900Y-143535716D02*
X97249757Y-143535716D01*
X97249757Y-143535716D02*
X96964042Y-143607144D01*
X96964042Y-143607144D02*
X96821185Y-143678573D01*
X96821185Y-143678573D02*
X96749757Y-143750002D01*
X96749757Y-143750002D02*
X96678328Y-143892859D01*
X97606900Y-146178572D02*
X97606900Y-147321430D01*
X98178328Y-149178572D02*
X96678328Y-149178572D01*
X96678328Y-149178572D02*
X97749757Y-149678572D01*
X97749757Y-149678572D02*
X96678328Y-150178572D01*
X96678328Y-150178572D02*
X98178328Y-150178572D01*
X98178328Y-151535716D02*
X97392614Y-151535716D01*
X97392614Y-151535716D02*
X97249757Y-151464287D01*
X97249757Y-151464287D02*
X97178328Y-151321430D01*
X97178328Y-151321430D02*
X97178328Y-151035716D01*
X97178328Y-151035716D02*
X97249757Y-150892858D01*
X98106900Y-151535716D02*
X98178328Y-151392858D01*
X98178328Y-151392858D02*
X98178328Y-151035716D01*
X98178328Y-151035716D02*
X98106900Y-150892858D01*
X98106900Y-150892858D02*
X97964042Y-150821430D01*
X97964042Y-150821430D02*
X97821185Y-150821430D01*
X97821185Y-150821430D02*
X97678328Y-150892858D01*
X97678328Y-150892858D02*
X97606900Y-151035716D01*
X97606900Y-151035716D02*
X97606900Y-151392858D01*
X97606900Y-151392858D02*
X97535471Y-151535716D01*
X98178328Y-152250001D02*
X97178328Y-152250001D01*
X97464042Y-152250001D02*
X97321185Y-152321430D01*
X97321185Y-152321430D02*
X97249757Y-152392859D01*
X97249757Y-152392859D02*
X97178328Y-152535716D01*
X97178328Y-152535716D02*
X97178328Y-152678573D01*
X98106900Y-153821430D02*
X98178328Y-153678572D01*
X98178328Y-153678572D02*
X98178328Y-153392858D01*
X98178328Y-153392858D02*
X98106900Y-153250001D01*
X98106900Y-153250001D02*
X98035471Y-153178572D01*
X98035471Y-153178572D02*
X97892614Y-153107144D01*
X97892614Y-153107144D02*
X97464042Y-153107144D01*
X97464042Y-153107144D02*
X97321185Y-153178572D01*
X97321185Y-153178572D02*
X97249757Y-153250001D01*
X97249757Y-153250001D02*
X97178328Y-153392858D01*
X97178328Y-153392858D02*
X97178328Y-153678572D01*
X97178328Y-153678572D02*
X97249757Y-153821430D01*
X98178328Y-154464286D02*
X96678328Y-154464286D01*
X98178328Y-155107144D02*
X97392614Y-155107144D01*
X97392614Y-155107144D02*
X97249757Y-155035715D01*
X97249757Y-155035715D02*
X97178328Y-154892858D01*
X97178328Y-154892858D02*
X97178328Y-154678572D01*
X97178328Y-154678572D02*
X97249757Y-154535715D01*
X97249757Y-154535715D02*
X97321185Y-154464286D01*
X96821185Y-156892858D02*
X96749757Y-156964286D01*
X96749757Y-156964286D02*
X96678328Y-157107144D01*
X96678328Y-157107144D02*
X96678328Y-157464286D01*
X96678328Y-157464286D02*
X96749757Y-157607144D01*
X96749757Y-157607144D02*
X96821185Y-157678572D01*
X96821185Y-157678572D02*
X96964042Y-157750001D01*
X96964042Y-157750001D02*
X97106900Y-157750001D01*
X97106900Y-157750001D02*
X97321185Y-157678572D01*
X97321185Y-157678572D02*
X98178328Y-156821429D01*
X98178328Y-156821429D02*
X98178328Y-157750001D01*
X96678328Y-158678572D02*
X96678328Y-158821429D01*
X96678328Y-158821429D02*
X96749757Y-158964286D01*
X96749757Y-158964286D02*
X96821185Y-159035715D01*
X96821185Y-159035715D02*
X96964042Y-159107143D01*
X96964042Y-159107143D02*
X97249757Y-159178572D01*
X97249757Y-159178572D02*
X97606900Y-159178572D01*
X97606900Y-159178572D02*
X97892614Y-159107143D01*
X97892614Y-159107143D02*
X98035471Y-159035715D01*
X98035471Y-159035715D02*
X98106900Y-158964286D01*
X98106900Y-158964286D02*
X98178328Y-158821429D01*
X98178328Y-158821429D02*
X98178328Y-158678572D01*
X98178328Y-158678572D02*
X98106900Y-158535715D01*
X98106900Y-158535715D02*
X98035471Y-158464286D01*
X98035471Y-158464286D02*
X97892614Y-158392857D01*
X97892614Y-158392857D02*
X97606900Y-158321429D01*
X97606900Y-158321429D02*
X97249757Y-158321429D01*
X97249757Y-158321429D02*
X96964042Y-158392857D01*
X96964042Y-158392857D02*
X96821185Y-158464286D01*
X96821185Y-158464286D02*
X96749757Y-158535715D01*
X96749757Y-158535715D02*
X96678328Y-158678572D01*
X96821185Y-159750000D02*
X96749757Y-159821428D01*
X96749757Y-159821428D02*
X96678328Y-159964286D01*
X96678328Y-159964286D02*
X96678328Y-160321428D01*
X96678328Y-160321428D02*
X96749757Y-160464286D01*
X96749757Y-160464286D02*
X96821185Y-160535714D01*
X96821185Y-160535714D02*
X96964042Y-160607143D01*
X96964042Y-160607143D02*
X97106900Y-160607143D01*
X97106900Y-160607143D02*
X97321185Y-160535714D01*
X97321185Y-160535714D02*
X98178328Y-159678571D01*
X98178328Y-159678571D02*
X98178328Y-160607143D01*
X96678328Y-161964285D02*
X96678328Y-161249999D01*
X96678328Y-161249999D02*
X97392614Y-161178571D01*
X97392614Y-161178571D02*
X97321185Y-161249999D01*
X97321185Y-161249999D02*
X97249757Y-161392857D01*
X97249757Y-161392857D02*
X97249757Y-161749999D01*
X97249757Y-161749999D02*
X97321185Y-161892857D01*
X97321185Y-161892857D02*
X97392614Y-161964285D01*
X97392614Y-161964285D02*
X97535471Y-162035714D01*
X97535471Y-162035714D02*
X97892614Y-162035714D01*
X97892614Y-162035714D02*
X98035471Y-161964285D01*
X98035471Y-161964285D02*
X98106900Y-161892857D01*
X98106900Y-161892857D02*
X98178328Y-161749999D01*
X98178328Y-161749999D02*
X98178328Y-161392857D01*
X98178328Y-161392857D02*
X98106900Y-161249999D01*
X98106900Y-161249999D02*
X98035471Y-161178571D01*
D12*
X78416666Y-117084819D02*
X78749999Y-116608628D01*
X78988094Y-117084819D02*
X78988094Y-116084819D01*
X78988094Y-116084819D02*
X78607142Y-116084819D01*
X78607142Y-116084819D02*
X78511904Y-116132438D01*
X78511904Y-116132438D02*
X78464285Y-116180057D01*
X78464285Y-116180057D02*
X78416666Y-116275295D01*
X78416666Y-116275295D02*
X78416666Y-116418152D01*
X78416666Y-116418152D02*
X78464285Y-116513390D01*
X78464285Y-116513390D02*
X78511904Y-116561009D01*
X78511904Y-116561009D02*
X78607142Y-116608628D01*
X78607142Y-116608628D02*
X78988094Y-116608628D01*
X77559523Y-116418152D02*
X77559523Y-117084819D01*
X77797618Y-116037200D02*
X78035713Y-116751485D01*
X78035713Y-116751485D02*
X77416666Y-116751485D01*
X78369047Y-119454819D02*
X78940475Y-119454819D01*
X78654761Y-119454819D02*
X78654761Y-118454819D01*
X78654761Y-118454819D02*
X78749999Y-118597676D01*
X78749999Y-118597676D02*
X78845237Y-118692914D01*
X78845237Y-118692914D02*
X78940475Y-118740533D01*
X77940475Y-119454819D02*
X77940475Y-118454819D01*
X77845237Y-119073866D02*
X77559523Y-119454819D01*
X77559523Y-118788152D02*
X77940475Y-119169104D01*
X70595238Y-62194819D02*
X70928571Y-61718628D01*
X71166666Y-62194819D02*
X71166666Y-61194819D01*
X71166666Y-61194819D02*
X70785714Y-61194819D01*
X70785714Y-61194819D02*
X70690476Y-61242438D01*
X70690476Y-61242438D02*
X70642857Y-61290057D01*
X70642857Y-61290057D02*
X70595238Y-61385295D01*
X70595238Y-61385295D02*
X70595238Y-61528152D01*
X70595238Y-61528152D02*
X70642857Y-61623390D01*
X70642857Y-61623390D02*
X70690476Y-61671009D01*
X70690476Y-61671009D02*
X70785714Y-61718628D01*
X70785714Y-61718628D02*
X71166666Y-61718628D01*
X70309523Y-61194819D02*
X69976190Y-62194819D01*
X69976190Y-62194819D02*
X69642857Y-61194819D01*
X68880952Y-61528152D02*
X68880952Y-62194819D01*
X69119047Y-61147200D02*
X69357142Y-61861485D01*
X69357142Y-61861485D02*
X68738095Y-61861485D01*
X67954819Y-66857142D02*
X67954819Y-66380952D01*
X67954819Y-66380952D02*
X68431009Y-66333333D01*
X68431009Y-66333333D02*
X68383390Y-66380952D01*
X68383390Y-66380952D02*
X68335771Y-66476190D01*
X68335771Y-66476190D02*
X68335771Y-66714285D01*
X68335771Y-66714285D02*
X68383390Y-66809523D01*
X68383390Y-66809523D02*
X68431009Y-66857142D01*
X68431009Y-66857142D02*
X68526247Y-66904761D01*
X68526247Y-66904761D02*
X68764342Y-66904761D01*
X68764342Y-66904761D02*
X68859580Y-66857142D01*
X68859580Y-66857142D02*
X68907200Y-66809523D01*
X68907200Y-66809523D02*
X68954819Y-66714285D01*
X68954819Y-66714285D02*
X68954819Y-66476190D01*
X68954819Y-66476190D02*
X68907200Y-66380952D01*
X68907200Y-66380952D02*
X68859580Y-66333333D01*
X67954819Y-67523809D02*
X67954819Y-67619047D01*
X67954819Y-67619047D02*
X68002438Y-67714285D01*
X68002438Y-67714285D02*
X68050057Y-67761904D01*
X68050057Y-67761904D02*
X68145295Y-67809523D01*
X68145295Y-67809523D02*
X68335771Y-67857142D01*
X68335771Y-67857142D02*
X68573866Y-67857142D01*
X68573866Y-67857142D02*
X68764342Y-67809523D01*
X68764342Y-67809523D02*
X68859580Y-67761904D01*
X68859580Y-67761904D02*
X68907200Y-67714285D01*
X68907200Y-67714285D02*
X68954819Y-67619047D01*
X68954819Y-67619047D02*
X68954819Y-67523809D01*
X68954819Y-67523809D02*
X68907200Y-67428571D01*
X68907200Y-67428571D02*
X68859580Y-67380952D01*
X68859580Y-67380952D02*
X68764342Y-67333333D01*
X68764342Y-67333333D02*
X68573866Y-67285714D01*
X68573866Y-67285714D02*
X68335771Y-67285714D01*
X68335771Y-67285714D02*
X68145295Y-67333333D01*
X68145295Y-67333333D02*
X68050057Y-67380952D01*
X68050057Y-67380952D02*
X68002438Y-67428571D01*
X68002438Y-67428571D02*
X67954819Y-67523809D01*
X68954819Y-68285714D02*
X67954819Y-68285714D01*
X68573866Y-68380952D02*
X68954819Y-68666666D01*
X68288152Y-68666666D02*
X68669104Y-68285714D01*
X82454819Y-88583333D02*
X81978628Y-88250000D01*
X82454819Y-88011905D02*
X81454819Y-88011905D01*
X81454819Y-88011905D02*
X81454819Y-88392857D01*
X81454819Y-88392857D02*
X81502438Y-88488095D01*
X81502438Y-88488095D02*
X81550057Y-88535714D01*
X81550057Y-88535714D02*
X81645295Y-88583333D01*
X81645295Y-88583333D02*
X81788152Y-88583333D01*
X81788152Y-88583333D02*
X81883390Y-88535714D01*
X81883390Y-88535714D02*
X81931009Y-88488095D01*
X81931009Y-88488095D02*
X81978628Y-88392857D01*
X81978628Y-88392857D02*
X81978628Y-88011905D01*
X81454819Y-89440476D02*
X81454819Y-89250000D01*
X81454819Y-89250000D02*
X81502438Y-89154762D01*
X81502438Y-89154762D02*
X81550057Y-89107143D01*
X81550057Y-89107143D02*
X81692914Y-89011905D01*
X81692914Y-89011905D02*
X81883390Y-88964286D01*
X81883390Y-88964286D02*
X82264342Y-88964286D01*
X82264342Y-88964286D02*
X82359580Y-89011905D01*
X82359580Y-89011905D02*
X82407200Y-89059524D01*
X82407200Y-89059524D02*
X82454819Y-89154762D01*
X82454819Y-89154762D02*
X82454819Y-89345238D01*
X82454819Y-89345238D02*
X82407200Y-89440476D01*
X82407200Y-89440476D02*
X82359580Y-89488095D01*
X82359580Y-89488095D02*
X82264342Y-89535714D01*
X82264342Y-89535714D02*
X82026247Y-89535714D01*
X82026247Y-89535714D02*
X81931009Y-89488095D01*
X81931009Y-89488095D02*
X81883390Y-89440476D01*
X81883390Y-89440476D02*
X81835771Y-89345238D01*
X81835771Y-89345238D02*
X81835771Y-89154762D01*
X81835771Y-89154762D02*
X81883390Y-89059524D01*
X81883390Y-89059524D02*
X81931009Y-89011905D01*
X81931009Y-89011905D02*
X82026247Y-88964286D01*
X87619047Y-89204819D02*
X88190475Y-89204819D01*
X87904761Y-89204819D02*
X87904761Y-88204819D01*
X87904761Y-88204819D02*
X87999999Y-88347676D01*
X87999999Y-88347676D02*
X88095237Y-88442914D01*
X88095237Y-88442914D02*
X88190475Y-88490533D01*
X87190475Y-89204819D02*
X87190475Y-88204819D01*
X87095237Y-88823866D02*
X86809523Y-89204819D01*
X86809523Y-88538152D02*
X87190475Y-88919104D01*
X96845238Y-91954819D02*
X97178571Y-91478628D01*
X97416666Y-91954819D02*
X97416666Y-90954819D01*
X97416666Y-90954819D02*
X97035714Y-90954819D01*
X97035714Y-90954819D02*
X96940476Y-91002438D01*
X96940476Y-91002438D02*
X96892857Y-91050057D01*
X96892857Y-91050057D02*
X96845238Y-91145295D01*
X96845238Y-91145295D02*
X96845238Y-91288152D01*
X96845238Y-91288152D02*
X96892857Y-91383390D01*
X96892857Y-91383390D02*
X96940476Y-91431009D01*
X96940476Y-91431009D02*
X97035714Y-91478628D01*
X97035714Y-91478628D02*
X97416666Y-91478628D01*
X96559523Y-90954819D02*
X96226190Y-91954819D01*
X96226190Y-91954819D02*
X95892857Y-90954819D01*
X95130952Y-90954819D02*
X95321428Y-90954819D01*
X95321428Y-90954819D02*
X95416666Y-91002438D01*
X95416666Y-91002438D02*
X95464285Y-91050057D01*
X95464285Y-91050057D02*
X95559523Y-91192914D01*
X95559523Y-91192914D02*
X95607142Y-91383390D01*
X95607142Y-91383390D02*
X95607142Y-91764342D01*
X95607142Y-91764342D02*
X95559523Y-91859580D01*
X95559523Y-91859580D02*
X95511904Y-91907200D01*
X95511904Y-91907200D02*
X95416666Y-91954819D01*
X95416666Y-91954819D02*
X95226190Y-91954819D01*
X95226190Y-91954819D02*
X95130952Y-91907200D01*
X95130952Y-91907200D02*
X95083333Y-91859580D01*
X95083333Y-91859580D02*
X95035714Y-91764342D01*
X95035714Y-91764342D02*
X95035714Y-91526247D01*
X95035714Y-91526247D02*
X95083333Y-91431009D01*
X95083333Y-91431009D02*
X95130952Y-91383390D01*
X95130952Y-91383390D02*
X95226190Y-91335771D01*
X95226190Y-91335771D02*
X95416666Y-91335771D01*
X95416666Y-91335771D02*
X95511904Y-91383390D01*
X95511904Y-91383390D02*
X95559523Y-91431009D01*
X95559523Y-91431009D02*
X95607142Y-91526247D01*
X97454819Y-85097142D02*
X97454819Y-84620952D01*
X97454819Y-84620952D02*
X97931009Y-84573333D01*
X97931009Y-84573333D02*
X97883390Y-84620952D01*
X97883390Y-84620952D02*
X97835771Y-84716190D01*
X97835771Y-84716190D02*
X97835771Y-84954285D01*
X97835771Y-84954285D02*
X97883390Y-85049523D01*
X97883390Y-85049523D02*
X97931009Y-85097142D01*
X97931009Y-85097142D02*
X98026247Y-85144761D01*
X98026247Y-85144761D02*
X98264342Y-85144761D01*
X98264342Y-85144761D02*
X98359580Y-85097142D01*
X98359580Y-85097142D02*
X98407200Y-85049523D01*
X98407200Y-85049523D02*
X98454819Y-84954285D01*
X98454819Y-84954285D02*
X98454819Y-84716190D01*
X98454819Y-84716190D02*
X98407200Y-84620952D01*
X98407200Y-84620952D02*
X98359580Y-84573333D01*
X97454819Y-85763809D02*
X97454819Y-85859047D01*
X97454819Y-85859047D02*
X97502438Y-85954285D01*
X97502438Y-85954285D02*
X97550057Y-86001904D01*
X97550057Y-86001904D02*
X97645295Y-86049523D01*
X97645295Y-86049523D02*
X97835771Y-86097142D01*
X97835771Y-86097142D02*
X98073866Y-86097142D01*
X98073866Y-86097142D02*
X98264342Y-86049523D01*
X98264342Y-86049523D02*
X98359580Y-86001904D01*
X98359580Y-86001904D02*
X98407200Y-85954285D01*
X98407200Y-85954285D02*
X98454819Y-85859047D01*
X98454819Y-85859047D02*
X98454819Y-85763809D01*
X98454819Y-85763809D02*
X98407200Y-85668571D01*
X98407200Y-85668571D02*
X98359580Y-85620952D01*
X98359580Y-85620952D02*
X98264342Y-85573333D01*
X98264342Y-85573333D02*
X98073866Y-85525714D01*
X98073866Y-85525714D02*
X97835771Y-85525714D01*
X97835771Y-85525714D02*
X97645295Y-85573333D01*
X97645295Y-85573333D02*
X97550057Y-85620952D01*
X97550057Y-85620952D02*
X97502438Y-85668571D01*
X97502438Y-85668571D02*
X97454819Y-85763809D01*
X98454819Y-86525714D02*
X97454819Y-86525714D01*
X98073866Y-86620952D02*
X98454819Y-86906666D01*
X97788152Y-86906666D02*
X98169104Y-86525714D01*
X69809523Y-89124819D02*
X69809523Y-89839104D01*
X69809523Y-89839104D02*
X69857142Y-89981961D01*
X69857142Y-89981961D02*
X69952380Y-90077200D01*
X69952380Y-90077200D02*
X70095237Y-90124819D01*
X70095237Y-90124819D02*
X70190475Y-90124819D01*
X68857142Y-89124819D02*
X69333332Y-89124819D01*
X69333332Y-89124819D02*
X69380951Y-89601009D01*
X69380951Y-89601009D02*
X69333332Y-89553390D01*
X69333332Y-89553390D02*
X69238094Y-89505771D01*
X69238094Y-89505771D02*
X68999999Y-89505771D01*
X68999999Y-89505771D02*
X68904761Y-89553390D01*
X68904761Y-89553390D02*
X68857142Y-89601009D01*
X68857142Y-89601009D02*
X68809523Y-89696247D01*
X68809523Y-89696247D02*
X68809523Y-89934342D01*
X68809523Y-89934342D02*
X68857142Y-90029580D01*
X68857142Y-90029580D02*
X68904761Y-90077200D01*
X68904761Y-90077200D02*
X68999999Y-90124819D01*
X68999999Y-90124819D02*
X69238094Y-90124819D01*
X69238094Y-90124819D02*
X69333332Y-90077200D01*
X69333332Y-90077200D02*
X69380951Y-90029580D01*
X68190475Y-89124819D02*
X68095237Y-89124819D01*
X68095237Y-89124819D02*
X67999999Y-89172438D01*
X67999999Y-89172438D02*
X67952380Y-89220057D01*
X67952380Y-89220057D02*
X67904761Y-89315295D01*
X67904761Y-89315295D02*
X67857142Y-89505771D01*
X67857142Y-89505771D02*
X67857142Y-89743866D01*
X67857142Y-89743866D02*
X67904761Y-89934342D01*
X67904761Y-89934342D02*
X67952380Y-90029580D01*
X67952380Y-90029580D02*
X67999999Y-90077200D01*
X67999999Y-90077200D02*
X68095237Y-90124819D01*
X68095237Y-90124819D02*
X68190475Y-90124819D01*
X68190475Y-90124819D02*
X68285713Y-90077200D01*
X68285713Y-90077200D02*
X68333332Y-90029580D01*
X68333332Y-90029580D02*
X68380951Y-89934342D01*
X68380951Y-89934342D02*
X68428570Y-89743866D01*
X68428570Y-89743866D02*
X68428570Y-89505771D01*
X68428570Y-89505771D02*
X68380951Y-89315295D01*
X68380951Y-89315295D02*
X68333332Y-89220057D01*
X68333332Y-89220057D02*
X68285713Y-89172438D01*
X68285713Y-89172438D02*
X68190475Y-89124819D01*
X92609580Y-67333333D02*
X92657200Y-67285714D01*
X92657200Y-67285714D02*
X92704819Y-67142857D01*
X92704819Y-67142857D02*
X92704819Y-67047619D01*
X92704819Y-67047619D02*
X92657200Y-66904762D01*
X92657200Y-66904762D02*
X92561961Y-66809524D01*
X92561961Y-66809524D02*
X92466723Y-66761905D01*
X92466723Y-66761905D02*
X92276247Y-66714286D01*
X92276247Y-66714286D02*
X92133390Y-66714286D01*
X92133390Y-66714286D02*
X91942914Y-66761905D01*
X91942914Y-66761905D02*
X91847676Y-66809524D01*
X91847676Y-66809524D02*
X91752438Y-66904762D01*
X91752438Y-66904762D02*
X91704819Y-67047619D01*
X91704819Y-67047619D02*
X91704819Y-67142857D01*
X91704819Y-67142857D02*
X91752438Y-67285714D01*
X91752438Y-67285714D02*
X91800057Y-67333333D01*
X92038152Y-68190476D02*
X92704819Y-68190476D01*
X91657200Y-67952381D02*
X92371485Y-67714286D01*
X92371485Y-67714286D02*
X92371485Y-68333333D01*
X90704819Y-66452380D02*
X90704819Y-65880952D01*
X90704819Y-66166666D02*
X89704819Y-66166666D01*
X89704819Y-66166666D02*
X89847676Y-66071428D01*
X89847676Y-66071428D02*
X89942914Y-65976190D01*
X89942914Y-65976190D02*
X89990533Y-65880952D01*
X89704819Y-67071428D02*
X89704819Y-67166666D01*
X89704819Y-67166666D02*
X89752438Y-67261904D01*
X89752438Y-67261904D02*
X89800057Y-67309523D01*
X89800057Y-67309523D02*
X89895295Y-67357142D01*
X89895295Y-67357142D02*
X90085771Y-67404761D01*
X90085771Y-67404761D02*
X90323866Y-67404761D01*
X90323866Y-67404761D02*
X90514342Y-67357142D01*
X90514342Y-67357142D02*
X90609580Y-67309523D01*
X90609580Y-67309523D02*
X90657200Y-67261904D01*
X90657200Y-67261904D02*
X90704819Y-67166666D01*
X90704819Y-67166666D02*
X90704819Y-67071428D01*
X90704819Y-67071428D02*
X90657200Y-66976190D01*
X90657200Y-66976190D02*
X90609580Y-66928571D01*
X90609580Y-66928571D02*
X90514342Y-66880952D01*
X90514342Y-66880952D02*
X90323866Y-66833333D01*
X90323866Y-66833333D02*
X90085771Y-66833333D01*
X90085771Y-66833333D02*
X89895295Y-66880952D01*
X89895295Y-66880952D02*
X89800057Y-66928571D01*
X89800057Y-66928571D02*
X89752438Y-66976190D01*
X89752438Y-66976190D02*
X89704819Y-67071428D01*
X89704819Y-68023809D02*
X89704819Y-68119047D01*
X89704819Y-68119047D02*
X89752438Y-68214285D01*
X89752438Y-68214285D02*
X89800057Y-68261904D01*
X89800057Y-68261904D02*
X89895295Y-68309523D01*
X89895295Y-68309523D02*
X90085771Y-68357142D01*
X90085771Y-68357142D02*
X90323866Y-68357142D01*
X90323866Y-68357142D02*
X90514342Y-68309523D01*
X90514342Y-68309523D02*
X90609580Y-68261904D01*
X90609580Y-68261904D02*
X90657200Y-68214285D01*
X90657200Y-68214285D02*
X90704819Y-68119047D01*
X90704819Y-68119047D02*
X90704819Y-68023809D01*
X90704819Y-68023809D02*
X90657200Y-67928571D01*
X90657200Y-67928571D02*
X90609580Y-67880952D01*
X90609580Y-67880952D02*
X90514342Y-67833333D01*
X90514342Y-67833333D02*
X90323866Y-67785714D01*
X90323866Y-67785714D02*
X90085771Y-67785714D01*
X90085771Y-67785714D02*
X89895295Y-67833333D01*
X89895295Y-67833333D02*
X89800057Y-67880952D01*
X89800057Y-67880952D02*
X89752438Y-67928571D01*
X89752438Y-67928571D02*
X89704819Y-68023809D01*
X90038152Y-68785714D02*
X90704819Y-68785714D01*
X90133390Y-68785714D02*
X90085771Y-68833333D01*
X90085771Y-68833333D02*
X90038152Y-68928571D01*
X90038152Y-68928571D02*
X90038152Y-69071428D01*
X90038152Y-69071428D02*
X90085771Y-69166666D01*
X90085771Y-69166666D02*
X90181009Y-69214285D01*
X90181009Y-69214285D02*
X90704819Y-69214285D01*
X90181009Y-70023809D02*
X90181009Y-69690476D01*
X90704819Y-69690476D02*
X89704819Y-69690476D01*
X89704819Y-69690476D02*
X89704819Y-70166666D01*
X68584819Y-160511905D02*
X67584819Y-160511905D01*
X67584819Y-160511905D02*
X67584819Y-160750000D01*
X67584819Y-160750000D02*
X67632438Y-160892857D01*
X67632438Y-160892857D02*
X67727676Y-160988095D01*
X67727676Y-160988095D02*
X67822914Y-161035714D01*
X67822914Y-161035714D02*
X68013390Y-161083333D01*
X68013390Y-161083333D02*
X68156247Y-161083333D01*
X68156247Y-161083333D02*
X68346723Y-161035714D01*
X68346723Y-161035714D02*
X68441961Y-160988095D01*
X68441961Y-160988095D02*
X68537200Y-160892857D01*
X68537200Y-160892857D02*
X68584819Y-160750000D01*
X68584819Y-160750000D02*
X68584819Y-160511905D01*
X67584819Y-161416667D02*
X67584819Y-162035714D01*
X67584819Y-162035714D02*
X67965771Y-161702381D01*
X67965771Y-161702381D02*
X67965771Y-161845238D01*
X67965771Y-161845238D02*
X68013390Y-161940476D01*
X68013390Y-161940476D02*
X68061009Y-161988095D01*
X68061009Y-161988095D02*
X68156247Y-162035714D01*
X68156247Y-162035714D02*
X68394342Y-162035714D01*
X68394342Y-162035714D02*
X68489580Y-161988095D01*
X68489580Y-161988095D02*
X68537200Y-161940476D01*
X68537200Y-161940476D02*
X68584819Y-161845238D01*
X68584819Y-161845238D02*
X68584819Y-161559524D01*
X68584819Y-161559524D02*
X68537200Y-161464286D01*
X68537200Y-161464286D02*
X68489580Y-161416667D01*
X71824819Y-158535714D02*
X71824819Y-159202380D01*
X71824819Y-159202380D02*
X72824819Y-158535714D01*
X72824819Y-158535714D02*
X72824819Y-159202380D01*
X72824819Y-159583333D02*
X71824819Y-159583333D01*
X71824819Y-159583333D02*
X71824819Y-159964285D01*
X71824819Y-159964285D02*
X71872438Y-160059523D01*
X71872438Y-160059523D02*
X71920057Y-160107142D01*
X71920057Y-160107142D02*
X72015295Y-160154761D01*
X72015295Y-160154761D02*
X72158152Y-160154761D01*
X72158152Y-160154761D02*
X72253390Y-160107142D01*
X72253390Y-160107142D02*
X72301009Y-160059523D01*
X72301009Y-160059523D02*
X72348628Y-159964285D01*
X72348628Y-159964285D02*
X72348628Y-159583333D01*
X72824819Y-160583333D02*
X71824819Y-160583333D01*
X71824819Y-160583333D02*
X71824819Y-160821428D01*
X71824819Y-160821428D02*
X71872438Y-160964285D01*
X71872438Y-160964285D02*
X71967676Y-161059523D01*
X71967676Y-161059523D02*
X72062914Y-161107142D01*
X72062914Y-161107142D02*
X72253390Y-161154761D01*
X72253390Y-161154761D02*
X72396247Y-161154761D01*
X72396247Y-161154761D02*
X72586723Y-161107142D01*
X72586723Y-161107142D02*
X72681961Y-161059523D01*
X72681961Y-161059523D02*
X72777200Y-160964285D01*
X72777200Y-160964285D02*
X72824819Y-160821428D01*
X72824819Y-160821428D02*
X72824819Y-160583333D01*
X71824819Y-162059523D02*
X71824819Y-161583333D01*
X71824819Y-161583333D02*
X72301009Y-161535714D01*
X72301009Y-161535714D02*
X72253390Y-161583333D01*
X72253390Y-161583333D02*
X72205771Y-161678571D01*
X72205771Y-161678571D02*
X72205771Y-161916666D01*
X72205771Y-161916666D02*
X72253390Y-162011904D01*
X72253390Y-162011904D02*
X72301009Y-162059523D01*
X72301009Y-162059523D02*
X72396247Y-162107142D01*
X72396247Y-162107142D02*
X72634342Y-162107142D01*
X72634342Y-162107142D02*
X72729580Y-162059523D01*
X72729580Y-162059523D02*
X72777200Y-162011904D01*
X72777200Y-162011904D02*
X72824819Y-161916666D01*
X72824819Y-161916666D02*
X72824819Y-161678571D01*
X72824819Y-161678571D02*
X72777200Y-161583333D01*
X72777200Y-161583333D02*
X72729580Y-161535714D01*
X71824819Y-162392857D02*
X72824819Y-162726190D01*
X72824819Y-162726190D02*
X71824819Y-163059523D01*
X72824819Y-163916666D02*
X72824819Y-163345238D01*
X72824819Y-163630952D02*
X71824819Y-163630952D01*
X71824819Y-163630952D02*
X71967676Y-163535714D01*
X71967676Y-163535714D02*
X72062914Y-163440476D01*
X72062914Y-163440476D02*
X72110533Y-163345238D01*
X68904819Y-157178095D02*
X67904819Y-157178095D01*
X68904819Y-157749523D02*
X68333390Y-157320952D01*
X67904819Y-157749523D02*
X68476247Y-157178095D01*
X68454819Y-151083333D02*
X67978628Y-150750000D01*
X68454819Y-150511905D02*
X67454819Y-150511905D01*
X67454819Y-150511905D02*
X67454819Y-150892857D01*
X67454819Y-150892857D02*
X67502438Y-150988095D01*
X67502438Y-150988095D02*
X67550057Y-151035714D01*
X67550057Y-151035714D02*
X67645295Y-151083333D01*
X67645295Y-151083333D02*
X67788152Y-151083333D01*
X67788152Y-151083333D02*
X67883390Y-151035714D01*
X67883390Y-151035714D02*
X67931009Y-150988095D01*
X67931009Y-150988095D02*
X67978628Y-150892857D01*
X67978628Y-150892857D02*
X67978628Y-150511905D01*
X67454819Y-151416667D02*
X67454819Y-152083333D01*
X67454819Y-152083333D02*
X68454819Y-151654762D01*
X70038152Y-150559523D02*
X70704819Y-150559523D01*
X69657200Y-150321428D02*
X70371485Y-150083333D01*
X70371485Y-150083333D02*
X70371485Y-150702380D01*
X70704819Y-151083333D02*
X69704819Y-151083333D01*
X70323866Y-151178571D02*
X70704819Y-151464285D01*
X70038152Y-151464285D02*
X70419104Y-151083333D01*
X69704819Y-151797619D02*
X69704819Y-152464285D01*
X69704819Y-152464285D02*
X70704819Y-152035714D01*
X77988094Y-155584819D02*
X77988094Y-154584819D01*
X77988094Y-154584819D02*
X77749999Y-154584819D01*
X77749999Y-154584819D02*
X77607142Y-154632438D01*
X77607142Y-154632438D02*
X77511904Y-154727676D01*
X77511904Y-154727676D02*
X77464285Y-154822914D01*
X77464285Y-154822914D02*
X77416666Y-155013390D01*
X77416666Y-155013390D02*
X77416666Y-155156247D01*
X77416666Y-155156247D02*
X77464285Y-155346723D01*
X77464285Y-155346723D02*
X77511904Y-155441961D01*
X77511904Y-155441961D02*
X77607142Y-155537200D01*
X77607142Y-155537200D02*
X77749999Y-155584819D01*
X77749999Y-155584819D02*
X77988094Y-155584819D01*
X76511904Y-154584819D02*
X76988094Y-154584819D01*
X76988094Y-154584819D02*
X77035713Y-155061009D01*
X77035713Y-155061009D02*
X76988094Y-155013390D01*
X76988094Y-155013390D02*
X76892856Y-154965771D01*
X76892856Y-154965771D02*
X76654761Y-154965771D01*
X76654761Y-154965771D02*
X76559523Y-155013390D01*
X76559523Y-155013390D02*
X76511904Y-155061009D01*
X76511904Y-155061009D02*
X76464285Y-155156247D01*
X76464285Y-155156247D02*
X76464285Y-155394342D01*
X76464285Y-155394342D02*
X76511904Y-155489580D01*
X76511904Y-155489580D02*
X76559523Y-155537200D01*
X76559523Y-155537200D02*
X76654761Y-155584819D01*
X76654761Y-155584819D02*
X76892856Y-155584819D01*
X76892856Y-155584819D02*
X76988094Y-155537200D01*
X76988094Y-155537200D02*
X77035713Y-155489580D01*
X79964285Y-158704819D02*
X79297619Y-158704819D01*
X79297619Y-158704819D02*
X79964285Y-159704819D01*
X79964285Y-159704819D02*
X79297619Y-159704819D01*
X78916666Y-159704819D02*
X78916666Y-158704819D01*
X78916666Y-158704819D02*
X78535714Y-158704819D01*
X78535714Y-158704819D02*
X78440476Y-158752438D01*
X78440476Y-158752438D02*
X78392857Y-158800057D01*
X78392857Y-158800057D02*
X78345238Y-158895295D01*
X78345238Y-158895295D02*
X78345238Y-159038152D01*
X78345238Y-159038152D02*
X78392857Y-159133390D01*
X78392857Y-159133390D02*
X78440476Y-159181009D01*
X78440476Y-159181009D02*
X78535714Y-159228628D01*
X78535714Y-159228628D02*
X78916666Y-159228628D01*
X77916666Y-159704819D02*
X77916666Y-158704819D01*
X77916666Y-158704819D02*
X77678571Y-158704819D01*
X77678571Y-158704819D02*
X77535714Y-158752438D01*
X77535714Y-158752438D02*
X77440476Y-158847676D01*
X77440476Y-158847676D02*
X77392857Y-158942914D01*
X77392857Y-158942914D02*
X77345238Y-159133390D01*
X77345238Y-159133390D02*
X77345238Y-159276247D01*
X77345238Y-159276247D02*
X77392857Y-159466723D01*
X77392857Y-159466723D02*
X77440476Y-159561961D01*
X77440476Y-159561961D02*
X77535714Y-159657200D01*
X77535714Y-159657200D02*
X77678571Y-159704819D01*
X77678571Y-159704819D02*
X77916666Y-159704819D01*
X76440476Y-158704819D02*
X76916666Y-158704819D01*
X76916666Y-158704819D02*
X76964285Y-159181009D01*
X76964285Y-159181009D02*
X76916666Y-159133390D01*
X76916666Y-159133390D02*
X76821428Y-159085771D01*
X76821428Y-159085771D02*
X76583333Y-159085771D01*
X76583333Y-159085771D02*
X76488095Y-159133390D01*
X76488095Y-159133390D02*
X76440476Y-159181009D01*
X76440476Y-159181009D02*
X76392857Y-159276247D01*
X76392857Y-159276247D02*
X76392857Y-159514342D01*
X76392857Y-159514342D02*
X76440476Y-159609580D01*
X76440476Y-159609580D02*
X76488095Y-159657200D01*
X76488095Y-159657200D02*
X76583333Y-159704819D01*
X76583333Y-159704819D02*
X76821428Y-159704819D01*
X76821428Y-159704819D02*
X76916666Y-159657200D01*
X76916666Y-159657200D02*
X76964285Y-159609580D01*
X76107142Y-158704819D02*
X75773809Y-159704819D01*
X75773809Y-159704819D02*
X75440476Y-158704819D01*
X74583333Y-159704819D02*
X75154761Y-159704819D01*
X74869047Y-159704819D02*
X74869047Y-158704819D01*
X74869047Y-158704819D02*
X74964285Y-158847676D01*
X74964285Y-158847676D02*
X75059523Y-158942914D01*
X75059523Y-158942914D02*
X75154761Y-158990533D01*
X97738094Y-66954819D02*
X97738094Y-65954819D01*
X97738094Y-65954819D02*
X97499999Y-65954819D01*
X97499999Y-65954819D02*
X97357142Y-66002438D01*
X97357142Y-66002438D02*
X97261904Y-66097676D01*
X97261904Y-66097676D02*
X97214285Y-66192914D01*
X97214285Y-66192914D02*
X97166666Y-66383390D01*
X97166666Y-66383390D02*
X97166666Y-66526247D01*
X97166666Y-66526247D02*
X97214285Y-66716723D01*
X97214285Y-66716723D02*
X97261904Y-66811961D01*
X97261904Y-66811961D02*
X97357142Y-66907200D01*
X97357142Y-66907200D02*
X97499999Y-66954819D01*
X97499999Y-66954819D02*
X97738094Y-66954819D01*
X96785713Y-66050057D02*
X96738094Y-66002438D01*
X96738094Y-66002438D02*
X96642856Y-65954819D01*
X96642856Y-65954819D02*
X96404761Y-65954819D01*
X96404761Y-65954819D02*
X96309523Y-66002438D01*
X96309523Y-66002438D02*
X96261904Y-66050057D01*
X96261904Y-66050057D02*
X96214285Y-66145295D01*
X96214285Y-66145295D02*
X96214285Y-66240533D01*
X96214285Y-66240533D02*
X96261904Y-66383390D01*
X96261904Y-66383390D02*
X96833332Y-66954819D01*
X96833332Y-66954819D02*
X96214285Y-66954819D01*
X87166666Y-160074819D02*
X87499999Y-159598628D01*
X87738094Y-160074819D02*
X87738094Y-159074819D01*
X87738094Y-159074819D02*
X87357142Y-159074819D01*
X87357142Y-159074819D02*
X87261904Y-159122438D01*
X87261904Y-159122438D02*
X87214285Y-159170057D01*
X87214285Y-159170057D02*
X87166666Y-159265295D01*
X87166666Y-159265295D02*
X87166666Y-159408152D01*
X87166666Y-159408152D02*
X87214285Y-159503390D01*
X87214285Y-159503390D02*
X87261904Y-159551009D01*
X87261904Y-159551009D02*
X87357142Y-159598628D01*
X87357142Y-159598628D02*
X87738094Y-159598628D01*
X86690475Y-160074819D02*
X86499999Y-160074819D01*
X86499999Y-160074819D02*
X86404761Y-160027200D01*
X86404761Y-160027200D02*
X86357142Y-159979580D01*
X86357142Y-159979580D02*
X86261904Y-159836723D01*
X86261904Y-159836723D02*
X86214285Y-159646247D01*
X86214285Y-159646247D02*
X86214285Y-159265295D01*
X86214285Y-159265295D02*
X86261904Y-159170057D01*
X86261904Y-159170057D02*
X86309523Y-159122438D01*
X86309523Y-159122438D02*
X86404761Y-159074819D01*
X86404761Y-159074819D02*
X86595237Y-159074819D01*
X86595237Y-159074819D02*
X86690475Y-159122438D01*
X86690475Y-159122438D02*
X86738094Y-159170057D01*
X86738094Y-159170057D02*
X86785713Y-159265295D01*
X86785713Y-159265295D02*
X86785713Y-159503390D01*
X86785713Y-159503390D02*
X86738094Y-159598628D01*
X86738094Y-159598628D02*
X86690475Y-159646247D01*
X86690475Y-159646247D02*
X86595237Y-159693866D01*
X86595237Y-159693866D02*
X86404761Y-159693866D01*
X86404761Y-159693866D02*
X86309523Y-159646247D01*
X86309523Y-159646247D02*
X86261904Y-159598628D01*
X86261904Y-159598628D02*
X86214285Y-159503390D01*
X87690476Y-157038152D02*
X87690476Y-157704819D01*
X87928571Y-156657200D02*
X88166666Y-157371485D01*
X88166666Y-157371485D02*
X87547619Y-157371485D01*
X87166666Y-157704819D02*
X87166666Y-156704819D01*
X87071428Y-157323866D02*
X86785714Y-157704819D01*
X86785714Y-157038152D02*
X87166666Y-157419104D01*
X86452380Y-156704819D02*
X85785714Y-156704819D01*
X85785714Y-156704819D02*
X86214285Y-157704819D01*
X72166666Y-75454819D02*
X72499999Y-74978628D01*
X72738094Y-75454819D02*
X72738094Y-74454819D01*
X72738094Y-74454819D02*
X72357142Y-74454819D01*
X72357142Y-74454819D02*
X72261904Y-74502438D01*
X72261904Y-74502438D02*
X72214285Y-74550057D01*
X72214285Y-74550057D02*
X72166666Y-74645295D01*
X72166666Y-74645295D02*
X72166666Y-74788152D01*
X72166666Y-74788152D02*
X72214285Y-74883390D01*
X72214285Y-74883390D02*
X72261904Y-74931009D01*
X72261904Y-74931009D02*
X72357142Y-74978628D01*
X72357142Y-74978628D02*
X72738094Y-74978628D01*
X71785713Y-74550057D02*
X71738094Y-74502438D01*
X71738094Y-74502438D02*
X71642856Y-74454819D01*
X71642856Y-74454819D02*
X71404761Y-74454819D01*
X71404761Y-74454819D02*
X71309523Y-74502438D01*
X71309523Y-74502438D02*
X71261904Y-74550057D01*
X71261904Y-74550057D02*
X71214285Y-74645295D01*
X71214285Y-74645295D02*
X71214285Y-74740533D01*
X71214285Y-74740533D02*
X71261904Y-74883390D01*
X71261904Y-74883390D02*
X71833332Y-75454819D01*
X71833332Y-75454819D02*
X71214285Y-75454819D01*
X72454819Y-80380952D02*
X72454819Y-79809524D01*
X72454819Y-80095238D02*
X71454819Y-80095238D01*
X71454819Y-80095238D02*
X71597676Y-80000000D01*
X71597676Y-80000000D02*
X71692914Y-79904762D01*
X71692914Y-79904762D02*
X71740533Y-79809524D01*
X72454819Y-80809524D02*
X71454819Y-80809524D01*
X72073866Y-80904762D02*
X72454819Y-81190476D01*
X71788152Y-81190476D02*
X72169104Y-80809524D01*
X96845238Y-70124819D02*
X97178571Y-69648628D01*
X97416666Y-70124819D02*
X97416666Y-69124819D01*
X97416666Y-69124819D02*
X97035714Y-69124819D01*
X97035714Y-69124819D02*
X96940476Y-69172438D01*
X96940476Y-69172438D02*
X96892857Y-69220057D01*
X96892857Y-69220057D02*
X96845238Y-69315295D01*
X96845238Y-69315295D02*
X96845238Y-69458152D01*
X96845238Y-69458152D02*
X96892857Y-69553390D01*
X96892857Y-69553390D02*
X96940476Y-69601009D01*
X96940476Y-69601009D02*
X97035714Y-69648628D01*
X97035714Y-69648628D02*
X97416666Y-69648628D01*
X96559523Y-69124819D02*
X96226190Y-70124819D01*
X96226190Y-70124819D02*
X95892857Y-69124819D01*
X95083333Y-69124819D02*
X95559523Y-69124819D01*
X95559523Y-69124819D02*
X95607142Y-69601009D01*
X95607142Y-69601009D02*
X95559523Y-69553390D01*
X95559523Y-69553390D02*
X95464285Y-69505771D01*
X95464285Y-69505771D02*
X95226190Y-69505771D01*
X95226190Y-69505771D02*
X95130952Y-69553390D01*
X95130952Y-69553390D02*
X95083333Y-69601009D01*
X95083333Y-69601009D02*
X95035714Y-69696247D01*
X95035714Y-69696247D02*
X95035714Y-69934342D01*
X95035714Y-69934342D02*
X95083333Y-70029580D01*
X95083333Y-70029580D02*
X95130952Y-70077200D01*
X95130952Y-70077200D02*
X95226190Y-70124819D01*
X95226190Y-70124819D02*
X95464285Y-70124819D01*
X95464285Y-70124819D02*
X95559523Y-70077200D01*
X95559523Y-70077200D02*
X95607142Y-70029580D01*
X97454819Y-74807142D02*
X97454819Y-74330952D01*
X97454819Y-74330952D02*
X97931009Y-74283333D01*
X97931009Y-74283333D02*
X97883390Y-74330952D01*
X97883390Y-74330952D02*
X97835771Y-74426190D01*
X97835771Y-74426190D02*
X97835771Y-74664285D01*
X97835771Y-74664285D02*
X97883390Y-74759523D01*
X97883390Y-74759523D02*
X97931009Y-74807142D01*
X97931009Y-74807142D02*
X98026247Y-74854761D01*
X98026247Y-74854761D02*
X98264342Y-74854761D01*
X98264342Y-74854761D02*
X98359580Y-74807142D01*
X98359580Y-74807142D02*
X98407200Y-74759523D01*
X98407200Y-74759523D02*
X98454819Y-74664285D01*
X98454819Y-74664285D02*
X98454819Y-74426190D01*
X98454819Y-74426190D02*
X98407200Y-74330952D01*
X98407200Y-74330952D02*
X98359580Y-74283333D01*
X97454819Y-75473809D02*
X97454819Y-75569047D01*
X97454819Y-75569047D02*
X97502438Y-75664285D01*
X97502438Y-75664285D02*
X97550057Y-75711904D01*
X97550057Y-75711904D02*
X97645295Y-75759523D01*
X97645295Y-75759523D02*
X97835771Y-75807142D01*
X97835771Y-75807142D02*
X98073866Y-75807142D01*
X98073866Y-75807142D02*
X98264342Y-75759523D01*
X98264342Y-75759523D02*
X98359580Y-75711904D01*
X98359580Y-75711904D02*
X98407200Y-75664285D01*
X98407200Y-75664285D02*
X98454819Y-75569047D01*
X98454819Y-75569047D02*
X98454819Y-75473809D01*
X98454819Y-75473809D02*
X98407200Y-75378571D01*
X98407200Y-75378571D02*
X98359580Y-75330952D01*
X98359580Y-75330952D02*
X98264342Y-75283333D01*
X98264342Y-75283333D02*
X98073866Y-75235714D01*
X98073866Y-75235714D02*
X97835771Y-75235714D01*
X97835771Y-75235714D02*
X97645295Y-75283333D01*
X97645295Y-75283333D02*
X97550057Y-75330952D01*
X97550057Y-75330952D02*
X97502438Y-75378571D01*
X97502438Y-75378571D02*
X97454819Y-75473809D01*
X98454819Y-76235714D02*
X97454819Y-76235714D01*
X98073866Y-76330952D02*
X98454819Y-76616666D01*
X97788152Y-76616666D02*
X98169104Y-76235714D01*
X73759819Y-79738095D02*
X74569342Y-79738095D01*
X74569342Y-79738095D02*
X74664580Y-79785714D01*
X74664580Y-79785714D02*
X74712200Y-79833333D01*
X74712200Y-79833333D02*
X74759819Y-79928571D01*
X74759819Y-79928571D02*
X74759819Y-80119047D01*
X74759819Y-80119047D02*
X74712200Y-80214285D01*
X74712200Y-80214285D02*
X74664580Y-80261904D01*
X74664580Y-80261904D02*
X74569342Y-80309523D01*
X74569342Y-80309523D02*
X73759819Y-80309523D01*
X74759819Y-81309523D02*
X74759819Y-80738095D01*
X74759819Y-81023809D02*
X73759819Y-81023809D01*
X73759819Y-81023809D02*
X73902676Y-80928571D01*
X73902676Y-80928571D02*
X73997914Y-80833333D01*
X73997914Y-80833333D02*
X74045533Y-80738095D01*
X86374047Y-79954819D02*
X85802619Y-79954819D01*
X86088333Y-80954819D02*
X86088333Y-79954819D01*
X84993095Y-80954819D02*
X85469285Y-80954819D01*
X85469285Y-80954819D02*
X85469285Y-79954819D01*
X84469285Y-79954819D02*
X84374047Y-79954819D01*
X84374047Y-79954819D02*
X84278809Y-80002438D01*
X84278809Y-80002438D02*
X84231190Y-80050057D01*
X84231190Y-80050057D02*
X84183571Y-80145295D01*
X84183571Y-80145295D02*
X84135952Y-80335771D01*
X84135952Y-80335771D02*
X84135952Y-80573866D01*
X84135952Y-80573866D02*
X84183571Y-80764342D01*
X84183571Y-80764342D02*
X84231190Y-80859580D01*
X84231190Y-80859580D02*
X84278809Y-80907200D01*
X84278809Y-80907200D02*
X84374047Y-80954819D01*
X84374047Y-80954819D02*
X84469285Y-80954819D01*
X84469285Y-80954819D02*
X84564523Y-80907200D01*
X84564523Y-80907200D02*
X84612142Y-80859580D01*
X84612142Y-80859580D02*
X84659761Y-80764342D01*
X84659761Y-80764342D02*
X84707380Y-80573866D01*
X84707380Y-80573866D02*
X84707380Y-80335771D01*
X84707380Y-80335771D02*
X84659761Y-80145295D01*
X84659761Y-80145295D02*
X84612142Y-80050057D01*
X84612142Y-80050057D02*
X84564523Y-80002438D01*
X84564523Y-80002438D02*
X84469285Y-79954819D01*
X83802618Y-79954819D02*
X83135952Y-79954819D01*
X83135952Y-79954819D02*
X83564523Y-80954819D01*
X82326428Y-80288152D02*
X82326428Y-80954819D01*
X82564523Y-79907200D02*
X82802618Y-80621485D01*
X82802618Y-80621485D02*
X82183571Y-80621485D01*
X70488094Y-57454819D02*
X70488094Y-56454819D01*
X70488094Y-56454819D02*
X70249999Y-56454819D01*
X70249999Y-56454819D02*
X70107142Y-56502438D01*
X70107142Y-56502438D02*
X70011904Y-56597676D01*
X70011904Y-56597676D02*
X69964285Y-56692914D01*
X69964285Y-56692914D02*
X69916666Y-56883390D01*
X69916666Y-56883390D02*
X69916666Y-57026247D01*
X69916666Y-57026247D02*
X69964285Y-57216723D01*
X69964285Y-57216723D02*
X70011904Y-57311961D01*
X70011904Y-57311961D02*
X70107142Y-57407200D01*
X70107142Y-57407200D02*
X70249999Y-57454819D01*
X70249999Y-57454819D02*
X70488094Y-57454819D01*
X68964285Y-57454819D02*
X69535713Y-57454819D01*
X69249999Y-57454819D02*
X69249999Y-56454819D01*
X69249999Y-56454819D02*
X69345237Y-56597676D01*
X69345237Y-56597676D02*
X69440475Y-56692914D01*
X69440475Y-56692914D02*
X69535713Y-56740533D01*
X78416666Y-112334819D02*
X78749999Y-111858628D01*
X78988094Y-112334819D02*
X78988094Y-111334819D01*
X78988094Y-111334819D02*
X78607142Y-111334819D01*
X78607142Y-111334819D02*
X78511904Y-111382438D01*
X78511904Y-111382438D02*
X78464285Y-111430057D01*
X78464285Y-111430057D02*
X78416666Y-111525295D01*
X78416666Y-111525295D02*
X78416666Y-111668152D01*
X78416666Y-111668152D02*
X78464285Y-111763390D01*
X78464285Y-111763390D02*
X78511904Y-111811009D01*
X78511904Y-111811009D02*
X78607142Y-111858628D01*
X78607142Y-111858628D02*
X78988094Y-111858628D01*
X78083332Y-111334819D02*
X77464285Y-111334819D01*
X77464285Y-111334819D02*
X77797618Y-111715771D01*
X77797618Y-111715771D02*
X77654761Y-111715771D01*
X77654761Y-111715771D02*
X77559523Y-111763390D01*
X77559523Y-111763390D02*
X77511904Y-111811009D01*
X77511904Y-111811009D02*
X77464285Y-111906247D01*
X77464285Y-111906247D02*
X77464285Y-112144342D01*
X77464285Y-112144342D02*
X77511904Y-112239580D01*
X77511904Y-112239580D02*
X77559523Y-112287200D01*
X77559523Y-112287200D02*
X77654761Y-112334819D01*
X77654761Y-112334819D02*
X77940475Y-112334819D01*
X77940475Y-112334819D02*
X78035713Y-112287200D01*
X78035713Y-112287200D02*
X78083332Y-112239580D01*
X79464285Y-113704819D02*
X78845238Y-113704819D01*
X78845238Y-113704819D02*
X79178571Y-114085771D01*
X79178571Y-114085771D02*
X79035714Y-114085771D01*
X79035714Y-114085771D02*
X78940476Y-114133390D01*
X78940476Y-114133390D02*
X78892857Y-114181009D01*
X78892857Y-114181009D02*
X78845238Y-114276247D01*
X78845238Y-114276247D02*
X78845238Y-114514342D01*
X78845238Y-114514342D02*
X78892857Y-114609580D01*
X78892857Y-114609580D02*
X78940476Y-114657200D01*
X78940476Y-114657200D02*
X79035714Y-114704819D01*
X79035714Y-114704819D02*
X79321428Y-114704819D01*
X79321428Y-114704819D02*
X79416666Y-114657200D01*
X79416666Y-114657200D02*
X79464285Y-114609580D01*
X78511904Y-113704819D02*
X77892857Y-113704819D01*
X77892857Y-113704819D02*
X78226190Y-114085771D01*
X78226190Y-114085771D02*
X78083333Y-114085771D01*
X78083333Y-114085771D02*
X77988095Y-114133390D01*
X77988095Y-114133390D02*
X77940476Y-114181009D01*
X77940476Y-114181009D02*
X77892857Y-114276247D01*
X77892857Y-114276247D02*
X77892857Y-114514342D01*
X77892857Y-114514342D02*
X77940476Y-114609580D01*
X77940476Y-114609580D02*
X77988095Y-114657200D01*
X77988095Y-114657200D02*
X78083333Y-114704819D01*
X78083333Y-114704819D02*
X78369047Y-114704819D01*
X78369047Y-114704819D02*
X78464285Y-114657200D01*
X78464285Y-114657200D02*
X78511904Y-114609580D01*
X77464285Y-114704819D02*
X77464285Y-113704819D01*
X77369047Y-114323866D02*
X77083333Y-114704819D01*
X77083333Y-114038152D02*
X77464285Y-114419104D01*
X78416666Y-121954819D02*
X78749999Y-121478628D01*
X78988094Y-121954819D02*
X78988094Y-120954819D01*
X78988094Y-120954819D02*
X78607142Y-120954819D01*
X78607142Y-120954819D02*
X78511904Y-121002438D01*
X78511904Y-121002438D02*
X78464285Y-121050057D01*
X78464285Y-121050057D02*
X78416666Y-121145295D01*
X78416666Y-121145295D02*
X78416666Y-121288152D01*
X78416666Y-121288152D02*
X78464285Y-121383390D01*
X78464285Y-121383390D02*
X78511904Y-121431009D01*
X78511904Y-121431009D02*
X78607142Y-121478628D01*
X78607142Y-121478628D02*
X78988094Y-121478628D01*
X77511904Y-120954819D02*
X77988094Y-120954819D01*
X77988094Y-120954819D02*
X78035713Y-121431009D01*
X78035713Y-121431009D02*
X77988094Y-121383390D01*
X77988094Y-121383390D02*
X77892856Y-121335771D01*
X77892856Y-121335771D02*
X77654761Y-121335771D01*
X77654761Y-121335771D02*
X77559523Y-121383390D01*
X77559523Y-121383390D02*
X77511904Y-121431009D01*
X77511904Y-121431009D02*
X77464285Y-121526247D01*
X77464285Y-121526247D02*
X77464285Y-121764342D01*
X77464285Y-121764342D02*
X77511904Y-121859580D01*
X77511904Y-121859580D02*
X77559523Y-121907200D01*
X77559523Y-121907200D02*
X77654761Y-121954819D01*
X77654761Y-121954819D02*
X77892856Y-121954819D01*
X77892856Y-121954819D02*
X77988094Y-121907200D01*
X77988094Y-121907200D02*
X78035713Y-121859580D01*
X79464285Y-123204819D02*
X78845238Y-123204819D01*
X78845238Y-123204819D02*
X79178571Y-123585771D01*
X79178571Y-123585771D02*
X79035714Y-123585771D01*
X79035714Y-123585771D02*
X78940476Y-123633390D01*
X78940476Y-123633390D02*
X78892857Y-123681009D01*
X78892857Y-123681009D02*
X78845238Y-123776247D01*
X78845238Y-123776247D02*
X78845238Y-124014342D01*
X78845238Y-124014342D02*
X78892857Y-124109580D01*
X78892857Y-124109580D02*
X78940476Y-124157200D01*
X78940476Y-124157200D02*
X79035714Y-124204819D01*
X79035714Y-124204819D02*
X79321428Y-124204819D01*
X79321428Y-124204819D02*
X79416666Y-124157200D01*
X79416666Y-124157200D02*
X79464285Y-124109580D01*
X78511904Y-123204819D02*
X77892857Y-123204819D01*
X77892857Y-123204819D02*
X78226190Y-123585771D01*
X78226190Y-123585771D02*
X78083333Y-123585771D01*
X78083333Y-123585771D02*
X77988095Y-123633390D01*
X77988095Y-123633390D02*
X77940476Y-123681009D01*
X77940476Y-123681009D02*
X77892857Y-123776247D01*
X77892857Y-123776247D02*
X77892857Y-124014342D01*
X77892857Y-124014342D02*
X77940476Y-124109580D01*
X77940476Y-124109580D02*
X77988095Y-124157200D01*
X77988095Y-124157200D02*
X78083333Y-124204819D01*
X78083333Y-124204819D02*
X78369047Y-124204819D01*
X78369047Y-124204819D02*
X78464285Y-124157200D01*
X78464285Y-124157200D02*
X78511904Y-124109580D01*
X77464285Y-124204819D02*
X77464285Y-123204819D01*
X77369047Y-123823866D02*
X77083333Y-124204819D01*
X77083333Y-123538152D02*
X77464285Y-123919104D01*
X92666666Y-59359580D02*
X92714285Y-59407200D01*
X92714285Y-59407200D02*
X92857142Y-59454819D01*
X92857142Y-59454819D02*
X92952380Y-59454819D01*
X92952380Y-59454819D02*
X93095237Y-59407200D01*
X93095237Y-59407200D02*
X93190475Y-59311961D01*
X93190475Y-59311961D02*
X93238094Y-59216723D01*
X93238094Y-59216723D02*
X93285713Y-59026247D01*
X93285713Y-59026247D02*
X93285713Y-58883390D01*
X93285713Y-58883390D02*
X93238094Y-58692914D01*
X93238094Y-58692914D02*
X93190475Y-58597676D01*
X93190475Y-58597676D02*
X93095237Y-58502438D01*
X93095237Y-58502438D02*
X92952380Y-58454819D01*
X92952380Y-58454819D02*
X92857142Y-58454819D01*
X92857142Y-58454819D02*
X92714285Y-58502438D01*
X92714285Y-58502438D02*
X92666666Y-58550057D01*
X92285713Y-58550057D02*
X92238094Y-58502438D01*
X92238094Y-58502438D02*
X92142856Y-58454819D01*
X92142856Y-58454819D02*
X91904761Y-58454819D01*
X91904761Y-58454819D02*
X91809523Y-58502438D01*
X91809523Y-58502438D02*
X91761904Y-58550057D01*
X91761904Y-58550057D02*
X91714285Y-58645295D01*
X91714285Y-58645295D02*
X91714285Y-58740533D01*
X91714285Y-58740533D02*
X91761904Y-58883390D01*
X91761904Y-58883390D02*
X92333332Y-59454819D01*
X92333332Y-59454819D02*
X91714285Y-59454819D01*
X94288152Y-59083333D02*
X94954819Y-59083333D01*
X93907200Y-58845238D02*
X94621485Y-58607143D01*
X94621485Y-58607143D02*
X94621485Y-59226190D01*
X93954819Y-59511905D02*
X93954819Y-60178571D01*
X93954819Y-60178571D02*
X94954819Y-59750000D01*
X94288152Y-60988095D02*
X94954819Y-60988095D01*
X94288152Y-60559524D02*
X94811961Y-60559524D01*
X94811961Y-60559524D02*
X94907200Y-60607143D01*
X94907200Y-60607143D02*
X94954819Y-60702381D01*
X94954819Y-60702381D02*
X94954819Y-60845238D01*
X94954819Y-60845238D02*
X94907200Y-60940476D01*
X94907200Y-60940476D02*
X94859580Y-60988095D01*
X94431009Y-61797619D02*
X94431009Y-61464286D01*
X94954819Y-61464286D02*
X93954819Y-61464286D01*
X93954819Y-61464286D02*
X93954819Y-61940476D01*
X77988094Y-150084819D02*
X77988094Y-149084819D01*
X77988094Y-149084819D02*
X77749999Y-149084819D01*
X77749999Y-149084819D02*
X77607142Y-149132438D01*
X77607142Y-149132438D02*
X77511904Y-149227676D01*
X77511904Y-149227676D02*
X77464285Y-149322914D01*
X77464285Y-149322914D02*
X77416666Y-149513390D01*
X77416666Y-149513390D02*
X77416666Y-149656247D01*
X77416666Y-149656247D02*
X77464285Y-149846723D01*
X77464285Y-149846723D02*
X77511904Y-149941961D01*
X77511904Y-149941961D02*
X77607142Y-150037200D01*
X77607142Y-150037200D02*
X77749999Y-150084819D01*
X77749999Y-150084819D02*
X77988094Y-150084819D01*
X76559523Y-149418152D02*
X76559523Y-150084819D01*
X76797618Y-149037200D02*
X77035713Y-149751485D01*
X77035713Y-149751485D02*
X76416666Y-149751485D01*
X79964285Y-153204819D02*
X79297619Y-153204819D01*
X79297619Y-153204819D02*
X79964285Y-154204819D01*
X79964285Y-154204819D02*
X79297619Y-154204819D01*
X78916666Y-154204819D02*
X78916666Y-153204819D01*
X78916666Y-153204819D02*
X78535714Y-153204819D01*
X78535714Y-153204819D02*
X78440476Y-153252438D01*
X78440476Y-153252438D02*
X78392857Y-153300057D01*
X78392857Y-153300057D02*
X78345238Y-153395295D01*
X78345238Y-153395295D02*
X78345238Y-153538152D01*
X78345238Y-153538152D02*
X78392857Y-153633390D01*
X78392857Y-153633390D02*
X78440476Y-153681009D01*
X78440476Y-153681009D02*
X78535714Y-153728628D01*
X78535714Y-153728628D02*
X78916666Y-153728628D01*
X77916666Y-154204819D02*
X77916666Y-153204819D01*
X77916666Y-153204819D02*
X77678571Y-153204819D01*
X77678571Y-153204819D02*
X77535714Y-153252438D01*
X77535714Y-153252438D02*
X77440476Y-153347676D01*
X77440476Y-153347676D02*
X77392857Y-153442914D01*
X77392857Y-153442914D02*
X77345238Y-153633390D01*
X77345238Y-153633390D02*
X77345238Y-153776247D01*
X77345238Y-153776247D02*
X77392857Y-153966723D01*
X77392857Y-153966723D02*
X77440476Y-154061961D01*
X77440476Y-154061961D02*
X77535714Y-154157200D01*
X77535714Y-154157200D02*
X77678571Y-154204819D01*
X77678571Y-154204819D02*
X77916666Y-154204819D01*
X76440476Y-153204819D02*
X76916666Y-153204819D01*
X76916666Y-153204819D02*
X76964285Y-153681009D01*
X76964285Y-153681009D02*
X76916666Y-153633390D01*
X76916666Y-153633390D02*
X76821428Y-153585771D01*
X76821428Y-153585771D02*
X76583333Y-153585771D01*
X76583333Y-153585771D02*
X76488095Y-153633390D01*
X76488095Y-153633390D02*
X76440476Y-153681009D01*
X76440476Y-153681009D02*
X76392857Y-153776247D01*
X76392857Y-153776247D02*
X76392857Y-154014342D01*
X76392857Y-154014342D02*
X76440476Y-154109580D01*
X76440476Y-154109580D02*
X76488095Y-154157200D01*
X76488095Y-154157200D02*
X76583333Y-154204819D01*
X76583333Y-154204819D02*
X76821428Y-154204819D01*
X76821428Y-154204819D02*
X76916666Y-154157200D01*
X76916666Y-154157200D02*
X76964285Y-154109580D01*
X76107142Y-153204819D02*
X75773809Y-154204819D01*
X75773809Y-154204819D02*
X75440476Y-153204819D01*
X74583333Y-154204819D02*
X75154761Y-154204819D01*
X74869047Y-154204819D02*
X74869047Y-153204819D01*
X74869047Y-153204819D02*
X74964285Y-153347676D01*
X74964285Y-153347676D02*
X75059523Y-153442914D01*
X75059523Y-153442914D02*
X75154761Y-153490533D01*
X74109580Y-67333333D02*
X74157200Y-67285714D01*
X74157200Y-67285714D02*
X74204819Y-67142857D01*
X74204819Y-67142857D02*
X74204819Y-67047619D01*
X74204819Y-67047619D02*
X74157200Y-66904762D01*
X74157200Y-66904762D02*
X74061961Y-66809524D01*
X74061961Y-66809524D02*
X73966723Y-66761905D01*
X73966723Y-66761905D02*
X73776247Y-66714286D01*
X73776247Y-66714286D02*
X73633390Y-66714286D01*
X73633390Y-66714286D02*
X73442914Y-66761905D01*
X73442914Y-66761905D02*
X73347676Y-66809524D01*
X73347676Y-66809524D02*
X73252438Y-66904762D01*
X73252438Y-66904762D02*
X73204819Y-67047619D01*
X73204819Y-67047619D02*
X73204819Y-67142857D01*
X73204819Y-67142857D02*
X73252438Y-67285714D01*
X73252438Y-67285714D02*
X73300057Y-67333333D01*
X73204819Y-67666667D02*
X73204819Y-68285714D01*
X73204819Y-68285714D02*
X73585771Y-67952381D01*
X73585771Y-67952381D02*
X73585771Y-68095238D01*
X73585771Y-68095238D02*
X73633390Y-68190476D01*
X73633390Y-68190476D02*
X73681009Y-68238095D01*
X73681009Y-68238095D02*
X73776247Y-68285714D01*
X73776247Y-68285714D02*
X74014342Y-68285714D01*
X74014342Y-68285714D02*
X74109580Y-68238095D01*
X74109580Y-68238095D02*
X74157200Y-68190476D01*
X74157200Y-68190476D02*
X74204819Y-68095238D01*
X74204819Y-68095238D02*
X74204819Y-67809524D01*
X74204819Y-67809524D02*
X74157200Y-67714286D01*
X74157200Y-67714286D02*
X74109580Y-67666667D01*
X76204819Y-66452380D02*
X76204819Y-65880952D01*
X76204819Y-66166666D02*
X75204819Y-66166666D01*
X75204819Y-66166666D02*
X75347676Y-66071428D01*
X75347676Y-66071428D02*
X75442914Y-65976190D01*
X75442914Y-65976190D02*
X75490533Y-65880952D01*
X75204819Y-67071428D02*
X75204819Y-67166666D01*
X75204819Y-67166666D02*
X75252438Y-67261904D01*
X75252438Y-67261904D02*
X75300057Y-67309523D01*
X75300057Y-67309523D02*
X75395295Y-67357142D01*
X75395295Y-67357142D02*
X75585771Y-67404761D01*
X75585771Y-67404761D02*
X75823866Y-67404761D01*
X75823866Y-67404761D02*
X76014342Y-67357142D01*
X76014342Y-67357142D02*
X76109580Y-67309523D01*
X76109580Y-67309523D02*
X76157200Y-67261904D01*
X76157200Y-67261904D02*
X76204819Y-67166666D01*
X76204819Y-67166666D02*
X76204819Y-67071428D01*
X76204819Y-67071428D02*
X76157200Y-66976190D01*
X76157200Y-66976190D02*
X76109580Y-66928571D01*
X76109580Y-66928571D02*
X76014342Y-66880952D01*
X76014342Y-66880952D02*
X75823866Y-66833333D01*
X75823866Y-66833333D02*
X75585771Y-66833333D01*
X75585771Y-66833333D02*
X75395295Y-66880952D01*
X75395295Y-66880952D02*
X75300057Y-66928571D01*
X75300057Y-66928571D02*
X75252438Y-66976190D01*
X75252438Y-66976190D02*
X75204819Y-67071428D01*
X75204819Y-68023809D02*
X75204819Y-68119047D01*
X75204819Y-68119047D02*
X75252438Y-68214285D01*
X75252438Y-68214285D02*
X75300057Y-68261904D01*
X75300057Y-68261904D02*
X75395295Y-68309523D01*
X75395295Y-68309523D02*
X75585771Y-68357142D01*
X75585771Y-68357142D02*
X75823866Y-68357142D01*
X75823866Y-68357142D02*
X76014342Y-68309523D01*
X76014342Y-68309523D02*
X76109580Y-68261904D01*
X76109580Y-68261904D02*
X76157200Y-68214285D01*
X76157200Y-68214285D02*
X76204819Y-68119047D01*
X76204819Y-68119047D02*
X76204819Y-68023809D01*
X76204819Y-68023809D02*
X76157200Y-67928571D01*
X76157200Y-67928571D02*
X76109580Y-67880952D01*
X76109580Y-67880952D02*
X76014342Y-67833333D01*
X76014342Y-67833333D02*
X75823866Y-67785714D01*
X75823866Y-67785714D02*
X75585771Y-67785714D01*
X75585771Y-67785714D02*
X75395295Y-67833333D01*
X75395295Y-67833333D02*
X75300057Y-67880952D01*
X75300057Y-67880952D02*
X75252438Y-67928571D01*
X75252438Y-67928571D02*
X75204819Y-68023809D01*
X75538152Y-68785714D02*
X76204819Y-68785714D01*
X75633390Y-68785714D02*
X75585771Y-68833333D01*
X75585771Y-68833333D02*
X75538152Y-68928571D01*
X75538152Y-68928571D02*
X75538152Y-69071428D01*
X75538152Y-69071428D02*
X75585771Y-69166666D01*
X75585771Y-69166666D02*
X75681009Y-69214285D01*
X75681009Y-69214285D02*
X76204819Y-69214285D01*
X75681009Y-70023809D02*
X75681009Y-69690476D01*
X76204819Y-69690476D02*
X75204819Y-69690476D01*
X75204819Y-69690476D02*
X75204819Y-70166666D01*
X68916666Y-75454819D02*
X69249999Y-74978628D01*
X69488094Y-75454819D02*
X69488094Y-74454819D01*
X69488094Y-74454819D02*
X69107142Y-74454819D01*
X69107142Y-74454819D02*
X69011904Y-74502438D01*
X69011904Y-74502438D02*
X68964285Y-74550057D01*
X68964285Y-74550057D02*
X68916666Y-74645295D01*
X68916666Y-74645295D02*
X68916666Y-74788152D01*
X68916666Y-74788152D02*
X68964285Y-74883390D01*
X68964285Y-74883390D02*
X69011904Y-74931009D01*
X69011904Y-74931009D02*
X69107142Y-74978628D01*
X69107142Y-74978628D02*
X69488094Y-74978628D01*
X67964285Y-75454819D02*
X68535713Y-75454819D01*
X68249999Y-75454819D02*
X68249999Y-74454819D01*
X68249999Y-74454819D02*
X68345237Y-74597676D01*
X68345237Y-74597676D02*
X68440475Y-74692914D01*
X68440475Y-74692914D02*
X68535713Y-74740533D01*
X68204819Y-79285714D02*
X68204819Y-79904761D01*
X68204819Y-79904761D02*
X68585771Y-79571428D01*
X68585771Y-79571428D02*
X68585771Y-79714285D01*
X68585771Y-79714285D02*
X68633390Y-79809523D01*
X68633390Y-79809523D02*
X68681009Y-79857142D01*
X68681009Y-79857142D02*
X68776247Y-79904761D01*
X68776247Y-79904761D02*
X69014342Y-79904761D01*
X69014342Y-79904761D02*
X69109580Y-79857142D01*
X69109580Y-79857142D02*
X69157200Y-79809523D01*
X69157200Y-79809523D02*
X69204819Y-79714285D01*
X69204819Y-79714285D02*
X69204819Y-79428571D01*
X69204819Y-79428571D02*
X69157200Y-79333333D01*
X69157200Y-79333333D02*
X69109580Y-79285714D01*
X68204819Y-80238095D02*
X68204819Y-80857142D01*
X68204819Y-80857142D02*
X68585771Y-80523809D01*
X68585771Y-80523809D02*
X68585771Y-80666666D01*
X68585771Y-80666666D02*
X68633390Y-80761904D01*
X68633390Y-80761904D02*
X68681009Y-80809523D01*
X68681009Y-80809523D02*
X68776247Y-80857142D01*
X68776247Y-80857142D02*
X69014342Y-80857142D01*
X69014342Y-80857142D02*
X69109580Y-80809523D01*
X69109580Y-80809523D02*
X69157200Y-80761904D01*
X69157200Y-80761904D02*
X69204819Y-80666666D01*
X69204819Y-80666666D02*
X69204819Y-80380952D01*
X69204819Y-80380952D02*
X69157200Y-80285714D01*
X69157200Y-80285714D02*
X69109580Y-80238095D01*
X69204819Y-81285714D02*
X68204819Y-81285714D01*
X68823866Y-81380952D02*
X69204819Y-81666666D01*
X68538152Y-81666666D02*
X68919104Y-81285714D01*
X87166666Y-154574819D02*
X87499999Y-154098628D01*
X87738094Y-154574819D02*
X87738094Y-153574819D01*
X87738094Y-153574819D02*
X87357142Y-153574819D01*
X87357142Y-153574819D02*
X87261904Y-153622438D01*
X87261904Y-153622438D02*
X87214285Y-153670057D01*
X87214285Y-153670057D02*
X87166666Y-153765295D01*
X87166666Y-153765295D02*
X87166666Y-153908152D01*
X87166666Y-153908152D02*
X87214285Y-154003390D01*
X87214285Y-154003390D02*
X87261904Y-154051009D01*
X87261904Y-154051009D02*
X87357142Y-154098628D01*
X87357142Y-154098628D02*
X87738094Y-154098628D01*
X86595237Y-154003390D02*
X86690475Y-153955771D01*
X86690475Y-153955771D02*
X86738094Y-153908152D01*
X86738094Y-153908152D02*
X86785713Y-153812914D01*
X86785713Y-153812914D02*
X86785713Y-153765295D01*
X86785713Y-153765295D02*
X86738094Y-153670057D01*
X86738094Y-153670057D02*
X86690475Y-153622438D01*
X86690475Y-153622438D02*
X86595237Y-153574819D01*
X86595237Y-153574819D02*
X86404761Y-153574819D01*
X86404761Y-153574819D02*
X86309523Y-153622438D01*
X86309523Y-153622438D02*
X86261904Y-153670057D01*
X86261904Y-153670057D02*
X86214285Y-153765295D01*
X86214285Y-153765295D02*
X86214285Y-153812914D01*
X86214285Y-153812914D02*
X86261904Y-153908152D01*
X86261904Y-153908152D02*
X86309523Y-153955771D01*
X86309523Y-153955771D02*
X86404761Y-154003390D01*
X86404761Y-154003390D02*
X86595237Y-154003390D01*
X86595237Y-154003390D02*
X86690475Y-154051009D01*
X86690475Y-154051009D02*
X86738094Y-154098628D01*
X86738094Y-154098628D02*
X86785713Y-154193866D01*
X86785713Y-154193866D02*
X86785713Y-154384342D01*
X86785713Y-154384342D02*
X86738094Y-154479580D01*
X86738094Y-154479580D02*
X86690475Y-154527200D01*
X86690475Y-154527200D02*
X86595237Y-154574819D01*
X86595237Y-154574819D02*
X86404761Y-154574819D01*
X86404761Y-154574819D02*
X86309523Y-154527200D01*
X86309523Y-154527200D02*
X86261904Y-154479580D01*
X86261904Y-154479580D02*
X86214285Y-154384342D01*
X86214285Y-154384342D02*
X86214285Y-154193866D01*
X86214285Y-154193866D02*
X86261904Y-154098628D01*
X86261904Y-154098628D02*
X86309523Y-154051009D01*
X86309523Y-154051009D02*
X86404761Y-154003390D01*
X87690476Y-151538152D02*
X87690476Y-152204819D01*
X87928571Y-151157200D02*
X88166666Y-151871485D01*
X88166666Y-151871485D02*
X87547619Y-151871485D01*
X87166666Y-152204819D02*
X87166666Y-151204819D01*
X87071428Y-151823866D02*
X86785714Y-152204819D01*
X86785714Y-151538152D02*
X87166666Y-151919104D01*
X86452380Y-151204819D02*
X85785714Y-151204819D01*
X85785714Y-151204819D02*
X86214285Y-152204819D01*
X80785714Y-52704819D02*
X80785714Y-53419104D01*
X80785714Y-53419104D02*
X80833333Y-53561961D01*
X80833333Y-53561961D02*
X80928571Y-53657200D01*
X80928571Y-53657200D02*
X81071428Y-53704819D01*
X81071428Y-53704819D02*
X81166666Y-53704819D01*
X79785714Y-53704819D02*
X80357142Y-53704819D01*
X80071428Y-53704819D02*
X80071428Y-52704819D01*
X80071428Y-52704819D02*
X80166666Y-52847676D01*
X80166666Y-52847676D02*
X80261904Y-52942914D01*
X80261904Y-52942914D02*
X80357142Y-52990533D01*
X79166666Y-52704819D02*
X79071428Y-52704819D01*
X79071428Y-52704819D02*
X78976190Y-52752438D01*
X78976190Y-52752438D02*
X78928571Y-52800057D01*
X78928571Y-52800057D02*
X78880952Y-52895295D01*
X78880952Y-52895295D02*
X78833333Y-53085771D01*
X78833333Y-53085771D02*
X78833333Y-53323866D01*
X78833333Y-53323866D02*
X78880952Y-53514342D01*
X78880952Y-53514342D02*
X78928571Y-53609580D01*
X78928571Y-53609580D02*
X78976190Y-53657200D01*
X78976190Y-53657200D02*
X79071428Y-53704819D01*
X79071428Y-53704819D02*
X79166666Y-53704819D01*
X79166666Y-53704819D02*
X79261904Y-53657200D01*
X79261904Y-53657200D02*
X79309523Y-53609580D01*
X79309523Y-53609580D02*
X79357142Y-53514342D01*
X79357142Y-53514342D02*
X79404761Y-53323866D01*
X79404761Y-53323866D02*
X79404761Y-53085771D01*
X79404761Y-53085771D02*
X79357142Y-52895295D01*
X79357142Y-52895295D02*
X79309523Y-52800057D01*
X79309523Y-52800057D02*
X79261904Y-52752438D01*
X79261904Y-52752438D02*
X79166666Y-52704819D01*
X78214285Y-52704819D02*
X78119047Y-52704819D01*
X78119047Y-52704819D02*
X78023809Y-52752438D01*
X78023809Y-52752438D02*
X77976190Y-52800057D01*
X77976190Y-52800057D02*
X77928571Y-52895295D01*
X77928571Y-52895295D02*
X77880952Y-53085771D01*
X77880952Y-53085771D02*
X77880952Y-53323866D01*
X77880952Y-53323866D02*
X77928571Y-53514342D01*
X77928571Y-53514342D02*
X77976190Y-53609580D01*
X77976190Y-53609580D02*
X78023809Y-53657200D01*
X78023809Y-53657200D02*
X78119047Y-53704819D01*
X78119047Y-53704819D02*
X78214285Y-53704819D01*
X78214285Y-53704819D02*
X78309523Y-53657200D01*
X78309523Y-53657200D02*
X78357142Y-53609580D01*
X78357142Y-53609580D02*
X78404761Y-53514342D01*
X78404761Y-53514342D02*
X78452380Y-53323866D01*
X78452380Y-53323866D02*
X78452380Y-53085771D01*
X78452380Y-53085771D02*
X78404761Y-52895295D01*
X78404761Y-52895295D02*
X78357142Y-52800057D01*
X78357142Y-52800057D02*
X78309523Y-52752438D01*
X78309523Y-52752438D02*
X78214285Y-52704819D01*
X94159819Y-164165476D02*
X94874104Y-164165476D01*
X94874104Y-164165476D02*
X95016961Y-164117857D01*
X95016961Y-164117857D02*
X95112200Y-164022619D01*
X95112200Y-164022619D02*
X95159819Y-163879762D01*
X95159819Y-163879762D02*
X95159819Y-163784524D01*
X94159819Y-165070238D02*
X94159819Y-164879762D01*
X94159819Y-164879762D02*
X94207438Y-164784524D01*
X94207438Y-164784524D02*
X94255057Y-164736905D01*
X94255057Y-164736905D02*
X94397914Y-164641667D01*
X94397914Y-164641667D02*
X94588390Y-164594048D01*
X94588390Y-164594048D02*
X94969342Y-164594048D01*
X94969342Y-164594048D02*
X95064580Y-164641667D01*
X95064580Y-164641667D02*
X95112200Y-164689286D01*
X95112200Y-164689286D02*
X95159819Y-164784524D01*
X95159819Y-164784524D02*
X95159819Y-164975000D01*
X95159819Y-164975000D02*
X95112200Y-165070238D01*
X95112200Y-165070238D02*
X95064580Y-165117857D01*
X95064580Y-165117857D02*
X94969342Y-165165476D01*
X94969342Y-165165476D02*
X94731247Y-165165476D01*
X94731247Y-165165476D02*
X94636009Y-165117857D01*
X94636009Y-165117857D02*
X94588390Y-165070238D01*
X94588390Y-165070238D02*
X94540771Y-164975000D01*
X94540771Y-164975000D02*
X94540771Y-164784524D01*
X94540771Y-164784524D02*
X94588390Y-164689286D01*
X94588390Y-164689286D02*
X94636009Y-164641667D01*
X94636009Y-164641667D02*
X94731247Y-164594048D01*
X94159819Y-165784524D02*
X94159819Y-165879762D01*
X94159819Y-165879762D02*
X94207438Y-165975000D01*
X94207438Y-165975000D02*
X94255057Y-166022619D01*
X94255057Y-166022619D02*
X94350295Y-166070238D01*
X94350295Y-166070238D02*
X94540771Y-166117857D01*
X94540771Y-166117857D02*
X94778866Y-166117857D01*
X94778866Y-166117857D02*
X94969342Y-166070238D01*
X94969342Y-166070238D02*
X95064580Y-166022619D01*
X95064580Y-166022619D02*
X95112200Y-165975000D01*
X95112200Y-165975000D02*
X95159819Y-165879762D01*
X95159819Y-165879762D02*
X95159819Y-165784524D01*
X95159819Y-165784524D02*
X95112200Y-165689286D01*
X95112200Y-165689286D02*
X95064580Y-165641667D01*
X95064580Y-165641667D02*
X94969342Y-165594048D01*
X94969342Y-165594048D02*
X94778866Y-165546429D01*
X94778866Y-165546429D02*
X94540771Y-165546429D01*
X94540771Y-165546429D02*
X94350295Y-165594048D01*
X94350295Y-165594048D02*
X94255057Y-165641667D01*
X94255057Y-165641667D02*
X94207438Y-165689286D01*
X94207438Y-165689286D02*
X94159819Y-165784524D01*
X74416666Y-58109580D02*
X74464285Y-58157200D01*
X74464285Y-58157200D02*
X74607142Y-58204819D01*
X74607142Y-58204819D02*
X74702380Y-58204819D01*
X74702380Y-58204819D02*
X74845237Y-58157200D01*
X74845237Y-58157200D02*
X74940475Y-58061961D01*
X74940475Y-58061961D02*
X74988094Y-57966723D01*
X74988094Y-57966723D02*
X75035713Y-57776247D01*
X75035713Y-57776247D02*
X75035713Y-57633390D01*
X75035713Y-57633390D02*
X74988094Y-57442914D01*
X74988094Y-57442914D02*
X74940475Y-57347676D01*
X74940475Y-57347676D02*
X74845237Y-57252438D01*
X74845237Y-57252438D02*
X74702380Y-57204819D01*
X74702380Y-57204819D02*
X74607142Y-57204819D01*
X74607142Y-57204819D02*
X74464285Y-57252438D01*
X74464285Y-57252438D02*
X74416666Y-57300057D01*
X73464285Y-58204819D02*
X74035713Y-58204819D01*
X73749999Y-58204819D02*
X73749999Y-57204819D01*
X73749999Y-57204819D02*
X73845237Y-57347676D01*
X73845237Y-57347676D02*
X73940475Y-57442914D01*
X73940475Y-57442914D02*
X74035713Y-57490533D01*
X75916666Y-50288152D02*
X75916666Y-50954819D01*
X76154761Y-49907200D02*
X76392856Y-50621485D01*
X76392856Y-50621485D02*
X75773809Y-50621485D01*
X75488094Y-49954819D02*
X74821428Y-49954819D01*
X74821428Y-49954819D02*
X75249999Y-50954819D01*
X74011904Y-50288152D02*
X74011904Y-50954819D01*
X74440475Y-50288152D02*
X74440475Y-50811961D01*
X74440475Y-50811961D02*
X74392856Y-50907200D01*
X74392856Y-50907200D02*
X74297618Y-50954819D01*
X74297618Y-50954819D02*
X74154761Y-50954819D01*
X74154761Y-50954819D02*
X74059523Y-50907200D01*
X74059523Y-50907200D02*
X74011904Y-50859580D01*
X73202380Y-50431009D02*
X73535713Y-50431009D01*
X73535713Y-50954819D02*
X73535713Y-49954819D01*
X73535713Y-49954819D02*
X73059523Y-49954819D01*
X87954819Y-112214285D02*
X88669104Y-112214285D01*
X88669104Y-112214285D02*
X88811961Y-112166666D01*
X88811961Y-112166666D02*
X88907200Y-112071428D01*
X88907200Y-112071428D02*
X88954819Y-111928571D01*
X88954819Y-111928571D02*
X88954819Y-111833333D01*
X88050057Y-112642857D02*
X88002438Y-112690476D01*
X88002438Y-112690476D02*
X87954819Y-112785714D01*
X87954819Y-112785714D02*
X87954819Y-113023809D01*
X87954819Y-113023809D02*
X88002438Y-113119047D01*
X88002438Y-113119047D02*
X88050057Y-113166666D01*
X88050057Y-113166666D02*
X88145295Y-113214285D01*
X88145295Y-113214285D02*
X88240533Y-113214285D01*
X88240533Y-113214285D02*
X88383390Y-113166666D01*
X88383390Y-113166666D02*
X88954819Y-112595238D01*
X88954819Y-112595238D02*
X88954819Y-113214285D01*
X87954819Y-113833333D02*
X87954819Y-113928571D01*
X87954819Y-113928571D02*
X88002438Y-114023809D01*
X88002438Y-114023809D02*
X88050057Y-114071428D01*
X88050057Y-114071428D02*
X88145295Y-114119047D01*
X88145295Y-114119047D02*
X88335771Y-114166666D01*
X88335771Y-114166666D02*
X88573866Y-114166666D01*
X88573866Y-114166666D02*
X88764342Y-114119047D01*
X88764342Y-114119047D02*
X88859580Y-114071428D01*
X88859580Y-114071428D02*
X88907200Y-114023809D01*
X88907200Y-114023809D02*
X88954819Y-113928571D01*
X88954819Y-113928571D02*
X88954819Y-113833333D01*
X88954819Y-113833333D02*
X88907200Y-113738095D01*
X88907200Y-113738095D02*
X88859580Y-113690476D01*
X88859580Y-113690476D02*
X88764342Y-113642857D01*
X88764342Y-113642857D02*
X88573866Y-113595238D01*
X88573866Y-113595238D02*
X88335771Y-113595238D01*
X88335771Y-113595238D02*
X88145295Y-113642857D01*
X88145295Y-113642857D02*
X88050057Y-113690476D01*
X88050057Y-113690476D02*
X88002438Y-113738095D01*
X88002438Y-113738095D02*
X87954819Y-113833333D01*
X87954819Y-114785714D02*
X87954819Y-114880952D01*
X87954819Y-114880952D02*
X88002438Y-114976190D01*
X88002438Y-114976190D02*
X88050057Y-115023809D01*
X88050057Y-115023809D02*
X88145295Y-115071428D01*
X88145295Y-115071428D02*
X88335771Y-115119047D01*
X88335771Y-115119047D02*
X88573866Y-115119047D01*
X88573866Y-115119047D02*
X88764342Y-115071428D01*
X88764342Y-115071428D02*
X88859580Y-115023809D01*
X88859580Y-115023809D02*
X88907200Y-114976190D01*
X88907200Y-114976190D02*
X88954819Y-114880952D01*
X88954819Y-114880952D02*
X88954819Y-114785714D01*
X88954819Y-114785714D02*
X88907200Y-114690476D01*
X88907200Y-114690476D02*
X88859580Y-114642857D01*
X88859580Y-114642857D02*
X88764342Y-114595238D01*
X88764342Y-114595238D02*
X88573866Y-114547619D01*
X88573866Y-114547619D02*
X88335771Y-114547619D01*
X88335771Y-114547619D02*
X88145295Y-114595238D01*
X88145295Y-114595238D02*
X88050057Y-114642857D01*
X88050057Y-114642857D02*
X88002438Y-114690476D01*
X88002438Y-114690476D02*
X87954819Y-114785714D01*
D13*
%TO.C,R4*%
X74980000Y-117630000D02*
X74980000Y-117960000D01*
X74980000Y-120370000D02*
X74980000Y-120040000D01*
X81520000Y-117630000D02*
X74980000Y-117630000D01*
X81520000Y-117960000D02*
X81520000Y-117630000D01*
X81520000Y-120040000D02*
X81520000Y-120370000D01*
X81520000Y-120370000D02*
X74980000Y-120370000D01*
%TO.C,RV4*%
X67460000Y-72375000D02*
X67460000Y-62605000D01*
X72530000Y-62605000D02*
X67460000Y-62605000D01*
X72530000Y-72375000D02*
X67460000Y-72375000D01*
X72530000Y-72375000D02*
X72530000Y-62605000D01*
%TO.C,R6*%
X84230000Y-87380000D02*
X84230000Y-87710000D01*
X84230000Y-90120000D02*
X84230000Y-89790000D01*
X90770000Y-87380000D02*
X84230000Y-87380000D01*
X90770000Y-87710000D02*
X90770000Y-87380000D01*
X90770000Y-89790000D02*
X90770000Y-90120000D01*
X90770000Y-90120000D02*
X84230000Y-90120000D01*
%TO.C,RV6*%
X93720000Y-80865000D02*
X93720000Y-90635000D01*
X93720000Y-80865000D02*
X98790000Y-80865000D01*
X93720000Y-90635000D02*
X98790000Y-90635000D01*
X98790000Y-80865000D02*
X98790000Y-90635000D01*
%TO.C,J50*%
X67670000Y-93270000D02*
X67670000Y-111110000D01*
X70330000Y-90670000D02*
X69000000Y-90670000D01*
X70330000Y-92000000D02*
X70330000Y-90670000D01*
X70330000Y-93270000D02*
X67670000Y-93270000D01*
X70330000Y-93270000D02*
X70330000Y-111110000D01*
X70330000Y-111110000D02*
X67670000Y-111110000D01*
%TO.C,C4*%
X89180000Y-69770000D02*
X89180000Y-65230000D01*
X89195000Y-65230000D02*
X89180000Y-65230000D01*
X89195000Y-69770000D02*
X89180000Y-69770000D01*
X91320000Y-65230000D02*
X91305000Y-65230000D01*
X91320000Y-69770000D02*
X91305000Y-69770000D01*
X91320000Y-69770000D02*
X91320000Y-65230000D01*
%TO.C,D3*%
X69130000Y-159130000D02*
X71370000Y-159130000D01*
X69130000Y-159730000D02*
X71370000Y-159730000D01*
X69130000Y-159850000D02*
X71370000Y-159850000D01*
X69130000Y-159970000D02*
X71370000Y-159970000D01*
X69130000Y-163370000D02*
X69130000Y-159130000D01*
X70250000Y-158480000D02*
X70250000Y-159130000D01*
X70250000Y-164020000D02*
X70250000Y-163370000D01*
X71370000Y-159130000D02*
X71370000Y-163370000D01*
X71370000Y-163370000D02*
X69130000Y-163370000D01*
%TO.C,R7*%
X68880000Y-147980000D02*
X69210000Y-147980000D01*
X68880000Y-154520000D02*
X68880000Y-147980000D01*
X69210000Y-154520000D02*
X68880000Y-154520000D01*
X71290000Y-154520000D02*
X71620000Y-154520000D01*
X71620000Y-147980000D02*
X71290000Y-147980000D01*
X71620000Y-154520000D02*
X71620000Y-147980000D01*
%TO.C,D5*%
X74480000Y-157250000D02*
X75130000Y-157250000D01*
X75130000Y-156130000D02*
X79370000Y-156130000D01*
X75130000Y-158370000D02*
X75130000Y-156130000D01*
X78530000Y-156130000D02*
X78530000Y-158370000D01*
X78650000Y-156130000D02*
X78650000Y-158370000D01*
X78770000Y-156130000D02*
X78770000Y-158370000D01*
X79370000Y-156130000D02*
X79370000Y-158370000D01*
X79370000Y-158370000D02*
X75130000Y-158370000D01*
X80020000Y-157250000D02*
X79370000Y-157250000D01*
%TO.C,D2*%
X95530000Y-56780000D02*
X95530000Y-62220000D01*
X95530000Y-62220000D02*
X98470000Y-62220000D01*
X97000000Y-56780000D02*
X97000000Y-55760000D01*
X97000000Y-62220000D02*
X97000000Y-63240000D01*
X98470000Y-56780000D02*
X95530000Y-56780000D01*
X98470000Y-57560000D02*
X95530000Y-57560000D01*
X98470000Y-57680000D02*
X95530000Y-57680000D01*
X98470000Y-57800000D02*
X95530000Y-57800000D01*
X98470000Y-62220000D02*
X98470000Y-56780000D01*
%TO.C,R9*%
X83730000Y-155880000D02*
X90270000Y-155880000D01*
X83730000Y-156210000D02*
X83730000Y-155880000D01*
X83730000Y-158290000D02*
X83730000Y-158620000D01*
X83730000Y-158620000D02*
X90270000Y-158620000D01*
X90270000Y-155880000D02*
X90270000Y-156210000D01*
X90270000Y-158620000D02*
X90270000Y-158290000D01*
%TO.C,R2*%
X70630000Y-77230000D02*
X70630000Y-83770000D01*
X70630000Y-83770000D02*
X70960000Y-83770000D01*
X70960000Y-77230000D02*
X70630000Y-77230000D01*
X73040000Y-77230000D02*
X73370000Y-77230000D01*
X73370000Y-77230000D02*
X73370000Y-83770000D01*
X73370000Y-83770000D02*
X73040000Y-83770000D01*
%TO.C,RV5*%
X93720000Y-70575000D02*
X93720000Y-80345000D01*
X93720000Y-70575000D02*
X98790000Y-70575000D01*
X93720000Y-80345000D02*
X98790000Y-80345000D01*
X98790000Y-70575000D02*
X98790000Y-80345000D01*
%TO.C,U1*%
X75305000Y-77850000D02*
X93205000Y-77850000D01*
X75305000Y-79500000D02*
X75305000Y-77850000D01*
X75305000Y-83150000D02*
X75305000Y-81500000D01*
X93205000Y-77850000D02*
X93205000Y-83150000D01*
X93205000Y-83150000D02*
X75305000Y-83150000D01*
X75245000Y-75360000D02*
X93265000Y-75360000D01*
X93265000Y-85640000D01*
X75245000Y-85640000D01*
X75245000Y-75360000D01*
X75305000Y-79500000D02*
G75*
G02*
X75305000Y-81500000I0J-1000000D01*
G01*
%TO.C,D1*%
X68280000Y-47280000D02*
X68280000Y-52720000D01*
X68280000Y-51700000D02*
X71220000Y-51700000D01*
X68280000Y-51820000D02*
X71220000Y-51820000D01*
X68280000Y-51940000D02*
X71220000Y-51940000D01*
X68280000Y-52720000D02*
X71220000Y-52720000D01*
X69750000Y-47280000D02*
X69750000Y-46260000D01*
X69750000Y-52720000D02*
X69750000Y-53740000D01*
X71220000Y-47280000D02*
X68280000Y-47280000D01*
X71220000Y-52720000D02*
X71220000Y-47280000D01*
%TO.C,R3*%
X74980000Y-112880000D02*
X74980000Y-113210000D01*
X74980000Y-115620000D02*
X74980000Y-115290000D01*
X81520000Y-112880000D02*
X74980000Y-112880000D01*
X81520000Y-113210000D02*
X81520000Y-112880000D01*
X81520000Y-115290000D02*
X81520000Y-115620000D01*
X81520000Y-115620000D02*
X74980000Y-115620000D01*
%TO.C,R5*%
X74980000Y-122380000D02*
X81520000Y-122380000D01*
X74980000Y-122710000D02*
X74980000Y-122380000D01*
X74980000Y-124790000D02*
X74980000Y-125120000D01*
X74980000Y-125120000D02*
X81520000Y-125120000D01*
X81520000Y-122380000D02*
X81520000Y-122710000D01*
X81520000Y-125120000D02*
X81520000Y-124790000D01*
%TO.C,C2*%
X89920000Y-55415113D02*
X91460000Y-55415113D01*
X89920000Y-55455113D02*
X91460000Y-55455113D01*
X89921000Y-55375113D02*
X91460000Y-55375113D01*
X89922000Y-55335113D02*
X91460000Y-55335113D01*
X89924000Y-55295113D02*
X91460000Y-55295113D01*
X89927000Y-55255113D02*
X91460000Y-55255113D01*
X89931000Y-55215113D02*
X91460000Y-55215113D01*
X89935000Y-55175113D02*
X91460000Y-55175113D01*
X89939000Y-55135113D02*
X91460000Y-55135113D01*
X89944000Y-55095113D02*
X91460000Y-55095113D01*
X89950000Y-55055113D02*
X91460000Y-55055113D01*
X89957000Y-55015113D02*
X91460000Y-55015113D01*
X89964000Y-54975113D02*
X91460000Y-54975113D01*
X89972000Y-54935113D02*
X91460000Y-54935113D01*
X89980000Y-54895113D02*
X91460000Y-54895113D01*
X89989000Y-54855113D02*
X91460000Y-54855113D01*
X89999000Y-54815113D02*
X91460000Y-54815113D01*
X90009000Y-54775113D02*
X91460000Y-54775113D01*
X90020000Y-54734113D02*
X91460000Y-54734113D01*
X90032000Y-54694113D02*
X91460000Y-54694113D01*
X90045000Y-54654113D02*
X91460000Y-54654113D01*
X90058000Y-54614113D02*
X91460000Y-54614113D01*
X90072000Y-54574113D02*
X91460000Y-54574113D01*
X90086000Y-54534113D02*
X91460000Y-54534113D01*
X90102000Y-54494113D02*
X91460000Y-54494113D01*
X90118000Y-54454113D02*
X91460000Y-54454113D01*
X90135000Y-54414113D02*
X91460000Y-54414113D01*
X90152000Y-54374113D02*
X91460000Y-54374113D01*
X90171000Y-54334113D02*
X91460000Y-54334113D01*
X90190000Y-54294113D02*
X91460000Y-54294113D01*
X90210000Y-54254113D02*
X91460000Y-54254113D01*
X90232000Y-54214113D02*
X91460000Y-54214113D01*
X90253000Y-54174113D02*
X91460000Y-54174113D01*
X90276000Y-54134113D02*
X91460000Y-54134113D01*
X90300000Y-54094113D02*
X91460000Y-54094113D01*
X90325000Y-54054113D02*
X91460000Y-54054113D01*
X90351000Y-54014113D02*
X91460000Y-54014113D01*
X90378000Y-53974113D02*
X91460000Y-53974113D01*
X90405000Y-53934113D02*
X91460000Y-53934113D01*
X90435000Y-53894113D02*
X91460000Y-53894113D01*
X90465000Y-53854113D02*
X91460000Y-53854113D01*
X90496000Y-53814113D02*
X91460000Y-53814113D01*
X90529000Y-53774113D02*
X91460000Y-53774113D01*
X90563000Y-53734113D02*
X91460000Y-53734113D01*
X90599000Y-53694113D02*
X91460000Y-53694113D01*
X90636000Y-53654113D02*
X91460000Y-53654113D01*
X90674000Y-53614113D02*
X91460000Y-53614113D01*
X90715000Y-53574113D02*
X91460000Y-53574113D01*
X90757000Y-53534113D02*
X91460000Y-53534113D01*
X90801000Y-53494113D02*
X91460000Y-53494113D01*
X90847000Y-53454113D02*
X91460000Y-53454113D01*
X90895000Y-53414113D02*
X94105000Y-53414113D01*
X90946000Y-53374113D02*
X94054000Y-53374113D01*
X91000000Y-53334113D02*
X94000000Y-53334113D01*
X91057000Y-53294113D02*
X93943000Y-53294113D01*
X91117000Y-53254113D02*
X93883000Y-53254113D01*
X91181000Y-53214113D02*
X93819000Y-53214113D01*
X91249000Y-53174113D02*
X93751000Y-53174113D01*
X91322000Y-53134113D02*
X93678000Y-53134113D01*
X91402000Y-53094113D02*
X93598000Y-53094113D01*
X91489000Y-53054113D02*
X93511000Y-53054113D01*
X91585000Y-53014113D02*
X93415000Y-53014113D01*
X91695000Y-52974113D02*
X93305000Y-52974113D01*
X91823000Y-52934113D02*
X93177000Y-52934113D01*
X91982000Y-52894113D02*
X93018000Y-52894113D01*
X92216000Y-52854113D02*
X92784000Y-52854113D01*
X93540000Y-53454113D02*
X94153000Y-53454113D01*
X93540000Y-53494113D02*
X94199000Y-53494113D01*
X93540000Y-53534113D02*
X94243000Y-53534113D01*
X93540000Y-53574113D02*
X94285000Y-53574113D01*
X93540000Y-53614113D02*
X94326000Y-53614113D01*
X93540000Y-53654113D02*
X94364000Y-53654113D01*
X93540000Y-53694113D02*
X94401000Y-53694113D01*
X93540000Y-53734113D02*
X94437000Y-53734113D01*
X93540000Y-53774113D02*
X94471000Y-53774113D01*
X93540000Y-53814113D02*
X94504000Y-53814113D01*
X93540000Y-53854113D02*
X94535000Y-53854113D01*
X93540000Y-53894113D02*
X94565000Y-53894113D01*
X93540000Y-53934113D02*
X94595000Y-53934113D01*
X93540000Y-53974113D02*
X94622000Y-53974113D01*
X93540000Y-54014113D02*
X94649000Y-54014113D01*
X93540000Y-54054113D02*
X94675000Y-54054113D01*
X93540000Y-54094113D02*
X94700000Y-54094113D01*
X93540000Y-54134113D02*
X94724000Y-54134113D01*
X93540000Y-54174113D02*
X94747000Y-54174113D01*
X93540000Y-54214113D02*
X94768000Y-54214113D01*
X93540000Y-54254113D02*
X94790000Y-54254113D01*
X93540000Y-54294113D02*
X94810000Y-54294113D01*
X93540000Y-54334113D02*
X94829000Y-54334113D01*
X93540000Y-54374113D02*
X94848000Y-54374113D01*
X93540000Y-54414113D02*
X94865000Y-54414113D01*
X93540000Y-54454113D02*
X94882000Y-54454113D01*
X93540000Y-54494113D02*
X94898000Y-54494113D01*
X93540000Y-54534113D02*
X94914000Y-54534113D01*
X93540000Y-54574113D02*
X94928000Y-54574113D01*
X93540000Y-54614113D02*
X94942000Y-54614113D01*
X93540000Y-54654113D02*
X94955000Y-54654113D01*
X93540000Y-54694113D02*
X94968000Y-54694113D01*
X93540000Y-54734113D02*
X94980000Y-54734113D01*
X93540000Y-54775113D02*
X94991000Y-54775113D01*
X93540000Y-54815113D02*
X95001000Y-54815113D01*
X93540000Y-54855113D02*
X95011000Y-54855113D01*
X93540000Y-54895113D02*
X95020000Y-54895113D01*
X93540000Y-54935113D02*
X95028000Y-54935113D01*
X93540000Y-54975113D02*
X95036000Y-54975113D01*
X93540000Y-55015113D02*
X95043000Y-55015113D01*
X93540000Y-55055113D02*
X95050000Y-55055113D01*
X93540000Y-55095113D02*
X95056000Y-55095113D01*
X93540000Y-55135113D02*
X95061000Y-55135113D01*
X93540000Y-55175113D02*
X95065000Y-55175113D01*
X93540000Y-55215113D02*
X95069000Y-55215113D01*
X93540000Y-55255113D02*
X95073000Y-55255113D01*
X93540000Y-55295113D02*
X95076000Y-55295113D01*
X93540000Y-55335113D02*
X95078000Y-55335113D01*
X93540000Y-55375113D02*
X95079000Y-55375113D01*
X93540000Y-55415113D02*
X95080000Y-55415113D01*
X93540000Y-55455113D02*
X95080000Y-55455113D01*
X93725000Y-58009888D02*
X94225000Y-58009888D01*
X93975000Y-57759888D02*
X93975000Y-58259888D01*
X95120000Y-55455113D02*
G75*
G02*
X89880000Y-55455113I-2620000J0D01*
G01*
X89880000Y-55455113D02*
G75*
G02*
X95120000Y-55455113I2620000J0D01*
G01*
%TO.C,D4*%
X74480000Y-151750000D02*
X75130000Y-151750000D01*
X75130000Y-150630000D02*
X79370000Y-150630000D01*
X75130000Y-152870000D02*
X75130000Y-150630000D01*
X78530000Y-150630000D02*
X78530000Y-152870000D01*
X78650000Y-150630000D02*
X78650000Y-152870000D01*
X78770000Y-150630000D02*
X78770000Y-152870000D01*
X79370000Y-150630000D02*
X79370000Y-152870000D01*
X79370000Y-152870000D02*
X75130000Y-152870000D01*
X80020000Y-151750000D02*
X79370000Y-151750000D01*
%TO.C,C3*%
X74680000Y-65230000D02*
X74680000Y-69770000D01*
X74680000Y-65230000D02*
X74695000Y-65230000D01*
X74680000Y-69770000D02*
X74695000Y-69770000D01*
X76805000Y-65230000D02*
X76820000Y-65230000D01*
X76805000Y-69770000D02*
X76820000Y-69770000D01*
X76820000Y-65230000D02*
X76820000Y-69770000D01*
%TO.C,R1*%
X67380000Y-77230000D02*
X67710000Y-77230000D01*
X67380000Y-83770000D02*
X67380000Y-77230000D01*
X67710000Y-83770000D02*
X67380000Y-83770000D01*
X69790000Y-83770000D02*
X70120000Y-83770000D01*
X70120000Y-77230000D02*
X69790000Y-77230000D01*
X70120000Y-83770000D02*
X70120000Y-77230000D01*
%TO.C,R8*%
X83730000Y-150380000D02*
X90270000Y-150380000D01*
X83730000Y-150710000D02*
X83730000Y-150380000D01*
X83730000Y-152790000D02*
X83730000Y-153120000D01*
X83730000Y-153120000D02*
X90270000Y-153120000D01*
X90270000Y-150380000D02*
X90270000Y-150710000D01*
X90270000Y-153120000D02*
X90270000Y-152790000D01*
%TO.C,J100*%
X77710000Y-43172500D02*
X98290000Y-43172500D01*
X77710000Y-52292500D02*
X77710000Y-43172500D01*
X79010000Y-44482500D02*
X96990000Y-44482500D01*
X79010000Y-50982500D02*
X79010000Y-44482500D01*
X85950000Y-50982500D02*
X79010000Y-50982500D01*
X85950000Y-50982500D02*
X85950000Y-50982500D01*
X85950000Y-52292500D02*
X85950000Y-50982500D01*
X90050000Y-50982500D02*
X90050000Y-52292500D01*
X94780000Y-53682500D02*
X95780000Y-53682500D01*
X95280000Y-52682500D02*
X94780000Y-53682500D01*
X95780000Y-53682500D02*
X95280000Y-52682500D01*
X96990000Y-44482500D02*
X96990000Y-50982500D01*
X96990000Y-50982500D02*
X90050000Y-50982500D01*
X98290000Y-43172500D02*
X98290000Y-52292500D01*
X98290000Y-52292500D02*
X77710000Y-52292500D01*
%TO.C,J60*%
X73265000Y-166305000D02*
X73265000Y-163645000D01*
X91105000Y-163645000D02*
X73265000Y-163645000D01*
X91105000Y-166305000D02*
X73265000Y-166305000D01*
X91105000Y-166305000D02*
X91105000Y-163645000D01*
X92375000Y-166305000D02*
X93705000Y-166305000D01*
X93705000Y-166305000D02*
X93705000Y-164975000D01*
%TO.C,C1*%
X73275000Y-51740113D02*
X73275000Y-51240113D01*
X73525000Y-51490113D02*
X73025000Y-51490113D01*
X73710000Y-54044888D02*
X72170000Y-54044888D01*
X73710000Y-54084888D02*
X72170000Y-54084888D01*
X73710000Y-54124888D02*
X72171000Y-54124888D01*
X73710000Y-54164888D02*
X72172000Y-54164888D01*
X73710000Y-54204888D02*
X72174000Y-54204888D01*
X73710000Y-54244888D02*
X72177000Y-54244888D01*
X73710000Y-54284888D02*
X72181000Y-54284888D01*
X73710000Y-54324888D02*
X72185000Y-54324888D01*
X73710000Y-54364888D02*
X72189000Y-54364888D01*
X73710000Y-54404888D02*
X72194000Y-54404888D01*
X73710000Y-54444888D02*
X72200000Y-54444888D01*
X73710000Y-54484888D02*
X72207000Y-54484888D01*
X73710000Y-54524888D02*
X72214000Y-54524888D01*
X73710000Y-54564888D02*
X72222000Y-54564888D01*
X73710000Y-54604888D02*
X72230000Y-54604888D01*
X73710000Y-54644888D02*
X72239000Y-54644888D01*
X73710000Y-54684888D02*
X72249000Y-54684888D01*
X73710000Y-54724888D02*
X72259000Y-54724888D01*
X73710000Y-54765888D02*
X72270000Y-54765888D01*
X73710000Y-54805888D02*
X72282000Y-54805888D01*
X73710000Y-54845888D02*
X72295000Y-54845888D01*
X73710000Y-54885888D02*
X72308000Y-54885888D01*
X73710000Y-54925888D02*
X72322000Y-54925888D01*
X73710000Y-54965888D02*
X72336000Y-54965888D01*
X73710000Y-55005888D02*
X72352000Y-55005888D01*
X73710000Y-55045888D02*
X72368000Y-55045888D01*
X73710000Y-55085888D02*
X72385000Y-55085888D01*
X73710000Y-55125888D02*
X72402000Y-55125888D01*
X73710000Y-55165888D02*
X72421000Y-55165888D01*
X73710000Y-55205888D02*
X72440000Y-55205888D01*
X73710000Y-55245888D02*
X72460000Y-55245888D01*
X73710000Y-55285888D02*
X72482000Y-55285888D01*
X73710000Y-55325888D02*
X72503000Y-55325888D01*
X73710000Y-55365888D02*
X72526000Y-55365888D01*
X73710000Y-55405888D02*
X72550000Y-55405888D01*
X73710000Y-55445888D02*
X72575000Y-55445888D01*
X73710000Y-55485888D02*
X72601000Y-55485888D01*
X73710000Y-55525888D02*
X72628000Y-55525888D01*
X73710000Y-55565888D02*
X72655000Y-55565888D01*
X73710000Y-55605888D02*
X72685000Y-55605888D01*
X73710000Y-55645888D02*
X72715000Y-55645888D01*
X73710000Y-55685888D02*
X72746000Y-55685888D01*
X73710000Y-55725888D02*
X72779000Y-55725888D01*
X73710000Y-55765888D02*
X72813000Y-55765888D01*
X73710000Y-55805888D02*
X72849000Y-55805888D01*
X73710000Y-55845888D02*
X72886000Y-55845888D01*
X73710000Y-55885888D02*
X72924000Y-55885888D01*
X73710000Y-55925888D02*
X72965000Y-55925888D01*
X73710000Y-55965888D02*
X73007000Y-55965888D01*
X73710000Y-56005888D02*
X73051000Y-56005888D01*
X73710000Y-56045888D02*
X73097000Y-56045888D01*
X75034000Y-56645888D02*
X74466000Y-56645888D01*
X75268000Y-56605888D02*
X74232000Y-56605888D01*
X75427000Y-56565888D02*
X74073000Y-56565888D01*
X75555000Y-56525888D02*
X73945000Y-56525888D01*
X75665000Y-56485888D02*
X73835000Y-56485888D01*
X75761000Y-56445888D02*
X73739000Y-56445888D01*
X75848000Y-56405888D02*
X73652000Y-56405888D01*
X75928000Y-56365888D02*
X73572000Y-56365888D01*
X76001000Y-56325888D02*
X73499000Y-56325888D01*
X76069000Y-56285888D02*
X73431000Y-56285888D01*
X76133000Y-56245888D02*
X73367000Y-56245888D01*
X76193000Y-56205888D02*
X73307000Y-56205888D01*
X76250000Y-56165888D02*
X73250000Y-56165888D01*
X76304000Y-56125888D02*
X73196000Y-56125888D01*
X76355000Y-56085888D02*
X73145000Y-56085888D01*
X76403000Y-56045888D02*
X75790000Y-56045888D01*
X76449000Y-56005888D02*
X75790000Y-56005888D01*
X76493000Y-55965888D02*
X75790000Y-55965888D01*
X76535000Y-55925888D02*
X75790000Y-55925888D01*
X76576000Y-55885888D02*
X75790000Y-55885888D01*
X76614000Y-55845888D02*
X75790000Y-55845888D01*
X76651000Y-55805888D02*
X75790000Y-55805888D01*
X76687000Y-55765888D02*
X75790000Y-55765888D01*
X76721000Y-55725888D02*
X75790000Y-55725888D01*
X76754000Y-55685888D02*
X75790000Y-55685888D01*
X76785000Y-55645888D02*
X75790000Y-55645888D01*
X76815000Y-55605888D02*
X75790000Y-55605888D01*
X76845000Y-55565888D02*
X75790000Y-55565888D01*
X76872000Y-55525888D02*
X75790000Y-55525888D01*
X76899000Y-55485888D02*
X75790000Y-55485888D01*
X76925000Y-55445888D02*
X75790000Y-55445888D01*
X76950000Y-55405888D02*
X75790000Y-55405888D01*
X76974000Y-55365888D02*
X75790000Y-55365888D01*
X76997000Y-55325888D02*
X75790000Y-55325888D01*
X77018000Y-55285888D02*
X75790000Y-55285888D01*
X77040000Y-55245888D02*
X75790000Y-55245888D01*
X77060000Y-55205888D02*
X75790000Y-55205888D01*
X77079000Y-55165888D02*
X75790000Y-55165888D01*
X77098000Y-55125888D02*
X75790000Y-55125888D01*
X77115000Y-55085888D02*
X75790000Y-55085888D01*
X77132000Y-55045888D02*
X75790000Y-55045888D01*
X77148000Y-55005888D02*
X75790000Y-55005888D01*
X77164000Y-54965888D02*
X75790000Y-54965888D01*
X77178000Y-54925888D02*
X75790000Y-54925888D01*
X77192000Y-54885888D02*
X75790000Y-54885888D01*
X77205000Y-54845888D02*
X75790000Y-54845888D01*
X77218000Y-54805888D02*
X75790000Y-54805888D01*
X77230000Y-54765888D02*
X75790000Y-54765888D01*
X77241000Y-54724888D02*
X75790000Y-54724888D01*
X77251000Y-54684888D02*
X75790000Y-54684888D01*
X77261000Y-54644888D02*
X75790000Y-54644888D01*
X77270000Y-54604888D02*
X75790000Y-54604888D01*
X77278000Y-54564888D02*
X75790000Y-54564888D01*
X77286000Y-54524888D02*
X75790000Y-54524888D01*
X77293000Y-54484888D02*
X75790000Y-54484888D01*
X77300000Y-54444888D02*
X75790000Y-54444888D01*
X77306000Y-54404888D02*
X75790000Y-54404888D01*
X77311000Y-54364888D02*
X75790000Y-54364888D01*
X77315000Y-54324888D02*
X75790000Y-54324888D01*
X77319000Y-54284888D02*
X75790000Y-54284888D01*
X77323000Y-54244888D02*
X75790000Y-54244888D01*
X77326000Y-54204888D02*
X75790000Y-54204888D01*
X77328000Y-54164888D02*
X75790000Y-54164888D01*
X77329000Y-54124888D02*
X75790000Y-54124888D01*
X77330000Y-54044888D02*
X75790000Y-54044888D01*
X77330000Y-54084888D02*
X75790000Y-54084888D01*
X77370000Y-54044888D02*
G75*
G02*
X72130000Y-54044888I-2620000J0D01*
G01*
X72130000Y-54044888D02*
G75*
G02*
X77370000Y-54044888I2620000J0D01*
G01*
%TO.C,J200*%
X88067500Y-109545000D02*
X88067500Y-110545000D01*
X88067500Y-110545000D02*
X89067500Y-110045000D01*
X89067500Y-110045000D02*
X88067500Y-109545000D01*
X89457500Y-99755000D02*
X98577500Y-99755000D01*
X89457500Y-105455000D02*
X90767500Y-105455000D01*
X89457500Y-115255000D02*
X89457500Y-99755000D01*
X90767500Y-101055000D02*
X97267500Y-101055000D01*
X90767500Y-105455000D02*
X90767500Y-101055000D01*
X90767500Y-105455000D02*
X90767500Y-105455000D01*
X90767500Y-109555000D02*
X89457500Y-109555000D01*
X90767500Y-113955000D02*
X90767500Y-109555000D01*
X97267500Y-101055000D02*
X97267500Y-113955000D01*
X97267500Y-113955000D02*
X90767500Y-113955000D01*
X98577500Y-99755000D02*
X98577500Y-115255000D01*
X98577500Y-115255000D02*
X89457500Y-115255000D01*
%TD*%
%LPC*%
D14*
%TO.C,RV3*%
X77200000Y-135000000D03*
D15*
X86750000Y-146000000D03*
D14*
X88800000Y-135000000D03*
D16*
X79250000Y-146000000D03*
D15*
X81750000Y-146000000D03*
X84250000Y-146000000D03*
%TD*%
D14*
%TO.C,RV1*%
X77200000Y-58750000D03*
D15*
X86750000Y-69750000D03*
D14*
X88800000Y-58750000D03*
D16*
X79250000Y-69750000D03*
D15*
X81750000Y-69750000D03*
X84250000Y-69750000D03*
%TD*%
D17*
%TO.C,J0*%
X95750000Y-127000000D03*
%TD*%
D14*
%TO.C,RV2*%
X77200000Y-97000000D03*
D15*
X86750000Y-108000000D03*
D14*
X88800000Y-97000000D03*
D16*
X79250000Y-108000000D03*
D15*
X81750000Y-108000000D03*
X84250000Y-108000000D03*
%TD*%
D18*
%TO.C,R4*%
X82060000Y-119000000D03*
D19*
X74440000Y-119000000D03*
%TD*%
D20*
%TO.C,RV4*%
X70000000Y-64950000D03*
X70000000Y-67490000D03*
X70000000Y-70030000D03*
%TD*%
D18*
%TO.C,R6*%
X91310000Y-88750000D03*
D19*
X83690000Y-88750000D03*
%TD*%
D20*
%TO.C,RV6*%
X96250000Y-88290000D03*
X96250000Y-85750000D03*
X96250000Y-83210000D03*
%TD*%
D17*
%TO.C,J50*%
X69000000Y-92000000D03*
D21*
X69000000Y-94540000D03*
X69000000Y-97080000D03*
X69000000Y-99620000D03*
X69000000Y-102160000D03*
X69000000Y-104700000D03*
X69000000Y-107240000D03*
X69000000Y-109780000D03*
%TD*%
D18*
%TO.C,C4*%
X90250000Y-65000000D03*
X90250000Y-70000000D03*
%TD*%
D22*
%TO.C,D3*%
X70250000Y-157440000D03*
D19*
X70250000Y-165060000D03*
%TD*%
D18*
%TO.C,R7*%
X70250000Y-155060000D03*
D19*
X70250000Y-147440000D03*
%TD*%
D22*
%TO.C,D5*%
X81060000Y-157250000D03*
D19*
X73440000Y-157250000D03*
%TD*%
D23*
%TO.C,D2*%
X97000000Y-54420000D03*
D24*
X97000000Y-64580000D03*
%TD*%
D18*
%TO.C,R9*%
X83190000Y-157250000D03*
D19*
X90810000Y-157250000D03*
%TD*%
D18*
%TO.C,R2*%
X72000000Y-76690000D03*
D19*
X72000000Y-84310000D03*
%TD*%
D20*
%TO.C,RV5*%
X96250000Y-78000000D03*
X96250000Y-75460000D03*
X96250000Y-72920000D03*
%TD*%
D25*
%TO.C,U1*%
X76635000Y-76690000D03*
D18*
X79175000Y-76690000D03*
X81715000Y-76690000D03*
X84255000Y-76690000D03*
X86795000Y-76690000D03*
X89335000Y-76690000D03*
X91875000Y-76690000D03*
X91875000Y-84310000D03*
X89335000Y-84310000D03*
X86795000Y-84310000D03*
X84255000Y-84310000D03*
X81715000Y-84310000D03*
X79175000Y-84310000D03*
X76635000Y-84310000D03*
%TD*%
D23*
%TO.C,D1*%
X69750000Y-55080000D03*
D24*
X69750000Y-44920000D03*
%TD*%
D18*
%TO.C,R3*%
X82060000Y-114250000D03*
D19*
X74440000Y-114250000D03*
%TD*%
D18*
%TO.C,R5*%
X74440000Y-123750000D03*
D19*
X82060000Y-123750000D03*
%TD*%
D22*
%TO.C,C2*%
X92500000Y-56455113D03*
D18*
X92500000Y-54455113D03*
%TD*%
D22*
%TO.C,D4*%
X81060000Y-151750000D03*
D19*
X73440000Y-151750000D03*
%TD*%
D18*
%TO.C,C3*%
X75750000Y-70000000D03*
X75750000Y-65000000D03*
%TD*%
%TO.C,R1*%
X68750000Y-84310000D03*
D19*
X68750000Y-76690000D03*
%TD*%
D18*
%TO.C,R8*%
X83190000Y-151750000D03*
D19*
X90810000Y-151750000D03*
%TD*%
D26*
%TO.C,J100*%
X93080000Y-49002500D03*
D27*
X93080000Y-46462500D03*
X90540000Y-49002500D03*
X90540000Y-46462500D03*
X88000000Y-49002500D03*
X88000000Y-46462500D03*
X85460000Y-49002500D03*
X85460000Y-46462500D03*
X82920000Y-49002500D03*
X82920000Y-46462500D03*
%TD*%
D17*
%TO.C,J60*%
X92375000Y-164975000D03*
D21*
X89835000Y-164975000D03*
X87295000Y-164975000D03*
X84755000Y-164975000D03*
X82215000Y-164975000D03*
X79675000Y-164975000D03*
X77135000Y-164975000D03*
X74595000Y-164975000D03*
%TD*%
D22*
%TO.C,C1*%
X74750000Y-53044888D03*
D18*
X74750000Y-55044888D03*
%TD*%
D28*
%TO.C,J200*%
X92747500Y-110045000D03*
D27*
X92747500Y-107505000D03*
X92747500Y-104965000D03*
X95287500Y-110045000D03*
X95287500Y-107505000D03*
X95287500Y-104965000D03*
%TD*%
%LPD*%
M02*
