%TF.GenerationSoftware,KiCad,Pcbnew,8.0.5*%
%TF.CreationDate,2024-12-03T23:35:57+01:00*%
%TF.ProjectId,DMH_Multiverter_PCB,444d485f-4d75-46c7-9469-766572746572,1*%
%TF.SameCoordinates,Original*%
%TF.FileFunction,Drillmap*%
%TF.FilePolarity,Positive*%
%FSLAX45Y45*%
G04 Gerber Fmt 4.5, Leading zero omitted, Abs format (unit mm)*
G04 Created by KiCad (PCBNEW 8.0.5) date 2024-12-03 23:35:57*
%MOMM*%
%LPD*%
G01*
G04 APERTURE LIST*
%ADD10C,0.050000*%
%ADD11C,0.200000*%
G04 APERTURE END LIST*
D10*
X6700000Y-4250000D02*
X9900000Y-4250000D01*
X9900000Y-11750000D01*
X6700000Y-11750000D01*
X6700000Y-4250000D01*
D11*
X6958277Y-12063984D02*
X6958277Y-11863984D01*
X6958277Y-11863984D02*
X7005896Y-11863984D01*
X7005896Y-11863984D02*
X7034467Y-11873508D01*
X7034467Y-11873508D02*
X7053515Y-11892555D01*
X7053515Y-11892555D02*
X7063039Y-11911603D01*
X7063039Y-11911603D02*
X7072562Y-11949698D01*
X7072562Y-11949698D02*
X7072562Y-11978269D01*
X7072562Y-11978269D02*
X7063039Y-12016365D01*
X7063039Y-12016365D02*
X7053515Y-12035412D01*
X7053515Y-12035412D02*
X7034467Y-12054460D01*
X7034467Y-12054460D02*
X7005896Y-12063984D01*
X7005896Y-12063984D02*
X6958277Y-12063984D01*
X7158277Y-12063984D02*
X7158277Y-11930650D01*
X7158277Y-11968746D02*
X7167801Y-11949698D01*
X7167801Y-11949698D02*
X7177324Y-11940174D01*
X7177324Y-11940174D02*
X7196372Y-11930650D01*
X7196372Y-11930650D02*
X7215420Y-11930650D01*
X7282086Y-12063984D02*
X7282086Y-11930650D01*
X7282086Y-11863984D02*
X7272562Y-11873508D01*
X7272562Y-11873508D02*
X7282086Y-11883031D01*
X7282086Y-11883031D02*
X7291610Y-11873508D01*
X7291610Y-11873508D02*
X7282086Y-11863984D01*
X7282086Y-11863984D02*
X7282086Y-11883031D01*
X7405896Y-12063984D02*
X7386848Y-12054460D01*
X7386848Y-12054460D02*
X7377324Y-12035412D01*
X7377324Y-12035412D02*
X7377324Y-11863984D01*
X7510658Y-12063984D02*
X7491610Y-12054460D01*
X7491610Y-12054460D02*
X7482086Y-12035412D01*
X7482086Y-12035412D02*
X7482086Y-11863984D01*
X7739229Y-12063984D02*
X7739229Y-11863984D01*
X7739229Y-11863984D02*
X7805896Y-12006841D01*
X7805896Y-12006841D02*
X7872562Y-11863984D01*
X7872562Y-11863984D02*
X7872562Y-12063984D01*
X8053515Y-12063984D02*
X8053515Y-11959222D01*
X8053515Y-11959222D02*
X8043991Y-11940174D01*
X8043991Y-11940174D02*
X8024943Y-11930650D01*
X8024943Y-11930650D02*
X7986848Y-11930650D01*
X7986848Y-11930650D02*
X7967801Y-11940174D01*
X8053515Y-12054460D02*
X8034467Y-12063984D01*
X8034467Y-12063984D02*
X7986848Y-12063984D01*
X7986848Y-12063984D02*
X7967801Y-12054460D01*
X7967801Y-12054460D02*
X7958277Y-12035412D01*
X7958277Y-12035412D02*
X7958277Y-12016365D01*
X7958277Y-12016365D02*
X7967801Y-11997317D01*
X7967801Y-11997317D02*
X7986848Y-11987793D01*
X7986848Y-11987793D02*
X8034467Y-11987793D01*
X8034467Y-11987793D02*
X8053515Y-11978269D01*
X8148753Y-11930650D02*
X8148753Y-12130650D01*
X8148753Y-11940174D02*
X8167801Y-11930650D01*
X8167801Y-11930650D02*
X8205896Y-11930650D01*
X8205896Y-11930650D02*
X8224943Y-11940174D01*
X8224943Y-11940174D02*
X8234467Y-11949698D01*
X8234467Y-11949698D02*
X8243991Y-11968746D01*
X8243991Y-11968746D02*
X8243991Y-12025888D01*
X8243991Y-12025888D02*
X8234467Y-12044936D01*
X8234467Y-12044936D02*
X8224943Y-12054460D01*
X8224943Y-12054460D02*
X8205896Y-12063984D01*
X8205896Y-12063984D02*
X8167801Y-12063984D01*
X8167801Y-12063984D02*
X8148753Y-12054460D01*
X8329705Y-12044936D02*
X8339229Y-12054460D01*
X8339229Y-12054460D02*
X8329705Y-12063984D01*
X8329705Y-12063984D02*
X8320182Y-12054460D01*
X8320182Y-12054460D02*
X8329705Y-12044936D01*
X8329705Y-12044936D02*
X8329705Y-12063984D01*
X8329705Y-11940174D02*
X8339229Y-11949698D01*
X8339229Y-11949698D02*
X8329705Y-11959222D01*
X8329705Y-11959222D02*
X8320182Y-11949698D01*
X8320182Y-11949698D02*
X8329705Y-11940174D01*
X8329705Y-11940174D02*
X8329705Y-11959222D01*
M02*
