%TF.GenerationSoftware,KiCad,Pcbnew,9.0.0*%
%TF.CreationDate,2025-03-15T22:53:49+01:00*%
%TF.ProjectId,DMH_Multiverter_Mk2_PCB_Conn,444d485f-4d75-46c7-9469-766572746572,1*%
%TF.SameCoordinates,Original*%
%TF.FileFunction,Drillmap*%
%TF.FilePolarity,Positive*%
%FSLAX45Y45*%
G04 Gerber Fmt 4.5, Leading zero omitted, Abs format (unit mm)*
G04 Created by KiCad (PCBNEW 9.0.0) date 2025-03-15 22:53:49*
%MOMM*%
%LPD*%
G01*
G04 APERTURE LIST*
%ADD10C,0.050000*%
%ADD11C,0.200000*%
%ADD12C,0.100000*%
G04 APERTURE END LIST*
D10*
X7100000Y-16300000D02*
X9900000Y-16300000D01*
X6700000Y-4250000D02*
X6700000Y-7750000D01*
X5100000Y-21750000D02*
X5100000Y-4250000D01*
X5100000Y-4250000D02*
X6700000Y-4250000D01*
X9900000Y-16300000D02*
X9900000Y-21750000D01*
X7100000Y-16300000D02*
X7100000Y-7750000D01*
X6700000Y-7750000D02*
X7100000Y-7750000D01*
X9900000Y-21750000D02*
X5100000Y-21750000D01*
D11*
D12*
X5340381Y-6190381D02*
X5440381Y-6290381D01*
X5440381Y-6190381D02*
X5340381Y-6290381D01*
X5408059Y-6151993D02*
X5301993Y-6258059D01*
X5372703Y-6328769D02*
G75*
G02*
X5301993Y-6258059I-35355J35355D01*
G01*
X5372703Y-6328769D02*
X5478769Y-6222703D01*
X5478769Y-6222703D02*
G75*
G03*
X5408059Y-6151993I-35355J35355D01*
G01*
X5340381Y-8315381D02*
X5440381Y-8415381D01*
X5440381Y-8315381D02*
X5340381Y-8415381D01*
X5408059Y-8276993D02*
X5301993Y-8383059D01*
X5372703Y-8453769D02*
G75*
G02*
X5301993Y-8383059I-35355J35355D01*
G01*
X5372703Y-8453769D02*
X5478769Y-8347703D01*
X5478769Y-8347703D02*
G75*
G03*
X5408059Y-8276993I-35355J35355D01*
G01*
X5340381Y-10015381D02*
X5440381Y-10115381D01*
X5440381Y-10015381D02*
X5340381Y-10115381D01*
X5408059Y-9976993D02*
X5301993Y-10083059D01*
X5372703Y-10153769D02*
G75*
G02*
X5301993Y-10083059I-35355J35355D01*
G01*
X5372703Y-10153769D02*
X5478769Y-10047703D01*
X5478769Y-10047703D02*
G75*
G03*
X5408059Y-9976993I-35355J35355D01*
G01*
X5340381Y-12140381D02*
X5440381Y-12240381D01*
X5440381Y-12140381D02*
X5340381Y-12240381D01*
X5408059Y-12101993D02*
X5301993Y-12208059D01*
X5372703Y-12278769D02*
G75*
G02*
X5301993Y-12208059I-35355J35355D01*
G01*
X5372703Y-12278769D02*
X5478769Y-12172703D01*
X5478769Y-12172703D02*
G75*
G03*
X5408059Y-12101993I-35355J35355D01*
G01*
X5340381Y-13840381D02*
X5440381Y-13940381D01*
X5440381Y-13840381D02*
X5340381Y-13940381D01*
X5408059Y-13801993D02*
X5301993Y-13908059D01*
X5372703Y-13978769D02*
G75*
G02*
X5301993Y-13908059I-35355J35355D01*
G01*
X5372703Y-13978769D02*
X5478769Y-13872703D01*
X5478769Y-13872703D02*
G75*
G03*
X5408059Y-13801993I-35355J35355D01*
G01*
X5340381Y-17065381D02*
X5440381Y-17165381D01*
X5440381Y-17065381D02*
X5340381Y-17165381D01*
X5408059Y-17026993D02*
X5301993Y-17133059D01*
X5372703Y-17203769D02*
G75*
G02*
X5301993Y-17133059I-35355J35355D01*
G01*
X5372703Y-17203769D02*
X5478769Y-17097703D01*
X5478769Y-17097703D02*
G75*
G03*
X5408059Y-17026993I-35355J35355D01*
G01*
X5340381Y-18715381D02*
X5440381Y-18815381D01*
X5440381Y-18715381D02*
X5340381Y-18815381D01*
X5408059Y-18676993D02*
X5301993Y-18783059D01*
X5372703Y-18853769D02*
G75*
G02*
X5301993Y-18783059I-35355J35355D01*
G01*
X5372703Y-18853769D02*
X5478769Y-18747703D01*
X5478769Y-18747703D02*
G75*
G03*
X5408059Y-18676993I-35355J35355D01*
G01*
X5340381Y-20365381D02*
X5440381Y-20465381D01*
X5440381Y-20365381D02*
X5340381Y-20465381D01*
X5408059Y-20326993D02*
X5301993Y-20433059D01*
X5372703Y-20503769D02*
G75*
G02*
X5301993Y-20433059I-35355J35355D01*
G01*
X5372703Y-20503769D02*
X5478769Y-20397703D01*
X5478769Y-20397703D02*
G75*
G03*
X5408059Y-20326993I-35355J35355D01*
G01*
X5850000Y-5600000D02*
X5950000Y-5700000D01*
X5950000Y-5600000D02*
X5850000Y-5700000D01*
X5975000Y-5600000D02*
X5825000Y-5600000D01*
X5825000Y-5700000D02*
G75*
G02*
X5825000Y-5600000I0J50000D01*
G01*
X5825000Y-5700000D02*
X5975000Y-5700000D01*
X5975000Y-5700000D02*
G75*
G03*
X5975000Y-5600000I0J50000D01*
G01*
X6050000Y-6000000D02*
X6150000Y-6100000D01*
X6150000Y-6000000D02*
X6050000Y-6100000D01*
X6025000Y-6100000D02*
X6175000Y-6100000D01*
X6175000Y-6000000D02*
G75*
G02*
X6175000Y-6100000I0J-50000D01*
G01*
X6175000Y-6000000D02*
X6025000Y-6000000D01*
X6025000Y-6000000D02*
G75*
G03*
X6025000Y-6100000I0J-50000D01*
G01*
X6050000Y-8125000D02*
X6150000Y-8225000D01*
X6150000Y-8125000D02*
X6050000Y-8225000D01*
X6025000Y-8225000D02*
X6175000Y-8225000D01*
X6175000Y-8125000D02*
G75*
G02*
X6175000Y-8225000I0J-50000D01*
G01*
X6175000Y-8125000D02*
X6025000Y-8125000D01*
X6025000Y-8125000D02*
G75*
G03*
X6025000Y-8225000I0J-50000D01*
G01*
X6050000Y-9825000D02*
X6150000Y-9925000D01*
X6150000Y-9825000D02*
X6050000Y-9925000D01*
X6025000Y-9925000D02*
X6175000Y-9925000D01*
X6175000Y-9825000D02*
G75*
G02*
X6175000Y-9925000I0J-50000D01*
G01*
X6175000Y-9825000D02*
X6025000Y-9825000D01*
X6025000Y-9825000D02*
G75*
G03*
X6025000Y-9925000I0J-50000D01*
G01*
X6050000Y-11950000D02*
X6150000Y-12050000D01*
X6150000Y-11950000D02*
X6050000Y-12050000D01*
X6025000Y-12050000D02*
X6175000Y-12050000D01*
X6175000Y-11950000D02*
G75*
G02*
X6175000Y-12050000I0J-50000D01*
G01*
X6175000Y-11950000D02*
X6025000Y-11950000D01*
X6025000Y-11950000D02*
G75*
G03*
X6025000Y-12050000I0J-50000D01*
G01*
X6050000Y-13650000D02*
X6150000Y-13750000D01*
X6150000Y-13650000D02*
X6050000Y-13750000D01*
X6025000Y-13750000D02*
X6175000Y-13750000D01*
X6175000Y-13650000D02*
G75*
G02*
X6175000Y-13750000I0J-50000D01*
G01*
X6175000Y-13650000D02*
X6025000Y-13650000D01*
X6025000Y-13650000D02*
G75*
G03*
X6025000Y-13750000I0J-50000D01*
G01*
X6050000Y-16875000D02*
X6150000Y-16975000D01*
X6150000Y-16875000D02*
X6050000Y-16975000D01*
X6025000Y-16975000D02*
X6175000Y-16975000D01*
X6175000Y-16875000D02*
G75*
G02*
X6175000Y-16975000I0J-50000D01*
G01*
X6175000Y-16875000D02*
X6025000Y-16875000D01*
X6025000Y-16875000D02*
G75*
G03*
X6025000Y-16975000I0J-50000D01*
G01*
X6050000Y-18525000D02*
X6150000Y-18625000D01*
X6150000Y-18525000D02*
X6050000Y-18625000D01*
X6025000Y-18625000D02*
X6175000Y-18625000D01*
X6175000Y-18525000D02*
G75*
G02*
X6175000Y-18625000I0J-50000D01*
G01*
X6175000Y-18525000D02*
X6025000Y-18525000D01*
X6025000Y-18525000D02*
G75*
G03*
X6025000Y-18625000I0J-50000D01*
G01*
X6050000Y-20175000D02*
X6150000Y-20275000D01*
X6150000Y-20175000D02*
X6050000Y-20275000D01*
X6025000Y-20275000D02*
X6175000Y-20275000D01*
X6175000Y-20175000D02*
G75*
G02*
X6175000Y-20275000I0J-50000D01*
G01*
X6175000Y-20175000D02*
X6025000Y-20175000D01*
X6025000Y-20175000D02*
G75*
G03*
X6025000Y-20275000I0J-50000D01*
G01*
X6259619Y-4490381D02*
X6359619Y-4590381D01*
X6359619Y-4490381D02*
X6259619Y-4590381D01*
X6398007Y-4558059D02*
X6291941Y-4451993D01*
X6221231Y-4522703D02*
G75*
G02*
X6291941Y-4451993I35355J35355D01*
G01*
X6221231Y-4522703D02*
X6327297Y-4628769D01*
X6327297Y-4628769D02*
G75*
G03*
X6398007Y-4558059I35355J35355D01*
G01*
X6450000Y-5200000D02*
X6550000Y-5300000D01*
X6550000Y-5200000D02*
X6450000Y-5300000D01*
X6450000Y-5175000D02*
X6450000Y-5325000D01*
X6550000Y-5325000D02*
G75*
G02*
X6450000Y-5325000I-50000J0D01*
G01*
X6550000Y-5325000D02*
X6550000Y-5175000D01*
X6550000Y-5175000D02*
G75*
G03*
X6450000Y-5175000I-50000J0D01*
G01*
X6450000Y-6600000D02*
X6550000Y-6700000D01*
X6550000Y-6600000D02*
X6450000Y-6700000D01*
X6450000Y-6575000D02*
X6450000Y-6725000D01*
X6550000Y-6725000D02*
G75*
G02*
X6450000Y-6725000I-50000J0D01*
G01*
X6550000Y-6725000D02*
X6550000Y-6575000D01*
X6550000Y-6575000D02*
G75*
G03*
X6450000Y-6575000I-50000J0D01*
G01*
X6450000Y-8725000D02*
X6550000Y-8825000D01*
X6550000Y-8725000D02*
X6450000Y-8825000D01*
X6450000Y-8700000D02*
X6450000Y-8850000D01*
X6550000Y-8850000D02*
G75*
G02*
X6450000Y-8850000I-50000J0D01*
G01*
X6550000Y-8850000D02*
X6550000Y-8700000D01*
X6550000Y-8700000D02*
G75*
G03*
X6450000Y-8700000I-50000J0D01*
G01*
X6450000Y-10425000D02*
X6550000Y-10525000D01*
X6550000Y-10425000D02*
X6450000Y-10525000D01*
X6450000Y-10400000D02*
X6450000Y-10550000D01*
X6550000Y-10550000D02*
G75*
G02*
X6450000Y-10550000I-50000J0D01*
G01*
X6550000Y-10550000D02*
X6550000Y-10400000D01*
X6550000Y-10400000D02*
G75*
G03*
X6450000Y-10400000I-50000J0D01*
G01*
X6450000Y-12550000D02*
X6550000Y-12650000D01*
X6550000Y-12550000D02*
X6450000Y-12650000D01*
X6450000Y-12525000D02*
X6450000Y-12675000D01*
X6550000Y-12675000D02*
G75*
G02*
X6450000Y-12675000I-50000J0D01*
G01*
X6550000Y-12675000D02*
X6550000Y-12525000D01*
X6550000Y-12525000D02*
G75*
G03*
X6450000Y-12525000I-50000J0D01*
G01*
X6450000Y-14250000D02*
X6550000Y-14350000D01*
X6550000Y-14250000D02*
X6450000Y-14350000D01*
X6450000Y-14225000D02*
X6450000Y-14375000D01*
X6550000Y-14375000D02*
G75*
G02*
X6450000Y-14375000I-50000J0D01*
G01*
X6550000Y-14375000D02*
X6550000Y-14225000D01*
X6550000Y-14225000D02*
G75*
G03*
X6450000Y-14225000I-50000J0D01*
G01*
X6450000Y-17475000D02*
X6550000Y-17575000D01*
X6550000Y-17475000D02*
X6450000Y-17575000D01*
X6450000Y-17450000D02*
X6450000Y-17600000D01*
X6550000Y-17600000D02*
G75*
G02*
X6450000Y-17600000I-50000J0D01*
G01*
X6550000Y-17600000D02*
X6550000Y-17450000D01*
X6550000Y-17450000D02*
G75*
G03*
X6450000Y-17450000I-50000J0D01*
G01*
X6450000Y-19125000D02*
X6550000Y-19225000D01*
X6550000Y-19125000D02*
X6450000Y-19225000D01*
X6450000Y-19100000D02*
X6450000Y-19250000D01*
X6550000Y-19250000D02*
G75*
G02*
X6450000Y-19250000I-50000J0D01*
G01*
X6550000Y-19250000D02*
X6550000Y-19100000D01*
X6550000Y-19100000D02*
G75*
G03*
X6450000Y-19100000I-50000J0D01*
G01*
X6450000Y-20775000D02*
X6550000Y-20875000D01*
X6550000Y-20775000D02*
X6450000Y-20875000D01*
X6450000Y-20750000D02*
X6450000Y-20900000D01*
X6550000Y-20900000D02*
G75*
G02*
X6450000Y-20900000I-50000J0D01*
G01*
X6550000Y-20900000D02*
X6550000Y-20750000D01*
X6550000Y-20750000D02*
G75*
G03*
X6450000Y-20750000I-50000J0D01*
G01*
X6850000Y-9150000D02*
X6950000Y-9250000D01*
X6950000Y-9150000D02*
X6850000Y-9250000D01*
X6850000Y-9404000D02*
X6950000Y-9504000D01*
X6950000Y-9404000D02*
X6850000Y-9504000D01*
X6850000Y-9658000D02*
X6950000Y-9758000D01*
X6950000Y-9658000D02*
X6850000Y-9758000D01*
X6850000Y-9912000D02*
X6950000Y-10012000D01*
X6950000Y-9912000D02*
X6850000Y-10012000D01*
X6850000Y-10166000D02*
X6950000Y-10266000D01*
X6950000Y-10166000D02*
X6850000Y-10266000D01*
X6850000Y-10420000D02*
X6950000Y-10520000D01*
X6950000Y-10420000D02*
X6850000Y-10520000D01*
X6850000Y-10674000D02*
X6950000Y-10774000D01*
X6950000Y-10674000D02*
X6850000Y-10774000D01*
X6850000Y-10928000D02*
X6950000Y-11028000D01*
X6950000Y-10928000D02*
X6850000Y-11028000D01*
X6990381Y-17065381D02*
X7090381Y-17165381D01*
X7090381Y-17065381D02*
X6990381Y-17165381D01*
X7058059Y-17026993D02*
X6951993Y-17133059D01*
X7022703Y-17203769D02*
G75*
G02*
X6951993Y-17133059I-35355J35355D01*
G01*
X7022703Y-17203769D02*
X7128769Y-17097703D01*
X7128769Y-17097703D02*
G75*
G03*
X7058059Y-17026993I-35355J35355D01*
G01*
X6990381Y-18715381D02*
X7090381Y-18815381D01*
X7090381Y-18715381D02*
X6990381Y-18815381D01*
X7058059Y-18676993D02*
X6951993Y-18783059D01*
X7022703Y-18853769D02*
G75*
G02*
X6951993Y-18783059I-35355J35355D01*
G01*
X7022703Y-18853769D02*
X7128769Y-18747703D01*
X7128769Y-18747703D02*
G75*
G03*
X7058059Y-18676993I-35355J35355D01*
G01*
X6990381Y-20365381D02*
X7090381Y-20465381D01*
X7090381Y-20365381D02*
X6990381Y-20465381D01*
X7058059Y-20326993D02*
X6951993Y-20433059D01*
X7022703Y-20503769D02*
G75*
G02*
X6951993Y-20433059I-35355J35355D01*
G01*
X7022703Y-20503769D02*
X7128769Y-20397703D01*
X7128769Y-20397703D02*
G75*
G03*
X7058059Y-20326993I-35355J35355D01*
G01*
X7409500Y-16447500D02*
X7509500Y-16547500D01*
X7509500Y-16447500D02*
X7409500Y-16547500D01*
X7663500Y-16447500D02*
X7763500Y-16547500D01*
X7763500Y-16447500D02*
X7663500Y-16547500D01*
X7700000Y-16875000D02*
X7800000Y-16975000D01*
X7800000Y-16875000D02*
X7700000Y-16975000D01*
X7675000Y-16975000D02*
X7825000Y-16975000D01*
X7825000Y-16875000D02*
G75*
G02*
X7825000Y-16975000I0J-50000D01*
G01*
X7825000Y-16875000D02*
X7675000Y-16875000D01*
X7675000Y-16875000D02*
G75*
G03*
X7675000Y-16975000I0J-50000D01*
G01*
X7700000Y-18525000D02*
X7800000Y-18625000D01*
X7800000Y-18525000D02*
X7700000Y-18625000D01*
X7675000Y-18625000D02*
X7825000Y-18625000D01*
X7825000Y-18525000D02*
G75*
G02*
X7825000Y-18625000I0J-50000D01*
G01*
X7825000Y-18525000D02*
X7675000Y-18525000D01*
X7675000Y-18525000D02*
G75*
G03*
X7675000Y-18625000I0J-50000D01*
G01*
X7700000Y-20175000D02*
X7800000Y-20275000D01*
X7800000Y-20175000D02*
X7700000Y-20275000D01*
X7675000Y-20275000D02*
X7825000Y-20275000D01*
X7825000Y-20175000D02*
G75*
G02*
X7825000Y-20275000I0J-50000D01*
G01*
X7825000Y-20175000D02*
X7675000Y-20175000D01*
X7675000Y-20175000D02*
G75*
G03*
X7675000Y-20275000I0J-50000D01*
G01*
X7917500Y-16447500D02*
X8017500Y-16547500D01*
X8017500Y-16447500D02*
X7917500Y-16547500D01*
X8100000Y-17475000D02*
X8200000Y-17575000D01*
X8200000Y-17475000D02*
X8100000Y-17575000D01*
X8100000Y-17450000D02*
X8100000Y-17600000D01*
X8200000Y-17600000D02*
G75*
G02*
X8100000Y-17600000I-50000J0D01*
G01*
X8200000Y-17600000D02*
X8200000Y-17450000D01*
X8200000Y-17450000D02*
G75*
G03*
X8100000Y-17450000I-50000J0D01*
G01*
X8100000Y-19125000D02*
X8200000Y-19225000D01*
X8200000Y-19125000D02*
X8100000Y-19225000D01*
X8100000Y-19100000D02*
X8100000Y-19250000D01*
X8200000Y-19250000D02*
G75*
G02*
X8100000Y-19250000I-50000J0D01*
G01*
X8200000Y-19250000D02*
X8200000Y-19100000D01*
X8200000Y-19100000D02*
G75*
G03*
X8100000Y-19100000I-50000J0D01*
G01*
X8100000Y-20775000D02*
X8200000Y-20875000D01*
X8200000Y-20775000D02*
X8100000Y-20875000D01*
X8100000Y-20750000D02*
X8100000Y-20900000D01*
X8200000Y-20900000D02*
G75*
G02*
X8100000Y-20900000I-50000J0D01*
G01*
X8200000Y-20900000D02*
X8200000Y-20750000D01*
X8200000Y-20750000D02*
G75*
G03*
X8100000Y-20750000I-50000J0D01*
G01*
X8171500Y-16447500D02*
X8271500Y-16547500D01*
X8271500Y-16447500D02*
X8171500Y-16547500D01*
X8425500Y-16447500D02*
X8525500Y-16547500D01*
X8525500Y-16447500D02*
X8425500Y-16547500D01*
X8450000Y-17275000D02*
X8550000Y-17375000D01*
X8550000Y-17275000D02*
X8450000Y-17375000D01*
X8550000Y-17400000D02*
X8550000Y-17250000D01*
X8450000Y-17250000D02*
G75*
G02*
X8550000Y-17250000I50000J0D01*
G01*
X8450000Y-17250000D02*
X8450000Y-17400000D01*
X8450000Y-17400000D02*
G75*
G03*
X8550000Y-17400000I50000J0D01*
G01*
X8450000Y-18925000D02*
X8550000Y-19025000D01*
X8550000Y-18925000D02*
X8450000Y-19025000D01*
X8550000Y-19050000D02*
X8550000Y-18900000D01*
X8450000Y-18900000D02*
G75*
G02*
X8550000Y-18900000I50000J0D01*
G01*
X8450000Y-18900000D02*
X8450000Y-19050000D01*
X8450000Y-19050000D02*
G75*
G03*
X8550000Y-19050000I50000J0D01*
G01*
X8450000Y-20575000D02*
X8550000Y-20675000D01*
X8550000Y-20575000D02*
X8450000Y-20675000D01*
X8550000Y-20700000D02*
X8550000Y-20550000D01*
X8450000Y-20550000D02*
G75*
G02*
X8550000Y-20550000I50000J0D01*
G01*
X8450000Y-20550000D02*
X8450000Y-20700000D01*
X8450000Y-20700000D02*
G75*
G03*
X8550000Y-20700000I50000J0D01*
G01*
X8640381Y-17984619D02*
X8740381Y-18084619D01*
X8740381Y-17984619D02*
X8640381Y-18084619D01*
X8601993Y-18016941D02*
X8708059Y-18123007D01*
X8778769Y-18052297D02*
G75*
G02*
X8708059Y-18123007I-35355J-35355D01*
G01*
X8778769Y-18052297D02*
X8672703Y-17946231D01*
X8672703Y-17946231D02*
G75*
G03*
X8601993Y-18016941I-35355J-35355D01*
G01*
X8640381Y-19634619D02*
X8740381Y-19734619D01*
X8740381Y-19634619D02*
X8640381Y-19734619D01*
X8601993Y-19666941D02*
X8708059Y-19773007D01*
X8778769Y-19702297D02*
G75*
G02*
X8708059Y-19773007I-35355J-35355D01*
G01*
X8778769Y-19702297D02*
X8672703Y-19596231D01*
X8672703Y-19596231D02*
G75*
G03*
X8601993Y-19666941I-35355J-35355D01*
G01*
X8640381Y-21284619D02*
X8740381Y-21384619D01*
X8740381Y-21284619D02*
X8640381Y-21384619D01*
X8601993Y-21316941D02*
X8708059Y-21423007D01*
X8778769Y-21352297D02*
G75*
G02*
X8708059Y-21423007I-35355J-35355D01*
G01*
X8778769Y-21352297D02*
X8672703Y-21246231D01*
X8672703Y-21246231D02*
G75*
G03*
X8601993Y-21316941I-35355J-35355D01*
G01*
X8679500Y-16447500D02*
X8779500Y-16547500D01*
X8779500Y-16447500D02*
X8679500Y-16547500D01*
X8933500Y-16447500D02*
X9033500Y-16547500D01*
X9033500Y-16447500D02*
X8933500Y-16547500D01*
X9050000Y-16875000D02*
X9150000Y-16975000D01*
X9150000Y-16875000D02*
X9050000Y-16975000D01*
X9025000Y-16975000D02*
X9175000Y-16975000D01*
X9175000Y-16875000D02*
G75*
G02*
X9175000Y-16975000I0J-50000D01*
G01*
X9175000Y-16875000D02*
X9025000Y-16875000D01*
X9025000Y-16875000D02*
G75*
G03*
X9025000Y-16975000I0J-50000D01*
G01*
X9050000Y-18525000D02*
X9150000Y-18625000D01*
X9150000Y-18525000D02*
X9050000Y-18625000D01*
X9025000Y-18625000D02*
X9175000Y-18625000D01*
X9175000Y-18525000D02*
G75*
G02*
X9175000Y-18625000I0J-50000D01*
G01*
X9175000Y-18525000D02*
X9025000Y-18525000D01*
X9025000Y-18525000D02*
G75*
G03*
X9025000Y-18625000I0J-50000D01*
G01*
X9050000Y-20175000D02*
X9150000Y-20275000D01*
X9150000Y-20175000D02*
X9050000Y-20275000D01*
X9025000Y-20275000D02*
X9175000Y-20275000D01*
X9175000Y-20175000D02*
G75*
G02*
X9175000Y-20275000I0J-50000D01*
G01*
X9175000Y-20175000D02*
X9025000Y-20175000D01*
X9025000Y-20175000D02*
G75*
G03*
X9025000Y-20275000I0J-50000D01*
G01*
X9187500Y-16447500D02*
X9287500Y-16547500D01*
X9287500Y-16447500D02*
X9187500Y-16547500D01*
D11*
X5358277Y-22063984D02*
X5358277Y-21863984D01*
X5358277Y-21863984D02*
X5405896Y-21863984D01*
X5405896Y-21863984D02*
X5434467Y-21873508D01*
X5434467Y-21873508D02*
X5453515Y-21892555D01*
X5453515Y-21892555D02*
X5463039Y-21911603D01*
X5463039Y-21911603D02*
X5472563Y-21949698D01*
X5472563Y-21949698D02*
X5472563Y-21978270D01*
X5472563Y-21978270D02*
X5463039Y-22016365D01*
X5463039Y-22016365D02*
X5453515Y-22035412D01*
X5453515Y-22035412D02*
X5434467Y-22054460D01*
X5434467Y-22054460D02*
X5405896Y-22063984D01*
X5405896Y-22063984D02*
X5358277Y-22063984D01*
X5558277Y-22063984D02*
X5558277Y-21930650D01*
X5558277Y-21968746D02*
X5567801Y-21949698D01*
X5567801Y-21949698D02*
X5577324Y-21940174D01*
X5577324Y-21940174D02*
X5596372Y-21930650D01*
X5596372Y-21930650D02*
X5615420Y-21930650D01*
X5682086Y-22063984D02*
X5682086Y-21930650D01*
X5682086Y-21863984D02*
X5672562Y-21873508D01*
X5672562Y-21873508D02*
X5682086Y-21883031D01*
X5682086Y-21883031D02*
X5691610Y-21873508D01*
X5691610Y-21873508D02*
X5682086Y-21863984D01*
X5682086Y-21863984D02*
X5682086Y-21883031D01*
X5805896Y-22063984D02*
X5786848Y-22054460D01*
X5786848Y-22054460D02*
X5777324Y-22035412D01*
X5777324Y-22035412D02*
X5777324Y-21863984D01*
X5910658Y-22063984D02*
X5891610Y-22054460D01*
X5891610Y-22054460D02*
X5882086Y-22035412D01*
X5882086Y-22035412D02*
X5882086Y-21863984D01*
X6139229Y-22063984D02*
X6139229Y-21863984D01*
X6139229Y-21863984D02*
X6205896Y-22006841D01*
X6205896Y-22006841D02*
X6272562Y-21863984D01*
X6272562Y-21863984D02*
X6272562Y-22063984D01*
X6453515Y-22063984D02*
X6453515Y-21959222D01*
X6453515Y-21959222D02*
X6443991Y-21940174D01*
X6443991Y-21940174D02*
X6424943Y-21930650D01*
X6424943Y-21930650D02*
X6386848Y-21930650D01*
X6386848Y-21930650D02*
X6367801Y-21940174D01*
X6453515Y-22054460D02*
X6434467Y-22063984D01*
X6434467Y-22063984D02*
X6386848Y-22063984D01*
X6386848Y-22063984D02*
X6367801Y-22054460D01*
X6367801Y-22054460D02*
X6358277Y-22035412D01*
X6358277Y-22035412D02*
X6358277Y-22016365D01*
X6358277Y-22016365D02*
X6367801Y-21997317D01*
X6367801Y-21997317D02*
X6386848Y-21987793D01*
X6386848Y-21987793D02*
X6434467Y-21987793D01*
X6434467Y-21987793D02*
X6453515Y-21978270D01*
X6548753Y-21930650D02*
X6548753Y-22130650D01*
X6548753Y-21940174D02*
X6567801Y-21930650D01*
X6567801Y-21930650D02*
X6605896Y-21930650D01*
X6605896Y-21930650D02*
X6624943Y-21940174D01*
X6624943Y-21940174D02*
X6634467Y-21949698D01*
X6634467Y-21949698D02*
X6643991Y-21968746D01*
X6643991Y-21968746D02*
X6643991Y-22025889D01*
X6643991Y-22025889D02*
X6634467Y-22044936D01*
X6634467Y-22044936D02*
X6624943Y-22054460D01*
X6624943Y-22054460D02*
X6605896Y-22063984D01*
X6605896Y-22063984D02*
X6567801Y-22063984D01*
X6567801Y-22063984D02*
X6548753Y-22054460D01*
X6729705Y-22044936D02*
X6739229Y-22054460D01*
X6739229Y-22054460D02*
X6729705Y-22063984D01*
X6729705Y-22063984D02*
X6720182Y-22054460D01*
X6720182Y-22054460D02*
X6729705Y-22044936D01*
X6729705Y-22044936D02*
X6729705Y-22063984D01*
X6729705Y-21940174D02*
X6739229Y-21949698D01*
X6739229Y-21949698D02*
X6729705Y-21959222D01*
X6729705Y-21959222D02*
X6720182Y-21949698D01*
X6720182Y-21949698D02*
X6729705Y-21940174D01*
X6729705Y-21940174D02*
X6729705Y-21959222D01*
D12*
X4997500Y-22342500D02*
X5097500Y-22442500D01*
X5097500Y-22342500D02*
X4997500Y-22442500D01*
D11*
X5463039Y-22483984D02*
X5348753Y-22483984D01*
X5405896Y-22483984D02*
X5405896Y-22283984D01*
X5405896Y-22283984D02*
X5386848Y-22312555D01*
X5386848Y-22312555D02*
X5367801Y-22331603D01*
X5367801Y-22331603D02*
X5348753Y-22341127D01*
X5548753Y-22464936D02*
X5558277Y-22474460D01*
X5558277Y-22474460D02*
X5548753Y-22483984D01*
X5548753Y-22483984D02*
X5539229Y-22474460D01*
X5539229Y-22474460D02*
X5548753Y-22464936D01*
X5548753Y-22464936D02*
X5548753Y-22483984D01*
X5682086Y-22283984D02*
X5701134Y-22283984D01*
X5701134Y-22283984D02*
X5720182Y-22293508D01*
X5720182Y-22293508D02*
X5729705Y-22303031D01*
X5729705Y-22303031D02*
X5739229Y-22322079D01*
X5739229Y-22322079D02*
X5748753Y-22360174D01*
X5748753Y-22360174D02*
X5748753Y-22407793D01*
X5748753Y-22407793D02*
X5739229Y-22445888D01*
X5739229Y-22445888D02*
X5729705Y-22464936D01*
X5729705Y-22464936D02*
X5720182Y-22474460D01*
X5720182Y-22474460D02*
X5701134Y-22483984D01*
X5701134Y-22483984D02*
X5682086Y-22483984D01*
X5682086Y-22483984D02*
X5663039Y-22474460D01*
X5663039Y-22474460D02*
X5653515Y-22464936D01*
X5653515Y-22464936D02*
X5643991Y-22445888D01*
X5643991Y-22445888D02*
X5634467Y-22407793D01*
X5634467Y-22407793D02*
X5634467Y-22360174D01*
X5634467Y-22360174D02*
X5643991Y-22322079D01*
X5643991Y-22322079D02*
X5653515Y-22303031D01*
X5653515Y-22303031D02*
X5663039Y-22293508D01*
X5663039Y-22293508D02*
X5682086Y-22283984D01*
X5872562Y-22283984D02*
X5891610Y-22283984D01*
X5891610Y-22283984D02*
X5910658Y-22293508D01*
X5910658Y-22293508D02*
X5920182Y-22303031D01*
X5920182Y-22303031D02*
X5929705Y-22322079D01*
X5929705Y-22322079D02*
X5939229Y-22360174D01*
X5939229Y-22360174D02*
X5939229Y-22407793D01*
X5939229Y-22407793D02*
X5929705Y-22445888D01*
X5929705Y-22445888D02*
X5920182Y-22464936D01*
X5920182Y-22464936D02*
X5910658Y-22474460D01*
X5910658Y-22474460D02*
X5891610Y-22483984D01*
X5891610Y-22483984D02*
X5872562Y-22483984D01*
X5872562Y-22483984D02*
X5853515Y-22474460D01*
X5853515Y-22474460D02*
X5843991Y-22464936D01*
X5843991Y-22464936D02*
X5834467Y-22445888D01*
X5834467Y-22445888D02*
X5824943Y-22407793D01*
X5824943Y-22407793D02*
X5824943Y-22360174D01*
X5824943Y-22360174D02*
X5834467Y-22322079D01*
X5834467Y-22322079D02*
X5843991Y-22303031D01*
X5843991Y-22303031D02*
X5853515Y-22293508D01*
X5853515Y-22293508D02*
X5872562Y-22283984D01*
X6063039Y-22283984D02*
X6082086Y-22283984D01*
X6082086Y-22283984D02*
X6101134Y-22293508D01*
X6101134Y-22293508D02*
X6110658Y-22303031D01*
X6110658Y-22303031D02*
X6120182Y-22322079D01*
X6120182Y-22322079D02*
X6129705Y-22360174D01*
X6129705Y-22360174D02*
X6129705Y-22407793D01*
X6129705Y-22407793D02*
X6120182Y-22445888D01*
X6120182Y-22445888D02*
X6110658Y-22464936D01*
X6110658Y-22464936D02*
X6101134Y-22474460D01*
X6101134Y-22474460D02*
X6082086Y-22483984D01*
X6082086Y-22483984D02*
X6063039Y-22483984D01*
X6063039Y-22483984D02*
X6043991Y-22474460D01*
X6043991Y-22474460D02*
X6034467Y-22464936D01*
X6034467Y-22464936D02*
X6024943Y-22445888D01*
X6024943Y-22445888D02*
X6015420Y-22407793D01*
X6015420Y-22407793D02*
X6015420Y-22360174D01*
X6015420Y-22360174D02*
X6024943Y-22322079D01*
X6024943Y-22322079D02*
X6034467Y-22303031D01*
X6034467Y-22303031D02*
X6043991Y-22293508D01*
X6043991Y-22293508D02*
X6063039Y-22283984D01*
X6215420Y-22483984D02*
X6215420Y-22350650D01*
X6215420Y-22369698D02*
X6224943Y-22360174D01*
X6224943Y-22360174D02*
X6243991Y-22350650D01*
X6243991Y-22350650D02*
X6272563Y-22350650D01*
X6272563Y-22350650D02*
X6291610Y-22360174D01*
X6291610Y-22360174D02*
X6301134Y-22379222D01*
X6301134Y-22379222D02*
X6301134Y-22483984D01*
X6301134Y-22379222D02*
X6310658Y-22360174D01*
X6310658Y-22360174D02*
X6329705Y-22350650D01*
X6329705Y-22350650D02*
X6358277Y-22350650D01*
X6358277Y-22350650D02*
X6377324Y-22360174D01*
X6377324Y-22360174D02*
X6386848Y-22379222D01*
X6386848Y-22379222D02*
X6386848Y-22483984D01*
X6482086Y-22483984D02*
X6482086Y-22350650D01*
X6482086Y-22369698D02*
X6491610Y-22360174D01*
X6491610Y-22360174D02*
X6510658Y-22350650D01*
X6510658Y-22350650D02*
X6539229Y-22350650D01*
X6539229Y-22350650D02*
X6558277Y-22360174D01*
X6558277Y-22360174D02*
X6567801Y-22379222D01*
X6567801Y-22379222D02*
X6567801Y-22483984D01*
X6567801Y-22379222D02*
X6577324Y-22360174D01*
X6577324Y-22360174D02*
X6596372Y-22350650D01*
X6596372Y-22350650D02*
X6624943Y-22350650D01*
X6624943Y-22350650D02*
X6643991Y-22360174D01*
X6643991Y-22360174D02*
X6653515Y-22379222D01*
X6653515Y-22379222D02*
X6653515Y-22483984D01*
X7043991Y-22274460D02*
X6872563Y-22531603D01*
X7301134Y-22283984D02*
X7320182Y-22283984D01*
X7320182Y-22283984D02*
X7339229Y-22293508D01*
X7339229Y-22293508D02*
X7348753Y-22303031D01*
X7348753Y-22303031D02*
X7358277Y-22322079D01*
X7358277Y-22322079D02*
X7367801Y-22360174D01*
X7367801Y-22360174D02*
X7367801Y-22407793D01*
X7367801Y-22407793D02*
X7358277Y-22445888D01*
X7358277Y-22445888D02*
X7348753Y-22464936D01*
X7348753Y-22464936D02*
X7339229Y-22474460D01*
X7339229Y-22474460D02*
X7320182Y-22483984D01*
X7320182Y-22483984D02*
X7301134Y-22483984D01*
X7301134Y-22483984D02*
X7282086Y-22474460D01*
X7282086Y-22474460D02*
X7272563Y-22464936D01*
X7272563Y-22464936D02*
X7263039Y-22445888D01*
X7263039Y-22445888D02*
X7253515Y-22407793D01*
X7253515Y-22407793D02*
X7253515Y-22360174D01*
X7253515Y-22360174D02*
X7263039Y-22322079D01*
X7263039Y-22322079D02*
X7272563Y-22303031D01*
X7272563Y-22303031D02*
X7282086Y-22293508D01*
X7282086Y-22293508D02*
X7301134Y-22283984D01*
X7453515Y-22464936D02*
X7463039Y-22474460D01*
X7463039Y-22474460D02*
X7453515Y-22483984D01*
X7453515Y-22483984D02*
X7443991Y-22474460D01*
X7443991Y-22474460D02*
X7453515Y-22464936D01*
X7453515Y-22464936D02*
X7453515Y-22483984D01*
X7586848Y-22283984D02*
X7605896Y-22283984D01*
X7605896Y-22283984D02*
X7624944Y-22293508D01*
X7624944Y-22293508D02*
X7634467Y-22303031D01*
X7634467Y-22303031D02*
X7643991Y-22322079D01*
X7643991Y-22322079D02*
X7653515Y-22360174D01*
X7653515Y-22360174D02*
X7653515Y-22407793D01*
X7653515Y-22407793D02*
X7643991Y-22445888D01*
X7643991Y-22445888D02*
X7634467Y-22464936D01*
X7634467Y-22464936D02*
X7624944Y-22474460D01*
X7624944Y-22474460D02*
X7605896Y-22483984D01*
X7605896Y-22483984D02*
X7586848Y-22483984D01*
X7586848Y-22483984D02*
X7567801Y-22474460D01*
X7567801Y-22474460D02*
X7558277Y-22464936D01*
X7558277Y-22464936D02*
X7548753Y-22445888D01*
X7548753Y-22445888D02*
X7539229Y-22407793D01*
X7539229Y-22407793D02*
X7539229Y-22360174D01*
X7539229Y-22360174D02*
X7548753Y-22322079D01*
X7548753Y-22322079D02*
X7558277Y-22303031D01*
X7558277Y-22303031D02*
X7567801Y-22293508D01*
X7567801Y-22293508D02*
X7586848Y-22283984D01*
X7720182Y-22283984D02*
X7843991Y-22283984D01*
X7843991Y-22283984D02*
X7777325Y-22360174D01*
X7777325Y-22360174D02*
X7805896Y-22360174D01*
X7805896Y-22360174D02*
X7824944Y-22369698D01*
X7824944Y-22369698D02*
X7834467Y-22379222D01*
X7834467Y-22379222D02*
X7843991Y-22398269D01*
X7843991Y-22398269D02*
X7843991Y-22445888D01*
X7843991Y-22445888D02*
X7834467Y-22464936D01*
X7834467Y-22464936D02*
X7824944Y-22474460D01*
X7824944Y-22474460D02*
X7805896Y-22483984D01*
X7805896Y-22483984D02*
X7748753Y-22483984D01*
X7748753Y-22483984D02*
X7729706Y-22474460D01*
X7729706Y-22474460D02*
X7720182Y-22464936D01*
X7939229Y-22483984D02*
X7977325Y-22483984D01*
X7977325Y-22483984D02*
X7996372Y-22474460D01*
X7996372Y-22474460D02*
X8005896Y-22464936D01*
X8005896Y-22464936D02*
X8024944Y-22436365D01*
X8024944Y-22436365D02*
X8034467Y-22398269D01*
X8034467Y-22398269D02*
X8034467Y-22322079D01*
X8034467Y-22322079D02*
X8024944Y-22303031D01*
X8024944Y-22303031D02*
X8015420Y-22293508D01*
X8015420Y-22293508D02*
X7996372Y-22283984D01*
X7996372Y-22283984D02*
X7958277Y-22283984D01*
X7958277Y-22283984D02*
X7939229Y-22293508D01*
X7939229Y-22293508D02*
X7929706Y-22303031D01*
X7929706Y-22303031D02*
X7920182Y-22322079D01*
X7920182Y-22322079D02*
X7920182Y-22369698D01*
X7920182Y-22369698D02*
X7929706Y-22388746D01*
X7929706Y-22388746D02*
X7939229Y-22398269D01*
X7939229Y-22398269D02*
X7958277Y-22407793D01*
X7958277Y-22407793D02*
X7996372Y-22407793D01*
X7996372Y-22407793D02*
X8015420Y-22398269D01*
X8015420Y-22398269D02*
X8024944Y-22388746D01*
X8024944Y-22388746D02*
X8034467Y-22369698D01*
X8205896Y-22350650D02*
X8205896Y-22483984D01*
X8158277Y-22274460D02*
X8110658Y-22417317D01*
X8110658Y-22417317D02*
X8234467Y-22417317D01*
X8301134Y-22283984D02*
X8301134Y-22322079D01*
X8377325Y-22283984D02*
X8377325Y-22322079D01*
X8672563Y-22560174D02*
X8663039Y-22550650D01*
X8663039Y-22550650D02*
X8643991Y-22522079D01*
X8643991Y-22522079D02*
X8634468Y-22503031D01*
X8634468Y-22503031D02*
X8624944Y-22474460D01*
X8624944Y-22474460D02*
X8615420Y-22426841D01*
X8615420Y-22426841D02*
X8615420Y-22388746D01*
X8615420Y-22388746D02*
X8624944Y-22341127D01*
X8624944Y-22341127D02*
X8634468Y-22312555D01*
X8634468Y-22312555D02*
X8643991Y-22293508D01*
X8643991Y-22293508D02*
X8663039Y-22264936D01*
X8663039Y-22264936D02*
X8672563Y-22255412D01*
X8853515Y-22483984D02*
X8739230Y-22483984D01*
X8796372Y-22483984D02*
X8796372Y-22283984D01*
X8796372Y-22283984D02*
X8777325Y-22312555D01*
X8777325Y-22312555D02*
X8758277Y-22331603D01*
X8758277Y-22331603D02*
X8739230Y-22341127D01*
X9024944Y-22283984D02*
X8986849Y-22283984D01*
X8986849Y-22283984D02*
X8967801Y-22293508D01*
X8967801Y-22293508D02*
X8958277Y-22303031D01*
X8958277Y-22303031D02*
X8939230Y-22331603D01*
X8939230Y-22331603D02*
X8929706Y-22369698D01*
X8929706Y-22369698D02*
X8929706Y-22445888D01*
X8929706Y-22445888D02*
X8939230Y-22464936D01*
X8939230Y-22464936D02*
X8948753Y-22474460D01*
X8948753Y-22474460D02*
X8967801Y-22483984D01*
X8967801Y-22483984D02*
X9005896Y-22483984D01*
X9005896Y-22483984D02*
X9024944Y-22474460D01*
X9024944Y-22474460D02*
X9034468Y-22464936D01*
X9034468Y-22464936D02*
X9043991Y-22445888D01*
X9043991Y-22445888D02*
X9043991Y-22398269D01*
X9043991Y-22398269D02*
X9034468Y-22379222D01*
X9034468Y-22379222D02*
X9024944Y-22369698D01*
X9024944Y-22369698D02*
X9005896Y-22360174D01*
X9005896Y-22360174D02*
X8967801Y-22360174D01*
X8967801Y-22360174D02*
X8948753Y-22369698D01*
X8948753Y-22369698D02*
X8939230Y-22379222D01*
X8939230Y-22379222D02*
X8929706Y-22398269D01*
X9282087Y-22483984D02*
X9282087Y-22283984D01*
X9367801Y-22483984D02*
X9367801Y-22379222D01*
X9367801Y-22379222D02*
X9358277Y-22360174D01*
X9358277Y-22360174D02*
X9339230Y-22350650D01*
X9339230Y-22350650D02*
X9310658Y-22350650D01*
X9310658Y-22350650D02*
X9291611Y-22360174D01*
X9291611Y-22360174D02*
X9282087Y-22369698D01*
X9491611Y-22483984D02*
X9472563Y-22474460D01*
X9472563Y-22474460D02*
X9463039Y-22464936D01*
X9463039Y-22464936D02*
X9453515Y-22445888D01*
X9453515Y-22445888D02*
X9453515Y-22388746D01*
X9453515Y-22388746D02*
X9463039Y-22369698D01*
X9463039Y-22369698D02*
X9472563Y-22360174D01*
X9472563Y-22360174D02*
X9491611Y-22350650D01*
X9491611Y-22350650D02*
X9520182Y-22350650D01*
X9520182Y-22350650D02*
X9539230Y-22360174D01*
X9539230Y-22360174D02*
X9548753Y-22369698D01*
X9548753Y-22369698D02*
X9558277Y-22388746D01*
X9558277Y-22388746D02*
X9558277Y-22445888D01*
X9558277Y-22445888D02*
X9548753Y-22464936D01*
X9548753Y-22464936D02*
X9539230Y-22474460D01*
X9539230Y-22474460D02*
X9520182Y-22483984D01*
X9520182Y-22483984D02*
X9491611Y-22483984D01*
X9672563Y-22483984D02*
X9653515Y-22474460D01*
X9653515Y-22474460D02*
X9643992Y-22455412D01*
X9643992Y-22455412D02*
X9643992Y-22283984D01*
X9824944Y-22474460D02*
X9805896Y-22483984D01*
X9805896Y-22483984D02*
X9767801Y-22483984D01*
X9767801Y-22483984D02*
X9748753Y-22474460D01*
X9748753Y-22474460D02*
X9739230Y-22455412D01*
X9739230Y-22455412D02*
X9739230Y-22379222D01*
X9739230Y-22379222D02*
X9748753Y-22360174D01*
X9748753Y-22360174D02*
X9767801Y-22350650D01*
X9767801Y-22350650D02*
X9805896Y-22350650D01*
X9805896Y-22350650D02*
X9824944Y-22360174D01*
X9824944Y-22360174D02*
X9834468Y-22379222D01*
X9834468Y-22379222D02*
X9834468Y-22398269D01*
X9834468Y-22398269D02*
X9739230Y-22417317D01*
X9910658Y-22474460D02*
X9929706Y-22483984D01*
X9929706Y-22483984D02*
X9967801Y-22483984D01*
X9967801Y-22483984D02*
X9986849Y-22474460D01*
X9986849Y-22474460D02*
X9996373Y-22455412D01*
X9996373Y-22455412D02*
X9996373Y-22445888D01*
X9996373Y-22445888D02*
X9986849Y-22426841D01*
X9986849Y-22426841D02*
X9967801Y-22417317D01*
X9967801Y-22417317D02*
X9939230Y-22417317D01*
X9939230Y-22417317D02*
X9920182Y-22407793D01*
X9920182Y-22407793D02*
X9910658Y-22388746D01*
X9910658Y-22388746D02*
X9910658Y-22379222D01*
X9910658Y-22379222D02*
X9920182Y-22360174D01*
X9920182Y-22360174D02*
X9939230Y-22350650D01*
X9939230Y-22350650D02*
X9967801Y-22350650D01*
X9967801Y-22350650D02*
X9986849Y-22360174D01*
X10234468Y-22407793D02*
X10386849Y-22407793D01*
X10310658Y-22483984D02*
X10310658Y-22331603D01*
X10720182Y-22350650D02*
X10720182Y-22483984D01*
X10672563Y-22274460D02*
X10624944Y-22417317D01*
X10624944Y-22417317D02*
X10748754Y-22417317D01*
X10920182Y-22283984D02*
X10824944Y-22283984D01*
X10824944Y-22283984D02*
X10815420Y-22379222D01*
X10815420Y-22379222D02*
X10824944Y-22369698D01*
X10824944Y-22369698D02*
X10843992Y-22360174D01*
X10843992Y-22360174D02*
X10891611Y-22360174D01*
X10891611Y-22360174D02*
X10910658Y-22369698D01*
X10910658Y-22369698D02*
X10920182Y-22379222D01*
X10920182Y-22379222D02*
X10929706Y-22398269D01*
X10929706Y-22398269D02*
X10929706Y-22445888D01*
X10929706Y-22445888D02*
X10920182Y-22464936D01*
X10920182Y-22464936D02*
X10910658Y-22474460D01*
X10910658Y-22474460D02*
X10891611Y-22483984D01*
X10891611Y-22483984D02*
X10843992Y-22483984D01*
X10843992Y-22483984D02*
X10824944Y-22474460D01*
X10824944Y-22474460D02*
X10815420Y-22464936D01*
X11158277Y-22474460D02*
X11177325Y-22483984D01*
X11177325Y-22483984D02*
X11215420Y-22483984D01*
X11215420Y-22483984D02*
X11234468Y-22474460D01*
X11234468Y-22474460D02*
X11243992Y-22455412D01*
X11243992Y-22455412D02*
X11243992Y-22445888D01*
X11243992Y-22445888D02*
X11234468Y-22426841D01*
X11234468Y-22426841D02*
X11215420Y-22417317D01*
X11215420Y-22417317D02*
X11186849Y-22417317D01*
X11186849Y-22417317D02*
X11167801Y-22407793D01*
X11167801Y-22407793D02*
X11158277Y-22388746D01*
X11158277Y-22388746D02*
X11158277Y-22379222D01*
X11158277Y-22379222D02*
X11167801Y-22360174D01*
X11167801Y-22360174D02*
X11186849Y-22350650D01*
X11186849Y-22350650D02*
X11215420Y-22350650D01*
X11215420Y-22350650D02*
X11234468Y-22360174D01*
X11358277Y-22483984D02*
X11339230Y-22474460D01*
X11339230Y-22474460D02*
X11329706Y-22455412D01*
X11329706Y-22455412D02*
X11329706Y-22283984D01*
X11463039Y-22483984D02*
X11443992Y-22474460D01*
X11443992Y-22474460D02*
X11434468Y-22464936D01*
X11434468Y-22464936D02*
X11424944Y-22445888D01*
X11424944Y-22445888D02*
X11424944Y-22388746D01*
X11424944Y-22388746D02*
X11434468Y-22369698D01*
X11434468Y-22369698D02*
X11443992Y-22360174D01*
X11443992Y-22360174D02*
X11463039Y-22350650D01*
X11463039Y-22350650D02*
X11491611Y-22350650D01*
X11491611Y-22350650D02*
X11510658Y-22360174D01*
X11510658Y-22360174D02*
X11520182Y-22369698D01*
X11520182Y-22369698D02*
X11529706Y-22388746D01*
X11529706Y-22388746D02*
X11529706Y-22445888D01*
X11529706Y-22445888D02*
X11520182Y-22464936D01*
X11520182Y-22464936D02*
X11510658Y-22474460D01*
X11510658Y-22474460D02*
X11491611Y-22483984D01*
X11491611Y-22483984D02*
X11463039Y-22483984D01*
X11586849Y-22350650D02*
X11663039Y-22350650D01*
X11615420Y-22283984D02*
X11615420Y-22455412D01*
X11615420Y-22455412D02*
X11624944Y-22474460D01*
X11624944Y-22474460D02*
X11643992Y-22483984D01*
X11643992Y-22483984D02*
X11663039Y-22483984D01*
X11720182Y-22474460D02*
X11739230Y-22483984D01*
X11739230Y-22483984D02*
X11777325Y-22483984D01*
X11777325Y-22483984D02*
X11796373Y-22474460D01*
X11796373Y-22474460D02*
X11805896Y-22455412D01*
X11805896Y-22455412D02*
X11805896Y-22445888D01*
X11805896Y-22445888D02*
X11796373Y-22426841D01*
X11796373Y-22426841D02*
X11777325Y-22417317D01*
X11777325Y-22417317D02*
X11748754Y-22417317D01*
X11748754Y-22417317D02*
X11729706Y-22407793D01*
X11729706Y-22407793D02*
X11720182Y-22388746D01*
X11720182Y-22388746D02*
X11720182Y-22379222D01*
X11720182Y-22379222D02*
X11729706Y-22360174D01*
X11729706Y-22360174D02*
X11748754Y-22350650D01*
X11748754Y-22350650D02*
X11777325Y-22350650D01*
X11777325Y-22350650D02*
X11796373Y-22360174D01*
X11872563Y-22560174D02*
X11882087Y-22550650D01*
X11882087Y-22550650D02*
X11901135Y-22522079D01*
X11901135Y-22522079D02*
X11910658Y-22503031D01*
X11910658Y-22503031D02*
X11920182Y-22474460D01*
X11920182Y-22474460D02*
X11929706Y-22426841D01*
X11929706Y-22426841D02*
X11929706Y-22388746D01*
X11929706Y-22388746D02*
X11920182Y-22341127D01*
X11920182Y-22341127D02*
X11910658Y-22312555D01*
X11910658Y-22312555D02*
X11901135Y-22293508D01*
X11901135Y-22293508D02*
X11882087Y-22264936D01*
X11882087Y-22264936D02*
X11872563Y-22255412D01*
M02*
