%TF.GenerationSoftware,KiCad,Pcbnew,8.0.5*%
%TF.CreationDate,2024-12-03T23:42:28+01:00*%
%TF.ProjectId,DMH_Multiverter_PCB_Conn,444d485f-4d75-46c7-9469-766572746572,1*%
%TF.SameCoordinates,Original*%
%TF.FileFunction,Drillmap*%
%TF.FilePolarity,Positive*%
%FSLAX45Y45*%
G04 Gerber Fmt 4.5, Leading zero omitted, Abs format (unit mm)*
G04 Created by KiCad (PCBNEW 8.0.5) date 2024-12-03 23:42:28*
%MOMM*%
%LPD*%
G01*
G04 APERTURE LIST*
%ADD10C,0.100000*%
%ADD11C,0.200000*%
G04 APERTURE END LIST*
D10*
X7100000Y-11350000D02*
X9900000Y-11350000D01*
X5100000Y-21750000D02*
X5100000Y-4250000D01*
X5100000Y-4250000D02*
X7100000Y-4250000D01*
X7100000Y-4250000D02*
X7100000Y-11350000D01*
X9900000Y-11350000D02*
X9900000Y-21750000D01*
X9900000Y-21750000D02*
X5100000Y-21750000D01*
D11*
D10*
X5850000Y-5600000D02*
X5950000Y-5700000D01*
X5950000Y-5600000D02*
X5850000Y-5700000D01*
X5975000Y-5600000D02*
X5825000Y-5600000D01*
X5825000Y-5700000D02*
G75*
G02*
X5825000Y-5600000I0J50000D01*
G01*
X5825000Y-5700000D02*
X5975000Y-5700000D01*
X5975000Y-5700000D02*
G75*
G03*
X5975000Y-5600000I0J50000D01*
G01*
X5850000Y-7300000D02*
X5950000Y-7400000D01*
X5950000Y-7300000D02*
X5850000Y-7400000D01*
X5975000Y-7300000D02*
X5825000Y-7300000D01*
X5825000Y-7400000D02*
G75*
G02*
X5825000Y-7300000I0J50000D01*
G01*
X5825000Y-7400000D02*
X5975000Y-7400000D01*
X5975000Y-7400000D02*
G75*
G03*
X5975000Y-7300000I0J50000D01*
G01*
X5850000Y-9425000D02*
X5950000Y-9525000D01*
X5950000Y-9425000D02*
X5850000Y-9525000D01*
X5975000Y-9425000D02*
X5825000Y-9425000D01*
X5825000Y-9525000D02*
G75*
G02*
X5825000Y-9425000I0J50000D01*
G01*
X5825000Y-9525000D02*
X5975000Y-9525000D01*
X5975000Y-9525000D02*
G75*
G03*
X5975000Y-9425000I0J50000D01*
G01*
X5850000Y-11125000D02*
X5950000Y-11225000D01*
X5950000Y-11125000D02*
X5850000Y-11225000D01*
X5975000Y-11125000D02*
X5825000Y-11125000D01*
X5825000Y-11225000D02*
G75*
G02*
X5825000Y-11125000I0J50000D01*
G01*
X5825000Y-11225000D02*
X5975000Y-11225000D01*
X5975000Y-11225000D02*
G75*
G03*
X5975000Y-11125000I0J50000D01*
G01*
X5850000Y-13225000D02*
X5950000Y-13325000D01*
X5950000Y-13225000D02*
X5850000Y-13325000D01*
X5975000Y-13225000D02*
X5825000Y-13225000D01*
X5825000Y-13325000D02*
G75*
G02*
X5825000Y-13225000I0J50000D01*
G01*
X5825000Y-13325000D02*
X5975000Y-13325000D01*
X5975000Y-13325000D02*
G75*
G03*
X5975000Y-13225000I0J50000D01*
G01*
X5850000Y-14875000D02*
X5950000Y-14975000D01*
X5950000Y-14875000D02*
X5850000Y-14975000D01*
X5975000Y-14875000D02*
X5825000Y-14875000D01*
X5825000Y-14975000D02*
G75*
G02*
X5825000Y-14875000I0J50000D01*
G01*
X5825000Y-14975000D02*
X5975000Y-14975000D01*
X5975000Y-14975000D02*
G75*
G03*
X5975000Y-14875000I0J50000D01*
G01*
X5850000Y-16525000D02*
X5950000Y-16625000D01*
X5950000Y-16525000D02*
X5850000Y-16625000D01*
X5975000Y-16525000D02*
X5825000Y-16525000D01*
X5825000Y-16625000D02*
G75*
G02*
X5825000Y-16525000I0J50000D01*
G01*
X5825000Y-16625000D02*
X5975000Y-16625000D01*
X5975000Y-16625000D02*
G75*
G03*
X5975000Y-16525000I0J50000D01*
G01*
X5850000Y-18175000D02*
X5950000Y-18275000D01*
X5950000Y-18175000D02*
X5850000Y-18275000D01*
X5975000Y-18175000D02*
X5825000Y-18175000D01*
X5825000Y-18275000D02*
G75*
G02*
X5825000Y-18175000I0J50000D01*
G01*
X5825000Y-18275000D02*
X5975000Y-18275000D01*
X5975000Y-18275000D02*
G75*
G03*
X5975000Y-18175000I0J50000D01*
G01*
X5850000Y-19825000D02*
X5950000Y-19925000D01*
X5950000Y-19825000D02*
X5850000Y-19925000D01*
X5975000Y-19825000D02*
X5825000Y-19825000D01*
X5825000Y-19925000D02*
G75*
G02*
X5825000Y-19825000I0J50000D01*
G01*
X5825000Y-19925000D02*
X5975000Y-19925000D01*
X5975000Y-19925000D02*
G75*
G03*
X5975000Y-19825000I0J50000D01*
G01*
X5850000Y-21475000D02*
X5950000Y-21575000D01*
X5950000Y-21475000D02*
X5850000Y-21575000D01*
X5975000Y-21475000D02*
X5825000Y-21475000D01*
X5825000Y-21575000D02*
G75*
G02*
X5825000Y-21475000I0J50000D01*
G01*
X5825000Y-21575000D02*
X5975000Y-21575000D01*
X5975000Y-21575000D02*
G75*
G03*
X5975000Y-21475000I0J50000D01*
G01*
X6259619Y-4490381D02*
X6359619Y-4590381D01*
X6359619Y-4490381D02*
X6259619Y-4590381D01*
X6398007Y-4558059D02*
X6291941Y-4451993D01*
X6221231Y-4522703D02*
G75*
G02*
X6291941Y-4451993I35355J35355D01*
G01*
X6221231Y-4522703D02*
X6327297Y-4628769D01*
X6327297Y-4628769D02*
G75*
G03*
X6398007Y-4558059I35355J35355D01*
G01*
X6259619Y-6190381D02*
X6359619Y-6290381D01*
X6359619Y-6190381D02*
X6259619Y-6290381D01*
X6398007Y-6258059D02*
X6291941Y-6151993D01*
X6221231Y-6222703D02*
G75*
G02*
X6291941Y-6151993I35355J35355D01*
G01*
X6221231Y-6222703D02*
X6327297Y-6328769D01*
X6327297Y-6328769D02*
G75*
G03*
X6398007Y-6258059I35355J35355D01*
G01*
X6259619Y-8315381D02*
X6359619Y-8415381D01*
X6359619Y-8315381D02*
X6259619Y-8415381D01*
X6398007Y-8383059D02*
X6291941Y-8276993D01*
X6221231Y-8347703D02*
G75*
G02*
X6291941Y-8276993I35355J35355D01*
G01*
X6221231Y-8347703D02*
X6327297Y-8453769D01*
X6327297Y-8453769D02*
G75*
G03*
X6398007Y-8383059I35355J35355D01*
G01*
X6259619Y-10015381D02*
X6359619Y-10115381D01*
X6359619Y-10015381D02*
X6259619Y-10115381D01*
X6398007Y-10083059D02*
X6291941Y-9976993D01*
X6221231Y-10047703D02*
G75*
G02*
X6291941Y-9976993I35355J35355D01*
G01*
X6221231Y-10047703D02*
X6327297Y-10153769D01*
X6327297Y-10153769D02*
G75*
G03*
X6398007Y-10083059I35355J35355D01*
G01*
X6259619Y-12115381D02*
X6359619Y-12215381D01*
X6359619Y-12115381D02*
X6259619Y-12215381D01*
X6398007Y-12183059D02*
X6291941Y-12076993D01*
X6221231Y-12147703D02*
G75*
G02*
X6291941Y-12076993I35355J35355D01*
G01*
X6221231Y-12147703D02*
X6327297Y-12253769D01*
X6327297Y-12253769D02*
G75*
G03*
X6398007Y-12183059I35355J35355D01*
G01*
X6259619Y-13765381D02*
X6359619Y-13865381D01*
X6359619Y-13765381D02*
X6259619Y-13865381D01*
X6398007Y-13833059D02*
X6291941Y-13726993D01*
X6221231Y-13797703D02*
G75*
G02*
X6291941Y-13726993I35355J35355D01*
G01*
X6221231Y-13797703D02*
X6327297Y-13903769D01*
X6327297Y-13903769D02*
G75*
G03*
X6398007Y-13833059I35355J35355D01*
G01*
X6259619Y-15415381D02*
X6359619Y-15515381D01*
X6359619Y-15415381D02*
X6259619Y-15515381D01*
X6398007Y-15483059D02*
X6291941Y-15376993D01*
X6221231Y-15447703D02*
G75*
G02*
X6291941Y-15376993I35355J35355D01*
G01*
X6221231Y-15447703D02*
X6327297Y-15553769D01*
X6327297Y-15553769D02*
G75*
G03*
X6398007Y-15483059I35355J35355D01*
G01*
X6259619Y-17065381D02*
X6359619Y-17165381D01*
X6359619Y-17065381D02*
X6259619Y-17165381D01*
X6398007Y-17133059D02*
X6291941Y-17026993D01*
X6221231Y-17097703D02*
G75*
G02*
X6291941Y-17026993I35355J35355D01*
G01*
X6221231Y-17097703D02*
X6327297Y-17203769D01*
X6327297Y-17203769D02*
G75*
G03*
X6398007Y-17133059I35355J35355D01*
G01*
X6259619Y-18715381D02*
X6359619Y-18815381D01*
X6359619Y-18715381D02*
X6259619Y-18815381D01*
X6398007Y-18783059D02*
X6291941Y-18676993D01*
X6221231Y-18747703D02*
G75*
G02*
X6291941Y-18676993I35355J35355D01*
G01*
X6221231Y-18747703D02*
X6327297Y-18853769D01*
X6327297Y-18853769D02*
G75*
G03*
X6398007Y-18783059I35355J35355D01*
G01*
X6259619Y-20365381D02*
X6359619Y-20465381D01*
X6359619Y-20365381D02*
X6259619Y-20465381D01*
X6398007Y-20433059D02*
X6291941Y-20326993D01*
X6221231Y-20397703D02*
G75*
G02*
X6291941Y-20326993I35355J35355D01*
G01*
X6221231Y-20397703D02*
X6327297Y-20503769D01*
X6327297Y-20503769D02*
G75*
G03*
X6398007Y-20433059I35355J35355D01*
G01*
X6450000Y-5200000D02*
X6550000Y-5300000D01*
X6550000Y-5200000D02*
X6450000Y-5300000D01*
X6450000Y-5175000D02*
X6450000Y-5325000D01*
X6550000Y-5325000D02*
G75*
G02*
X6450000Y-5325000I-50000J0D01*
G01*
X6550000Y-5325000D02*
X6550000Y-5175000D01*
X6550000Y-5175000D02*
G75*
G03*
X6450000Y-5175000I-50000J0D01*
G01*
X6450000Y-6900000D02*
X6550000Y-7000000D01*
X6550000Y-6900000D02*
X6450000Y-7000000D01*
X6450000Y-6875000D02*
X6450000Y-7025000D01*
X6550000Y-7025000D02*
G75*
G02*
X6450000Y-7025000I-50000J0D01*
G01*
X6550000Y-7025000D02*
X6550000Y-6875000D01*
X6550000Y-6875000D02*
G75*
G03*
X6450000Y-6875000I-50000J0D01*
G01*
X6450000Y-9025000D02*
X6550000Y-9125000D01*
X6550000Y-9025000D02*
X6450000Y-9125000D01*
X6450000Y-9000000D02*
X6450000Y-9150000D01*
X6550000Y-9150000D02*
G75*
G02*
X6450000Y-9150000I-50000J0D01*
G01*
X6550000Y-9150000D02*
X6550000Y-9000000D01*
X6550000Y-9000000D02*
G75*
G03*
X6450000Y-9000000I-50000J0D01*
G01*
X6450000Y-10725000D02*
X6550000Y-10825000D01*
X6550000Y-10725000D02*
X6450000Y-10825000D01*
X6450000Y-10700000D02*
X6450000Y-10850000D01*
X6550000Y-10850000D02*
G75*
G02*
X6450000Y-10850000I-50000J0D01*
G01*
X6550000Y-10850000D02*
X6550000Y-10700000D01*
X6550000Y-10700000D02*
G75*
G03*
X6450000Y-10700000I-50000J0D01*
G01*
X6450000Y-12825000D02*
X6550000Y-12925000D01*
X6550000Y-12825000D02*
X6450000Y-12925000D01*
X6450000Y-12800000D02*
X6450000Y-12950000D01*
X6550000Y-12950000D02*
G75*
G02*
X6450000Y-12950000I-50000J0D01*
G01*
X6550000Y-12950000D02*
X6550000Y-12800000D01*
X6550000Y-12800000D02*
G75*
G03*
X6450000Y-12800000I-50000J0D01*
G01*
X6450000Y-14475000D02*
X6550000Y-14575000D01*
X6550000Y-14475000D02*
X6450000Y-14575000D01*
X6450000Y-14450000D02*
X6450000Y-14600000D01*
X6550000Y-14600000D02*
G75*
G02*
X6450000Y-14600000I-50000J0D01*
G01*
X6550000Y-14600000D02*
X6550000Y-14450000D01*
X6550000Y-14450000D02*
G75*
G03*
X6450000Y-14450000I-50000J0D01*
G01*
X6450000Y-16125000D02*
X6550000Y-16225000D01*
X6550000Y-16125000D02*
X6450000Y-16225000D01*
X6450000Y-16100000D02*
X6450000Y-16250000D01*
X6550000Y-16250000D02*
G75*
G02*
X6450000Y-16250000I-50000J0D01*
G01*
X6550000Y-16250000D02*
X6550000Y-16100000D01*
X6550000Y-16100000D02*
G75*
G03*
X6450000Y-16100000I-50000J0D01*
G01*
X6450000Y-17775000D02*
X6550000Y-17875000D01*
X6550000Y-17775000D02*
X6450000Y-17875000D01*
X6450000Y-17750000D02*
X6450000Y-17900000D01*
X6550000Y-17900000D02*
G75*
G02*
X6450000Y-17900000I-50000J0D01*
G01*
X6550000Y-17900000D02*
X6550000Y-17750000D01*
X6550000Y-17750000D02*
G75*
G03*
X6450000Y-17750000I-50000J0D01*
G01*
X6450000Y-19425000D02*
X6550000Y-19525000D01*
X6550000Y-19425000D02*
X6450000Y-19525000D01*
X6450000Y-19400000D02*
X6450000Y-19550000D01*
X6550000Y-19550000D02*
G75*
G02*
X6450000Y-19550000I-50000J0D01*
G01*
X6550000Y-19550000D02*
X6550000Y-19400000D01*
X6550000Y-19400000D02*
G75*
G03*
X6450000Y-19400000I-50000J0D01*
G01*
X6450000Y-21075000D02*
X6550000Y-21175000D01*
X6550000Y-21075000D02*
X6450000Y-21175000D01*
X6450000Y-21050000D02*
X6450000Y-21200000D01*
X6550000Y-21200000D02*
G75*
G02*
X6450000Y-21200000I-50000J0D01*
G01*
X6550000Y-21200000D02*
X6550000Y-21050000D01*
X6550000Y-21050000D02*
G75*
G03*
X6450000Y-21050000I-50000J0D01*
G01*
X6847500Y-7067500D02*
X6947500Y-7167500D01*
X6947500Y-7067500D02*
X6847500Y-7167500D01*
X6847500Y-7321500D02*
X6947500Y-7421500D01*
X6947500Y-7321500D02*
X6847500Y-7421500D01*
X6847500Y-7575500D02*
X6947500Y-7675500D01*
X6947500Y-7575500D02*
X6847500Y-7675500D01*
X6847500Y-7829500D02*
X6947500Y-7929500D01*
X6947500Y-7829500D02*
X6847500Y-7929500D01*
X6847500Y-8083500D02*
X6947500Y-8183500D01*
X6947500Y-8083500D02*
X6847500Y-8183500D01*
X6847500Y-8337500D02*
X6947500Y-8437500D01*
X6947500Y-8337500D02*
X6847500Y-8437500D01*
X6990381Y-12115381D02*
X7090381Y-12215381D01*
X7090381Y-12115381D02*
X6990381Y-12215381D01*
X7058059Y-12076993D02*
X6951993Y-12183059D01*
X7022703Y-12253769D02*
G75*
G02*
X6951993Y-12183059I-35355J35355D01*
G01*
X7022703Y-12253769D02*
X7128769Y-12147703D01*
X7128769Y-12147703D02*
G75*
G03*
X7058059Y-12076993I-35355J35355D01*
G01*
X6990381Y-13765381D02*
X7090381Y-13865381D01*
X7090381Y-13765381D02*
X6990381Y-13865381D01*
X7058059Y-13726993D02*
X6951993Y-13833059D01*
X7022703Y-13903769D02*
G75*
G02*
X6951993Y-13833059I-35355J35355D01*
G01*
X7022703Y-13903769D02*
X7128769Y-13797703D01*
X7128769Y-13797703D02*
G75*
G03*
X7058059Y-13726993I-35355J35355D01*
G01*
X6990381Y-15415381D02*
X7090381Y-15515381D01*
X7090381Y-15415381D02*
X6990381Y-15515381D01*
X7058059Y-15376993D02*
X6951993Y-15483059D01*
X7022703Y-15553769D02*
G75*
G02*
X6951993Y-15483059I-35355J35355D01*
G01*
X7022703Y-15553769D02*
X7128769Y-15447703D01*
X7128769Y-15447703D02*
G75*
G03*
X7058059Y-15376993I-35355J35355D01*
G01*
X6990381Y-17065381D02*
X7090381Y-17165381D01*
X7090381Y-17065381D02*
X6990381Y-17165381D01*
X7058059Y-17026993D02*
X6951993Y-17133059D01*
X7022703Y-17203769D02*
G75*
G02*
X6951993Y-17133059I-35355J35355D01*
G01*
X7022703Y-17203769D02*
X7128769Y-17097703D01*
X7128769Y-17097703D02*
G75*
G03*
X7058059Y-17026993I-35355J35355D01*
G01*
X6990381Y-18715381D02*
X7090381Y-18815381D01*
X7090381Y-18715381D02*
X6990381Y-18815381D01*
X7058059Y-18676993D02*
X6951993Y-18783059D01*
X7022703Y-18853769D02*
G75*
G02*
X6951993Y-18783059I-35355J35355D01*
G01*
X7022703Y-18853769D02*
X7128769Y-18747703D01*
X7128769Y-18747703D02*
G75*
G03*
X7058059Y-18676993I-35355J35355D01*
G01*
X6990381Y-20365381D02*
X7090381Y-20465381D01*
X7090381Y-20365381D02*
X6990381Y-20465381D01*
X7058059Y-20326993D02*
X6951993Y-20433059D01*
X7022703Y-20503769D02*
G75*
G02*
X6951993Y-20433059I-35355J35355D01*
G01*
X7022703Y-20503769D02*
X7128769Y-20397703D01*
X7128769Y-20397703D02*
G75*
G03*
X7058059Y-20326993I-35355J35355D01*
G01*
X7612500Y-11497500D02*
X7712500Y-11597500D01*
X7712500Y-11497500D02*
X7612500Y-11597500D01*
X7700000Y-11925000D02*
X7800000Y-12025000D01*
X7800000Y-11925000D02*
X7700000Y-12025000D01*
X7675000Y-12025000D02*
X7825000Y-12025000D01*
X7825000Y-11925000D02*
G75*
G02*
X7825000Y-12025000I0J-50000D01*
G01*
X7825000Y-11925000D02*
X7675000Y-11925000D01*
X7675000Y-11925000D02*
G75*
G03*
X7675000Y-12025000I0J-50000D01*
G01*
X7700000Y-13575000D02*
X7800000Y-13675000D01*
X7800000Y-13575000D02*
X7700000Y-13675000D01*
X7675000Y-13675000D02*
X7825000Y-13675000D01*
X7825000Y-13575000D02*
G75*
G02*
X7825000Y-13675000I0J-50000D01*
G01*
X7825000Y-13575000D02*
X7675000Y-13575000D01*
X7675000Y-13575000D02*
G75*
G03*
X7675000Y-13675000I0J-50000D01*
G01*
X7700000Y-15225000D02*
X7800000Y-15325000D01*
X7800000Y-15225000D02*
X7700000Y-15325000D01*
X7675000Y-15325000D02*
X7825000Y-15325000D01*
X7825000Y-15225000D02*
G75*
G02*
X7825000Y-15325000I0J-50000D01*
G01*
X7825000Y-15225000D02*
X7675000Y-15225000D01*
X7675000Y-15225000D02*
G75*
G03*
X7675000Y-15325000I0J-50000D01*
G01*
X7700000Y-16875000D02*
X7800000Y-16975000D01*
X7800000Y-16875000D02*
X7700000Y-16975000D01*
X7675000Y-16975000D02*
X7825000Y-16975000D01*
X7825000Y-16875000D02*
G75*
G02*
X7825000Y-16975000I0J-50000D01*
G01*
X7825000Y-16875000D02*
X7675000Y-16875000D01*
X7675000Y-16875000D02*
G75*
G03*
X7675000Y-16975000I0J-50000D01*
G01*
X7700000Y-18525000D02*
X7800000Y-18625000D01*
X7800000Y-18525000D02*
X7700000Y-18625000D01*
X7675000Y-18625000D02*
X7825000Y-18625000D01*
X7825000Y-18525000D02*
G75*
G02*
X7825000Y-18625000I0J-50000D01*
G01*
X7825000Y-18525000D02*
X7675000Y-18525000D01*
X7675000Y-18525000D02*
G75*
G03*
X7675000Y-18625000I0J-50000D01*
G01*
X7700000Y-20175000D02*
X7800000Y-20275000D01*
X7800000Y-20175000D02*
X7700000Y-20275000D01*
X7675000Y-20275000D02*
X7825000Y-20275000D01*
X7825000Y-20175000D02*
G75*
G02*
X7825000Y-20275000I0J-50000D01*
G01*
X7825000Y-20175000D02*
X7675000Y-20175000D01*
X7675000Y-20175000D02*
G75*
G03*
X7675000Y-20275000I0J-50000D01*
G01*
X7866500Y-11497500D02*
X7966500Y-11597500D01*
X7966500Y-11497500D02*
X7866500Y-11597500D01*
X8100000Y-12525000D02*
X8200000Y-12625000D01*
X8200000Y-12525000D02*
X8100000Y-12625000D01*
X8100000Y-12500000D02*
X8100000Y-12650000D01*
X8200000Y-12650000D02*
G75*
G02*
X8100000Y-12650000I-50000J0D01*
G01*
X8200000Y-12650000D02*
X8200000Y-12500000D01*
X8200000Y-12500000D02*
G75*
G03*
X8100000Y-12500000I-50000J0D01*
G01*
X8100000Y-14175000D02*
X8200000Y-14275000D01*
X8200000Y-14175000D02*
X8100000Y-14275000D01*
X8100000Y-14150000D02*
X8100000Y-14300000D01*
X8200000Y-14300000D02*
G75*
G02*
X8100000Y-14300000I-50000J0D01*
G01*
X8200000Y-14300000D02*
X8200000Y-14150000D01*
X8200000Y-14150000D02*
G75*
G03*
X8100000Y-14150000I-50000J0D01*
G01*
X8100000Y-15825000D02*
X8200000Y-15925000D01*
X8200000Y-15825000D02*
X8100000Y-15925000D01*
X8100000Y-15800000D02*
X8100000Y-15950000D01*
X8200000Y-15950000D02*
G75*
G02*
X8100000Y-15950000I-50000J0D01*
G01*
X8200000Y-15950000D02*
X8200000Y-15800000D01*
X8200000Y-15800000D02*
G75*
G03*
X8100000Y-15800000I-50000J0D01*
G01*
X8100000Y-17475000D02*
X8200000Y-17575000D01*
X8200000Y-17475000D02*
X8100000Y-17575000D01*
X8100000Y-17450000D02*
X8100000Y-17600000D01*
X8200000Y-17600000D02*
G75*
G02*
X8100000Y-17600000I-50000J0D01*
G01*
X8200000Y-17600000D02*
X8200000Y-17450000D01*
X8200000Y-17450000D02*
G75*
G03*
X8100000Y-17450000I-50000J0D01*
G01*
X8100000Y-19125000D02*
X8200000Y-19225000D01*
X8200000Y-19125000D02*
X8100000Y-19225000D01*
X8100000Y-19100000D02*
X8100000Y-19250000D01*
X8200000Y-19250000D02*
G75*
G02*
X8100000Y-19250000I-50000J0D01*
G01*
X8200000Y-19250000D02*
X8200000Y-19100000D01*
X8200000Y-19100000D02*
G75*
G03*
X8100000Y-19100000I-50000J0D01*
G01*
X8100000Y-20775000D02*
X8200000Y-20875000D01*
X8200000Y-20775000D02*
X8100000Y-20875000D01*
X8100000Y-20750000D02*
X8100000Y-20900000D01*
X8200000Y-20900000D02*
G75*
G02*
X8100000Y-20900000I-50000J0D01*
G01*
X8200000Y-20900000D02*
X8200000Y-20750000D01*
X8200000Y-20750000D02*
G75*
G03*
X8100000Y-20750000I-50000J0D01*
G01*
X8120500Y-11497500D02*
X8220500Y-11597500D01*
X8220500Y-11497500D02*
X8120500Y-11597500D01*
X8374500Y-11497500D02*
X8474500Y-11597500D01*
X8474500Y-11497500D02*
X8374500Y-11597500D01*
X8450000Y-12325000D02*
X8550000Y-12425000D01*
X8550000Y-12325000D02*
X8450000Y-12425000D01*
X8550000Y-12450000D02*
X8550000Y-12300000D01*
X8450000Y-12300000D02*
G75*
G02*
X8550000Y-12300000I50000J0D01*
G01*
X8450000Y-12300000D02*
X8450000Y-12450000D01*
X8450000Y-12450000D02*
G75*
G03*
X8550000Y-12450000I50000J0D01*
G01*
X8450000Y-13975000D02*
X8550000Y-14075000D01*
X8550000Y-13975000D02*
X8450000Y-14075000D01*
X8550000Y-14100000D02*
X8550000Y-13950000D01*
X8450000Y-13950000D02*
G75*
G02*
X8550000Y-13950000I50000J0D01*
G01*
X8450000Y-13950000D02*
X8450000Y-14100000D01*
X8450000Y-14100000D02*
G75*
G03*
X8550000Y-14100000I50000J0D01*
G01*
X8450000Y-15625000D02*
X8550000Y-15725000D01*
X8550000Y-15625000D02*
X8450000Y-15725000D01*
X8550000Y-15750000D02*
X8550000Y-15600000D01*
X8450000Y-15600000D02*
G75*
G02*
X8550000Y-15600000I50000J0D01*
G01*
X8450000Y-15600000D02*
X8450000Y-15750000D01*
X8450000Y-15750000D02*
G75*
G03*
X8550000Y-15750000I50000J0D01*
G01*
X8450000Y-17275000D02*
X8550000Y-17375000D01*
X8550000Y-17275000D02*
X8450000Y-17375000D01*
X8550000Y-17400000D02*
X8550000Y-17250000D01*
X8450000Y-17250000D02*
G75*
G02*
X8550000Y-17250000I50000J0D01*
G01*
X8450000Y-17250000D02*
X8450000Y-17400000D01*
X8450000Y-17400000D02*
G75*
G03*
X8550000Y-17400000I50000J0D01*
G01*
X8450000Y-18925000D02*
X8550000Y-19025000D01*
X8550000Y-18925000D02*
X8450000Y-19025000D01*
X8550000Y-19050000D02*
X8550000Y-18900000D01*
X8450000Y-18900000D02*
G75*
G02*
X8550000Y-18900000I50000J0D01*
G01*
X8450000Y-18900000D02*
X8450000Y-19050000D01*
X8450000Y-19050000D02*
G75*
G03*
X8550000Y-19050000I50000J0D01*
G01*
X8450000Y-20575000D02*
X8550000Y-20675000D01*
X8550000Y-20575000D02*
X8450000Y-20675000D01*
X8550000Y-20700000D02*
X8550000Y-20550000D01*
X8450000Y-20550000D02*
G75*
G02*
X8550000Y-20550000I50000J0D01*
G01*
X8450000Y-20550000D02*
X8450000Y-20700000D01*
X8450000Y-20700000D02*
G75*
G03*
X8550000Y-20700000I50000J0D01*
G01*
X8628500Y-11497500D02*
X8728500Y-11597500D01*
X8728500Y-11497500D02*
X8628500Y-11597500D01*
X8640381Y-13034619D02*
X8740381Y-13134619D01*
X8740381Y-13034619D02*
X8640381Y-13134619D01*
X8601993Y-13066941D02*
X8708059Y-13173007D01*
X8778769Y-13102297D02*
G75*
G02*
X8708059Y-13173007I-35355J-35355D01*
G01*
X8778769Y-13102297D02*
X8672703Y-12996231D01*
X8672703Y-12996231D02*
G75*
G03*
X8601993Y-13066941I-35355J-35355D01*
G01*
X8640381Y-14684619D02*
X8740381Y-14784619D01*
X8740381Y-14684619D02*
X8640381Y-14784619D01*
X8601993Y-14716941D02*
X8708059Y-14823007D01*
X8778769Y-14752297D02*
G75*
G02*
X8708059Y-14823007I-35355J-35355D01*
G01*
X8778769Y-14752297D02*
X8672703Y-14646231D01*
X8672703Y-14646231D02*
G75*
G03*
X8601993Y-14716941I-35355J-35355D01*
G01*
X8640381Y-16334619D02*
X8740381Y-16434619D01*
X8740381Y-16334619D02*
X8640381Y-16434619D01*
X8601993Y-16366941D02*
X8708059Y-16473007D01*
X8778769Y-16402297D02*
G75*
G02*
X8708059Y-16473007I-35355J-35355D01*
G01*
X8778769Y-16402297D02*
X8672703Y-16296231D01*
X8672703Y-16296231D02*
G75*
G03*
X8601993Y-16366941I-35355J-35355D01*
G01*
X8640381Y-17984619D02*
X8740381Y-18084619D01*
X8740381Y-17984619D02*
X8640381Y-18084619D01*
X8601993Y-18016941D02*
X8708059Y-18123007D01*
X8778769Y-18052297D02*
G75*
G02*
X8708059Y-18123007I-35355J-35355D01*
G01*
X8778769Y-18052297D02*
X8672703Y-17946231D01*
X8672703Y-17946231D02*
G75*
G03*
X8601993Y-18016941I-35355J-35355D01*
G01*
X8640381Y-19634619D02*
X8740381Y-19734619D01*
X8740381Y-19634619D02*
X8640381Y-19734619D01*
X8601993Y-19666941D02*
X8708059Y-19773007D01*
X8778769Y-19702297D02*
G75*
G02*
X8708059Y-19773007I-35355J-35355D01*
G01*
X8778769Y-19702297D02*
X8672703Y-19596231D01*
X8672703Y-19596231D02*
G75*
G03*
X8601993Y-19666941I-35355J-35355D01*
G01*
X8640381Y-21284619D02*
X8740381Y-21384619D01*
X8740381Y-21284619D02*
X8640381Y-21384619D01*
X8601993Y-21316941D02*
X8708059Y-21423007D01*
X8778769Y-21352297D02*
G75*
G02*
X8708059Y-21423007I-35355J-35355D01*
G01*
X8778769Y-21352297D02*
X8672703Y-21246231D01*
X8672703Y-21246231D02*
G75*
G03*
X8601993Y-21316941I-35355J-35355D01*
G01*
X8882500Y-11497500D02*
X8982500Y-11597500D01*
X8982500Y-11497500D02*
X8882500Y-11597500D01*
X9050000Y-11925000D02*
X9150000Y-12025000D01*
X9150000Y-11925000D02*
X9050000Y-12025000D01*
X9025000Y-12025000D02*
X9175000Y-12025000D01*
X9175000Y-11925000D02*
G75*
G02*
X9175000Y-12025000I0J-50000D01*
G01*
X9175000Y-11925000D02*
X9025000Y-11925000D01*
X9025000Y-11925000D02*
G75*
G03*
X9025000Y-12025000I0J-50000D01*
G01*
X9050000Y-13575000D02*
X9150000Y-13675000D01*
X9150000Y-13575000D02*
X9050000Y-13675000D01*
X9025000Y-13675000D02*
X9175000Y-13675000D01*
X9175000Y-13575000D02*
G75*
G02*
X9175000Y-13675000I0J-50000D01*
G01*
X9175000Y-13575000D02*
X9025000Y-13575000D01*
X9025000Y-13575000D02*
G75*
G03*
X9025000Y-13675000I0J-50000D01*
G01*
X9050000Y-15225000D02*
X9150000Y-15325000D01*
X9150000Y-15225000D02*
X9050000Y-15325000D01*
X9025000Y-15325000D02*
X9175000Y-15325000D01*
X9175000Y-15225000D02*
G75*
G02*
X9175000Y-15325000I0J-50000D01*
G01*
X9175000Y-15225000D02*
X9025000Y-15225000D01*
X9025000Y-15225000D02*
G75*
G03*
X9025000Y-15325000I0J-50000D01*
G01*
X9050000Y-16875000D02*
X9150000Y-16975000D01*
X9150000Y-16875000D02*
X9050000Y-16975000D01*
X9025000Y-16975000D02*
X9175000Y-16975000D01*
X9175000Y-16875000D02*
G75*
G02*
X9175000Y-16975000I0J-50000D01*
G01*
X9175000Y-16875000D02*
X9025000Y-16875000D01*
X9025000Y-16875000D02*
G75*
G03*
X9025000Y-16975000I0J-50000D01*
G01*
X9050000Y-18525000D02*
X9150000Y-18625000D01*
X9150000Y-18525000D02*
X9050000Y-18625000D01*
X9025000Y-18625000D02*
X9175000Y-18625000D01*
X9175000Y-18525000D02*
G75*
G02*
X9175000Y-18625000I0J-50000D01*
G01*
X9175000Y-18525000D02*
X9025000Y-18525000D01*
X9025000Y-18525000D02*
G75*
G03*
X9025000Y-18625000I0J-50000D01*
G01*
X9050000Y-20175000D02*
X9150000Y-20275000D01*
X9150000Y-20175000D02*
X9050000Y-20275000D01*
X9025000Y-20275000D02*
X9175000Y-20275000D01*
X9175000Y-20175000D02*
G75*
G02*
X9175000Y-20275000I0J-50000D01*
G01*
X9175000Y-20175000D02*
X9025000Y-20175000D01*
X9025000Y-20175000D02*
G75*
G03*
X9025000Y-20275000I0J-50000D01*
G01*
D11*
X5355777Y-22066484D02*
X5355777Y-21866484D01*
X5355777Y-21866484D02*
X5403396Y-21866484D01*
X5403396Y-21866484D02*
X5431967Y-21876008D01*
X5431967Y-21876008D02*
X5451015Y-21895055D01*
X5451015Y-21895055D02*
X5460539Y-21914103D01*
X5460539Y-21914103D02*
X5470063Y-21952198D01*
X5470063Y-21952198D02*
X5470063Y-21980770D01*
X5470063Y-21980770D02*
X5460539Y-22018865D01*
X5460539Y-22018865D02*
X5451015Y-22037912D01*
X5451015Y-22037912D02*
X5431967Y-22056960D01*
X5431967Y-22056960D02*
X5403396Y-22066484D01*
X5403396Y-22066484D02*
X5355777Y-22066484D01*
X5555777Y-22066484D02*
X5555777Y-21933150D01*
X5555777Y-21971246D02*
X5565301Y-21952198D01*
X5565301Y-21952198D02*
X5574824Y-21942674D01*
X5574824Y-21942674D02*
X5593872Y-21933150D01*
X5593872Y-21933150D02*
X5612920Y-21933150D01*
X5679586Y-22066484D02*
X5679586Y-21933150D01*
X5679586Y-21866484D02*
X5670062Y-21876008D01*
X5670062Y-21876008D02*
X5679586Y-21885531D01*
X5679586Y-21885531D02*
X5689110Y-21876008D01*
X5689110Y-21876008D02*
X5679586Y-21866484D01*
X5679586Y-21866484D02*
X5679586Y-21885531D01*
X5803396Y-22066484D02*
X5784348Y-22056960D01*
X5784348Y-22056960D02*
X5774824Y-22037912D01*
X5774824Y-22037912D02*
X5774824Y-21866484D01*
X5908158Y-22066484D02*
X5889110Y-22056960D01*
X5889110Y-22056960D02*
X5879586Y-22037912D01*
X5879586Y-22037912D02*
X5879586Y-21866484D01*
X6136729Y-22066484D02*
X6136729Y-21866484D01*
X6136729Y-21866484D02*
X6203396Y-22009341D01*
X6203396Y-22009341D02*
X6270062Y-21866484D01*
X6270062Y-21866484D02*
X6270062Y-22066484D01*
X6451015Y-22066484D02*
X6451015Y-21961722D01*
X6451015Y-21961722D02*
X6441491Y-21942674D01*
X6441491Y-21942674D02*
X6422443Y-21933150D01*
X6422443Y-21933150D02*
X6384348Y-21933150D01*
X6384348Y-21933150D02*
X6365301Y-21942674D01*
X6451015Y-22056960D02*
X6431967Y-22066484D01*
X6431967Y-22066484D02*
X6384348Y-22066484D01*
X6384348Y-22066484D02*
X6365301Y-22056960D01*
X6365301Y-22056960D02*
X6355777Y-22037912D01*
X6355777Y-22037912D02*
X6355777Y-22018865D01*
X6355777Y-22018865D02*
X6365301Y-21999817D01*
X6365301Y-21999817D02*
X6384348Y-21990293D01*
X6384348Y-21990293D02*
X6431967Y-21990293D01*
X6431967Y-21990293D02*
X6451015Y-21980770D01*
X6546253Y-21933150D02*
X6546253Y-22133150D01*
X6546253Y-21942674D02*
X6565301Y-21933150D01*
X6565301Y-21933150D02*
X6603396Y-21933150D01*
X6603396Y-21933150D02*
X6622443Y-21942674D01*
X6622443Y-21942674D02*
X6631967Y-21952198D01*
X6631967Y-21952198D02*
X6641491Y-21971246D01*
X6641491Y-21971246D02*
X6641491Y-22028389D01*
X6641491Y-22028389D02*
X6631967Y-22047436D01*
X6631967Y-22047436D02*
X6622443Y-22056960D01*
X6622443Y-22056960D02*
X6603396Y-22066484D01*
X6603396Y-22066484D02*
X6565301Y-22066484D01*
X6565301Y-22066484D02*
X6546253Y-22056960D01*
X6727205Y-22047436D02*
X6736729Y-22056960D01*
X6736729Y-22056960D02*
X6727205Y-22066484D01*
X6727205Y-22066484D02*
X6717682Y-22056960D01*
X6717682Y-22056960D02*
X6727205Y-22047436D01*
X6727205Y-22047436D02*
X6727205Y-22066484D01*
X6727205Y-21942674D02*
X6736729Y-21952198D01*
X6736729Y-21952198D02*
X6727205Y-21961722D01*
X6727205Y-21961722D02*
X6717682Y-21952198D01*
X6717682Y-21952198D02*
X6727205Y-21942674D01*
X6727205Y-21942674D02*
X6727205Y-21961722D01*
D10*
X4995000Y-22345000D02*
X5095000Y-22445000D01*
X5095000Y-22345000D02*
X4995000Y-22445000D01*
D11*
X5460539Y-22486484D02*
X5346253Y-22486484D01*
X5403396Y-22486484D02*
X5403396Y-22286484D01*
X5403396Y-22286484D02*
X5384348Y-22315055D01*
X5384348Y-22315055D02*
X5365301Y-22334103D01*
X5365301Y-22334103D02*
X5346253Y-22343627D01*
X5546253Y-22467436D02*
X5555777Y-22476960D01*
X5555777Y-22476960D02*
X5546253Y-22486484D01*
X5546253Y-22486484D02*
X5536729Y-22476960D01*
X5536729Y-22476960D02*
X5546253Y-22467436D01*
X5546253Y-22467436D02*
X5546253Y-22486484D01*
X5679586Y-22286484D02*
X5698634Y-22286484D01*
X5698634Y-22286484D02*
X5717682Y-22296008D01*
X5717682Y-22296008D02*
X5727205Y-22305531D01*
X5727205Y-22305531D02*
X5736729Y-22324579D01*
X5736729Y-22324579D02*
X5746253Y-22362674D01*
X5746253Y-22362674D02*
X5746253Y-22410293D01*
X5746253Y-22410293D02*
X5736729Y-22448388D01*
X5736729Y-22448388D02*
X5727205Y-22467436D01*
X5727205Y-22467436D02*
X5717682Y-22476960D01*
X5717682Y-22476960D02*
X5698634Y-22486484D01*
X5698634Y-22486484D02*
X5679586Y-22486484D01*
X5679586Y-22486484D02*
X5660539Y-22476960D01*
X5660539Y-22476960D02*
X5651015Y-22467436D01*
X5651015Y-22467436D02*
X5641491Y-22448388D01*
X5641491Y-22448388D02*
X5631967Y-22410293D01*
X5631967Y-22410293D02*
X5631967Y-22362674D01*
X5631967Y-22362674D02*
X5641491Y-22324579D01*
X5641491Y-22324579D02*
X5651015Y-22305531D01*
X5651015Y-22305531D02*
X5660539Y-22296008D01*
X5660539Y-22296008D02*
X5679586Y-22286484D01*
X5870062Y-22286484D02*
X5889110Y-22286484D01*
X5889110Y-22286484D02*
X5908158Y-22296008D01*
X5908158Y-22296008D02*
X5917682Y-22305531D01*
X5917682Y-22305531D02*
X5927205Y-22324579D01*
X5927205Y-22324579D02*
X5936729Y-22362674D01*
X5936729Y-22362674D02*
X5936729Y-22410293D01*
X5936729Y-22410293D02*
X5927205Y-22448388D01*
X5927205Y-22448388D02*
X5917682Y-22467436D01*
X5917682Y-22467436D02*
X5908158Y-22476960D01*
X5908158Y-22476960D02*
X5889110Y-22486484D01*
X5889110Y-22486484D02*
X5870062Y-22486484D01*
X5870062Y-22486484D02*
X5851015Y-22476960D01*
X5851015Y-22476960D02*
X5841491Y-22467436D01*
X5841491Y-22467436D02*
X5831967Y-22448388D01*
X5831967Y-22448388D02*
X5822443Y-22410293D01*
X5822443Y-22410293D02*
X5822443Y-22362674D01*
X5822443Y-22362674D02*
X5831967Y-22324579D01*
X5831967Y-22324579D02*
X5841491Y-22305531D01*
X5841491Y-22305531D02*
X5851015Y-22296008D01*
X5851015Y-22296008D02*
X5870062Y-22286484D01*
X6060539Y-22286484D02*
X6079586Y-22286484D01*
X6079586Y-22286484D02*
X6098634Y-22296008D01*
X6098634Y-22296008D02*
X6108158Y-22305531D01*
X6108158Y-22305531D02*
X6117682Y-22324579D01*
X6117682Y-22324579D02*
X6127205Y-22362674D01*
X6127205Y-22362674D02*
X6127205Y-22410293D01*
X6127205Y-22410293D02*
X6117682Y-22448388D01*
X6117682Y-22448388D02*
X6108158Y-22467436D01*
X6108158Y-22467436D02*
X6098634Y-22476960D01*
X6098634Y-22476960D02*
X6079586Y-22486484D01*
X6079586Y-22486484D02*
X6060539Y-22486484D01*
X6060539Y-22486484D02*
X6041491Y-22476960D01*
X6041491Y-22476960D02*
X6031967Y-22467436D01*
X6031967Y-22467436D02*
X6022443Y-22448388D01*
X6022443Y-22448388D02*
X6012920Y-22410293D01*
X6012920Y-22410293D02*
X6012920Y-22362674D01*
X6012920Y-22362674D02*
X6022443Y-22324579D01*
X6022443Y-22324579D02*
X6031967Y-22305531D01*
X6031967Y-22305531D02*
X6041491Y-22296008D01*
X6041491Y-22296008D02*
X6060539Y-22286484D01*
X6212920Y-22486484D02*
X6212920Y-22353150D01*
X6212920Y-22372198D02*
X6222443Y-22362674D01*
X6222443Y-22362674D02*
X6241491Y-22353150D01*
X6241491Y-22353150D02*
X6270063Y-22353150D01*
X6270063Y-22353150D02*
X6289110Y-22362674D01*
X6289110Y-22362674D02*
X6298634Y-22381722D01*
X6298634Y-22381722D02*
X6298634Y-22486484D01*
X6298634Y-22381722D02*
X6308158Y-22362674D01*
X6308158Y-22362674D02*
X6327205Y-22353150D01*
X6327205Y-22353150D02*
X6355777Y-22353150D01*
X6355777Y-22353150D02*
X6374824Y-22362674D01*
X6374824Y-22362674D02*
X6384348Y-22381722D01*
X6384348Y-22381722D02*
X6384348Y-22486484D01*
X6479586Y-22486484D02*
X6479586Y-22353150D01*
X6479586Y-22372198D02*
X6489110Y-22362674D01*
X6489110Y-22362674D02*
X6508158Y-22353150D01*
X6508158Y-22353150D02*
X6536729Y-22353150D01*
X6536729Y-22353150D02*
X6555777Y-22362674D01*
X6555777Y-22362674D02*
X6565301Y-22381722D01*
X6565301Y-22381722D02*
X6565301Y-22486484D01*
X6565301Y-22381722D02*
X6574824Y-22362674D01*
X6574824Y-22362674D02*
X6593872Y-22353150D01*
X6593872Y-22353150D02*
X6622443Y-22353150D01*
X6622443Y-22353150D02*
X6641491Y-22362674D01*
X6641491Y-22362674D02*
X6651015Y-22381722D01*
X6651015Y-22381722D02*
X6651015Y-22486484D01*
X7041491Y-22276960D02*
X6870063Y-22534103D01*
X7298634Y-22286484D02*
X7317682Y-22286484D01*
X7317682Y-22286484D02*
X7336729Y-22296008D01*
X7336729Y-22296008D02*
X7346253Y-22305531D01*
X7346253Y-22305531D02*
X7355777Y-22324579D01*
X7355777Y-22324579D02*
X7365301Y-22362674D01*
X7365301Y-22362674D02*
X7365301Y-22410293D01*
X7365301Y-22410293D02*
X7355777Y-22448388D01*
X7355777Y-22448388D02*
X7346253Y-22467436D01*
X7346253Y-22467436D02*
X7336729Y-22476960D01*
X7336729Y-22476960D02*
X7317682Y-22486484D01*
X7317682Y-22486484D02*
X7298634Y-22486484D01*
X7298634Y-22486484D02*
X7279586Y-22476960D01*
X7279586Y-22476960D02*
X7270063Y-22467436D01*
X7270063Y-22467436D02*
X7260539Y-22448388D01*
X7260539Y-22448388D02*
X7251015Y-22410293D01*
X7251015Y-22410293D02*
X7251015Y-22362674D01*
X7251015Y-22362674D02*
X7260539Y-22324579D01*
X7260539Y-22324579D02*
X7270063Y-22305531D01*
X7270063Y-22305531D02*
X7279586Y-22296008D01*
X7279586Y-22296008D02*
X7298634Y-22286484D01*
X7451015Y-22467436D02*
X7460539Y-22476960D01*
X7460539Y-22476960D02*
X7451015Y-22486484D01*
X7451015Y-22486484D02*
X7441491Y-22476960D01*
X7441491Y-22476960D02*
X7451015Y-22467436D01*
X7451015Y-22467436D02*
X7451015Y-22486484D01*
X7584348Y-22286484D02*
X7603396Y-22286484D01*
X7603396Y-22286484D02*
X7622444Y-22296008D01*
X7622444Y-22296008D02*
X7631967Y-22305531D01*
X7631967Y-22305531D02*
X7641491Y-22324579D01*
X7641491Y-22324579D02*
X7651015Y-22362674D01*
X7651015Y-22362674D02*
X7651015Y-22410293D01*
X7651015Y-22410293D02*
X7641491Y-22448388D01*
X7641491Y-22448388D02*
X7631967Y-22467436D01*
X7631967Y-22467436D02*
X7622444Y-22476960D01*
X7622444Y-22476960D02*
X7603396Y-22486484D01*
X7603396Y-22486484D02*
X7584348Y-22486484D01*
X7584348Y-22486484D02*
X7565301Y-22476960D01*
X7565301Y-22476960D02*
X7555777Y-22467436D01*
X7555777Y-22467436D02*
X7546253Y-22448388D01*
X7546253Y-22448388D02*
X7536729Y-22410293D01*
X7536729Y-22410293D02*
X7536729Y-22362674D01*
X7536729Y-22362674D02*
X7546253Y-22324579D01*
X7546253Y-22324579D02*
X7555777Y-22305531D01*
X7555777Y-22305531D02*
X7565301Y-22296008D01*
X7565301Y-22296008D02*
X7584348Y-22286484D01*
X7717682Y-22286484D02*
X7841491Y-22286484D01*
X7841491Y-22286484D02*
X7774825Y-22362674D01*
X7774825Y-22362674D02*
X7803396Y-22362674D01*
X7803396Y-22362674D02*
X7822444Y-22372198D01*
X7822444Y-22372198D02*
X7831967Y-22381722D01*
X7831967Y-22381722D02*
X7841491Y-22400769D01*
X7841491Y-22400769D02*
X7841491Y-22448388D01*
X7841491Y-22448388D02*
X7831967Y-22467436D01*
X7831967Y-22467436D02*
X7822444Y-22476960D01*
X7822444Y-22476960D02*
X7803396Y-22486484D01*
X7803396Y-22486484D02*
X7746253Y-22486484D01*
X7746253Y-22486484D02*
X7727206Y-22476960D01*
X7727206Y-22476960D02*
X7717682Y-22467436D01*
X7936729Y-22486484D02*
X7974825Y-22486484D01*
X7974825Y-22486484D02*
X7993872Y-22476960D01*
X7993872Y-22476960D02*
X8003396Y-22467436D01*
X8003396Y-22467436D02*
X8022444Y-22438865D01*
X8022444Y-22438865D02*
X8031967Y-22400769D01*
X8031967Y-22400769D02*
X8031967Y-22324579D01*
X8031967Y-22324579D02*
X8022444Y-22305531D01*
X8022444Y-22305531D02*
X8012920Y-22296008D01*
X8012920Y-22296008D02*
X7993872Y-22286484D01*
X7993872Y-22286484D02*
X7955777Y-22286484D01*
X7955777Y-22286484D02*
X7936729Y-22296008D01*
X7936729Y-22296008D02*
X7927206Y-22305531D01*
X7927206Y-22305531D02*
X7917682Y-22324579D01*
X7917682Y-22324579D02*
X7917682Y-22372198D01*
X7917682Y-22372198D02*
X7927206Y-22391246D01*
X7927206Y-22391246D02*
X7936729Y-22400769D01*
X7936729Y-22400769D02*
X7955777Y-22410293D01*
X7955777Y-22410293D02*
X7993872Y-22410293D01*
X7993872Y-22410293D02*
X8012920Y-22400769D01*
X8012920Y-22400769D02*
X8022444Y-22391246D01*
X8022444Y-22391246D02*
X8031967Y-22372198D01*
X8203396Y-22353150D02*
X8203396Y-22486484D01*
X8155777Y-22276960D02*
X8108158Y-22419817D01*
X8108158Y-22419817D02*
X8231967Y-22419817D01*
X8298634Y-22286484D02*
X8298634Y-22324579D01*
X8374825Y-22286484D02*
X8374825Y-22324579D01*
X8670063Y-22562674D02*
X8660539Y-22553150D01*
X8660539Y-22553150D02*
X8641491Y-22524579D01*
X8641491Y-22524579D02*
X8631968Y-22505531D01*
X8631968Y-22505531D02*
X8622444Y-22476960D01*
X8622444Y-22476960D02*
X8612920Y-22429341D01*
X8612920Y-22429341D02*
X8612920Y-22391246D01*
X8612920Y-22391246D02*
X8622444Y-22343627D01*
X8622444Y-22343627D02*
X8631968Y-22315055D01*
X8631968Y-22315055D02*
X8641491Y-22296008D01*
X8641491Y-22296008D02*
X8660539Y-22267436D01*
X8660539Y-22267436D02*
X8670063Y-22257912D01*
X8851015Y-22486484D02*
X8736730Y-22486484D01*
X8793872Y-22486484D02*
X8793872Y-22286484D01*
X8793872Y-22286484D02*
X8774825Y-22315055D01*
X8774825Y-22315055D02*
X8755777Y-22334103D01*
X8755777Y-22334103D02*
X8736730Y-22343627D01*
X8927206Y-22305531D02*
X8936730Y-22296008D01*
X8936730Y-22296008D02*
X8955777Y-22286484D01*
X8955777Y-22286484D02*
X9003396Y-22286484D01*
X9003396Y-22286484D02*
X9022444Y-22296008D01*
X9022444Y-22296008D02*
X9031968Y-22305531D01*
X9031968Y-22305531D02*
X9041491Y-22324579D01*
X9041491Y-22324579D02*
X9041491Y-22343627D01*
X9041491Y-22343627D02*
X9031968Y-22372198D01*
X9031968Y-22372198D02*
X8917682Y-22486484D01*
X8917682Y-22486484D02*
X9041491Y-22486484D01*
X9279587Y-22486484D02*
X9279587Y-22286484D01*
X9365301Y-22486484D02*
X9365301Y-22381722D01*
X9365301Y-22381722D02*
X9355777Y-22362674D01*
X9355777Y-22362674D02*
X9336730Y-22353150D01*
X9336730Y-22353150D02*
X9308158Y-22353150D01*
X9308158Y-22353150D02*
X9289111Y-22362674D01*
X9289111Y-22362674D02*
X9279587Y-22372198D01*
X9489111Y-22486484D02*
X9470063Y-22476960D01*
X9470063Y-22476960D02*
X9460539Y-22467436D01*
X9460539Y-22467436D02*
X9451015Y-22448388D01*
X9451015Y-22448388D02*
X9451015Y-22391246D01*
X9451015Y-22391246D02*
X9460539Y-22372198D01*
X9460539Y-22372198D02*
X9470063Y-22362674D01*
X9470063Y-22362674D02*
X9489111Y-22353150D01*
X9489111Y-22353150D02*
X9517682Y-22353150D01*
X9517682Y-22353150D02*
X9536730Y-22362674D01*
X9536730Y-22362674D02*
X9546253Y-22372198D01*
X9546253Y-22372198D02*
X9555777Y-22391246D01*
X9555777Y-22391246D02*
X9555777Y-22448388D01*
X9555777Y-22448388D02*
X9546253Y-22467436D01*
X9546253Y-22467436D02*
X9536730Y-22476960D01*
X9536730Y-22476960D02*
X9517682Y-22486484D01*
X9517682Y-22486484D02*
X9489111Y-22486484D01*
X9670063Y-22486484D02*
X9651015Y-22476960D01*
X9651015Y-22476960D02*
X9641492Y-22457912D01*
X9641492Y-22457912D02*
X9641492Y-22286484D01*
X9822444Y-22476960D02*
X9803396Y-22486484D01*
X9803396Y-22486484D02*
X9765301Y-22486484D01*
X9765301Y-22486484D02*
X9746253Y-22476960D01*
X9746253Y-22476960D02*
X9736730Y-22457912D01*
X9736730Y-22457912D02*
X9736730Y-22381722D01*
X9736730Y-22381722D02*
X9746253Y-22362674D01*
X9746253Y-22362674D02*
X9765301Y-22353150D01*
X9765301Y-22353150D02*
X9803396Y-22353150D01*
X9803396Y-22353150D02*
X9822444Y-22362674D01*
X9822444Y-22362674D02*
X9831968Y-22381722D01*
X9831968Y-22381722D02*
X9831968Y-22400769D01*
X9831968Y-22400769D02*
X9736730Y-22419817D01*
X9908158Y-22476960D02*
X9927206Y-22486484D01*
X9927206Y-22486484D02*
X9965301Y-22486484D01*
X9965301Y-22486484D02*
X9984349Y-22476960D01*
X9984349Y-22476960D02*
X9993873Y-22457912D01*
X9993873Y-22457912D02*
X9993873Y-22448388D01*
X9993873Y-22448388D02*
X9984349Y-22429341D01*
X9984349Y-22429341D02*
X9965301Y-22419817D01*
X9965301Y-22419817D02*
X9936730Y-22419817D01*
X9936730Y-22419817D02*
X9917682Y-22410293D01*
X9917682Y-22410293D02*
X9908158Y-22391246D01*
X9908158Y-22391246D02*
X9908158Y-22381722D01*
X9908158Y-22381722D02*
X9917682Y-22362674D01*
X9917682Y-22362674D02*
X9936730Y-22353150D01*
X9936730Y-22353150D02*
X9965301Y-22353150D01*
X9965301Y-22353150D02*
X9984349Y-22362674D01*
X10231968Y-22410293D02*
X10384349Y-22410293D01*
X10308158Y-22486484D02*
X10308158Y-22334103D01*
X10717682Y-22286484D02*
X10679587Y-22286484D01*
X10679587Y-22286484D02*
X10660539Y-22296008D01*
X10660539Y-22296008D02*
X10651015Y-22305531D01*
X10651015Y-22305531D02*
X10631968Y-22334103D01*
X10631968Y-22334103D02*
X10622444Y-22372198D01*
X10622444Y-22372198D02*
X10622444Y-22448388D01*
X10622444Y-22448388D02*
X10631968Y-22467436D01*
X10631968Y-22467436D02*
X10641492Y-22476960D01*
X10641492Y-22476960D02*
X10660539Y-22486484D01*
X10660539Y-22486484D02*
X10698635Y-22486484D01*
X10698635Y-22486484D02*
X10717682Y-22476960D01*
X10717682Y-22476960D02*
X10727206Y-22467436D01*
X10727206Y-22467436D02*
X10736730Y-22448388D01*
X10736730Y-22448388D02*
X10736730Y-22400769D01*
X10736730Y-22400769D02*
X10727206Y-22381722D01*
X10727206Y-22381722D02*
X10717682Y-22372198D01*
X10717682Y-22372198D02*
X10698635Y-22362674D01*
X10698635Y-22362674D02*
X10660539Y-22362674D01*
X10660539Y-22362674D02*
X10641492Y-22372198D01*
X10641492Y-22372198D02*
X10631968Y-22381722D01*
X10631968Y-22381722D02*
X10622444Y-22400769D01*
X10908158Y-22286484D02*
X10870063Y-22286484D01*
X10870063Y-22286484D02*
X10851015Y-22296008D01*
X10851015Y-22296008D02*
X10841492Y-22305531D01*
X10841492Y-22305531D02*
X10822444Y-22334103D01*
X10822444Y-22334103D02*
X10812920Y-22372198D01*
X10812920Y-22372198D02*
X10812920Y-22448388D01*
X10812920Y-22448388D02*
X10822444Y-22467436D01*
X10822444Y-22467436D02*
X10831968Y-22476960D01*
X10831968Y-22476960D02*
X10851015Y-22486484D01*
X10851015Y-22486484D02*
X10889111Y-22486484D01*
X10889111Y-22486484D02*
X10908158Y-22476960D01*
X10908158Y-22476960D02*
X10917682Y-22467436D01*
X10917682Y-22467436D02*
X10927206Y-22448388D01*
X10927206Y-22448388D02*
X10927206Y-22400769D01*
X10927206Y-22400769D02*
X10917682Y-22381722D01*
X10917682Y-22381722D02*
X10908158Y-22372198D01*
X10908158Y-22372198D02*
X10889111Y-22362674D01*
X10889111Y-22362674D02*
X10851015Y-22362674D01*
X10851015Y-22362674D02*
X10831968Y-22372198D01*
X10831968Y-22372198D02*
X10822444Y-22381722D01*
X10822444Y-22381722D02*
X10812920Y-22400769D01*
X11155777Y-22476960D02*
X11174825Y-22486484D01*
X11174825Y-22486484D02*
X11212920Y-22486484D01*
X11212920Y-22486484D02*
X11231968Y-22476960D01*
X11231968Y-22476960D02*
X11241492Y-22457912D01*
X11241492Y-22457912D02*
X11241492Y-22448388D01*
X11241492Y-22448388D02*
X11231968Y-22429341D01*
X11231968Y-22429341D02*
X11212920Y-22419817D01*
X11212920Y-22419817D02*
X11184349Y-22419817D01*
X11184349Y-22419817D02*
X11165301Y-22410293D01*
X11165301Y-22410293D02*
X11155777Y-22391246D01*
X11155777Y-22391246D02*
X11155777Y-22381722D01*
X11155777Y-22381722D02*
X11165301Y-22362674D01*
X11165301Y-22362674D02*
X11184349Y-22353150D01*
X11184349Y-22353150D02*
X11212920Y-22353150D01*
X11212920Y-22353150D02*
X11231968Y-22362674D01*
X11355777Y-22486484D02*
X11336730Y-22476960D01*
X11336730Y-22476960D02*
X11327206Y-22457912D01*
X11327206Y-22457912D02*
X11327206Y-22286484D01*
X11460539Y-22486484D02*
X11441492Y-22476960D01*
X11441492Y-22476960D02*
X11431968Y-22467436D01*
X11431968Y-22467436D02*
X11422444Y-22448388D01*
X11422444Y-22448388D02*
X11422444Y-22391246D01*
X11422444Y-22391246D02*
X11431968Y-22372198D01*
X11431968Y-22372198D02*
X11441492Y-22362674D01*
X11441492Y-22362674D02*
X11460539Y-22353150D01*
X11460539Y-22353150D02*
X11489111Y-22353150D01*
X11489111Y-22353150D02*
X11508158Y-22362674D01*
X11508158Y-22362674D02*
X11517682Y-22372198D01*
X11517682Y-22372198D02*
X11527206Y-22391246D01*
X11527206Y-22391246D02*
X11527206Y-22448388D01*
X11527206Y-22448388D02*
X11517682Y-22467436D01*
X11517682Y-22467436D02*
X11508158Y-22476960D01*
X11508158Y-22476960D02*
X11489111Y-22486484D01*
X11489111Y-22486484D02*
X11460539Y-22486484D01*
X11584349Y-22353150D02*
X11660539Y-22353150D01*
X11612920Y-22286484D02*
X11612920Y-22457912D01*
X11612920Y-22457912D02*
X11622444Y-22476960D01*
X11622444Y-22476960D02*
X11641492Y-22486484D01*
X11641492Y-22486484D02*
X11660539Y-22486484D01*
X11717682Y-22476960D02*
X11736730Y-22486484D01*
X11736730Y-22486484D02*
X11774825Y-22486484D01*
X11774825Y-22486484D02*
X11793873Y-22476960D01*
X11793873Y-22476960D02*
X11803396Y-22457912D01*
X11803396Y-22457912D02*
X11803396Y-22448388D01*
X11803396Y-22448388D02*
X11793873Y-22429341D01*
X11793873Y-22429341D02*
X11774825Y-22419817D01*
X11774825Y-22419817D02*
X11746254Y-22419817D01*
X11746254Y-22419817D02*
X11727206Y-22410293D01*
X11727206Y-22410293D02*
X11717682Y-22391246D01*
X11717682Y-22391246D02*
X11717682Y-22381722D01*
X11717682Y-22381722D02*
X11727206Y-22362674D01*
X11727206Y-22362674D02*
X11746254Y-22353150D01*
X11746254Y-22353150D02*
X11774825Y-22353150D01*
X11774825Y-22353150D02*
X11793873Y-22362674D01*
X11870063Y-22562674D02*
X11879587Y-22553150D01*
X11879587Y-22553150D02*
X11898635Y-22524579D01*
X11898635Y-22524579D02*
X11908158Y-22505531D01*
X11908158Y-22505531D02*
X11917682Y-22476960D01*
X11917682Y-22476960D02*
X11927206Y-22429341D01*
X11927206Y-22429341D02*
X11927206Y-22391246D01*
X11927206Y-22391246D02*
X11917682Y-22343627D01*
X11917682Y-22343627D02*
X11908158Y-22315055D01*
X11908158Y-22315055D02*
X11898635Y-22296008D01*
X11898635Y-22296008D02*
X11879587Y-22267436D01*
X11879587Y-22267436D02*
X11870063Y-22257912D01*
M02*
