%TF.GenerationSoftware,KiCad,Pcbnew,8.0.5*%
%TF.CreationDate,2024-12-03T23:42:19+01:00*%
%TF.ProjectId,DMH_Multiverter_PCB_Conn,444d485f-4d75-46c7-9469-766572746572,1*%
%TF.SameCoordinates,Original*%
%TF.FileFunction,Soldermask,Top*%
%TF.FilePolarity,Negative*%
%FSLAX46Y46*%
G04 Gerber Fmt 4.6, Leading zero omitted, Abs format (unit mm)*
G04 Created by KiCad (PCBNEW 8.0.5) date 2024-12-03 23:42:19*
%MOMM*%
%LPD*%
G01*
G04 APERTURE LIST*
G04 Aperture macros list*
%AMHorizOval*
0 Thick line with rounded ends*
0 $1 width*
0 $2 $3 position (X,Y) of the first rounded end (center of the circle)*
0 $4 $5 position (X,Y) of the second rounded end (center of the circle)*
0 Add line between two ends*
20,1,$1,$2,$3,$4,$5,0*
0 Add two circle primitives to create the rounded ends*
1,1,$1,$2,$3*
1,1,$1,$4,$5*%
G04 Aperture macros list end*
%ADD10HorizOval,1.712000X-0.533159X0.533159X0.533159X-0.533159X0*%
%ADD11O,3.220000X1.712000*%
%ADD12O,1.712000X3.220000*%
%ADD13HorizOval,1.712000X-0.533159X-0.533159X0.533159X0.533159X0*%
%ADD14R,1.700000X1.700000*%
%ADD15O,1.700000X1.700000*%
G04 APERTURE END LIST*
D10*
%TO.C,J10*%
X86903810Y-147346190D03*
D11*
X91000000Y-136250000D03*
D12*
X85000000Y-140250000D03*
%TD*%
D13*
%TO.C,J9*%
X70403810Y-138153810D03*
D12*
X81500000Y-142250000D03*
D11*
X77500000Y-136250000D03*
%TD*%
D13*
%TO.C,J6*%
X70403810Y-121653810D03*
D12*
X81500000Y-125750000D03*
D11*
X77500000Y-119750000D03*
%TD*%
D10*
%TO.C,J16*%
X86903810Y-180346190D03*
D11*
X91000000Y-169250000D03*
D12*
X85000000Y-173250000D03*
%TD*%
D14*
%TO.C,J50*%
X68975000Y-71175000D03*
D15*
X68975000Y-73715000D03*
X68975000Y-76255000D03*
X68975000Y-78795000D03*
X68975000Y-81335000D03*
X68975000Y-83875000D03*
%TD*%
D10*
%TO.C,J1*%
X63096190Y-45403810D03*
D11*
X59000000Y-56500000D03*
D12*
X65000000Y-52500000D03*
%TD*%
D10*
%TO.C,J8*%
X63096190Y-138153810D03*
D11*
X59000000Y-149250000D03*
D12*
X65000000Y-145250000D03*
%TD*%
D10*
%TO.C,J7*%
X86903810Y-130846190D03*
D11*
X91000000Y-119750000D03*
D12*
X85000000Y-123750000D03*
%TD*%
D14*
%TO.C,J60*%
X89325000Y-115475000D03*
D15*
X86785000Y-115475000D03*
X84245000Y-115475000D03*
X81705000Y-115475000D03*
X79165000Y-115475000D03*
X76625000Y-115475000D03*
%TD*%
D10*
%TO.C,J11*%
X63096190Y-154653810D03*
D11*
X59000000Y-165750000D03*
D12*
X65000000Y-161750000D03*
%TD*%
D10*
%TO.C,J17*%
X63096190Y-187653810D03*
D11*
X59000000Y-198750000D03*
D12*
X65000000Y-194750000D03*
%TD*%
D13*
%TO.C,J18*%
X70403810Y-187653810D03*
D12*
X81500000Y-191750000D03*
D11*
X77500000Y-185750000D03*
%TD*%
D10*
%TO.C,J13*%
X86903810Y-163846190D03*
D11*
X91000000Y-152750000D03*
D12*
X85000000Y-156750000D03*
%TD*%
D13*
%TO.C,J15*%
X70403810Y-171153810D03*
D12*
X81500000Y-175250000D03*
D11*
X77500000Y-169250000D03*
%TD*%
D10*
%TO.C,J19*%
X86903810Y-196846190D03*
D11*
X91000000Y-185750000D03*
D12*
X85000000Y-189750000D03*
%TD*%
D13*
%TO.C,J12*%
X70403810Y-154653810D03*
D12*
X81500000Y-158750000D03*
D11*
X77500000Y-152750000D03*
%TD*%
D10*
%TO.C,J5*%
X63096190Y-121653810D03*
D11*
X59000000Y-132750000D03*
D12*
X65000000Y-128750000D03*
%TD*%
D13*
%TO.C,J21*%
X70403810Y-204153810D03*
D12*
X81500000Y-208250000D03*
D11*
X77500000Y-202250000D03*
%TD*%
D10*
%TO.C,J3*%
X63096190Y-83653810D03*
D11*
X59000000Y-94750000D03*
D12*
X65000000Y-90750000D03*
%TD*%
D10*
%TO.C,J22*%
X86903810Y-213346190D03*
D11*
X91000000Y-202250000D03*
D12*
X85000000Y-206250000D03*
%TD*%
D10*
%TO.C,J4*%
X63096190Y-100653810D03*
D11*
X59000000Y-111750000D03*
D12*
X65000000Y-107750000D03*
%TD*%
D10*
%TO.C,J2*%
X63096190Y-62403810D03*
D11*
X59000000Y-73500000D03*
D12*
X65000000Y-69500000D03*
%TD*%
D10*
%TO.C,J14*%
X63096190Y-171153810D03*
D11*
X59000000Y-182250000D03*
D12*
X65000000Y-178250000D03*
%TD*%
D10*
%TO.C,J20*%
X63096190Y-204153810D03*
D11*
X59000000Y-215250000D03*
D12*
X65000000Y-211250000D03*
%TD*%
M02*
