%TF.GenerationSoftware,KiCad,Pcbnew,8.0.5*%
%TF.CreationDate,2024-12-03T23:42:28+01:00*%
%TF.ProjectId,DMH_Multiverter_PCB_Conn,444d485f-4d75-46c7-9469-766572746572,1*%
%TF.SameCoordinates,Original*%
%TF.FileFunction,Drillmap*%
%TF.FilePolarity,Positive*%
%FSLAX45Y45*%
G04 Gerber Fmt 4.5, Leading zero omitted, Abs format (unit mm)*
G04 Created by KiCad (PCBNEW 8.0.5) date 2024-12-03 23:42:28*
%MOMM*%
%LPD*%
G01*
G04 APERTURE LIST*
%ADD10C,0.100000*%
%ADD11C,0.200000*%
G04 APERTURE END LIST*
D10*
X7100000Y-11350000D02*
X9900000Y-11350000D01*
X5100000Y-21750000D02*
X5100000Y-4250000D01*
X5100000Y-4250000D02*
X7100000Y-4250000D01*
X7100000Y-4250000D02*
X7100000Y-11350000D01*
X9900000Y-11350000D02*
X9900000Y-21750000D01*
X9900000Y-21750000D02*
X5100000Y-21750000D01*
D11*
X5355777Y-22066484D02*
X5355777Y-21866484D01*
X5355777Y-21866484D02*
X5403396Y-21866484D01*
X5403396Y-21866484D02*
X5431967Y-21876008D01*
X5431967Y-21876008D02*
X5451015Y-21895055D01*
X5451015Y-21895055D02*
X5460539Y-21914103D01*
X5460539Y-21914103D02*
X5470063Y-21952198D01*
X5470063Y-21952198D02*
X5470063Y-21980770D01*
X5470063Y-21980770D02*
X5460539Y-22018865D01*
X5460539Y-22018865D02*
X5451015Y-22037912D01*
X5451015Y-22037912D02*
X5431967Y-22056960D01*
X5431967Y-22056960D02*
X5403396Y-22066484D01*
X5403396Y-22066484D02*
X5355777Y-22066484D01*
X5555777Y-22066484D02*
X5555777Y-21933150D01*
X5555777Y-21971246D02*
X5565301Y-21952198D01*
X5565301Y-21952198D02*
X5574824Y-21942674D01*
X5574824Y-21942674D02*
X5593872Y-21933150D01*
X5593872Y-21933150D02*
X5612920Y-21933150D01*
X5679586Y-22066484D02*
X5679586Y-21933150D01*
X5679586Y-21866484D02*
X5670062Y-21876008D01*
X5670062Y-21876008D02*
X5679586Y-21885531D01*
X5679586Y-21885531D02*
X5689110Y-21876008D01*
X5689110Y-21876008D02*
X5679586Y-21866484D01*
X5679586Y-21866484D02*
X5679586Y-21885531D01*
X5803396Y-22066484D02*
X5784348Y-22056960D01*
X5784348Y-22056960D02*
X5774824Y-22037912D01*
X5774824Y-22037912D02*
X5774824Y-21866484D01*
X5908158Y-22066484D02*
X5889110Y-22056960D01*
X5889110Y-22056960D02*
X5879586Y-22037912D01*
X5879586Y-22037912D02*
X5879586Y-21866484D01*
X6136729Y-22066484D02*
X6136729Y-21866484D01*
X6136729Y-21866484D02*
X6203396Y-22009341D01*
X6203396Y-22009341D02*
X6270062Y-21866484D01*
X6270062Y-21866484D02*
X6270062Y-22066484D01*
X6451015Y-22066484D02*
X6451015Y-21961722D01*
X6451015Y-21961722D02*
X6441491Y-21942674D01*
X6441491Y-21942674D02*
X6422443Y-21933150D01*
X6422443Y-21933150D02*
X6384348Y-21933150D01*
X6384348Y-21933150D02*
X6365301Y-21942674D01*
X6451015Y-22056960D02*
X6431967Y-22066484D01*
X6431967Y-22066484D02*
X6384348Y-22066484D01*
X6384348Y-22066484D02*
X6365301Y-22056960D01*
X6365301Y-22056960D02*
X6355777Y-22037912D01*
X6355777Y-22037912D02*
X6355777Y-22018865D01*
X6355777Y-22018865D02*
X6365301Y-21999817D01*
X6365301Y-21999817D02*
X6384348Y-21990293D01*
X6384348Y-21990293D02*
X6431967Y-21990293D01*
X6431967Y-21990293D02*
X6451015Y-21980770D01*
X6546253Y-21933150D02*
X6546253Y-22133150D01*
X6546253Y-21942674D02*
X6565301Y-21933150D01*
X6565301Y-21933150D02*
X6603396Y-21933150D01*
X6603396Y-21933150D02*
X6622443Y-21942674D01*
X6622443Y-21942674D02*
X6631967Y-21952198D01*
X6631967Y-21952198D02*
X6641491Y-21971246D01*
X6641491Y-21971246D02*
X6641491Y-22028389D01*
X6641491Y-22028389D02*
X6631967Y-22047436D01*
X6631967Y-22047436D02*
X6622443Y-22056960D01*
X6622443Y-22056960D02*
X6603396Y-22066484D01*
X6603396Y-22066484D02*
X6565301Y-22066484D01*
X6565301Y-22066484D02*
X6546253Y-22056960D01*
X6727205Y-22047436D02*
X6736729Y-22056960D01*
X6736729Y-22056960D02*
X6727205Y-22066484D01*
X6727205Y-22066484D02*
X6717682Y-22056960D01*
X6717682Y-22056960D02*
X6727205Y-22047436D01*
X6727205Y-22047436D02*
X6727205Y-22066484D01*
X6727205Y-21942674D02*
X6736729Y-21952198D01*
X6736729Y-21952198D02*
X6727205Y-21961722D01*
X6727205Y-21961722D02*
X6717682Y-21952198D01*
X6717682Y-21952198D02*
X6727205Y-21942674D01*
X6727205Y-21942674D02*
X6727205Y-21961722D01*
M02*
