%TF.GenerationSoftware,KiCad,Pcbnew,9.0.0*%
%TF.CreationDate,2025-03-15T22:53:43+01:00*%
%TF.ProjectId,DMH_Multiverter_Mk2_PCB_Conn,444d485f-4d75-46c7-9469-766572746572,1*%
%TF.SameCoordinates,Original*%
%TF.FileFunction,Legend,Top*%
%TF.FilePolarity,Positive*%
%FSLAX46Y46*%
G04 Gerber Fmt 4.6, Leading zero omitted, Abs format (unit mm)*
G04 Created by KiCad (PCBNEW 9.0.0) date 2025-03-15 22:53:43*
%MOMM*%
%LPD*%
G01*
G04 APERTURE LIST*
G04 Aperture macros list*
%AMHorizOval*
0 Thick line with rounded ends*
0 $1 width*
0 $2 $3 position (X,Y) of the first rounded end (center of the circle)*
0 $4 $5 position (X,Y) of the second rounded end (center of the circle)*
0 Add line between two ends*
20,1,$1,$2,$3,$4,$5,0*
0 Add two circle primitives to create the rounded ends*
1,1,$1,$2,$3*
1,1,$1,$4,$5*%
G04 Aperture macros list end*
%ADD10C,0.150000*%
%ADD11C,0.120000*%
%ADD12HorizOval,1.712000X-0.533159X-0.533159X0.533159X0.533159X0*%
%ADD13O,1.712000X3.220000*%
%ADD14O,3.220000X1.712000*%
%ADD15HorizOval,1.712000X-0.533159X0.533159X0.533159X-0.533159X0*%
%ADD16R,1.700000X1.700000*%
%ADD17O,1.700000X1.700000*%
G04 APERTURE END LIST*
D10*
X53615476Y-184704819D02*
X53615476Y-185419104D01*
X53615476Y-185419104D02*
X53567857Y-185561961D01*
X53567857Y-185561961D02*
X53472619Y-185657200D01*
X53472619Y-185657200D02*
X53329762Y-185704819D01*
X53329762Y-185704819D02*
X53234524Y-185704819D01*
X54615476Y-185704819D02*
X54044048Y-185704819D01*
X54329762Y-185704819D02*
X54329762Y-184704819D01*
X54329762Y-184704819D02*
X54234524Y-184847676D01*
X54234524Y-184847676D02*
X54139286Y-184942914D01*
X54139286Y-184942914D02*
X54044048Y-184990533D01*
X55234524Y-184704819D02*
X55329762Y-184704819D01*
X55329762Y-184704819D02*
X55425000Y-184752438D01*
X55425000Y-184752438D02*
X55472619Y-184800057D01*
X55472619Y-184800057D02*
X55520238Y-184895295D01*
X55520238Y-184895295D02*
X55567857Y-185085771D01*
X55567857Y-185085771D02*
X55567857Y-185323866D01*
X55567857Y-185323866D02*
X55520238Y-185514342D01*
X55520238Y-185514342D02*
X55472619Y-185609580D01*
X55472619Y-185609580D02*
X55425000Y-185657200D01*
X55425000Y-185657200D02*
X55329762Y-185704819D01*
X55329762Y-185704819D02*
X55234524Y-185704819D01*
X55234524Y-185704819D02*
X55139286Y-185657200D01*
X55139286Y-185657200D02*
X55091667Y-185609580D01*
X55091667Y-185609580D02*
X55044048Y-185514342D01*
X55044048Y-185514342D02*
X54996429Y-185323866D01*
X54996429Y-185323866D02*
X54996429Y-185085771D01*
X54996429Y-185085771D02*
X55044048Y-184895295D01*
X55044048Y-184895295D02*
X55091667Y-184800057D01*
X55091667Y-184800057D02*
X55139286Y-184752438D01*
X55139286Y-184752438D02*
X55234524Y-184704819D01*
X83954819Y-180158333D02*
X84669104Y-180158333D01*
X84669104Y-180158333D02*
X84811961Y-180205952D01*
X84811961Y-180205952D02*
X84907200Y-180301190D01*
X84907200Y-180301190D02*
X84954819Y-180444047D01*
X84954819Y-180444047D02*
X84954819Y-180539285D01*
X84954819Y-179634523D02*
X84954819Y-179444047D01*
X84954819Y-179444047D02*
X84907200Y-179348809D01*
X84907200Y-179348809D02*
X84859580Y-179301190D01*
X84859580Y-179301190D02*
X84716723Y-179205952D01*
X84716723Y-179205952D02*
X84526247Y-179158333D01*
X84526247Y-179158333D02*
X84145295Y-179158333D01*
X84145295Y-179158333D02*
X84050057Y-179205952D01*
X84050057Y-179205952D02*
X84002438Y-179253571D01*
X84002438Y-179253571D02*
X83954819Y-179348809D01*
X83954819Y-179348809D02*
X83954819Y-179539285D01*
X83954819Y-179539285D02*
X84002438Y-179634523D01*
X84002438Y-179634523D02*
X84050057Y-179682142D01*
X84050057Y-179682142D02*
X84145295Y-179729761D01*
X84145295Y-179729761D02*
X84383390Y-179729761D01*
X84383390Y-179729761D02*
X84478628Y-179682142D01*
X84478628Y-179682142D02*
X84526247Y-179634523D01*
X84526247Y-179634523D02*
X84573866Y-179539285D01*
X84573866Y-179539285D02*
X84573866Y-179348809D01*
X84573866Y-179348809D02*
X84526247Y-179253571D01*
X84526247Y-179253571D02*
X84478628Y-179205952D01*
X84478628Y-179205952D02*
X84383390Y-179158333D01*
X54091666Y-135954819D02*
X54091666Y-136669104D01*
X54091666Y-136669104D02*
X54044047Y-136811961D01*
X54044047Y-136811961D02*
X53948809Y-136907200D01*
X53948809Y-136907200D02*
X53805952Y-136954819D01*
X53805952Y-136954819D02*
X53710714Y-136954819D01*
X54996428Y-135954819D02*
X54805952Y-135954819D01*
X54805952Y-135954819D02*
X54710714Y-136002438D01*
X54710714Y-136002438D02*
X54663095Y-136050057D01*
X54663095Y-136050057D02*
X54567857Y-136192914D01*
X54567857Y-136192914D02*
X54520238Y-136383390D01*
X54520238Y-136383390D02*
X54520238Y-136764342D01*
X54520238Y-136764342D02*
X54567857Y-136859580D01*
X54567857Y-136859580D02*
X54615476Y-136907200D01*
X54615476Y-136907200D02*
X54710714Y-136954819D01*
X54710714Y-136954819D02*
X54901190Y-136954819D01*
X54901190Y-136954819D02*
X54996428Y-136907200D01*
X54996428Y-136907200D02*
X55044047Y-136859580D01*
X55044047Y-136859580D02*
X55091666Y-136764342D01*
X55091666Y-136764342D02*
X55091666Y-136526247D01*
X55091666Y-136526247D02*
X55044047Y-136431009D01*
X55044047Y-136431009D02*
X54996428Y-136383390D01*
X54996428Y-136383390D02*
X54901190Y-136335771D01*
X54901190Y-136335771D02*
X54710714Y-136335771D01*
X54710714Y-136335771D02*
X54615476Y-136383390D01*
X54615476Y-136383390D02*
X54567857Y-136431009D01*
X54567857Y-136431009D02*
X54520238Y-136526247D01*
X68190476Y-88684819D02*
X68190476Y-89399104D01*
X68190476Y-89399104D02*
X68142857Y-89541961D01*
X68142857Y-89541961D02*
X68047619Y-89637200D01*
X68047619Y-89637200D02*
X67904762Y-89684819D01*
X67904762Y-89684819D02*
X67809524Y-89684819D01*
X69142857Y-88684819D02*
X68666667Y-88684819D01*
X68666667Y-88684819D02*
X68619048Y-89161009D01*
X68619048Y-89161009D02*
X68666667Y-89113390D01*
X68666667Y-89113390D02*
X68761905Y-89065771D01*
X68761905Y-89065771D02*
X69000000Y-89065771D01*
X69000000Y-89065771D02*
X69095238Y-89113390D01*
X69095238Y-89113390D02*
X69142857Y-89161009D01*
X69142857Y-89161009D02*
X69190476Y-89256247D01*
X69190476Y-89256247D02*
X69190476Y-89494342D01*
X69190476Y-89494342D02*
X69142857Y-89589580D01*
X69142857Y-89589580D02*
X69095238Y-89637200D01*
X69095238Y-89637200D02*
X69000000Y-89684819D01*
X69000000Y-89684819D02*
X68761905Y-89684819D01*
X68761905Y-89684819D02*
X68666667Y-89637200D01*
X68666667Y-89637200D02*
X68619048Y-89589580D01*
X69809524Y-88684819D02*
X69904762Y-88684819D01*
X69904762Y-88684819D02*
X70000000Y-88732438D01*
X70000000Y-88732438D02*
X70047619Y-88780057D01*
X70047619Y-88780057D02*
X70095238Y-88875295D01*
X70095238Y-88875295D02*
X70142857Y-89065771D01*
X70142857Y-89065771D02*
X70142857Y-89303866D01*
X70142857Y-89303866D02*
X70095238Y-89494342D01*
X70095238Y-89494342D02*
X70047619Y-89589580D01*
X70047619Y-89589580D02*
X70000000Y-89637200D01*
X70000000Y-89637200D02*
X69904762Y-89684819D01*
X69904762Y-89684819D02*
X69809524Y-89684819D01*
X69809524Y-89684819D02*
X69714286Y-89637200D01*
X69714286Y-89637200D02*
X69666667Y-89589580D01*
X69666667Y-89589580D02*
X69619048Y-89494342D01*
X69619048Y-89494342D02*
X69571429Y-89303866D01*
X69571429Y-89303866D02*
X69571429Y-89065771D01*
X69571429Y-89065771D02*
X69619048Y-88875295D01*
X69619048Y-88875295D02*
X69666667Y-88780057D01*
X69666667Y-88780057D02*
X69714286Y-88732438D01*
X69714286Y-88732438D02*
X69809524Y-88684819D01*
X64954819Y-46258333D02*
X65669104Y-46258333D01*
X65669104Y-46258333D02*
X65811961Y-46305952D01*
X65811961Y-46305952D02*
X65907200Y-46401190D01*
X65907200Y-46401190D02*
X65954819Y-46544047D01*
X65954819Y-46544047D02*
X65954819Y-46639285D01*
X65954819Y-45258333D02*
X65954819Y-45829761D01*
X65954819Y-45544047D02*
X64954819Y-45544047D01*
X64954819Y-45544047D02*
X65097676Y-45639285D01*
X65097676Y-45639285D02*
X65192914Y-45734523D01*
X65192914Y-45734523D02*
X65240533Y-45829761D01*
X70591666Y-168204819D02*
X70591666Y-168919104D01*
X70591666Y-168919104D02*
X70544047Y-169061961D01*
X70544047Y-169061961D02*
X70448809Y-169157200D01*
X70448809Y-169157200D02*
X70305952Y-169204819D01*
X70305952Y-169204819D02*
X70210714Y-169204819D01*
X71210714Y-168633390D02*
X71115476Y-168585771D01*
X71115476Y-168585771D02*
X71067857Y-168538152D01*
X71067857Y-168538152D02*
X71020238Y-168442914D01*
X71020238Y-168442914D02*
X71020238Y-168395295D01*
X71020238Y-168395295D02*
X71067857Y-168300057D01*
X71067857Y-168300057D02*
X71115476Y-168252438D01*
X71115476Y-168252438D02*
X71210714Y-168204819D01*
X71210714Y-168204819D02*
X71401190Y-168204819D01*
X71401190Y-168204819D02*
X71496428Y-168252438D01*
X71496428Y-168252438D02*
X71544047Y-168300057D01*
X71544047Y-168300057D02*
X71591666Y-168395295D01*
X71591666Y-168395295D02*
X71591666Y-168442914D01*
X71591666Y-168442914D02*
X71544047Y-168538152D01*
X71544047Y-168538152D02*
X71496428Y-168585771D01*
X71496428Y-168585771D02*
X71401190Y-168633390D01*
X71401190Y-168633390D02*
X71210714Y-168633390D01*
X71210714Y-168633390D02*
X71115476Y-168681009D01*
X71115476Y-168681009D02*
X71067857Y-168728628D01*
X71067857Y-168728628D02*
X71020238Y-168823866D01*
X71020238Y-168823866D02*
X71020238Y-169014342D01*
X71020238Y-169014342D02*
X71067857Y-169109580D01*
X71067857Y-169109580D02*
X71115476Y-169157200D01*
X71115476Y-169157200D02*
X71210714Y-169204819D01*
X71210714Y-169204819D02*
X71401190Y-169204819D01*
X71401190Y-169204819D02*
X71496428Y-169157200D01*
X71496428Y-169157200D02*
X71544047Y-169109580D01*
X71544047Y-169109580D02*
X71591666Y-169014342D01*
X71591666Y-169014342D02*
X71591666Y-168823866D01*
X71591666Y-168823866D02*
X71544047Y-168728628D01*
X71544047Y-168728628D02*
X71496428Y-168681009D01*
X71496428Y-168681009D02*
X71401190Y-168633390D01*
X54091666Y-168204819D02*
X54091666Y-168919104D01*
X54091666Y-168919104D02*
X54044047Y-169061961D01*
X54044047Y-169061961D02*
X53948809Y-169157200D01*
X53948809Y-169157200D02*
X53805952Y-169204819D01*
X53805952Y-169204819D02*
X53710714Y-169204819D01*
X54472619Y-168204819D02*
X55139285Y-168204819D01*
X55139285Y-168204819D02*
X54710714Y-169204819D01*
X94599819Y-165784523D02*
X95314104Y-165784523D01*
X95314104Y-165784523D02*
X95456961Y-165832142D01*
X95456961Y-165832142D02*
X95552200Y-165927380D01*
X95552200Y-165927380D02*
X95599819Y-166070237D01*
X95599819Y-166070237D02*
X95599819Y-166165475D01*
X94599819Y-164879761D02*
X94599819Y-165070237D01*
X94599819Y-165070237D02*
X94647438Y-165165475D01*
X94647438Y-165165475D02*
X94695057Y-165213094D01*
X94695057Y-165213094D02*
X94837914Y-165308332D01*
X94837914Y-165308332D02*
X95028390Y-165355951D01*
X95028390Y-165355951D02*
X95409342Y-165355951D01*
X95409342Y-165355951D02*
X95504580Y-165308332D01*
X95504580Y-165308332D02*
X95552200Y-165260713D01*
X95552200Y-165260713D02*
X95599819Y-165165475D01*
X95599819Y-165165475D02*
X95599819Y-164974999D01*
X95599819Y-164974999D02*
X95552200Y-164879761D01*
X95552200Y-164879761D02*
X95504580Y-164832142D01*
X95504580Y-164832142D02*
X95409342Y-164784523D01*
X95409342Y-164784523D02*
X95171247Y-164784523D01*
X95171247Y-164784523D02*
X95076009Y-164832142D01*
X95076009Y-164832142D02*
X95028390Y-164879761D01*
X95028390Y-164879761D02*
X94980771Y-164974999D01*
X94980771Y-164974999D02*
X94980771Y-165165475D01*
X94980771Y-165165475D02*
X95028390Y-165260713D01*
X95028390Y-165260713D02*
X95076009Y-165308332D01*
X95076009Y-165308332D02*
X95171247Y-165355951D01*
X94599819Y-164165475D02*
X94599819Y-164070237D01*
X94599819Y-164070237D02*
X94647438Y-163974999D01*
X94647438Y-163974999D02*
X94695057Y-163927380D01*
X94695057Y-163927380D02*
X94790295Y-163879761D01*
X94790295Y-163879761D02*
X94980771Y-163832142D01*
X94980771Y-163832142D02*
X95218866Y-163832142D01*
X95218866Y-163832142D02*
X95409342Y-163879761D01*
X95409342Y-163879761D02*
X95504580Y-163927380D01*
X95504580Y-163927380D02*
X95552200Y-163974999D01*
X95552200Y-163974999D02*
X95599819Y-164070237D01*
X95599819Y-164070237D02*
X95599819Y-164165475D01*
X95599819Y-164165475D02*
X95552200Y-164260713D01*
X95552200Y-164260713D02*
X95504580Y-164308332D01*
X95504580Y-164308332D02*
X95409342Y-164355951D01*
X95409342Y-164355951D02*
X95218866Y-164403570D01*
X95218866Y-164403570D02*
X94980771Y-164403570D01*
X94980771Y-164403570D02*
X94790295Y-164355951D01*
X94790295Y-164355951D02*
X94695057Y-164308332D01*
X94695057Y-164308332D02*
X94647438Y-164260713D01*
X94647438Y-164260713D02*
X94599819Y-164165475D01*
X70115476Y-184704819D02*
X70115476Y-185419104D01*
X70115476Y-185419104D02*
X70067857Y-185561961D01*
X70067857Y-185561961D02*
X69972619Y-185657200D01*
X69972619Y-185657200D02*
X69829762Y-185704819D01*
X69829762Y-185704819D02*
X69734524Y-185704819D01*
X71115476Y-185704819D02*
X70544048Y-185704819D01*
X70829762Y-185704819D02*
X70829762Y-184704819D01*
X70829762Y-184704819D02*
X70734524Y-184847676D01*
X70734524Y-184847676D02*
X70639286Y-184942914D01*
X70639286Y-184942914D02*
X70544048Y-184990533D01*
X72067857Y-185704819D02*
X71496429Y-185704819D01*
X71782143Y-185704819D02*
X71782143Y-184704819D01*
X71782143Y-184704819D02*
X71686905Y-184847676D01*
X71686905Y-184847676D02*
X71591667Y-184942914D01*
X71591667Y-184942914D02*
X71496429Y-184990533D01*
X53615476Y-201204819D02*
X53615476Y-201919104D01*
X53615476Y-201919104D02*
X53567857Y-202061961D01*
X53567857Y-202061961D02*
X53472619Y-202157200D01*
X53472619Y-202157200D02*
X53329762Y-202204819D01*
X53329762Y-202204819D02*
X53234524Y-202204819D01*
X54615476Y-202204819D02*
X54044048Y-202204819D01*
X54329762Y-202204819D02*
X54329762Y-201204819D01*
X54329762Y-201204819D02*
X54234524Y-201347676D01*
X54234524Y-201347676D02*
X54139286Y-201442914D01*
X54139286Y-201442914D02*
X54044048Y-201490533D01*
X54948810Y-201204819D02*
X55567857Y-201204819D01*
X55567857Y-201204819D02*
X55234524Y-201585771D01*
X55234524Y-201585771D02*
X55377381Y-201585771D01*
X55377381Y-201585771D02*
X55472619Y-201633390D01*
X55472619Y-201633390D02*
X55520238Y-201681009D01*
X55520238Y-201681009D02*
X55567857Y-201776247D01*
X55567857Y-201776247D02*
X55567857Y-202014342D01*
X55567857Y-202014342D02*
X55520238Y-202109580D01*
X55520238Y-202109580D02*
X55472619Y-202157200D01*
X55472619Y-202157200D02*
X55377381Y-202204819D01*
X55377381Y-202204819D02*
X55091667Y-202204819D01*
X55091667Y-202204819D02*
X54996429Y-202157200D01*
X54996429Y-202157200D02*
X54948810Y-202109580D01*
X83954819Y-213634523D02*
X84669104Y-213634523D01*
X84669104Y-213634523D02*
X84811961Y-213682142D01*
X84811961Y-213682142D02*
X84907200Y-213777380D01*
X84907200Y-213777380D02*
X84954819Y-213920237D01*
X84954819Y-213920237D02*
X84954819Y-214015475D01*
X84954819Y-212634523D02*
X84954819Y-213205951D01*
X84954819Y-212920237D02*
X83954819Y-212920237D01*
X83954819Y-212920237D02*
X84097676Y-213015475D01*
X84097676Y-213015475D02*
X84192914Y-213110713D01*
X84192914Y-213110713D02*
X84240533Y-213205951D01*
X83954819Y-211729761D02*
X83954819Y-212205951D01*
X83954819Y-212205951D02*
X84431009Y-212253570D01*
X84431009Y-212253570D02*
X84383390Y-212205951D01*
X84383390Y-212205951D02*
X84335771Y-212110713D01*
X84335771Y-212110713D02*
X84335771Y-211872618D01*
X84335771Y-211872618D02*
X84383390Y-211777380D01*
X84383390Y-211777380D02*
X84431009Y-211729761D01*
X84431009Y-211729761D02*
X84526247Y-211682142D01*
X84526247Y-211682142D02*
X84764342Y-211682142D01*
X84764342Y-211682142D02*
X84859580Y-211729761D01*
X84859580Y-211729761D02*
X84907200Y-211777380D01*
X84907200Y-211777380D02*
X84954819Y-211872618D01*
X84954819Y-211872618D02*
X84954819Y-212110713D01*
X84954819Y-212110713D02*
X84907200Y-212205951D01*
X84907200Y-212205951D02*
X84859580Y-212253570D01*
X83954819Y-197134523D02*
X84669104Y-197134523D01*
X84669104Y-197134523D02*
X84811961Y-197182142D01*
X84811961Y-197182142D02*
X84907200Y-197277380D01*
X84907200Y-197277380D02*
X84954819Y-197420237D01*
X84954819Y-197420237D02*
X84954819Y-197515475D01*
X84954819Y-196134523D02*
X84954819Y-196705951D01*
X84954819Y-196420237D02*
X83954819Y-196420237D01*
X83954819Y-196420237D02*
X84097676Y-196515475D01*
X84097676Y-196515475D02*
X84192914Y-196610713D01*
X84192914Y-196610713D02*
X84240533Y-196705951D01*
X84050057Y-195753570D02*
X84002438Y-195705951D01*
X84002438Y-195705951D02*
X83954819Y-195610713D01*
X83954819Y-195610713D02*
X83954819Y-195372618D01*
X83954819Y-195372618D02*
X84002438Y-195277380D01*
X84002438Y-195277380D02*
X84050057Y-195229761D01*
X84050057Y-195229761D02*
X84145295Y-195182142D01*
X84145295Y-195182142D02*
X84240533Y-195182142D01*
X84240533Y-195182142D02*
X84383390Y-195229761D01*
X84383390Y-195229761D02*
X84954819Y-195801189D01*
X84954819Y-195801189D02*
X84954819Y-195182142D01*
X54091666Y-118954819D02*
X54091666Y-119669104D01*
X54091666Y-119669104D02*
X54044047Y-119811961D01*
X54044047Y-119811961D02*
X53948809Y-119907200D01*
X53948809Y-119907200D02*
X53805952Y-119954819D01*
X53805952Y-119954819D02*
X53710714Y-119954819D01*
X55044047Y-118954819D02*
X54567857Y-118954819D01*
X54567857Y-118954819D02*
X54520238Y-119431009D01*
X54520238Y-119431009D02*
X54567857Y-119383390D01*
X54567857Y-119383390D02*
X54663095Y-119335771D01*
X54663095Y-119335771D02*
X54901190Y-119335771D01*
X54901190Y-119335771D02*
X54996428Y-119383390D01*
X54996428Y-119383390D02*
X55044047Y-119431009D01*
X55044047Y-119431009D02*
X55091666Y-119526247D01*
X55091666Y-119526247D02*
X55091666Y-119764342D01*
X55091666Y-119764342D02*
X55044047Y-119859580D01*
X55044047Y-119859580D02*
X54996428Y-119907200D01*
X54996428Y-119907200D02*
X54901190Y-119954819D01*
X54901190Y-119954819D02*
X54663095Y-119954819D01*
X54663095Y-119954819D02*
X54567857Y-119907200D01*
X54567857Y-119907200D02*
X54520238Y-119859580D01*
X54091666Y-80704819D02*
X54091666Y-81419104D01*
X54091666Y-81419104D02*
X54044047Y-81561961D01*
X54044047Y-81561961D02*
X53948809Y-81657200D01*
X53948809Y-81657200D02*
X53805952Y-81704819D01*
X53805952Y-81704819D02*
X53710714Y-81704819D01*
X54472619Y-80704819D02*
X55091666Y-80704819D01*
X55091666Y-80704819D02*
X54758333Y-81085771D01*
X54758333Y-81085771D02*
X54901190Y-81085771D01*
X54901190Y-81085771D02*
X54996428Y-81133390D01*
X54996428Y-81133390D02*
X55044047Y-81181009D01*
X55044047Y-81181009D02*
X55091666Y-81276247D01*
X55091666Y-81276247D02*
X55091666Y-81514342D01*
X55091666Y-81514342D02*
X55044047Y-81609580D01*
X55044047Y-81609580D02*
X54996428Y-81657200D01*
X54996428Y-81657200D02*
X54901190Y-81704819D01*
X54901190Y-81704819D02*
X54615476Y-81704819D01*
X54615476Y-81704819D02*
X54520238Y-81657200D01*
X54520238Y-81657200D02*
X54472619Y-81609580D01*
X54091666Y-97704819D02*
X54091666Y-98419104D01*
X54091666Y-98419104D02*
X54044047Y-98561961D01*
X54044047Y-98561961D02*
X53948809Y-98657200D01*
X53948809Y-98657200D02*
X53805952Y-98704819D01*
X53805952Y-98704819D02*
X53710714Y-98704819D01*
X54996428Y-98038152D02*
X54996428Y-98704819D01*
X54758333Y-97657200D02*
X54520238Y-98371485D01*
X54520238Y-98371485D02*
X55139285Y-98371485D01*
X54091666Y-59454819D02*
X54091666Y-60169104D01*
X54091666Y-60169104D02*
X54044047Y-60311961D01*
X54044047Y-60311961D02*
X53948809Y-60407200D01*
X53948809Y-60407200D02*
X53805952Y-60454819D01*
X53805952Y-60454819D02*
X53710714Y-60454819D01*
X54520238Y-59550057D02*
X54567857Y-59502438D01*
X54567857Y-59502438D02*
X54663095Y-59454819D01*
X54663095Y-59454819D02*
X54901190Y-59454819D01*
X54901190Y-59454819D02*
X54996428Y-59502438D01*
X54996428Y-59502438D02*
X55044047Y-59550057D01*
X55044047Y-59550057D02*
X55091666Y-59645295D01*
X55091666Y-59645295D02*
X55091666Y-59740533D01*
X55091666Y-59740533D02*
X55044047Y-59883390D01*
X55044047Y-59883390D02*
X54472619Y-60454819D01*
X54472619Y-60454819D02*
X55091666Y-60454819D01*
X70115476Y-201204819D02*
X70115476Y-201919104D01*
X70115476Y-201919104D02*
X70067857Y-202061961D01*
X70067857Y-202061961D02*
X69972619Y-202157200D01*
X69972619Y-202157200D02*
X69829762Y-202204819D01*
X69829762Y-202204819D02*
X69734524Y-202204819D01*
X71115476Y-202204819D02*
X70544048Y-202204819D01*
X70829762Y-202204819D02*
X70829762Y-201204819D01*
X70829762Y-201204819D02*
X70734524Y-201347676D01*
X70734524Y-201347676D02*
X70639286Y-201442914D01*
X70639286Y-201442914D02*
X70544048Y-201490533D01*
X71972619Y-201538152D02*
X71972619Y-202204819D01*
X71734524Y-201157200D02*
X71496429Y-201871485D01*
X71496429Y-201871485D02*
X72115476Y-201871485D01*
%TO.C,J10*%
X58500000Y-188050000D02*
X56150000Y-188050000D01*
X58500000Y-188050000D02*
X60850000Y-188050000D01*
X58500000Y-196450000D02*
X56150000Y-196450000D01*
X58500000Y-196450000D02*
X60850000Y-196450000D01*
X53700000Y-192250000D02*
G75*
G02*
X56156222Y-188061121I4800000J0D01*
G01*
X56156222Y-196438879D02*
G75*
G02*
X53700000Y-192250000I2343778J4188879D01*
G01*
X60843778Y-188061121D02*
G75*
G02*
X63300000Y-192250000I-2343781J-4188881D01*
G01*
X63300000Y-192250000D02*
G75*
G02*
X60843778Y-196438879I-4800003J2D01*
G01*
%TO.C,J9*%
X87300000Y-175750000D02*
X87300000Y-173400000D01*
X87300000Y-175750000D02*
X87300000Y-178100000D01*
X95700000Y-175750000D02*
X95700000Y-173400000D01*
X95700000Y-175750000D02*
X95700000Y-178100000D01*
X87311121Y-173406222D02*
G75*
G02*
X91500000Y-170950000I4188881J-2343781D01*
G01*
X91500000Y-170950000D02*
G75*
G02*
X95688879Y-173406222I-2J-4800003D01*
G01*
X91500000Y-180550000D02*
G75*
G02*
X87311121Y-178093778I0J4800000D01*
G01*
X95688879Y-178093778D02*
G75*
G02*
X91500000Y-180550000I-4188879J2343778D01*
G01*
%TO.C,J6*%
X58500000Y-139300000D02*
X56150000Y-139300000D01*
X58500000Y-139300000D02*
X60850000Y-139300000D01*
X58500000Y-147700000D02*
X56150000Y-147700000D01*
X58500000Y-147700000D02*
X60850000Y-147700000D01*
X53700000Y-143500000D02*
G75*
G02*
X56156222Y-139311121I4800000J0D01*
G01*
X56156222Y-147688879D02*
G75*
G02*
X53700000Y-143500000I2343778J4188879D01*
G01*
X60843778Y-139311121D02*
G75*
G02*
X63300000Y-143500000I-2343781J-4188881D01*
G01*
X63300000Y-143500000D02*
G75*
G02*
X60843778Y-147688879I-4800003J2D01*
G01*
D11*
%TO.C,J50*%
X67670000Y-93270000D02*
X67670000Y-111110000D01*
X67670000Y-93270000D02*
X70330000Y-93270000D01*
X67670000Y-111110000D02*
X70330000Y-111110000D01*
X69000000Y-90670000D02*
X70330000Y-90670000D01*
X70330000Y-90670000D02*
X70330000Y-92000000D01*
X70330000Y-93270000D02*
X70330000Y-111110000D01*
D10*
%TO.C,J1*%
X54300000Y-50000000D02*
X54300000Y-47650000D01*
X54300000Y-50000000D02*
X54300000Y-52350000D01*
X62700000Y-50000000D02*
X62700000Y-47650000D01*
X62700000Y-50000000D02*
X62700000Y-52350000D01*
X54311121Y-47656222D02*
G75*
G02*
X58500000Y-45200000I4188879J-2343778D01*
G01*
X58500000Y-45200000D02*
G75*
G02*
X62688879Y-47656222I0J-4800000D01*
G01*
X58500000Y-54800000D02*
G75*
G02*
X54311121Y-52343778I2J4800003D01*
G01*
X62688879Y-52343778D02*
G75*
G02*
X58500000Y-54800000I-4188881J2343781D01*
G01*
%TO.C,J8*%
X75000000Y-171550000D02*
X72650000Y-171550000D01*
X75000000Y-171550000D02*
X77350000Y-171550000D01*
X75000000Y-179950000D02*
X72650000Y-179950000D01*
X75000000Y-179950000D02*
X77350000Y-179950000D01*
X70200000Y-175750000D02*
G75*
G02*
X72656222Y-171561121I4800000J0D01*
G01*
X72656222Y-179938879D02*
G75*
G02*
X70200000Y-175750000I2343778J4188879D01*
G01*
X77343778Y-171561121D02*
G75*
G02*
X79800000Y-175750000I-2343781J-4188881D01*
G01*
X79800000Y-175750000D02*
G75*
G02*
X77343778Y-179938879I-4800003J2D01*
G01*
%TO.C,J7*%
X58500000Y-171550000D02*
X56150000Y-171550000D01*
X58500000Y-171550000D02*
X60850000Y-171550000D01*
X58500000Y-179950000D02*
X56150000Y-179950000D01*
X58500000Y-179950000D02*
X60850000Y-179950000D01*
X53700000Y-175750000D02*
G75*
G02*
X56156222Y-171561121I4800000J0D01*
G01*
X56156222Y-179938879D02*
G75*
G02*
X53700000Y-175750000I2343778J4188879D01*
G01*
X60843778Y-171561121D02*
G75*
G02*
X63300000Y-175750000I-2343781J-4188881D01*
G01*
X63300000Y-175750000D02*
G75*
G02*
X60843778Y-179938879I-4800003J2D01*
G01*
D11*
%TO.C,J60*%
X73265000Y-163645000D02*
X73265000Y-166305000D01*
X91105000Y-163645000D02*
X73265000Y-163645000D01*
X91105000Y-163645000D02*
X91105000Y-166305000D01*
X91105000Y-166305000D02*
X73265000Y-166305000D01*
X93705000Y-164975000D02*
X93705000Y-166305000D01*
X93705000Y-166305000D02*
X92375000Y-166305000D01*
D10*
%TO.C,J11*%
X75000000Y-188050000D02*
X72650000Y-188050000D01*
X75000000Y-188050000D02*
X77350000Y-188050000D01*
X75000000Y-196450000D02*
X72650000Y-196450000D01*
X75000000Y-196450000D02*
X77350000Y-196450000D01*
X70200000Y-192250000D02*
G75*
G02*
X72656222Y-188061121I4800000J0D01*
G01*
X72656222Y-196438879D02*
G75*
G02*
X70200000Y-192250000I2343778J4188879D01*
G01*
X77343778Y-188061121D02*
G75*
G02*
X79800000Y-192250000I-2343781J-4188881D01*
G01*
X79800000Y-192250000D02*
G75*
G02*
X77343778Y-196438879I-4800003J2D01*
G01*
%TO.C,J13*%
X58500000Y-204550000D02*
X56150000Y-204550000D01*
X58500000Y-204550000D02*
X60850000Y-204550000D01*
X58500000Y-212950000D02*
X56150000Y-212950000D01*
X58500000Y-212950000D02*
X60850000Y-212950000D01*
X53700000Y-208750000D02*
G75*
G02*
X56156222Y-204561121I4800000J0D01*
G01*
X56156222Y-212938879D02*
G75*
G02*
X53700000Y-208750000I2343778J4188879D01*
G01*
X60843778Y-204561121D02*
G75*
G02*
X63300000Y-208750000I-2343781J-4188881D01*
G01*
X63300000Y-208750000D02*
G75*
G02*
X60843778Y-212938879I-4800003J2D01*
G01*
%TO.C,J15*%
X87300000Y-208750000D02*
X87300000Y-206400000D01*
X87300000Y-208750000D02*
X87300000Y-211100000D01*
X95700000Y-208750000D02*
X95700000Y-206400000D01*
X95700000Y-208750000D02*
X95700000Y-211100000D01*
X87311121Y-206406222D02*
G75*
G02*
X91500000Y-203950000I4188881J-2343781D01*
G01*
X91500000Y-203950000D02*
G75*
G02*
X95688879Y-206406222I-2J-4800003D01*
G01*
X91500000Y-213550000D02*
G75*
G02*
X87311121Y-211093778I0J4800000D01*
G01*
X95688879Y-211093778D02*
G75*
G02*
X91500000Y-213550000I-4188879J2343778D01*
G01*
%TO.C,J12*%
X87300000Y-192250000D02*
X87300000Y-189900000D01*
X87300000Y-192250000D02*
X87300000Y-194600000D01*
X95700000Y-192250000D02*
X95700000Y-189900000D01*
X95700000Y-192250000D02*
X95700000Y-194600000D01*
X87311121Y-189906222D02*
G75*
G02*
X91500000Y-187450000I4188881J-2343781D01*
G01*
X91500000Y-187450000D02*
G75*
G02*
X95688879Y-189906222I-2J-4800003D01*
G01*
X91500000Y-197050000D02*
G75*
G02*
X87311121Y-194593778I0J4800000D01*
G01*
X95688879Y-194593778D02*
G75*
G02*
X91500000Y-197050000I-4188879J2343778D01*
G01*
%TO.C,J5*%
X58500000Y-122300000D02*
X56150000Y-122300000D01*
X58500000Y-122300000D02*
X60850000Y-122300000D01*
X58500000Y-130700000D02*
X56150000Y-130700000D01*
X58500000Y-130700000D02*
X60850000Y-130700000D01*
X53700000Y-126500000D02*
G75*
G02*
X56156222Y-122311121I4800000J0D01*
G01*
X56156222Y-130688879D02*
G75*
G02*
X53700000Y-126500000I2343778J4188879D01*
G01*
X60843778Y-122311121D02*
G75*
G02*
X63300000Y-126500000I-2343781J-4188881D01*
G01*
X63300000Y-126500000D02*
G75*
G02*
X60843778Y-130688879I-4800003J2D01*
G01*
%TO.C,J3*%
X58500000Y-84050000D02*
X56150000Y-84050000D01*
X58500000Y-84050000D02*
X60850000Y-84050000D01*
X58500000Y-92450000D02*
X56150000Y-92450000D01*
X58500000Y-92450000D02*
X60850000Y-92450000D01*
X53700000Y-88250000D02*
G75*
G02*
X56156222Y-84061121I4800000J0D01*
G01*
X56156222Y-92438879D02*
G75*
G02*
X53700000Y-88250000I2343778J4188879D01*
G01*
X60843778Y-84061121D02*
G75*
G02*
X63300000Y-88250000I-2343781J-4188881D01*
G01*
X63300000Y-88250000D02*
G75*
G02*
X60843778Y-92438879I-4800003J2D01*
G01*
%TO.C,J4*%
X58500000Y-101050000D02*
X56150000Y-101050000D01*
X58500000Y-101050000D02*
X60850000Y-101050000D01*
X58500000Y-109450000D02*
X56150000Y-109450000D01*
X58500000Y-109450000D02*
X60850000Y-109450000D01*
X53700000Y-105250000D02*
G75*
G02*
X56156222Y-101061121I4800000J0D01*
G01*
X56156222Y-109438879D02*
G75*
G02*
X53700000Y-105250000I2343778J4188879D01*
G01*
X60843778Y-101061121D02*
G75*
G02*
X63300000Y-105250000I-2343781J-4188881D01*
G01*
X63300000Y-105250000D02*
G75*
G02*
X60843778Y-109438879I-4800003J2D01*
G01*
%TO.C,J2*%
X58500000Y-62800000D02*
X56150000Y-62800000D01*
X58500000Y-62800000D02*
X60850000Y-62800000D01*
X58500000Y-71200000D02*
X56150000Y-71200000D01*
X58500000Y-71200000D02*
X60850000Y-71200000D01*
X53700000Y-67000000D02*
G75*
G02*
X56156222Y-62811121I4800000J0D01*
G01*
X56156222Y-71188879D02*
G75*
G02*
X53700000Y-67000000I2343778J4188879D01*
G01*
X60843778Y-62811121D02*
G75*
G02*
X63300000Y-67000000I-2343781J-4188881D01*
G01*
X63300000Y-67000000D02*
G75*
G02*
X60843778Y-71188879I-4800003J2D01*
G01*
%TO.C,J14*%
X75000000Y-204550000D02*
X72650000Y-204550000D01*
X75000000Y-204550000D02*
X77350000Y-204550000D01*
X75000000Y-212950000D02*
X72650000Y-212950000D01*
X75000000Y-212950000D02*
X77350000Y-212950000D01*
X70200000Y-208750000D02*
G75*
G02*
X72656222Y-204561121I4800000J0D01*
G01*
X72656222Y-212938879D02*
G75*
G02*
X70200000Y-208750000I2343778J4188879D01*
G01*
X77343778Y-204561121D02*
G75*
G02*
X79800000Y-208750000I-2343781J-4188881D01*
G01*
X79800000Y-208750000D02*
G75*
G02*
X77343778Y-212938879I-4800003J2D01*
G01*
%TD*%
%LPC*%
D12*
%TO.C,J10*%
X53903810Y-187653810D03*
D13*
X65000000Y-191750000D03*
D14*
X61000000Y-185750000D03*
%TD*%
D15*
%TO.C,J9*%
X86903810Y-180346190D03*
D14*
X91000000Y-169250000D03*
D13*
X85000000Y-173250000D03*
%TD*%
D12*
%TO.C,J6*%
X53903810Y-138903810D03*
D13*
X65000000Y-143000000D03*
D14*
X61000000Y-137000000D03*
%TD*%
D16*
%TO.C,J50*%
X69000000Y-92000000D03*
D17*
X69000000Y-94540000D03*
X69000000Y-97080000D03*
X69000000Y-99620000D03*
X69000000Y-102160000D03*
X69000000Y-104700000D03*
X69000000Y-107240000D03*
X69000000Y-109780000D03*
%TD*%
D15*
%TO.C,J1*%
X63096190Y-45403810D03*
D14*
X59000000Y-56500000D03*
D13*
X65000000Y-52500000D03*
%TD*%
D12*
%TO.C,J8*%
X70403810Y-171153810D03*
D13*
X81500000Y-175250000D03*
D14*
X77500000Y-169250000D03*
%TD*%
D12*
%TO.C,J7*%
X53903810Y-171153810D03*
D13*
X65000000Y-175250000D03*
D14*
X61000000Y-169250000D03*
%TD*%
D16*
%TO.C,J60*%
X92375000Y-164975000D03*
D17*
X89835000Y-164975000D03*
X87295000Y-164975000D03*
X84755000Y-164975000D03*
X82215000Y-164975000D03*
X79675000Y-164975000D03*
X77135000Y-164975000D03*
X74595000Y-164975000D03*
%TD*%
D12*
%TO.C,J11*%
X70403810Y-187653810D03*
D13*
X81500000Y-191750000D03*
D14*
X77500000Y-185750000D03*
%TD*%
D12*
%TO.C,J13*%
X53903810Y-204153810D03*
D13*
X65000000Y-208250000D03*
D14*
X61000000Y-202250000D03*
%TD*%
D15*
%TO.C,J15*%
X86903810Y-213346190D03*
D14*
X91000000Y-202250000D03*
D13*
X85000000Y-206250000D03*
%TD*%
D15*
%TO.C,J12*%
X86903810Y-196846190D03*
D14*
X91000000Y-185750000D03*
D13*
X85000000Y-189750000D03*
%TD*%
D12*
%TO.C,J5*%
X53903810Y-121903810D03*
D13*
X65000000Y-126000000D03*
D14*
X61000000Y-120000000D03*
%TD*%
D12*
%TO.C,J3*%
X53903810Y-83653810D03*
D13*
X65000000Y-87750000D03*
D14*
X61000000Y-81750000D03*
%TD*%
D12*
%TO.C,J4*%
X53903810Y-100653810D03*
D13*
X65000000Y-104750000D03*
D14*
X61000000Y-98750000D03*
%TD*%
D12*
%TO.C,J2*%
X53903810Y-62403810D03*
D13*
X65000000Y-66500000D03*
D14*
X61000000Y-60500000D03*
%TD*%
D12*
%TO.C,J14*%
X70403810Y-204153810D03*
D13*
X81500000Y-208250000D03*
D14*
X77500000Y-202250000D03*
%TD*%
%LPD*%
M02*
