M48
; DRILL file {KiCad 9.0.0} date 2025-03-15T22:53:49+0100
; FORMAT={-:-/ absolute / metric / decimal}
; #@! TF.CreationDate,2025-03-15T22:53:49+01:00
; #@! TF.GenerationSoftware,Kicad,Pcbnew,9.0.0
; #@! TF.FileFunction,Plated,1,2,PTH
FMAT,2
METRIC
; #@! TA.AperFunction,Plated,PTH,ComponentDrill
T1C1.000
%
G90
G05
T1
X69.0Y-92.0
X69.0Y-94.54
X69.0Y-97.08
X69.0Y-99.62
X69.0Y-102.16
X69.0Y-104.7
X69.0Y-107.24
X69.0Y-109.78
X74.595Y-164.975
X77.135Y-164.975
X79.675Y-164.975
X82.215Y-164.975
X84.755Y-164.975
X87.295Y-164.975
X89.835Y-164.975
X92.375Y-164.975
T1
X54.434Y-61.873G85X53.373Y-62.934
G05
X54.434Y-83.123G85X53.373Y-84.184
G05
X54.434Y-100.123G85X53.373Y-101.184
G05
X54.434Y-121.373G85X53.373Y-122.434
G05
X54.434Y-138.373G85X53.373Y-139.434
G05
X54.434Y-170.623G85X53.373Y-171.684
G05
X54.434Y-187.123G85X53.373Y-188.184
G05
X54.434Y-203.623G85X53.373Y-204.684
G05
X59.75Y-56.5G85X58.25Y-56.5
G05
X60.25Y-60.5G85X61.75Y-60.5
G05
X60.25Y-81.75G85X61.75Y-81.75
G05
X60.25Y-98.75G85X61.75Y-98.75
G05
X60.25Y-120.0G85X61.75Y-120.0
G05
X60.25Y-137.0G85X61.75Y-137.0
G05
X60.25Y-169.25G85X61.75Y-169.25
G05
X60.25Y-185.75G85X61.75Y-185.75
G05
X60.25Y-202.25G85X61.75Y-202.25
G05
X63.627Y-45.934G85X62.566Y-44.873
G05
X65.0Y-51.75G85X65.0Y-53.25
G05
X65.0Y-65.75G85X65.0Y-67.25
G05
X65.0Y-87.0G85X65.0Y-88.5
G05
X65.0Y-104.0G85X65.0Y-105.5
G05
X65.0Y-125.25G85X65.0Y-126.75
G05
X65.0Y-142.25G85X65.0Y-143.75
G05
X65.0Y-174.5G85X65.0Y-176.0
G05
X65.0Y-191.0G85X65.0Y-192.5
G05
X65.0Y-207.5G85X65.0Y-209.0
G05
X70.934Y-170.623G85X69.873Y-171.684
G05
X70.934Y-187.123G85X69.873Y-188.184
G05
X70.934Y-203.623G85X69.873Y-204.684
G05
X76.75Y-169.25G85X78.25Y-169.25
G05
X76.75Y-185.75G85X78.25Y-185.75
G05
X76.75Y-202.25G85X78.25Y-202.25
G05
X81.5Y-174.5G85X81.5Y-176.0
G05
X81.5Y-191.0G85X81.5Y-192.5
G05
X81.5Y-207.5G85X81.5Y-209.0
G05
X85.0Y-174.0G85X85.0Y-172.5
G05
X85.0Y-190.5G85X85.0Y-189.0
G05
X85.0Y-207.0G85X85.0Y-205.5
G05
X86.373Y-179.816G85X87.434Y-180.877
G05
X86.373Y-196.316G85X87.434Y-197.377
G05
X86.373Y-212.816G85X87.434Y-213.877
G05
X90.25Y-169.25G85X91.75Y-169.25
G05
X90.25Y-185.75G85X91.75Y-185.75
G05
X90.25Y-202.25G85X91.75Y-202.25
G05
M30
