M48
; DRILL file {KiCad 8.0.5} date 2024-12-03T23:42:27+0100
; FORMAT={-:-/ absolute / metric / decimal}
; #@! TF.CreationDate,2024-12-03T23:42:27+01:00
; #@! TF.GenerationSoftware,Kicad,Pcbnew,8.0.5
; #@! TF.FileFunction,Plated,1,2,PTH
FMAT,2
METRIC
; #@! TA.AperFunction,Plated,PTH,ComponentDrill
T1C1.000
%
G90
G05
T1
X68.975Y-71.175
X68.975Y-73.715
X68.975Y-76.255
X68.975Y-78.795
X68.975Y-81.335
X68.975Y-83.875
X76.625Y-115.475
X79.165Y-115.475
X81.705Y-115.475
X84.245Y-115.475
X86.785Y-115.475
X89.325Y-115.475
T1
X59.75Y-56.5G85X58.25Y-56.5
G05
X59.75Y-73.5G85X58.25Y-73.5
G05
X59.75Y-94.75G85X58.25Y-94.75
G05
X59.75Y-111.75G85X58.25Y-111.75
G05
X59.75Y-132.75G85X58.25Y-132.75
G05
X59.75Y-149.25G85X58.25Y-149.25
G05
X59.75Y-165.75G85X58.25Y-165.75
G05
X59.75Y-182.25G85X58.25Y-182.25
G05
X59.75Y-198.75G85X58.25Y-198.75
G05
X59.75Y-215.25G85X58.25Y-215.25
G05
X63.627Y-45.934G85X62.566Y-44.873
G05
X63.627Y-62.934G85X62.566Y-61.873
G05
X63.627Y-84.184G85X62.566Y-83.123
G05
X63.627Y-101.184G85X62.566Y-100.123
G05
X63.627Y-122.184G85X62.566Y-121.123
G05
X63.627Y-138.684G85X62.566Y-137.623
G05
X63.627Y-155.184G85X62.566Y-154.123
G05
X63.627Y-171.684G85X62.566Y-170.623
G05
X63.627Y-188.184G85X62.566Y-187.123
G05
X63.627Y-204.684G85X62.566Y-203.623
G05
X65.0Y-51.75G85X65.0Y-53.25
G05
X65.0Y-68.75G85X65.0Y-70.25
G05
X65.0Y-90.0G85X65.0Y-91.5
G05
X65.0Y-107.0G85X65.0Y-108.5
G05
X65.0Y-128.0G85X65.0Y-129.5
G05
X65.0Y-144.5G85X65.0Y-146.0
G05
X65.0Y-161.0G85X65.0Y-162.5
G05
X65.0Y-177.5G85X65.0Y-179.0
G05
X65.0Y-194.0G85X65.0Y-195.5
G05
X65.0Y-210.5G85X65.0Y-212.0
G05
X70.934Y-121.123G85X69.873Y-122.184
G05
X70.934Y-137.623G85X69.873Y-138.684
G05
X70.934Y-154.123G85X69.873Y-155.184
G05
X70.934Y-170.623G85X69.873Y-171.684
G05
X70.934Y-187.123G85X69.873Y-188.184
G05
X70.934Y-203.623G85X69.873Y-204.684
G05
X76.75Y-119.75G85X78.25Y-119.75
G05
X76.75Y-136.25G85X78.25Y-136.25
G05
X76.75Y-152.75G85X78.25Y-152.75
G05
X76.75Y-169.25G85X78.25Y-169.25
G05
X76.75Y-185.75G85X78.25Y-185.75
G05
X76.75Y-202.25G85X78.25Y-202.25
G05
X81.5Y-125.0G85X81.5Y-126.5
G05
X81.5Y-141.5G85X81.5Y-143.0
G05
X81.5Y-158.0G85X81.5Y-159.5
G05
X81.5Y-174.5G85X81.5Y-176.0
G05
X81.5Y-191.0G85X81.5Y-192.5
G05
X81.5Y-207.5G85X81.5Y-209.0
G05
X85.0Y-124.5G85X85.0Y-123.0
G05
X85.0Y-141.0G85X85.0Y-139.5
G05
X85.0Y-157.5G85X85.0Y-156.0
G05
X85.0Y-174.0G85X85.0Y-172.5
G05
X85.0Y-190.5G85X85.0Y-189.0
G05
X85.0Y-207.0G85X85.0Y-205.5
G05
X86.373Y-130.316G85X87.434Y-131.377
G05
X86.373Y-146.816G85X87.434Y-147.877
G05
X86.373Y-163.316G85X87.434Y-164.377
G05
X86.373Y-179.816G85X87.434Y-180.877
G05
X86.373Y-196.316G85X87.434Y-197.377
G05
X86.373Y-212.816G85X87.434Y-213.877
G05
X90.25Y-119.75G85X91.75Y-119.75
G05
X90.25Y-136.25G85X91.75Y-136.25
G05
X90.25Y-152.75G85X91.75Y-152.75
G05
X90.25Y-169.25G85X91.75Y-169.25
G05
X90.25Y-185.75G85X91.75Y-185.75
G05
X90.25Y-202.25G85X91.75Y-202.25
G05
M30
