%TF.GenerationSoftware,KiCad,Pcbnew,8.0.5*%
%TF.CreationDate,2024-12-03T23:42:19+01:00*%
%TF.ProjectId,DMH_Multiverter_PCB_Conn,444d485f-4d75-46c7-9469-766572746572,1*%
%TF.SameCoordinates,Original*%
%TF.FileFunction,Legend,Top*%
%TF.FilePolarity,Positive*%
%FSLAX46Y46*%
G04 Gerber Fmt 4.6, Leading zero omitted, Abs format (unit mm)*
G04 Created by KiCad (PCBNEW 8.0.5) date 2024-12-03 23:42:19*
%MOMM*%
%LPD*%
G01*
G04 APERTURE LIST*
G04 Aperture macros list*
%AMHorizOval*
0 Thick line with rounded ends*
0 $1 width*
0 $2 $3 position (X,Y) of the first rounded end (center of the circle)*
0 $4 $5 position (X,Y) of the second rounded end (center of the circle)*
0 Add line between two ends*
20,1,$1,$2,$3,$4,$5,0*
0 Add two circle primitives to create the rounded ends*
1,1,$1,$2,$3*
1,1,$1,$4,$5*%
G04 Aperture macros list end*
%ADD10C,0.150000*%
%ADD11C,0.120000*%
%ADD12HorizOval,1.712000X-0.533159X0.533159X0.533159X-0.533159X0*%
%ADD13O,3.220000X1.712000*%
%ADD14O,1.712000X3.220000*%
%ADD15HorizOval,1.712000X-0.533159X-0.533159X0.533159X0.533159X0*%
%ADD16R,1.700000X1.700000*%
%ADD17O,1.700000X1.700000*%
G04 APERTURE END LIST*
D10*
X83954819Y-147634523D02*
X84669104Y-147634523D01*
X84669104Y-147634523D02*
X84811961Y-147682142D01*
X84811961Y-147682142D02*
X84907200Y-147777380D01*
X84907200Y-147777380D02*
X84954819Y-147920237D01*
X84954819Y-147920237D02*
X84954819Y-148015475D01*
X84954819Y-146634523D02*
X84954819Y-147205951D01*
X84954819Y-146920237D02*
X83954819Y-146920237D01*
X83954819Y-146920237D02*
X84097676Y-147015475D01*
X84097676Y-147015475D02*
X84192914Y-147110713D01*
X84192914Y-147110713D02*
X84240533Y-147205951D01*
X83954819Y-146015475D02*
X83954819Y-145920237D01*
X83954819Y-145920237D02*
X84002438Y-145824999D01*
X84002438Y-145824999D02*
X84050057Y-145777380D01*
X84050057Y-145777380D02*
X84145295Y-145729761D01*
X84145295Y-145729761D02*
X84335771Y-145682142D01*
X84335771Y-145682142D02*
X84573866Y-145682142D01*
X84573866Y-145682142D02*
X84764342Y-145729761D01*
X84764342Y-145729761D02*
X84859580Y-145777380D01*
X84859580Y-145777380D02*
X84907200Y-145824999D01*
X84907200Y-145824999D02*
X84954819Y-145920237D01*
X84954819Y-145920237D02*
X84954819Y-146015475D01*
X84954819Y-146015475D02*
X84907200Y-146110713D01*
X84907200Y-146110713D02*
X84859580Y-146158332D01*
X84859580Y-146158332D02*
X84764342Y-146205951D01*
X84764342Y-146205951D02*
X84573866Y-146253570D01*
X84573866Y-146253570D02*
X84335771Y-146253570D01*
X84335771Y-146253570D02*
X84145295Y-146205951D01*
X84145295Y-146205951D02*
X84050057Y-146158332D01*
X84050057Y-146158332D02*
X84002438Y-146110713D01*
X84002438Y-146110713D02*
X83954819Y-146015475D01*
X70591666Y-135204819D02*
X70591666Y-135919104D01*
X70591666Y-135919104D02*
X70544047Y-136061961D01*
X70544047Y-136061961D02*
X70448809Y-136157200D01*
X70448809Y-136157200D02*
X70305952Y-136204819D01*
X70305952Y-136204819D02*
X70210714Y-136204819D01*
X71115476Y-136204819D02*
X71305952Y-136204819D01*
X71305952Y-136204819D02*
X71401190Y-136157200D01*
X71401190Y-136157200D02*
X71448809Y-136109580D01*
X71448809Y-136109580D02*
X71544047Y-135966723D01*
X71544047Y-135966723D02*
X71591666Y-135776247D01*
X71591666Y-135776247D02*
X71591666Y-135395295D01*
X71591666Y-135395295D02*
X71544047Y-135300057D01*
X71544047Y-135300057D02*
X71496428Y-135252438D01*
X71496428Y-135252438D02*
X71401190Y-135204819D01*
X71401190Y-135204819D02*
X71210714Y-135204819D01*
X71210714Y-135204819D02*
X71115476Y-135252438D01*
X71115476Y-135252438D02*
X71067857Y-135300057D01*
X71067857Y-135300057D02*
X71020238Y-135395295D01*
X71020238Y-135395295D02*
X71020238Y-135633390D01*
X71020238Y-135633390D02*
X71067857Y-135728628D01*
X71067857Y-135728628D02*
X71115476Y-135776247D01*
X71115476Y-135776247D02*
X71210714Y-135823866D01*
X71210714Y-135823866D02*
X71401190Y-135823866D01*
X71401190Y-135823866D02*
X71496428Y-135776247D01*
X71496428Y-135776247D02*
X71544047Y-135728628D01*
X71544047Y-135728628D02*
X71591666Y-135633390D01*
X70591666Y-118704819D02*
X70591666Y-119419104D01*
X70591666Y-119419104D02*
X70544047Y-119561961D01*
X70544047Y-119561961D02*
X70448809Y-119657200D01*
X70448809Y-119657200D02*
X70305952Y-119704819D01*
X70305952Y-119704819D02*
X70210714Y-119704819D01*
X71496428Y-118704819D02*
X71305952Y-118704819D01*
X71305952Y-118704819D02*
X71210714Y-118752438D01*
X71210714Y-118752438D02*
X71163095Y-118800057D01*
X71163095Y-118800057D02*
X71067857Y-118942914D01*
X71067857Y-118942914D02*
X71020238Y-119133390D01*
X71020238Y-119133390D02*
X71020238Y-119514342D01*
X71020238Y-119514342D02*
X71067857Y-119609580D01*
X71067857Y-119609580D02*
X71115476Y-119657200D01*
X71115476Y-119657200D02*
X71210714Y-119704819D01*
X71210714Y-119704819D02*
X71401190Y-119704819D01*
X71401190Y-119704819D02*
X71496428Y-119657200D01*
X71496428Y-119657200D02*
X71544047Y-119609580D01*
X71544047Y-119609580D02*
X71591666Y-119514342D01*
X71591666Y-119514342D02*
X71591666Y-119276247D01*
X71591666Y-119276247D02*
X71544047Y-119181009D01*
X71544047Y-119181009D02*
X71496428Y-119133390D01*
X71496428Y-119133390D02*
X71401190Y-119085771D01*
X71401190Y-119085771D02*
X71210714Y-119085771D01*
X71210714Y-119085771D02*
X71115476Y-119133390D01*
X71115476Y-119133390D02*
X71067857Y-119181009D01*
X71067857Y-119181009D02*
X71020238Y-119276247D01*
X83954819Y-180634523D02*
X84669104Y-180634523D01*
X84669104Y-180634523D02*
X84811961Y-180682142D01*
X84811961Y-180682142D02*
X84907200Y-180777380D01*
X84907200Y-180777380D02*
X84954819Y-180920237D01*
X84954819Y-180920237D02*
X84954819Y-181015475D01*
X84954819Y-179634523D02*
X84954819Y-180205951D01*
X84954819Y-179920237D02*
X83954819Y-179920237D01*
X83954819Y-179920237D02*
X84097676Y-180015475D01*
X84097676Y-180015475D02*
X84192914Y-180110713D01*
X84192914Y-180110713D02*
X84240533Y-180205951D01*
X83954819Y-178777380D02*
X83954819Y-178967856D01*
X83954819Y-178967856D02*
X84002438Y-179063094D01*
X84002438Y-179063094D02*
X84050057Y-179110713D01*
X84050057Y-179110713D02*
X84192914Y-179205951D01*
X84192914Y-179205951D02*
X84383390Y-179253570D01*
X84383390Y-179253570D02*
X84764342Y-179253570D01*
X84764342Y-179253570D02*
X84859580Y-179205951D01*
X84859580Y-179205951D02*
X84907200Y-179158332D01*
X84907200Y-179158332D02*
X84954819Y-179063094D01*
X84954819Y-179063094D02*
X84954819Y-178872618D01*
X84954819Y-178872618D02*
X84907200Y-178777380D01*
X84907200Y-178777380D02*
X84859580Y-178729761D01*
X84859580Y-178729761D02*
X84764342Y-178682142D01*
X84764342Y-178682142D02*
X84526247Y-178682142D01*
X84526247Y-178682142D02*
X84431009Y-178729761D01*
X84431009Y-178729761D02*
X84383390Y-178777380D01*
X84383390Y-178777380D02*
X84335771Y-178872618D01*
X84335771Y-178872618D02*
X84335771Y-179063094D01*
X84335771Y-179063094D02*
X84383390Y-179158332D01*
X84383390Y-179158332D02*
X84431009Y-179205951D01*
X84431009Y-179205951D02*
X84526247Y-179253570D01*
X68165476Y-68299819D02*
X68165476Y-69014104D01*
X68165476Y-69014104D02*
X68117857Y-69156961D01*
X68117857Y-69156961D02*
X68022619Y-69252200D01*
X68022619Y-69252200D02*
X67879762Y-69299819D01*
X67879762Y-69299819D02*
X67784524Y-69299819D01*
X69117857Y-68299819D02*
X68641667Y-68299819D01*
X68641667Y-68299819D02*
X68594048Y-68776009D01*
X68594048Y-68776009D02*
X68641667Y-68728390D01*
X68641667Y-68728390D02*
X68736905Y-68680771D01*
X68736905Y-68680771D02*
X68975000Y-68680771D01*
X68975000Y-68680771D02*
X69070238Y-68728390D01*
X69070238Y-68728390D02*
X69117857Y-68776009D01*
X69117857Y-68776009D02*
X69165476Y-68871247D01*
X69165476Y-68871247D02*
X69165476Y-69109342D01*
X69165476Y-69109342D02*
X69117857Y-69204580D01*
X69117857Y-69204580D02*
X69070238Y-69252200D01*
X69070238Y-69252200D02*
X68975000Y-69299819D01*
X68975000Y-69299819D02*
X68736905Y-69299819D01*
X68736905Y-69299819D02*
X68641667Y-69252200D01*
X68641667Y-69252200D02*
X68594048Y-69204580D01*
X69784524Y-68299819D02*
X69879762Y-68299819D01*
X69879762Y-68299819D02*
X69975000Y-68347438D01*
X69975000Y-68347438D02*
X70022619Y-68395057D01*
X70022619Y-68395057D02*
X70070238Y-68490295D01*
X70070238Y-68490295D02*
X70117857Y-68680771D01*
X70117857Y-68680771D02*
X70117857Y-68918866D01*
X70117857Y-68918866D02*
X70070238Y-69109342D01*
X70070238Y-69109342D02*
X70022619Y-69204580D01*
X70022619Y-69204580D02*
X69975000Y-69252200D01*
X69975000Y-69252200D02*
X69879762Y-69299819D01*
X69879762Y-69299819D02*
X69784524Y-69299819D01*
X69784524Y-69299819D02*
X69689286Y-69252200D01*
X69689286Y-69252200D02*
X69641667Y-69204580D01*
X69641667Y-69204580D02*
X69594048Y-69109342D01*
X69594048Y-69109342D02*
X69546429Y-68918866D01*
X69546429Y-68918866D02*
X69546429Y-68680771D01*
X69546429Y-68680771D02*
X69594048Y-68490295D01*
X69594048Y-68490295D02*
X69641667Y-68395057D01*
X69641667Y-68395057D02*
X69689286Y-68347438D01*
X69689286Y-68347438D02*
X69784524Y-68299819D01*
X64954819Y-46258333D02*
X65669104Y-46258333D01*
X65669104Y-46258333D02*
X65811961Y-46305952D01*
X65811961Y-46305952D02*
X65907200Y-46401190D01*
X65907200Y-46401190D02*
X65954819Y-46544047D01*
X65954819Y-46544047D02*
X65954819Y-46639285D01*
X65954819Y-45258333D02*
X65954819Y-45829761D01*
X65954819Y-45544047D02*
X64954819Y-45544047D01*
X64954819Y-45544047D02*
X65097676Y-45639285D01*
X65097676Y-45639285D02*
X65192914Y-45734523D01*
X65192914Y-45734523D02*
X65240533Y-45829761D01*
X64954819Y-139008333D02*
X65669104Y-139008333D01*
X65669104Y-139008333D02*
X65811961Y-139055952D01*
X65811961Y-139055952D02*
X65907200Y-139151190D01*
X65907200Y-139151190D02*
X65954819Y-139294047D01*
X65954819Y-139294047D02*
X65954819Y-139389285D01*
X65383390Y-138389285D02*
X65335771Y-138484523D01*
X65335771Y-138484523D02*
X65288152Y-138532142D01*
X65288152Y-138532142D02*
X65192914Y-138579761D01*
X65192914Y-138579761D02*
X65145295Y-138579761D01*
X65145295Y-138579761D02*
X65050057Y-138532142D01*
X65050057Y-138532142D02*
X65002438Y-138484523D01*
X65002438Y-138484523D02*
X64954819Y-138389285D01*
X64954819Y-138389285D02*
X64954819Y-138198809D01*
X64954819Y-138198809D02*
X65002438Y-138103571D01*
X65002438Y-138103571D02*
X65050057Y-138055952D01*
X65050057Y-138055952D02*
X65145295Y-138008333D01*
X65145295Y-138008333D02*
X65192914Y-138008333D01*
X65192914Y-138008333D02*
X65288152Y-138055952D01*
X65288152Y-138055952D02*
X65335771Y-138103571D01*
X65335771Y-138103571D02*
X65383390Y-138198809D01*
X65383390Y-138198809D02*
X65383390Y-138389285D01*
X65383390Y-138389285D02*
X65431009Y-138484523D01*
X65431009Y-138484523D02*
X65478628Y-138532142D01*
X65478628Y-138532142D02*
X65573866Y-138579761D01*
X65573866Y-138579761D02*
X65764342Y-138579761D01*
X65764342Y-138579761D02*
X65859580Y-138532142D01*
X65859580Y-138532142D02*
X65907200Y-138484523D01*
X65907200Y-138484523D02*
X65954819Y-138389285D01*
X65954819Y-138389285D02*
X65954819Y-138198809D01*
X65954819Y-138198809D02*
X65907200Y-138103571D01*
X65907200Y-138103571D02*
X65859580Y-138055952D01*
X65859580Y-138055952D02*
X65764342Y-138008333D01*
X65764342Y-138008333D02*
X65573866Y-138008333D01*
X65573866Y-138008333D02*
X65478628Y-138055952D01*
X65478628Y-138055952D02*
X65431009Y-138103571D01*
X65431009Y-138103571D02*
X65383390Y-138198809D01*
X83954819Y-130658333D02*
X84669104Y-130658333D01*
X84669104Y-130658333D02*
X84811961Y-130705952D01*
X84811961Y-130705952D02*
X84907200Y-130801190D01*
X84907200Y-130801190D02*
X84954819Y-130944047D01*
X84954819Y-130944047D02*
X84954819Y-131039285D01*
X83954819Y-130277380D02*
X83954819Y-129610714D01*
X83954819Y-129610714D02*
X84954819Y-130039285D01*
X91109819Y-116284523D02*
X91824104Y-116284523D01*
X91824104Y-116284523D02*
X91966961Y-116332142D01*
X91966961Y-116332142D02*
X92062200Y-116427380D01*
X92062200Y-116427380D02*
X92109819Y-116570237D01*
X92109819Y-116570237D02*
X92109819Y-116665475D01*
X91109819Y-115379761D02*
X91109819Y-115570237D01*
X91109819Y-115570237D02*
X91157438Y-115665475D01*
X91157438Y-115665475D02*
X91205057Y-115713094D01*
X91205057Y-115713094D02*
X91347914Y-115808332D01*
X91347914Y-115808332D02*
X91538390Y-115855951D01*
X91538390Y-115855951D02*
X91919342Y-115855951D01*
X91919342Y-115855951D02*
X92014580Y-115808332D01*
X92014580Y-115808332D02*
X92062200Y-115760713D01*
X92062200Y-115760713D02*
X92109819Y-115665475D01*
X92109819Y-115665475D02*
X92109819Y-115474999D01*
X92109819Y-115474999D02*
X92062200Y-115379761D01*
X92062200Y-115379761D02*
X92014580Y-115332142D01*
X92014580Y-115332142D02*
X91919342Y-115284523D01*
X91919342Y-115284523D02*
X91681247Y-115284523D01*
X91681247Y-115284523D02*
X91586009Y-115332142D01*
X91586009Y-115332142D02*
X91538390Y-115379761D01*
X91538390Y-115379761D02*
X91490771Y-115474999D01*
X91490771Y-115474999D02*
X91490771Y-115665475D01*
X91490771Y-115665475D02*
X91538390Y-115760713D01*
X91538390Y-115760713D02*
X91586009Y-115808332D01*
X91586009Y-115808332D02*
X91681247Y-115855951D01*
X91109819Y-114665475D02*
X91109819Y-114570237D01*
X91109819Y-114570237D02*
X91157438Y-114474999D01*
X91157438Y-114474999D02*
X91205057Y-114427380D01*
X91205057Y-114427380D02*
X91300295Y-114379761D01*
X91300295Y-114379761D02*
X91490771Y-114332142D01*
X91490771Y-114332142D02*
X91728866Y-114332142D01*
X91728866Y-114332142D02*
X91919342Y-114379761D01*
X91919342Y-114379761D02*
X92014580Y-114427380D01*
X92014580Y-114427380D02*
X92062200Y-114474999D01*
X92062200Y-114474999D02*
X92109819Y-114570237D01*
X92109819Y-114570237D02*
X92109819Y-114665475D01*
X92109819Y-114665475D02*
X92062200Y-114760713D01*
X92062200Y-114760713D02*
X92014580Y-114808332D01*
X92014580Y-114808332D02*
X91919342Y-114855951D01*
X91919342Y-114855951D02*
X91728866Y-114903570D01*
X91728866Y-114903570D02*
X91490771Y-114903570D01*
X91490771Y-114903570D02*
X91300295Y-114855951D01*
X91300295Y-114855951D02*
X91205057Y-114808332D01*
X91205057Y-114808332D02*
X91157438Y-114760713D01*
X91157438Y-114760713D02*
X91109819Y-114665475D01*
X64954819Y-155984523D02*
X65669104Y-155984523D01*
X65669104Y-155984523D02*
X65811961Y-156032142D01*
X65811961Y-156032142D02*
X65907200Y-156127380D01*
X65907200Y-156127380D02*
X65954819Y-156270237D01*
X65954819Y-156270237D02*
X65954819Y-156365475D01*
X65954819Y-154984523D02*
X65954819Y-155555951D01*
X65954819Y-155270237D02*
X64954819Y-155270237D01*
X64954819Y-155270237D02*
X65097676Y-155365475D01*
X65097676Y-155365475D02*
X65192914Y-155460713D01*
X65192914Y-155460713D02*
X65240533Y-155555951D01*
X65954819Y-154032142D02*
X65954819Y-154603570D01*
X65954819Y-154317856D02*
X64954819Y-154317856D01*
X64954819Y-154317856D02*
X65097676Y-154413094D01*
X65097676Y-154413094D02*
X65192914Y-154508332D01*
X65192914Y-154508332D02*
X65240533Y-154603570D01*
X64954819Y-188984523D02*
X65669104Y-188984523D01*
X65669104Y-188984523D02*
X65811961Y-189032142D01*
X65811961Y-189032142D02*
X65907200Y-189127380D01*
X65907200Y-189127380D02*
X65954819Y-189270237D01*
X65954819Y-189270237D02*
X65954819Y-189365475D01*
X65954819Y-187984523D02*
X65954819Y-188555951D01*
X65954819Y-188270237D02*
X64954819Y-188270237D01*
X64954819Y-188270237D02*
X65097676Y-188365475D01*
X65097676Y-188365475D02*
X65192914Y-188460713D01*
X65192914Y-188460713D02*
X65240533Y-188555951D01*
X64954819Y-187651189D02*
X64954819Y-186984523D01*
X64954819Y-186984523D02*
X65954819Y-187413094D01*
X70115476Y-184704819D02*
X70115476Y-185419104D01*
X70115476Y-185419104D02*
X70067857Y-185561961D01*
X70067857Y-185561961D02*
X69972619Y-185657200D01*
X69972619Y-185657200D02*
X69829762Y-185704819D01*
X69829762Y-185704819D02*
X69734524Y-185704819D01*
X71115476Y-185704819D02*
X70544048Y-185704819D01*
X70829762Y-185704819D02*
X70829762Y-184704819D01*
X70829762Y-184704819D02*
X70734524Y-184847676D01*
X70734524Y-184847676D02*
X70639286Y-184942914D01*
X70639286Y-184942914D02*
X70544048Y-184990533D01*
X71686905Y-185133390D02*
X71591667Y-185085771D01*
X71591667Y-185085771D02*
X71544048Y-185038152D01*
X71544048Y-185038152D02*
X71496429Y-184942914D01*
X71496429Y-184942914D02*
X71496429Y-184895295D01*
X71496429Y-184895295D02*
X71544048Y-184800057D01*
X71544048Y-184800057D02*
X71591667Y-184752438D01*
X71591667Y-184752438D02*
X71686905Y-184704819D01*
X71686905Y-184704819D02*
X71877381Y-184704819D01*
X71877381Y-184704819D02*
X71972619Y-184752438D01*
X71972619Y-184752438D02*
X72020238Y-184800057D01*
X72020238Y-184800057D02*
X72067857Y-184895295D01*
X72067857Y-184895295D02*
X72067857Y-184942914D01*
X72067857Y-184942914D02*
X72020238Y-185038152D01*
X72020238Y-185038152D02*
X71972619Y-185085771D01*
X71972619Y-185085771D02*
X71877381Y-185133390D01*
X71877381Y-185133390D02*
X71686905Y-185133390D01*
X71686905Y-185133390D02*
X71591667Y-185181009D01*
X71591667Y-185181009D02*
X71544048Y-185228628D01*
X71544048Y-185228628D02*
X71496429Y-185323866D01*
X71496429Y-185323866D02*
X71496429Y-185514342D01*
X71496429Y-185514342D02*
X71544048Y-185609580D01*
X71544048Y-185609580D02*
X71591667Y-185657200D01*
X71591667Y-185657200D02*
X71686905Y-185704819D01*
X71686905Y-185704819D02*
X71877381Y-185704819D01*
X71877381Y-185704819D02*
X71972619Y-185657200D01*
X71972619Y-185657200D02*
X72020238Y-185609580D01*
X72020238Y-185609580D02*
X72067857Y-185514342D01*
X72067857Y-185514342D02*
X72067857Y-185323866D01*
X72067857Y-185323866D02*
X72020238Y-185228628D01*
X72020238Y-185228628D02*
X71972619Y-185181009D01*
X71972619Y-185181009D02*
X71877381Y-185133390D01*
X83954819Y-164134523D02*
X84669104Y-164134523D01*
X84669104Y-164134523D02*
X84811961Y-164182142D01*
X84811961Y-164182142D02*
X84907200Y-164277380D01*
X84907200Y-164277380D02*
X84954819Y-164420237D01*
X84954819Y-164420237D02*
X84954819Y-164515475D01*
X84954819Y-163134523D02*
X84954819Y-163705951D01*
X84954819Y-163420237D02*
X83954819Y-163420237D01*
X83954819Y-163420237D02*
X84097676Y-163515475D01*
X84097676Y-163515475D02*
X84192914Y-163610713D01*
X84192914Y-163610713D02*
X84240533Y-163705951D01*
X83954819Y-162801189D02*
X83954819Y-162182142D01*
X83954819Y-162182142D02*
X84335771Y-162515475D01*
X84335771Y-162515475D02*
X84335771Y-162372618D01*
X84335771Y-162372618D02*
X84383390Y-162277380D01*
X84383390Y-162277380D02*
X84431009Y-162229761D01*
X84431009Y-162229761D02*
X84526247Y-162182142D01*
X84526247Y-162182142D02*
X84764342Y-162182142D01*
X84764342Y-162182142D02*
X84859580Y-162229761D01*
X84859580Y-162229761D02*
X84907200Y-162277380D01*
X84907200Y-162277380D02*
X84954819Y-162372618D01*
X84954819Y-162372618D02*
X84954819Y-162658332D01*
X84954819Y-162658332D02*
X84907200Y-162753570D01*
X84907200Y-162753570D02*
X84859580Y-162801189D01*
X70115476Y-168204819D02*
X70115476Y-168919104D01*
X70115476Y-168919104D02*
X70067857Y-169061961D01*
X70067857Y-169061961D02*
X69972619Y-169157200D01*
X69972619Y-169157200D02*
X69829762Y-169204819D01*
X69829762Y-169204819D02*
X69734524Y-169204819D01*
X71115476Y-169204819D02*
X70544048Y-169204819D01*
X70829762Y-169204819D02*
X70829762Y-168204819D01*
X70829762Y-168204819D02*
X70734524Y-168347676D01*
X70734524Y-168347676D02*
X70639286Y-168442914D01*
X70639286Y-168442914D02*
X70544048Y-168490533D01*
X72020238Y-168204819D02*
X71544048Y-168204819D01*
X71544048Y-168204819D02*
X71496429Y-168681009D01*
X71496429Y-168681009D02*
X71544048Y-168633390D01*
X71544048Y-168633390D02*
X71639286Y-168585771D01*
X71639286Y-168585771D02*
X71877381Y-168585771D01*
X71877381Y-168585771D02*
X71972619Y-168633390D01*
X71972619Y-168633390D02*
X72020238Y-168681009D01*
X72020238Y-168681009D02*
X72067857Y-168776247D01*
X72067857Y-168776247D02*
X72067857Y-169014342D01*
X72067857Y-169014342D02*
X72020238Y-169109580D01*
X72020238Y-169109580D02*
X71972619Y-169157200D01*
X71972619Y-169157200D02*
X71877381Y-169204819D01*
X71877381Y-169204819D02*
X71639286Y-169204819D01*
X71639286Y-169204819D02*
X71544048Y-169157200D01*
X71544048Y-169157200D02*
X71496429Y-169109580D01*
X83954819Y-197134523D02*
X84669104Y-197134523D01*
X84669104Y-197134523D02*
X84811961Y-197182142D01*
X84811961Y-197182142D02*
X84907200Y-197277380D01*
X84907200Y-197277380D02*
X84954819Y-197420237D01*
X84954819Y-197420237D02*
X84954819Y-197515475D01*
X84954819Y-196134523D02*
X84954819Y-196705951D01*
X84954819Y-196420237D02*
X83954819Y-196420237D01*
X83954819Y-196420237D02*
X84097676Y-196515475D01*
X84097676Y-196515475D02*
X84192914Y-196610713D01*
X84192914Y-196610713D02*
X84240533Y-196705951D01*
X84954819Y-195658332D02*
X84954819Y-195467856D01*
X84954819Y-195467856D02*
X84907200Y-195372618D01*
X84907200Y-195372618D02*
X84859580Y-195324999D01*
X84859580Y-195324999D02*
X84716723Y-195229761D01*
X84716723Y-195229761D02*
X84526247Y-195182142D01*
X84526247Y-195182142D02*
X84145295Y-195182142D01*
X84145295Y-195182142D02*
X84050057Y-195229761D01*
X84050057Y-195229761D02*
X84002438Y-195277380D01*
X84002438Y-195277380D02*
X83954819Y-195372618D01*
X83954819Y-195372618D02*
X83954819Y-195563094D01*
X83954819Y-195563094D02*
X84002438Y-195658332D01*
X84002438Y-195658332D02*
X84050057Y-195705951D01*
X84050057Y-195705951D02*
X84145295Y-195753570D01*
X84145295Y-195753570D02*
X84383390Y-195753570D01*
X84383390Y-195753570D02*
X84478628Y-195705951D01*
X84478628Y-195705951D02*
X84526247Y-195658332D01*
X84526247Y-195658332D02*
X84573866Y-195563094D01*
X84573866Y-195563094D02*
X84573866Y-195372618D01*
X84573866Y-195372618D02*
X84526247Y-195277380D01*
X84526247Y-195277380D02*
X84478628Y-195229761D01*
X84478628Y-195229761D02*
X84383390Y-195182142D01*
X70115476Y-151704819D02*
X70115476Y-152419104D01*
X70115476Y-152419104D02*
X70067857Y-152561961D01*
X70067857Y-152561961D02*
X69972619Y-152657200D01*
X69972619Y-152657200D02*
X69829762Y-152704819D01*
X69829762Y-152704819D02*
X69734524Y-152704819D01*
X71115476Y-152704819D02*
X70544048Y-152704819D01*
X70829762Y-152704819D02*
X70829762Y-151704819D01*
X70829762Y-151704819D02*
X70734524Y-151847676D01*
X70734524Y-151847676D02*
X70639286Y-151942914D01*
X70639286Y-151942914D02*
X70544048Y-151990533D01*
X71496429Y-151800057D02*
X71544048Y-151752438D01*
X71544048Y-151752438D02*
X71639286Y-151704819D01*
X71639286Y-151704819D02*
X71877381Y-151704819D01*
X71877381Y-151704819D02*
X71972619Y-151752438D01*
X71972619Y-151752438D02*
X72020238Y-151800057D01*
X72020238Y-151800057D02*
X72067857Y-151895295D01*
X72067857Y-151895295D02*
X72067857Y-151990533D01*
X72067857Y-151990533D02*
X72020238Y-152133390D01*
X72020238Y-152133390D02*
X71448810Y-152704819D01*
X71448810Y-152704819D02*
X72067857Y-152704819D01*
X64954819Y-122508333D02*
X65669104Y-122508333D01*
X65669104Y-122508333D02*
X65811961Y-122555952D01*
X65811961Y-122555952D02*
X65907200Y-122651190D01*
X65907200Y-122651190D02*
X65954819Y-122794047D01*
X65954819Y-122794047D02*
X65954819Y-122889285D01*
X64954819Y-121555952D02*
X64954819Y-122032142D01*
X64954819Y-122032142D02*
X65431009Y-122079761D01*
X65431009Y-122079761D02*
X65383390Y-122032142D01*
X65383390Y-122032142D02*
X65335771Y-121936904D01*
X65335771Y-121936904D02*
X65335771Y-121698809D01*
X65335771Y-121698809D02*
X65383390Y-121603571D01*
X65383390Y-121603571D02*
X65431009Y-121555952D01*
X65431009Y-121555952D02*
X65526247Y-121508333D01*
X65526247Y-121508333D02*
X65764342Y-121508333D01*
X65764342Y-121508333D02*
X65859580Y-121555952D01*
X65859580Y-121555952D02*
X65907200Y-121603571D01*
X65907200Y-121603571D02*
X65954819Y-121698809D01*
X65954819Y-121698809D02*
X65954819Y-121936904D01*
X65954819Y-121936904D02*
X65907200Y-122032142D01*
X65907200Y-122032142D02*
X65859580Y-122079761D01*
X70115476Y-201204819D02*
X70115476Y-201919104D01*
X70115476Y-201919104D02*
X70067857Y-202061961D01*
X70067857Y-202061961D02*
X69972619Y-202157200D01*
X69972619Y-202157200D02*
X69829762Y-202204819D01*
X69829762Y-202204819D02*
X69734524Y-202204819D01*
X70544048Y-201300057D02*
X70591667Y-201252438D01*
X70591667Y-201252438D02*
X70686905Y-201204819D01*
X70686905Y-201204819D02*
X70925000Y-201204819D01*
X70925000Y-201204819D02*
X71020238Y-201252438D01*
X71020238Y-201252438D02*
X71067857Y-201300057D01*
X71067857Y-201300057D02*
X71115476Y-201395295D01*
X71115476Y-201395295D02*
X71115476Y-201490533D01*
X71115476Y-201490533D02*
X71067857Y-201633390D01*
X71067857Y-201633390D02*
X70496429Y-202204819D01*
X70496429Y-202204819D02*
X71115476Y-202204819D01*
X72067857Y-202204819D02*
X71496429Y-202204819D01*
X71782143Y-202204819D02*
X71782143Y-201204819D01*
X71782143Y-201204819D02*
X71686905Y-201347676D01*
X71686905Y-201347676D02*
X71591667Y-201442914D01*
X71591667Y-201442914D02*
X71496429Y-201490533D01*
X64954819Y-84508333D02*
X65669104Y-84508333D01*
X65669104Y-84508333D02*
X65811961Y-84555952D01*
X65811961Y-84555952D02*
X65907200Y-84651190D01*
X65907200Y-84651190D02*
X65954819Y-84794047D01*
X65954819Y-84794047D02*
X65954819Y-84889285D01*
X64954819Y-84127380D02*
X64954819Y-83508333D01*
X64954819Y-83508333D02*
X65335771Y-83841666D01*
X65335771Y-83841666D02*
X65335771Y-83698809D01*
X65335771Y-83698809D02*
X65383390Y-83603571D01*
X65383390Y-83603571D02*
X65431009Y-83555952D01*
X65431009Y-83555952D02*
X65526247Y-83508333D01*
X65526247Y-83508333D02*
X65764342Y-83508333D01*
X65764342Y-83508333D02*
X65859580Y-83555952D01*
X65859580Y-83555952D02*
X65907200Y-83603571D01*
X65907200Y-83603571D02*
X65954819Y-83698809D01*
X65954819Y-83698809D02*
X65954819Y-83984523D01*
X65954819Y-83984523D02*
X65907200Y-84079761D01*
X65907200Y-84079761D02*
X65859580Y-84127380D01*
X83954819Y-213634523D02*
X84669104Y-213634523D01*
X84669104Y-213634523D02*
X84811961Y-213682142D01*
X84811961Y-213682142D02*
X84907200Y-213777380D01*
X84907200Y-213777380D02*
X84954819Y-213920237D01*
X84954819Y-213920237D02*
X84954819Y-214015475D01*
X84050057Y-213205951D02*
X84002438Y-213158332D01*
X84002438Y-213158332D02*
X83954819Y-213063094D01*
X83954819Y-213063094D02*
X83954819Y-212824999D01*
X83954819Y-212824999D02*
X84002438Y-212729761D01*
X84002438Y-212729761D02*
X84050057Y-212682142D01*
X84050057Y-212682142D02*
X84145295Y-212634523D01*
X84145295Y-212634523D02*
X84240533Y-212634523D01*
X84240533Y-212634523D02*
X84383390Y-212682142D01*
X84383390Y-212682142D02*
X84954819Y-213253570D01*
X84954819Y-213253570D02*
X84954819Y-212634523D01*
X84050057Y-212253570D02*
X84002438Y-212205951D01*
X84002438Y-212205951D02*
X83954819Y-212110713D01*
X83954819Y-212110713D02*
X83954819Y-211872618D01*
X83954819Y-211872618D02*
X84002438Y-211777380D01*
X84002438Y-211777380D02*
X84050057Y-211729761D01*
X84050057Y-211729761D02*
X84145295Y-211682142D01*
X84145295Y-211682142D02*
X84240533Y-211682142D01*
X84240533Y-211682142D02*
X84383390Y-211729761D01*
X84383390Y-211729761D02*
X84954819Y-212301189D01*
X84954819Y-212301189D02*
X84954819Y-211682142D01*
X64954819Y-101508333D02*
X65669104Y-101508333D01*
X65669104Y-101508333D02*
X65811961Y-101555952D01*
X65811961Y-101555952D02*
X65907200Y-101651190D01*
X65907200Y-101651190D02*
X65954819Y-101794047D01*
X65954819Y-101794047D02*
X65954819Y-101889285D01*
X65288152Y-100603571D02*
X65954819Y-100603571D01*
X64907200Y-100841666D02*
X65621485Y-101079761D01*
X65621485Y-101079761D02*
X65621485Y-100460714D01*
X64954819Y-63258333D02*
X65669104Y-63258333D01*
X65669104Y-63258333D02*
X65811961Y-63305952D01*
X65811961Y-63305952D02*
X65907200Y-63401190D01*
X65907200Y-63401190D02*
X65954819Y-63544047D01*
X65954819Y-63544047D02*
X65954819Y-63639285D01*
X65050057Y-62829761D02*
X65002438Y-62782142D01*
X65002438Y-62782142D02*
X64954819Y-62686904D01*
X64954819Y-62686904D02*
X64954819Y-62448809D01*
X64954819Y-62448809D02*
X65002438Y-62353571D01*
X65002438Y-62353571D02*
X65050057Y-62305952D01*
X65050057Y-62305952D02*
X65145295Y-62258333D01*
X65145295Y-62258333D02*
X65240533Y-62258333D01*
X65240533Y-62258333D02*
X65383390Y-62305952D01*
X65383390Y-62305952D02*
X65954819Y-62877380D01*
X65954819Y-62877380D02*
X65954819Y-62258333D01*
X64954819Y-172484523D02*
X65669104Y-172484523D01*
X65669104Y-172484523D02*
X65811961Y-172532142D01*
X65811961Y-172532142D02*
X65907200Y-172627380D01*
X65907200Y-172627380D02*
X65954819Y-172770237D01*
X65954819Y-172770237D02*
X65954819Y-172865475D01*
X65954819Y-171484523D02*
X65954819Y-172055951D01*
X65954819Y-171770237D02*
X64954819Y-171770237D01*
X64954819Y-171770237D02*
X65097676Y-171865475D01*
X65097676Y-171865475D02*
X65192914Y-171960713D01*
X65192914Y-171960713D02*
X65240533Y-172055951D01*
X65288152Y-170627380D02*
X65954819Y-170627380D01*
X64907200Y-170865475D02*
X65621485Y-171103570D01*
X65621485Y-171103570D02*
X65621485Y-170484523D01*
X64954819Y-205484523D02*
X65669104Y-205484523D01*
X65669104Y-205484523D02*
X65811961Y-205532142D01*
X65811961Y-205532142D02*
X65907200Y-205627380D01*
X65907200Y-205627380D02*
X65954819Y-205770237D01*
X65954819Y-205770237D02*
X65954819Y-205865475D01*
X65050057Y-205055951D02*
X65002438Y-205008332D01*
X65002438Y-205008332D02*
X64954819Y-204913094D01*
X64954819Y-204913094D02*
X64954819Y-204674999D01*
X64954819Y-204674999D02*
X65002438Y-204579761D01*
X65002438Y-204579761D02*
X65050057Y-204532142D01*
X65050057Y-204532142D02*
X65145295Y-204484523D01*
X65145295Y-204484523D02*
X65240533Y-204484523D01*
X65240533Y-204484523D02*
X65383390Y-204532142D01*
X65383390Y-204532142D02*
X65954819Y-205103570D01*
X65954819Y-205103570D02*
X65954819Y-204484523D01*
X64954819Y-203865475D02*
X64954819Y-203770237D01*
X64954819Y-203770237D02*
X65002438Y-203674999D01*
X65002438Y-203674999D02*
X65050057Y-203627380D01*
X65050057Y-203627380D02*
X65145295Y-203579761D01*
X65145295Y-203579761D02*
X65335771Y-203532142D01*
X65335771Y-203532142D02*
X65573866Y-203532142D01*
X65573866Y-203532142D02*
X65764342Y-203579761D01*
X65764342Y-203579761D02*
X65859580Y-203627380D01*
X65859580Y-203627380D02*
X65907200Y-203674999D01*
X65907200Y-203674999D02*
X65954819Y-203770237D01*
X65954819Y-203770237D02*
X65954819Y-203865475D01*
X65954819Y-203865475D02*
X65907200Y-203960713D01*
X65907200Y-203960713D02*
X65859580Y-204008332D01*
X65859580Y-204008332D02*
X65764342Y-204055951D01*
X65764342Y-204055951D02*
X65573866Y-204103570D01*
X65573866Y-204103570D02*
X65335771Y-204103570D01*
X65335771Y-204103570D02*
X65145295Y-204055951D01*
X65145295Y-204055951D02*
X65050057Y-204008332D01*
X65050057Y-204008332D02*
X65002438Y-203960713D01*
X65002438Y-203960713D02*
X64954819Y-203865475D01*
%TO.C,J10*%
X87300000Y-142750000D02*
X87300000Y-140400000D01*
X87300000Y-142750000D02*
X87300000Y-145100000D01*
X95700000Y-142750000D02*
X95700000Y-140400000D01*
X95700000Y-142750000D02*
X95700000Y-145100000D01*
X87311121Y-140406222D02*
G75*
G02*
X91500000Y-137950000I4188881J-2343781D01*
G01*
X91500000Y-137950000D02*
G75*
G02*
X95688879Y-140406222I-2J-4800003D01*
G01*
X91500000Y-147550000D02*
G75*
G02*
X87311121Y-145093778I0J4800000D01*
G01*
X95688879Y-145093778D02*
G75*
G02*
X91500000Y-147550000I-4188879J2343778D01*
G01*
%TO.C,J9*%
X75000000Y-138550000D02*
X72650000Y-138550000D01*
X75000000Y-138550000D02*
X77350000Y-138550000D01*
X75000000Y-146950000D02*
X72650000Y-146950000D01*
X75000000Y-146950000D02*
X77350000Y-146950000D01*
X70200000Y-142750000D02*
G75*
G02*
X72656222Y-138561121I4800000J0D01*
G01*
X72656222Y-146938879D02*
G75*
G02*
X70200000Y-142750000I2343778J4188879D01*
G01*
X77343778Y-138561121D02*
G75*
G02*
X79800000Y-142750000I-2343781J-4188881D01*
G01*
X79800000Y-142750000D02*
G75*
G02*
X77343778Y-146938879I-4800003J2D01*
G01*
%TO.C,J6*%
X75000000Y-122050000D02*
X72650000Y-122050000D01*
X75000000Y-122050000D02*
X77350000Y-122050000D01*
X75000000Y-130450000D02*
X72650000Y-130450000D01*
X75000000Y-130450000D02*
X77350000Y-130450000D01*
X70200000Y-126250000D02*
G75*
G02*
X72656222Y-122061121I4800000J0D01*
G01*
X72656222Y-130438879D02*
G75*
G02*
X70200000Y-126250000I2343778J4188879D01*
G01*
X77343778Y-122061121D02*
G75*
G02*
X79800000Y-126250000I-2343781J-4188881D01*
G01*
X79800000Y-126250000D02*
G75*
G02*
X77343778Y-130438879I-4800003J2D01*
G01*
%TO.C,J16*%
X87300000Y-175750000D02*
X87300000Y-173400000D01*
X87300000Y-175750000D02*
X87300000Y-178100000D01*
X95700000Y-175750000D02*
X95700000Y-173400000D01*
X95700000Y-175750000D02*
X95700000Y-178100000D01*
X87311121Y-173406222D02*
G75*
G02*
X91500000Y-170950000I4188881J-2343781D01*
G01*
X91500000Y-170950000D02*
G75*
G02*
X95688879Y-173406222I-2J-4800003D01*
G01*
X91500000Y-180550000D02*
G75*
G02*
X87311121Y-178093778I0J4800000D01*
G01*
X95688879Y-178093778D02*
G75*
G02*
X91500000Y-180550000I-4188879J2343778D01*
G01*
D11*
%TO.C,J50*%
X67645000Y-69845000D02*
X68975000Y-69845000D01*
X67645000Y-71175000D02*
X67645000Y-69845000D01*
X67645000Y-72445000D02*
X67645000Y-85205000D01*
X67645000Y-72445000D02*
X70305000Y-72445000D01*
X67645000Y-85205000D02*
X70305000Y-85205000D01*
X70305000Y-72445000D02*
X70305000Y-85205000D01*
D10*
%TO.C,J1*%
X54300000Y-50000000D02*
X54300000Y-47650000D01*
X54300000Y-50000000D02*
X54300000Y-52350000D01*
X62700000Y-50000000D02*
X62700000Y-47650000D01*
X62700000Y-50000000D02*
X62700000Y-52350000D01*
X54311121Y-47656222D02*
G75*
G02*
X58500000Y-45200000I4188879J-2343778D01*
G01*
X58500000Y-45200000D02*
G75*
G02*
X62688879Y-47656222I0J-4800000D01*
G01*
X58500000Y-54800000D02*
G75*
G02*
X54311121Y-52343778I2J4800003D01*
G01*
X62688879Y-52343778D02*
G75*
G02*
X58500000Y-54800000I-4188881J2343781D01*
G01*
%TO.C,J8*%
X54300000Y-142750000D02*
X54300000Y-140400000D01*
X54300000Y-142750000D02*
X54300000Y-145100000D01*
X62700000Y-142750000D02*
X62700000Y-140400000D01*
X62700000Y-142750000D02*
X62700000Y-145100000D01*
X54311121Y-140406222D02*
G75*
G02*
X58500000Y-137950000I4188879J-2343778D01*
G01*
X58500000Y-137950000D02*
G75*
G02*
X62688879Y-140406222I0J-4800000D01*
G01*
X58500000Y-147550000D02*
G75*
G02*
X54311121Y-145093778I2J4800003D01*
G01*
X62688879Y-145093778D02*
G75*
G02*
X58500000Y-147550000I-4188881J2343781D01*
G01*
%TO.C,J7*%
X87300000Y-126250000D02*
X87300000Y-123900000D01*
X87300000Y-126250000D02*
X87300000Y-128600000D01*
X95700000Y-126250000D02*
X95700000Y-123900000D01*
X95700000Y-126250000D02*
X95700000Y-128600000D01*
X87311121Y-123906222D02*
G75*
G02*
X91500000Y-121450000I4188881J-2343781D01*
G01*
X91500000Y-121450000D02*
G75*
G02*
X95688879Y-123906222I-2J-4800003D01*
G01*
X91500000Y-131050000D02*
G75*
G02*
X87311121Y-128593778I0J4800000D01*
G01*
X95688879Y-128593778D02*
G75*
G02*
X91500000Y-131050000I-4188879J2343778D01*
G01*
D11*
%TO.C,J60*%
X75295000Y-114145000D02*
X75295000Y-116805000D01*
X88055000Y-114145000D02*
X75295000Y-114145000D01*
X88055000Y-114145000D02*
X88055000Y-116805000D01*
X88055000Y-116805000D02*
X75295000Y-116805000D01*
X89325000Y-114145000D02*
X90655000Y-114145000D01*
X90655000Y-114145000D02*
X90655000Y-115475000D01*
D10*
%TO.C,J11*%
X54300000Y-159250000D02*
X54300000Y-156900000D01*
X54300000Y-159250000D02*
X54300000Y-161600000D01*
X62700000Y-159250000D02*
X62700000Y-156900000D01*
X62700000Y-159250000D02*
X62700000Y-161600000D01*
X54311121Y-156906222D02*
G75*
G02*
X58500000Y-154450000I4188879J-2343778D01*
G01*
X58500000Y-154450000D02*
G75*
G02*
X62688879Y-156906222I0J-4800000D01*
G01*
X58500000Y-164050000D02*
G75*
G02*
X54311121Y-161593778I2J4800003D01*
G01*
X62688879Y-161593778D02*
G75*
G02*
X58500000Y-164050000I-4188881J2343781D01*
G01*
%TO.C,J17*%
X54300000Y-192250000D02*
X54300000Y-189900000D01*
X54300000Y-192250000D02*
X54300000Y-194600000D01*
X62700000Y-192250000D02*
X62700000Y-189900000D01*
X62700000Y-192250000D02*
X62700000Y-194600000D01*
X54311121Y-189906222D02*
G75*
G02*
X58500000Y-187450000I4188879J-2343778D01*
G01*
X58500000Y-187450000D02*
G75*
G02*
X62688879Y-189906222I0J-4800000D01*
G01*
X58500000Y-197050000D02*
G75*
G02*
X54311121Y-194593778I2J4800003D01*
G01*
X62688879Y-194593778D02*
G75*
G02*
X58500000Y-197050000I-4188881J2343781D01*
G01*
%TO.C,J18*%
X75000000Y-188050000D02*
X72650000Y-188050000D01*
X75000000Y-188050000D02*
X77350000Y-188050000D01*
X75000000Y-196450000D02*
X72650000Y-196450000D01*
X75000000Y-196450000D02*
X77350000Y-196450000D01*
X70200000Y-192250000D02*
G75*
G02*
X72656222Y-188061121I4800000J0D01*
G01*
X72656222Y-196438879D02*
G75*
G02*
X70200000Y-192250000I2343778J4188879D01*
G01*
X77343778Y-188061121D02*
G75*
G02*
X79800000Y-192250000I-2343781J-4188881D01*
G01*
X79800000Y-192250000D02*
G75*
G02*
X77343778Y-196438879I-4800003J2D01*
G01*
%TO.C,J13*%
X87300000Y-159250000D02*
X87300000Y-156900000D01*
X87300000Y-159250000D02*
X87300000Y-161600000D01*
X95700000Y-159250000D02*
X95700000Y-156900000D01*
X95700000Y-159250000D02*
X95700000Y-161600000D01*
X87311121Y-156906222D02*
G75*
G02*
X91500000Y-154450000I4188881J-2343781D01*
G01*
X91500000Y-154450000D02*
G75*
G02*
X95688879Y-156906222I-2J-4800003D01*
G01*
X91500000Y-164050000D02*
G75*
G02*
X87311121Y-161593778I0J4800000D01*
G01*
X95688879Y-161593778D02*
G75*
G02*
X91500000Y-164050000I-4188879J2343778D01*
G01*
%TO.C,J15*%
X75000000Y-171550000D02*
X72650000Y-171550000D01*
X75000000Y-171550000D02*
X77350000Y-171550000D01*
X75000000Y-179950000D02*
X72650000Y-179950000D01*
X75000000Y-179950000D02*
X77350000Y-179950000D01*
X70200000Y-175750000D02*
G75*
G02*
X72656222Y-171561121I4800000J0D01*
G01*
X72656222Y-179938879D02*
G75*
G02*
X70200000Y-175750000I2343778J4188879D01*
G01*
X77343778Y-171561121D02*
G75*
G02*
X79800000Y-175750000I-2343781J-4188881D01*
G01*
X79800000Y-175750000D02*
G75*
G02*
X77343778Y-179938879I-4800003J2D01*
G01*
%TO.C,J19*%
X87300000Y-192250000D02*
X87300000Y-189900000D01*
X87300000Y-192250000D02*
X87300000Y-194600000D01*
X95700000Y-192250000D02*
X95700000Y-189900000D01*
X95700000Y-192250000D02*
X95700000Y-194600000D01*
X87311121Y-189906222D02*
G75*
G02*
X91500000Y-187450000I4188881J-2343781D01*
G01*
X91500000Y-187450000D02*
G75*
G02*
X95688879Y-189906222I-2J-4800003D01*
G01*
X91500000Y-197050000D02*
G75*
G02*
X87311121Y-194593778I0J4800000D01*
G01*
X95688879Y-194593778D02*
G75*
G02*
X91500000Y-197050000I-4188879J2343778D01*
G01*
%TO.C,J12*%
X75000000Y-155050000D02*
X72650000Y-155050000D01*
X75000000Y-155050000D02*
X77350000Y-155050000D01*
X75000000Y-163450000D02*
X72650000Y-163450000D01*
X75000000Y-163450000D02*
X77350000Y-163450000D01*
X70200000Y-159250000D02*
G75*
G02*
X72656222Y-155061121I4800000J0D01*
G01*
X72656222Y-163438879D02*
G75*
G02*
X70200000Y-159250000I2343778J4188879D01*
G01*
X77343778Y-155061121D02*
G75*
G02*
X79800000Y-159250000I-2343781J-4188881D01*
G01*
X79800000Y-159250000D02*
G75*
G02*
X77343778Y-163438879I-4800003J2D01*
G01*
%TO.C,J5*%
X54300000Y-126250000D02*
X54300000Y-123900000D01*
X54300000Y-126250000D02*
X54300000Y-128600000D01*
X62700000Y-126250000D02*
X62700000Y-123900000D01*
X62700000Y-126250000D02*
X62700000Y-128600000D01*
X54311121Y-123906222D02*
G75*
G02*
X58500000Y-121450000I4188879J-2343778D01*
G01*
X58500000Y-121450000D02*
G75*
G02*
X62688879Y-123906222I0J-4800000D01*
G01*
X58500000Y-131050000D02*
G75*
G02*
X54311121Y-128593778I2J4800003D01*
G01*
X62688879Y-128593778D02*
G75*
G02*
X58500000Y-131050000I-4188881J2343781D01*
G01*
%TO.C,J21*%
X75000000Y-204550000D02*
X72650000Y-204550000D01*
X75000000Y-204550000D02*
X77350000Y-204550000D01*
X75000000Y-212950000D02*
X72650000Y-212950000D01*
X75000000Y-212950000D02*
X77350000Y-212950000D01*
X70200000Y-208750000D02*
G75*
G02*
X72656222Y-204561121I4800000J0D01*
G01*
X72656222Y-212938879D02*
G75*
G02*
X70200000Y-208750000I2343778J4188879D01*
G01*
X77343778Y-204561121D02*
G75*
G02*
X79800000Y-208750000I-2343781J-4188881D01*
G01*
X79800000Y-208750000D02*
G75*
G02*
X77343778Y-212938879I-4800003J2D01*
G01*
%TO.C,J3*%
X54300000Y-88250000D02*
X54300000Y-85900000D01*
X54300000Y-88250000D02*
X54300000Y-90600000D01*
X62700000Y-88250000D02*
X62700000Y-85900000D01*
X62700000Y-88250000D02*
X62700000Y-90600000D01*
X54311121Y-85906222D02*
G75*
G02*
X58500000Y-83450000I4188879J-2343778D01*
G01*
X58500000Y-83450000D02*
G75*
G02*
X62688879Y-85906222I0J-4800000D01*
G01*
X58500000Y-93050000D02*
G75*
G02*
X54311121Y-90593778I2J4800003D01*
G01*
X62688879Y-90593778D02*
G75*
G02*
X58500000Y-93050000I-4188881J2343781D01*
G01*
%TO.C,J22*%
X87300000Y-208750000D02*
X87300000Y-206400000D01*
X87300000Y-208750000D02*
X87300000Y-211100000D01*
X95700000Y-208750000D02*
X95700000Y-206400000D01*
X95700000Y-208750000D02*
X95700000Y-211100000D01*
X87311121Y-206406222D02*
G75*
G02*
X91500000Y-203950000I4188881J-2343781D01*
G01*
X91500000Y-203950000D02*
G75*
G02*
X95688879Y-206406222I-2J-4800003D01*
G01*
X91500000Y-213550000D02*
G75*
G02*
X87311121Y-211093778I0J4800000D01*
G01*
X95688879Y-211093778D02*
G75*
G02*
X91500000Y-213550000I-4188879J2343778D01*
G01*
%TO.C,J4*%
X54300000Y-105250000D02*
X54300000Y-102900000D01*
X54300000Y-105250000D02*
X54300000Y-107600000D01*
X62700000Y-105250000D02*
X62700000Y-102900000D01*
X62700000Y-105250000D02*
X62700000Y-107600000D01*
X54311121Y-102906222D02*
G75*
G02*
X58500000Y-100450000I4188879J-2343778D01*
G01*
X58500000Y-100450000D02*
G75*
G02*
X62688879Y-102906222I0J-4800000D01*
G01*
X58500000Y-110050000D02*
G75*
G02*
X54311121Y-107593778I2J4800003D01*
G01*
X62688879Y-107593778D02*
G75*
G02*
X58500000Y-110050000I-4188881J2343781D01*
G01*
%TO.C,J2*%
X54300000Y-67000000D02*
X54300000Y-64650000D01*
X54300000Y-67000000D02*
X54300000Y-69350000D01*
X62700000Y-67000000D02*
X62700000Y-64650000D01*
X62700000Y-67000000D02*
X62700000Y-69350000D01*
X54311121Y-64656222D02*
G75*
G02*
X58500000Y-62200000I4188879J-2343778D01*
G01*
X58500000Y-62200000D02*
G75*
G02*
X62688879Y-64656222I0J-4800000D01*
G01*
X58500000Y-71800000D02*
G75*
G02*
X54311121Y-69343778I2J4800003D01*
G01*
X62688879Y-69343778D02*
G75*
G02*
X58500000Y-71800000I-4188881J2343781D01*
G01*
%TO.C,J14*%
X54300000Y-175750000D02*
X54300000Y-173400000D01*
X54300000Y-175750000D02*
X54300000Y-178100000D01*
X62700000Y-175750000D02*
X62700000Y-173400000D01*
X62700000Y-175750000D02*
X62700000Y-178100000D01*
X54311121Y-173406222D02*
G75*
G02*
X58500000Y-170950000I4188879J-2343778D01*
G01*
X58500000Y-170950000D02*
G75*
G02*
X62688879Y-173406222I0J-4800000D01*
G01*
X58500000Y-180550000D02*
G75*
G02*
X54311121Y-178093778I2J4800003D01*
G01*
X62688879Y-178093778D02*
G75*
G02*
X58500000Y-180550000I-4188881J2343781D01*
G01*
%TO.C,J20*%
X54300000Y-208750000D02*
X54300000Y-206400000D01*
X54300000Y-208750000D02*
X54300000Y-211100000D01*
X62700000Y-208750000D02*
X62700000Y-206400000D01*
X62700000Y-208750000D02*
X62700000Y-211100000D01*
X54311121Y-206406222D02*
G75*
G02*
X58500000Y-203950000I4188879J-2343778D01*
G01*
X58500000Y-203950000D02*
G75*
G02*
X62688879Y-206406222I0J-4800000D01*
G01*
X58500000Y-213550000D02*
G75*
G02*
X54311121Y-211093778I2J4800003D01*
G01*
X62688879Y-211093778D02*
G75*
G02*
X58500000Y-213550000I-4188881J2343781D01*
G01*
%TD*%
%LPC*%
D12*
%TO.C,J10*%
X86903810Y-147346190D03*
D13*
X91000000Y-136250000D03*
D14*
X85000000Y-140250000D03*
%TD*%
D15*
%TO.C,J9*%
X70403810Y-138153810D03*
D14*
X81500000Y-142250000D03*
D13*
X77500000Y-136250000D03*
%TD*%
D15*
%TO.C,J6*%
X70403810Y-121653810D03*
D14*
X81500000Y-125750000D03*
D13*
X77500000Y-119750000D03*
%TD*%
D12*
%TO.C,J16*%
X86903810Y-180346190D03*
D13*
X91000000Y-169250000D03*
D14*
X85000000Y-173250000D03*
%TD*%
D16*
%TO.C,J50*%
X68975000Y-71175000D03*
D17*
X68975000Y-73715000D03*
X68975000Y-76255000D03*
X68975000Y-78795000D03*
X68975000Y-81335000D03*
X68975000Y-83875000D03*
%TD*%
D12*
%TO.C,J1*%
X63096190Y-45403810D03*
D13*
X59000000Y-56500000D03*
D14*
X65000000Y-52500000D03*
%TD*%
D12*
%TO.C,J8*%
X63096190Y-138153810D03*
D13*
X59000000Y-149250000D03*
D14*
X65000000Y-145250000D03*
%TD*%
D12*
%TO.C,J7*%
X86903810Y-130846190D03*
D13*
X91000000Y-119750000D03*
D14*
X85000000Y-123750000D03*
%TD*%
D16*
%TO.C,J60*%
X89325000Y-115475000D03*
D17*
X86785000Y-115475000D03*
X84245000Y-115475000D03*
X81705000Y-115475000D03*
X79165000Y-115475000D03*
X76625000Y-115475000D03*
%TD*%
D12*
%TO.C,J11*%
X63096190Y-154653810D03*
D13*
X59000000Y-165750000D03*
D14*
X65000000Y-161750000D03*
%TD*%
D12*
%TO.C,J17*%
X63096190Y-187653810D03*
D13*
X59000000Y-198750000D03*
D14*
X65000000Y-194750000D03*
%TD*%
D15*
%TO.C,J18*%
X70403810Y-187653810D03*
D14*
X81500000Y-191750000D03*
D13*
X77500000Y-185750000D03*
%TD*%
D12*
%TO.C,J13*%
X86903810Y-163846190D03*
D13*
X91000000Y-152750000D03*
D14*
X85000000Y-156750000D03*
%TD*%
D15*
%TO.C,J15*%
X70403810Y-171153810D03*
D14*
X81500000Y-175250000D03*
D13*
X77500000Y-169250000D03*
%TD*%
D12*
%TO.C,J19*%
X86903810Y-196846190D03*
D13*
X91000000Y-185750000D03*
D14*
X85000000Y-189750000D03*
%TD*%
D15*
%TO.C,J12*%
X70403810Y-154653810D03*
D14*
X81500000Y-158750000D03*
D13*
X77500000Y-152750000D03*
%TD*%
D12*
%TO.C,J5*%
X63096190Y-121653810D03*
D13*
X59000000Y-132750000D03*
D14*
X65000000Y-128750000D03*
%TD*%
D15*
%TO.C,J21*%
X70403810Y-204153810D03*
D14*
X81500000Y-208250000D03*
D13*
X77500000Y-202250000D03*
%TD*%
D12*
%TO.C,J3*%
X63096190Y-83653810D03*
D13*
X59000000Y-94750000D03*
D14*
X65000000Y-90750000D03*
%TD*%
D12*
%TO.C,J22*%
X86903810Y-213346190D03*
D13*
X91000000Y-202250000D03*
D14*
X85000000Y-206250000D03*
%TD*%
D12*
%TO.C,J4*%
X63096190Y-100653810D03*
D13*
X59000000Y-111750000D03*
D14*
X65000000Y-107750000D03*
%TD*%
D12*
%TO.C,J2*%
X63096190Y-62403810D03*
D13*
X59000000Y-73500000D03*
D14*
X65000000Y-69500000D03*
%TD*%
D12*
%TO.C,J14*%
X63096190Y-171153810D03*
D13*
X59000000Y-182250000D03*
D14*
X65000000Y-178250000D03*
%TD*%
D12*
%TO.C,J20*%
X63096190Y-204153810D03*
D13*
X59000000Y-215250000D03*
D14*
X65000000Y-211250000D03*
%TD*%
%LPD*%
M02*
