%TF.GenerationSoftware,KiCad,Pcbnew,9.0.0*%
%TF.CreationDate,2025-03-15T22:53:43+01:00*%
%TF.ProjectId,DMH_Multiverter_Mk2_PCB_Conn,444d485f-4d75-46c7-9469-766572746572,1*%
%TF.SameCoordinates,Original*%
%TF.FileFunction,Copper,L2,Bot*%
%TF.FilePolarity,Positive*%
%FSLAX46Y46*%
G04 Gerber Fmt 4.6, Leading zero omitted, Abs format (unit mm)*
G04 Created by KiCad (PCBNEW 9.0.0) date 2025-03-15 22:53:43*
%MOMM*%
%LPD*%
G01*
G04 APERTURE LIST*
G04 Aperture macros list*
%AMHorizOval*
0 Thick line with rounded ends*
0 $1 width*
0 $2 $3 position (X,Y) of the first rounded end (center of the circle)*
0 $4 $5 position (X,Y) of the second rounded end (center of the circle)*
0 Add line between two ends*
20,1,$1,$2,$3,$4,$5,0*
0 Add two circle primitives to create the rounded ends*
1,1,$1,$2,$3*
1,1,$1,$4,$5*%
G04 Aperture macros list end*
%TA.AperFunction,ComponentPad*%
%ADD10HorizOval,1.508000X-0.533159X-0.533159X0.533159X0.533159X0*%
%TD*%
%TA.AperFunction,ComponentPad*%
%ADD11O,1.508000X3.016000*%
%TD*%
%TA.AperFunction,ComponentPad*%
%ADD12O,3.016000X1.508000*%
%TD*%
%TA.AperFunction,ComponentPad*%
%ADD13HorizOval,1.508000X-0.533159X0.533159X0.533159X-0.533159X0*%
%TD*%
%TA.AperFunction,ComponentPad*%
%ADD14R,1.700000X1.700000*%
%TD*%
%TA.AperFunction,ComponentPad*%
%ADD15O,1.700000X1.700000*%
%TD*%
%TA.AperFunction,Conductor*%
%ADD16C,0.200000*%
%TD*%
G04 APERTURE END LIST*
D10*
%TO.P,J10,S*%
%TO.N,GND*%
X53903810Y-187653810D03*
D11*
%TO.P,J10,T*%
%TO.N,Net-(J10-PadT)*%
X65000000Y-191750000D03*
D12*
%TO.P,J10,TN*%
%TO.N,Net-(J10-PadTN)*%
X61000000Y-185750000D03*
%TD*%
D13*
%TO.P,J9,S*%
%TO.N,GND*%
X86903810Y-180346190D03*
D12*
%TO.P,J9,T*%
%TO.N,Net-(J10-PadTN)*%
X91000000Y-169250000D03*
D11*
%TO.P,J9,TN*%
%TO.N,unconnected-(J9-PadTN)*%
X85000000Y-173250000D03*
%TD*%
D10*
%TO.P,J6,S*%
%TO.N,GND*%
X53903810Y-138903810D03*
D11*
%TO.P,J6,T*%
%TO.N,/Inputs and Outputs/Att C Output Jack*%
X65000000Y-143000000D03*
D12*
%TO.P,J6,TN*%
%TO.N,Net-(J60-Pin_6)*%
X61000000Y-137000000D03*
%TD*%
D14*
%TO.P,J50,1,Pin_1*%
%TO.N,/Inputs and Outputs/Att A Input Jack*%
X69000000Y-92000000D03*
D15*
%TO.P,J50,2,Pin_2*%
%TO.N,/Inputs and Outputs/Att A Output Jack*%
X69000000Y-94540000D03*
%TO.P,J50,3,Pin_3*%
%TO.N,/Inputs and Outputs/Att B Input Jack*%
X69000000Y-97080000D03*
%TO.P,J50,4,Pin_4*%
%TO.N,/Inputs and Outputs/Att B Output Jack*%
X69000000Y-99620000D03*
%TO.P,J50,5,Pin_5*%
%TO.N,/Inputs and Outputs/Att C Input Jack*%
X69000000Y-102160000D03*
%TO.P,J50,6,Pin_6*%
%TO.N,/Inputs and Outputs/Att C Output Jack*%
X69000000Y-104700000D03*
%TO.P,J50,7,Pin_7*%
%TO.N,GND*%
X69000000Y-107240000D03*
%TO.P,J50,8,Pin_8*%
X69000000Y-109780000D03*
%TD*%
D13*
%TO.P,J1,S*%
%TO.N,GND*%
X63096190Y-45403810D03*
D12*
%TO.P,J1,T*%
%TO.N,/Inputs and Outputs/Att A Input Jack*%
X59000000Y-56500000D03*
D11*
%TO.P,J1,TN*%
%TO.N,Net-(J60-Pin_1)*%
X65000000Y-52500000D03*
%TD*%
D10*
%TO.P,J8,S*%
%TO.N,GND*%
X70403810Y-171153810D03*
D11*
%TO.P,J8,T*%
%TO.N,Net-(J10-PadTN)*%
X81500000Y-175250000D03*
D12*
%TO.P,J8,TN*%
%TO.N,unconnected-(J8-PadTN)*%
X77500000Y-169250000D03*
%TD*%
D10*
%TO.P,J7,S*%
%TO.N,GND*%
X53903810Y-171153810D03*
D11*
%TO.P,J7,T*%
%TO.N,Net-(J10-PadTN)*%
X65000000Y-175250000D03*
D12*
%TO.P,J7,TN*%
%TO.N,unconnected-(J7-PadTN)*%
X61000000Y-169250000D03*
%TD*%
D14*
%TO.P,J60,1,Pin_1*%
%TO.N,Net-(J60-Pin_1)*%
X92375000Y-164975000D03*
D15*
%TO.P,J60,2,Pin_2*%
%TO.N,Net-(J60-Pin_2)*%
X89835000Y-164975000D03*
%TO.P,J60,3,Pin_3*%
%TO.N,Net-(J60-Pin_3)*%
X87295000Y-164975000D03*
%TO.P,J60,4,Pin_4*%
%TO.N,Net-(J60-Pin_4)*%
X84755000Y-164975000D03*
%TO.P,J60,5,Pin_5*%
%TO.N,Net-(J60-Pin_5)*%
X82215000Y-164975000D03*
%TO.P,J60,6,Pin_6*%
%TO.N,Net-(J60-Pin_6)*%
X79675000Y-164975000D03*
%TO.P,J60,7,Pin_7*%
%TO.N,GND*%
X77135000Y-164975000D03*
%TO.P,J60,8,Pin_8*%
X74595000Y-164975000D03*
%TD*%
D10*
%TO.P,J11,S*%
%TO.N,GND*%
X70403810Y-187653810D03*
D11*
%TO.P,J11,T*%
%TO.N,Net-(J10-PadT)*%
X81500000Y-191750000D03*
D12*
%TO.P,J11,TN*%
%TO.N,unconnected-(J11-PadTN)*%
X77500000Y-185750000D03*
%TD*%
D10*
%TO.P,J13,S*%
%TO.N,GND*%
X53903810Y-204153810D03*
D11*
%TO.P,J13,T*%
%TO.N,Net-(J13-PadT)*%
X65000000Y-208250000D03*
D12*
%TO.P,J13,TN*%
%TO.N,Net-(J10-PadT)*%
X61000000Y-202250000D03*
%TD*%
D13*
%TO.P,J15,S*%
%TO.N,GND*%
X86903810Y-213346190D03*
D12*
%TO.P,J15,T*%
%TO.N,Net-(J13-PadT)*%
X91000000Y-202250000D03*
D11*
%TO.P,J15,TN*%
%TO.N,unconnected-(J15-PadTN)*%
X85000000Y-206250000D03*
%TD*%
D13*
%TO.P,J12,S*%
%TO.N,GND*%
X86903810Y-196846190D03*
D12*
%TO.P,J12,T*%
%TO.N,Net-(J10-PadT)*%
X91000000Y-185750000D03*
D11*
%TO.P,J12,TN*%
%TO.N,unconnected-(J12-PadTN)*%
X85000000Y-189750000D03*
%TD*%
D10*
%TO.P,J5,S*%
%TO.N,GND*%
X53903810Y-121903810D03*
D11*
%TO.P,J5,T*%
%TO.N,/Inputs and Outputs/Att C Input Jack*%
X65000000Y-126000000D03*
D12*
%TO.P,J5,TN*%
%TO.N,Net-(J60-Pin_5)*%
X61000000Y-120000000D03*
%TD*%
D10*
%TO.P,J3,S*%
%TO.N,GND*%
X53903810Y-83653810D03*
D11*
%TO.P,J3,T*%
%TO.N,/Inputs and Outputs/Att B Input Jack*%
X65000000Y-87750000D03*
D12*
%TO.P,J3,TN*%
%TO.N,Net-(J60-Pin_3)*%
X61000000Y-81750000D03*
%TD*%
D10*
%TO.P,J4,S*%
%TO.N,GND*%
X53903810Y-100653810D03*
D11*
%TO.P,J4,T*%
%TO.N,/Inputs and Outputs/Att B Output Jack*%
X65000000Y-104750000D03*
D12*
%TO.P,J4,TN*%
%TO.N,Net-(J60-Pin_4)*%
X61000000Y-98750000D03*
%TD*%
D10*
%TO.P,J2,S*%
%TO.N,GND*%
X53903810Y-62403810D03*
D11*
%TO.P,J2,T*%
%TO.N,/Inputs and Outputs/Att A Output Jack*%
X65000000Y-66500000D03*
D12*
%TO.P,J2,TN*%
%TO.N,Net-(J60-Pin_2)*%
X61000000Y-60500000D03*
%TD*%
D10*
%TO.P,J14,S*%
%TO.N,GND*%
X70403810Y-204153810D03*
D11*
%TO.P,J14,T*%
%TO.N,Net-(J13-PadT)*%
X81500000Y-208250000D03*
D12*
%TO.P,J14,TN*%
%TO.N,unconnected-(J14-PadTN)*%
X77500000Y-202250000D03*
%TD*%
D16*
%TO.N,Net-(J60-Pin_1)*%
X57227376Y-52500000D02*
X65000000Y-52500000D01*
X68767800Y-168902000D02*
X57988000Y-158122200D01*
X57988000Y-61238000D02*
X55000000Y-58250000D01*
X74239058Y-168902000D02*
X68767800Y-168902000D01*
X91224000Y-166126000D02*
X87771760Y-166126000D01*
X55000000Y-58250000D02*
X55000000Y-54727376D01*
X83191760Y-170706000D02*
X76043057Y-170706000D01*
X65000000Y-53254000D02*
X65000000Y-52500000D01*
X92375000Y-164975000D02*
X91224000Y-166126000D01*
X87771760Y-166126000D02*
X83191760Y-170706000D01*
X76043057Y-170706000D02*
X74239058Y-168902000D01*
X57988000Y-158122200D02*
X57988000Y-61238000D01*
X55000000Y-54727376D02*
X57227376Y-52500000D01*
%TO.N,Net-(J60-Pin_2)*%
X70751058Y-163601000D02*
X70399000Y-163248942D01*
X89835000Y-164975000D02*
X88461000Y-163601000D01*
X70399000Y-163248942D02*
X70399000Y-83746367D01*
X88461000Y-163601000D02*
X70751058Y-163601000D01*
X61000000Y-74347367D02*
X61000000Y-60500000D01*
X70399000Y-83746367D02*
X61000000Y-74347367D01*
%TO.N,Net-(J60-Pin_4)*%
X58790000Y-100960000D02*
X61000000Y-98750000D01*
X58790000Y-157790000D02*
X58790000Y-100960000D01*
X84755000Y-164975000D02*
X81630000Y-168100000D01*
X81630000Y-168100000D02*
X69100000Y-168100000D01*
X69100000Y-168100000D02*
X58790000Y-157790000D01*
%TO.N,Net-(J60-Pin_6)*%
X59592000Y-138908000D02*
X59592000Y-157457800D01*
X61000000Y-137500000D02*
X59592000Y-138908000D01*
X77352000Y-167298000D02*
X79675000Y-164975000D01*
X59592000Y-157457800D02*
X69432200Y-167298000D01*
X61000000Y-137000000D02*
X61000000Y-137500000D01*
X69432200Y-167298000D02*
X77352000Y-167298000D01*
%TO.N,Net-(J10-PadT)*%
X81500000Y-191750000D02*
X81500000Y-190500000D01*
X81500000Y-191750000D02*
X65000000Y-191750000D01*
X86250000Y-185750000D02*
X91000000Y-185750000D01*
X81500000Y-190500000D02*
X86250000Y-185750000D01*
X61000000Y-202250000D02*
X61000000Y-195750000D01*
X61000000Y-195750000D02*
X65000000Y-191750000D01*
%TO.N,Net-(J10-PadTN)*%
X61000000Y-179250000D02*
X65000000Y-175250000D01*
X81500000Y-175250000D02*
X81500000Y-173974935D01*
X86224935Y-169250000D02*
X91000000Y-169250000D01*
X81500000Y-173974935D02*
X86224935Y-169250000D01*
X61000000Y-185750000D02*
X61000000Y-179250000D01*
X81500000Y-175250000D02*
X65000000Y-175250000D01*
%TO.N,Net-(J13-PadT)*%
X86250000Y-202250000D02*
X91000000Y-202250000D01*
X65000000Y-208250000D02*
X81500000Y-208250000D01*
X81500000Y-207000000D02*
X86250000Y-202250000D01*
X81500000Y-208250000D02*
X81500000Y-207000000D01*
%TO.N,Net-(J60-Pin_3)*%
X68933900Y-168501000D02*
X58389000Y-157956100D01*
X74405157Y-168501000D02*
X68933900Y-168501000D01*
X58389000Y-157956100D02*
X58389000Y-84361000D01*
X58389000Y-84361000D02*
X61000000Y-81750000D01*
X81965000Y-170305000D02*
X76209157Y-170305000D01*
X87295000Y-164975000D02*
X81965000Y-170305000D01*
X76209157Y-170305000D02*
X74405157Y-168501000D01*
%TO.N,Net-(J60-Pin_5)*%
X82215000Y-164975000D02*
X79491000Y-167699000D01*
X59191000Y-157623900D02*
X59191000Y-121809000D01*
X59191000Y-121809000D02*
X61000000Y-120000000D01*
X79491000Y-167699000D02*
X69266100Y-167699000D01*
X69266100Y-167699000D02*
X59191000Y-157623900D01*
%TD*%
%TA.AperFunction,Conductor*%
%TO.N,GND*%
G36*
X66442539Y-43020185D02*
G01*
X66488294Y-43072989D01*
X66499500Y-43124500D01*
X66499500Y-51618565D01*
X66479815Y-51685604D01*
X66427011Y-51731359D01*
X66357853Y-51741303D01*
X66294297Y-51712278D01*
X66256523Y-51653500D01*
X66253027Y-51637963D01*
X66223610Y-51452236D01*
X66203270Y-51389637D01*
X66162591Y-51264439D01*
X66072944Y-51088499D01*
X66065486Y-51078234D01*
X65956884Y-50928753D01*
X65817246Y-50789115D01*
X65657504Y-50673058D01*
X65657503Y-50673057D01*
X65657501Y-50673056D01*
X65481561Y-50583409D01*
X65481558Y-50583408D01*
X65293763Y-50522389D01*
X65098736Y-50491500D01*
X65098731Y-50491500D01*
X64901269Y-50491500D01*
X64901264Y-50491500D01*
X64706236Y-50522389D01*
X64518441Y-50583408D01*
X64342495Y-50673058D01*
X64182753Y-50789115D01*
X64043115Y-50928753D01*
X63927058Y-51088495D01*
X63837408Y-51264441D01*
X63776389Y-51452236D01*
X63745500Y-51647263D01*
X63745500Y-51775500D01*
X63725815Y-51842539D01*
X63673011Y-51888294D01*
X63621500Y-51899500D01*
X57148316Y-51899500D01*
X57107395Y-51910464D01*
X57107395Y-51910465D01*
X57070127Y-51920451D01*
X56995590Y-51940423D01*
X56995585Y-51940426D01*
X56858666Y-52019475D01*
X56858658Y-52019481D01*
X54519479Y-54358660D01*
X54495970Y-54399379D01*
X54486034Y-54416591D01*
X54440423Y-54495591D01*
X54399499Y-54648319D01*
X54399499Y-54648321D01*
X54399499Y-54816422D01*
X54399500Y-54816435D01*
X54399500Y-58163330D01*
X54399499Y-58163348D01*
X54399499Y-58329054D01*
X54399498Y-58329054D01*
X54440423Y-58481785D01*
X54469358Y-58531900D01*
X54469359Y-58531904D01*
X54469360Y-58531904D01*
X54519479Y-58618714D01*
X54519481Y-58618717D01*
X54638349Y-58737585D01*
X54638355Y-58737590D01*
X57351181Y-61450416D01*
X57384666Y-61511739D01*
X57387500Y-61538097D01*
X57387500Y-158035530D01*
X57387499Y-158035548D01*
X57387499Y-158201254D01*
X57387498Y-158201254D01*
X57428424Y-158353989D01*
X57428425Y-158353990D01*
X57449504Y-158390499D01*
X57449505Y-158390500D01*
X57507477Y-158490912D01*
X57507481Y-158490917D01*
X57626349Y-158609785D01*
X57626355Y-158609790D01*
X68282939Y-169266374D01*
X68282949Y-169266385D01*
X68287279Y-169270715D01*
X68287280Y-169270716D01*
X68399084Y-169382520D01*
X68399086Y-169382521D01*
X68399090Y-169382524D01*
X68536009Y-169461573D01*
X68536016Y-169461577D01*
X68647819Y-169491534D01*
X68688742Y-169502500D01*
X68688743Y-169502500D01*
X69982335Y-169502500D01*
X70049374Y-169522185D01*
X70095129Y-169574989D01*
X70105073Y-169644147D01*
X70076048Y-169707703D01*
X70070016Y-169714182D01*
X69693874Y-170090321D01*
X70227033Y-170623480D01*
X69873480Y-170977033D01*
X69340321Y-170443874D01*
X69340320Y-170443874D01*
X68914156Y-170870039D01*
X68914155Y-170870041D01*
X68798133Y-171029729D01*
X68708522Y-171205599D01*
X68708521Y-171205602D01*
X68647529Y-171393321D01*
X68616651Y-171588277D01*
X68616651Y-171785660D01*
X68647529Y-171980616D01*
X68708521Y-172168335D01*
X68708522Y-172168338D01*
X68798134Y-172344210D01*
X68824106Y-172379958D01*
X68824107Y-172379958D01*
X69390517Y-171813547D01*
X69407555Y-171877132D01*
X69473381Y-171991147D01*
X69566473Y-172084239D01*
X69680488Y-172150065D01*
X69744069Y-172167101D01*
X69177660Y-172733510D01*
X69177660Y-172733511D01*
X69213415Y-172759488D01*
X69389281Y-172849097D01*
X69389284Y-172849098D01*
X69577003Y-172910090D01*
X69771960Y-172940969D01*
X69969342Y-172940969D01*
X70164298Y-172910090D01*
X70352017Y-172849098D01*
X70352020Y-172849097D01*
X70527890Y-172759486D01*
X70687578Y-172643464D01*
X70687579Y-172643464D01*
X71113745Y-172217298D01*
X71113745Y-172217297D01*
X70580586Y-171684139D01*
X70934139Y-171330586D01*
X71467297Y-171863745D01*
X71893463Y-171437579D01*
X71893463Y-171437578D01*
X72009485Y-171277889D01*
X72009489Y-171277883D01*
X72099097Y-171102021D01*
X72099099Y-171102015D01*
X72160090Y-170914300D01*
X72190969Y-170719343D01*
X72190969Y-170521959D01*
X72160090Y-170327003D01*
X72099098Y-170139284D01*
X72099097Y-170139281D01*
X72009489Y-169963419D01*
X72009481Y-169963406D01*
X71983511Y-169927661D01*
X71983510Y-169927660D01*
X71417102Y-170494068D01*
X71400066Y-170430488D01*
X71334240Y-170316472D01*
X71241148Y-170223380D01*
X71127132Y-170157554D01*
X71063549Y-170140517D01*
X71665248Y-169538819D01*
X71726571Y-169505334D01*
X71752929Y-169502500D01*
X73938961Y-169502500D01*
X74006000Y-169522185D01*
X74026641Y-169538818D01*
X75674341Y-171186520D01*
X75674343Y-171186521D01*
X75674347Y-171186524D01*
X75707392Y-171205602D01*
X75811273Y-171265577D01*
X75964000Y-171306501D01*
X75964002Y-171306501D01*
X76129711Y-171306501D01*
X76129727Y-171306500D01*
X83019837Y-171306500D01*
X83086876Y-171326185D01*
X83132631Y-171378989D01*
X83142575Y-171448147D01*
X83113550Y-171511703D01*
X83107518Y-171518181D01*
X81409476Y-173216222D01*
X81348153Y-173249707D01*
X81341194Y-173251014D01*
X81206233Y-173272390D01*
X81206232Y-173272390D01*
X81018441Y-173333408D01*
X80842495Y-173423058D01*
X80682753Y-173539115D01*
X80543115Y-173678753D01*
X80427058Y-173838495D01*
X80337408Y-174014441D01*
X80276389Y-174202236D01*
X80245500Y-174397263D01*
X80245500Y-174525500D01*
X80225815Y-174592539D01*
X80173011Y-174638294D01*
X80121500Y-174649500D01*
X66378500Y-174649500D01*
X66311461Y-174629815D01*
X66265706Y-174577011D01*
X66254500Y-174525500D01*
X66254500Y-174397263D01*
X66223610Y-174202236D01*
X66191280Y-174102736D01*
X66162591Y-174014439D01*
X66072944Y-173838499D01*
X66039369Y-173792286D01*
X65956884Y-173678753D01*
X65817246Y-173539115D01*
X65657504Y-173423058D01*
X65657503Y-173423057D01*
X65657501Y-173423056D01*
X65481561Y-173333409D01*
X65481558Y-173333408D01*
X65293763Y-173272389D01*
X65098736Y-173241500D01*
X65098731Y-173241500D01*
X64901269Y-173241500D01*
X64901264Y-173241500D01*
X64706236Y-173272389D01*
X64518441Y-173333408D01*
X64342495Y-173423058D01*
X64182753Y-173539115D01*
X64043115Y-173678753D01*
X63927058Y-173838495D01*
X63837408Y-174014441D01*
X63776389Y-174202236D01*
X63745500Y-174397263D01*
X63745500Y-175603902D01*
X63725815Y-175670941D01*
X63709181Y-175691583D01*
X60519481Y-178881282D01*
X60519479Y-178881285D01*
X60469361Y-178968094D01*
X60469359Y-178968096D01*
X60440425Y-179018209D01*
X60440424Y-179018210D01*
X60440423Y-179018215D01*
X60399499Y-179170943D01*
X60399499Y-179170945D01*
X60399499Y-179339046D01*
X60399500Y-179339059D01*
X60399500Y-184371500D01*
X60379815Y-184438539D01*
X60327011Y-184484294D01*
X60275500Y-184495500D01*
X60147264Y-184495500D01*
X59952236Y-184526389D01*
X59764441Y-184587408D01*
X59588495Y-184677058D01*
X59428753Y-184793115D01*
X59289115Y-184932753D01*
X59173058Y-185092495D01*
X59083408Y-185268441D01*
X59022389Y-185456236D01*
X58991500Y-185651263D01*
X58991500Y-185848736D01*
X59022389Y-186043763D01*
X59061507Y-186164153D01*
X59083409Y-186231561D01*
X59173056Y-186407501D01*
X59173058Y-186407504D01*
X59289115Y-186567246D01*
X59428753Y-186706884D01*
X59578234Y-186815486D01*
X59588499Y-186822944D01*
X59764439Y-186912591D01*
X59860719Y-186943874D01*
X59952236Y-186973610D01*
X60147264Y-187004500D01*
X60147269Y-187004500D01*
X61852736Y-187004500D01*
X62047763Y-186973610D01*
X62235561Y-186912591D01*
X62411501Y-186822944D01*
X62501192Y-186757779D01*
X62571246Y-186706884D01*
X62571248Y-186706881D01*
X62571252Y-186706879D01*
X62710879Y-186567252D01*
X62826944Y-186407501D01*
X62916591Y-186231561D01*
X62977610Y-186043763D01*
X62991111Y-185958520D01*
X63008500Y-185848736D01*
X63008500Y-185651263D01*
X75491500Y-185651263D01*
X75491500Y-185848736D01*
X75522389Y-186043763D01*
X75561507Y-186164153D01*
X75583409Y-186231561D01*
X75673056Y-186407501D01*
X75673058Y-186407504D01*
X75789115Y-186567246D01*
X75928753Y-186706884D01*
X76078234Y-186815486D01*
X76088499Y-186822944D01*
X76264439Y-186912591D01*
X76360719Y-186943874D01*
X76452236Y-186973610D01*
X76647264Y-187004500D01*
X76647269Y-187004500D01*
X78352736Y-187004500D01*
X78547763Y-186973610D01*
X78735561Y-186912591D01*
X78911501Y-186822944D01*
X79001192Y-186757779D01*
X79071246Y-186706884D01*
X79071248Y-186706881D01*
X79071252Y-186706879D01*
X79210879Y-186567252D01*
X79210881Y-186567248D01*
X79210884Y-186567246D01*
X79284389Y-186466073D01*
X79326944Y-186407501D01*
X79416591Y-186231561D01*
X79477610Y-186043763D01*
X79491111Y-185958520D01*
X79508500Y-185848736D01*
X79508500Y-185651263D01*
X79477610Y-185456236D01*
X79453256Y-185381284D01*
X79416591Y-185268439D01*
X79326944Y-185092499D01*
X79319486Y-185082234D01*
X79210884Y-184932753D01*
X79071246Y-184793115D01*
X78911504Y-184677058D01*
X78911503Y-184677057D01*
X78911501Y-184677056D01*
X78735561Y-184587409D01*
X78735558Y-184587408D01*
X78547763Y-184526389D01*
X78352736Y-184495500D01*
X78352731Y-184495500D01*
X76647269Y-184495500D01*
X76647264Y-184495500D01*
X76452236Y-184526389D01*
X76264441Y-184587408D01*
X76088495Y-184677058D01*
X75928753Y-184793115D01*
X75789115Y-184932753D01*
X75673058Y-185092495D01*
X75583408Y-185268441D01*
X75522389Y-185456236D01*
X75491500Y-185651263D01*
X63008500Y-185651263D01*
X62977610Y-185456236D01*
X62953256Y-185381284D01*
X62916591Y-185268439D01*
X62826944Y-185092499D01*
X62819486Y-185082234D01*
X62710884Y-184932753D01*
X62571246Y-184793115D01*
X62411504Y-184677058D01*
X62411503Y-184677057D01*
X62411501Y-184677056D01*
X62235561Y-184587409D01*
X62235558Y-184587408D01*
X62047763Y-184526389D01*
X61852736Y-184495500D01*
X61852731Y-184495500D01*
X61724500Y-184495500D01*
X61657461Y-184475815D01*
X61611706Y-184423011D01*
X61600500Y-184371500D01*
X61600500Y-179714339D01*
X85116651Y-179714339D01*
X85116651Y-179911722D01*
X85147529Y-180106678D01*
X85208521Y-180294397D01*
X85208522Y-180294400D01*
X85298133Y-180470270D01*
X85414155Y-180629958D01*
X85414155Y-180629959D01*
X85840321Y-181056125D01*
X86373479Y-180522966D01*
X86727032Y-180876519D01*
X86193874Y-181409678D01*
X86620039Y-181835842D01*
X86620041Y-181835843D01*
X86779730Y-181951865D01*
X86779736Y-181951869D01*
X86955598Y-182041477D01*
X86955604Y-182041479D01*
X87143320Y-182102470D01*
X87143319Y-182102470D01*
X87338277Y-182133349D01*
X87535660Y-182133349D01*
X87730616Y-182102470D01*
X87918335Y-182041478D01*
X87918338Y-182041477D01*
X88094210Y-181951865D01*
X88129957Y-181925892D01*
X88129957Y-181925890D01*
X87563549Y-181359482D01*
X87627132Y-181342446D01*
X87741148Y-181276620D01*
X87834240Y-181183528D01*
X87900066Y-181069512D01*
X87917102Y-181005929D01*
X88483510Y-181572337D01*
X88483512Y-181572337D01*
X88509485Y-181536590D01*
X88599097Y-181360718D01*
X88599098Y-181360715D01*
X88660090Y-181172996D01*
X88690969Y-180978040D01*
X88690969Y-180780656D01*
X88660090Y-180585699D01*
X88599099Y-180397984D01*
X88599097Y-180397978D01*
X88509489Y-180222116D01*
X88509485Y-180222110D01*
X88393463Y-180062421D01*
X88393462Y-180062419D01*
X87967299Y-179636254D01*
X87967298Y-179636254D01*
X87434138Y-180169412D01*
X87080585Y-179815859D01*
X87613745Y-179282701D01*
X87187579Y-178856535D01*
X87027890Y-178740513D01*
X86852020Y-178650902D01*
X86852017Y-178650901D01*
X86664298Y-178589909D01*
X86469342Y-178559031D01*
X86271960Y-178559031D01*
X86077003Y-178589909D01*
X85889284Y-178650901D01*
X85889281Y-178650902D01*
X85713409Y-178740514D01*
X85677660Y-178766486D01*
X85677660Y-178766487D01*
X86244071Y-179332898D01*
X86180488Y-179349935D01*
X86066473Y-179415761D01*
X85973381Y-179508853D01*
X85907555Y-179622868D01*
X85890518Y-179686451D01*
X85324107Y-179120040D01*
X85324106Y-179120040D01*
X85298134Y-179155789D01*
X85208522Y-179331661D01*
X85208521Y-179331664D01*
X85147529Y-179519383D01*
X85116651Y-179714339D01*
X61600500Y-179714339D01*
X61600500Y-179550097D01*
X61620185Y-179483058D01*
X61636819Y-179462416D01*
X62373170Y-178726065D01*
X62540204Y-178559031D01*
X64082151Y-177017083D01*
X64143472Y-176983600D01*
X64213164Y-176988584D01*
X64242715Y-177004448D01*
X64331531Y-177068975D01*
X64342499Y-177076944D01*
X64518439Y-177166591D01*
X64643637Y-177207270D01*
X64706236Y-177227610D01*
X64901264Y-177258500D01*
X64901269Y-177258500D01*
X65098736Y-177258500D01*
X65293763Y-177227610D01*
X65481561Y-177166591D01*
X65657501Y-177076944D01*
X65785979Y-176983600D01*
X65817246Y-176960884D01*
X65817248Y-176960881D01*
X65817252Y-176960879D01*
X65956879Y-176821252D01*
X65956881Y-176821248D01*
X65956884Y-176821246D01*
X66007779Y-176751192D01*
X66072944Y-176661501D01*
X66162591Y-176485561D01*
X66223610Y-176297763D01*
X66254500Y-176102736D01*
X66254500Y-175974500D01*
X66274185Y-175907461D01*
X66326989Y-175861706D01*
X66378500Y-175850500D01*
X80121500Y-175850500D01*
X80188539Y-175870185D01*
X80234294Y-175922989D01*
X80245500Y-175974500D01*
X80245500Y-176102736D01*
X80276389Y-176297763D01*
X80337408Y-176485558D01*
X80337409Y-176485561D01*
X80427056Y-176661501D01*
X80427058Y-176661504D01*
X80543115Y-176821246D01*
X80682753Y-176960884D01*
X80832234Y-177069486D01*
X80842499Y-177076944D01*
X81018439Y-177166591D01*
X81143637Y-177207270D01*
X81206236Y-177227610D01*
X81401264Y-177258500D01*
X81401269Y-177258500D01*
X81598736Y-177258500D01*
X81793763Y-177227610D01*
X81981561Y-177166591D01*
X82157501Y-177076944D01*
X82285979Y-176983600D01*
X82317246Y-176960884D01*
X82317248Y-176960881D01*
X82317252Y-176960879D01*
X82456879Y-176821252D01*
X82456881Y-176821248D01*
X82456884Y-176821246D01*
X82507779Y-176751192D01*
X82572944Y-176661501D01*
X82662591Y-176485561D01*
X82723610Y-176297763D01*
X82754500Y-176102736D01*
X82754500Y-174397263D01*
X82723610Y-174202236D01*
X82691280Y-174102736D01*
X82662591Y-174014439D01*
X82584385Y-173860954D01*
X82571489Y-173792286D01*
X82597765Y-173727546D01*
X82607180Y-173716988D01*
X83533820Y-172790349D01*
X83595142Y-172756865D01*
X83664834Y-172761849D01*
X83720767Y-172803721D01*
X83745184Y-172869185D01*
X83745500Y-172878031D01*
X83745500Y-174102736D01*
X83776389Y-174297763D01*
X83808719Y-174397263D01*
X83837409Y-174485561D01*
X83927056Y-174661501D01*
X83927058Y-174661504D01*
X84043115Y-174821246D01*
X84182753Y-174960884D01*
X84332234Y-175069486D01*
X84342499Y-175076944D01*
X84518439Y-175166591D01*
X84643637Y-175207270D01*
X84706236Y-175227610D01*
X84901264Y-175258500D01*
X84901269Y-175258500D01*
X85098736Y-175258500D01*
X85293763Y-175227610D01*
X85481561Y-175166591D01*
X85657501Y-175076944D01*
X85747192Y-175011779D01*
X85817246Y-174960884D01*
X85817248Y-174960881D01*
X85817252Y-174960879D01*
X85956879Y-174821252D01*
X85956881Y-174821248D01*
X85956884Y-174821246D01*
X86007779Y-174751192D01*
X86072944Y-174661501D01*
X86162591Y-174485561D01*
X86223610Y-174297763D01*
X86238740Y-174202236D01*
X86254500Y-174102736D01*
X86254500Y-172397263D01*
X86223610Y-172202236D01*
X86185270Y-172084239D01*
X86162591Y-172014439D01*
X86072944Y-171838499D01*
X86008622Y-171749966D01*
X85956884Y-171678753D01*
X85817246Y-171539115D01*
X85657504Y-171423058D01*
X85657503Y-171423057D01*
X85657501Y-171423056D01*
X85481561Y-171333409D01*
X85398743Y-171306500D01*
X85303568Y-171275575D01*
X85245893Y-171236137D01*
X85218695Y-171171778D01*
X85230610Y-171102932D01*
X85254203Y-171069966D01*
X86437351Y-169886819D01*
X86498674Y-169853334D01*
X86525032Y-169850500D01*
X89068682Y-169850500D01*
X89135721Y-169870185D01*
X89169139Y-169904324D01*
X89170192Y-169903560D01*
X89289115Y-170067246D01*
X89428753Y-170206884D01*
X89578234Y-170315486D01*
X89588499Y-170322944D01*
X89764439Y-170412591D01*
X89860719Y-170443874D01*
X89952236Y-170473610D01*
X90147264Y-170504500D01*
X90147269Y-170504500D01*
X91852736Y-170504500D01*
X92047763Y-170473610D01*
X92235561Y-170412591D01*
X92411501Y-170322944D01*
X92501192Y-170257779D01*
X92571246Y-170206884D01*
X92571248Y-170206881D01*
X92571252Y-170206879D01*
X92710879Y-170067252D01*
X92710881Y-170067248D01*
X92710884Y-170067246D01*
X92761779Y-169997192D01*
X92826944Y-169907501D01*
X92916591Y-169731561D01*
X92977610Y-169543763D01*
X92983697Y-169505334D01*
X93008500Y-169348736D01*
X93008500Y-169151263D01*
X92977610Y-168956236D01*
X92947257Y-168862819D01*
X92916591Y-168768439D01*
X92826944Y-168592499D01*
X92765446Y-168507853D01*
X92710884Y-168432753D01*
X92571246Y-168293115D01*
X92411504Y-168177058D01*
X92411503Y-168177057D01*
X92411501Y-168177056D01*
X92235561Y-168087409D01*
X92235558Y-168087408D01*
X92047763Y-168026389D01*
X91852736Y-167995500D01*
X91852731Y-167995500D01*
X90147269Y-167995500D01*
X90147264Y-167995500D01*
X89952236Y-168026389D01*
X89764441Y-168087408D01*
X89588495Y-168177058D01*
X89428753Y-168293115D01*
X89289115Y-168432753D01*
X89170192Y-168596440D01*
X89168761Y-168595400D01*
X89122593Y-168637167D01*
X89068682Y-168649500D01*
X86396856Y-168649500D01*
X86329817Y-168629815D01*
X86284062Y-168577011D01*
X86274118Y-168507853D01*
X86303143Y-168444297D01*
X86309175Y-168437819D01*
X87984176Y-166762819D01*
X88045499Y-166729334D01*
X88071857Y-166726500D01*
X91137331Y-166726500D01*
X91137347Y-166726501D01*
X91144943Y-166726501D01*
X91303054Y-166726501D01*
X91303057Y-166726501D01*
X91455785Y-166685577D01*
X91505904Y-166656639D01*
X91592716Y-166606520D01*
X91704520Y-166494716D01*
X91704521Y-166494713D01*
X91837418Y-166361815D01*
X91898739Y-166328333D01*
X91925097Y-166325499D01*
X93272871Y-166325499D01*
X93272872Y-166325499D01*
X93332483Y-166319091D01*
X93467331Y-166268796D01*
X93582546Y-166182546D01*
X93668796Y-166067331D01*
X93719091Y-165932483D01*
X93725500Y-165872873D01*
X93725499Y-164077128D01*
X93719091Y-164017517D01*
X93717810Y-164014083D01*
X93668797Y-163882671D01*
X93668793Y-163882664D01*
X93582547Y-163767456D01*
X93582548Y-163767456D01*
X93582546Y-163767454D01*
X93524186Y-163723765D01*
X93482316Y-163667833D01*
X93477332Y-163598141D01*
X93510817Y-163536818D01*
X93572141Y-163503334D01*
X93598498Y-163500500D01*
X98375500Y-163500500D01*
X98442539Y-163520185D01*
X98488294Y-163572989D01*
X98499500Y-163624500D01*
X98499500Y-216875500D01*
X98479815Y-216942539D01*
X98427011Y-216988294D01*
X98375500Y-216999500D01*
X51624500Y-216999500D01*
X51557461Y-216979815D01*
X51511706Y-216927011D01*
X51500500Y-216875500D01*
X51500500Y-212714339D01*
X85116651Y-212714339D01*
X85116651Y-212911722D01*
X85147529Y-213106678D01*
X85208521Y-213294397D01*
X85208522Y-213294400D01*
X85298133Y-213470270D01*
X85414155Y-213629958D01*
X85414155Y-213629959D01*
X85840321Y-214056125D01*
X86373479Y-213522966D01*
X86727032Y-213876519D01*
X86193874Y-214409678D01*
X86620039Y-214835842D01*
X86620041Y-214835843D01*
X86779730Y-214951865D01*
X86779736Y-214951869D01*
X86955598Y-215041477D01*
X86955604Y-215041479D01*
X87143320Y-215102470D01*
X87143319Y-215102470D01*
X87338277Y-215133349D01*
X87535660Y-215133349D01*
X87730616Y-215102470D01*
X87918335Y-215041478D01*
X87918338Y-215041477D01*
X88094210Y-214951865D01*
X88129957Y-214925892D01*
X88129957Y-214925890D01*
X87563549Y-214359482D01*
X87627132Y-214342446D01*
X87741148Y-214276620D01*
X87834240Y-214183528D01*
X87900066Y-214069512D01*
X87917102Y-214005929D01*
X88483510Y-214572337D01*
X88483512Y-214572337D01*
X88509485Y-214536590D01*
X88599097Y-214360718D01*
X88599098Y-214360715D01*
X88660090Y-214172996D01*
X88690969Y-213978040D01*
X88690969Y-213780656D01*
X88660090Y-213585699D01*
X88599099Y-213397984D01*
X88599097Y-213397978D01*
X88509489Y-213222116D01*
X88509485Y-213222110D01*
X88393463Y-213062421D01*
X88393462Y-213062419D01*
X87967299Y-212636254D01*
X87967298Y-212636254D01*
X87434138Y-213169412D01*
X87080585Y-212815859D01*
X87613745Y-212282701D01*
X87187579Y-211856535D01*
X87027890Y-211740513D01*
X86852020Y-211650902D01*
X86852017Y-211650901D01*
X86664298Y-211589909D01*
X86469342Y-211559031D01*
X86271960Y-211559031D01*
X86077003Y-211589909D01*
X85889284Y-211650901D01*
X85889281Y-211650902D01*
X85713409Y-211740514D01*
X85677660Y-211766486D01*
X85677660Y-211766487D01*
X86244071Y-212332898D01*
X86180488Y-212349935D01*
X86066473Y-212415761D01*
X85973381Y-212508853D01*
X85907555Y-212622868D01*
X85890518Y-212686451D01*
X85324107Y-212120040D01*
X85324106Y-212120040D01*
X85298134Y-212155789D01*
X85208522Y-212331661D01*
X85208521Y-212331664D01*
X85147529Y-212519383D01*
X85116651Y-212714339D01*
X51500500Y-212714339D01*
X51500500Y-207397263D01*
X63745500Y-207397263D01*
X63745500Y-209102736D01*
X63776389Y-209297763D01*
X63837408Y-209485558D01*
X63837409Y-209485561D01*
X63927056Y-209661501D01*
X63927058Y-209661504D01*
X64043115Y-209821246D01*
X64182753Y-209960884D01*
X64332234Y-210069486D01*
X64342499Y-210076944D01*
X64518439Y-210166591D01*
X64643637Y-210207270D01*
X64706236Y-210227610D01*
X64901264Y-210258500D01*
X64901269Y-210258500D01*
X65098736Y-210258500D01*
X65293763Y-210227610D01*
X65481561Y-210166591D01*
X65657501Y-210076944D01*
X65747192Y-210011779D01*
X65817246Y-209960884D01*
X65817248Y-209960881D01*
X65817252Y-209960879D01*
X65956879Y-209821252D01*
X65956881Y-209821248D01*
X65956884Y-209821246D01*
X66007779Y-209751192D01*
X66072944Y-209661501D01*
X66162591Y-209485561D01*
X66223610Y-209297763D01*
X66254500Y-209102736D01*
X66254500Y-208974500D01*
X66274185Y-208907461D01*
X66326989Y-208861706D01*
X66378500Y-208850500D01*
X80121500Y-208850500D01*
X80188539Y-208870185D01*
X80234294Y-208922989D01*
X80245500Y-208974500D01*
X80245500Y-209102736D01*
X80276389Y-209297763D01*
X80337408Y-209485558D01*
X80337409Y-209485561D01*
X80427056Y-209661501D01*
X80427058Y-209661504D01*
X80543115Y-209821246D01*
X80682753Y-209960884D01*
X80832234Y-210069486D01*
X80842499Y-210076944D01*
X81018439Y-210166591D01*
X81143637Y-210207270D01*
X81206236Y-210227610D01*
X81401264Y-210258500D01*
X81401269Y-210258500D01*
X81598736Y-210258500D01*
X81793763Y-210227610D01*
X81981561Y-210166591D01*
X82157501Y-210076944D01*
X82247192Y-210011779D01*
X82317246Y-209960884D01*
X82317248Y-209960881D01*
X82317252Y-209960879D01*
X82456879Y-209821252D01*
X82456881Y-209821248D01*
X82456884Y-209821246D01*
X82507779Y-209751192D01*
X82572944Y-209661501D01*
X82662591Y-209485561D01*
X82723610Y-209297763D01*
X82754500Y-209102736D01*
X82754500Y-207397263D01*
X82723610Y-207202236D01*
X82691280Y-207102736D01*
X82662591Y-207014439D01*
X82592845Y-206877558D01*
X82579950Y-206808890D01*
X82606226Y-206744149D01*
X82615641Y-206733592D01*
X83533820Y-205815414D01*
X83595142Y-205781930D01*
X83664834Y-205786914D01*
X83720767Y-205828786D01*
X83745184Y-205894250D01*
X83745500Y-205903096D01*
X83745500Y-207102736D01*
X83776389Y-207297763D01*
X83808719Y-207397263D01*
X83837409Y-207485561D01*
X83927056Y-207661501D01*
X83927058Y-207661504D01*
X84043115Y-207821246D01*
X84182753Y-207960884D01*
X84332234Y-208069486D01*
X84342499Y-208076944D01*
X84518439Y-208166591D01*
X84643637Y-208207270D01*
X84706236Y-208227610D01*
X84901264Y-208258500D01*
X84901269Y-208258500D01*
X85098736Y-208258500D01*
X85293763Y-208227610D01*
X85481561Y-208166591D01*
X85657501Y-208076944D01*
X85747192Y-208011779D01*
X85817246Y-207960884D01*
X85817248Y-207960881D01*
X85817252Y-207960879D01*
X85956879Y-207821252D01*
X85956881Y-207821248D01*
X85956884Y-207821246D01*
X86007779Y-207751192D01*
X86072944Y-207661501D01*
X86162591Y-207485561D01*
X86223610Y-207297763D01*
X86238740Y-207202236D01*
X86254500Y-207102736D01*
X86254500Y-205397263D01*
X86223610Y-205202236D01*
X86185270Y-205084239D01*
X86162591Y-205014439D01*
X86072944Y-204838499D01*
X86008622Y-204749966D01*
X85956884Y-204678753D01*
X85817246Y-204539115D01*
X85657504Y-204423058D01*
X85657503Y-204423057D01*
X85657501Y-204423056D01*
X85481561Y-204333409D01*
X85372996Y-204298134D01*
X85322485Y-204281722D01*
X85264810Y-204242284D01*
X85237612Y-204177925D01*
X85249527Y-204109079D01*
X85273120Y-204076113D01*
X86462416Y-202886819D01*
X86523739Y-202853334D01*
X86550097Y-202850500D01*
X89068682Y-202850500D01*
X89135721Y-202870185D01*
X89169139Y-202904324D01*
X89170192Y-202903560D01*
X89289115Y-203067246D01*
X89428753Y-203206884D01*
X89578234Y-203315486D01*
X89588499Y-203322944D01*
X89764439Y-203412591D01*
X89860719Y-203443874D01*
X89952236Y-203473610D01*
X90147264Y-203504500D01*
X90147269Y-203504500D01*
X91852736Y-203504500D01*
X92047763Y-203473610D01*
X92235561Y-203412591D01*
X92411501Y-203322944D01*
X92501192Y-203257779D01*
X92571246Y-203206884D01*
X92571248Y-203206881D01*
X92571252Y-203206879D01*
X92710879Y-203067252D01*
X92710881Y-203067248D01*
X92710884Y-203067246D01*
X92784389Y-202966073D01*
X92826944Y-202907501D01*
X92916591Y-202731561D01*
X92977610Y-202543763D01*
X92991111Y-202458520D01*
X93008500Y-202348736D01*
X93008500Y-202151263D01*
X92977610Y-201956236D01*
X92953256Y-201881284D01*
X92916591Y-201768439D01*
X92826944Y-201592499D01*
X92819486Y-201582234D01*
X92710884Y-201432753D01*
X92571246Y-201293115D01*
X92411504Y-201177058D01*
X92411503Y-201177057D01*
X92411501Y-201177056D01*
X92235561Y-201087409D01*
X92235558Y-201087408D01*
X92047763Y-201026389D01*
X91852736Y-200995500D01*
X91852731Y-200995500D01*
X90147269Y-200995500D01*
X90147264Y-200995500D01*
X89952236Y-201026389D01*
X89764441Y-201087408D01*
X89588495Y-201177058D01*
X89428753Y-201293115D01*
X89289115Y-201432753D01*
X89170192Y-201596440D01*
X89168761Y-201595400D01*
X89122593Y-201637167D01*
X89068682Y-201649500D01*
X86170940Y-201649500D01*
X86130019Y-201660464D01*
X86130019Y-201660465D01*
X86092751Y-201670451D01*
X86018214Y-201690423D01*
X86018209Y-201690426D01*
X85881290Y-201769475D01*
X85881282Y-201769481D01*
X81439259Y-206211505D01*
X81377936Y-206244990D01*
X81370976Y-206246297D01*
X81206236Y-206272389D01*
X81018441Y-206333408D01*
X80842495Y-206423058D01*
X80682753Y-206539115D01*
X80543115Y-206678753D01*
X80427058Y-206838495D01*
X80337408Y-207014441D01*
X80276389Y-207202236D01*
X80245500Y-207397263D01*
X80245500Y-207525500D01*
X80225815Y-207592539D01*
X80173011Y-207638294D01*
X80121500Y-207649500D01*
X66378500Y-207649500D01*
X66311461Y-207629815D01*
X66265706Y-207577011D01*
X66254500Y-207525500D01*
X66254500Y-207397263D01*
X66223610Y-207202236D01*
X66191280Y-207102736D01*
X66162591Y-207014439D01*
X66072944Y-206838499D01*
X66046766Y-206802468D01*
X65956884Y-206678753D01*
X65817246Y-206539115D01*
X65657504Y-206423058D01*
X65657503Y-206423057D01*
X65657501Y-206423056D01*
X65481561Y-206333409D01*
X65481558Y-206333408D01*
X65293763Y-206272389D01*
X65098736Y-206241500D01*
X65098731Y-206241500D01*
X64901269Y-206241500D01*
X64901264Y-206241500D01*
X64706236Y-206272389D01*
X64518441Y-206333408D01*
X64342495Y-206423058D01*
X64182753Y-206539115D01*
X64043115Y-206678753D01*
X63927058Y-206838495D01*
X63837408Y-207014441D01*
X63776389Y-207202236D01*
X63745500Y-207397263D01*
X51500500Y-207397263D01*
X51500500Y-204588277D01*
X52116651Y-204588277D01*
X52116651Y-204785660D01*
X52147529Y-204980616D01*
X52208521Y-205168335D01*
X52208522Y-205168338D01*
X52298134Y-205344210D01*
X52324106Y-205379958D01*
X52324107Y-205379958D01*
X52890517Y-204813547D01*
X52907555Y-204877132D01*
X52973381Y-204991147D01*
X53066473Y-205084239D01*
X53180488Y-205150065D01*
X53244069Y-205167101D01*
X52677660Y-205733510D01*
X52677660Y-205733511D01*
X52713415Y-205759488D01*
X52889281Y-205849097D01*
X52889284Y-205849098D01*
X53077003Y-205910090D01*
X53271960Y-205940969D01*
X53469342Y-205940969D01*
X53664298Y-205910090D01*
X53852017Y-205849098D01*
X53852020Y-205849097D01*
X54027890Y-205759486D01*
X54187578Y-205643464D01*
X54187579Y-205643464D01*
X54232473Y-205598571D01*
X54613745Y-205217298D01*
X54613745Y-205217297D01*
X54080586Y-204684139D01*
X54434139Y-204330586D01*
X54967297Y-204863745D01*
X55242766Y-204588277D01*
X68616651Y-204588277D01*
X68616651Y-204785660D01*
X68647529Y-204980616D01*
X68708521Y-205168335D01*
X68708522Y-205168338D01*
X68798134Y-205344210D01*
X68824106Y-205379958D01*
X68824107Y-205379958D01*
X69390517Y-204813547D01*
X69407555Y-204877132D01*
X69473381Y-204991147D01*
X69566473Y-205084239D01*
X69680488Y-205150065D01*
X69744069Y-205167101D01*
X69177660Y-205733510D01*
X69177660Y-205733511D01*
X69213415Y-205759488D01*
X69389281Y-205849097D01*
X69389284Y-205849098D01*
X69577003Y-205910090D01*
X69771960Y-205940969D01*
X69969342Y-205940969D01*
X70164298Y-205910090D01*
X70352017Y-205849098D01*
X70352020Y-205849097D01*
X70527890Y-205759486D01*
X70687578Y-205643464D01*
X70687579Y-205643464D01*
X71113745Y-205217298D01*
X71113745Y-205217297D01*
X70580586Y-204684139D01*
X70934139Y-204330586D01*
X71467297Y-204863745D01*
X71893463Y-204437579D01*
X71893463Y-204437578D01*
X72009485Y-204277889D01*
X72009489Y-204277883D01*
X72099097Y-204102021D01*
X72099099Y-204102015D01*
X72160090Y-203914300D01*
X72190969Y-203719343D01*
X72190969Y-203521959D01*
X72160090Y-203327003D01*
X72099098Y-203139284D01*
X72099097Y-203139281D01*
X72009489Y-202963419D01*
X72009481Y-202963406D01*
X71983511Y-202927661D01*
X71983510Y-202927660D01*
X71417102Y-203494068D01*
X71400066Y-203430488D01*
X71334240Y-203316472D01*
X71241148Y-203223380D01*
X71127132Y-203157554D01*
X71063548Y-203140516D01*
X71629958Y-202574108D01*
X71594208Y-202548134D01*
X71418338Y-202458522D01*
X71418335Y-202458521D01*
X71230616Y-202397529D01*
X71035660Y-202366651D01*
X70838277Y-202366651D01*
X70643319Y-202397529D01*
X70455604Y-202458520D01*
X70455598Y-202458522D01*
X70279736Y-202548130D01*
X70279730Y-202548134D01*
X70120044Y-202664153D01*
X69693874Y-203090321D01*
X70227033Y-203623480D01*
X69873480Y-203977033D01*
X69340321Y-203443874D01*
X69340320Y-203443874D01*
X68914156Y-203870039D01*
X68914155Y-203870041D01*
X68798133Y-204029729D01*
X68708522Y-204205599D01*
X68708521Y-204205602D01*
X68647529Y-204393321D01*
X68616651Y-204588277D01*
X55242766Y-204588277D01*
X55335319Y-204495724D01*
X55393463Y-204437579D01*
X55393463Y-204437578D01*
X55509485Y-204277889D01*
X55509489Y-204277883D01*
X55599097Y-204102021D01*
X55599099Y-204102015D01*
X55660090Y-203914300D01*
X55690969Y-203719343D01*
X55690969Y-203521959D01*
X55660090Y-203327003D01*
X55599098Y-203139284D01*
X55599097Y-203139281D01*
X55509489Y-202963419D01*
X55509481Y-202963406D01*
X55483511Y-202927661D01*
X55483510Y-202927660D01*
X54917102Y-203494068D01*
X54900066Y-203430488D01*
X54834240Y-203316472D01*
X54741148Y-203223380D01*
X54627132Y-203157554D01*
X54563548Y-203140516D01*
X55129958Y-202574108D01*
X55094208Y-202548134D01*
X54918338Y-202458522D01*
X54918335Y-202458521D01*
X54730616Y-202397529D01*
X54535660Y-202366651D01*
X54338277Y-202366651D01*
X54143319Y-202397529D01*
X53955604Y-202458520D01*
X53955598Y-202458522D01*
X53779736Y-202548130D01*
X53779730Y-202548134D01*
X53620044Y-202664153D01*
X53193874Y-203090321D01*
X53727033Y-203623480D01*
X53373480Y-203977033D01*
X52840321Y-203443874D01*
X52840320Y-203443874D01*
X52414156Y-203870039D01*
X52414155Y-203870041D01*
X52298133Y-204029729D01*
X52208522Y-204205599D01*
X52208521Y-204205602D01*
X52147529Y-204393321D01*
X52116651Y-204588277D01*
X51500500Y-204588277D01*
X51500500Y-202151263D01*
X58991500Y-202151263D01*
X58991500Y-202348736D01*
X59022389Y-202543763D01*
X59061507Y-202664153D01*
X59083409Y-202731561D01*
X59173056Y-202907501D01*
X59173058Y-202907504D01*
X59289115Y-203067246D01*
X59428753Y-203206884D01*
X59578234Y-203315486D01*
X59588499Y-203322944D01*
X59764439Y-203412591D01*
X59860719Y-203443874D01*
X59952236Y-203473610D01*
X60147264Y-203504500D01*
X60147269Y-203504500D01*
X61852736Y-203504500D01*
X62047763Y-203473610D01*
X62235561Y-203412591D01*
X62411501Y-203322944D01*
X62501192Y-203257779D01*
X62571246Y-203206884D01*
X62571248Y-203206881D01*
X62571252Y-203206879D01*
X62710879Y-203067252D01*
X62826944Y-202907501D01*
X62916591Y-202731561D01*
X62977610Y-202543763D01*
X62991111Y-202458520D01*
X63008500Y-202348736D01*
X63008500Y-202151263D01*
X75491500Y-202151263D01*
X75491500Y-202348736D01*
X75522389Y-202543763D01*
X75561507Y-202664153D01*
X75583409Y-202731561D01*
X75673056Y-202907501D01*
X75673058Y-202907504D01*
X75789115Y-203067246D01*
X75928753Y-203206884D01*
X76078234Y-203315486D01*
X76088499Y-203322944D01*
X76264439Y-203412591D01*
X76360719Y-203443874D01*
X76452236Y-203473610D01*
X76647264Y-203504500D01*
X76647269Y-203504500D01*
X78352736Y-203504500D01*
X78547763Y-203473610D01*
X78735561Y-203412591D01*
X78911501Y-203322944D01*
X79001192Y-203257779D01*
X79071246Y-203206884D01*
X79071248Y-203206881D01*
X79071252Y-203206879D01*
X79210879Y-203067252D01*
X79210881Y-203067248D01*
X79210884Y-203067246D01*
X79284389Y-202966073D01*
X79326944Y-202907501D01*
X79416591Y-202731561D01*
X79477610Y-202543763D01*
X79491111Y-202458520D01*
X79508500Y-202348736D01*
X79508500Y-202151263D01*
X79477610Y-201956236D01*
X79453256Y-201881284D01*
X79416591Y-201768439D01*
X79326944Y-201592499D01*
X79319486Y-201582234D01*
X79210884Y-201432753D01*
X79071246Y-201293115D01*
X78911504Y-201177058D01*
X78911503Y-201177057D01*
X78911501Y-201177056D01*
X78735561Y-201087409D01*
X78735558Y-201087408D01*
X78547763Y-201026389D01*
X78352736Y-200995500D01*
X78352731Y-200995500D01*
X76647269Y-200995500D01*
X76647264Y-200995500D01*
X76452236Y-201026389D01*
X76264441Y-201087408D01*
X76088495Y-201177058D01*
X75928753Y-201293115D01*
X75789115Y-201432753D01*
X75673058Y-201592495D01*
X75583408Y-201768441D01*
X75522389Y-201956236D01*
X75491500Y-202151263D01*
X63008500Y-202151263D01*
X62977610Y-201956236D01*
X62953256Y-201881284D01*
X62916591Y-201768439D01*
X62826944Y-201592499D01*
X62819486Y-201582234D01*
X62710884Y-201432753D01*
X62571246Y-201293115D01*
X62411504Y-201177058D01*
X62411503Y-201177057D01*
X62411501Y-201177056D01*
X62235561Y-201087409D01*
X62235558Y-201087408D01*
X62047763Y-201026389D01*
X61852736Y-200995500D01*
X61852731Y-200995500D01*
X61724500Y-200995500D01*
X61657461Y-200975815D01*
X61611706Y-200923011D01*
X61600500Y-200871500D01*
X61600500Y-196214339D01*
X85116651Y-196214339D01*
X85116651Y-196411722D01*
X85147529Y-196606678D01*
X85208521Y-196794397D01*
X85208522Y-196794400D01*
X85298133Y-196970270D01*
X85414155Y-197129958D01*
X85414155Y-197129959D01*
X85840321Y-197556125D01*
X86373479Y-197022966D01*
X86727032Y-197376519D01*
X86193874Y-197909678D01*
X86620039Y-198335842D01*
X86620041Y-198335843D01*
X86779730Y-198451865D01*
X86779736Y-198451869D01*
X86955598Y-198541477D01*
X86955604Y-198541479D01*
X87143320Y-198602470D01*
X87143319Y-198602470D01*
X87338277Y-198633349D01*
X87535660Y-198633349D01*
X87730616Y-198602470D01*
X87918335Y-198541478D01*
X87918338Y-198541477D01*
X88094210Y-198451865D01*
X88129957Y-198425892D01*
X88129957Y-198425890D01*
X87563549Y-197859482D01*
X87627132Y-197842446D01*
X87741148Y-197776620D01*
X87834240Y-197683528D01*
X87900066Y-197569512D01*
X87917102Y-197505929D01*
X88483510Y-198072337D01*
X88483512Y-198072337D01*
X88509485Y-198036590D01*
X88599097Y-197860718D01*
X88599098Y-197860715D01*
X88660090Y-197672996D01*
X88690969Y-197478040D01*
X88690969Y-197280656D01*
X88660090Y-197085699D01*
X88599099Y-196897984D01*
X88599097Y-196897978D01*
X88509489Y-196722116D01*
X88509485Y-196722110D01*
X88393463Y-196562421D01*
X88393462Y-196562419D01*
X87967299Y-196136254D01*
X87967298Y-196136254D01*
X87434138Y-196669412D01*
X87080585Y-196315859D01*
X87613745Y-195782701D01*
X87187579Y-195356535D01*
X87027890Y-195240513D01*
X86852020Y-195150902D01*
X86852017Y-195150901D01*
X86664298Y-195089909D01*
X86469342Y-195059031D01*
X86271960Y-195059031D01*
X86077003Y-195089909D01*
X85889284Y-195150901D01*
X85889281Y-195150902D01*
X85713409Y-195240514D01*
X85677660Y-195266486D01*
X85677660Y-195266487D01*
X86244071Y-195832898D01*
X86180488Y-195849935D01*
X86066473Y-195915761D01*
X85973381Y-196008853D01*
X85907555Y-196122868D01*
X85890518Y-196186451D01*
X85324107Y-195620040D01*
X85324106Y-195620040D01*
X85298134Y-195655789D01*
X85208522Y-195831661D01*
X85208521Y-195831664D01*
X85147529Y-196019383D01*
X85116651Y-196214339D01*
X61600500Y-196214339D01*
X61600500Y-196050097D01*
X61620185Y-195983058D01*
X61636819Y-195962416D01*
X62373170Y-195226065D01*
X62540204Y-195059031D01*
X64082151Y-193517083D01*
X64143472Y-193483600D01*
X64213164Y-193488584D01*
X64242715Y-193504448D01*
X64331531Y-193568975D01*
X64342499Y-193576944D01*
X64518439Y-193666591D01*
X64643637Y-193707270D01*
X64706236Y-193727610D01*
X64901264Y-193758500D01*
X64901269Y-193758500D01*
X65098736Y-193758500D01*
X65293763Y-193727610D01*
X65481561Y-193666591D01*
X65657501Y-193576944D01*
X65785979Y-193483600D01*
X65817246Y-193460884D01*
X65817248Y-193460881D01*
X65817252Y-193460879D01*
X65956879Y-193321252D01*
X65956881Y-193321248D01*
X65956884Y-193321246D01*
X66007779Y-193251192D01*
X66072944Y-193161501D01*
X66162591Y-192985561D01*
X66223610Y-192797763D01*
X66254500Y-192602736D01*
X66254500Y-192474500D01*
X66274185Y-192407461D01*
X66326989Y-192361706D01*
X66378500Y-192350500D01*
X80121500Y-192350500D01*
X80188539Y-192370185D01*
X80234294Y-192422989D01*
X80245500Y-192474500D01*
X80245500Y-192602736D01*
X80276389Y-192797763D01*
X80337408Y-192985558D01*
X80337409Y-192985561D01*
X80427056Y-193161501D01*
X80427058Y-193161504D01*
X80543115Y-193321246D01*
X80682753Y-193460884D01*
X80832234Y-193569486D01*
X80842499Y-193576944D01*
X81018439Y-193666591D01*
X81143637Y-193707270D01*
X81206236Y-193727610D01*
X81401264Y-193758500D01*
X81401269Y-193758500D01*
X81598736Y-193758500D01*
X81793763Y-193727610D01*
X81981561Y-193666591D01*
X82157501Y-193576944D01*
X82285979Y-193483600D01*
X82317246Y-193460884D01*
X82317248Y-193460881D01*
X82317252Y-193460879D01*
X82456879Y-193321252D01*
X82456881Y-193321248D01*
X82456884Y-193321246D01*
X82507779Y-193251192D01*
X82572944Y-193161501D01*
X82662591Y-192985561D01*
X82723610Y-192797763D01*
X82754500Y-192602736D01*
X82754500Y-190897263D01*
X82723610Y-190702236D01*
X82691280Y-190602736D01*
X82662591Y-190514439D01*
X82592845Y-190377558D01*
X82579950Y-190308890D01*
X82606226Y-190244149D01*
X82615641Y-190233592D01*
X83533820Y-189315414D01*
X83595142Y-189281930D01*
X83664834Y-189286914D01*
X83720767Y-189328786D01*
X83745184Y-189394250D01*
X83745500Y-189403096D01*
X83745500Y-190602736D01*
X83776389Y-190797763D01*
X83808719Y-190897263D01*
X83837409Y-190985561D01*
X83927056Y-191161501D01*
X83927058Y-191161504D01*
X84043115Y-191321246D01*
X84182753Y-191460884D01*
X84332234Y-191569486D01*
X84342499Y-191576944D01*
X84518439Y-191666591D01*
X84643637Y-191707270D01*
X84706236Y-191727610D01*
X84901264Y-191758500D01*
X84901269Y-191758500D01*
X85098736Y-191758500D01*
X85293763Y-191727610D01*
X85481561Y-191666591D01*
X85657501Y-191576944D01*
X85747192Y-191511779D01*
X85817246Y-191460884D01*
X85817248Y-191460881D01*
X85817252Y-191460879D01*
X85956879Y-191321252D01*
X85956881Y-191321248D01*
X85956884Y-191321246D01*
X86007779Y-191251192D01*
X86072944Y-191161501D01*
X86162591Y-190985561D01*
X86223610Y-190797763D01*
X86238740Y-190702236D01*
X86254500Y-190602736D01*
X86254500Y-188897263D01*
X86223610Y-188702236D01*
X86185270Y-188584239D01*
X86162591Y-188514439D01*
X86072944Y-188338499D01*
X86008622Y-188249966D01*
X85956884Y-188178753D01*
X85817246Y-188039115D01*
X85657504Y-187923058D01*
X85657503Y-187923057D01*
X85657501Y-187923056D01*
X85481561Y-187833409D01*
X85372996Y-187798134D01*
X85322485Y-187781722D01*
X85264810Y-187742284D01*
X85237612Y-187677925D01*
X85249527Y-187609079D01*
X85273120Y-187576113D01*
X86462416Y-186386819D01*
X86523739Y-186353334D01*
X86550097Y-186350500D01*
X89068682Y-186350500D01*
X89135721Y-186370185D01*
X89169139Y-186404324D01*
X89170192Y-186403560D01*
X89289115Y-186567246D01*
X89428753Y-186706884D01*
X89578234Y-186815486D01*
X89588499Y-186822944D01*
X89764439Y-186912591D01*
X89860719Y-186943874D01*
X89952236Y-186973610D01*
X90147264Y-187004500D01*
X90147269Y-187004500D01*
X91852736Y-187004500D01*
X92047763Y-186973610D01*
X92235561Y-186912591D01*
X92411501Y-186822944D01*
X92501192Y-186757779D01*
X92571246Y-186706884D01*
X92571248Y-186706881D01*
X92571252Y-186706879D01*
X92710879Y-186567252D01*
X92710881Y-186567248D01*
X92710884Y-186567246D01*
X92784389Y-186466073D01*
X92826944Y-186407501D01*
X92916591Y-186231561D01*
X92977610Y-186043763D01*
X92991111Y-185958520D01*
X93008500Y-185848736D01*
X93008500Y-185651263D01*
X92977610Y-185456236D01*
X92953256Y-185381284D01*
X92916591Y-185268439D01*
X92826944Y-185092499D01*
X92819486Y-185082234D01*
X92710884Y-184932753D01*
X92571246Y-184793115D01*
X92411504Y-184677058D01*
X92411503Y-184677057D01*
X92411501Y-184677056D01*
X92235561Y-184587409D01*
X92235558Y-184587408D01*
X92047763Y-184526389D01*
X91852736Y-184495500D01*
X91852731Y-184495500D01*
X90147269Y-184495500D01*
X90147264Y-184495500D01*
X89952236Y-184526389D01*
X89764441Y-184587408D01*
X89588495Y-184677058D01*
X89428753Y-184793115D01*
X89289115Y-184932753D01*
X89170192Y-185096440D01*
X89168761Y-185095400D01*
X89122593Y-185137167D01*
X89068682Y-185149500D01*
X86170940Y-185149500D01*
X86130019Y-185160464D01*
X86130019Y-185160465D01*
X86092751Y-185170451D01*
X86018214Y-185190423D01*
X86018209Y-185190426D01*
X85881290Y-185269475D01*
X85881282Y-185269481D01*
X81439259Y-189711505D01*
X81377936Y-189744990D01*
X81370976Y-189746297D01*
X81206236Y-189772389D01*
X81018441Y-189833408D01*
X80842495Y-189923058D01*
X80682753Y-190039115D01*
X80543115Y-190178753D01*
X80427058Y-190338495D01*
X80337408Y-190514441D01*
X80276389Y-190702236D01*
X80245500Y-190897263D01*
X80245500Y-191025500D01*
X80225815Y-191092539D01*
X80173011Y-191138294D01*
X80121500Y-191149500D01*
X66378500Y-191149500D01*
X66311461Y-191129815D01*
X66265706Y-191077011D01*
X66254500Y-191025500D01*
X66254500Y-190897263D01*
X66223610Y-190702236D01*
X66191280Y-190602736D01*
X66162591Y-190514439D01*
X66072944Y-190338499D01*
X66046766Y-190302468D01*
X65956884Y-190178753D01*
X65817246Y-190039115D01*
X65657504Y-189923058D01*
X65657503Y-189923057D01*
X65657501Y-189923056D01*
X65481561Y-189833409D01*
X65481558Y-189833408D01*
X65293763Y-189772389D01*
X65098736Y-189741500D01*
X65098731Y-189741500D01*
X64901269Y-189741500D01*
X64901264Y-189741500D01*
X64706236Y-189772389D01*
X64518441Y-189833408D01*
X64342495Y-189923058D01*
X64182753Y-190039115D01*
X64043115Y-190178753D01*
X63927058Y-190338495D01*
X63837408Y-190514441D01*
X63776389Y-190702236D01*
X63745500Y-190897263D01*
X63745500Y-192103902D01*
X63725815Y-192170941D01*
X63709181Y-192191583D01*
X60519481Y-195381282D01*
X60519479Y-195381285D01*
X60469361Y-195468094D01*
X60469359Y-195468096D01*
X60440425Y-195518209D01*
X60440424Y-195518210D01*
X60440423Y-195518215D01*
X60399499Y-195670943D01*
X60399499Y-195670945D01*
X60399499Y-195839046D01*
X60399500Y-195839059D01*
X60399500Y-200871500D01*
X60379815Y-200938539D01*
X60327011Y-200984294D01*
X60275500Y-200995500D01*
X60147264Y-200995500D01*
X59952236Y-201026389D01*
X59764441Y-201087408D01*
X59588495Y-201177058D01*
X59428753Y-201293115D01*
X59289115Y-201432753D01*
X59173058Y-201592495D01*
X59083408Y-201768441D01*
X59022389Y-201956236D01*
X58991500Y-202151263D01*
X51500500Y-202151263D01*
X51500500Y-188088277D01*
X52116651Y-188088277D01*
X52116651Y-188285660D01*
X52147529Y-188480616D01*
X52208521Y-188668335D01*
X52208522Y-188668338D01*
X52298134Y-188844210D01*
X52324106Y-188879958D01*
X52324107Y-188879958D01*
X52890517Y-188313547D01*
X52907555Y-188377132D01*
X52973381Y-188491147D01*
X53066473Y-188584239D01*
X53180488Y-188650065D01*
X53244069Y-188667101D01*
X52677660Y-189233510D01*
X52677660Y-189233511D01*
X52713415Y-189259488D01*
X52889281Y-189349097D01*
X52889284Y-189349098D01*
X53077003Y-189410090D01*
X53271960Y-189440969D01*
X53469342Y-189440969D01*
X53664298Y-189410090D01*
X53852017Y-189349098D01*
X53852020Y-189349097D01*
X54027890Y-189259486D01*
X54187578Y-189143464D01*
X54187579Y-189143464D01*
X54232473Y-189098571D01*
X54613745Y-188717298D01*
X54613745Y-188717297D01*
X54080586Y-188184139D01*
X54434139Y-187830586D01*
X54967297Y-188363745D01*
X55242766Y-188088277D01*
X68616651Y-188088277D01*
X68616651Y-188285660D01*
X68647529Y-188480616D01*
X68708521Y-188668335D01*
X68708522Y-188668338D01*
X68798134Y-188844210D01*
X68824106Y-188879958D01*
X68824107Y-188879958D01*
X69390517Y-188313547D01*
X69407555Y-188377132D01*
X69473381Y-188491147D01*
X69566473Y-188584239D01*
X69680488Y-188650065D01*
X69744069Y-188667101D01*
X69177660Y-189233510D01*
X69177660Y-189233511D01*
X69213415Y-189259488D01*
X69389281Y-189349097D01*
X69389284Y-189349098D01*
X69577003Y-189410090D01*
X69771960Y-189440969D01*
X69969342Y-189440969D01*
X70164298Y-189410090D01*
X70352017Y-189349098D01*
X70352020Y-189349097D01*
X70527890Y-189259486D01*
X70687578Y-189143464D01*
X70687579Y-189143464D01*
X71113745Y-188717298D01*
X71113745Y-188717297D01*
X70580586Y-188184139D01*
X70934139Y-187830586D01*
X71467297Y-188363745D01*
X71893463Y-187937579D01*
X71893463Y-187937578D01*
X72009485Y-187777889D01*
X72009489Y-187777883D01*
X72099097Y-187602021D01*
X72099099Y-187602015D01*
X72160090Y-187414300D01*
X72190969Y-187219343D01*
X72190969Y-187021959D01*
X72160090Y-186827003D01*
X72099098Y-186639284D01*
X72099097Y-186639281D01*
X72009489Y-186463419D01*
X72009481Y-186463406D01*
X71983511Y-186427661D01*
X71983510Y-186427660D01*
X71417102Y-186994068D01*
X71400066Y-186930488D01*
X71334240Y-186816472D01*
X71241148Y-186723380D01*
X71127132Y-186657554D01*
X71063548Y-186640516D01*
X71629958Y-186074108D01*
X71594208Y-186048134D01*
X71418338Y-185958522D01*
X71418335Y-185958521D01*
X71230616Y-185897529D01*
X71035660Y-185866651D01*
X70838277Y-185866651D01*
X70643319Y-185897529D01*
X70455604Y-185958520D01*
X70455598Y-185958522D01*
X70279736Y-186048130D01*
X70279730Y-186048134D01*
X70120044Y-186164153D01*
X69693874Y-186590321D01*
X70227033Y-187123480D01*
X69873480Y-187477033D01*
X69340321Y-186943874D01*
X69340320Y-186943874D01*
X68914156Y-187370039D01*
X68914155Y-187370041D01*
X68798133Y-187529729D01*
X68708522Y-187705599D01*
X68708521Y-187705602D01*
X68647529Y-187893321D01*
X68616651Y-188088277D01*
X55242766Y-188088277D01*
X55335319Y-187995724D01*
X55393463Y-187937579D01*
X55393463Y-187937578D01*
X55509485Y-187777889D01*
X55509489Y-187777883D01*
X55599097Y-187602021D01*
X55599099Y-187602015D01*
X55660090Y-187414300D01*
X55690969Y-187219343D01*
X55690969Y-187021959D01*
X55660090Y-186827003D01*
X55599098Y-186639284D01*
X55599097Y-186639281D01*
X55509489Y-186463419D01*
X55509481Y-186463406D01*
X55483511Y-186427661D01*
X55483510Y-186427660D01*
X54917102Y-186994068D01*
X54900066Y-186930488D01*
X54834240Y-186816472D01*
X54741148Y-186723380D01*
X54627132Y-186657554D01*
X54563548Y-186640516D01*
X55129958Y-186074108D01*
X55094208Y-186048134D01*
X54918338Y-185958522D01*
X54918335Y-185958521D01*
X54730616Y-185897529D01*
X54535660Y-185866651D01*
X54338277Y-185866651D01*
X54143319Y-185897529D01*
X53955604Y-185958520D01*
X53955598Y-185958522D01*
X53779736Y-186048130D01*
X53779730Y-186048134D01*
X53620044Y-186164153D01*
X53193874Y-186590321D01*
X53727033Y-187123480D01*
X53373480Y-187477033D01*
X52840321Y-186943874D01*
X52840320Y-186943874D01*
X52414156Y-187370039D01*
X52414155Y-187370041D01*
X52298133Y-187529729D01*
X52208522Y-187705599D01*
X52208521Y-187705602D01*
X52147529Y-187893321D01*
X52116651Y-188088277D01*
X51500500Y-188088277D01*
X51500500Y-171588277D01*
X52116651Y-171588277D01*
X52116651Y-171785660D01*
X52147529Y-171980616D01*
X52208521Y-172168335D01*
X52208522Y-172168338D01*
X52298134Y-172344210D01*
X52324106Y-172379958D01*
X52324107Y-172379958D01*
X52890517Y-171813547D01*
X52907555Y-171877132D01*
X52973381Y-171991147D01*
X53066473Y-172084239D01*
X53180488Y-172150065D01*
X53244069Y-172167101D01*
X52677660Y-172733510D01*
X52677660Y-172733511D01*
X52713415Y-172759488D01*
X52889281Y-172849097D01*
X52889284Y-172849098D01*
X53077003Y-172910090D01*
X53271960Y-172940969D01*
X53469342Y-172940969D01*
X53664298Y-172910090D01*
X53852017Y-172849098D01*
X53852020Y-172849097D01*
X54027890Y-172759486D01*
X54187578Y-172643464D01*
X54187579Y-172643464D01*
X54232473Y-172598571D01*
X54613745Y-172217298D01*
X54613745Y-172217297D01*
X54080586Y-171684139D01*
X54434139Y-171330586D01*
X54967297Y-171863745D01*
X55335319Y-171495724D01*
X55393463Y-171437579D01*
X55393463Y-171437578D01*
X55509485Y-171277889D01*
X55509489Y-171277883D01*
X55599097Y-171102021D01*
X55599099Y-171102015D01*
X55660090Y-170914300D01*
X55690969Y-170719343D01*
X55690969Y-170521959D01*
X55660090Y-170327003D01*
X55599098Y-170139284D01*
X55599097Y-170139281D01*
X55509489Y-169963419D01*
X55509481Y-169963406D01*
X55483511Y-169927661D01*
X55483510Y-169927660D01*
X54917102Y-170494068D01*
X54900066Y-170430488D01*
X54834240Y-170316472D01*
X54741148Y-170223380D01*
X54627132Y-170157554D01*
X54563548Y-170140516D01*
X55129958Y-169574108D01*
X55094208Y-169548134D01*
X54918338Y-169458522D01*
X54918335Y-169458521D01*
X54730616Y-169397529D01*
X54535660Y-169366651D01*
X54338277Y-169366651D01*
X54143319Y-169397529D01*
X53955604Y-169458520D01*
X53955598Y-169458522D01*
X53779736Y-169548130D01*
X53779730Y-169548134D01*
X53620044Y-169664153D01*
X53193874Y-170090321D01*
X53727033Y-170623480D01*
X53373480Y-170977033D01*
X52840321Y-170443874D01*
X52840320Y-170443874D01*
X52414156Y-170870039D01*
X52414155Y-170870041D01*
X52298133Y-171029729D01*
X52208522Y-171205599D01*
X52208521Y-171205602D01*
X52147529Y-171393321D01*
X52116651Y-171588277D01*
X51500500Y-171588277D01*
X51500500Y-169151263D01*
X58991500Y-169151263D01*
X58991500Y-169348736D01*
X59022389Y-169543763D01*
X59074616Y-169704500D01*
X59083409Y-169731561D01*
X59173056Y-169907501D01*
X59173058Y-169907504D01*
X59289115Y-170067246D01*
X59428753Y-170206884D01*
X59578234Y-170315486D01*
X59588499Y-170322944D01*
X59764439Y-170412591D01*
X59860719Y-170443874D01*
X59952236Y-170473610D01*
X60147264Y-170504500D01*
X60147269Y-170504500D01*
X61852736Y-170504500D01*
X62047763Y-170473610D01*
X62235561Y-170412591D01*
X62411501Y-170322944D01*
X62501192Y-170257779D01*
X62571246Y-170206884D01*
X62571248Y-170206881D01*
X62571252Y-170206879D01*
X62710879Y-170067252D01*
X62710881Y-170067248D01*
X62710884Y-170067246D01*
X62761779Y-169997192D01*
X62826944Y-169907501D01*
X62916591Y-169731561D01*
X62977610Y-169543763D01*
X62983697Y-169505334D01*
X63008500Y-169348736D01*
X63008500Y-169151263D01*
X62977610Y-168956236D01*
X62947257Y-168862819D01*
X62916591Y-168768439D01*
X62826944Y-168592499D01*
X62765446Y-168507853D01*
X62710884Y-168432753D01*
X62571246Y-168293115D01*
X62411504Y-168177058D01*
X62411503Y-168177057D01*
X62411501Y-168177056D01*
X62235561Y-168087409D01*
X62235558Y-168087408D01*
X62047763Y-168026389D01*
X61852736Y-167995500D01*
X61852731Y-167995500D01*
X60147269Y-167995500D01*
X60147264Y-167995500D01*
X59952236Y-168026389D01*
X59764441Y-168087408D01*
X59588495Y-168177058D01*
X59428753Y-168293115D01*
X59289115Y-168432753D01*
X59173058Y-168592495D01*
X59083408Y-168768441D01*
X59022389Y-168956236D01*
X58991500Y-169151263D01*
X51500500Y-169151263D01*
X51500500Y-139338277D01*
X52116651Y-139338277D01*
X52116651Y-139535660D01*
X52147529Y-139730616D01*
X52208521Y-139918335D01*
X52208522Y-139918338D01*
X52298134Y-140094210D01*
X52324106Y-140129958D01*
X52324107Y-140129958D01*
X52890517Y-139563547D01*
X52907555Y-139627132D01*
X52973381Y-139741147D01*
X53066473Y-139834239D01*
X53180488Y-139900065D01*
X53244069Y-139917101D01*
X52677660Y-140483510D01*
X52677660Y-140483511D01*
X52713415Y-140509488D01*
X52889281Y-140599097D01*
X52889284Y-140599098D01*
X53077003Y-140660090D01*
X53271960Y-140690969D01*
X53469342Y-140690969D01*
X53664298Y-140660090D01*
X53852017Y-140599098D01*
X53852020Y-140599097D01*
X54027890Y-140509486D01*
X54187578Y-140393464D01*
X54187579Y-140393464D01*
X54613745Y-139967298D01*
X54613745Y-139967297D01*
X54080586Y-139434139D01*
X54434139Y-139080586D01*
X54967297Y-139613745D01*
X55393463Y-139187579D01*
X55393463Y-139187578D01*
X55509485Y-139027889D01*
X55509489Y-139027883D01*
X55599097Y-138852021D01*
X55599099Y-138852015D01*
X55660090Y-138664300D01*
X55690969Y-138469343D01*
X55690969Y-138271959D01*
X55660090Y-138077003D01*
X55599098Y-137889284D01*
X55599097Y-137889281D01*
X55509489Y-137713419D01*
X55509481Y-137713406D01*
X55483511Y-137677661D01*
X55483510Y-137677660D01*
X54917102Y-138244068D01*
X54900066Y-138180488D01*
X54834240Y-138066472D01*
X54741148Y-137973380D01*
X54627132Y-137907554D01*
X54563548Y-137890516D01*
X55129958Y-137324108D01*
X55094208Y-137298134D01*
X54918338Y-137208522D01*
X54918335Y-137208521D01*
X54730616Y-137147529D01*
X54535660Y-137116651D01*
X54338277Y-137116651D01*
X54143319Y-137147529D01*
X53955604Y-137208520D01*
X53955598Y-137208522D01*
X53779736Y-137298130D01*
X53779730Y-137298134D01*
X53620044Y-137414153D01*
X53193874Y-137840321D01*
X53727033Y-138373480D01*
X53373480Y-138727033D01*
X52840321Y-138193874D01*
X52840320Y-138193874D01*
X52414156Y-138620039D01*
X52414155Y-138620041D01*
X52298133Y-138779729D01*
X52208522Y-138955599D01*
X52208521Y-138955602D01*
X52147529Y-139143321D01*
X52116651Y-139338277D01*
X51500500Y-139338277D01*
X51500500Y-122338277D01*
X52116651Y-122338277D01*
X52116651Y-122535660D01*
X52147529Y-122730616D01*
X52208521Y-122918335D01*
X52208522Y-122918338D01*
X52298134Y-123094210D01*
X52324106Y-123129958D01*
X52324107Y-123129958D01*
X52890517Y-122563547D01*
X52907555Y-122627132D01*
X52973381Y-122741147D01*
X53066473Y-122834239D01*
X53180488Y-122900065D01*
X53244069Y-122917101D01*
X52677660Y-123483510D01*
X52677660Y-123483511D01*
X52713415Y-123509488D01*
X52889281Y-123599097D01*
X52889284Y-123599098D01*
X53077003Y-123660090D01*
X53271960Y-123690969D01*
X53469342Y-123690969D01*
X53664298Y-123660090D01*
X53852017Y-123599098D01*
X53852020Y-123599097D01*
X54027890Y-123509486D01*
X54187578Y-123393464D01*
X54187579Y-123393464D01*
X54613745Y-122967298D01*
X54613745Y-122967297D01*
X54080586Y-122434139D01*
X54434139Y-122080586D01*
X54967297Y-122613745D01*
X55393463Y-122187579D01*
X55393463Y-122187578D01*
X55509485Y-122027889D01*
X55509489Y-122027883D01*
X55599097Y-121852021D01*
X55599099Y-121852015D01*
X55660090Y-121664300D01*
X55690969Y-121469343D01*
X55690969Y-121271959D01*
X55660090Y-121077003D01*
X55599098Y-120889284D01*
X55599097Y-120889281D01*
X55509489Y-120713419D01*
X55509481Y-120713406D01*
X55483511Y-120677661D01*
X55483510Y-120677660D01*
X54917102Y-121244068D01*
X54900066Y-121180488D01*
X54834240Y-121066472D01*
X54741148Y-120973380D01*
X54627132Y-120907554D01*
X54563548Y-120890516D01*
X55129958Y-120324108D01*
X55094208Y-120298134D01*
X54918338Y-120208522D01*
X54918335Y-120208521D01*
X54730616Y-120147529D01*
X54535660Y-120116651D01*
X54338277Y-120116651D01*
X54143319Y-120147529D01*
X53955604Y-120208520D01*
X53955598Y-120208522D01*
X53779736Y-120298130D01*
X53779730Y-120298134D01*
X53620044Y-120414153D01*
X53193874Y-120840321D01*
X53727033Y-121373480D01*
X53373480Y-121727033D01*
X52840321Y-121193874D01*
X52840320Y-121193874D01*
X52414156Y-121620039D01*
X52414155Y-121620041D01*
X52298133Y-121779729D01*
X52208522Y-121955599D01*
X52208521Y-121955602D01*
X52147529Y-122143321D01*
X52116651Y-122338277D01*
X51500500Y-122338277D01*
X51500500Y-101088277D01*
X52116651Y-101088277D01*
X52116651Y-101285660D01*
X52147529Y-101480616D01*
X52208521Y-101668335D01*
X52208522Y-101668338D01*
X52298134Y-101844210D01*
X52324106Y-101879958D01*
X52324107Y-101879958D01*
X52890517Y-101313547D01*
X52907555Y-101377132D01*
X52973381Y-101491147D01*
X53066473Y-101584239D01*
X53180488Y-101650065D01*
X53244069Y-101667101D01*
X52677660Y-102233510D01*
X52677660Y-102233511D01*
X52713415Y-102259488D01*
X52889281Y-102349097D01*
X52889284Y-102349098D01*
X53077003Y-102410090D01*
X53271960Y-102440969D01*
X53469342Y-102440969D01*
X53664298Y-102410090D01*
X53852017Y-102349098D01*
X53852020Y-102349097D01*
X54027890Y-102259486D01*
X54187578Y-102143464D01*
X54187579Y-102143464D01*
X54613745Y-101717298D01*
X54613745Y-101717297D01*
X54080586Y-101184139D01*
X54434139Y-100830586D01*
X54967297Y-101363745D01*
X55393463Y-100937579D01*
X55393463Y-100937578D01*
X55509485Y-100777889D01*
X55509489Y-100777883D01*
X55599097Y-100602021D01*
X55599099Y-100602015D01*
X55660090Y-100414300D01*
X55690969Y-100219343D01*
X55690969Y-100021959D01*
X55660090Y-99827003D01*
X55599098Y-99639284D01*
X55599097Y-99639281D01*
X55509489Y-99463419D01*
X55509481Y-99463406D01*
X55483511Y-99427661D01*
X55483510Y-99427660D01*
X54917102Y-99994068D01*
X54900066Y-99930488D01*
X54834240Y-99816472D01*
X54741148Y-99723380D01*
X54627132Y-99657554D01*
X54563548Y-99640516D01*
X55129958Y-99074108D01*
X55094208Y-99048134D01*
X54918338Y-98958522D01*
X54918335Y-98958521D01*
X54730616Y-98897529D01*
X54535660Y-98866651D01*
X54338277Y-98866651D01*
X54143319Y-98897529D01*
X53955604Y-98958520D01*
X53955598Y-98958522D01*
X53779736Y-99048130D01*
X53779730Y-99048134D01*
X53620044Y-99164153D01*
X53193874Y-99590321D01*
X53727033Y-100123480D01*
X53373480Y-100477033D01*
X52840321Y-99943874D01*
X52840320Y-99943874D01*
X52414156Y-100370039D01*
X52414155Y-100370041D01*
X52298133Y-100529729D01*
X52208522Y-100705599D01*
X52208521Y-100705602D01*
X52147529Y-100893321D01*
X52116651Y-101088277D01*
X51500500Y-101088277D01*
X51500500Y-84088277D01*
X52116651Y-84088277D01*
X52116651Y-84285660D01*
X52147529Y-84480616D01*
X52208521Y-84668335D01*
X52208522Y-84668338D01*
X52298134Y-84844210D01*
X52324106Y-84879958D01*
X52324107Y-84879958D01*
X52890517Y-84313547D01*
X52907555Y-84377132D01*
X52973381Y-84491147D01*
X53066473Y-84584239D01*
X53180488Y-84650065D01*
X53244069Y-84667101D01*
X52677660Y-85233510D01*
X52677660Y-85233511D01*
X52713415Y-85259488D01*
X52889281Y-85349097D01*
X52889284Y-85349098D01*
X53077003Y-85410090D01*
X53271960Y-85440969D01*
X53469342Y-85440969D01*
X53664298Y-85410090D01*
X53852017Y-85349098D01*
X53852020Y-85349097D01*
X54027890Y-85259486D01*
X54187578Y-85143464D01*
X54187579Y-85143464D01*
X54613745Y-84717298D01*
X54613745Y-84717297D01*
X54080586Y-84184139D01*
X54434139Y-83830586D01*
X54967297Y-84363745D01*
X55393463Y-83937579D01*
X55393463Y-83937578D01*
X55509485Y-83777889D01*
X55509489Y-83777883D01*
X55599097Y-83602021D01*
X55599099Y-83602015D01*
X55660090Y-83414300D01*
X55690969Y-83219343D01*
X55690969Y-83021959D01*
X55660090Y-82827003D01*
X55599098Y-82639284D01*
X55599097Y-82639281D01*
X55509489Y-82463419D01*
X55509481Y-82463406D01*
X55483511Y-82427661D01*
X55483510Y-82427660D01*
X54917102Y-82994068D01*
X54900066Y-82930488D01*
X54834240Y-82816472D01*
X54741148Y-82723380D01*
X54627132Y-82657554D01*
X54563548Y-82640516D01*
X55129958Y-82074108D01*
X55094208Y-82048134D01*
X54918338Y-81958522D01*
X54918335Y-81958521D01*
X54730616Y-81897529D01*
X54535660Y-81866651D01*
X54338277Y-81866651D01*
X54143319Y-81897529D01*
X53955604Y-81958520D01*
X53955598Y-81958522D01*
X53779736Y-82048130D01*
X53779730Y-82048134D01*
X53620044Y-82164153D01*
X53193874Y-82590321D01*
X53727033Y-83123480D01*
X53373480Y-83477033D01*
X52840321Y-82943874D01*
X52840320Y-82943874D01*
X52414156Y-83370039D01*
X52414155Y-83370041D01*
X52298133Y-83529729D01*
X52208522Y-83705599D01*
X52208521Y-83705602D01*
X52147529Y-83893321D01*
X52116651Y-84088277D01*
X51500500Y-84088277D01*
X51500500Y-62838277D01*
X52116651Y-62838277D01*
X52116651Y-63035660D01*
X52147529Y-63230616D01*
X52208521Y-63418335D01*
X52208522Y-63418338D01*
X52298134Y-63594210D01*
X52324106Y-63629958D01*
X52324107Y-63629958D01*
X52890517Y-63063547D01*
X52907555Y-63127132D01*
X52973381Y-63241147D01*
X53066473Y-63334239D01*
X53180488Y-63400065D01*
X53244069Y-63417101D01*
X52677660Y-63983510D01*
X52677660Y-63983511D01*
X52713415Y-64009488D01*
X52889281Y-64099097D01*
X52889284Y-64099098D01*
X53077003Y-64160090D01*
X53271960Y-64190969D01*
X53469342Y-64190969D01*
X53664298Y-64160090D01*
X53852017Y-64099098D01*
X53852020Y-64099097D01*
X54027890Y-64009486D01*
X54187578Y-63893464D01*
X54187579Y-63893464D01*
X54613745Y-63467298D01*
X54613745Y-63467297D01*
X54080586Y-62934139D01*
X54434139Y-62580586D01*
X54967297Y-63113745D01*
X55393463Y-62687579D01*
X55393463Y-62687578D01*
X55509485Y-62527889D01*
X55509489Y-62527883D01*
X55599097Y-62352021D01*
X55599099Y-62352015D01*
X55660090Y-62164300D01*
X55690969Y-61969343D01*
X55690969Y-61771959D01*
X55660090Y-61577003D01*
X55599098Y-61389284D01*
X55599097Y-61389281D01*
X55509489Y-61213419D01*
X55509481Y-61213406D01*
X55483511Y-61177661D01*
X55483510Y-61177660D01*
X54917102Y-61744068D01*
X54900066Y-61680488D01*
X54834240Y-61566472D01*
X54741148Y-61473380D01*
X54627132Y-61407554D01*
X54563548Y-61390516D01*
X55129958Y-60824108D01*
X55094208Y-60798134D01*
X54918338Y-60708522D01*
X54918335Y-60708521D01*
X54730616Y-60647529D01*
X54535660Y-60616651D01*
X54338277Y-60616651D01*
X54143319Y-60647529D01*
X53955604Y-60708520D01*
X53955598Y-60708522D01*
X53779736Y-60798130D01*
X53779730Y-60798134D01*
X53620044Y-60914153D01*
X53193874Y-61340321D01*
X53727033Y-61873480D01*
X53373480Y-62227033D01*
X52840321Y-61693874D01*
X52840320Y-61693874D01*
X52414156Y-62120039D01*
X52414155Y-62120041D01*
X52298133Y-62279729D01*
X52208522Y-62455599D01*
X52208521Y-62455602D01*
X52147529Y-62643321D01*
X52116651Y-62838277D01*
X51500500Y-62838277D01*
X51500500Y-44771959D01*
X61309031Y-44771959D01*
X61309031Y-44969342D01*
X61339909Y-45164298D01*
X61400901Y-45352017D01*
X61400902Y-45352020D01*
X61490513Y-45527890D01*
X61606535Y-45687578D01*
X61606535Y-45687579D01*
X62032701Y-46113745D01*
X62565859Y-45580586D01*
X62919412Y-45934139D01*
X62386254Y-46467298D01*
X62812419Y-46893462D01*
X62812421Y-46893463D01*
X62972110Y-47009485D01*
X62972116Y-47009489D01*
X63147978Y-47099097D01*
X63147984Y-47099099D01*
X63335700Y-47160090D01*
X63335699Y-47160090D01*
X63530657Y-47190969D01*
X63728040Y-47190969D01*
X63922996Y-47160090D01*
X64110715Y-47099098D01*
X64110718Y-47099097D01*
X64286590Y-47009485D01*
X64322337Y-46983512D01*
X64322337Y-46983510D01*
X63755929Y-46417102D01*
X63819512Y-46400066D01*
X63933528Y-46334240D01*
X64026620Y-46241148D01*
X64092446Y-46127132D01*
X64109482Y-46063549D01*
X64675890Y-46629957D01*
X64675892Y-46629957D01*
X64701865Y-46594210D01*
X64791477Y-46418338D01*
X64791478Y-46418335D01*
X64852470Y-46230616D01*
X64883349Y-46035660D01*
X64883349Y-45838276D01*
X64852470Y-45643319D01*
X64791479Y-45455604D01*
X64791477Y-45455598D01*
X64701869Y-45279736D01*
X64701865Y-45279730D01*
X64585843Y-45120041D01*
X64585842Y-45120039D01*
X64159679Y-44693874D01*
X64159678Y-44693874D01*
X63626519Y-45227032D01*
X63272965Y-44873479D01*
X63806125Y-44340321D01*
X63379959Y-43914155D01*
X63220270Y-43798133D01*
X63044400Y-43708522D01*
X63044397Y-43708521D01*
X62856678Y-43647529D01*
X62661722Y-43616651D01*
X62464340Y-43616651D01*
X62269383Y-43647529D01*
X62081664Y-43708521D01*
X62081661Y-43708522D01*
X61905789Y-43798134D01*
X61870040Y-43824106D01*
X61870040Y-43824107D01*
X62436451Y-44390518D01*
X62372868Y-44407555D01*
X62258853Y-44473381D01*
X62165761Y-44566473D01*
X62099935Y-44680488D01*
X62082898Y-44744071D01*
X61516487Y-44177660D01*
X61516486Y-44177660D01*
X61490514Y-44213409D01*
X61400902Y-44389281D01*
X61400901Y-44389284D01*
X61339909Y-44577003D01*
X61309031Y-44771959D01*
X51500500Y-44771959D01*
X51500500Y-43124500D01*
X51520185Y-43057461D01*
X51572989Y-43011706D01*
X51624500Y-43000500D01*
X66375500Y-43000500D01*
X66442539Y-43020185D01*
G37*
%TD.AperFunction*%
%TA.AperFunction,Conductor*%
G36*
X63688539Y-53120185D02*
G01*
X63734294Y-53172989D01*
X63745500Y-53224500D01*
X63745500Y-53352736D01*
X63776389Y-53547763D01*
X63837408Y-53735558D01*
X63837409Y-53735561D01*
X63927056Y-53911501D01*
X63927058Y-53911504D01*
X64043115Y-54071246D01*
X64182753Y-54210884D01*
X64332234Y-54319486D01*
X64342499Y-54326944D01*
X64518439Y-54416591D01*
X64643637Y-54457270D01*
X64706236Y-54477610D01*
X64901264Y-54508500D01*
X64901269Y-54508500D01*
X65098736Y-54508500D01*
X65293763Y-54477610D01*
X65481561Y-54416591D01*
X65657501Y-54326944D01*
X65767734Y-54246856D01*
X65817246Y-54210884D01*
X65817248Y-54210881D01*
X65817252Y-54210879D01*
X65956879Y-54071252D01*
X65956881Y-54071248D01*
X65956884Y-54071246D01*
X66007779Y-54001192D01*
X66072944Y-53911501D01*
X66162591Y-53735561D01*
X66223610Y-53547763D01*
X66253027Y-53362036D01*
X66282956Y-53298901D01*
X66342268Y-53261970D01*
X66412131Y-53262968D01*
X66470363Y-53301578D01*
X66498477Y-53365542D01*
X66499500Y-53381434D01*
X66499500Y-65618565D01*
X66479815Y-65685604D01*
X66427011Y-65731359D01*
X66357853Y-65741303D01*
X66294297Y-65712278D01*
X66256523Y-65653500D01*
X66253027Y-65637963D01*
X66223610Y-65452236D01*
X66203270Y-65389637D01*
X66162591Y-65264439D01*
X66072944Y-65088499D01*
X66065486Y-65078234D01*
X65956884Y-64928753D01*
X65817246Y-64789115D01*
X65657504Y-64673058D01*
X65657503Y-64673057D01*
X65657501Y-64673056D01*
X65481561Y-64583409D01*
X65481558Y-64583408D01*
X65293763Y-64522389D01*
X65098736Y-64491500D01*
X65098731Y-64491500D01*
X64901269Y-64491500D01*
X64901264Y-64491500D01*
X64706236Y-64522389D01*
X64518441Y-64583408D01*
X64342495Y-64673058D01*
X64182753Y-64789115D01*
X64043115Y-64928753D01*
X63927058Y-65088495D01*
X63837408Y-65264441D01*
X63776389Y-65452236D01*
X63745500Y-65647263D01*
X63745500Y-67352736D01*
X63776389Y-67547763D01*
X63837408Y-67735558D01*
X63837409Y-67735561D01*
X63927056Y-67911501D01*
X63927058Y-67911504D01*
X64043115Y-68071246D01*
X64182753Y-68210884D01*
X64332234Y-68319486D01*
X64342499Y-68326944D01*
X64518439Y-68416591D01*
X64643637Y-68457270D01*
X64706236Y-68477610D01*
X64901264Y-68508500D01*
X64901269Y-68508500D01*
X65098736Y-68508500D01*
X65293763Y-68477610D01*
X65481561Y-68416591D01*
X65657501Y-68326944D01*
X65747192Y-68261779D01*
X65817246Y-68210884D01*
X65817248Y-68210881D01*
X65817252Y-68210879D01*
X65956879Y-68071252D01*
X65956881Y-68071248D01*
X65956884Y-68071246D01*
X66007779Y-68001192D01*
X66072944Y-67911501D01*
X66162591Y-67735561D01*
X66223610Y-67547763D01*
X66253027Y-67362036D01*
X66282956Y-67298901D01*
X66342268Y-67261970D01*
X66412131Y-67262968D01*
X66470363Y-67301578D01*
X66498477Y-67365542D01*
X66499500Y-67381434D01*
X66499500Y-77565891D01*
X66533608Y-77693187D01*
X66566554Y-77750250D01*
X66599500Y-77807314D01*
X66692686Y-77900500D01*
X66806814Y-77966392D01*
X66934108Y-78000500D01*
X70375500Y-78000500D01*
X70442539Y-78020185D01*
X70488294Y-78072989D01*
X70499500Y-78124500D01*
X70499500Y-82698270D01*
X70479815Y-82765309D01*
X70427011Y-82811064D01*
X70357853Y-82821008D01*
X70294297Y-82791983D01*
X70287819Y-82785951D01*
X61636819Y-74134951D01*
X61603334Y-74073628D01*
X61600500Y-74047270D01*
X61600500Y-61878500D01*
X61620185Y-61811461D01*
X61672989Y-61765706D01*
X61724500Y-61754500D01*
X61852736Y-61754500D01*
X62047763Y-61723610D01*
X62235561Y-61662591D01*
X62411501Y-61572944D01*
X62501192Y-61507779D01*
X62571246Y-61456884D01*
X62571248Y-61456881D01*
X62571252Y-61456879D01*
X62710879Y-61317252D01*
X62710881Y-61317248D01*
X62710884Y-61317246D01*
X62761779Y-61247192D01*
X62826944Y-61157501D01*
X62916591Y-60981561D01*
X62977610Y-60793763D01*
X62991111Y-60708520D01*
X63008500Y-60598736D01*
X63008500Y-60401263D01*
X62977610Y-60206236D01*
X62957270Y-60143637D01*
X62916591Y-60018439D01*
X62826944Y-59842499D01*
X62819486Y-59832234D01*
X62710884Y-59682753D01*
X62571246Y-59543115D01*
X62411504Y-59427058D01*
X62411503Y-59427057D01*
X62411501Y-59427056D01*
X62235561Y-59337409D01*
X62235558Y-59337408D01*
X62047763Y-59276389D01*
X61852736Y-59245500D01*
X61852731Y-59245500D01*
X60147269Y-59245500D01*
X60147264Y-59245500D01*
X59952236Y-59276389D01*
X59764441Y-59337408D01*
X59588495Y-59427058D01*
X59428753Y-59543115D01*
X59289115Y-59682753D01*
X59173058Y-59842495D01*
X59083408Y-60018441D01*
X59022389Y-60206236D01*
X58991500Y-60401263D01*
X58991500Y-60598736D01*
X59022389Y-60793763D01*
X59083408Y-60981558D01*
X59083409Y-60981561D01*
X59095972Y-61006216D01*
X59173058Y-61157504D01*
X59289115Y-61317246D01*
X59428753Y-61456884D01*
X59578234Y-61565486D01*
X59588499Y-61572944D01*
X59764439Y-61662591D01*
X59860719Y-61693874D01*
X59952236Y-61723610D01*
X60147264Y-61754500D01*
X60147269Y-61754500D01*
X60275500Y-61754500D01*
X60342539Y-61774185D01*
X60388294Y-61826989D01*
X60399500Y-61878500D01*
X60399500Y-74260697D01*
X60399499Y-74260715D01*
X60399499Y-74426421D01*
X60399498Y-74426421D01*
X60440423Y-74579152D01*
X60469358Y-74629267D01*
X60469359Y-74629271D01*
X60469360Y-74629271D01*
X60519479Y-74716081D01*
X60519481Y-74716084D01*
X60638349Y-74834952D01*
X60638355Y-74834957D01*
X69762181Y-83958783D01*
X69795666Y-84020106D01*
X69798500Y-84046464D01*
X69798500Y-90525500D01*
X69778815Y-90592539D01*
X69726011Y-90638294D01*
X69674500Y-90649500D01*
X68102129Y-90649500D01*
X68102123Y-90649501D01*
X68042516Y-90655908D01*
X67907671Y-90706202D01*
X67907664Y-90706206D01*
X67792455Y-90792452D01*
X67792452Y-90792455D01*
X67706206Y-90907664D01*
X67706202Y-90907671D01*
X67655908Y-91042517D01*
X67649501Y-91102116D01*
X67649500Y-91102135D01*
X67649500Y-92897870D01*
X67649501Y-92897876D01*
X67655908Y-92957483D01*
X67706202Y-93092328D01*
X67706206Y-93092335D01*
X67792452Y-93207544D01*
X67792455Y-93207547D01*
X67907664Y-93293793D01*
X67907671Y-93293797D01*
X68039082Y-93342810D01*
X68095016Y-93384681D01*
X68119433Y-93450145D01*
X68104582Y-93518418D01*
X68083431Y-93546673D01*
X67969889Y-93660215D01*
X67844951Y-93832179D01*
X67748444Y-94021585D01*
X67682753Y-94223760D01*
X67649500Y-94433713D01*
X67649500Y-94646286D01*
X67682753Y-94856239D01*
X67748444Y-95058414D01*
X67844951Y-95247820D01*
X67969890Y-95419786D01*
X68120213Y-95570109D01*
X68292182Y-95695050D01*
X68300946Y-95699516D01*
X68351742Y-95747491D01*
X68368536Y-95815312D01*
X68345998Y-95881447D01*
X68300946Y-95920484D01*
X68292182Y-95924949D01*
X68120213Y-96049890D01*
X67969890Y-96200213D01*
X67844951Y-96372179D01*
X67748444Y-96561585D01*
X67682753Y-96763760D01*
X67649500Y-96973713D01*
X67649500Y-97186287D01*
X67682754Y-97396243D01*
X67725041Y-97526389D01*
X67748444Y-97598414D01*
X67844951Y-97787820D01*
X67969890Y-97959786D01*
X68120213Y-98110109D01*
X68292182Y-98235050D01*
X68300946Y-98239516D01*
X68351742Y-98287491D01*
X68368536Y-98355312D01*
X68345998Y-98421447D01*
X68300946Y-98460484D01*
X68292182Y-98464949D01*
X68120213Y-98589890D01*
X67969890Y-98740213D01*
X67844951Y-98912179D01*
X67748444Y-99101585D01*
X67682753Y-99303760D01*
X67663129Y-99427661D01*
X67649500Y-99513713D01*
X67649500Y-99726287D01*
X67682754Y-99936243D01*
X67694895Y-99973610D01*
X67748444Y-100138414D01*
X67844951Y-100327820D01*
X67969890Y-100499786D01*
X68120213Y-100650109D01*
X68292182Y-100775050D01*
X68300946Y-100779516D01*
X68351742Y-100827491D01*
X68368536Y-100895312D01*
X68345998Y-100961447D01*
X68300946Y-101000484D01*
X68292182Y-101004949D01*
X68120213Y-101129890D01*
X67969890Y-101280213D01*
X67844951Y-101452179D01*
X67748444Y-101641585D01*
X67682753Y-101843760D01*
X67649500Y-102053713D01*
X67649500Y-102266286D01*
X67682753Y-102476239D01*
X67748444Y-102678414D01*
X67844951Y-102867820D01*
X67969890Y-103039786D01*
X68120213Y-103190109D01*
X68292182Y-103315050D01*
X68300946Y-103319516D01*
X68351742Y-103367491D01*
X68368536Y-103435312D01*
X68345998Y-103501447D01*
X68300946Y-103540484D01*
X68292182Y-103544949D01*
X68120213Y-103669890D01*
X67969890Y-103820213D01*
X67844951Y-103992179D01*
X67748444Y-104181585D01*
X67682753Y-104383760D01*
X67649500Y-104593713D01*
X67649500Y-104806286D01*
X67682753Y-105016239D01*
X67748444Y-105218414D01*
X67844951Y-105407820D01*
X67969890Y-105579786D01*
X68120213Y-105730109D01*
X68292179Y-105855048D01*
X68292181Y-105855049D01*
X68292184Y-105855051D01*
X68301493Y-105859794D01*
X68352290Y-105907766D01*
X68369087Y-105975587D01*
X68346552Y-106041722D01*
X68301502Y-106080762D01*
X68292443Y-106085378D01*
X68120540Y-106210272D01*
X68120535Y-106210276D01*
X67970276Y-106360535D01*
X67970272Y-106360540D01*
X67845379Y-106532442D01*
X67748904Y-106721782D01*
X67683242Y-106923870D01*
X67683242Y-106923873D01*
X67672769Y-106990000D01*
X68566988Y-106990000D01*
X68534075Y-107047007D01*
X68500000Y-107174174D01*
X68500000Y-107305826D01*
X68534075Y-107432993D01*
X68566988Y-107490000D01*
X67672769Y-107490000D01*
X67683242Y-107556126D01*
X67683242Y-107556129D01*
X67748904Y-107758217D01*
X67845379Y-107947557D01*
X67970272Y-108119459D01*
X67970276Y-108119464D01*
X68120535Y-108269723D01*
X68120540Y-108269727D01*
X68292444Y-108394622D01*
X68302048Y-108399516D01*
X68352844Y-108447491D01*
X68369638Y-108515312D01*
X68347100Y-108581447D01*
X68302048Y-108620484D01*
X68292444Y-108625377D01*
X68120540Y-108750272D01*
X68120535Y-108750276D01*
X67970276Y-108900535D01*
X67970272Y-108900540D01*
X67845379Y-109072442D01*
X67748904Y-109261782D01*
X67683242Y-109463870D01*
X67683242Y-109463873D01*
X67672769Y-109530000D01*
X68566988Y-109530000D01*
X68534075Y-109587007D01*
X68500000Y-109714174D01*
X68500000Y-109845826D01*
X68534075Y-109972993D01*
X68566988Y-110030000D01*
X67672769Y-110030000D01*
X67683242Y-110096126D01*
X67683242Y-110096129D01*
X67748904Y-110298217D01*
X67845379Y-110487557D01*
X67970272Y-110659459D01*
X67970276Y-110659464D01*
X68120535Y-110809723D01*
X68120540Y-110809727D01*
X68292442Y-110934620D01*
X68481782Y-111031095D01*
X68683871Y-111096757D01*
X68750000Y-111107231D01*
X68750000Y-110213012D01*
X68807007Y-110245925D01*
X68934174Y-110280000D01*
X69065826Y-110280000D01*
X69192993Y-110245925D01*
X69250000Y-110213012D01*
X69250000Y-111107230D01*
X69316126Y-111096757D01*
X69316129Y-111096757D01*
X69518219Y-111031094D01*
X69618204Y-110980149D01*
X69686873Y-110967252D01*
X69751614Y-110993528D01*
X69791871Y-111050634D01*
X69798500Y-111090633D01*
X69798500Y-163162272D01*
X69798499Y-163162290D01*
X69798499Y-163327996D01*
X69798498Y-163327996D01*
X69839424Y-163480729D01*
X69850838Y-163500498D01*
X69850839Y-163500500D01*
X69918477Y-163617654D01*
X69918481Y-163617659D01*
X70037349Y-163736527D01*
X70037355Y-163736532D01*
X70266197Y-163965374D01*
X70266207Y-163965385D01*
X70270537Y-163969715D01*
X70270538Y-163969716D01*
X70382342Y-164081520D01*
X70469153Y-164131639D01*
X70469155Y-164131641D01*
X70519271Y-164160576D01*
X70519273Y-164160577D01*
X70672000Y-164201500D01*
X70672001Y-164201500D01*
X73271628Y-164201500D01*
X73338667Y-164221185D01*
X73384422Y-164273989D01*
X73394366Y-164343147D01*
X73382113Y-164381795D01*
X73343904Y-164456782D01*
X73278242Y-164658870D01*
X73278242Y-164658873D01*
X73267769Y-164725000D01*
X74161988Y-164725000D01*
X74129075Y-164782007D01*
X74095000Y-164909174D01*
X74095000Y-165040826D01*
X74129075Y-165167993D01*
X74161988Y-165225000D01*
X73267769Y-165225000D01*
X73278242Y-165291126D01*
X73278242Y-165291129D01*
X73343904Y-165493217D01*
X73440379Y-165682557D01*
X73565272Y-165854459D01*
X73565276Y-165854464D01*
X73715535Y-166004723D01*
X73715540Y-166004727D01*
X73887442Y-166129620D01*
X74076782Y-166226095D01*
X74278871Y-166291757D01*
X74345000Y-166302231D01*
X74345000Y-165408012D01*
X74402007Y-165440925D01*
X74529174Y-165475000D01*
X74660826Y-165475000D01*
X74787993Y-165440925D01*
X74845000Y-165408012D01*
X74845000Y-166302230D01*
X74911126Y-166291757D01*
X74911129Y-166291757D01*
X75113217Y-166226095D01*
X75302557Y-166129620D01*
X75474459Y-166004727D01*
X75474464Y-166004723D01*
X75624723Y-165854464D01*
X75624727Y-165854459D01*
X75749620Y-165682558D01*
X75754514Y-165672954D01*
X75802488Y-165622157D01*
X75870308Y-165605361D01*
X75936444Y-165627897D01*
X75975486Y-165672954D01*
X75980379Y-165682558D01*
X76105272Y-165854459D01*
X76105276Y-165854464D01*
X76255535Y-166004723D01*
X76255540Y-166004727D01*
X76427442Y-166129620D01*
X76616782Y-166226095D01*
X76818871Y-166291757D01*
X76885000Y-166302231D01*
X76885000Y-165408012D01*
X76942007Y-165440925D01*
X77069174Y-165475000D01*
X77200826Y-165475000D01*
X77327993Y-165440925D01*
X77385000Y-165408012D01*
X77385000Y-166359396D01*
X77382663Y-166359396D01*
X77382924Y-166395781D01*
X77351381Y-166449382D01*
X77216365Y-166584399D01*
X77139582Y-166661182D01*
X77078262Y-166694666D01*
X77051903Y-166697500D01*
X69732297Y-166697500D01*
X69665258Y-166677815D01*
X69644616Y-166661181D01*
X60228819Y-157245384D01*
X60195334Y-157184061D01*
X60192500Y-157157703D01*
X60192500Y-142147263D01*
X63745500Y-142147263D01*
X63745500Y-143852736D01*
X63776389Y-144047763D01*
X63837408Y-144235558D01*
X63837409Y-144235561D01*
X63927056Y-144411501D01*
X63927058Y-144411504D01*
X64043115Y-144571246D01*
X64182753Y-144710884D01*
X64332234Y-144819486D01*
X64342499Y-144826944D01*
X64518439Y-144916591D01*
X64643637Y-144957270D01*
X64706236Y-144977610D01*
X64901264Y-145008500D01*
X64901269Y-145008500D01*
X65098736Y-145008500D01*
X65293763Y-144977610D01*
X65481561Y-144916591D01*
X65657501Y-144826944D01*
X65747192Y-144761779D01*
X65817246Y-144710884D01*
X65817248Y-144710881D01*
X65817252Y-144710879D01*
X65956879Y-144571252D01*
X65956881Y-144571248D01*
X65956884Y-144571246D01*
X66007779Y-144501192D01*
X66072944Y-144411501D01*
X66162591Y-144235561D01*
X66223610Y-144047763D01*
X66254500Y-143852736D01*
X66254500Y-142147263D01*
X66223610Y-141952236D01*
X66203270Y-141889637D01*
X66162591Y-141764439D01*
X66072944Y-141588499D01*
X66065486Y-141578234D01*
X65956884Y-141428753D01*
X65817246Y-141289115D01*
X65657504Y-141173058D01*
X65657503Y-141173057D01*
X65657501Y-141173056D01*
X65481561Y-141083409D01*
X65481558Y-141083408D01*
X65293763Y-141022389D01*
X65098736Y-140991500D01*
X65098731Y-140991500D01*
X64901269Y-140991500D01*
X64901264Y-140991500D01*
X64706236Y-141022389D01*
X64518441Y-141083408D01*
X64342495Y-141173058D01*
X64182753Y-141289115D01*
X64043115Y-141428753D01*
X63927058Y-141588495D01*
X63837408Y-141764441D01*
X63776389Y-141952236D01*
X63745500Y-142147263D01*
X60192500Y-142147263D01*
X60192500Y-139208097D01*
X60212185Y-139141058D01*
X60228819Y-139120416D01*
X61058417Y-138290819D01*
X61119740Y-138257334D01*
X61146098Y-138254500D01*
X61852736Y-138254500D01*
X62047763Y-138223610D01*
X62235561Y-138162591D01*
X62411501Y-138072944D01*
X62501192Y-138007779D01*
X62571246Y-137956884D01*
X62571248Y-137956881D01*
X62571252Y-137956879D01*
X62710879Y-137817252D01*
X62710881Y-137817248D01*
X62710884Y-137817246D01*
X62761779Y-137747192D01*
X62826944Y-137657501D01*
X62916591Y-137481561D01*
X62977610Y-137293763D01*
X62991111Y-137208520D01*
X63008500Y-137098736D01*
X63008500Y-136901263D01*
X62977610Y-136706236D01*
X62957270Y-136643637D01*
X62916591Y-136518439D01*
X62826944Y-136342499D01*
X62819486Y-136332234D01*
X62710884Y-136182753D01*
X62571246Y-136043115D01*
X62411504Y-135927058D01*
X62411503Y-135927057D01*
X62411501Y-135927056D01*
X62235561Y-135837409D01*
X62208499Y-135828616D01*
X62047763Y-135776389D01*
X61852736Y-135745500D01*
X61852731Y-135745500D01*
X60147269Y-135745500D01*
X60147264Y-135745500D01*
X59952233Y-135776390D01*
X59947494Y-135777528D01*
X59947144Y-135776073D01*
X59883942Y-135777861D01*
X59824120Y-135741763D01*
X59793310Y-135679053D01*
X59791500Y-135657944D01*
X59791500Y-125147263D01*
X63745500Y-125147263D01*
X63745500Y-126852736D01*
X63776389Y-127047763D01*
X63837408Y-127235558D01*
X63837409Y-127235561D01*
X63927056Y-127411501D01*
X63927058Y-127411504D01*
X64043115Y-127571246D01*
X64182753Y-127710884D01*
X64332234Y-127819486D01*
X64342499Y-127826944D01*
X64518439Y-127916591D01*
X64643637Y-127957270D01*
X64706236Y-127977610D01*
X64901264Y-128008500D01*
X64901269Y-128008500D01*
X65098736Y-128008500D01*
X65293763Y-127977610D01*
X65481561Y-127916591D01*
X65657501Y-127826944D01*
X65747192Y-127761779D01*
X65817246Y-127710884D01*
X65817248Y-127710881D01*
X65817252Y-127710879D01*
X65956879Y-127571252D01*
X65956881Y-127571248D01*
X65956884Y-127571246D01*
X66007779Y-127501192D01*
X66072944Y-127411501D01*
X66162591Y-127235561D01*
X66223610Y-127047763D01*
X66254500Y-126852736D01*
X66254500Y-125147263D01*
X66223610Y-124952236D01*
X66203270Y-124889637D01*
X66162591Y-124764439D01*
X66072944Y-124588499D01*
X66065486Y-124578234D01*
X65956884Y-124428753D01*
X65817246Y-124289115D01*
X65657504Y-124173058D01*
X65657503Y-124173057D01*
X65657501Y-124173056D01*
X65481561Y-124083409D01*
X65481558Y-124083408D01*
X65293763Y-124022389D01*
X65098736Y-123991500D01*
X65098731Y-123991500D01*
X64901269Y-123991500D01*
X64901264Y-123991500D01*
X64706236Y-124022389D01*
X64518441Y-124083408D01*
X64342495Y-124173058D01*
X64182753Y-124289115D01*
X64043115Y-124428753D01*
X63927058Y-124588495D01*
X63837408Y-124764441D01*
X63776389Y-124952236D01*
X63745500Y-125147263D01*
X59791500Y-125147263D01*
X59791500Y-122109097D01*
X59811185Y-122042058D01*
X59827819Y-122021416D01*
X60558416Y-121290819D01*
X60619739Y-121257334D01*
X60646097Y-121254500D01*
X61852736Y-121254500D01*
X62047763Y-121223610D01*
X62235561Y-121162591D01*
X62411501Y-121072944D01*
X62501192Y-121007779D01*
X62571246Y-120956884D01*
X62571248Y-120956881D01*
X62571252Y-120956879D01*
X62710879Y-120817252D01*
X62710881Y-120817248D01*
X62710884Y-120817246D01*
X62761779Y-120747192D01*
X62826944Y-120657501D01*
X62916591Y-120481561D01*
X62977610Y-120293763D01*
X62991111Y-120208520D01*
X63008500Y-120098736D01*
X63008500Y-119901263D01*
X62977610Y-119706236D01*
X62957270Y-119643637D01*
X62916591Y-119518439D01*
X62826944Y-119342499D01*
X62819486Y-119332234D01*
X62710884Y-119182753D01*
X62571246Y-119043115D01*
X62411504Y-118927058D01*
X62411503Y-118927057D01*
X62411501Y-118927056D01*
X62235561Y-118837409D01*
X62205206Y-118827546D01*
X62047763Y-118776389D01*
X61852736Y-118745500D01*
X61852731Y-118745500D01*
X60147269Y-118745500D01*
X60147264Y-118745500D01*
X59952236Y-118776389D01*
X59764441Y-118837408D01*
X59588493Y-118927058D01*
X59587377Y-118927870D01*
X59586880Y-118928047D01*
X59584343Y-118929602D01*
X59584016Y-118929068D01*
X59521568Y-118951344D01*
X59453516Y-118935513D01*
X59404825Y-118885403D01*
X59390500Y-118827546D01*
X59390500Y-103897263D01*
X63745500Y-103897263D01*
X63745500Y-105602736D01*
X63776389Y-105797763D01*
X63812132Y-105907766D01*
X63837409Y-105985561D01*
X63885917Y-106080762D01*
X63927058Y-106161504D01*
X64043115Y-106321246D01*
X64182753Y-106460884D01*
X64332234Y-106569486D01*
X64342499Y-106576944D01*
X64518439Y-106666591D01*
X64643637Y-106707270D01*
X64706236Y-106727610D01*
X64901264Y-106758500D01*
X64901269Y-106758500D01*
X65098736Y-106758500D01*
X65293763Y-106727610D01*
X65311700Y-106721782D01*
X65481561Y-106666591D01*
X65657501Y-106576944D01*
X65747192Y-106511779D01*
X65817246Y-106460884D01*
X65817248Y-106460881D01*
X65817252Y-106460879D01*
X65956879Y-106321252D01*
X65956881Y-106321248D01*
X65956884Y-106321246D01*
X66037510Y-106210272D01*
X66072944Y-106161501D01*
X66162591Y-105985561D01*
X66223610Y-105797763D01*
X66224972Y-105789165D01*
X66254500Y-105602736D01*
X66254500Y-103897263D01*
X66223610Y-103702236D01*
X66171053Y-103540484D01*
X66162591Y-103514439D01*
X66072944Y-103338499D01*
X66055908Y-103315051D01*
X65956884Y-103178753D01*
X65817246Y-103039115D01*
X65657504Y-102923058D01*
X65657503Y-102923057D01*
X65657501Y-102923056D01*
X65481561Y-102833409D01*
X65481558Y-102833408D01*
X65293763Y-102772389D01*
X65098736Y-102741500D01*
X65098731Y-102741500D01*
X64901269Y-102741500D01*
X64901264Y-102741500D01*
X64706236Y-102772389D01*
X64518441Y-102833408D01*
X64342495Y-102923058D01*
X64182753Y-103039115D01*
X64043115Y-103178753D01*
X63927058Y-103338495D01*
X63837408Y-103514441D01*
X63776389Y-103702236D01*
X63745500Y-103897263D01*
X59390500Y-103897263D01*
X59390500Y-101260097D01*
X59410185Y-101193058D01*
X59426819Y-101172416D01*
X60558416Y-100040819D01*
X60619739Y-100007334D01*
X60646097Y-100004500D01*
X61852736Y-100004500D01*
X62047763Y-99973610D01*
X62235561Y-99912591D01*
X62411501Y-99822944D01*
X62501192Y-99757779D01*
X62571246Y-99706884D01*
X62571248Y-99706881D01*
X62571252Y-99706879D01*
X62710879Y-99567252D01*
X62710881Y-99567248D01*
X62710884Y-99567246D01*
X62761779Y-99497192D01*
X62826944Y-99407501D01*
X62916591Y-99231561D01*
X62977610Y-99043763D01*
X62991111Y-98958520D01*
X63008500Y-98848736D01*
X63008500Y-98651263D01*
X62977610Y-98456236D01*
X62949084Y-98368443D01*
X62916591Y-98268439D01*
X62826944Y-98092499D01*
X62786181Y-98036393D01*
X62710884Y-97932753D01*
X62571246Y-97793115D01*
X62411504Y-97677058D01*
X62411503Y-97677057D01*
X62411501Y-97677056D01*
X62235561Y-97587409D01*
X62235558Y-97587408D01*
X62047763Y-97526389D01*
X61852736Y-97495500D01*
X61852731Y-97495500D01*
X60147269Y-97495500D01*
X60147264Y-97495500D01*
X59952236Y-97526389D01*
X59764441Y-97587408D01*
X59588495Y-97677058D01*
X59428753Y-97793115D01*
X59289119Y-97932749D01*
X59289115Y-97932754D01*
X59213818Y-98036393D01*
X59158489Y-98079059D01*
X59088875Y-98085038D01*
X59027080Y-98052433D01*
X58992723Y-97991594D01*
X58989500Y-97963508D01*
X58989500Y-86897263D01*
X63745500Y-86897263D01*
X63745500Y-88602736D01*
X63776389Y-88797763D01*
X63837408Y-88985558D01*
X63837409Y-88985561D01*
X63927056Y-89161501D01*
X63927058Y-89161504D01*
X64043115Y-89321246D01*
X64182753Y-89460884D01*
X64332234Y-89569486D01*
X64342499Y-89576944D01*
X64518439Y-89666591D01*
X64643637Y-89707270D01*
X64706236Y-89727610D01*
X64901264Y-89758500D01*
X64901269Y-89758500D01*
X65098736Y-89758500D01*
X65293763Y-89727610D01*
X65481561Y-89666591D01*
X65657501Y-89576944D01*
X65747192Y-89511779D01*
X65817246Y-89460884D01*
X65817248Y-89460881D01*
X65817252Y-89460879D01*
X65956879Y-89321252D01*
X65956881Y-89321248D01*
X65956884Y-89321246D01*
X66007779Y-89251192D01*
X66072944Y-89161501D01*
X66162591Y-88985561D01*
X66223610Y-88797763D01*
X66254500Y-88602736D01*
X66254500Y-86897263D01*
X66223610Y-86702236D01*
X66203270Y-86639637D01*
X66162591Y-86514439D01*
X66072944Y-86338499D01*
X66065486Y-86328234D01*
X65956884Y-86178753D01*
X65817246Y-86039115D01*
X65657504Y-85923058D01*
X65657503Y-85923057D01*
X65657501Y-85923056D01*
X65481561Y-85833409D01*
X65481558Y-85833408D01*
X65293763Y-85772389D01*
X65098736Y-85741500D01*
X65098731Y-85741500D01*
X64901269Y-85741500D01*
X64901264Y-85741500D01*
X64706236Y-85772389D01*
X64518441Y-85833408D01*
X64342495Y-85923058D01*
X64182753Y-86039115D01*
X64043115Y-86178753D01*
X63927058Y-86338495D01*
X63837408Y-86514441D01*
X63776389Y-86702236D01*
X63745500Y-86897263D01*
X58989500Y-86897263D01*
X58989500Y-84661097D01*
X59009185Y-84594058D01*
X59025819Y-84573416D01*
X60558417Y-83040819D01*
X60619740Y-83007334D01*
X60646098Y-83004500D01*
X61852736Y-83004500D01*
X62047763Y-82973610D01*
X62235561Y-82912591D01*
X62411501Y-82822944D01*
X62501192Y-82757779D01*
X62571246Y-82706884D01*
X62571248Y-82706881D01*
X62571252Y-82706879D01*
X62710879Y-82567252D01*
X62710881Y-82567248D01*
X62710884Y-82567246D01*
X62761779Y-82497192D01*
X62826944Y-82407501D01*
X62916591Y-82231561D01*
X62977610Y-82043763D01*
X62991111Y-81958520D01*
X63008500Y-81848736D01*
X63008500Y-81651263D01*
X62977610Y-81456236D01*
X62957270Y-81393637D01*
X62916591Y-81268439D01*
X62826944Y-81092499D01*
X62819486Y-81082234D01*
X62710884Y-80932753D01*
X62571246Y-80793115D01*
X62411504Y-80677058D01*
X62411503Y-80677057D01*
X62411501Y-80677056D01*
X62235561Y-80587409D01*
X62235558Y-80587408D01*
X62047763Y-80526389D01*
X61852736Y-80495500D01*
X61852731Y-80495500D01*
X60147269Y-80495500D01*
X60147264Y-80495500D01*
X59952236Y-80526389D01*
X59764441Y-80587408D01*
X59588495Y-80677058D01*
X59428753Y-80793115D01*
X59289115Y-80932753D01*
X59173058Y-81092495D01*
X59083408Y-81268441D01*
X59022389Y-81456236D01*
X58991500Y-81651263D01*
X58991500Y-81848736D01*
X59022389Y-82043763D01*
X59061507Y-82164153D01*
X59083409Y-82231561D01*
X59129908Y-82322820D01*
X59173055Y-82407500D01*
X59245551Y-82507283D01*
X59269030Y-82573090D01*
X59253204Y-82641144D01*
X59232913Y-82667849D01*
X58800181Y-83100582D01*
X58738858Y-83134067D01*
X58669167Y-83129083D01*
X58613233Y-83087212D01*
X58588816Y-83021747D01*
X58588500Y-83012901D01*
X58588500Y-61158945D01*
X58588500Y-61158943D01*
X58547577Y-61006216D01*
X58547577Y-61006215D01*
X58547577Y-61006214D01*
X58518639Y-60956095D01*
X58518637Y-60956092D01*
X58494424Y-60914153D01*
X58468520Y-60869284D01*
X58356716Y-60757480D01*
X58356715Y-60757479D01*
X58352385Y-60753149D01*
X58352374Y-60753139D01*
X55636819Y-58037584D01*
X55603334Y-57976261D01*
X55600500Y-57949903D01*
X55600500Y-56401263D01*
X56991500Y-56401263D01*
X56991500Y-56598736D01*
X57022389Y-56793763D01*
X57083408Y-56981558D01*
X57083409Y-56981561D01*
X57173056Y-57157501D01*
X57173058Y-57157504D01*
X57289115Y-57317246D01*
X57428753Y-57456884D01*
X57578234Y-57565486D01*
X57588499Y-57572944D01*
X57764439Y-57662591D01*
X57889637Y-57703270D01*
X57952236Y-57723610D01*
X58147264Y-57754500D01*
X58147269Y-57754500D01*
X59852736Y-57754500D01*
X60047763Y-57723610D01*
X60235561Y-57662591D01*
X60411501Y-57572944D01*
X60501192Y-57507779D01*
X60571246Y-57456884D01*
X60571248Y-57456881D01*
X60571252Y-57456879D01*
X60710879Y-57317252D01*
X60710881Y-57317248D01*
X60710884Y-57317246D01*
X60761779Y-57247192D01*
X60826944Y-57157501D01*
X60916591Y-56981561D01*
X60977610Y-56793763D01*
X61008500Y-56598736D01*
X61008500Y-56401263D01*
X60977610Y-56206236D01*
X60957270Y-56143637D01*
X60916591Y-56018439D01*
X60826944Y-55842499D01*
X60819486Y-55832234D01*
X60710884Y-55682753D01*
X60571246Y-55543115D01*
X60411504Y-55427058D01*
X60411503Y-55427057D01*
X60411501Y-55427056D01*
X60235561Y-55337409D01*
X60235558Y-55337408D01*
X60047763Y-55276389D01*
X59852736Y-55245500D01*
X59852731Y-55245500D01*
X58147269Y-55245500D01*
X58147264Y-55245500D01*
X57952236Y-55276389D01*
X57764441Y-55337408D01*
X57588495Y-55427058D01*
X57428753Y-55543115D01*
X57289115Y-55682753D01*
X57173058Y-55842495D01*
X57083408Y-56018441D01*
X57022389Y-56206236D01*
X56991500Y-56401263D01*
X55600500Y-56401263D01*
X55600500Y-55027473D01*
X55620185Y-54960434D01*
X55636819Y-54939792D01*
X57439792Y-53136819D01*
X57501115Y-53103334D01*
X57527473Y-53100500D01*
X63621500Y-53100500D01*
X63688539Y-53120185D01*
G37*
%TD.AperFunction*%
%TA.AperFunction,Conductor*%
G36*
X76669075Y-164782007D02*
G01*
X76635000Y-164909174D01*
X76635000Y-165040826D01*
X76669075Y-165167993D01*
X76701988Y-165225000D01*
X75028012Y-165225000D01*
X75060925Y-165167993D01*
X75095000Y-165040826D01*
X75095000Y-164909174D01*
X75060925Y-164782007D01*
X75028012Y-164725000D01*
X76701988Y-164725000D01*
X76669075Y-164782007D01*
G37*
%TD.AperFunction*%
%TA.AperFunction,Conductor*%
G36*
X69250000Y-109346988D02*
G01*
X69192993Y-109314075D01*
X69065826Y-109280000D01*
X68934174Y-109280000D01*
X68807007Y-109314075D01*
X68750000Y-109346988D01*
X68750000Y-107673012D01*
X68807007Y-107705925D01*
X68934174Y-107740000D01*
X69065826Y-107740000D01*
X69192993Y-107705925D01*
X69250000Y-107673012D01*
X69250000Y-109346988D01*
G37*
%TD.AperFunction*%
%TD*%
M02*
